%TF.GenerationSoftware,KiCad,Pcbnew,9.0.9-1.fc43*%
%TF.CreationDate,2026-05-19T22:16:07+02:00*%
%TF.ProjectId,Fader_Faderwinkel,46616465-725f-4466-9164-657277696e6b,rev?*%
%TF.SameCoordinates,Original*%
%TF.FileFunction,Legend,Top*%
%TF.FilePolarity,Positive*%
%FSLAX46Y46*%
G04 Gerber Fmt 4.6, Leading zero omitted, Abs format (unit mm)*
G04 Created by KiCad (PCBNEW 9.0.9-1.fc43) date 2026-05-19 22:16:07*
%MOMM*%
%LPD*%
G01*
G04 APERTURE LIST*
%ADD10C,0.100000*%
%ADD11C,0.150000*%
%ADD12C,0.120000*%
G04 APERTURE END LIST*
D10*
X66904761Y-31457419D02*
X66571428Y-30981228D01*
X66333333Y-31457419D02*
X66333333Y-30457419D01*
X66333333Y-30457419D02*
X66714285Y-30457419D01*
X66714285Y-30457419D02*
X66809523Y-30505038D01*
X66809523Y-30505038D02*
X66857142Y-30552657D01*
X66857142Y-30552657D02*
X66904761Y-30647895D01*
X66904761Y-30647895D02*
X66904761Y-30790752D01*
X66904761Y-30790752D02*
X66857142Y-30885990D01*
X66857142Y-30885990D02*
X66809523Y-30933609D01*
X66809523Y-30933609D02*
X66714285Y-30981228D01*
X66714285Y-30981228D02*
X66333333Y-30981228D01*
X67190476Y-30457419D02*
X67523809Y-31457419D01*
X67523809Y-31457419D02*
X67857142Y-30457419D01*
X68714285Y-31457419D02*
X68142857Y-31457419D01*
X68428571Y-31457419D02*
X68428571Y-30457419D01*
X68428571Y-30457419D02*
X68333333Y-30600276D01*
X68333333Y-30600276D02*
X68238095Y-30695514D01*
X68238095Y-30695514D02*
X68142857Y-30743133D01*
X97853884Y-38872419D02*
X97853884Y-37872419D01*
X97853884Y-37872419D02*
X98187217Y-38586704D01*
X98187217Y-38586704D02*
X98520550Y-37872419D01*
X98520550Y-37872419D02*
X98520550Y-38872419D01*
X99139598Y-38872419D02*
X99044360Y-38824800D01*
X99044360Y-38824800D02*
X98996741Y-38777180D01*
X98996741Y-38777180D02*
X98949122Y-38681942D01*
X98949122Y-38681942D02*
X98949122Y-38396228D01*
X98949122Y-38396228D02*
X98996741Y-38300990D01*
X98996741Y-38300990D02*
X99044360Y-38253371D01*
X99044360Y-38253371D02*
X99139598Y-38205752D01*
X99139598Y-38205752D02*
X99282455Y-38205752D01*
X99282455Y-38205752D02*
X99377693Y-38253371D01*
X99377693Y-38253371D02*
X99425312Y-38300990D01*
X99425312Y-38300990D02*
X99472931Y-38396228D01*
X99472931Y-38396228D02*
X99472931Y-38681942D01*
X99472931Y-38681942D02*
X99425312Y-38777180D01*
X99425312Y-38777180D02*
X99377693Y-38824800D01*
X99377693Y-38824800D02*
X99282455Y-38872419D01*
X99282455Y-38872419D02*
X99139598Y-38872419D01*
X99758646Y-38205752D02*
X100139598Y-38205752D01*
X99901503Y-37872419D02*
X99901503Y-38729561D01*
X99901503Y-38729561D02*
X99949122Y-38824800D01*
X99949122Y-38824800D02*
X100044360Y-38872419D01*
X100044360Y-38872419D02*
X100139598Y-38872419D01*
X100615789Y-38872419D02*
X100520551Y-38824800D01*
X100520551Y-38824800D02*
X100472932Y-38777180D01*
X100472932Y-38777180D02*
X100425313Y-38681942D01*
X100425313Y-38681942D02*
X100425313Y-38396228D01*
X100425313Y-38396228D02*
X100472932Y-38300990D01*
X100472932Y-38300990D02*
X100520551Y-38253371D01*
X100520551Y-38253371D02*
X100615789Y-38205752D01*
X100615789Y-38205752D02*
X100758646Y-38205752D01*
X100758646Y-38205752D02*
X100853884Y-38253371D01*
X100853884Y-38253371D02*
X100901503Y-38300990D01*
X100901503Y-38300990D02*
X100949122Y-38396228D01*
X100949122Y-38396228D02*
X100949122Y-38681942D01*
X100949122Y-38681942D02*
X100901503Y-38777180D01*
X100901503Y-38777180D02*
X100853884Y-38824800D01*
X100853884Y-38824800D02*
X100758646Y-38872419D01*
X100758646Y-38872419D02*
X100615789Y-38872419D01*
X101377694Y-38872419D02*
X101377694Y-38205752D01*
X101377694Y-38396228D02*
X101425313Y-38300990D01*
X101425313Y-38300990D02*
X101472932Y-38253371D01*
X101472932Y-38253371D02*
X101568170Y-38205752D01*
X101568170Y-38205752D02*
X101663408Y-38205752D01*
X101949123Y-38824800D02*
X102044361Y-38872419D01*
X102044361Y-38872419D02*
X102234837Y-38872419D01*
X102234837Y-38872419D02*
X102330075Y-38824800D01*
X102330075Y-38824800D02*
X102377694Y-38729561D01*
X102377694Y-38729561D02*
X102377694Y-38681942D01*
X102377694Y-38681942D02*
X102330075Y-38586704D01*
X102330075Y-38586704D02*
X102234837Y-38539085D01*
X102234837Y-38539085D02*
X102091980Y-38539085D01*
X102091980Y-38539085D02*
X101996742Y-38491466D01*
X101996742Y-38491466D02*
X101949123Y-38396228D01*
X101949123Y-38396228D02*
X101949123Y-38348609D01*
X101949123Y-38348609D02*
X101996742Y-38253371D01*
X101996742Y-38253371D02*
X102091980Y-38205752D01*
X102091980Y-38205752D02*
X102234837Y-38205752D01*
X102234837Y-38205752D02*
X102330075Y-38253371D01*
X103187218Y-38824800D02*
X103091980Y-38872419D01*
X103091980Y-38872419D02*
X102901504Y-38872419D01*
X102901504Y-38872419D02*
X102806266Y-38824800D01*
X102806266Y-38824800D02*
X102758647Y-38729561D01*
X102758647Y-38729561D02*
X102758647Y-38348609D01*
X102758647Y-38348609D02*
X102806266Y-38253371D01*
X102806266Y-38253371D02*
X102901504Y-38205752D01*
X102901504Y-38205752D02*
X103091980Y-38205752D01*
X103091980Y-38205752D02*
X103187218Y-38253371D01*
X103187218Y-38253371D02*
X103234837Y-38348609D01*
X103234837Y-38348609D02*
X103234837Y-38443847D01*
X103234837Y-38443847D02*
X102758647Y-38539085D01*
X103663409Y-38872419D02*
X103663409Y-38205752D01*
X103663409Y-37872419D02*
X103615790Y-37920038D01*
X103615790Y-37920038D02*
X103663409Y-37967657D01*
X103663409Y-37967657D02*
X103711028Y-37920038D01*
X103711028Y-37920038D02*
X103663409Y-37872419D01*
X103663409Y-37872419D02*
X103663409Y-37967657D01*
X103996742Y-38205752D02*
X104377694Y-38205752D01*
X104139599Y-37872419D02*
X104139599Y-38729561D01*
X104139599Y-38729561D02*
X104187218Y-38824800D01*
X104187218Y-38824800D02*
X104282456Y-38872419D01*
X104282456Y-38872419D02*
X104377694Y-38872419D01*
X105091980Y-38824800D02*
X104996742Y-38872419D01*
X104996742Y-38872419D02*
X104806266Y-38872419D01*
X104806266Y-38872419D02*
X104711028Y-38824800D01*
X104711028Y-38824800D02*
X104663409Y-38729561D01*
X104663409Y-38729561D02*
X104663409Y-38348609D01*
X104663409Y-38348609D02*
X104711028Y-38253371D01*
X104711028Y-38253371D02*
X104806266Y-38205752D01*
X104806266Y-38205752D02*
X104996742Y-38205752D01*
X104996742Y-38205752D02*
X105091980Y-38253371D01*
X105091980Y-38253371D02*
X105139599Y-38348609D01*
X105139599Y-38348609D02*
X105139599Y-38443847D01*
X105139599Y-38443847D02*
X104663409Y-38539085D01*
X106330076Y-38491466D02*
X107091981Y-38491466D01*
X107568171Y-38205752D02*
X108330076Y-38491466D01*
X108330076Y-38491466D02*
X107568171Y-38777180D01*
D11*
X108084819Y-42333333D02*
X108799104Y-42333333D01*
X108799104Y-42333333D02*
X108941961Y-42380952D01*
X108941961Y-42380952D02*
X109037200Y-42476190D01*
X109037200Y-42476190D02*
X109084819Y-42619047D01*
X109084819Y-42619047D02*
X109084819Y-42714285D01*
X108084819Y-41952380D02*
X108084819Y-41333333D01*
X108084819Y-41333333D02*
X108465771Y-41666666D01*
X108465771Y-41666666D02*
X108465771Y-41523809D01*
X108465771Y-41523809D02*
X108513390Y-41428571D01*
X108513390Y-41428571D02*
X108561009Y-41380952D01*
X108561009Y-41380952D02*
X108656247Y-41333333D01*
X108656247Y-41333333D02*
X108894342Y-41333333D01*
X108894342Y-41333333D02*
X108989580Y-41380952D01*
X108989580Y-41380952D02*
X109037200Y-41428571D01*
X109037200Y-41428571D02*
X109084819Y-41523809D01*
X109084819Y-41523809D02*
X109084819Y-41809523D01*
X109084819Y-41809523D02*
X109037200Y-41904761D01*
X109037200Y-41904761D02*
X108989580Y-41952380D01*
X107974819Y-50468333D02*
X108689104Y-50468333D01*
X108689104Y-50468333D02*
X108831961Y-50515952D01*
X108831961Y-50515952D02*
X108927200Y-50611190D01*
X108927200Y-50611190D02*
X108974819Y-50754047D01*
X108974819Y-50754047D02*
X108974819Y-50849285D01*
X108070057Y-50039761D02*
X108022438Y-49992142D01*
X108022438Y-49992142D02*
X107974819Y-49896904D01*
X107974819Y-49896904D02*
X107974819Y-49658809D01*
X107974819Y-49658809D02*
X108022438Y-49563571D01*
X108022438Y-49563571D02*
X108070057Y-49515952D01*
X108070057Y-49515952D02*
X108165295Y-49468333D01*
X108165295Y-49468333D02*
X108260533Y-49468333D01*
X108260533Y-49468333D02*
X108403390Y-49515952D01*
X108403390Y-49515952D02*
X108974819Y-50087380D01*
X108974819Y-50087380D02*
X108974819Y-49468333D01*
X42014819Y-50468333D02*
X42729104Y-50468333D01*
X42729104Y-50468333D02*
X42871961Y-50515952D01*
X42871961Y-50515952D02*
X42967200Y-50611190D01*
X42967200Y-50611190D02*
X43014819Y-50754047D01*
X43014819Y-50754047D02*
X43014819Y-50849285D01*
X43014819Y-49468333D02*
X43014819Y-50039761D01*
X43014819Y-49754047D02*
X42014819Y-49754047D01*
X42014819Y-49754047D02*
X42157676Y-49849285D01*
X42157676Y-49849285D02*
X42252914Y-49944523D01*
X42252914Y-49944523D02*
X42300533Y-50039761D01*
%TO.C,RV1*%
D10*
X23000000Y-23000000D02*
X112000000Y-23000000D01*
X112000000Y-40000000D01*
X23000000Y-40000000D01*
X23000000Y-23000000D01*
D12*
%TO.C,J3*%
X107630000Y-40620000D02*
X107630000Y-42000000D01*
X106250000Y-40620000D02*
X107630000Y-40620000D01*
X104980000Y-40620000D02*
X102330000Y-40620000D01*
X104980000Y-40620000D02*
X104980000Y-43380000D01*
X102330000Y-40620000D02*
X102330000Y-43380000D01*
X104980000Y-43380000D02*
X102330000Y-43380000D01*
%TO.C,J2*%
X107520000Y-44480000D02*
X107520000Y-45750000D01*
X106250000Y-44480000D02*
X107520000Y-44480000D01*
X104140000Y-46827358D02*
X104140000Y-47140000D01*
X103280000Y-46827358D02*
X103280000Y-47140000D01*
X106680000Y-46910000D02*
X106680000Y-47140000D01*
X105820000Y-46910000D02*
X105820000Y-47140000D01*
X104980000Y-47140000D02*
X104980000Y-49900000D01*
X104140000Y-49900000D02*
X104140000Y-55900000D01*
X104140000Y-55900000D02*
X103280000Y-55900000D01*
X103280000Y-55900000D02*
X103280000Y-49900000D01*
X107630000Y-47140000D02*
X102330000Y-47140000D01*
X102330000Y-49900000D01*
X107630000Y-49900000D01*
X107630000Y-47140000D01*
X106680000Y-49900000D02*
X105820000Y-49900000D01*
X105820000Y-55900000D01*
X106680000Y-55900000D01*
X106680000Y-49900000D01*
G36*
X106680000Y-49900000D02*
G01*
X105820000Y-49900000D01*
X105820000Y-55900000D01*
X106680000Y-55900000D01*
X106680000Y-49900000D01*
G37*
%TO.C,J1*%
X41560000Y-44480000D02*
X41560000Y-45750000D01*
X40290000Y-44480000D02*
X41560000Y-44480000D01*
X38180000Y-46827358D02*
X38180000Y-47140000D01*
X37320000Y-46827358D02*
X37320000Y-47140000D01*
X35640000Y-46827358D02*
X35640000Y-47140000D01*
X34780000Y-46827358D02*
X34780000Y-47140000D01*
X33100000Y-46827358D02*
X33100000Y-47140000D01*
X32240000Y-46827358D02*
X32240000Y-47140000D01*
X30560000Y-46827358D02*
X30560000Y-47140000D01*
X29700000Y-46827358D02*
X29700000Y-47140000D01*
X28020000Y-46827358D02*
X28020000Y-47140000D01*
X27160000Y-46827358D02*
X27160000Y-47140000D01*
X25480000Y-46827358D02*
X25480000Y-47140000D01*
X24620000Y-46827358D02*
X24620000Y-47140000D01*
X40720000Y-46910000D02*
X40720000Y-47140000D01*
X39860000Y-46910000D02*
X39860000Y-47140000D01*
X39020000Y-47140000D02*
X39020000Y-49900000D01*
X36480000Y-47140000D02*
X36480000Y-49900000D01*
X33940000Y-47140000D02*
X33940000Y-49900000D01*
X31400000Y-47140000D02*
X31400000Y-49900000D01*
X28860000Y-47140000D02*
X28860000Y-49900000D01*
X26320000Y-47140000D02*
X26320000Y-49900000D01*
X38180000Y-49900000D02*
X38180000Y-55900000D01*
X35640000Y-49900000D02*
X35640000Y-55900000D01*
X33100000Y-49900000D02*
X33100000Y-55900000D01*
X30560000Y-49900000D02*
X30560000Y-55900000D01*
X28020000Y-49900000D02*
X28020000Y-55900000D01*
X25480000Y-49900000D02*
X25480000Y-55900000D01*
X38180000Y-55900000D02*
X37320000Y-55900000D01*
X37320000Y-55900000D02*
X37320000Y-49900000D01*
X35640000Y-55900000D02*
X34780000Y-55900000D01*
X34780000Y-55900000D02*
X34780000Y-49900000D01*
X33100000Y-55900000D02*
X32240000Y-55900000D01*
X32240000Y-55900000D02*
X32240000Y-49900000D01*
X30560000Y-55900000D02*
X29700000Y-55900000D01*
X29700000Y-55900000D02*
X29700000Y-49900000D01*
X28020000Y-55900000D02*
X27160000Y-55900000D01*
X27160000Y-55900000D02*
X27160000Y-49900000D01*
X25480000Y-55900000D02*
X24620000Y-55900000D01*
X24620000Y-55900000D02*
X24620000Y-49900000D01*
X41670000Y-47140000D02*
X23670000Y-47140000D01*
X23670000Y-49900000D01*
X41670000Y-49900000D01*
X41670000Y-47140000D01*
X40720000Y-49900000D02*
X39860000Y-49900000D01*
X39860000Y-55900000D01*
X40720000Y-55900000D01*
X40720000Y-49900000D01*
G36*
X40720000Y-49900000D02*
G01*
X39860000Y-49900000D01*
X39860000Y-55900000D01*
X40720000Y-55900000D01*
X40720000Y-49900000D01*
G37*
%TD*%
M02*
