%TF.GenerationSoftware,KiCad,Pcbnew,9.0.9-1.fc43*%
%TF.CreationDate,2026-05-19T22:16:07+02:00*%
%TF.ProjectId,Fader_Faderwinkel,46616465-725f-4466-9164-657277696e6b,rev?*%
%TF.SameCoordinates,Original*%
%TF.FileFunction,Legend,Bot*%
%TF.FilePolarity,Positive*%
%FSLAX46Y46*%
G04 Gerber Fmt 4.6, Leading zero omitted, Abs format (unit mm)*
G04 Created by KiCad (PCBNEW 9.0.9-1.fc43) date 2026-05-19 22:16:07*
%MOMM*%
%LPD*%
G01*
G04 APERTURE LIST*
%ADD10C,0.100000*%
G04 APERTURE END LIST*
D10*
X109293734Y-36767657D02*
X109246115Y-36720038D01*
X109246115Y-36720038D02*
X109150877Y-36672419D01*
X109150877Y-36672419D02*
X108912782Y-36672419D01*
X108912782Y-36672419D02*
X108817544Y-36720038D01*
X108817544Y-36720038D02*
X108769925Y-36767657D01*
X108769925Y-36767657D02*
X108722306Y-36862895D01*
X108722306Y-36862895D02*
X108722306Y-36958133D01*
X108722306Y-36958133D02*
X108769925Y-37100990D01*
X108769925Y-37100990D02*
X109341353Y-37672419D01*
X109341353Y-37672419D02*
X108722306Y-37672419D01*
X108246115Y-36672419D02*
X108341353Y-36862895D01*
X108672306Y-34172419D02*
X109243734Y-34172419D01*
X108958020Y-34172419D02*
X108958020Y-33172419D01*
X108958020Y-33172419D02*
X109053258Y-33315276D01*
X109053258Y-33315276D02*
X109148496Y-33410514D01*
X109148496Y-33410514D02*
X109243734Y-33458133D01*
X108196115Y-33172419D02*
X108291353Y-33362895D01*
X108672306Y-30422419D02*
X109243734Y-30422419D01*
X108958020Y-30422419D02*
X108958020Y-29422419D01*
X108958020Y-29422419D02*
X109053258Y-29565276D01*
X109053258Y-29565276D02*
X109148496Y-29660514D01*
X109148496Y-29660514D02*
X109243734Y-29708133D01*
X109243734Y-25517657D02*
X109196115Y-25470038D01*
X109196115Y-25470038D02*
X109100877Y-25422419D01*
X109100877Y-25422419D02*
X108862782Y-25422419D01*
X108862782Y-25422419D02*
X108767544Y-25470038D01*
X108767544Y-25470038D02*
X108719925Y-25517657D01*
X108719925Y-25517657D02*
X108672306Y-25612895D01*
X108672306Y-25612895D02*
X108672306Y-25708133D01*
X108672306Y-25708133D02*
X108719925Y-25850990D01*
X108719925Y-25850990D02*
X109291353Y-26422419D01*
X109291353Y-26422419D02*
X108672306Y-26422419D01*
X26338972Y-29222419D02*
X25767544Y-29222419D01*
X26053258Y-30222419D02*
X26053258Y-29222419D01*
X26341353Y-36472419D02*
X25722306Y-36472419D01*
X25722306Y-36472419D02*
X26055639Y-36853371D01*
X26055639Y-36853371D02*
X25912782Y-36853371D01*
X25912782Y-36853371D02*
X25817544Y-36900990D01*
X25817544Y-36900990D02*
X25769925Y-36948609D01*
X25769925Y-36948609D02*
X25722306Y-37043847D01*
X25722306Y-37043847D02*
X25722306Y-37281942D01*
X25722306Y-37281942D02*
X25769925Y-37377180D01*
X25769925Y-37377180D02*
X25817544Y-37424800D01*
X25817544Y-37424800D02*
X25912782Y-37472419D01*
X25912782Y-37472419D02*
X26198496Y-37472419D01*
X26198496Y-37472419D02*
X26293734Y-37424800D01*
X26293734Y-37424800D02*
X26341353Y-37377180D01*
X25246115Y-36472419D02*
X25341353Y-36662895D01*
X26341353Y-25422419D02*
X25722306Y-25422419D01*
X25722306Y-25422419D02*
X26055639Y-25803371D01*
X26055639Y-25803371D02*
X25912782Y-25803371D01*
X25912782Y-25803371D02*
X25817544Y-25850990D01*
X25817544Y-25850990D02*
X25769925Y-25898609D01*
X25769925Y-25898609D02*
X25722306Y-25993847D01*
X25722306Y-25993847D02*
X25722306Y-26231942D01*
X25722306Y-26231942D02*
X25769925Y-26327180D01*
X25769925Y-26327180D02*
X25817544Y-26374800D01*
X25817544Y-26374800D02*
X25912782Y-26422419D01*
X25912782Y-26422419D02*
X26198496Y-26422419D01*
X26198496Y-26422419D02*
X26293734Y-26374800D01*
X26293734Y-26374800D02*
X26341353Y-26327180D01*
M02*
