%TF.GenerationSoftware,KiCad,Pcbnew,9.0.9-1.fc43*%
%TF.CreationDate,2026-05-19T22:16:06+02:00*%
%TF.ProjectId,Fader_Faderwinkel,46616465-725f-4466-9164-657277696e6b,rev?*%
%TF.SameCoordinates,Original*%
%TF.FileFunction,Copper,L1,Top*%
%TF.FilePolarity,Positive*%
%FSLAX46Y46*%
G04 Gerber Fmt 4.6, Leading zero omitted, Abs format (unit mm)*
G04 Created by KiCad (PCBNEW 9.0.9-1.fc43) date 2026-05-19 22:16:06*
%MOMM*%
%LPD*%
G01*
G04 APERTURE LIST*
%TA.AperFunction,ComponentPad*%
%ADD10C,1.800000*%
%TD*%
%TA.AperFunction,ComponentPad*%
%ADD11C,2.000000*%
%TD*%
%TA.AperFunction,ComponentPad*%
%ADD12R,1.700000X1.700000*%
%TD*%
%TA.AperFunction,ComponentPad*%
%ADD13C,1.700000*%
%TD*%
%TA.AperFunction,ViaPad*%
%ADD14C,1.000000*%
%TD*%
%TA.AperFunction,Conductor*%
%ADD15C,1.000000*%
%TD*%
G04 APERTURE END LIST*
D10*
%TO.P,RV1,1,1*%
%TO.N,Net-(J1-Pin_1)*%
X23750000Y-29625000D03*
X111250000Y-29625000D03*
%TO.P,RV1,2,2*%
%TO.N,Net-(J1-Pin_2)*%
X111250000Y-25875000D03*
%TO.P,RV1,3,3*%
%TO.N,Net-(J1-Pin_3)*%
X23750000Y-25875000D03*
%TO.P,RV1,4,4*%
%TO.N,Net-(J1-Pin_4)*%
X111250000Y-33375000D03*
%TO.P,RV1,5,5*%
%TO.N,Net-(J1-Pin_5)*%
X111250000Y-37125000D03*
%TO.P,RV1,6,6*%
%TO.N,Net-(J1-Pin_6)*%
X23750000Y-37125000D03*
D11*
%TO.P,RV1,MP,MountPin*%
%TO.N,Net-(J1-Pin_7)*%
X41650000Y-31500000D03*
X93350000Y-31500000D03*
%TD*%
D12*
%TO.P,J3,1,Pin_1*%
%TO.N,Net-(J2-Pin_1)*%
X106250000Y-42000000D03*
D13*
%TO.P,J3,2,Pin_2*%
%TO.N,Net-(J2-Pin_2)*%
X103710000Y-42000000D03*
%TD*%
D12*
%TO.P,J2,1,Pin_1*%
%TO.N,Net-(J2-Pin_1)*%
X106250000Y-45750000D03*
D13*
%TO.P,J2,2,Pin_2*%
%TO.N,Net-(J2-Pin_2)*%
X103710000Y-45750000D03*
%TD*%
D12*
%TO.P,J1,1,Pin_1*%
%TO.N,Net-(J1-Pin_1)*%
X40290000Y-45750000D03*
D13*
%TO.P,J1,2,Pin_2*%
%TO.N,Net-(J1-Pin_2)*%
X37750000Y-45750000D03*
%TO.P,J1,3,Pin_3*%
%TO.N,Net-(J1-Pin_3)*%
X35210000Y-45750000D03*
%TO.P,J1,4,Pin_4*%
%TO.N,Net-(J1-Pin_4)*%
X32670000Y-45750000D03*
%TO.P,J1,5,Pin_5*%
%TO.N,Net-(J1-Pin_5)*%
X30130000Y-45750000D03*
%TO.P,J1,6,Pin_6*%
%TO.N,Net-(J1-Pin_6)*%
X27590000Y-45750000D03*
%TO.P,J1,7,Pin_7*%
%TO.N,Net-(J1-Pin_7)*%
X25050000Y-45750000D03*
%TD*%
D14*
%TO.N,Net-(J1-Pin_5)*%
X49250000Y-34250000D03*
%TD*%
D15*
%TO.N,Net-(J1-Pin_5)*%
X108375000Y-34250000D02*
X49250000Y-34250000D01*
X111250000Y-37125000D02*
X108375000Y-34250000D01*
%TO.N,Net-(J1-Pin_6)*%
X23750000Y-37125000D02*
X25375000Y-37125000D01*
X25375000Y-37125000D02*
X27590000Y-39340000D01*
X27590000Y-39340000D02*
X27590000Y-45750000D01*
%TO.N,Net-(J1-Pin_3)*%
X23750000Y-25875000D02*
X33625000Y-25875000D01*
X33625000Y-25875000D02*
X35210000Y-27460000D01*
X35210000Y-27460000D02*
X35210000Y-45750000D01*
%TO.N,Net-(J1-Pin_1)*%
X111250000Y-29625000D02*
X108875000Y-29625000D01*
X108875000Y-29625000D02*
X107250000Y-28000000D01*
X107250000Y-28000000D02*
X47250000Y-28000000D01*
X47250000Y-28000000D02*
X45500000Y-29750000D01*
X45500000Y-29750000D02*
X45500000Y-37000000D01*
X45500000Y-37000000D02*
X44250000Y-38250000D01*
X40290000Y-39710000D02*
X40290000Y-45750000D01*
X44250000Y-38250000D02*
X41750000Y-38250000D01*
X41750000Y-38250000D02*
X40290000Y-39710000D01*
%TO.N,Net-(J1-Pin_2)*%
X39375000Y-25875000D02*
X37750000Y-27500000D01*
X111250000Y-25875000D02*
X39375000Y-25875000D01*
X37750000Y-27500000D02*
X37750000Y-45750000D01*
%TD*%
M02*
