M48
; DRILL file {KiCad 9.0.9-1.fc43} date 2026-05-25T18:11:11+0200
; FORMAT={-:-/ absolute / metric / decimal}
; #@! TF.CreationDate,2026-05-25T18:11:11+02:00
; #@! TF.GenerationSoftware,Kicad,Pcbnew,9.0.9-1.fc43
; #@! TF.FileFunction,Plated,1,2,PTH
FMAT,2
METRIC
; #@! TA.AperFunction,Plated,PTH,ViaDrill
T1C0.300
; #@! TA.AperFunction,Plated,PTH,ViaDrill
T2C0.500
; #@! TA.AperFunction,Plated,PTH,ViaDrill
T3C0.800
; #@! TA.AperFunction,Plated,PTH,ComponentDrill
T4C0.800
; #@! TA.AperFunction,Plated,PTH,ComponentDrill
T5C0.950
; #@! TA.AperFunction,Plated,PTH,ComponentDrill
T6C1.000
%
G90
G05
T1
X22.5Y-37.5
X25.0Y-37.5
X27.5Y-37.5
X30.0Y-40.0
X32.5Y-42.5
X35.0Y-42.5
X37.5Y-42.5
X40.0Y-42.5
X42.5Y-42.5
X45.0Y-42.5
X47.5Y-42.5
X50.0Y-42.5
X52.5Y-42.5
X57.5Y-42.5
X60.0Y-42.5
X62.5Y-42.5
X65.0Y-42.5
X67.5Y-42.5
X70.0Y-42.5
X72.5Y-42.5
X75.0Y-42.5
X77.5Y-42.5
X80.0Y-42.5
X82.5Y-42.5
X85.0Y-42.5
X87.5Y-42.5
X90.0Y-42.5
X91.75Y-44.95
X95.0Y-42.5
X96.25Y-77.5
X97.5Y-42.5
X100.0Y-42.5
X100.25Y-61.25
X102.5Y-42.5
X105.0Y-45.0
X107.5Y-47.5
X107.75Y-84.5
X110.0Y-50.0
X112.5Y-52.5
X114.0Y-91.75
T2
X51.0Y-66.75
X54.25Y-74.25
X56.5Y-72.5
X97.75Y-82.5
X98.94Y-77.75
X99.0Y-70.5
X99.5Y-93.51
X104.75Y-77.5
X108.75Y-70.5
T3
X39.5Y-80.5
X50.25Y-82.5
T4
X57.03Y-66.89
X57.03Y-89.75
X59.57Y-66.89
X59.57Y-89.75
X62.11Y-66.89
X62.11Y-89.75
X64.65Y-66.89
X64.65Y-89.75
X67.19Y-66.89
X67.19Y-89.75
X69.73Y-66.89
X69.73Y-89.75
X72.27Y-66.89
X72.27Y-89.75
X74.81Y-66.89
X74.81Y-89.75
X77.35Y-66.89
X77.35Y-89.75
X79.89Y-66.89
X79.89Y-89.75
X82.43Y-66.89
X82.43Y-89.75
X84.97Y-66.89
X84.97Y-89.75
X87.51Y-66.89
X87.51Y-89.75
X90.05Y-66.89
X90.05Y-89.75
X92.59Y-66.89
X92.59Y-89.75
X94.42Y-99.5
X94.46Y-106.25
X95.13Y-66.89
X95.13Y-89.75
X96.96Y-99.5
X97.0Y-106.25
X97.67Y-66.89
X97.67Y-89.75
X99.5Y-99.5
X99.54Y-106.25
X100.21Y-66.89
X100.21Y-89.75
X102.75Y-66.89
X102.75Y-89.75
X105.287Y-66.886
X105.29Y-89.75
X107.827Y-66.886
X107.83Y-89.75
X110.367Y-66.886
X110.37Y-89.75
T5
X24.75Y-74.475
X24.75Y-81.725
X25.0Y-41.25
X25.0Y-43.75
X25.0Y-46.25
X25.0Y-48.75
X25.0Y-58.5
X25.0Y-61.0
X25.0Y-63.5
X25.0Y-66.0
X27.25Y-74.475
X27.25Y-81.725
X29.75Y-74.475
X29.75Y-81.725
X111.5Y-103.5
X114.0Y-103.5
X116.5Y-48.0
X116.5Y-50.5
X116.5Y-53.0
X116.5Y-55.5
X116.5Y-58.0
X116.5Y-103.5
T6
X30.0Y-28.75
X30.0Y-31.29
X30.0Y-94.71
X30.0Y-97.25
X30.0Y-99.79
X30.0Y-102.33
X30.0Y-104.87
X30.0Y-107.41
X30.0Y-109.95
X33.175Y-37.38
X33.175Y-52.62
X35.715Y-37.38
X35.715Y-52.62
X38.25Y-61.0
X38.25Y-66.0
X38.255Y-37.38
X38.255Y-52.62
X40.795Y-37.38
X40.795Y-52.62
X43.335Y-37.38
X43.335Y-52.62
X45.875Y-37.38
X45.875Y-52.62
X49.05Y-28.75
X49.05Y-31.29
X49.05Y-94.71
X49.05Y-97.25
X49.05Y-99.79
X49.05Y-102.33
X49.05Y-104.87
X49.05Y-107.41
X49.05Y-109.95
X54.75Y-43.75
X54.75Y-48.75
X68.1Y-28.75
X68.1Y-31.29
X68.1Y-94.71
X68.1Y-97.25
X68.1Y-99.79
X68.1Y-102.33
X68.1Y-104.87
X68.1Y-107.41
X68.1Y-109.95
X71.175Y-37.38
X71.175Y-52.62
X73.715Y-37.38
X73.715Y-52.62
X76.255Y-37.38
X76.255Y-52.62
X78.795Y-37.38
X78.795Y-52.62
X81.335Y-37.38
X81.335Y-52.62
X83.875Y-37.38
X83.875Y-52.62
X87.15Y-28.75
X87.15Y-31.29
X87.15Y-94.71
X87.15Y-97.25
X87.15Y-99.79
X87.15Y-102.33
X87.15Y-104.87
X87.15Y-107.41
X87.15Y-109.95
X96.425Y-37.38
X96.425Y-52.62
X98.965Y-37.38
X98.965Y-52.62
X101.505Y-37.38
X101.505Y-52.62
X104.045Y-37.38
X104.045Y-52.62
X106.2Y-28.75
X106.2Y-31.29
X106.2Y-94.71
X106.2Y-97.25
X106.2Y-99.79
X106.2Y-102.33
X106.2Y-104.87
X106.2Y-107.41
X106.2Y-109.95
X106.585Y-37.38
X106.585Y-52.62
X109.125Y-37.38
X109.125Y-52.62
M30
