%TF.GenerationSoftware,KiCad,Pcbnew,9.0.9-1.fc43*%
%TF.CreationDate,2026-05-25T18:11:08+02:00*%
%TF.ProjectId,Fader_ESP32,46616465-725f-4455-9350-33322e6b6963,rev?*%
%TF.SameCoordinates,Original*%
%TF.FileFunction,Paste,Top*%
%TF.FilePolarity,Positive*%
%FSLAX46Y46*%
G04 Gerber Fmt 4.6, Leading zero omitted, Abs format (unit mm)*
G04 Created by KiCad (PCBNEW 9.0.9-1.fc43) date 2026-05-25 18:11:08*
%MOMM*%
%LPD*%
G01*
G04 APERTURE LIST*
G04 Aperture macros list*
%AMRoundRect*
0 Rectangle with rounded corners*
0 $1 Rounding radius*
0 $2 $3 $4 $5 $6 $7 $8 $9 X,Y pos of 4 corners*
0 Add a 4 corners polygon primitive as box body*
4,1,4,$2,$3,$4,$5,$6,$7,$8,$9,$2,$3,0*
0 Add four circle primitives for the rounded corners*
1,1,$1+$1,$2,$3*
1,1,$1+$1,$4,$5*
1,1,$1+$1,$6,$7*
1,1,$1+$1,$8,$9*
0 Add four rect primitives between the rounded corners*
20,1,$1+$1,$2,$3,$4,$5,0*
20,1,$1+$1,$4,$5,$6,$7,0*
20,1,$1+$1,$6,$7,$8,$9,0*
20,1,$1+$1,$8,$9,$2,$3,0*%
G04 Aperture macros list end*
%ADD10RoundRect,0.150000X0.150000X-0.825000X0.150000X0.825000X-0.150000X0.825000X-0.150000X-0.825000X0*%
%ADD11RoundRect,0.250000X-0.350000X-0.450000X0.350000X-0.450000X0.350000X0.450000X-0.350000X0.450000X0*%
%ADD12RoundRect,0.250000X-0.337500X-0.475000X0.337500X-0.475000X0.337500X0.475000X-0.337500X0.475000X0*%
%ADD13RoundRect,0.250000X0.337500X0.475000X-0.337500X0.475000X-0.337500X-0.475000X0.337500X-0.475000X0*%
G04 APERTURE END LIST*
D10*
%TO.C,U6*%
X98940000Y-84475000D03*
X100210000Y-84475000D03*
X101480000Y-84475000D03*
X102750000Y-84475000D03*
X104020000Y-84475000D03*
X105290000Y-84475000D03*
X106560000Y-84475000D03*
X106560000Y-79525000D03*
X105290000Y-79525000D03*
X104020000Y-79525000D03*
X102750000Y-79525000D03*
X101480000Y-79525000D03*
X100210000Y-79525000D03*
X98940000Y-79525000D03*
%TD*%
%TO.C,U2*%
X24095000Y-89950000D03*
X25365000Y-89950000D03*
X26635000Y-89950000D03*
X27905000Y-89950000D03*
X27905000Y-85000000D03*
X26635000Y-85000000D03*
X25365000Y-85000000D03*
X24095000Y-85000000D03*
%TD*%
D11*
%TO.C,R1*%
X110250000Y-87000000D03*
X112250000Y-87000000D03*
%TD*%
D12*
%TO.C,C9*%
X101925000Y-50000000D03*
X104000000Y-50000000D03*
%TD*%
%TO.C,C8*%
X76425000Y-50000000D03*
X78500000Y-50000000D03*
%TD*%
%TO.C,C7*%
X38462500Y-50000000D03*
X40537500Y-50000000D03*
%TD*%
%TO.C,C6*%
X94962500Y-103750000D03*
X97037500Y-103750000D03*
%TD*%
%TO.C,C5*%
X94712500Y-97500000D03*
X96787500Y-97500000D03*
%TD*%
D13*
%TO.C,C3*%
X55037500Y-66750000D03*
X52962500Y-66750000D03*
%TD*%
%TO.C,C2*%
X27000000Y-92500000D03*
X24925000Y-92500000D03*
%TD*%
%TO.C,C1*%
X32250000Y-85000000D03*
X30175000Y-85000000D03*
%TD*%
M02*
