%TF.GenerationSoftware,KiCad,Pcbnew,9.0.9-1.fc43*%
%TF.CreationDate,2026-05-19T20:22:30+02:00*%
%TF.ProjectId,Fader_taster_6x2_encoder_5x2,46616465-725f-4746-9173-7465725f3678,rev?*%
%TF.SameCoordinates,Original*%
%TF.FileFunction,Profile,NP*%
%FSLAX46Y46*%
G04 Gerber Fmt 4.6, Leading zero omitted, Abs format (unit mm)*
G04 Created by KiCad (PCBNEW 9.0.9-1.fc43) date 2026-05-19 20:22:30*
%MOMM*%
%LPD*%
G01*
G04 APERTURE LIST*
%TA.AperFunction,Profile*%
%ADD10C,0.050000*%
%TD*%
G04 APERTURE END LIST*
D10*
X26750000Y-64050000D02*
G75*
G02*
X23250000Y-64050000I-1750000J0D01*
G01*
X23250000Y-64050000D02*
G75*
G02*
X26750000Y-64050000I1750000J0D01*
G01*
X26750000Y-25000000D02*
G75*
G02*
X23250000Y-25000000I-1750000J0D01*
G01*
X23250000Y-25000000D02*
G75*
G02*
X26750000Y-25000000I1750000J0D01*
G01*
X156950000Y-64050000D02*
G75*
G02*
X153450000Y-64050000I-1750000J0D01*
G01*
X153450000Y-64050000D02*
G75*
G02*
X156950000Y-64050000I1750000J0D01*
G01*
X156950000Y-25000000D02*
G75*
G02*
X153450000Y-25000000I-1750000J0D01*
G01*
X153450000Y-25000000D02*
G75*
G02*
X156950000Y-25000000I1750000J0D01*
G01*
X20000000Y-20000000D02*
X160200000Y-20000000D01*
X160200000Y-69050000D01*
X20000000Y-69050000D01*
X20000000Y-20000000D01*
%TO.C,SW11*%
X134300000Y-62020000D02*
X137700000Y-62020000D01*
X137700000Y-65020000D01*
X134300000Y-65020000D01*
X134300000Y-62020000D01*
%TO.C,SW10*%
X115250000Y-62020000D02*
X118650000Y-62020000D01*
X118650000Y-65020000D01*
X115250000Y-65020000D01*
X115250000Y-62020000D01*
%TO.C,SW9*%
X96200000Y-62020000D02*
X99600000Y-62020000D01*
X99600000Y-65020000D01*
X96200000Y-65020000D01*
X96200000Y-62020000D01*
%TO.C,SW8*%
X77150000Y-62020000D02*
X80550000Y-62020000D01*
X80550000Y-65020000D01*
X77150000Y-65020000D01*
X77150000Y-62020000D01*
%TO.C,SW7*%
X58100000Y-62020000D02*
X61500000Y-62020000D01*
X61500000Y-65020000D01*
X58100000Y-65020000D01*
X58100000Y-62020000D01*
%TO.C,SW6*%
X39050000Y-62020000D02*
X42450000Y-62020000D01*
X42450000Y-65020000D01*
X39050000Y-65020000D01*
X39050000Y-62020000D01*
%TD*%
M02*
