%TF.GenerationSoftware,KiCad,Pcbnew,9.0.9-1.fc43*%
%TF.CreationDate,2026-05-19T20:22:29+02:00*%
%TF.ProjectId,Fader_taster_6x2_encoder_5x2,46616465-725f-4746-9173-7465725f3678,rev?*%
%TF.SameCoordinates,Original*%
%TF.FileFunction,Copper,L1,Top*%
%TF.FilePolarity,Positive*%
%FSLAX46Y46*%
G04 Gerber Fmt 4.6, Leading zero omitted, Abs format (unit mm)*
G04 Created by KiCad (PCBNEW 9.0.9-1.fc43) date 2026-05-19 20:22:29*
%MOMM*%
%LPD*%
G01*
G04 APERTURE LIST*
G04 Aperture macros list*
%AMRoundRect*
0 Rectangle with rounded corners*
0 $1 Rounding radius*
0 $2 $3 $4 $5 $6 $7 $8 $9 X,Y pos of 4 corners*
0 Add a 4 corners polygon primitive as box body*
4,1,4,$2,$3,$4,$5,$6,$7,$8,$9,$2,$3,0*
0 Add four circle primitives for the rounded corners*
1,1,$1+$1,$2,$3*
1,1,$1+$1,$4,$5*
1,1,$1+$1,$6,$7*
1,1,$1+$1,$8,$9*
0 Add four rect primitives between the rounded corners*
20,1,$1+$1,$2,$3,$4,$5,0*
20,1,$1+$1,$4,$5,$6,$7,0*
20,1,$1+$1,$6,$7,$8,$9,0*
20,1,$1+$1,$8,$9,$2,$3,0*%
G04 Aperture macros list end*
%TA.AperFunction,ComponentPad*%
%ADD10RoundRect,0.250000X0.750000X-0.750000X0.750000X0.750000X-0.750000X0.750000X-0.750000X-0.750000X0*%
%TD*%
%TA.AperFunction,ComponentPad*%
%ADD11C,2.000000*%
%TD*%
%TA.AperFunction,ComponentPad*%
%ADD12R,1.700000X1.700000*%
%TD*%
%TA.AperFunction,ComponentPad*%
%ADD13C,1.700000*%
%TD*%
%TA.AperFunction,ComponentPad*%
%ADD14C,2.200000*%
%TD*%
%TA.AperFunction,ComponentPad*%
%ADD15RoundRect,0.250000X-0.550000X0.550000X-0.550000X-0.550000X0.550000X-0.550000X0.550000X0.550000X0*%
%TD*%
%TA.AperFunction,ComponentPad*%
%ADD16C,1.600000*%
%TD*%
%TA.AperFunction,ComponentPad*%
%ADD17O,3.000000X4.100000*%
%TD*%
%TA.AperFunction,ComponentPad*%
%ADD18RoundRect,0.250000X0.600000X0.725000X-0.600000X0.725000X-0.600000X-0.725000X0.600000X-0.725000X0*%
%TD*%
%TA.AperFunction,ComponentPad*%
%ADD19O,1.700000X1.950000*%
%TD*%
%TA.AperFunction,ViaPad*%
%ADD20C,1.000000*%
%TD*%
%TA.AperFunction,ViaPad*%
%ADD21C,0.600000*%
%TD*%
%TA.AperFunction,Conductor*%
%ADD22C,1.000000*%
%TD*%
%TA.AperFunction,Conductor*%
%ADD23C,0.600000*%
%TD*%
G04 APERTURE END LIST*
D10*
%TO.P,C17,1*%
%TO.N,+5V*%
X154750000Y-37117677D03*
D11*
%TO.P,C17,2*%
%TO.N,GND*%
X154750000Y-32117677D03*
%TD*%
D12*
%TO.P,J2,1,Pin_1*%
%TO.N,GND*%
X26500000Y-32520000D03*
D13*
%TO.P,J2,2,Pin_2*%
%TO.N,Net-(J2-Pin_2)*%
X26500000Y-35060000D03*
%TO.P,J2,3,Pin_3*%
%TO.N,+5V*%
X26500000Y-37600000D03*
%TD*%
D14*
%TO.P,SW11,5,NO*%
%TO.N,Net-(J3-Pin_7)*%
X138565000Y-52965000D03*
%TO.P,SW11,6,COM*%
%TO.N,GND*%
X132215000Y-55505000D03*
%TD*%
%TO.P,SW10,5,NO*%
%TO.N,Net-(J3-Pin_8)*%
X119515000Y-52965000D03*
%TO.P,SW10,6,COM*%
%TO.N,GND*%
X113165000Y-55505000D03*
%TD*%
%TO.P,SW9,5,NO*%
%TO.N,Net-(J3-Pin_5)*%
X100465000Y-52965000D03*
%TO.P,SW9,6,COM*%
%TO.N,GND*%
X94115000Y-55505000D03*
%TD*%
%TO.P,SW8,5,NO*%
%TO.N,Net-(J3-Pin_6)*%
X81415000Y-52965000D03*
%TO.P,SW8,6,COM*%
%TO.N,GND*%
X75065000Y-55505000D03*
%TD*%
%TO.P,SW7,5,NO*%
%TO.N,Net-(J3-Pin_3)*%
X62365000Y-52965000D03*
%TO.P,SW7,6,COM*%
%TO.N,GND*%
X56015000Y-55505000D03*
%TD*%
%TO.P,SW6,5,NO*%
%TO.N,Net-(J3-Pin_4)*%
X43315000Y-52965000D03*
%TO.P,SW6,6,COM*%
%TO.N,GND*%
X36965000Y-55505000D03*
%TD*%
D15*
%TO.P,SW5,A,A*%
%TO.N,Net-(J1-Pin_11)*%
X138500000Y-22500000D03*
D16*
%TO.P,SW5,B,B*%
%TO.N,Net-(J1-Pin_12)*%
X133500000Y-22500000D03*
%TO.P,SW5,C,C*%
%TO.N,GND*%
X136000000Y-22500000D03*
D17*
%TO.P,SW5,SH*%
%TO.N,N/C*%
X141600000Y-30000000D03*
X130400000Y-30000000D03*
%TD*%
D15*
%TO.P,SW4,A,A*%
%TO.N,Net-(J1-Pin_9)*%
X119450000Y-22500000D03*
D16*
%TO.P,SW4,B,B*%
%TO.N,Net-(J1-Pin_10)*%
X114450000Y-22500000D03*
%TO.P,SW4,C,C*%
%TO.N,GND*%
X116950000Y-22500000D03*
D17*
%TO.P,SW4,SH*%
%TO.N,N/C*%
X122550000Y-30000000D03*
X111350000Y-30000000D03*
%TD*%
D15*
%TO.P,SW3,A,A*%
%TO.N,Net-(J1-Pin_7)*%
X100400000Y-22500000D03*
D16*
%TO.P,SW3,B,B*%
%TO.N,Net-(J1-Pin_8)*%
X95400000Y-22500000D03*
%TO.P,SW3,C,C*%
%TO.N,GND*%
X97900000Y-22500000D03*
D17*
%TO.P,SW3,SH*%
%TO.N,N/C*%
X103500000Y-30000000D03*
X92300000Y-30000000D03*
%TD*%
D15*
%TO.P,SW2,A,A*%
%TO.N,Net-(J1-Pin_5)*%
X81350000Y-22500000D03*
D16*
%TO.P,SW2,B,B*%
%TO.N,Net-(J1-Pin_6)*%
X76350000Y-22500000D03*
%TO.P,SW2,C,C*%
%TO.N,GND*%
X78850000Y-22500000D03*
D17*
%TO.P,SW2,SH*%
%TO.N,N/C*%
X84450000Y-30000000D03*
X73250000Y-30000000D03*
%TD*%
D15*
%TO.P,SW1,A,A*%
%TO.N,Net-(J1-Pin_3)*%
X62300000Y-22500000D03*
D16*
%TO.P,SW1,B,B*%
%TO.N,Net-(J1-Pin_4)*%
X57300000Y-22500000D03*
%TO.P,SW1,C,C*%
%TO.N,GND*%
X59800000Y-22500000D03*
D17*
%TO.P,SW1,SH*%
%TO.N,N/C*%
X65400000Y-30000000D03*
X54200000Y-30000000D03*
%TD*%
D18*
%TO.P,J5,1,Pin_1*%
%TO.N,GND*%
X157250000Y-48000000D03*
D19*
%TO.P,J5,2,Pin_2*%
%TO.N,Net-(J2-Pin_2)*%
X154750000Y-48000000D03*
%TO.P,J5,3,Pin_3*%
%TO.N,+5V*%
X152250000Y-48000000D03*
%TD*%
D18*
%TO.P,J4,1,Pin_1*%
%TO.N,GND*%
X157250000Y-55750000D03*
D19*
%TO.P,J4,2,Pin_2*%
%TO.N,Net-(J4-Pin_2)*%
X154750000Y-55750000D03*
%TO.P,J4,3,Pin_3*%
%TO.N,+5V*%
X152250000Y-55750000D03*
%TD*%
D12*
%TO.P,J3,1,Pin_1*%
%TO.N,GND*%
X24500000Y-49620000D03*
D13*
%TO.P,J3,2,Pin_2*%
%TO.N,+5V*%
X27040000Y-49620000D03*
%TO.P,J3,3,Pin_3*%
%TO.N,Net-(J3-Pin_3)*%
X24500000Y-47080000D03*
%TO.P,J3,4,Pin_4*%
%TO.N,Net-(J3-Pin_4)*%
X27040000Y-47080000D03*
%TO.P,J3,5,Pin_5*%
%TO.N,Net-(J3-Pin_5)*%
X24500000Y-44540000D03*
%TO.P,J3,6,Pin_6*%
%TO.N,Net-(J3-Pin_6)*%
X27040000Y-44540000D03*
%TO.P,J3,7,Pin_7*%
%TO.N,Net-(J3-Pin_7)*%
X24500000Y-42000000D03*
%TO.P,J3,8,Pin_8*%
%TO.N,Net-(J3-Pin_8)*%
X27040000Y-42000000D03*
%TD*%
D12*
%TO.P,J1,1,Pin_1*%
%TO.N,GND*%
X45750000Y-24960000D03*
D13*
%TO.P,J1,2,Pin_2*%
%TO.N,+3.3V*%
X43210000Y-24960000D03*
%TO.P,J1,3,Pin_3*%
%TO.N,Net-(J1-Pin_3)*%
X45750000Y-27500000D03*
%TO.P,J1,4,Pin_4*%
%TO.N,Net-(J1-Pin_4)*%
X43210000Y-27500000D03*
%TO.P,J1,5,Pin_5*%
%TO.N,Net-(J1-Pin_5)*%
X45750000Y-30040000D03*
%TO.P,J1,6,Pin_6*%
%TO.N,Net-(J1-Pin_6)*%
X43210000Y-30040000D03*
%TO.P,J1,7,Pin_7*%
%TO.N,Net-(J1-Pin_7)*%
X45750000Y-32580000D03*
%TO.P,J1,8,Pin_8*%
%TO.N,Net-(J1-Pin_8)*%
X43210000Y-32580000D03*
%TO.P,J1,9,Pin_9*%
%TO.N,Net-(J1-Pin_9)*%
X45750000Y-35120000D03*
%TO.P,J1,10,Pin_10*%
%TO.N,Net-(J1-Pin_10)*%
X43210000Y-35120000D03*
%TO.P,J1,11,Pin_11*%
%TO.N,Net-(J1-Pin_11)*%
X45750000Y-37660000D03*
%TO.P,J1,12,Pin_12*%
%TO.N,Net-(J1-Pin_12)*%
X43210000Y-37660000D03*
%TD*%
D20*
%TO.N,+5V*%
X29750000Y-48500000D03*
%TO.N,GND*%
X31500000Y-48500000D03*
D21*
%TO.N,+5V*%
X138750000Y-66250000D03*
X119750000Y-66250000D03*
X100750000Y-66250000D03*
X81750000Y-66250000D03*
X62750000Y-66250000D03*
X43750000Y-66250000D03*
D20*
X27000000Y-54250000D03*
D21*
%TO.N,Net-(J1-Pin_8)*%
X95400000Y-31650000D03*
X95500000Y-38000000D03*
%TO.N,Net-(J1-Pin_6)*%
X76350000Y-26250000D03*
%TO.N,Net-(J1-Pin_10)*%
X114500000Y-32500000D03*
X114500000Y-37000000D03*
%TO.N,Net-(J1-Pin_12)*%
X133500000Y-36000000D03*
X133500000Y-33750000D03*
%TO.N,+3.3V*%
X144000000Y-24500000D03*
X127750000Y-24500000D03*
X125250000Y-24500000D03*
X108750000Y-24500000D03*
X106000000Y-24500000D03*
X89750000Y-24500000D03*
X87000000Y-24500000D03*
X70750000Y-24500000D03*
X68000000Y-24500000D03*
X51750000Y-24500000D03*
%TD*%
D22*
%TO.N,+5V*%
X152250000Y-43750000D02*
X35500000Y-43750000D01*
X35500000Y-43750000D02*
X33250000Y-41500000D01*
X33250000Y-41500000D02*
X33250000Y-32750000D01*
X33250000Y-32750000D02*
X30750000Y-30250000D01*
X30750000Y-30250000D02*
X25250000Y-30250000D01*
X25250000Y-30250000D02*
X23500000Y-32000000D01*
X23500000Y-32000000D02*
X23500000Y-36250000D01*
X24850000Y-37600000D02*
X26500000Y-37600000D01*
X23500000Y-36250000D02*
X24850000Y-37600000D01*
X29750000Y-48500000D02*
X29750000Y-38750000D01*
X29750000Y-38750000D02*
X28600000Y-37600000D01*
X28600000Y-37600000D02*
X26500000Y-37600000D01*
X27000000Y-54250000D02*
X27000000Y-57250000D01*
X27000000Y-57250000D02*
X29500000Y-59750000D01*
X29500000Y-59750000D02*
X29500000Y-63250000D01*
X29500000Y-63250000D02*
X32500000Y-66250000D01*
X32500000Y-66250000D02*
X43750000Y-66250000D01*
%TO.N,GND*%
X26500000Y-32520000D02*
X30020000Y-32520000D01*
X30020000Y-32520000D02*
X31500000Y-34000000D01*
X31500000Y-34000000D02*
X31500000Y-48500000D01*
%TO.N,+5V*%
X138750000Y-66250000D02*
X145500000Y-66250000D01*
X119750000Y-66250000D02*
X138750000Y-66250000D01*
X100750000Y-66250000D02*
X119750000Y-66250000D01*
X81750000Y-66250000D02*
X100750000Y-66250000D01*
X62750000Y-66250000D02*
X81750000Y-66250000D01*
X43750000Y-66250000D02*
X62750000Y-66250000D01*
X152250000Y-43750000D02*
X154750000Y-41250000D01*
X152250000Y-48000000D02*
X152250000Y-43750000D01*
X154750000Y-41250000D02*
X154750000Y-37117677D01*
X152250000Y-55750000D02*
X152250000Y-48000000D01*
X145500000Y-66250000D02*
X152250000Y-59500000D01*
X152250000Y-59500000D02*
X152250000Y-55750000D01*
D23*
%TO.N,Net-(J3-Pin_5)*%
X100465000Y-52965000D02*
X85285000Y-52965000D01*
X85285000Y-52965000D02*
X83000000Y-55250000D01*
X83000000Y-55250000D02*
X79500000Y-55250000D01*
X64500000Y-55250000D02*
X61000000Y-55250000D01*
X79500000Y-55250000D02*
X77250000Y-53000000D01*
X77250000Y-53000000D02*
X66750000Y-53000000D01*
X66750000Y-53000000D02*
X64500000Y-55250000D01*
X21000000Y-46000000D02*
X22460000Y-44540000D01*
X61000000Y-55250000D02*
X58750000Y-53000000D01*
X22460000Y-44540000D02*
X23960000Y-44540000D01*
X58750000Y-53000000D02*
X47750000Y-53000000D01*
X22500000Y-53000000D02*
X21000000Y-51500000D01*
X47750000Y-53000000D02*
X45500000Y-55250000D01*
X45500000Y-55250000D02*
X41250000Y-55250000D01*
X41250000Y-55250000D02*
X39000000Y-53000000D01*
X39000000Y-53000000D02*
X22500000Y-53000000D01*
X21000000Y-51500000D02*
X21000000Y-46000000D01*
%TO.N,Net-(J3-Pin_3)*%
X62365000Y-52965000D02*
X62365000Y-51115000D01*
X62365000Y-51115000D02*
X61250000Y-50000000D01*
X61250000Y-50000000D02*
X30750000Y-50000000D01*
X23000000Y-51750000D02*
X22000000Y-50750000D01*
X30750000Y-50000000D02*
X29000000Y-51750000D01*
X22920000Y-47080000D02*
X23960000Y-47080000D01*
X29000000Y-51750000D02*
X23000000Y-51750000D01*
X22000000Y-50750000D02*
X22000000Y-48000000D01*
X22000000Y-48000000D02*
X22920000Y-47080000D01*
%TO.N,Net-(J1-Pin_6)*%
X76350000Y-26250000D02*
X76350000Y-31900000D01*
X76350000Y-31900000D02*
X75250000Y-33000000D01*
X41000000Y-39000000D02*
X41000000Y-31000000D01*
X75250000Y-33000000D02*
X49250000Y-33000000D01*
X49250000Y-33000000D02*
X48000000Y-34250000D01*
X48000000Y-34250000D02*
X48000000Y-38750000D01*
X48000000Y-38750000D02*
X47000000Y-39750000D01*
X41750000Y-39750000D02*
X41000000Y-39000000D01*
X47000000Y-39750000D02*
X41750000Y-39750000D01*
X41000000Y-31000000D02*
X41960000Y-30040000D01*
X41960000Y-30040000D02*
X43210000Y-30040000D01*
%TO.N,Net-(J1-Pin_8)*%
X95500000Y-38000000D02*
X95500000Y-31750000D01*
X95500000Y-31750000D02*
X95400000Y-31650000D01*
%TO.N,Net-(J1-Pin_10)*%
X114500000Y-32500000D02*
X114500000Y-37000000D01*
%TO.N,Net-(J1-Pin_12)*%
X133500000Y-33750000D02*
X133500000Y-36000000D01*
%TO.N,Net-(J1-Pin_4)*%
X57300000Y-22500000D02*
X57300000Y-21550000D01*
X57300000Y-21550000D02*
X56750000Y-21000000D01*
X56750000Y-21000000D02*
X42250000Y-21000000D01*
X42250000Y-21000000D02*
X41250000Y-22000000D01*
X41250000Y-26750000D02*
X42000000Y-27500000D01*
X41250000Y-22000000D02*
X41250000Y-26750000D01*
X42000000Y-27500000D02*
X43210000Y-27500000D01*
D22*
%TO.N,+3.3V*%
X127750000Y-24500000D02*
X144000000Y-24500000D01*
X125250000Y-24500000D02*
X127750000Y-24500000D01*
X108750000Y-24500000D02*
X125250000Y-24500000D01*
X106000000Y-24500000D02*
X108750000Y-24500000D01*
X89750000Y-24500000D02*
X106000000Y-24500000D01*
X87000000Y-24500000D02*
X89750000Y-24500000D01*
X70750000Y-24500000D02*
X87000000Y-24500000D01*
X68000000Y-24500000D02*
X70750000Y-24500000D01*
X43210000Y-24960000D02*
X43210000Y-23757919D01*
X43210000Y-23757919D02*
X44217919Y-22750000D01*
X44217919Y-22750000D02*
X47750000Y-22750000D01*
X47750000Y-22750000D02*
X49500000Y-24500000D01*
X49500000Y-24500000D02*
X68000000Y-24500000D01*
%TD*%
%TA.AperFunction,Conductor*%
%TO.N,+3.3V*%
G36*
X41990705Y-20030185D02*
G01*
X42036460Y-20082989D01*
X42046404Y-20152147D01*
X42017379Y-20215703D01*
X41971119Y-20249061D01*
X41870823Y-20290604D01*
X41870814Y-20290609D01*
X41739711Y-20378210D01*
X41739707Y-20378213D01*
X40947108Y-21170814D01*
X40739711Y-21378211D01*
X40690937Y-21426985D01*
X40628209Y-21489712D01*
X40540609Y-21620814D01*
X40540602Y-21620827D01*
X40480264Y-21766498D01*
X40480261Y-21766510D01*
X40449500Y-21921153D01*
X40449500Y-26828846D01*
X40480261Y-26983489D01*
X40480264Y-26983501D01*
X40540602Y-27129172D01*
X40540609Y-27129185D01*
X40628210Y-27260288D01*
X40628213Y-27260292D01*
X41378211Y-28010289D01*
X41489711Y-28121789D01*
X41489712Y-28121790D01*
X41620814Y-28209390D01*
X41620827Y-28209397D01*
X41766498Y-28269735D01*
X41766503Y-28269737D01*
X41766507Y-28269737D01*
X41766508Y-28269738D01*
X41921154Y-28300500D01*
X41921157Y-28300500D01*
X41921158Y-28300500D01*
X42059106Y-28300500D01*
X42126145Y-28320185D01*
X42159422Y-28351612D01*
X42179896Y-28379792D01*
X42179898Y-28379794D01*
X42330213Y-28530109D01*
X42502182Y-28655050D01*
X42510946Y-28659516D01*
X42561742Y-28707491D01*
X42578536Y-28775312D01*
X42555998Y-28841447D01*
X42510946Y-28880484D01*
X42502182Y-28884949D01*
X42330213Y-29009890D01*
X42179898Y-29160205D01*
X42179898Y-29160206D01*
X42179896Y-29160208D01*
X42159422Y-29188386D01*
X42104094Y-29231051D01*
X42059106Y-29239500D01*
X41881155Y-29239500D01*
X41726510Y-29270261D01*
X41726498Y-29270264D01*
X41580827Y-29330602D01*
X41580814Y-29330609D01*
X41449711Y-29418210D01*
X41449707Y-29418213D01*
X40721636Y-30146286D01*
X40489711Y-30378211D01*
X40433960Y-30433962D01*
X40378209Y-30489712D01*
X40290609Y-30620814D01*
X40290602Y-30620827D01*
X40230264Y-30766498D01*
X40230261Y-30766510D01*
X40199500Y-30921153D01*
X40199500Y-39078846D01*
X40230261Y-39233489D01*
X40230264Y-39233501D01*
X40290602Y-39379172D01*
X40290609Y-39379185D01*
X40378210Y-39510288D01*
X40378213Y-39510292D01*
X41128211Y-40260289D01*
X41239708Y-40371786D01*
X41239712Y-40371790D01*
X41370814Y-40459390D01*
X41370827Y-40459397D01*
X41516498Y-40519735D01*
X41516503Y-40519737D01*
X41516507Y-40519737D01*
X41516508Y-40519738D01*
X41671154Y-40550500D01*
X41671157Y-40550500D01*
X47078844Y-40550500D01*
X47078845Y-40550499D01*
X47233497Y-40519737D01*
X47379179Y-40459394D01*
X47510289Y-40371789D01*
X48621789Y-39260289D01*
X48709394Y-39129179D01*
X48769738Y-38983497D01*
X48800500Y-38828842D01*
X48800500Y-38671157D01*
X48800500Y-34632940D01*
X48820185Y-34565901D01*
X48836819Y-34545259D01*
X49545259Y-33836819D01*
X49606582Y-33803334D01*
X49632940Y-33800500D01*
X75328844Y-33800500D01*
X75328845Y-33800499D01*
X75483497Y-33769737D01*
X75629179Y-33709394D01*
X75760289Y-33621789D01*
X76971789Y-32410289D01*
X77059394Y-32279179D01*
X77119737Y-32133497D01*
X77150500Y-31978842D01*
X77150500Y-31821158D01*
X77150500Y-29318872D01*
X82449500Y-29318872D01*
X82449500Y-30681127D01*
X82460741Y-30766503D01*
X82483730Y-30941116D01*
X82538944Y-31147177D01*
X82551602Y-31194418D01*
X82551605Y-31194428D01*
X82651953Y-31436690D01*
X82651958Y-31436700D01*
X82783075Y-31663803D01*
X82942718Y-31871851D01*
X82942726Y-31871860D01*
X83128140Y-32057274D01*
X83128148Y-32057281D01*
X83336196Y-32216924D01*
X83563299Y-32348041D01*
X83563309Y-32348046D01*
X83805571Y-32448394D01*
X83805581Y-32448398D01*
X84058884Y-32516270D01*
X84318880Y-32550500D01*
X84318887Y-32550500D01*
X84581113Y-32550500D01*
X84581120Y-32550500D01*
X84841116Y-32516270D01*
X85094419Y-32448398D01*
X85330336Y-32350678D01*
X85336690Y-32348046D01*
X85336691Y-32348045D01*
X85336697Y-32348043D01*
X85563803Y-32216924D01*
X85771851Y-32057282D01*
X85771855Y-32057277D01*
X85771860Y-32057274D01*
X85957274Y-31871860D01*
X85957277Y-31871855D01*
X85957282Y-31871851D01*
X86116924Y-31663803D01*
X86248043Y-31436697D01*
X86348398Y-31194419D01*
X86416270Y-30941116D01*
X86450500Y-30681120D01*
X86450500Y-29318880D01*
X86450499Y-29318872D01*
X90299500Y-29318872D01*
X90299500Y-30681127D01*
X90310741Y-30766503D01*
X90333730Y-30941116D01*
X90388944Y-31147177D01*
X90401602Y-31194418D01*
X90401605Y-31194428D01*
X90501953Y-31436690D01*
X90501958Y-31436700D01*
X90633075Y-31663803D01*
X90792718Y-31871851D01*
X90792726Y-31871860D01*
X90978140Y-32057274D01*
X90978148Y-32057281D01*
X91186196Y-32216924D01*
X91413299Y-32348041D01*
X91413309Y-32348046D01*
X91655571Y-32448394D01*
X91655581Y-32448398D01*
X91908884Y-32516270D01*
X92168880Y-32550500D01*
X92168887Y-32550500D01*
X92431113Y-32550500D01*
X92431120Y-32550500D01*
X92691116Y-32516270D01*
X92944419Y-32448398D01*
X93180336Y-32350678D01*
X93186690Y-32348046D01*
X93186691Y-32348045D01*
X93186697Y-32348043D01*
X93413803Y-32216924D01*
X93621851Y-32057282D01*
X93621855Y-32057277D01*
X93621860Y-32057274D01*
X93807274Y-31871860D01*
X93807277Y-31871855D01*
X93807282Y-31871851D01*
X93966924Y-31663803D01*
X94020415Y-31571153D01*
X94599500Y-31571153D01*
X94599500Y-31728846D01*
X94630261Y-31883489D01*
X94630264Y-31883501D01*
X94690061Y-32027864D01*
X94699500Y-32075316D01*
X94699500Y-38078846D01*
X94730261Y-38233489D01*
X94730264Y-38233501D01*
X94790602Y-38379172D01*
X94790609Y-38379185D01*
X94878210Y-38510288D01*
X94878213Y-38510292D01*
X94989707Y-38621786D01*
X94989711Y-38621789D01*
X95120814Y-38709390D01*
X95120827Y-38709397D01*
X95219256Y-38750167D01*
X95266503Y-38769737D01*
X95421153Y-38800499D01*
X95421156Y-38800500D01*
X95421158Y-38800500D01*
X95578844Y-38800500D01*
X95578845Y-38800499D01*
X95733497Y-38769737D01*
X95879179Y-38709394D01*
X96010289Y-38621789D01*
X96121789Y-38510289D01*
X96209394Y-38379179D01*
X96269737Y-38233497D01*
X96300500Y-38078842D01*
X96300500Y-37921158D01*
X96300500Y-31671158D01*
X96276380Y-31549896D01*
X96276379Y-31549890D01*
X96269739Y-31516508D01*
X96269737Y-31516503D01*
X96264171Y-31503066D01*
X96246439Y-31460256D01*
X96236678Y-31436690D01*
X96209397Y-31370827D01*
X96209390Y-31370814D01*
X96121790Y-31239712D01*
X96076496Y-31194418D01*
X96010289Y-31128211D01*
X95910289Y-31028211D01*
X95910288Y-31028210D01*
X95910287Y-31028209D01*
X95779185Y-30940609D01*
X95779172Y-30940602D01*
X95633501Y-30880264D01*
X95633489Y-30880261D01*
X95478845Y-30849500D01*
X95478842Y-30849500D01*
X95321158Y-30849500D01*
X95321155Y-30849500D01*
X95166510Y-30880261D01*
X95166498Y-30880264D01*
X95020827Y-30940602D01*
X95020814Y-30940609D01*
X94889711Y-31028210D01*
X94889707Y-31028213D01*
X94778213Y-31139707D01*
X94778210Y-31139711D01*
X94690609Y-31270814D01*
X94690602Y-31270827D01*
X94630264Y-31416498D01*
X94630261Y-31416510D01*
X94599500Y-31571153D01*
X94020415Y-31571153D01*
X94098043Y-31436697D01*
X94198398Y-31194419D01*
X94266270Y-30941116D01*
X94300500Y-30681120D01*
X94300500Y-29318880D01*
X94300499Y-29318872D01*
X101499500Y-29318872D01*
X101499500Y-30681127D01*
X101510741Y-30766503D01*
X101533730Y-30941116D01*
X101588944Y-31147177D01*
X101601602Y-31194418D01*
X101601605Y-31194428D01*
X101701953Y-31436690D01*
X101701958Y-31436700D01*
X101833075Y-31663803D01*
X101992718Y-31871851D01*
X101992726Y-31871860D01*
X102178140Y-32057274D01*
X102178148Y-32057281D01*
X102386196Y-32216924D01*
X102613299Y-32348041D01*
X102613309Y-32348046D01*
X102855571Y-32448394D01*
X102855581Y-32448398D01*
X103108884Y-32516270D01*
X103368880Y-32550500D01*
X103368887Y-32550500D01*
X103631113Y-32550500D01*
X103631120Y-32550500D01*
X103891116Y-32516270D01*
X104144419Y-32448398D01*
X104380336Y-32350678D01*
X104386690Y-32348046D01*
X104386691Y-32348045D01*
X104386697Y-32348043D01*
X104613803Y-32216924D01*
X104821851Y-32057282D01*
X104821855Y-32057277D01*
X104821860Y-32057274D01*
X105007274Y-31871860D01*
X105007277Y-31871855D01*
X105007282Y-31871851D01*
X105166924Y-31663803D01*
X105298043Y-31436697D01*
X105398398Y-31194419D01*
X105466270Y-30941116D01*
X105500500Y-30681120D01*
X105500500Y-29318880D01*
X105500499Y-29318872D01*
X109349500Y-29318872D01*
X109349500Y-30681127D01*
X109360741Y-30766503D01*
X109383730Y-30941116D01*
X109438944Y-31147177D01*
X109451602Y-31194418D01*
X109451605Y-31194428D01*
X109551953Y-31436690D01*
X109551958Y-31436700D01*
X109683075Y-31663803D01*
X109842718Y-31871851D01*
X109842726Y-31871860D01*
X110028140Y-32057274D01*
X110028148Y-32057281D01*
X110236196Y-32216924D01*
X110463299Y-32348041D01*
X110463309Y-32348046D01*
X110705571Y-32448394D01*
X110705581Y-32448398D01*
X110958884Y-32516270D01*
X111218880Y-32550500D01*
X111218887Y-32550500D01*
X111481113Y-32550500D01*
X111481120Y-32550500D01*
X111741116Y-32516270D01*
X111994419Y-32448398D01*
X112060194Y-32421153D01*
X113699500Y-32421153D01*
X113699500Y-37078846D01*
X113730261Y-37233489D01*
X113730264Y-37233501D01*
X113790602Y-37379172D01*
X113790609Y-37379185D01*
X113878210Y-37510288D01*
X113878213Y-37510292D01*
X113989707Y-37621786D01*
X113989711Y-37621789D01*
X114120814Y-37709390D01*
X114120827Y-37709397D01*
X114258174Y-37766287D01*
X114266503Y-37769737D01*
X114421153Y-37800499D01*
X114421156Y-37800500D01*
X114421158Y-37800500D01*
X114578844Y-37800500D01*
X114578845Y-37800499D01*
X114733497Y-37769737D01*
X114879179Y-37709394D01*
X115010289Y-37621789D01*
X115121789Y-37510289D01*
X115209394Y-37379179D01*
X115269737Y-37233497D01*
X115300500Y-37078842D01*
X115300500Y-36921158D01*
X115300500Y-33671153D01*
X132699500Y-33671153D01*
X132699500Y-36078846D01*
X132730261Y-36233489D01*
X132730264Y-36233501D01*
X132790602Y-36379172D01*
X132790609Y-36379185D01*
X132878210Y-36510288D01*
X132878213Y-36510292D01*
X132989707Y-36621786D01*
X132989711Y-36621789D01*
X133120814Y-36709390D01*
X133120827Y-36709397D01*
X133266498Y-36769735D01*
X133266503Y-36769737D01*
X133421153Y-36800499D01*
X133421156Y-36800500D01*
X133421158Y-36800500D01*
X133578844Y-36800500D01*
X133578845Y-36800499D01*
X133733497Y-36769737D01*
X133879179Y-36709394D01*
X134010289Y-36621789D01*
X134121789Y-36510289D01*
X134209394Y-36379179D01*
X134269737Y-36233497D01*
X134300500Y-36078842D01*
X134300500Y-35921158D01*
X134300500Y-33671158D01*
X134300500Y-33671155D01*
X134300499Y-33671153D01*
X134290679Y-33621786D01*
X134269737Y-33516503D01*
X134236420Y-33436067D01*
X134209397Y-33370827D01*
X134209390Y-33370814D01*
X134121789Y-33239711D01*
X134121786Y-33239707D01*
X134010292Y-33128213D01*
X134010288Y-33128210D01*
X133879185Y-33040609D01*
X133879172Y-33040602D01*
X133733501Y-32980264D01*
X133733489Y-32980261D01*
X133578845Y-32949500D01*
X133578842Y-32949500D01*
X133421158Y-32949500D01*
X133421155Y-32949500D01*
X133266510Y-32980261D01*
X133266498Y-32980264D01*
X133120827Y-33040602D01*
X133120814Y-33040609D01*
X132989711Y-33128210D01*
X132989707Y-33128213D01*
X132878213Y-33239707D01*
X132878210Y-33239711D01*
X132790609Y-33370814D01*
X132790602Y-33370827D01*
X132730264Y-33516498D01*
X132730261Y-33516510D01*
X132699500Y-33671153D01*
X115300500Y-33671153D01*
X115300500Y-32421158D01*
X115300500Y-32421155D01*
X115300499Y-32421153D01*
X115291957Y-32378210D01*
X115269737Y-32266503D01*
X115268600Y-32263757D01*
X115209397Y-32120827D01*
X115209390Y-32120814D01*
X115121789Y-31989711D01*
X115121786Y-31989707D01*
X115010292Y-31878213D01*
X115010288Y-31878210D01*
X114879185Y-31790609D01*
X114879172Y-31790602D01*
X114733501Y-31730264D01*
X114733489Y-31730261D01*
X114578845Y-31699500D01*
X114578842Y-31699500D01*
X114421158Y-31699500D01*
X114421155Y-31699500D01*
X114266510Y-31730261D01*
X114266498Y-31730264D01*
X114120827Y-31790602D01*
X114120814Y-31790609D01*
X113989711Y-31878210D01*
X113989707Y-31878213D01*
X113878213Y-31989707D01*
X113878210Y-31989711D01*
X113790609Y-32120814D01*
X113790602Y-32120827D01*
X113730264Y-32266498D01*
X113730261Y-32266510D01*
X113699500Y-32421153D01*
X112060194Y-32421153D01*
X112230336Y-32350678D01*
X112236690Y-32348046D01*
X112236691Y-32348045D01*
X112236697Y-32348043D01*
X112463803Y-32216924D01*
X112671851Y-32057282D01*
X112671855Y-32057277D01*
X112671860Y-32057274D01*
X112857274Y-31871860D01*
X112857277Y-31871855D01*
X112857282Y-31871851D01*
X113016924Y-31663803D01*
X113148043Y-31436697D01*
X113248398Y-31194419D01*
X113316270Y-30941116D01*
X113350500Y-30681120D01*
X113350500Y-29318880D01*
X113350499Y-29318872D01*
X120549500Y-29318872D01*
X120549500Y-30681127D01*
X120560741Y-30766503D01*
X120583730Y-30941116D01*
X120638944Y-31147177D01*
X120651602Y-31194418D01*
X120651605Y-31194428D01*
X120751953Y-31436690D01*
X120751958Y-31436700D01*
X120883075Y-31663803D01*
X121042718Y-31871851D01*
X121042726Y-31871860D01*
X121228140Y-32057274D01*
X121228148Y-32057281D01*
X121436196Y-32216924D01*
X121663299Y-32348041D01*
X121663309Y-32348046D01*
X121905571Y-32448394D01*
X121905581Y-32448398D01*
X122158884Y-32516270D01*
X122418880Y-32550500D01*
X122418887Y-32550500D01*
X122681113Y-32550500D01*
X122681120Y-32550500D01*
X122941116Y-32516270D01*
X123194419Y-32448398D01*
X123430336Y-32350678D01*
X123436690Y-32348046D01*
X123436691Y-32348045D01*
X123436697Y-32348043D01*
X123663803Y-32216924D01*
X123871851Y-32057282D01*
X123871855Y-32057277D01*
X123871860Y-32057274D01*
X124057274Y-31871860D01*
X124057277Y-31871855D01*
X124057282Y-31871851D01*
X124216924Y-31663803D01*
X124348043Y-31436697D01*
X124448398Y-31194419D01*
X124516270Y-30941116D01*
X124550500Y-30681120D01*
X124550500Y-29318880D01*
X124550499Y-29318872D01*
X128399500Y-29318872D01*
X128399500Y-30681127D01*
X128410741Y-30766503D01*
X128433730Y-30941116D01*
X128488944Y-31147177D01*
X128501602Y-31194418D01*
X128501605Y-31194428D01*
X128601953Y-31436690D01*
X128601958Y-31436700D01*
X128733075Y-31663803D01*
X128892718Y-31871851D01*
X128892726Y-31871860D01*
X129078140Y-32057274D01*
X129078148Y-32057281D01*
X129286196Y-32216924D01*
X129513299Y-32348041D01*
X129513309Y-32348046D01*
X129755571Y-32448394D01*
X129755581Y-32448398D01*
X130008884Y-32516270D01*
X130268880Y-32550500D01*
X130268887Y-32550500D01*
X130531113Y-32550500D01*
X130531120Y-32550500D01*
X130791116Y-32516270D01*
X131044419Y-32448398D01*
X131280336Y-32350678D01*
X131286690Y-32348046D01*
X131286691Y-32348045D01*
X131286697Y-32348043D01*
X131513803Y-32216924D01*
X131721851Y-32057282D01*
X131721855Y-32057277D01*
X131721860Y-32057274D01*
X131907274Y-31871860D01*
X131907277Y-31871855D01*
X131907282Y-31871851D01*
X132066924Y-31663803D01*
X132198043Y-31436697D01*
X132298398Y-31194419D01*
X132366270Y-30941116D01*
X132400500Y-30681120D01*
X132400500Y-29318880D01*
X132400499Y-29318872D01*
X139599500Y-29318872D01*
X139599500Y-30681127D01*
X139610741Y-30766503D01*
X139633730Y-30941116D01*
X139688944Y-31147177D01*
X139701602Y-31194418D01*
X139701605Y-31194428D01*
X139801953Y-31436690D01*
X139801958Y-31436700D01*
X139933075Y-31663803D01*
X140092718Y-31871851D01*
X140092726Y-31871860D01*
X140278140Y-32057274D01*
X140278148Y-32057281D01*
X140486196Y-32216924D01*
X140713299Y-32348041D01*
X140713309Y-32348046D01*
X140955571Y-32448394D01*
X140955581Y-32448398D01*
X141208884Y-32516270D01*
X141468880Y-32550500D01*
X141468887Y-32550500D01*
X141731113Y-32550500D01*
X141731120Y-32550500D01*
X141991116Y-32516270D01*
X142244419Y-32448398D01*
X142480336Y-32350678D01*
X142486690Y-32348046D01*
X142486691Y-32348045D01*
X142486697Y-32348043D01*
X142713803Y-32216924D01*
X142921851Y-32057282D01*
X142921855Y-32057277D01*
X142921860Y-32057274D01*
X143107274Y-31871860D01*
X143107277Y-31871855D01*
X143107282Y-31871851D01*
X143266924Y-31663803D01*
X143398043Y-31436697D01*
X143498398Y-31194419D01*
X143566270Y-30941116D01*
X143600500Y-30681120D01*
X143600500Y-29318880D01*
X143566270Y-29058884D01*
X143498398Y-28805581D01*
X143481461Y-28764692D01*
X143398046Y-28563309D01*
X143398041Y-28563299D01*
X143266924Y-28336196D01*
X143144424Y-28176554D01*
X143107282Y-28128149D01*
X143107281Y-28128148D01*
X143107274Y-28128140D01*
X142921860Y-27942726D01*
X142921851Y-27942718D01*
X142713803Y-27783075D01*
X142486700Y-27651958D01*
X142486690Y-27651953D01*
X142244428Y-27551605D01*
X142244421Y-27551603D01*
X142244419Y-27551602D01*
X141991116Y-27483730D01*
X141933339Y-27476123D01*
X141731127Y-27449500D01*
X141731120Y-27449500D01*
X141468880Y-27449500D01*
X141468872Y-27449500D01*
X141237772Y-27479926D01*
X141208884Y-27483730D01*
X140955581Y-27551602D01*
X140955571Y-27551605D01*
X140713309Y-27651953D01*
X140713299Y-27651958D01*
X140486196Y-27783075D01*
X140278148Y-27942718D01*
X140092718Y-28128148D01*
X139933075Y-28336196D01*
X139801958Y-28563299D01*
X139801953Y-28563309D01*
X139701605Y-28805571D01*
X139701602Y-28805581D01*
X139633730Y-29058885D01*
X139599500Y-29318872D01*
X132400499Y-29318872D01*
X132366270Y-29058884D01*
X132298398Y-28805581D01*
X132281461Y-28764692D01*
X132198046Y-28563309D01*
X132198041Y-28563299D01*
X132066924Y-28336196D01*
X131944424Y-28176554D01*
X131907282Y-28128149D01*
X131907281Y-28128148D01*
X131907274Y-28128140D01*
X131721860Y-27942726D01*
X131721851Y-27942718D01*
X131513803Y-27783075D01*
X131286700Y-27651958D01*
X131286690Y-27651953D01*
X131044428Y-27551605D01*
X131044421Y-27551603D01*
X131044419Y-27551602D01*
X130791116Y-27483730D01*
X130733339Y-27476123D01*
X130531127Y-27449500D01*
X130531120Y-27449500D01*
X130268880Y-27449500D01*
X130268872Y-27449500D01*
X130037772Y-27479926D01*
X130008884Y-27483730D01*
X129755581Y-27551602D01*
X129755571Y-27551605D01*
X129513309Y-27651953D01*
X129513299Y-27651958D01*
X129286196Y-27783075D01*
X129078148Y-27942718D01*
X128892718Y-28128148D01*
X128733075Y-28336196D01*
X128601958Y-28563299D01*
X128601953Y-28563309D01*
X128501605Y-28805571D01*
X128501602Y-28805581D01*
X128433730Y-29058885D01*
X128399500Y-29318872D01*
X124550499Y-29318872D01*
X124516270Y-29058884D01*
X124448398Y-28805581D01*
X124431461Y-28764692D01*
X124348046Y-28563309D01*
X124348041Y-28563299D01*
X124216924Y-28336196D01*
X124094424Y-28176554D01*
X124057282Y-28128149D01*
X124057281Y-28128148D01*
X124057274Y-28128140D01*
X123871860Y-27942726D01*
X123871851Y-27942718D01*
X123663803Y-27783075D01*
X123436700Y-27651958D01*
X123436690Y-27651953D01*
X123194428Y-27551605D01*
X123194421Y-27551603D01*
X123194419Y-27551602D01*
X122941116Y-27483730D01*
X122883339Y-27476123D01*
X122681127Y-27449500D01*
X122681120Y-27449500D01*
X122418880Y-27449500D01*
X122418872Y-27449500D01*
X122187772Y-27479926D01*
X122158884Y-27483730D01*
X121905581Y-27551602D01*
X121905571Y-27551605D01*
X121663309Y-27651953D01*
X121663299Y-27651958D01*
X121436196Y-27783075D01*
X121228148Y-27942718D01*
X121042718Y-28128148D01*
X120883075Y-28336196D01*
X120751958Y-28563299D01*
X120751953Y-28563309D01*
X120651605Y-28805571D01*
X120651602Y-28805581D01*
X120583730Y-29058885D01*
X120549500Y-29318872D01*
X113350499Y-29318872D01*
X113316270Y-29058884D01*
X113248398Y-28805581D01*
X113231461Y-28764692D01*
X113148046Y-28563309D01*
X113148041Y-28563299D01*
X113016924Y-28336196D01*
X112894424Y-28176554D01*
X112857282Y-28128149D01*
X112857281Y-28128148D01*
X112857274Y-28128140D01*
X112671860Y-27942726D01*
X112671851Y-27942718D01*
X112463803Y-27783075D01*
X112236700Y-27651958D01*
X112236690Y-27651953D01*
X111994428Y-27551605D01*
X111994421Y-27551603D01*
X111994419Y-27551602D01*
X111741116Y-27483730D01*
X111683339Y-27476123D01*
X111481127Y-27449500D01*
X111481120Y-27449500D01*
X111218880Y-27449500D01*
X111218872Y-27449500D01*
X110987772Y-27479926D01*
X110958884Y-27483730D01*
X110705581Y-27551602D01*
X110705571Y-27551605D01*
X110463309Y-27651953D01*
X110463299Y-27651958D01*
X110236196Y-27783075D01*
X110028148Y-27942718D01*
X109842718Y-28128148D01*
X109683075Y-28336196D01*
X109551958Y-28563299D01*
X109551953Y-28563309D01*
X109451605Y-28805571D01*
X109451602Y-28805581D01*
X109383730Y-29058885D01*
X109349500Y-29318872D01*
X105500499Y-29318872D01*
X105466270Y-29058884D01*
X105398398Y-28805581D01*
X105381461Y-28764692D01*
X105298046Y-28563309D01*
X105298041Y-28563299D01*
X105166924Y-28336196D01*
X105044424Y-28176554D01*
X105007282Y-28128149D01*
X105007281Y-28128148D01*
X105007274Y-28128140D01*
X104821860Y-27942726D01*
X104821851Y-27942718D01*
X104613803Y-27783075D01*
X104386700Y-27651958D01*
X104386690Y-27651953D01*
X104144428Y-27551605D01*
X104144421Y-27551603D01*
X104144419Y-27551602D01*
X103891116Y-27483730D01*
X103833339Y-27476123D01*
X103631127Y-27449500D01*
X103631120Y-27449500D01*
X103368880Y-27449500D01*
X103368872Y-27449500D01*
X103137772Y-27479926D01*
X103108884Y-27483730D01*
X102855581Y-27551602D01*
X102855571Y-27551605D01*
X102613309Y-27651953D01*
X102613299Y-27651958D01*
X102386196Y-27783075D01*
X102178148Y-27942718D01*
X101992718Y-28128148D01*
X101833075Y-28336196D01*
X101701958Y-28563299D01*
X101701953Y-28563309D01*
X101601605Y-28805571D01*
X101601602Y-28805581D01*
X101533730Y-29058885D01*
X101499500Y-29318872D01*
X94300499Y-29318872D01*
X94266270Y-29058884D01*
X94198398Y-28805581D01*
X94181461Y-28764692D01*
X94098046Y-28563309D01*
X94098041Y-28563299D01*
X93966924Y-28336196D01*
X93844424Y-28176554D01*
X93807282Y-28128149D01*
X93807281Y-28128148D01*
X93807274Y-28128140D01*
X93621860Y-27942726D01*
X93621851Y-27942718D01*
X93413803Y-27783075D01*
X93186700Y-27651958D01*
X93186690Y-27651953D01*
X92944428Y-27551605D01*
X92944421Y-27551603D01*
X92944419Y-27551602D01*
X92691116Y-27483730D01*
X92633339Y-27476123D01*
X92431127Y-27449500D01*
X92431120Y-27449500D01*
X92168880Y-27449500D01*
X92168872Y-27449500D01*
X91937772Y-27479926D01*
X91908884Y-27483730D01*
X91655581Y-27551602D01*
X91655571Y-27551605D01*
X91413309Y-27651953D01*
X91413299Y-27651958D01*
X91186196Y-27783075D01*
X90978148Y-27942718D01*
X90792718Y-28128148D01*
X90633075Y-28336196D01*
X90501958Y-28563299D01*
X90501953Y-28563309D01*
X90401605Y-28805571D01*
X90401602Y-28805581D01*
X90333730Y-29058885D01*
X90299500Y-29318872D01*
X86450499Y-29318872D01*
X86416270Y-29058884D01*
X86348398Y-28805581D01*
X86331461Y-28764692D01*
X86248046Y-28563309D01*
X86248041Y-28563299D01*
X86116924Y-28336196D01*
X85994424Y-28176554D01*
X85957282Y-28128149D01*
X85957281Y-28128148D01*
X85957274Y-28128140D01*
X85771860Y-27942726D01*
X85771851Y-27942718D01*
X85563803Y-27783075D01*
X85336700Y-27651958D01*
X85336690Y-27651953D01*
X85094428Y-27551605D01*
X85094421Y-27551603D01*
X85094419Y-27551602D01*
X84841116Y-27483730D01*
X84783339Y-27476123D01*
X84581127Y-27449500D01*
X84581120Y-27449500D01*
X84318880Y-27449500D01*
X84318872Y-27449500D01*
X84087772Y-27479926D01*
X84058884Y-27483730D01*
X83805581Y-27551602D01*
X83805571Y-27551605D01*
X83563309Y-27651953D01*
X83563299Y-27651958D01*
X83336196Y-27783075D01*
X83128148Y-27942718D01*
X82942718Y-28128148D01*
X82783075Y-28336196D01*
X82651958Y-28563299D01*
X82651953Y-28563309D01*
X82551605Y-28805571D01*
X82551602Y-28805581D01*
X82483730Y-29058885D01*
X82449500Y-29318872D01*
X77150500Y-29318872D01*
X77150500Y-26171158D01*
X77150500Y-26171155D01*
X77150499Y-26171153D01*
X77141913Y-26127991D01*
X77119737Y-26016503D01*
X77078722Y-25917483D01*
X77059397Y-25870827D01*
X77059390Y-25870814D01*
X76971789Y-25739711D01*
X76971786Y-25739707D01*
X76860292Y-25628213D01*
X76860288Y-25628210D01*
X76729185Y-25540609D01*
X76729172Y-25540602D01*
X76583501Y-25480264D01*
X76583489Y-25480261D01*
X76428845Y-25449500D01*
X76428842Y-25449500D01*
X76271158Y-25449500D01*
X76271155Y-25449500D01*
X76116510Y-25480261D01*
X76116498Y-25480264D01*
X75970827Y-25540602D01*
X75970814Y-25540609D01*
X75839711Y-25628210D01*
X75839707Y-25628213D01*
X75728213Y-25739707D01*
X75728210Y-25739711D01*
X75640609Y-25870814D01*
X75640602Y-25870827D01*
X75580264Y-26016498D01*
X75580261Y-26016510D01*
X75549500Y-26171153D01*
X75549500Y-31517060D01*
X75529815Y-31584099D01*
X75513181Y-31604741D01*
X74954741Y-32163181D01*
X74927813Y-32177884D01*
X74901995Y-32194477D01*
X74895794Y-32195368D01*
X74893418Y-32196666D01*
X74867060Y-32199500D01*
X74728996Y-32199500D01*
X74661957Y-32179815D01*
X74616202Y-32127011D01*
X74606258Y-32057853D01*
X74635283Y-31994297D01*
X74641315Y-31987819D01*
X74757274Y-31871860D01*
X74757277Y-31871855D01*
X74757282Y-31871851D01*
X74916924Y-31663803D01*
X75048043Y-31436697D01*
X75148398Y-31194419D01*
X75216270Y-30941116D01*
X75250500Y-30681120D01*
X75250500Y-29318880D01*
X75216270Y-29058884D01*
X75148398Y-28805581D01*
X75131461Y-28764692D01*
X75048046Y-28563309D01*
X75048041Y-28563299D01*
X74916924Y-28336196D01*
X74794424Y-28176554D01*
X74757282Y-28128149D01*
X74757281Y-28128148D01*
X74757274Y-28128140D01*
X74571860Y-27942726D01*
X74571851Y-27942718D01*
X74363803Y-27783075D01*
X74136700Y-27651958D01*
X74136690Y-27651953D01*
X73894428Y-27551605D01*
X73894421Y-27551603D01*
X73894419Y-27551602D01*
X73641116Y-27483730D01*
X73583339Y-27476123D01*
X73381127Y-27449500D01*
X73381120Y-27449500D01*
X73118880Y-27449500D01*
X73118872Y-27449500D01*
X72887772Y-27479926D01*
X72858884Y-27483730D01*
X72605581Y-27551602D01*
X72605571Y-27551605D01*
X72363309Y-27651953D01*
X72363299Y-27651958D01*
X72136196Y-27783075D01*
X71928148Y-27942718D01*
X71742718Y-28128148D01*
X71583075Y-28336196D01*
X71451958Y-28563299D01*
X71451953Y-28563309D01*
X71351605Y-28805571D01*
X71351602Y-28805581D01*
X71283730Y-29058885D01*
X71249500Y-29318872D01*
X71249500Y-30681127D01*
X71260741Y-30766503D01*
X71283730Y-30941116D01*
X71338944Y-31147177D01*
X71351602Y-31194418D01*
X71351605Y-31194428D01*
X71451953Y-31436690D01*
X71451958Y-31436700D01*
X71583075Y-31663803D01*
X71742718Y-31871851D01*
X71742726Y-31871860D01*
X71858685Y-31987819D01*
X71892170Y-32049142D01*
X71887186Y-32118834D01*
X71845314Y-32174767D01*
X71779850Y-32199184D01*
X71771004Y-32199500D01*
X66878996Y-32199500D01*
X66811957Y-32179815D01*
X66766202Y-32127011D01*
X66756258Y-32057853D01*
X66785283Y-31994297D01*
X66791315Y-31987819D01*
X66907274Y-31871860D01*
X66907277Y-31871855D01*
X66907282Y-31871851D01*
X67066924Y-31663803D01*
X67198043Y-31436697D01*
X67298398Y-31194419D01*
X67366270Y-30941116D01*
X67400500Y-30681120D01*
X67400500Y-29318880D01*
X67366270Y-29058884D01*
X67298398Y-28805581D01*
X67281461Y-28764692D01*
X67198046Y-28563309D01*
X67198041Y-28563299D01*
X67066924Y-28336196D01*
X66944424Y-28176554D01*
X66907282Y-28128149D01*
X66907281Y-28128148D01*
X66907274Y-28128140D01*
X66721860Y-27942726D01*
X66721851Y-27942718D01*
X66513803Y-27783075D01*
X66286700Y-27651958D01*
X66286690Y-27651953D01*
X66044428Y-27551605D01*
X66044421Y-27551603D01*
X66044419Y-27551602D01*
X65791116Y-27483730D01*
X65733339Y-27476123D01*
X65531127Y-27449500D01*
X65531120Y-27449500D01*
X65268880Y-27449500D01*
X65268872Y-27449500D01*
X65037772Y-27479926D01*
X65008884Y-27483730D01*
X64755581Y-27551602D01*
X64755571Y-27551605D01*
X64513309Y-27651953D01*
X64513299Y-27651958D01*
X64286196Y-27783075D01*
X64078148Y-27942718D01*
X63892718Y-28128148D01*
X63733075Y-28336196D01*
X63601958Y-28563299D01*
X63601953Y-28563309D01*
X63501605Y-28805571D01*
X63501602Y-28805581D01*
X63433730Y-29058885D01*
X63399500Y-29318872D01*
X63399500Y-30681127D01*
X63410741Y-30766503D01*
X63433730Y-30941116D01*
X63488944Y-31147177D01*
X63501602Y-31194418D01*
X63501605Y-31194428D01*
X63601953Y-31436690D01*
X63601958Y-31436700D01*
X63733075Y-31663803D01*
X63892718Y-31871851D01*
X63892726Y-31871860D01*
X64008685Y-31987819D01*
X64042170Y-32049142D01*
X64037186Y-32118834D01*
X63995314Y-32174767D01*
X63929850Y-32199184D01*
X63921004Y-32199500D01*
X55678996Y-32199500D01*
X55611957Y-32179815D01*
X55566202Y-32127011D01*
X55556258Y-32057853D01*
X55585283Y-31994297D01*
X55591315Y-31987819D01*
X55707274Y-31871860D01*
X55707277Y-31871855D01*
X55707282Y-31871851D01*
X55866924Y-31663803D01*
X55998043Y-31436697D01*
X56098398Y-31194419D01*
X56166270Y-30941116D01*
X56200500Y-30681120D01*
X56200500Y-29318880D01*
X56166270Y-29058884D01*
X56098398Y-28805581D01*
X56081461Y-28764692D01*
X55998046Y-28563309D01*
X55998041Y-28563299D01*
X55866924Y-28336196D01*
X55744424Y-28176554D01*
X55707282Y-28128149D01*
X55707281Y-28128148D01*
X55707274Y-28128140D01*
X55521860Y-27942726D01*
X55521851Y-27942718D01*
X55313803Y-27783075D01*
X55086700Y-27651958D01*
X55086690Y-27651953D01*
X54844428Y-27551605D01*
X54844421Y-27551603D01*
X54844419Y-27551602D01*
X54591116Y-27483730D01*
X54533339Y-27476123D01*
X54331127Y-27449500D01*
X54331120Y-27449500D01*
X54068880Y-27449500D01*
X54068872Y-27449500D01*
X53837772Y-27479926D01*
X53808884Y-27483730D01*
X53555581Y-27551602D01*
X53555571Y-27551605D01*
X53313309Y-27651953D01*
X53313299Y-27651958D01*
X53086196Y-27783075D01*
X52878148Y-27942718D01*
X52692718Y-28128148D01*
X52533075Y-28336196D01*
X52401958Y-28563299D01*
X52401953Y-28563309D01*
X52301605Y-28805571D01*
X52301602Y-28805581D01*
X52233730Y-29058885D01*
X52199500Y-29318872D01*
X52199500Y-30681127D01*
X52210741Y-30766503D01*
X52233730Y-30941116D01*
X52288944Y-31147177D01*
X52301602Y-31194418D01*
X52301605Y-31194428D01*
X52401953Y-31436690D01*
X52401958Y-31436700D01*
X52533075Y-31663803D01*
X52692718Y-31871851D01*
X52692726Y-31871860D01*
X52808685Y-31987819D01*
X52842170Y-32049142D01*
X52837186Y-32118834D01*
X52795314Y-32174767D01*
X52729850Y-32199184D01*
X52721004Y-32199500D01*
X49171155Y-32199500D01*
X49016510Y-32230261D01*
X49016498Y-32230264D01*
X48870827Y-32290602D01*
X48870814Y-32290609D01*
X48739711Y-32378210D01*
X48739707Y-32378213D01*
X47798968Y-33318954D01*
X47489711Y-33628211D01*
X47446769Y-33671153D01*
X47378209Y-33739712D01*
X47290609Y-33870814D01*
X47290602Y-33870827D01*
X47230264Y-34016498D01*
X47230261Y-34016510D01*
X47199500Y-34171153D01*
X47199500Y-34473575D01*
X47179815Y-34540614D01*
X47127011Y-34586369D01*
X47057853Y-34596313D01*
X46994297Y-34567288D01*
X46965015Y-34529870D01*
X46954647Y-34509522D01*
X46905051Y-34412184D01*
X46853587Y-34341349D01*
X46780109Y-34240213D01*
X46629786Y-34089890D01*
X46457820Y-33964951D01*
X46457115Y-33964591D01*
X46449054Y-33960485D01*
X46398259Y-33912512D01*
X46381463Y-33844692D01*
X46403999Y-33778556D01*
X46449054Y-33739515D01*
X46457816Y-33735051D01*
X46545765Y-33671153D01*
X46629786Y-33610109D01*
X46629788Y-33610106D01*
X46629792Y-33610104D01*
X46780104Y-33459792D01*
X46780106Y-33459788D01*
X46780109Y-33459786D01*
X46905048Y-33287820D01*
X46905047Y-33287820D01*
X46905051Y-33287816D01*
X47001557Y-33098412D01*
X47067246Y-32896243D01*
X47100500Y-32686287D01*
X47100500Y-32473713D01*
X47067246Y-32263757D01*
X47001557Y-32061588D01*
X46905051Y-31872184D01*
X46905049Y-31872181D01*
X46905048Y-31872179D01*
X46780109Y-31700213D01*
X46629786Y-31549890D01*
X46457820Y-31424951D01*
X46457115Y-31424591D01*
X46449054Y-31420485D01*
X46398259Y-31372512D01*
X46381463Y-31304692D01*
X46403999Y-31238556D01*
X46449054Y-31199515D01*
X46457816Y-31195051D01*
X46479789Y-31179086D01*
X46629786Y-31070109D01*
X46629788Y-31070106D01*
X46629792Y-31070104D01*
X46780104Y-30919792D01*
X46780106Y-30919788D01*
X46780109Y-30919786D01*
X46905048Y-30747820D01*
X46905047Y-30747820D01*
X46905051Y-30747816D01*
X47001557Y-30558412D01*
X47067246Y-30356243D01*
X47100500Y-30146287D01*
X47100500Y-29933713D01*
X47067246Y-29723757D01*
X47001557Y-29521588D01*
X46905051Y-29332184D01*
X46905049Y-29332181D01*
X46905048Y-29332179D01*
X46780109Y-29160213D01*
X46629786Y-29009890D01*
X46457820Y-28884951D01*
X46457115Y-28884591D01*
X46449054Y-28880485D01*
X46398259Y-28832512D01*
X46381463Y-28764692D01*
X46403999Y-28698556D01*
X46449054Y-28659515D01*
X46457816Y-28655051D01*
X46479789Y-28639086D01*
X46629786Y-28530109D01*
X46629788Y-28530106D01*
X46629792Y-28530104D01*
X46780104Y-28379792D01*
X46780106Y-28379788D01*
X46780109Y-28379786D01*
X46903902Y-28209397D01*
X46905051Y-28207816D01*
X47001557Y-28018412D01*
X47067246Y-27816243D01*
X47100500Y-27606287D01*
X47100500Y-27393713D01*
X47067246Y-27183757D01*
X47001557Y-26981588D01*
X46905051Y-26792184D01*
X46905049Y-26792181D01*
X46905048Y-26792179D01*
X46780109Y-26620213D01*
X46666569Y-26506673D01*
X46633084Y-26445350D01*
X46638068Y-26375658D01*
X46679940Y-26319725D01*
X46710915Y-26302810D01*
X46842331Y-26253796D01*
X46957546Y-26167546D01*
X47043796Y-26052331D01*
X47094091Y-25917483D01*
X47100500Y-25857873D01*
X47100499Y-24062128D01*
X47094091Y-24002517D01*
X47076095Y-23954268D01*
X47043797Y-23867671D01*
X47043793Y-23867664D01*
X46957547Y-23752455D01*
X46957544Y-23752452D01*
X46842335Y-23666206D01*
X46842328Y-23666202D01*
X46707482Y-23615908D01*
X46707483Y-23615908D01*
X46647883Y-23609501D01*
X46647881Y-23609500D01*
X46647873Y-23609500D01*
X46647864Y-23609500D01*
X44852129Y-23609500D01*
X44852123Y-23609501D01*
X44792516Y-23615908D01*
X44657671Y-23666202D01*
X44657664Y-23666206D01*
X44542455Y-23752452D01*
X44542452Y-23752455D01*
X44456206Y-23867664D01*
X44456202Y-23867671D01*
X44405908Y-24002517D01*
X44399501Y-24062116D01*
X44399501Y-24062123D01*
X44399500Y-24062135D01*
X44399500Y-24072690D01*
X44379815Y-24139729D01*
X44363181Y-24160371D01*
X43692962Y-24830590D01*
X43675925Y-24767007D01*
X43610099Y-24652993D01*
X43517007Y-24559901D01*
X43402993Y-24494075D01*
X43339409Y-24477037D01*
X43971716Y-23844728D01*
X43917550Y-23805375D01*
X43728217Y-23708904D01*
X43526129Y-23643242D01*
X43316246Y-23610000D01*
X43103754Y-23610000D01*
X42893872Y-23643242D01*
X42893869Y-23643242D01*
X42691782Y-23708904D01*
X42502439Y-23805380D01*
X42448282Y-23844727D01*
X42448282Y-23844728D01*
X43080591Y-24477037D01*
X43017007Y-24494075D01*
X42902993Y-24559901D01*
X42809901Y-24652993D01*
X42744075Y-24767007D01*
X42727037Y-24830591D01*
X42086819Y-24190373D01*
X42072115Y-24163445D01*
X42055523Y-24137627D01*
X42054631Y-24131426D01*
X42053334Y-24129050D01*
X42050500Y-24102692D01*
X42050500Y-22382940D01*
X42070185Y-22315901D01*
X42086819Y-22295259D01*
X42545259Y-21836819D01*
X42606582Y-21803334D01*
X42632940Y-21800500D01*
X55994478Y-21800500D01*
X56061517Y-21820185D01*
X56107272Y-21872989D01*
X56117216Y-21942147D01*
X56104963Y-21980794D01*
X56094782Y-22000773D01*
X56031522Y-22195465D01*
X55999500Y-22397648D01*
X55999500Y-22602351D01*
X56031522Y-22804534D01*
X56094781Y-22999223D01*
X56187715Y-23181613D01*
X56308028Y-23347213D01*
X56452786Y-23491971D01*
X56607749Y-23604556D01*
X56618390Y-23612287D01*
X56679143Y-23643242D01*
X56800776Y-23705218D01*
X56800778Y-23705218D01*
X56800781Y-23705220D01*
X56891856Y-23734812D01*
X56995465Y-23768477D01*
X57096557Y-23784488D01*
X57197648Y-23800500D01*
X57197649Y-23800500D01*
X57402351Y-23800500D01*
X57402352Y-23800500D01*
X57604534Y-23768477D01*
X57799219Y-23705220D01*
X57981610Y-23612287D01*
X58110482Y-23518657D01*
X58147213Y-23491971D01*
X58147215Y-23491968D01*
X58147219Y-23491966D01*
X58291966Y-23347219D01*
X58291968Y-23347215D01*
X58291971Y-23347213D01*
X58367893Y-23242713D01*
X58412287Y-23181610D01*
X58439515Y-23128171D01*
X58487490Y-23077376D01*
X58555311Y-23060581D01*
X58621446Y-23083118D01*
X58660485Y-23128172D01*
X58687715Y-23181613D01*
X58808028Y-23347213D01*
X58952786Y-23491971D01*
X59107749Y-23604556D01*
X59118390Y-23612287D01*
X59179143Y-23643242D01*
X59300776Y-23705218D01*
X59300778Y-23705218D01*
X59300781Y-23705220D01*
X59391856Y-23734812D01*
X59495465Y-23768477D01*
X59596557Y-23784488D01*
X59697648Y-23800500D01*
X59697649Y-23800500D01*
X59902351Y-23800500D01*
X59902352Y-23800500D01*
X60104534Y-23768477D01*
X60299219Y-23705220D01*
X60481610Y-23612287D01*
X60610482Y-23518657D01*
X60647213Y-23491971D01*
X60647215Y-23491968D01*
X60647219Y-23491966D01*
X60791966Y-23347219D01*
X60832550Y-23291358D01*
X60887878Y-23248694D01*
X60957491Y-23242713D01*
X61019287Y-23275318D01*
X61050573Y-23325238D01*
X61065183Y-23369327D01*
X61065185Y-23369331D01*
X61065186Y-23369334D01*
X61157288Y-23518656D01*
X61281344Y-23642712D01*
X61430666Y-23734814D01*
X61597203Y-23789999D01*
X61699991Y-23800500D01*
X62900008Y-23800499D01*
X63002797Y-23789999D01*
X63169334Y-23734814D01*
X63318656Y-23642712D01*
X63442712Y-23518656D01*
X63534814Y-23369334D01*
X63589999Y-23202797D01*
X63600500Y-23100009D01*
X63600499Y-22397648D01*
X75049500Y-22397648D01*
X75049500Y-22602351D01*
X75081522Y-22804534D01*
X75144781Y-22999223D01*
X75237715Y-23181613D01*
X75358028Y-23347213D01*
X75502786Y-23491971D01*
X75657749Y-23604556D01*
X75668390Y-23612287D01*
X75729143Y-23643242D01*
X75850776Y-23705218D01*
X75850778Y-23705218D01*
X75850781Y-23705220D01*
X75941856Y-23734812D01*
X76045465Y-23768477D01*
X76146557Y-23784488D01*
X76247648Y-23800500D01*
X76247649Y-23800500D01*
X76452351Y-23800500D01*
X76452352Y-23800500D01*
X76654534Y-23768477D01*
X76849219Y-23705220D01*
X77031610Y-23612287D01*
X77160482Y-23518657D01*
X77197213Y-23491971D01*
X77197215Y-23491968D01*
X77197219Y-23491966D01*
X77341966Y-23347219D01*
X77341968Y-23347215D01*
X77341971Y-23347213D01*
X77417893Y-23242713D01*
X77462287Y-23181610D01*
X77489515Y-23128171D01*
X77537490Y-23077376D01*
X77605311Y-23060581D01*
X77671446Y-23083118D01*
X77710485Y-23128172D01*
X77737715Y-23181613D01*
X77858028Y-23347213D01*
X78002786Y-23491971D01*
X78157749Y-23604556D01*
X78168390Y-23612287D01*
X78229143Y-23643242D01*
X78350776Y-23705218D01*
X78350778Y-23705218D01*
X78350781Y-23705220D01*
X78441856Y-23734812D01*
X78545465Y-23768477D01*
X78646557Y-23784488D01*
X78747648Y-23800500D01*
X78747649Y-23800500D01*
X78952351Y-23800500D01*
X78952352Y-23800500D01*
X79154534Y-23768477D01*
X79349219Y-23705220D01*
X79531610Y-23612287D01*
X79660482Y-23518657D01*
X79697213Y-23491971D01*
X79697215Y-23491968D01*
X79697219Y-23491966D01*
X79841966Y-23347219D01*
X79882550Y-23291358D01*
X79937878Y-23248694D01*
X80007491Y-23242713D01*
X80069287Y-23275318D01*
X80100573Y-23325238D01*
X80115183Y-23369327D01*
X80115185Y-23369331D01*
X80115186Y-23369334D01*
X80207288Y-23518656D01*
X80331344Y-23642712D01*
X80480666Y-23734814D01*
X80647203Y-23789999D01*
X80749991Y-23800500D01*
X81950008Y-23800499D01*
X82052797Y-23789999D01*
X82219334Y-23734814D01*
X82368656Y-23642712D01*
X82492712Y-23518656D01*
X82584814Y-23369334D01*
X82639999Y-23202797D01*
X82650500Y-23100009D01*
X82650499Y-22397648D01*
X94099500Y-22397648D01*
X94099500Y-22602351D01*
X94131522Y-22804534D01*
X94194781Y-22999223D01*
X94287715Y-23181613D01*
X94408028Y-23347213D01*
X94552786Y-23491971D01*
X94707749Y-23604556D01*
X94718390Y-23612287D01*
X94779143Y-23643242D01*
X94900776Y-23705218D01*
X94900778Y-23705218D01*
X94900781Y-23705220D01*
X94991856Y-23734812D01*
X95095465Y-23768477D01*
X95196557Y-23784488D01*
X95297648Y-23800500D01*
X95297649Y-23800500D01*
X95502351Y-23800500D01*
X95502352Y-23800500D01*
X95704534Y-23768477D01*
X95899219Y-23705220D01*
X96081610Y-23612287D01*
X96210482Y-23518657D01*
X96247213Y-23491971D01*
X96247215Y-23491968D01*
X96247219Y-23491966D01*
X96391966Y-23347219D01*
X96391968Y-23347215D01*
X96391971Y-23347213D01*
X96467893Y-23242713D01*
X96512287Y-23181610D01*
X96539515Y-23128171D01*
X96587490Y-23077376D01*
X96655311Y-23060581D01*
X96721446Y-23083118D01*
X96760485Y-23128172D01*
X96787715Y-23181613D01*
X96908028Y-23347213D01*
X97052786Y-23491971D01*
X97207749Y-23604556D01*
X97218390Y-23612287D01*
X97279143Y-23643242D01*
X97400776Y-23705218D01*
X97400778Y-23705218D01*
X97400781Y-23705220D01*
X97491856Y-23734812D01*
X97595465Y-23768477D01*
X97696557Y-23784488D01*
X97797648Y-23800500D01*
X97797649Y-23800500D01*
X98002351Y-23800500D01*
X98002352Y-23800500D01*
X98204534Y-23768477D01*
X98399219Y-23705220D01*
X98581610Y-23612287D01*
X98710482Y-23518657D01*
X98747213Y-23491971D01*
X98747215Y-23491968D01*
X98747219Y-23491966D01*
X98891966Y-23347219D01*
X98932550Y-23291358D01*
X98987878Y-23248694D01*
X99057491Y-23242713D01*
X99119287Y-23275318D01*
X99150573Y-23325238D01*
X99165183Y-23369327D01*
X99165185Y-23369331D01*
X99165186Y-23369334D01*
X99257288Y-23518656D01*
X99381344Y-23642712D01*
X99530666Y-23734814D01*
X99697203Y-23789999D01*
X99799991Y-23800500D01*
X101000008Y-23800499D01*
X101102797Y-23789999D01*
X101269334Y-23734814D01*
X101418656Y-23642712D01*
X101542712Y-23518656D01*
X101634814Y-23369334D01*
X101689999Y-23202797D01*
X101700500Y-23100009D01*
X101700499Y-22397648D01*
X113149500Y-22397648D01*
X113149500Y-22602351D01*
X113181522Y-22804534D01*
X113244781Y-22999223D01*
X113337715Y-23181613D01*
X113458028Y-23347213D01*
X113602786Y-23491971D01*
X113757749Y-23604556D01*
X113768390Y-23612287D01*
X113829143Y-23643242D01*
X113950776Y-23705218D01*
X113950778Y-23705218D01*
X113950781Y-23705220D01*
X114041856Y-23734812D01*
X114145465Y-23768477D01*
X114246557Y-23784488D01*
X114347648Y-23800500D01*
X114347649Y-23800500D01*
X114552351Y-23800500D01*
X114552352Y-23800500D01*
X114754534Y-23768477D01*
X114949219Y-23705220D01*
X115131610Y-23612287D01*
X115260482Y-23518657D01*
X115297213Y-23491971D01*
X115297215Y-23491968D01*
X115297219Y-23491966D01*
X115441966Y-23347219D01*
X115441968Y-23347215D01*
X115441971Y-23347213D01*
X115517893Y-23242713D01*
X115562287Y-23181610D01*
X115589515Y-23128171D01*
X115637490Y-23077376D01*
X115705311Y-23060581D01*
X115771446Y-23083118D01*
X115810485Y-23128172D01*
X115837715Y-23181613D01*
X115958028Y-23347213D01*
X116102786Y-23491971D01*
X116257749Y-23604556D01*
X116268390Y-23612287D01*
X116329143Y-23643242D01*
X116450776Y-23705218D01*
X116450778Y-23705218D01*
X116450781Y-23705220D01*
X116541856Y-23734812D01*
X116645465Y-23768477D01*
X116746557Y-23784488D01*
X116847648Y-23800500D01*
X116847649Y-23800500D01*
X117052351Y-23800500D01*
X117052352Y-23800500D01*
X117254534Y-23768477D01*
X117449219Y-23705220D01*
X117631610Y-23612287D01*
X117760482Y-23518657D01*
X117797213Y-23491971D01*
X117797215Y-23491968D01*
X117797219Y-23491966D01*
X117941966Y-23347219D01*
X117982550Y-23291358D01*
X118037878Y-23248694D01*
X118107491Y-23242713D01*
X118169287Y-23275318D01*
X118200573Y-23325238D01*
X118215183Y-23369327D01*
X118215185Y-23369331D01*
X118215186Y-23369334D01*
X118307288Y-23518656D01*
X118431344Y-23642712D01*
X118580666Y-23734814D01*
X118747203Y-23789999D01*
X118849991Y-23800500D01*
X120050008Y-23800499D01*
X120152797Y-23789999D01*
X120319334Y-23734814D01*
X120468656Y-23642712D01*
X120592712Y-23518656D01*
X120684814Y-23369334D01*
X120739999Y-23202797D01*
X120750500Y-23100009D01*
X120750499Y-22397648D01*
X132199500Y-22397648D01*
X132199500Y-22602351D01*
X132231522Y-22804534D01*
X132294781Y-22999223D01*
X132387715Y-23181613D01*
X132508028Y-23347213D01*
X132652786Y-23491971D01*
X132807749Y-23604556D01*
X132818390Y-23612287D01*
X132879143Y-23643242D01*
X133000776Y-23705218D01*
X133000778Y-23705218D01*
X133000781Y-23705220D01*
X133091856Y-23734812D01*
X133195465Y-23768477D01*
X133296557Y-23784488D01*
X133397648Y-23800500D01*
X133397649Y-23800500D01*
X133602351Y-23800500D01*
X133602352Y-23800500D01*
X133804534Y-23768477D01*
X133999219Y-23705220D01*
X134181610Y-23612287D01*
X134310482Y-23518657D01*
X134347213Y-23491971D01*
X134347215Y-23491968D01*
X134347219Y-23491966D01*
X134491966Y-23347219D01*
X134491968Y-23347215D01*
X134491971Y-23347213D01*
X134567893Y-23242713D01*
X134612287Y-23181610D01*
X134639515Y-23128171D01*
X134687490Y-23077376D01*
X134755311Y-23060581D01*
X134821446Y-23083118D01*
X134860485Y-23128172D01*
X134887715Y-23181613D01*
X135008028Y-23347213D01*
X135152786Y-23491971D01*
X135307749Y-23604556D01*
X135318390Y-23612287D01*
X135379143Y-23643242D01*
X135500776Y-23705218D01*
X135500778Y-23705218D01*
X135500781Y-23705220D01*
X135591856Y-23734812D01*
X135695465Y-23768477D01*
X135796557Y-23784488D01*
X135897648Y-23800500D01*
X135897649Y-23800500D01*
X136102351Y-23800500D01*
X136102352Y-23800500D01*
X136304534Y-23768477D01*
X136499219Y-23705220D01*
X136681610Y-23612287D01*
X136810482Y-23518657D01*
X136847213Y-23491971D01*
X136847215Y-23491968D01*
X136847219Y-23491966D01*
X136991966Y-23347219D01*
X137032550Y-23291358D01*
X137087878Y-23248694D01*
X137157491Y-23242713D01*
X137219287Y-23275318D01*
X137250573Y-23325238D01*
X137265183Y-23369327D01*
X137265185Y-23369331D01*
X137265186Y-23369334D01*
X137357288Y-23518656D01*
X137481344Y-23642712D01*
X137630666Y-23734814D01*
X137797203Y-23789999D01*
X137899991Y-23800500D01*
X139100008Y-23800499D01*
X139202797Y-23789999D01*
X139369334Y-23734814D01*
X139518656Y-23642712D01*
X139642712Y-23518656D01*
X139734814Y-23369334D01*
X139789999Y-23202797D01*
X139800500Y-23100009D01*
X139800499Y-21899992D01*
X139789999Y-21797203D01*
X139734814Y-21630666D01*
X139642712Y-21481344D01*
X139518656Y-21357288D01*
X139369334Y-21265186D01*
X139202797Y-21210001D01*
X139202795Y-21210000D01*
X139100010Y-21199500D01*
X137899998Y-21199500D01*
X137899981Y-21199501D01*
X137797203Y-21210000D01*
X137797200Y-21210001D01*
X137630668Y-21265185D01*
X137630663Y-21265187D01*
X137481342Y-21357289D01*
X137357289Y-21481342D01*
X137265187Y-21630663D01*
X137265186Y-21630666D01*
X137257858Y-21652782D01*
X137250575Y-21674760D01*
X137210802Y-21732205D01*
X137146286Y-21759027D01*
X137077510Y-21746712D01*
X137032551Y-21708640D01*
X136991971Y-21652787D01*
X136991967Y-21652782D01*
X136847213Y-21508028D01*
X136681613Y-21387715D01*
X136681612Y-21387714D01*
X136681610Y-21387713D01*
X136621898Y-21357288D01*
X136499223Y-21294781D01*
X136304534Y-21231522D01*
X136129995Y-21203878D01*
X136102352Y-21199500D01*
X135897648Y-21199500D01*
X135873329Y-21203351D01*
X135695465Y-21231522D01*
X135500776Y-21294781D01*
X135318386Y-21387715D01*
X135152786Y-21508028D01*
X135008028Y-21652786D01*
X134887713Y-21818388D01*
X134860484Y-21871828D01*
X134812510Y-21922623D01*
X134744688Y-21939418D01*
X134678554Y-21916880D01*
X134639516Y-21871828D01*
X134612286Y-21818388D01*
X134491971Y-21652786D01*
X134347213Y-21508028D01*
X134181613Y-21387715D01*
X134181612Y-21387714D01*
X134181610Y-21387713D01*
X134121898Y-21357288D01*
X133999223Y-21294781D01*
X133804534Y-21231522D01*
X133629995Y-21203878D01*
X133602352Y-21199500D01*
X133397648Y-21199500D01*
X133373329Y-21203351D01*
X133195465Y-21231522D01*
X133000776Y-21294781D01*
X132818386Y-21387715D01*
X132652786Y-21508028D01*
X132508028Y-21652786D01*
X132387715Y-21818386D01*
X132294781Y-22000776D01*
X132231522Y-22195465D01*
X132199500Y-22397648D01*
X120750499Y-22397648D01*
X120750499Y-21899992D01*
X120739999Y-21797203D01*
X120684814Y-21630666D01*
X120592712Y-21481344D01*
X120468656Y-21357288D01*
X120319334Y-21265186D01*
X120152797Y-21210001D01*
X120152795Y-21210000D01*
X120050010Y-21199500D01*
X118849998Y-21199500D01*
X118849981Y-21199501D01*
X118747203Y-21210000D01*
X118747200Y-21210001D01*
X118580668Y-21265185D01*
X118580663Y-21265187D01*
X118431342Y-21357289D01*
X118307289Y-21481342D01*
X118215187Y-21630663D01*
X118215186Y-21630666D01*
X118207858Y-21652782D01*
X118200575Y-21674760D01*
X118160802Y-21732205D01*
X118096286Y-21759027D01*
X118027510Y-21746712D01*
X117982551Y-21708640D01*
X117941971Y-21652787D01*
X117941967Y-21652782D01*
X117797213Y-21508028D01*
X117631613Y-21387715D01*
X117631612Y-21387714D01*
X117631610Y-21387713D01*
X117571898Y-21357288D01*
X117449223Y-21294781D01*
X117254534Y-21231522D01*
X117079995Y-21203878D01*
X117052352Y-21199500D01*
X116847648Y-21199500D01*
X116823329Y-21203351D01*
X116645465Y-21231522D01*
X116450776Y-21294781D01*
X116268386Y-21387715D01*
X116102786Y-21508028D01*
X115958028Y-21652786D01*
X115837713Y-21818388D01*
X115810484Y-21871828D01*
X115762510Y-21922623D01*
X115694688Y-21939418D01*
X115628554Y-21916880D01*
X115589516Y-21871828D01*
X115562286Y-21818388D01*
X115441971Y-21652786D01*
X115297213Y-21508028D01*
X115131613Y-21387715D01*
X115131612Y-21387714D01*
X115131610Y-21387713D01*
X115071898Y-21357288D01*
X114949223Y-21294781D01*
X114754534Y-21231522D01*
X114579995Y-21203878D01*
X114552352Y-21199500D01*
X114347648Y-21199500D01*
X114323329Y-21203351D01*
X114145465Y-21231522D01*
X113950776Y-21294781D01*
X113768386Y-21387715D01*
X113602786Y-21508028D01*
X113458028Y-21652786D01*
X113337715Y-21818386D01*
X113244781Y-22000776D01*
X113181522Y-22195465D01*
X113149500Y-22397648D01*
X101700499Y-22397648D01*
X101700499Y-21899992D01*
X101689999Y-21797203D01*
X101634814Y-21630666D01*
X101542712Y-21481344D01*
X101418656Y-21357288D01*
X101269334Y-21265186D01*
X101102797Y-21210001D01*
X101102795Y-21210000D01*
X101000010Y-21199500D01*
X99799998Y-21199500D01*
X99799981Y-21199501D01*
X99697203Y-21210000D01*
X99697200Y-21210001D01*
X99530668Y-21265185D01*
X99530663Y-21265187D01*
X99381342Y-21357289D01*
X99257289Y-21481342D01*
X99165187Y-21630663D01*
X99165186Y-21630666D01*
X99157858Y-21652782D01*
X99150575Y-21674760D01*
X99110802Y-21732205D01*
X99046286Y-21759027D01*
X98977510Y-21746712D01*
X98932551Y-21708640D01*
X98891971Y-21652787D01*
X98891967Y-21652782D01*
X98747213Y-21508028D01*
X98581613Y-21387715D01*
X98581612Y-21387714D01*
X98581610Y-21387713D01*
X98521898Y-21357288D01*
X98399223Y-21294781D01*
X98204534Y-21231522D01*
X98029995Y-21203878D01*
X98002352Y-21199500D01*
X97797648Y-21199500D01*
X97773329Y-21203351D01*
X97595465Y-21231522D01*
X97400776Y-21294781D01*
X97218386Y-21387715D01*
X97052786Y-21508028D01*
X96908028Y-21652786D01*
X96787713Y-21818388D01*
X96760484Y-21871828D01*
X96712510Y-21922623D01*
X96644688Y-21939418D01*
X96578554Y-21916880D01*
X96539516Y-21871828D01*
X96512286Y-21818388D01*
X96391971Y-21652786D01*
X96247213Y-21508028D01*
X96081613Y-21387715D01*
X96081612Y-21387714D01*
X96081610Y-21387713D01*
X96021898Y-21357288D01*
X95899223Y-21294781D01*
X95704534Y-21231522D01*
X95529995Y-21203878D01*
X95502352Y-21199500D01*
X95297648Y-21199500D01*
X95273329Y-21203351D01*
X95095465Y-21231522D01*
X94900776Y-21294781D01*
X94718386Y-21387715D01*
X94552786Y-21508028D01*
X94408028Y-21652786D01*
X94287715Y-21818386D01*
X94194781Y-22000776D01*
X94131522Y-22195465D01*
X94099500Y-22397648D01*
X82650499Y-22397648D01*
X82650499Y-21899992D01*
X82639999Y-21797203D01*
X82584814Y-21630666D01*
X82492712Y-21481344D01*
X82368656Y-21357288D01*
X82219334Y-21265186D01*
X82052797Y-21210001D01*
X82052795Y-21210000D01*
X81950010Y-21199500D01*
X80749998Y-21199500D01*
X80749981Y-21199501D01*
X80647203Y-21210000D01*
X80647200Y-21210001D01*
X80480668Y-21265185D01*
X80480663Y-21265187D01*
X80331342Y-21357289D01*
X80207289Y-21481342D01*
X80115187Y-21630663D01*
X80115186Y-21630666D01*
X80107858Y-21652782D01*
X80100575Y-21674760D01*
X80060802Y-21732205D01*
X79996286Y-21759027D01*
X79927510Y-21746712D01*
X79882551Y-21708640D01*
X79841971Y-21652787D01*
X79841967Y-21652782D01*
X79697213Y-21508028D01*
X79531613Y-21387715D01*
X79531612Y-21387714D01*
X79531610Y-21387713D01*
X79471898Y-21357288D01*
X79349223Y-21294781D01*
X79154534Y-21231522D01*
X78979995Y-21203878D01*
X78952352Y-21199500D01*
X78747648Y-21199500D01*
X78723329Y-21203351D01*
X78545465Y-21231522D01*
X78350776Y-21294781D01*
X78168386Y-21387715D01*
X78002786Y-21508028D01*
X77858028Y-21652786D01*
X77737713Y-21818388D01*
X77710484Y-21871828D01*
X77662510Y-21922623D01*
X77594688Y-21939418D01*
X77528554Y-21916880D01*
X77489516Y-21871828D01*
X77462286Y-21818388D01*
X77341971Y-21652786D01*
X77197213Y-21508028D01*
X77031613Y-21387715D01*
X77031612Y-21387714D01*
X77031610Y-21387713D01*
X76971898Y-21357288D01*
X76849223Y-21294781D01*
X76654534Y-21231522D01*
X76479995Y-21203878D01*
X76452352Y-21199500D01*
X76247648Y-21199500D01*
X76223329Y-21203351D01*
X76045465Y-21231522D01*
X75850776Y-21294781D01*
X75668386Y-21387715D01*
X75502786Y-21508028D01*
X75358028Y-21652786D01*
X75237715Y-21818386D01*
X75144781Y-22000776D01*
X75081522Y-22195465D01*
X75049500Y-22397648D01*
X63600499Y-22397648D01*
X63600499Y-21899992D01*
X63589999Y-21797203D01*
X63534814Y-21630666D01*
X63442712Y-21481344D01*
X63318656Y-21357288D01*
X63169334Y-21265186D01*
X63002797Y-21210001D01*
X63002795Y-21210000D01*
X62900010Y-21199500D01*
X61699998Y-21199500D01*
X61699981Y-21199501D01*
X61597203Y-21210000D01*
X61597200Y-21210001D01*
X61430668Y-21265185D01*
X61430663Y-21265187D01*
X61281342Y-21357289D01*
X61157289Y-21481342D01*
X61065187Y-21630663D01*
X61065186Y-21630666D01*
X61057858Y-21652782D01*
X61050575Y-21674760D01*
X61010802Y-21732205D01*
X60946286Y-21759027D01*
X60877510Y-21746712D01*
X60832551Y-21708640D01*
X60791971Y-21652787D01*
X60791967Y-21652782D01*
X60647213Y-21508028D01*
X60481613Y-21387715D01*
X60481612Y-21387714D01*
X60481610Y-21387713D01*
X60421898Y-21357288D01*
X60299223Y-21294781D01*
X60104534Y-21231522D01*
X59929995Y-21203878D01*
X59902352Y-21199500D01*
X59697648Y-21199500D01*
X59673329Y-21203351D01*
X59495465Y-21231522D01*
X59300776Y-21294781D01*
X59118386Y-21387715D01*
X58952786Y-21508028D01*
X58808028Y-21652786D01*
X58687713Y-21818388D01*
X58660484Y-21871828D01*
X58612510Y-21922623D01*
X58544688Y-21939418D01*
X58478554Y-21916880D01*
X58439516Y-21871828D01*
X58412286Y-21818388D01*
X58291971Y-21652786D01*
X58147218Y-21508033D01*
X58147213Y-21508029D01*
X58140443Y-21503110D01*
X58097779Y-21447780D01*
X58091714Y-21426985D01*
X58069738Y-21316510D01*
X58069737Y-21316503D01*
X58060739Y-21294780D01*
X58009397Y-21170827D01*
X58009390Y-21170814D01*
X57921790Y-21039712D01*
X57921789Y-21039711D01*
X57810289Y-20928211D01*
X57260292Y-20378213D01*
X57260288Y-20378210D01*
X57129185Y-20290609D01*
X57129172Y-20290602D01*
X57028881Y-20249061D01*
X56974477Y-20205220D01*
X56952412Y-20138926D01*
X56969691Y-20071227D01*
X57020828Y-20023616D01*
X57076333Y-20010500D01*
X145370500Y-20010500D01*
X145437539Y-20030185D01*
X145483294Y-20082989D01*
X145494500Y-20134500D01*
X145494500Y-40870500D01*
X145474815Y-40937539D01*
X145422011Y-40983294D01*
X145370500Y-40994500D01*
X39379500Y-40994500D01*
X39312461Y-40974815D01*
X39266706Y-40922011D01*
X39255500Y-40870500D01*
X39255500Y-20134500D01*
X39275185Y-20067461D01*
X39327989Y-20021706D01*
X39379500Y-20010500D01*
X41923666Y-20010500D01*
X41990705Y-20030185D01*
G37*
%TD.AperFunction*%
%TA.AperFunction,Conductor*%
G36*
X44363181Y-25759628D02*
G01*
X44396666Y-25820951D01*
X44399500Y-25847300D01*
X44399500Y-25857865D01*
X44399501Y-25857876D01*
X44405908Y-25917483D01*
X44456202Y-26052328D01*
X44456206Y-26052335D01*
X44542452Y-26167544D01*
X44542455Y-26167547D01*
X44657664Y-26253793D01*
X44657671Y-26253797D01*
X44789082Y-26302810D01*
X44845016Y-26344681D01*
X44869433Y-26410145D01*
X44854582Y-26478418D01*
X44833431Y-26506673D01*
X44719889Y-26620215D01*
X44594949Y-26792182D01*
X44590484Y-26800946D01*
X44542509Y-26851742D01*
X44474688Y-26868536D01*
X44408553Y-26845998D01*
X44369516Y-26800946D01*
X44365050Y-26792182D01*
X44240109Y-26620213D01*
X44089786Y-26469890D01*
X43917817Y-26344949D01*
X43908504Y-26340204D01*
X43857707Y-26292230D01*
X43840912Y-26224409D01*
X43863449Y-26158274D01*
X43908507Y-26119232D01*
X43917555Y-26114622D01*
X43971716Y-26075270D01*
X43971717Y-26075270D01*
X43339408Y-25442962D01*
X43402993Y-25425925D01*
X43517007Y-25360099D01*
X43610099Y-25267007D01*
X43675925Y-25152993D01*
X43692962Y-25089408D01*
X44363181Y-25759628D01*
G37*
%TD.AperFunction*%
%TA.AperFunction,Conductor*%
G36*
X42744075Y-25152993D02*
G01*
X42809901Y-25267007D01*
X42902993Y-25360099D01*
X43017007Y-25425925D01*
X43080590Y-25442962D01*
X42448282Y-26075269D01*
X42448282Y-26075270D01*
X42502452Y-26114626D01*
X42502451Y-26114626D01*
X42511495Y-26119234D01*
X42562292Y-26167208D01*
X42579087Y-26235029D01*
X42556550Y-26301164D01*
X42511499Y-26340202D01*
X42502182Y-26344949D01*
X42330213Y-26469890D01*
X42330209Y-26469894D01*
X42303772Y-26496332D01*
X42295826Y-26500670D01*
X42290401Y-26507918D01*
X42265641Y-26517152D01*
X42242449Y-26529817D01*
X42233419Y-26529171D01*
X42224937Y-26532335D01*
X42199116Y-26526718D01*
X42172757Y-26524833D01*
X42163703Y-26519014D01*
X42156664Y-26517483D01*
X42128410Y-26496332D01*
X42086819Y-26454741D01*
X42053334Y-26393418D01*
X42050500Y-26367060D01*
X42050500Y-25817307D01*
X42070185Y-25750268D01*
X42086819Y-25729626D01*
X42727037Y-25089408D01*
X42744075Y-25152993D01*
G37*
%TD.AperFunction*%
%TD*%
%TA.AperFunction,Conductor*%
%TO.N,+5V*%
G36*
X38693039Y-20030185D02*
G01*
X38738794Y-20082989D01*
X38750000Y-20134500D01*
X38750000Y-41500000D01*
X146000000Y-41500000D01*
X146000000Y-36317690D01*
X153250000Y-36317690D01*
X153250000Y-36867677D01*
X154316988Y-36867677D01*
X154284075Y-36924684D01*
X154250000Y-37051851D01*
X154250000Y-37183503D01*
X154284075Y-37310670D01*
X154316988Y-37367677D01*
X153250001Y-37367677D01*
X153250001Y-37917663D01*
X153260494Y-38020374D01*
X153315641Y-38186796D01*
X153315643Y-38186801D01*
X153407684Y-38336022D01*
X153531654Y-38459992D01*
X153680875Y-38552033D01*
X153680880Y-38552035D01*
X153847302Y-38607182D01*
X153847309Y-38607183D01*
X153950019Y-38617676D01*
X154499999Y-38617676D01*
X154500000Y-38617675D01*
X154500000Y-37550689D01*
X154557007Y-37583602D01*
X154684174Y-37617677D01*
X154815826Y-37617677D01*
X154942993Y-37583602D01*
X155000000Y-37550689D01*
X155000000Y-38617676D01*
X155549972Y-38617676D01*
X155549986Y-38617675D01*
X155652697Y-38607182D01*
X155819119Y-38552035D01*
X155819124Y-38552033D01*
X155968345Y-38459992D01*
X156092315Y-38336022D01*
X156184356Y-38186801D01*
X156184358Y-38186796D01*
X156239505Y-38020374D01*
X156239506Y-38020367D01*
X156249999Y-37917663D01*
X156250000Y-37917650D01*
X156250000Y-37367677D01*
X155183012Y-37367677D01*
X155215925Y-37310670D01*
X155250000Y-37183503D01*
X155250000Y-37051851D01*
X155215925Y-36924684D01*
X155183012Y-36867677D01*
X156249999Y-36867677D01*
X156249999Y-36317705D01*
X156249998Y-36317690D01*
X156239505Y-36214979D01*
X156184358Y-36048557D01*
X156184356Y-36048552D01*
X156092315Y-35899331D01*
X155968345Y-35775361D01*
X155819124Y-35683320D01*
X155819119Y-35683318D01*
X155652697Y-35628171D01*
X155652690Y-35628170D01*
X155549986Y-35617677D01*
X155000000Y-35617677D01*
X155000000Y-36684665D01*
X154942993Y-36651752D01*
X154815826Y-36617677D01*
X154684174Y-36617677D01*
X154557007Y-36651752D01*
X154500000Y-36684665D01*
X154500000Y-35617677D01*
X153950028Y-35617677D01*
X153950012Y-35617678D01*
X153847302Y-35628171D01*
X153680880Y-35683318D01*
X153680875Y-35683320D01*
X153531654Y-35775361D01*
X153407684Y-35899331D01*
X153315643Y-36048552D01*
X153315641Y-36048557D01*
X153260494Y-36214979D01*
X153260493Y-36214986D01*
X153250000Y-36317690D01*
X146000000Y-36317690D01*
X146000000Y-31999579D01*
X153249500Y-31999579D01*
X153249500Y-32235774D01*
X153286446Y-32469045D01*
X153359433Y-32693673D01*
X153462649Y-32896243D01*
X153466657Y-32904110D01*
X153605483Y-33095187D01*
X153772490Y-33262194D01*
X153963567Y-33401020D01*
X153996649Y-33417876D01*
X154174003Y-33508243D01*
X154174005Y-33508243D01*
X154174008Y-33508245D01*
X154228917Y-33526086D01*
X154398631Y-33581230D01*
X154631903Y-33618177D01*
X154631908Y-33618177D01*
X154868097Y-33618177D01*
X155101368Y-33581230D01*
X155325992Y-33508245D01*
X155536433Y-33401020D01*
X155727510Y-33262194D01*
X155894517Y-33095187D01*
X156033343Y-32904110D01*
X156140568Y-32693669D01*
X156213553Y-32469045D01*
X156216823Y-32448398D01*
X156250500Y-32235774D01*
X156250500Y-31999579D01*
X156213553Y-31766308D01*
X156166702Y-31622116D01*
X156140568Y-31541685D01*
X156140566Y-31541682D01*
X156140566Y-31541680D01*
X156033342Y-31331243D01*
X156019691Y-31312454D01*
X155894517Y-31140167D01*
X155727510Y-30973160D01*
X155536433Y-30834334D01*
X155325996Y-30727110D01*
X155101368Y-30654123D01*
X154868097Y-30617177D01*
X154868092Y-30617177D01*
X154631908Y-30617177D01*
X154631903Y-30617177D01*
X154398631Y-30654123D01*
X154174003Y-30727110D01*
X153963566Y-30834334D01*
X153900351Y-30880263D01*
X153772490Y-30973160D01*
X153772488Y-30973162D01*
X153772487Y-30973162D01*
X153605485Y-31140164D01*
X153605485Y-31140165D01*
X153605483Y-31140167D01*
X153565607Y-31195051D01*
X153466657Y-31331243D01*
X153359433Y-31541680D01*
X153286446Y-31766308D01*
X153249500Y-31999579D01*
X146000000Y-31999579D01*
X146000000Y-24884603D01*
X153439500Y-24884603D01*
X153439500Y-25115396D01*
X153460795Y-25277139D01*
X153469623Y-25344193D01*
X153480995Y-25386632D01*
X153529353Y-25567110D01*
X153617665Y-25780313D01*
X153617669Y-25780323D01*
X153733056Y-25980179D01*
X153873544Y-26163267D01*
X153873550Y-26163274D01*
X154036725Y-26326449D01*
X154036732Y-26326455D01*
X154219820Y-26466943D01*
X154419676Y-26582330D01*
X154419677Y-26582330D01*
X154419680Y-26582332D01*
X154511121Y-26620208D01*
X154632889Y-26670646D01*
X154632890Y-26670646D01*
X154632892Y-26670647D01*
X154855807Y-26730377D01*
X155084611Y-26760500D01*
X155084618Y-26760500D01*
X155315382Y-26760500D01*
X155315389Y-26760500D01*
X155544193Y-26730377D01*
X155767108Y-26670647D01*
X155980320Y-26582332D01*
X156180180Y-26466943D01*
X156363269Y-26326454D01*
X156526454Y-26163269D01*
X156666943Y-25980180D01*
X156782332Y-25780320D01*
X156870647Y-25567108D01*
X156930377Y-25344193D01*
X156960500Y-25115389D01*
X156960500Y-24884611D01*
X156930377Y-24655807D01*
X156870647Y-24432892D01*
X156782332Y-24219680D01*
X156691369Y-24062128D01*
X156666943Y-24019820D01*
X156526455Y-23836732D01*
X156526449Y-23836725D01*
X156363274Y-23673550D01*
X156363267Y-23673544D01*
X156180179Y-23533056D01*
X155980323Y-23417669D01*
X155980313Y-23417665D01*
X155767110Y-23329353D01*
X155634885Y-23293924D01*
X155544193Y-23269623D01*
X155493347Y-23262929D01*
X155315396Y-23239500D01*
X155315389Y-23239500D01*
X155084611Y-23239500D01*
X155084603Y-23239500D01*
X154881229Y-23266276D01*
X154855807Y-23269623D01*
X154802133Y-23284005D01*
X154632889Y-23329353D01*
X154419686Y-23417665D01*
X154419676Y-23417669D01*
X154219820Y-23533056D01*
X154036732Y-23673544D01*
X154036725Y-23673550D01*
X153873550Y-23836725D01*
X153873544Y-23836732D01*
X153733056Y-24019820D01*
X153617669Y-24219676D01*
X153617665Y-24219686D01*
X153529353Y-24432889D01*
X153469623Y-24655808D01*
X153439500Y-24884603D01*
X146000000Y-24884603D01*
X146000000Y-20134500D01*
X146019685Y-20067461D01*
X146072489Y-20021706D01*
X146124000Y-20010500D01*
X160065500Y-20010500D01*
X160132539Y-20030185D01*
X160178294Y-20082989D01*
X160189500Y-20134500D01*
X160189500Y-68915500D01*
X160169815Y-68982539D01*
X160117011Y-69028294D01*
X160065500Y-69039500D01*
X20134500Y-69039500D01*
X20067461Y-69019815D01*
X20021706Y-68967011D01*
X20010500Y-68915500D01*
X20010500Y-63934603D01*
X23239500Y-63934603D01*
X23239500Y-64165396D01*
X23262929Y-64343347D01*
X23269623Y-64394193D01*
X23299488Y-64505650D01*
X23329353Y-64617110D01*
X23417665Y-64830313D01*
X23417669Y-64830323D01*
X23533056Y-65030179D01*
X23673544Y-65213267D01*
X23673550Y-65213274D01*
X23836725Y-65376449D01*
X23836732Y-65376455D01*
X24019820Y-65516943D01*
X24219676Y-65632330D01*
X24219677Y-65632330D01*
X24219680Y-65632332D01*
X24361821Y-65691208D01*
X24432889Y-65720646D01*
X24432890Y-65720646D01*
X24432892Y-65720647D01*
X24655807Y-65780377D01*
X24884611Y-65810500D01*
X24884618Y-65810500D01*
X25115382Y-65810500D01*
X25115389Y-65810500D01*
X25344193Y-65780377D01*
X25567108Y-65720647D01*
X25780320Y-65632332D01*
X25980180Y-65516943D01*
X26163269Y-65376454D01*
X26326454Y-65213269D01*
X26466943Y-65030180D01*
X26582332Y-64830320D01*
X26670647Y-64617108D01*
X26730377Y-64394193D01*
X26760500Y-64165389D01*
X26760500Y-63934611D01*
X26730377Y-63705807D01*
X26670647Y-63482892D01*
X26582332Y-63269680D01*
X26466943Y-63069820D01*
X26326454Y-62886731D01*
X26326449Y-62886725D01*
X26163274Y-62723550D01*
X26163267Y-62723544D01*
X25980179Y-62583056D01*
X25780323Y-62467669D01*
X25780313Y-62467665D01*
X25567110Y-62379353D01*
X25434885Y-62343924D01*
X25344193Y-62319623D01*
X25293347Y-62312929D01*
X25115396Y-62289500D01*
X25115389Y-62289500D01*
X24884611Y-62289500D01*
X24884603Y-62289500D01*
X24681229Y-62316276D01*
X24655807Y-62319623D01*
X24600078Y-62334555D01*
X24432889Y-62379353D01*
X24219686Y-62467665D01*
X24219676Y-62467669D01*
X24019820Y-62583056D01*
X23836732Y-62723544D01*
X23836725Y-62723550D01*
X23673550Y-62886725D01*
X23673544Y-62886732D01*
X23533056Y-63069820D01*
X23417669Y-63269676D01*
X23417665Y-63269686D01*
X23329353Y-63482889D01*
X23269623Y-63705808D01*
X23239500Y-63934603D01*
X20010500Y-63934603D01*
X20010500Y-62015650D01*
X39039500Y-62015650D01*
X39039500Y-62015651D01*
X39039500Y-65024349D01*
X39045651Y-65030500D01*
X42454349Y-65030500D01*
X42460500Y-65024349D01*
X42460500Y-62015651D01*
X42460499Y-62015650D01*
X58089500Y-62015650D01*
X58089500Y-62015651D01*
X58089500Y-65024349D01*
X58095651Y-65030500D01*
X61504349Y-65030500D01*
X61510500Y-65024349D01*
X61510500Y-62015651D01*
X61510499Y-62015650D01*
X77139500Y-62015650D01*
X77139500Y-62015651D01*
X77139500Y-65024349D01*
X77145651Y-65030500D01*
X80554349Y-65030500D01*
X80560500Y-65024349D01*
X80560500Y-62015651D01*
X80560499Y-62015650D01*
X96189500Y-62015650D01*
X96189500Y-62015651D01*
X96189500Y-65024349D01*
X96195651Y-65030500D01*
X99604349Y-65030500D01*
X99610500Y-65024349D01*
X99610500Y-62015651D01*
X99610499Y-62015650D01*
X115239500Y-62015650D01*
X115239500Y-62015651D01*
X115239500Y-65024349D01*
X115245651Y-65030500D01*
X118654349Y-65030500D01*
X118660500Y-65024349D01*
X118660500Y-62015651D01*
X118660499Y-62015650D01*
X134289500Y-62015650D01*
X134289500Y-62015651D01*
X134289500Y-65024349D01*
X134295651Y-65030500D01*
X137704349Y-65030500D01*
X137710500Y-65024349D01*
X137710500Y-63934603D01*
X153439500Y-63934603D01*
X153439500Y-64165396D01*
X153462929Y-64343347D01*
X153469623Y-64394193D01*
X153499488Y-64505650D01*
X153529353Y-64617110D01*
X153617665Y-64830313D01*
X153617669Y-64830323D01*
X153733056Y-65030179D01*
X153873544Y-65213267D01*
X153873550Y-65213274D01*
X154036725Y-65376449D01*
X154036732Y-65376455D01*
X154219820Y-65516943D01*
X154419676Y-65632330D01*
X154419677Y-65632330D01*
X154419680Y-65632332D01*
X154561821Y-65691208D01*
X154632889Y-65720646D01*
X154632890Y-65720646D01*
X154632892Y-65720647D01*
X154855807Y-65780377D01*
X155084611Y-65810500D01*
X155084618Y-65810500D01*
X155315382Y-65810500D01*
X155315389Y-65810500D01*
X155544193Y-65780377D01*
X155767108Y-65720647D01*
X155980320Y-65632332D01*
X156180180Y-65516943D01*
X156363269Y-65376454D01*
X156526454Y-65213269D01*
X156666943Y-65030180D01*
X156782332Y-64830320D01*
X156870647Y-64617108D01*
X156930377Y-64394193D01*
X156960500Y-64165389D01*
X156960500Y-63934611D01*
X156930377Y-63705807D01*
X156870647Y-63482892D01*
X156782332Y-63269680D01*
X156666943Y-63069820D01*
X156526454Y-62886731D01*
X156526449Y-62886725D01*
X156363274Y-62723550D01*
X156363267Y-62723544D01*
X156180179Y-62583056D01*
X155980323Y-62467669D01*
X155980313Y-62467665D01*
X155767110Y-62379353D01*
X155634885Y-62343924D01*
X155544193Y-62319623D01*
X155493347Y-62312929D01*
X155315396Y-62289500D01*
X155315389Y-62289500D01*
X155084611Y-62289500D01*
X155084603Y-62289500D01*
X154881229Y-62316276D01*
X154855807Y-62319623D01*
X154800078Y-62334555D01*
X154632889Y-62379353D01*
X154419686Y-62467665D01*
X154419676Y-62467669D01*
X154219820Y-62583056D01*
X154036732Y-62723544D01*
X154036725Y-62723550D01*
X153873550Y-62886725D01*
X153873544Y-62886732D01*
X153733056Y-63069820D01*
X153617669Y-63269676D01*
X153617665Y-63269686D01*
X153529353Y-63482889D01*
X153469623Y-63705808D01*
X153439500Y-63934603D01*
X137710500Y-63934603D01*
X137710500Y-62015651D01*
X137704349Y-62009500D01*
X134304349Y-62009500D01*
X134295651Y-62009500D01*
X134295650Y-62009500D01*
X134289500Y-62015650D01*
X118660499Y-62015650D01*
X118654349Y-62009500D01*
X115254349Y-62009500D01*
X115245651Y-62009500D01*
X115245650Y-62009500D01*
X115239500Y-62015650D01*
X99610499Y-62015650D01*
X99604349Y-62009500D01*
X96204349Y-62009500D01*
X96195651Y-62009500D01*
X96195650Y-62009500D01*
X96189500Y-62015650D01*
X80560499Y-62015650D01*
X80554349Y-62009500D01*
X77154349Y-62009500D01*
X77145651Y-62009500D01*
X77145650Y-62009500D01*
X77139500Y-62015650D01*
X61510499Y-62015650D01*
X61504349Y-62009500D01*
X58104349Y-62009500D01*
X58095651Y-62009500D01*
X58095650Y-62009500D01*
X58089500Y-62015650D01*
X42460499Y-62015650D01*
X42454349Y-62009500D01*
X39054349Y-62009500D01*
X39045651Y-62009500D01*
X39045650Y-62009500D01*
X39039500Y-62015650D01*
X20010500Y-62015650D01*
X20010500Y-51826332D01*
X20030185Y-51759293D01*
X20082989Y-51713538D01*
X20152147Y-51703594D01*
X20215703Y-51732619D01*
X20249061Y-51778880D01*
X20290602Y-51879172D01*
X20290609Y-51879185D01*
X20378210Y-52010288D01*
X20378213Y-52010292D01*
X21878211Y-53510289D01*
X21989711Y-53621789D01*
X22120821Y-53709394D01*
X22223833Y-53752062D01*
X22266502Y-53769737D01*
X22334748Y-53783312D01*
X22421152Y-53800499D01*
X22421155Y-53800500D01*
X22421157Y-53800500D01*
X22421158Y-53800500D01*
X36268368Y-53800500D01*
X36335407Y-53820185D01*
X36381162Y-53872989D01*
X36391106Y-53942147D01*
X36362081Y-54005703D01*
X36324663Y-54034985D01*
X36126151Y-54136132D01*
X35922350Y-54284201D01*
X35922345Y-54284205D01*
X35744205Y-54462345D01*
X35744201Y-54462350D01*
X35596132Y-54666151D01*
X35481760Y-54890616D01*
X35403910Y-55130214D01*
X35364500Y-55379038D01*
X35364500Y-55630961D01*
X35403910Y-55879785D01*
X35481760Y-56119383D01*
X35596132Y-56343848D01*
X35744201Y-56547649D01*
X35744205Y-56547654D01*
X35922345Y-56725794D01*
X35922350Y-56725798D01*
X36100117Y-56854952D01*
X36126155Y-56873870D01*
X36227736Y-56925628D01*
X36350616Y-56988239D01*
X36350618Y-56988239D01*
X36350621Y-56988241D01*
X36590215Y-57066090D01*
X36839038Y-57105500D01*
X36839039Y-57105500D01*
X37090961Y-57105500D01*
X37090962Y-57105500D01*
X37339785Y-57066090D01*
X37579379Y-56988241D01*
X37803845Y-56873870D01*
X38007656Y-56725793D01*
X38185793Y-56547656D01*
X38333870Y-56343845D01*
X38448241Y-56119379D01*
X38526090Y-55879785D01*
X38565500Y-55630962D01*
X38565500Y-55379038D01*
X38526090Y-55130215D01*
X38448241Y-54890621D01*
X38448239Y-54890618D01*
X38448239Y-54890616D01*
X38406747Y-54809184D01*
X38333870Y-54666155D01*
X38282371Y-54595272D01*
X38185798Y-54462350D01*
X38185794Y-54462345D01*
X38007654Y-54284205D01*
X38007649Y-54284201D01*
X37803848Y-54136132D01*
X37803847Y-54136131D01*
X37803845Y-54136130D01*
X37605337Y-54034985D01*
X37554541Y-53987010D01*
X37537746Y-53919189D01*
X37560283Y-53853054D01*
X37614999Y-53809603D01*
X37661632Y-53800500D01*
X38617060Y-53800500D01*
X38684099Y-53820185D01*
X38704741Y-53836819D01*
X40694467Y-55826546D01*
X40727952Y-55887869D01*
X40722968Y-55957561D01*
X40681096Y-56013494D01*
X40622971Y-56037166D01*
X40381932Y-56068899D01*
X40127354Y-56137113D01*
X39883877Y-56237965D01*
X39883867Y-56237969D01*
X39655628Y-56369742D01*
X39446540Y-56530183D01*
X39260183Y-56716540D01*
X39099742Y-56925628D01*
X38967969Y-57153867D01*
X38967965Y-57153877D01*
X38867113Y-57397354D01*
X38798899Y-57651932D01*
X38764501Y-57913214D01*
X38764500Y-57913231D01*
X38764500Y-58176768D01*
X38764501Y-58176785D01*
X38798899Y-58438067D01*
X38867113Y-58692645D01*
X38967965Y-58936122D01*
X38967969Y-58936132D01*
X39099742Y-59164371D01*
X39260183Y-59373459D01*
X39260191Y-59373468D01*
X39446532Y-59559809D01*
X39446540Y-59559816D01*
X39655628Y-59720257D01*
X39883867Y-59852030D01*
X39883868Y-59852030D01*
X39883871Y-59852032D01*
X40127359Y-59952888D01*
X40381929Y-60021100D01*
X40643225Y-60055500D01*
X40643232Y-60055500D01*
X40906768Y-60055500D01*
X40906775Y-60055500D01*
X41168071Y-60021100D01*
X41422641Y-59952888D01*
X41666129Y-59852032D01*
X41894371Y-59720257D01*
X42103459Y-59559817D01*
X42103463Y-59559812D01*
X42103468Y-59559809D01*
X42289809Y-59373468D01*
X42289812Y-59373463D01*
X42289817Y-59373459D01*
X42450257Y-59164371D01*
X42582032Y-58936129D01*
X42682888Y-58692641D01*
X42751100Y-58438071D01*
X42785500Y-58176775D01*
X42785500Y-57913225D01*
X42751100Y-57651929D01*
X42682888Y-57397359D01*
X42582032Y-57153871D01*
X42582030Y-57153867D01*
X42450257Y-56925628D01*
X42318918Y-56754466D01*
X42289817Y-56716541D01*
X42289816Y-56716540D01*
X42289809Y-56716532D01*
X42103468Y-56530191D01*
X42103459Y-56530183D01*
X41894371Y-56369742D01*
X41742200Y-56281887D01*
X41693985Y-56231320D01*
X41680761Y-56162713D01*
X41706729Y-56097848D01*
X41763643Y-56057320D01*
X41804200Y-56050500D01*
X45578844Y-56050500D01*
X45578845Y-56050499D01*
X45733497Y-56019737D01*
X45879179Y-55959394D01*
X46010289Y-55871789D01*
X48045259Y-53836819D01*
X48106582Y-53803334D01*
X48132940Y-53800500D01*
X55318368Y-53800500D01*
X55385407Y-53820185D01*
X55431162Y-53872989D01*
X55441106Y-53942147D01*
X55412081Y-54005703D01*
X55374663Y-54034985D01*
X55176151Y-54136132D01*
X54972350Y-54284201D01*
X54972345Y-54284205D01*
X54794205Y-54462345D01*
X54794201Y-54462350D01*
X54646132Y-54666151D01*
X54531760Y-54890616D01*
X54453910Y-55130214D01*
X54414500Y-55379038D01*
X54414500Y-55630961D01*
X54453910Y-55879785D01*
X54531760Y-56119383D01*
X54646132Y-56343848D01*
X54794201Y-56547649D01*
X54794205Y-56547654D01*
X54972345Y-56725794D01*
X54972350Y-56725798D01*
X55150117Y-56854952D01*
X55176155Y-56873870D01*
X55277736Y-56925628D01*
X55400616Y-56988239D01*
X55400618Y-56988239D01*
X55400621Y-56988241D01*
X55640215Y-57066090D01*
X55889038Y-57105500D01*
X55889039Y-57105500D01*
X56140961Y-57105500D01*
X56140962Y-57105500D01*
X56389785Y-57066090D01*
X56629379Y-56988241D01*
X56853845Y-56873870D01*
X57057656Y-56725793D01*
X57235793Y-56547656D01*
X57383870Y-56343845D01*
X57498241Y-56119379D01*
X57576090Y-55879785D01*
X57615500Y-55630962D01*
X57615500Y-55379038D01*
X57576090Y-55130215D01*
X57498241Y-54890621D01*
X57498239Y-54890618D01*
X57498239Y-54890616D01*
X57456747Y-54809184D01*
X57383870Y-54666155D01*
X57332371Y-54595272D01*
X57235798Y-54462350D01*
X57235794Y-54462345D01*
X57057654Y-54284205D01*
X57057649Y-54284201D01*
X56853848Y-54136132D01*
X56853847Y-54136131D01*
X56853845Y-54136130D01*
X56655337Y-54034985D01*
X56604541Y-53987010D01*
X56587746Y-53919189D01*
X56610283Y-53853054D01*
X56664999Y-53809603D01*
X56711632Y-53800500D01*
X58367060Y-53800500D01*
X58434099Y-53820185D01*
X58454741Y-53836819D01*
X60489707Y-55871786D01*
X60489711Y-55871789D01*
X60539584Y-55905114D01*
X60584389Y-55958727D01*
X60593096Y-56028052D01*
X60562941Y-56091079D01*
X60503498Y-56127798D01*
X60438601Y-56127990D01*
X60218071Y-56068900D01*
X60218070Y-56068899D01*
X60218067Y-56068899D01*
X59956785Y-56034501D01*
X59956780Y-56034500D01*
X59956775Y-56034500D01*
X59693225Y-56034500D01*
X59693219Y-56034500D01*
X59693214Y-56034501D01*
X59431932Y-56068899D01*
X59177354Y-56137113D01*
X58933877Y-56237965D01*
X58933867Y-56237969D01*
X58705628Y-56369742D01*
X58496540Y-56530183D01*
X58310183Y-56716540D01*
X58149742Y-56925628D01*
X58017969Y-57153867D01*
X58017965Y-57153877D01*
X57917113Y-57397354D01*
X57848899Y-57651932D01*
X57814501Y-57913214D01*
X57814500Y-57913231D01*
X57814500Y-58176768D01*
X57814501Y-58176785D01*
X57848899Y-58438067D01*
X57917113Y-58692645D01*
X58017965Y-58936122D01*
X58017969Y-58936132D01*
X58149742Y-59164371D01*
X58310183Y-59373459D01*
X58310191Y-59373468D01*
X58496532Y-59559809D01*
X58496540Y-59559816D01*
X58705628Y-59720257D01*
X58933867Y-59852030D01*
X58933868Y-59852030D01*
X58933871Y-59852032D01*
X59177359Y-59952888D01*
X59431929Y-60021100D01*
X59693225Y-60055500D01*
X59693232Y-60055500D01*
X59956768Y-60055500D01*
X59956775Y-60055500D01*
X60218071Y-60021100D01*
X60472641Y-59952888D01*
X60716129Y-59852032D01*
X60944371Y-59720257D01*
X61153459Y-59559817D01*
X61153463Y-59559812D01*
X61153468Y-59559809D01*
X61339809Y-59373468D01*
X61339812Y-59373463D01*
X61339817Y-59373459D01*
X61500257Y-59164371D01*
X61632032Y-58936129D01*
X61732888Y-58692641D01*
X61801100Y-58438071D01*
X61835500Y-58176775D01*
X61835500Y-57913225D01*
X61801100Y-57651929D01*
X61732888Y-57397359D01*
X61632032Y-57153871D01*
X61632030Y-57153867D01*
X61500257Y-56925628D01*
X61368918Y-56754466D01*
X61339817Y-56716541D01*
X61339816Y-56716540D01*
X61339809Y-56716532D01*
X61153468Y-56530191D01*
X61153459Y-56530183D01*
X60944371Y-56369742D01*
X60763425Y-56265274D01*
X60715210Y-56214707D01*
X60701986Y-56146100D01*
X60727954Y-56081236D01*
X60784868Y-56040707D01*
X60849616Y-56036270D01*
X60921153Y-56050499D01*
X60921157Y-56050500D01*
X60921158Y-56050500D01*
X64578844Y-56050500D01*
X64578845Y-56050499D01*
X64733497Y-56019737D01*
X64879179Y-55959394D01*
X65010289Y-55871789D01*
X67045259Y-53836819D01*
X67106582Y-53803334D01*
X67132940Y-53800500D01*
X74368368Y-53800500D01*
X74435407Y-53820185D01*
X74481162Y-53872989D01*
X74491106Y-53942147D01*
X74462081Y-54005703D01*
X74424663Y-54034985D01*
X74226151Y-54136132D01*
X74022350Y-54284201D01*
X74022345Y-54284205D01*
X73844205Y-54462345D01*
X73844201Y-54462350D01*
X73696132Y-54666151D01*
X73581760Y-54890616D01*
X73503910Y-55130214D01*
X73464500Y-55379038D01*
X73464500Y-55630961D01*
X73503910Y-55879785D01*
X73581760Y-56119383D01*
X73696132Y-56343848D01*
X73844201Y-56547649D01*
X73844205Y-56547654D01*
X74022345Y-56725794D01*
X74022350Y-56725798D01*
X74200117Y-56854952D01*
X74226155Y-56873870D01*
X74327736Y-56925628D01*
X74450616Y-56988239D01*
X74450618Y-56988239D01*
X74450621Y-56988241D01*
X74690215Y-57066090D01*
X74939038Y-57105500D01*
X74939039Y-57105500D01*
X75190961Y-57105500D01*
X75190962Y-57105500D01*
X75439785Y-57066090D01*
X75679379Y-56988241D01*
X75903845Y-56873870D01*
X76107656Y-56725793D01*
X76285793Y-56547656D01*
X76433870Y-56343845D01*
X76548241Y-56119379D01*
X76626090Y-55879785D01*
X76665500Y-55630962D01*
X76665500Y-55379038D01*
X76626090Y-55130215D01*
X76548241Y-54890621D01*
X76548239Y-54890618D01*
X76548239Y-54890616D01*
X76506747Y-54809184D01*
X76433870Y-54666155D01*
X76382371Y-54595272D01*
X76285798Y-54462350D01*
X76285794Y-54462345D01*
X76107654Y-54284205D01*
X76107649Y-54284201D01*
X75903848Y-54136132D01*
X75903847Y-54136131D01*
X75903845Y-54136130D01*
X75705337Y-54034985D01*
X75654541Y-53987010D01*
X75637746Y-53919189D01*
X75660283Y-53853054D01*
X75714999Y-53809603D01*
X75761632Y-53800500D01*
X76867060Y-53800500D01*
X76934099Y-53820185D01*
X76954741Y-53836819D01*
X78940740Y-55822819D01*
X78974225Y-55884142D01*
X78969241Y-55953834D01*
X78927369Y-56009767D01*
X78861905Y-56034184D01*
X78853059Y-56034500D01*
X78743225Y-56034500D01*
X78743219Y-56034500D01*
X78743214Y-56034501D01*
X78481932Y-56068899D01*
X78227354Y-56137113D01*
X77983877Y-56237965D01*
X77983867Y-56237969D01*
X77755628Y-56369742D01*
X77546540Y-56530183D01*
X77360183Y-56716540D01*
X77199742Y-56925628D01*
X77067969Y-57153867D01*
X77067965Y-57153877D01*
X76967113Y-57397354D01*
X76898899Y-57651932D01*
X76864501Y-57913214D01*
X76864500Y-57913231D01*
X76864500Y-58176768D01*
X76864501Y-58176785D01*
X76898899Y-58438067D01*
X76967113Y-58692645D01*
X77067965Y-58936122D01*
X77067969Y-58936132D01*
X77199742Y-59164371D01*
X77360183Y-59373459D01*
X77360191Y-59373468D01*
X77546532Y-59559809D01*
X77546540Y-59559816D01*
X77755628Y-59720257D01*
X77983867Y-59852030D01*
X77983868Y-59852030D01*
X77983871Y-59852032D01*
X78227359Y-59952888D01*
X78481929Y-60021100D01*
X78743225Y-60055500D01*
X78743232Y-60055500D01*
X79006768Y-60055500D01*
X79006775Y-60055500D01*
X79268071Y-60021100D01*
X79522641Y-59952888D01*
X79766129Y-59852032D01*
X79994371Y-59720257D01*
X80203459Y-59559817D01*
X80203463Y-59559812D01*
X80203468Y-59559809D01*
X80389809Y-59373468D01*
X80389812Y-59373463D01*
X80389817Y-59373459D01*
X80550257Y-59164371D01*
X80682032Y-58936129D01*
X80782888Y-58692641D01*
X80851100Y-58438071D01*
X80885500Y-58176775D01*
X80885500Y-57913231D01*
X95914500Y-57913231D01*
X95914500Y-58176768D01*
X95914501Y-58176785D01*
X95948899Y-58438067D01*
X96017113Y-58692645D01*
X96117965Y-58936122D01*
X96117969Y-58936132D01*
X96249742Y-59164371D01*
X96410183Y-59373459D01*
X96410191Y-59373468D01*
X96596532Y-59559809D01*
X96596540Y-59559816D01*
X96805628Y-59720257D01*
X97033867Y-59852030D01*
X97033868Y-59852030D01*
X97033871Y-59852032D01*
X97277359Y-59952888D01*
X97531929Y-60021100D01*
X97793225Y-60055500D01*
X97793232Y-60055500D01*
X98056768Y-60055500D01*
X98056775Y-60055500D01*
X98318071Y-60021100D01*
X98572641Y-59952888D01*
X98816129Y-59852032D01*
X99044371Y-59720257D01*
X99253459Y-59559817D01*
X99253463Y-59559812D01*
X99253468Y-59559809D01*
X99439809Y-59373468D01*
X99439812Y-59373463D01*
X99439817Y-59373459D01*
X99600257Y-59164371D01*
X99732032Y-58936129D01*
X99832888Y-58692641D01*
X99901100Y-58438071D01*
X99935500Y-58176775D01*
X99935500Y-57913231D01*
X114964500Y-57913231D01*
X114964500Y-58176768D01*
X114964501Y-58176785D01*
X114998899Y-58438067D01*
X115067113Y-58692645D01*
X115167965Y-58936122D01*
X115167969Y-58936132D01*
X115299742Y-59164371D01*
X115460183Y-59373459D01*
X115460191Y-59373468D01*
X115646532Y-59559809D01*
X115646540Y-59559816D01*
X115855628Y-59720257D01*
X116083867Y-59852030D01*
X116083868Y-59852030D01*
X116083871Y-59852032D01*
X116327359Y-59952888D01*
X116581929Y-60021100D01*
X116843225Y-60055500D01*
X116843232Y-60055500D01*
X117106768Y-60055500D01*
X117106775Y-60055500D01*
X117368071Y-60021100D01*
X117622641Y-59952888D01*
X117866129Y-59852032D01*
X118094371Y-59720257D01*
X118303459Y-59559817D01*
X118303463Y-59559812D01*
X118303468Y-59559809D01*
X118489809Y-59373468D01*
X118489812Y-59373463D01*
X118489817Y-59373459D01*
X118650257Y-59164371D01*
X118782032Y-58936129D01*
X118882888Y-58692641D01*
X118951100Y-58438071D01*
X118985500Y-58176775D01*
X118985500Y-57913231D01*
X134014500Y-57913231D01*
X134014500Y-58176768D01*
X134014501Y-58176785D01*
X134048899Y-58438067D01*
X134117113Y-58692645D01*
X134217965Y-58936122D01*
X134217969Y-58936132D01*
X134349742Y-59164371D01*
X134510183Y-59373459D01*
X134510191Y-59373468D01*
X134696532Y-59559809D01*
X134696540Y-59559816D01*
X134905628Y-59720257D01*
X135133867Y-59852030D01*
X135133868Y-59852030D01*
X135133871Y-59852032D01*
X135377359Y-59952888D01*
X135631929Y-60021100D01*
X135893225Y-60055500D01*
X135893232Y-60055500D01*
X136156768Y-60055500D01*
X136156775Y-60055500D01*
X136418071Y-60021100D01*
X136672641Y-59952888D01*
X136916129Y-59852032D01*
X137144371Y-59720257D01*
X137353459Y-59559817D01*
X137353463Y-59559812D01*
X137353468Y-59559809D01*
X137539809Y-59373468D01*
X137539812Y-59373463D01*
X137539817Y-59373459D01*
X137700257Y-59164371D01*
X137832032Y-58936129D01*
X137932888Y-58692641D01*
X138001100Y-58438071D01*
X138035500Y-58176775D01*
X138035500Y-57913225D01*
X138001100Y-57651929D01*
X137932888Y-57397359D01*
X137832032Y-57153871D01*
X137832030Y-57153867D01*
X137700257Y-56925628D01*
X137568918Y-56754466D01*
X137539817Y-56716541D01*
X137539816Y-56716540D01*
X137539809Y-56716532D01*
X137353468Y-56530191D01*
X137353459Y-56530183D01*
X137144371Y-56369742D01*
X136916132Y-56237969D01*
X136916122Y-56237965D01*
X136672645Y-56137113D01*
X136637881Y-56127798D01*
X136469615Y-56082711D01*
X136418069Y-56068899D01*
X136156785Y-56034501D01*
X136156780Y-56034500D01*
X136156775Y-56034500D01*
X135893225Y-56034500D01*
X135893219Y-56034500D01*
X135893214Y-56034501D01*
X135631932Y-56068899D01*
X135377354Y-56137113D01*
X135133877Y-56237965D01*
X135133867Y-56237969D01*
X134905628Y-56369742D01*
X134696540Y-56530183D01*
X134510183Y-56716540D01*
X134349742Y-56925628D01*
X134217969Y-57153867D01*
X134217965Y-57153877D01*
X134117113Y-57397354D01*
X134048899Y-57651932D01*
X134014501Y-57913214D01*
X134014500Y-57913231D01*
X118985500Y-57913231D01*
X118985500Y-57913225D01*
X118951100Y-57651929D01*
X118882888Y-57397359D01*
X118782032Y-57153871D01*
X118782030Y-57153867D01*
X118650257Y-56925628D01*
X118518918Y-56754466D01*
X118489817Y-56716541D01*
X118489816Y-56716540D01*
X118489809Y-56716532D01*
X118303468Y-56530191D01*
X118303459Y-56530183D01*
X118094371Y-56369742D01*
X117866132Y-56237969D01*
X117866122Y-56237965D01*
X117622645Y-56137113D01*
X117368067Y-56068899D01*
X117106785Y-56034501D01*
X117106780Y-56034500D01*
X117106775Y-56034500D01*
X116843225Y-56034500D01*
X116843219Y-56034500D01*
X116843214Y-56034501D01*
X116581932Y-56068899D01*
X116327354Y-56137113D01*
X116083877Y-56237965D01*
X116083867Y-56237969D01*
X115855628Y-56369742D01*
X115646540Y-56530183D01*
X115460183Y-56716540D01*
X115299742Y-56925628D01*
X115167969Y-57153867D01*
X115167965Y-57153877D01*
X115067113Y-57397354D01*
X114998899Y-57651932D01*
X114964501Y-57913214D01*
X114964500Y-57913231D01*
X99935500Y-57913231D01*
X99935500Y-57913225D01*
X99901100Y-57651929D01*
X99832888Y-57397359D01*
X99732032Y-57153871D01*
X99732030Y-57153867D01*
X99600257Y-56925628D01*
X99468918Y-56754466D01*
X99439817Y-56716541D01*
X99439816Y-56716540D01*
X99439809Y-56716532D01*
X99253468Y-56530191D01*
X99253459Y-56530183D01*
X99044371Y-56369742D01*
X98816132Y-56237969D01*
X98816122Y-56237965D01*
X98572645Y-56137113D01*
X98318067Y-56068899D01*
X98056785Y-56034501D01*
X98056780Y-56034500D01*
X98056775Y-56034500D01*
X97793225Y-56034500D01*
X97793219Y-56034500D01*
X97793214Y-56034501D01*
X97531932Y-56068899D01*
X97277354Y-56137113D01*
X97033877Y-56237965D01*
X97033867Y-56237969D01*
X96805628Y-56369742D01*
X96596540Y-56530183D01*
X96410183Y-56716540D01*
X96249742Y-56925628D01*
X96117969Y-57153867D01*
X96117965Y-57153877D01*
X96017113Y-57397354D01*
X95948899Y-57651932D01*
X95914501Y-57913214D01*
X95914500Y-57913231D01*
X80885500Y-57913231D01*
X80885500Y-57913225D01*
X80851100Y-57651929D01*
X80782888Y-57397359D01*
X80682032Y-57153871D01*
X80682030Y-57153867D01*
X80550257Y-56925628D01*
X80418918Y-56754466D01*
X80389817Y-56716541D01*
X80389816Y-56716540D01*
X80389809Y-56716532D01*
X80203468Y-56530191D01*
X80203459Y-56530183D01*
X79994371Y-56369742D01*
X79842200Y-56281887D01*
X79793985Y-56231320D01*
X79780761Y-56162713D01*
X79806729Y-56097848D01*
X79863643Y-56057320D01*
X79904200Y-56050500D01*
X83078844Y-56050500D01*
X83078845Y-56050499D01*
X83233497Y-56019737D01*
X83379179Y-55959394D01*
X83510289Y-55871789D01*
X85580259Y-53801819D01*
X85641582Y-53768334D01*
X85667940Y-53765500D01*
X93506400Y-53765500D01*
X93573439Y-53785185D01*
X93619194Y-53837989D01*
X93629138Y-53907147D01*
X93600113Y-53970703D01*
X93544720Y-54007430D01*
X93529061Y-54012517D01*
X93500616Y-54021760D01*
X93276151Y-54136132D01*
X93072350Y-54284201D01*
X93072345Y-54284205D01*
X92894205Y-54462345D01*
X92894201Y-54462350D01*
X92746132Y-54666151D01*
X92631760Y-54890616D01*
X92553910Y-55130214D01*
X92514500Y-55379038D01*
X92514500Y-55630961D01*
X92553910Y-55879785D01*
X92631760Y-56119383D01*
X92746132Y-56343848D01*
X92894201Y-56547649D01*
X92894205Y-56547654D01*
X93072345Y-56725794D01*
X93072350Y-56725798D01*
X93250117Y-56854952D01*
X93276155Y-56873870D01*
X93377736Y-56925628D01*
X93500616Y-56988239D01*
X93500618Y-56988239D01*
X93500621Y-56988241D01*
X93740215Y-57066090D01*
X93989038Y-57105500D01*
X93989039Y-57105500D01*
X94240961Y-57105500D01*
X94240962Y-57105500D01*
X94489785Y-57066090D01*
X94729379Y-56988241D01*
X94953845Y-56873870D01*
X95157656Y-56725793D01*
X95335793Y-56547656D01*
X95483870Y-56343845D01*
X95598241Y-56119379D01*
X95676090Y-55879785D01*
X95715500Y-55630962D01*
X95715500Y-55379038D01*
X111564500Y-55379038D01*
X111564500Y-55630961D01*
X111603910Y-55879785D01*
X111681760Y-56119383D01*
X111796132Y-56343848D01*
X111944201Y-56547649D01*
X111944205Y-56547654D01*
X112122345Y-56725794D01*
X112122350Y-56725798D01*
X112300117Y-56854952D01*
X112326155Y-56873870D01*
X112427736Y-56925628D01*
X112550616Y-56988239D01*
X112550618Y-56988239D01*
X112550621Y-56988241D01*
X112790215Y-57066090D01*
X113039038Y-57105500D01*
X113039039Y-57105500D01*
X113290961Y-57105500D01*
X113290962Y-57105500D01*
X113539785Y-57066090D01*
X113779379Y-56988241D01*
X114003845Y-56873870D01*
X114207656Y-56725793D01*
X114385793Y-56547656D01*
X114533870Y-56343845D01*
X114648241Y-56119379D01*
X114726090Y-55879785D01*
X114765500Y-55630962D01*
X114765500Y-55379038D01*
X130614500Y-55379038D01*
X130614500Y-55630961D01*
X130653910Y-55879785D01*
X130731760Y-56119383D01*
X130846132Y-56343848D01*
X130994201Y-56547649D01*
X130994205Y-56547654D01*
X131172345Y-56725794D01*
X131172350Y-56725798D01*
X131350117Y-56854952D01*
X131376155Y-56873870D01*
X131477736Y-56925628D01*
X131600616Y-56988239D01*
X131600618Y-56988239D01*
X131600621Y-56988241D01*
X131840215Y-57066090D01*
X132089038Y-57105500D01*
X132089039Y-57105500D01*
X132340961Y-57105500D01*
X132340962Y-57105500D01*
X132589785Y-57066090D01*
X132829379Y-56988241D01*
X133053845Y-56873870D01*
X133257656Y-56725793D01*
X133435793Y-56547656D01*
X133583870Y-56343845D01*
X133698241Y-56119379D01*
X133776090Y-55879785D01*
X133815500Y-55630962D01*
X133815500Y-55500000D01*
X150902970Y-55500000D01*
X151845854Y-55500000D01*
X151807370Y-55566657D01*
X151775000Y-55687465D01*
X151775000Y-55812535D01*
X151807370Y-55933343D01*
X151845854Y-56000000D01*
X150902970Y-56000000D01*
X150933242Y-56191127D01*
X150933242Y-56191130D01*
X150998904Y-56393217D01*
X151095379Y-56582557D01*
X151220272Y-56754459D01*
X151220276Y-56754464D01*
X151370535Y-56904723D01*
X151370540Y-56904727D01*
X151542442Y-57029620D01*
X151731782Y-57126095D01*
X151933871Y-57191757D01*
X152000000Y-57202231D01*
X152000000Y-56154145D01*
X152066657Y-56192630D01*
X152187465Y-56225000D01*
X152312535Y-56225000D01*
X152433343Y-56192630D01*
X152500000Y-56154145D01*
X152500000Y-57202230D01*
X152566126Y-57191757D01*
X152566129Y-57191757D01*
X152768217Y-57126095D01*
X152957557Y-57029620D01*
X153129459Y-56904727D01*
X153129464Y-56904723D01*
X153279721Y-56754466D01*
X153399371Y-56589781D01*
X153454701Y-56547115D01*
X153524314Y-56541136D01*
X153586110Y-56573741D01*
X153600008Y-56589781D01*
X153719890Y-56754785D01*
X153719894Y-56754790D01*
X153870213Y-56905109D01*
X154042179Y-57030048D01*
X154042181Y-57030049D01*
X154042184Y-57030051D01*
X154231588Y-57126557D01*
X154433757Y-57192246D01*
X154643713Y-57225500D01*
X154643714Y-57225500D01*
X154856286Y-57225500D01*
X154856287Y-57225500D01*
X155066243Y-57192246D01*
X155268412Y-57126557D01*
X155457816Y-57030051D01*
X155629792Y-56905104D01*
X155768604Y-56766291D01*
X155829923Y-56732809D01*
X155899615Y-56737793D01*
X155955549Y-56779664D01*
X155961821Y-56788878D01*
X155965185Y-56794333D01*
X155965186Y-56794334D01*
X156057288Y-56943656D01*
X156181344Y-57067712D01*
X156330666Y-57159814D01*
X156497203Y-57214999D01*
X156599991Y-57225500D01*
X157900008Y-57225499D01*
X158002797Y-57214999D01*
X158169334Y-57159814D01*
X158318656Y-57067712D01*
X158442712Y-56943656D01*
X158534814Y-56794334D01*
X158589999Y-56627797D01*
X158600500Y-56525009D01*
X158600499Y-54974992D01*
X158598851Y-54958863D01*
X158589999Y-54872203D01*
X158589998Y-54872200D01*
X158552104Y-54757845D01*
X158534814Y-54705666D01*
X158442712Y-54556344D01*
X158318656Y-54432288D01*
X158169334Y-54340186D01*
X158002797Y-54285001D01*
X158002795Y-54285000D01*
X157900010Y-54274500D01*
X156599998Y-54274500D01*
X156599981Y-54274501D01*
X156497203Y-54285000D01*
X156497200Y-54285001D01*
X156330668Y-54340185D01*
X156330663Y-54340187D01*
X156181342Y-54432289D01*
X156057289Y-54556342D01*
X155961821Y-54711121D01*
X155909873Y-54757845D01*
X155840910Y-54769068D01*
X155776828Y-54741224D01*
X155768601Y-54733705D01*
X155629786Y-54594890D01*
X155457820Y-54469951D01*
X155268414Y-54373444D01*
X155268413Y-54373443D01*
X155268412Y-54373443D01*
X155066243Y-54307754D01*
X155066241Y-54307753D01*
X155066240Y-54307753D01*
X154894245Y-54280512D01*
X154856287Y-54274500D01*
X154643713Y-54274500D01*
X154605755Y-54280512D01*
X154433760Y-54307753D01*
X154231585Y-54373444D01*
X154042179Y-54469951D01*
X153870213Y-54594890D01*
X153719894Y-54745209D01*
X153719890Y-54745214D01*
X153600008Y-54910218D01*
X153544678Y-54952884D01*
X153475065Y-54958863D01*
X153413270Y-54926257D01*
X153399372Y-54910218D01*
X153279727Y-54745540D01*
X153279723Y-54745535D01*
X153129464Y-54595276D01*
X153129459Y-54595272D01*
X152957557Y-54470379D01*
X152768215Y-54373903D01*
X152566124Y-54308241D01*
X152500000Y-54297768D01*
X152500000Y-55345854D01*
X152433343Y-55307370D01*
X152312535Y-55275000D01*
X152187465Y-55275000D01*
X152066657Y-55307370D01*
X152000000Y-55345854D01*
X152000000Y-54297768D01*
X151999999Y-54297768D01*
X151933875Y-54308241D01*
X151731784Y-54373903D01*
X151542442Y-54470379D01*
X151370540Y-54595272D01*
X151370535Y-54595276D01*
X151220276Y-54745535D01*
X151220272Y-54745540D01*
X151095379Y-54917442D01*
X150998904Y-55106782D01*
X150933242Y-55308869D01*
X150933242Y-55308872D01*
X150902970Y-55500000D01*
X133815500Y-55500000D01*
X133815500Y-55379038D01*
X133776090Y-55130215D01*
X133698241Y-54890621D01*
X133698239Y-54890618D01*
X133698239Y-54890616D01*
X133656747Y-54809184D01*
X133583870Y-54666155D01*
X133532371Y-54595272D01*
X133435798Y-54462350D01*
X133435794Y-54462345D01*
X133257654Y-54284205D01*
X133257649Y-54284201D01*
X133053848Y-54136132D01*
X133053847Y-54136131D01*
X133053845Y-54136130D01*
X132983747Y-54100413D01*
X132829383Y-54021760D01*
X132589785Y-53943910D01*
X132578654Y-53942147D01*
X132340962Y-53904500D01*
X132089038Y-53904500D01*
X132020263Y-53915393D01*
X131840214Y-53943910D01*
X131600616Y-54021760D01*
X131376151Y-54136132D01*
X131172350Y-54284201D01*
X131172345Y-54284205D01*
X130994205Y-54462345D01*
X130994201Y-54462350D01*
X130846132Y-54666151D01*
X130731760Y-54890616D01*
X130653910Y-55130214D01*
X130614500Y-55379038D01*
X114765500Y-55379038D01*
X114726090Y-55130215D01*
X114648241Y-54890621D01*
X114648239Y-54890618D01*
X114648239Y-54890616D01*
X114606747Y-54809184D01*
X114533870Y-54666155D01*
X114482371Y-54595272D01*
X114385798Y-54462350D01*
X114385794Y-54462345D01*
X114207654Y-54284205D01*
X114207649Y-54284201D01*
X114003848Y-54136132D01*
X114003847Y-54136131D01*
X114003845Y-54136130D01*
X113933747Y-54100413D01*
X113779383Y-54021760D01*
X113539785Y-53943910D01*
X113528654Y-53942147D01*
X113290962Y-53904500D01*
X113039038Y-53904500D01*
X112970263Y-53915393D01*
X112790214Y-53943910D01*
X112550616Y-54021760D01*
X112326151Y-54136132D01*
X112122350Y-54284201D01*
X112122345Y-54284205D01*
X111944205Y-54462345D01*
X111944201Y-54462350D01*
X111796132Y-54666151D01*
X111681760Y-54890616D01*
X111603910Y-55130214D01*
X111564500Y-55379038D01*
X95715500Y-55379038D01*
X95676090Y-55130215D01*
X95598241Y-54890621D01*
X95598239Y-54890618D01*
X95598239Y-54890616D01*
X95556747Y-54809184D01*
X95483870Y-54666155D01*
X95432371Y-54595272D01*
X95335798Y-54462350D01*
X95335794Y-54462345D01*
X95157654Y-54284205D01*
X95157649Y-54284201D01*
X94953848Y-54136132D01*
X94953847Y-54136131D01*
X94953845Y-54136130D01*
X94883747Y-54100413D01*
X94729383Y-54021760D01*
X94708843Y-54015086D01*
X94685280Y-54007430D01*
X94627606Y-53967993D01*
X94600408Y-53903634D01*
X94612323Y-53834788D01*
X94659567Y-53783312D01*
X94723600Y-53765500D01*
X99005089Y-53765500D01*
X99072128Y-53785185D01*
X99105407Y-53816615D01*
X99244201Y-54007649D01*
X99244205Y-54007654D01*
X99422345Y-54185794D01*
X99422350Y-54185798D01*
X99558891Y-54285000D01*
X99626155Y-54333870D01*
X99769184Y-54406747D01*
X99850616Y-54448239D01*
X99850618Y-54448239D01*
X99850621Y-54448241D01*
X100090215Y-54526090D01*
X100339038Y-54565500D01*
X100339039Y-54565500D01*
X100590961Y-54565500D01*
X100590962Y-54565500D01*
X100839785Y-54526090D01*
X101079379Y-54448241D01*
X101303845Y-54333870D01*
X101507656Y-54185793D01*
X101685793Y-54007656D01*
X101833870Y-53803845D01*
X101948241Y-53579379D01*
X102026090Y-53339785D01*
X102065500Y-53090962D01*
X102065500Y-52839038D01*
X117914500Y-52839038D01*
X117914500Y-53090961D01*
X117953910Y-53339785D01*
X118031760Y-53579383D01*
X118053368Y-53621790D01*
X118144425Y-53800499D01*
X118146132Y-53803848D01*
X118294201Y-54007649D01*
X118294205Y-54007654D01*
X118472345Y-54185794D01*
X118472350Y-54185798D01*
X118608891Y-54285000D01*
X118676155Y-54333870D01*
X118819184Y-54406747D01*
X118900616Y-54448239D01*
X118900618Y-54448239D01*
X118900621Y-54448241D01*
X119140215Y-54526090D01*
X119389038Y-54565500D01*
X119389039Y-54565500D01*
X119640961Y-54565500D01*
X119640962Y-54565500D01*
X119889785Y-54526090D01*
X120129379Y-54448241D01*
X120353845Y-54333870D01*
X120557656Y-54185793D01*
X120735793Y-54007656D01*
X120883870Y-53803845D01*
X120998241Y-53579379D01*
X121076090Y-53339785D01*
X121115500Y-53090962D01*
X121115500Y-52839038D01*
X136964500Y-52839038D01*
X136964500Y-53090961D01*
X137003910Y-53339785D01*
X137081760Y-53579383D01*
X137103368Y-53621790D01*
X137194425Y-53800499D01*
X137196132Y-53803848D01*
X137344201Y-54007649D01*
X137344205Y-54007654D01*
X137522345Y-54185794D01*
X137522350Y-54185798D01*
X137658891Y-54285000D01*
X137726155Y-54333870D01*
X137869184Y-54406747D01*
X137950616Y-54448239D01*
X137950618Y-54448239D01*
X137950621Y-54448241D01*
X138190215Y-54526090D01*
X138439038Y-54565500D01*
X138439039Y-54565500D01*
X138690961Y-54565500D01*
X138690962Y-54565500D01*
X138939785Y-54526090D01*
X139179379Y-54448241D01*
X139403845Y-54333870D01*
X139607656Y-54185793D01*
X139785793Y-54007656D01*
X139933870Y-53803845D01*
X140048241Y-53579379D01*
X140126090Y-53339785D01*
X140165500Y-53090962D01*
X140165500Y-52839038D01*
X140126090Y-52590215D01*
X140048241Y-52350621D01*
X140048239Y-52350618D01*
X140048239Y-52350616D01*
X139986916Y-52230264D01*
X139933870Y-52126155D01*
X139838070Y-51994297D01*
X139785798Y-51922350D01*
X139785794Y-51922345D01*
X139607654Y-51744205D01*
X139607649Y-51744201D01*
X139403848Y-51596132D01*
X139403847Y-51596131D01*
X139403845Y-51596130D01*
X139313461Y-51550077D01*
X139179383Y-51481760D01*
X138939785Y-51403910D01*
X138690962Y-51364500D01*
X138439038Y-51364500D01*
X138314626Y-51384205D01*
X138190214Y-51403910D01*
X137950616Y-51481760D01*
X137726151Y-51596132D01*
X137522350Y-51744201D01*
X137522345Y-51744205D01*
X137344205Y-51922345D01*
X137344201Y-51922350D01*
X137196132Y-52126151D01*
X137081760Y-52350616D01*
X137003910Y-52590214D01*
X136964500Y-52839038D01*
X121115500Y-52839038D01*
X121076090Y-52590215D01*
X120998241Y-52350621D01*
X120998239Y-52350618D01*
X120998239Y-52350616D01*
X120936916Y-52230264D01*
X120883870Y-52126155D01*
X120788070Y-51994297D01*
X120735798Y-51922350D01*
X120735794Y-51922345D01*
X120557654Y-51744205D01*
X120557649Y-51744201D01*
X120353848Y-51596132D01*
X120353847Y-51596131D01*
X120353845Y-51596130D01*
X120263461Y-51550077D01*
X120129383Y-51481760D01*
X119889785Y-51403910D01*
X119640962Y-51364500D01*
X119389038Y-51364500D01*
X119264626Y-51384205D01*
X119140214Y-51403910D01*
X118900616Y-51481760D01*
X118676151Y-51596132D01*
X118472350Y-51744201D01*
X118472345Y-51744205D01*
X118294205Y-51922345D01*
X118294201Y-51922350D01*
X118146132Y-52126151D01*
X118031760Y-52350616D01*
X117953910Y-52590214D01*
X117914500Y-52839038D01*
X102065500Y-52839038D01*
X102026090Y-52590215D01*
X101948241Y-52350621D01*
X101948239Y-52350618D01*
X101948239Y-52350616D01*
X101886916Y-52230264D01*
X101833870Y-52126155D01*
X101738070Y-51994297D01*
X101685798Y-51922350D01*
X101685794Y-51922345D01*
X101507654Y-51744205D01*
X101507649Y-51744201D01*
X101303848Y-51596132D01*
X101303847Y-51596131D01*
X101303845Y-51596130D01*
X101213461Y-51550077D01*
X101079383Y-51481760D01*
X100839785Y-51403910D01*
X100590962Y-51364500D01*
X100339038Y-51364500D01*
X100214626Y-51384205D01*
X100090214Y-51403910D01*
X99850616Y-51481760D01*
X99626151Y-51596132D01*
X99422350Y-51744201D01*
X99422345Y-51744205D01*
X99244205Y-51922345D01*
X99244201Y-51922350D01*
X99105407Y-52113385D01*
X99050077Y-52156051D01*
X99005089Y-52164500D01*
X85206155Y-52164500D01*
X85051510Y-52195261D01*
X85051498Y-52195264D01*
X84905827Y-52255602D01*
X84905814Y-52255609D01*
X84774711Y-52343210D01*
X84774707Y-52343213D01*
X82704741Y-54413181D01*
X82643418Y-54446666D01*
X82617060Y-54449500D01*
X82476328Y-54449500D01*
X82409289Y-54429815D01*
X82363534Y-54377011D01*
X82353590Y-54307853D01*
X82382615Y-54244297D01*
X82403443Y-54225182D01*
X82457649Y-54185798D01*
X82457647Y-54185798D01*
X82457656Y-54185793D01*
X82635793Y-54007656D01*
X82783870Y-53803845D01*
X82898241Y-53579379D01*
X82976090Y-53339785D01*
X83015500Y-53090962D01*
X83015500Y-52839038D01*
X82976090Y-52590215D01*
X82898241Y-52350621D01*
X82898239Y-52350618D01*
X82898239Y-52350616D01*
X82836916Y-52230264D01*
X82783870Y-52126155D01*
X82688070Y-51994297D01*
X82635798Y-51922350D01*
X82635794Y-51922345D01*
X82457654Y-51744205D01*
X82457649Y-51744201D01*
X82253848Y-51596132D01*
X82253847Y-51596131D01*
X82253845Y-51596130D01*
X82163461Y-51550077D01*
X82029383Y-51481760D01*
X81789785Y-51403910D01*
X81540962Y-51364500D01*
X81289038Y-51364500D01*
X81164626Y-51384205D01*
X81040214Y-51403910D01*
X80800616Y-51481760D01*
X80576151Y-51596132D01*
X80372350Y-51744201D01*
X80372345Y-51744205D01*
X80194205Y-51922345D01*
X80194201Y-51922350D01*
X80046132Y-52126151D01*
X79931760Y-52350616D01*
X79853910Y-52590214D01*
X79814500Y-52839038D01*
X79814500Y-53090961D01*
X79853910Y-53339785D01*
X79931760Y-53579383D01*
X79953368Y-53621790D01*
X80044425Y-53800499D01*
X80046132Y-53803848D01*
X80194201Y-54007649D01*
X80194205Y-54007654D01*
X80372345Y-54185794D01*
X80372350Y-54185798D01*
X80426557Y-54225182D01*
X80469223Y-54280512D01*
X80475202Y-54350125D01*
X80442596Y-54411920D01*
X80381758Y-54446277D01*
X80353672Y-54449500D01*
X79882940Y-54449500D01*
X79815901Y-54429815D01*
X79795259Y-54413181D01*
X77760292Y-52378213D01*
X77760288Y-52378210D01*
X77629185Y-52290609D01*
X77629172Y-52290602D01*
X77483501Y-52230264D01*
X77483489Y-52230261D01*
X77328845Y-52199500D01*
X77328842Y-52199500D01*
X66828843Y-52199500D01*
X66671158Y-52199500D01*
X66671153Y-52199500D01*
X66516510Y-52230260D01*
X66516502Y-52230262D01*
X66370824Y-52290604D01*
X66370814Y-52290609D01*
X66239711Y-52378210D01*
X66239707Y-52378213D01*
X64204741Y-54413181D01*
X64143418Y-54446666D01*
X64117060Y-54449500D01*
X63426328Y-54449500D01*
X63359289Y-54429815D01*
X63313534Y-54377011D01*
X63303590Y-54307853D01*
X63332615Y-54244297D01*
X63353443Y-54225182D01*
X63407649Y-54185798D01*
X63407647Y-54185798D01*
X63407656Y-54185793D01*
X63585793Y-54007656D01*
X63733870Y-53803845D01*
X63848241Y-53579379D01*
X63926090Y-53339785D01*
X63965500Y-53090962D01*
X63965500Y-52839038D01*
X63926090Y-52590215D01*
X63848241Y-52350621D01*
X63848239Y-52350618D01*
X63848239Y-52350616D01*
X63786916Y-52230264D01*
X63733870Y-52126155D01*
X63638070Y-51994297D01*
X63585798Y-51922350D01*
X63585794Y-51922345D01*
X63407654Y-51744205D01*
X63407649Y-51744201D01*
X63216615Y-51605407D01*
X63173949Y-51550077D01*
X63165500Y-51505089D01*
X63165500Y-51036155D01*
X63165499Y-51036153D01*
X63134737Y-50881503D01*
X63121740Y-50850125D01*
X63074397Y-50735827D01*
X63074390Y-50735814D01*
X62986790Y-50604712D01*
X62931676Y-50549598D01*
X62875289Y-50493211D01*
X62318205Y-49936127D01*
X61760292Y-49378213D01*
X61760288Y-49378210D01*
X61629185Y-49290609D01*
X61629172Y-49290602D01*
X61483501Y-49230264D01*
X61483489Y-49230261D01*
X61328845Y-49199500D01*
X61328842Y-49199500D01*
X32467889Y-49199500D01*
X32400850Y-49179815D01*
X32355095Y-49127011D01*
X32345151Y-49057853D01*
X32364786Y-49006610D01*
X32386629Y-48973918D01*
X32386632Y-48973914D01*
X32462051Y-48791835D01*
X32487774Y-48662517D01*
X32500500Y-48598543D01*
X32500500Y-47750000D01*
X150902970Y-47750000D01*
X151845854Y-47750000D01*
X151807370Y-47816657D01*
X151775000Y-47937465D01*
X151775000Y-48062535D01*
X151807370Y-48183343D01*
X151845854Y-48250000D01*
X150902970Y-48250000D01*
X150933242Y-48441127D01*
X150933242Y-48441130D01*
X150998904Y-48643217D01*
X151095379Y-48832557D01*
X151220272Y-49004459D01*
X151220276Y-49004464D01*
X151370535Y-49154723D01*
X151370540Y-49154727D01*
X151542442Y-49279620D01*
X151731782Y-49376095D01*
X151933871Y-49441757D01*
X152000000Y-49452231D01*
X152000000Y-48404145D01*
X152066657Y-48442630D01*
X152187465Y-48475000D01*
X152312535Y-48475000D01*
X152433343Y-48442630D01*
X152500000Y-48404145D01*
X152500000Y-49452230D01*
X152566126Y-49441757D01*
X152566129Y-49441757D01*
X152768217Y-49376095D01*
X152957557Y-49279620D01*
X153129459Y-49154727D01*
X153129464Y-49154723D01*
X153279721Y-49004466D01*
X153399371Y-48839781D01*
X153454701Y-48797115D01*
X153524314Y-48791136D01*
X153586110Y-48823741D01*
X153600008Y-48839781D01*
X153719890Y-49004785D01*
X153719894Y-49004790D01*
X153870213Y-49155109D01*
X154042179Y-49280048D01*
X154042181Y-49280049D01*
X154042184Y-49280051D01*
X154231588Y-49376557D01*
X154433757Y-49442246D01*
X154643713Y-49475500D01*
X154643714Y-49475500D01*
X154856286Y-49475500D01*
X154856287Y-49475500D01*
X155066243Y-49442246D01*
X155268412Y-49376557D01*
X155457816Y-49280051D01*
X155595780Y-49179815D01*
X155629784Y-49155110D01*
X155629784Y-49155109D01*
X155629792Y-49155104D01*
X155768604Y-49016291D01*
X155829923Y-48982809D01*
X155899615Y-48987793D01*
X155955549Y-49029664D01*
X155961821Y-49038878D01*
X155965185Y-49044333D01*
X155965186Y-49044334D01*
X156057288Y-49193656D01*
X156181344Y-49317712D01*
X156330666Y-49409814D01*
X156497203Y-49464999D01*
X156599991Y-49475500D01*
X157900008Y-49475499D01*
X158002797Y-49464999D01*
X158169334Y-49409814D01*
X158318656Y-49317712D01*
X158442712Y-49193656D01*
X158534814Y-49044334D01*
X158589999Y-48877797D01*
X158600500Y-48775009D01*
X158600499Y-47224992D01*
X158598851Y-47208863D01*
X158589999Y-47122203D01*
X158589998Y-47122200D01*
X158552104Y-47007845D01*
X158534814Y-46955666D01*
X158442712Y-46806344D01*
X158318656Y-46682288D01*
X158169334Y-46590186D01*
X158002797Y-46535001D01*
X158002795Y-46535000D01*
X157900010Y-46524500D01*
X156599998Y-46524500D01*
X156599981Y-46524501D01*
X156497203Y-46535000D01*
X156497200Y-46535001D01*
X156330668Y-46590185D01*
X156330663Y-46590187D01*
X156181342Y-46682289D01*
X156057289Y-46806342D01*
X155961821Y-46961121D01*
X155909873Y-47007845D01*
X155840910Y-47019068D01*
X155776828Y-46991224D01*
X155768601Y-46983705D01*
X155629786Y-46844890D01*
X155457820Y-46719951D01*
X155268414Y-46623444D01*
X155268413Y-46623443D01*
X155268412Y-46623443D01*
X155066243Y-46557754D01*
X155066241Y-46557753D01*
X155066240Y-46557753D01*
X154904957Y-46532208D01*
X154856287Y-46524500D01*
X154643713Y-46524500D01*
X154595042Y-46532208D01*
X154433760Y-46557753D01*
X154231585Y-46623444D01*
X154042179Y-46719951D01*
X153870213Y-46844890D01*
X153719894Y-46995209D01*
X153719890Y-46995214D01*
X153600008Y-47160218D01*
X153544678Y-47202884D01*
X153475065Y-47208863D01*
X153413270Y-47176257D01*
X153399372Y-47160218D01*
X153279727Y-46995540D01*
X153279723Y-46995535D01*
X153129464Y-46845276D01*
X153129459Y-46845272D01*
X152957557Y-46720379D01*
X152768215Y-46623903D01*
X152566124Y-46558241D01*
X152500000Y-46547768D01*
X152500000Y-47595854D01*
X152433343Y-47557370D01*
X152312535Y-47525000D01*
X152187465Y-47525000D01*
X152066657Y-47557370D01*
X152000000Y-47595854D01*
X152000000Y-46547768D01*
X151999999Y-46547768D01*
X151933875Y-46558241D01*
X151731784Y-46623903D01*
X151542442Y-46720379D01*
X151370540Y-46845272D01*
X151370535Y-46845276D01*
X151220276Y-46995535D01*
X151220272Y-46995540D01*
X151095379Y-47167442D01*
X150998904Y-47356782D01*
X150933242Y-47558869D01*
X150933242Y-47558872D01*
X150902970Y-47750000D01*
X32500500Y-47750000D01*
X32500500Y-33901458D01*
X32500499Y-33901457D01*
X32474299Y-33769737D01*
X32462051Y-33708164D01*
X32424777Y-33618177D01*
X32386632Y-33526086D01*
X32386631Y-33526084D01*
X32386630Y-33526082D01*
X32277139Y-33362218D01*
X32277136Y-33362214D01*
X32134686Y-33219764D01*
X32134655Y-33219735D01*
X30801479Y-31886559D01*
X30801459Y-31886537D01*
X30657785Y-31742863D01*
X30657781Y-31742860D01*
X30493920Y-31633371D01*
X30493907Y-31633364D01*
X30351658Y-31574443D01*
X30351651Y-31574441D01*
X30343725Y-31571158D01*
X30311836Y-31557949D01*
X30215188Y-31538724D01*
X30211639Y-31538018D01*
X30118544Y-31519500D01*
X30118541Y-31519500D01*
X27914141Y-31519500D01*
X27847102Y-31499815D01*
X27801347Y-31447011D01*
X27797969Y-31438859D01*
X27793796Y-31427669D01*
X27793793Y-31427665D01*
X27793793Y-31427664D01*
X27707547Y-31312455D01*
X27707544Y-31312452D01*
X27592335Y-31226206D01*
X27592328Y-31226202D01*
X27457482Y-31175908D01*
X27457483Y-31175908D01*
X27397883Y-31169501D01*
X27397881Y-31169500D01*
X27397873Y-31169500D01*
X27397864Y-31169500D01*
X25602129Y-31169500D01*
X25602123Y-31169501D01*
X25542516Y-31175908D01*
X25407671Y-31226202D01*
X25407664Y-31226206D01*
X25292455Y-31312452D01*
X25292452Y-31312455D01*
X25206206Y-31427664D01*
X25206202Y-31427671D01*
X25155908Y-31562517D01*
X25149501Y-31622116D01*
X25149500Y-31622135D01*
X25149500Y-33417870D01*
X25149501Y-33417876D01*
X25155908Y-33477483D01*
X25206202Y-33612328D01*
X25206206Y-33612335D01*
X25292452Y-33727544D01*
X25292455Y-33727547D01*
X25407664Y-33813793D01*
X25407671Y-33813797D01*
X25539082Y-33862810D01*
X25595016Y-33904681D01*
X25619433Y-33970145D01*
X25604582Y-34038418D01*
X25583431Y-34066673D01*
X25469889Y-34180215D01*
X25344951Y-34352179D01*
X25248444Y-34541585D01*
X25182753Y-34743760D01*
X25149500Y-34953713D01*
X25149500Y-35166287D01*
X25182754Y-35376243D01*
X25202249Y-35436243D01*
X25248444Y-35578414D01*
X25344951Y-35767820D01*
X25469890Y-35939786D01*
X25620213Y-36090109D01*
X25792179Y-36215048D01*
X25792181Y-36215049D01*
X25792184Y-36215051D01*
X25801493Y-36219794D01*
X25852290Y-36267766D01*
X25869087Y-36335587D01*
X25846552Y-36401722D01*
X25801505Y-36440760D01*
X25792446Y-36445376D01*
X25792440Y-36445380D01*
X25738282Y-36484727D01*
X25738282Y-36484728D01*
X26370591Y-37117037D01*
X26307007Y-37134075D01*
X26192993Y-37199901D01*
X26099901Y-37292993D01*
X26034075Y-37407007D01*
X26017037Y-37470591D01*
X25384728Y-36838282D01*
X25384727Y-36838282D01*
X25345380Y-36892439D01*
X25248904Y-37081782D01*
X25183242Y-37283869D01*
X25183242Y-37283872D01*
X25150000Y-37493753D01*
X25150000Y-37706246D01*
X25183242Y-37916127D01*
X25183242Y-37916130D01*
X25248904Y-38118217D01*
X25345375Y-38307550D01*
X25384728Y-38361716D01*
X26017037Y-37729408D01*
X26034075Y-37792993D01*
X26099901Y-37907007D01*
X26192993Y-38000099D01*
X26307007Y-38065925D01*
X26370590Y-38082962D01*
X25738282Y-38715269D01*
X25738282Y-38715270D01*
X25792449Y-38754624D01*
X25981782Y-38851095D01*
X26183870Y-38916757D01*
X26393754Y-38950000D01*
X26606246Y-38950000D01*
X26816127Y-38916757D01*
X26816130Y-38916757D01*
X27018217Y-38851095D01*
X27207554Y-38754622D01*
X27261716Y-38715270D01*
X27261717Y-38715270D01*
X26629408Y-38082962D01*
X26692993Y-38065925D01*
X26807007Y-38000099D01*
X26900099Y-37907007D01*
X26965925Y-37792993D01*
X26982962Y-37729408D01*
X27615270Y-38361717D01*
X27615270Y-38361716D01*
X27654622Y-38307554D01*
X27751095Y-38118217D01*
X27816757Y-37916130D01*
X27816757Y-37916127D01*
X27850000Y-37706246D01*
X27850000Y-37493753D01*
X27816757Y-37283872D01*
X27816757Y-37283869D01*
X27751095Y-37081782D01*
X27654624Y-36892449D01*
X27615270Y-36838282D01*
X27615269Y-36838282D01*
X26982962Y-37470590D01*
X26965925Y-37407007D01*
X26900099Y-37292993D01*
X26807007Y-37199901D01*
X26692993Y-37134075D01*
X26629409Y-37117037D01*
X27261716Y-36484728D01*
X27207547Y-36445373D01*
X27207547Y-36445372D01*
X27198500Y-36440763D01*
X27147706Y-36392788D01*
X27130912Y-36324966D01*
X27153451Y-36258832D01*
X27198508Y-36219793D01*
X27207816Y-36215051D01*
X27297209Y-36150104D01*
X27379786Y-36090109D01*
X27379788Y-36090106D01*
X27379792Y-36090104D01*
X27530104Y-35939792D01*
X27530106Y-35939788D01*
X27530109Y-35939786D01*
X27655048Y-35767820D01*
X27655047Y-35767820D01*
X27655051Y-35767816D01*
X27751557Y-35578412D01*
X27817246Y-35376243D01*
X27850500Y-35166287D01*
X27850500Y-34953713D01*
X27817246Y-34743757D01*
X27751557Y-34541588D01*
X27655051Y-34352184D01*
X27655049Y-34352181D01*
X27655048Y-34352179D01*
X27530109Y-34180213D01*
X27416569Y-34066673D01*
X27383084Y-34005350D01*
X27388068Y-33935658D01*
X27429940Y-33879725D01*
X27460915Y-33862810D01*
X27592331Y-33813796D01*
X27707546Y-33727546D01*
X27793796Y-33612331D01*
X27797960Y-33601165D01*
X27839829Y-33545234D01*
X27905293Y-33520816D01*
X27914141Y-33520500D01*
X29554218Y-33520500D01*
X29621257Y-33540185D01*
X29641899Y-33556819D01*
X30463181Y-34378101D01*
X30496666Y-34439424D01*
X30499500Y-34465782D01*
X30499500Y-48598541D01*
X30499500Y-48598543D01*
X30499499Y-48598543D01*
X30537947Y-48791829D01*
X30537950Y-48791839D01*
X30613364Y-48973907D01*
X30613370Y-48973918D01*
X30650093Y-49028878D01*
X30670970Y-49095555D01*
X30652485Y-49162935D01*
X30600506Y-49209625D01*
X30571182Y-49219385D01*
X30516508Y-49230260D01*
X30516502Y-49230262D01*
X30370824Y-49290604D01*
X30370814Y-49290609D01*
X30239711Y-49378210D01*
X30239707Y-49378213D01*
X28704741Y-50913181D01*
X28643418Y-50946666D01*
X28617060Y-50949500D01*
X27888489Y-50949500D01*
X27821450Y-50929815D01*
X27775695Y-50877011D01*
X27765751Y-50807853D01*
X27794776Y-50744297D01*
X27801491Y-50738133D01*
X27801717Y-50735270D01*
X27169408Y-50102962D01*
X27232993Y-50085925D01*
X27347007Y-50020099D01*
X27440099Y-49927007D01*
X27505925Y-49812993D01*
X27522962Y-49749409D01*
X28155270Y-50381717D01*
X28155270Y-50381716D01*
X28194622Y-50327554D01*
X28291095Y-50138217D01*
X28356757Y-49936130D01*
X28356757Y-49936127D01*
X28390000Y-49726246D01*
X28390000Y-49513753D01*
X28356757Y-49303872D01*
X28356757Y-49303869D01*
X28291095Y-49101782D01*
X28194624Y-48912449D01*
X28155270Y-48858282D01*
X28155269Y-48858282D01*
X27522962Y-49490590D01*
X27505925Y-49427007D01*
X27440099Y-49312993D01*
X27347007Y-49219901D01*
X27232993Y-49154075D01*
X27169409Y-49137037D01*
X27801716Y-48504728D01*
X27747547Y-48465373D01*
X27747547Y-48465372D01*
X27738500Y-48460763D01*
X27687706Y-48412788D01*
X27670912Y-48344966D01*
X27693451Y-48278832D01*
X27738508Y-48239793D01*
X27747816Y-48235051D01*
X27837554Y-48169853D01*
X27919786Y-48110109D01*
X27919788Y-48110106D01*
X27919792Y-48110104D01*
X28070104Y-47959792D01*
X28070106Y-47959788D01*
X28070109Y-47959786D01*
X28195048Y-47787820D01*
X28195047Y-47787820D01*
X28195051Y-47787816D01*
X28291557Y-47598412D01*
X28357246Y-47396243D01*
X28390500Y-47186287D01*
X28390500Y-46973713D01*
X28357246Y-46763757D01*
X28291557Y-46561588D01*
X28195051Y-46372184D01*
X28195049Y-46372181D01*
X28195048Y-46372179D01*
X28070109Y-46200213D01*
X27919786Y-46049890D01*
X27747820Y-45924951D01*
X27747115Y-45924591D01*
X27739054Y-45920485D01*
X27688259Y-45872512D01*
X27671463Y-45804692D01*
X27693999Y-45738556D01*
X27739054Y-45699515D01*
X27747816Y-45695051D01*
X27777249Y-45673667D01*
X27919786Y-45570109D01*
X27919788Y-45570106D01*
X27919792Y-45570104D01*
X28070104Y-45419792D01*
X28070106Y-45419788D01*
X28070109Y-45419786D01*
X28195048Y-45247820D01*
X28195047Y-45247820D01*
X28195051Y-45247816D01*
X28291557Y-45058412D01*
X28357246Y-44856243D01*
X28390500Y-44646287D01*
X28390500Y-44433713D01*
X28357246Y-44223757D01*
X28291557Y-44021588D01*
X28195051Y-43832184D01*
X28195049Y-43832181D01*
X28195048Y-43832179D01*
X28070109Y-43660213D01*
X27919786Y-43509890D01*
X27747820Y-43384951D01*
X27747115Y-43384591D01*
X27739054Y-43380485D01*
X27688259Y-43332512D01*
X27671463Y-43264692D01*
X27693999Y-43198556D01*
X27739054Y-43159515D01*
X27747816Y-43155051D01*
X27769789Y-43139086D01*
X27919786Y-43030109D01*
X27919788Y-43030106D01*
X27919792Y-43030104D01*
X28070104Y-42879792D01*
X28070106Y-42879788D01*
X28070109Y-42879786D01*
X28195048Y-42707820D01*
X28195047Y-42707820D01*
X28195051Y-42707816D01*
X28291557Y-42518412D01*
X28357246Y-42316243D01*
X28390500Y-42106287D01*
X28390500Y-41893713D01*
X28357246Y-41683757D01*
X28291557Y-41481588D01*
X28195051Y-41292184D01*
X28195049Y-41292181D01*
X28195048Y-41292179D01*
X28070109Y-41120213D01*
X27919786Y-40969890D01*
X27747820Y-40844951D01*
X27558414Y-40748444D01*
X27558413Y-40748443D01*
X27558412Y-40748443D01*
X27356243Y-40682754D01*
X27356241Y-40682753D01*
X27356240Y-40682753D01*
X27194957Y-40657208D01*
X27146287Y-40649500D01*
X26933713Y-40649500D01*
X26885042Y-40657208D01*
X26723760Y-40682753D01*
X26521585Y-40748444D01*
X26332179Y-40844951D01*
X26160213Y-40969890D01*
X26009890Y-41120213D01*
X25884949Y-41292182D01*
X25880484Y-41300946D01*
X25832509Y-41351742D01*
X25764688Y-41368536D01*
X25698553Y-41345998D01*
X25659516Y-41300946D01*
X25655050Y-41292182D01*
X25530109Y-41120213D01*
X25379786Y-40969890D01*
X25207820Y-40844951D01*
X25018414Y-40748444D01*
X25018413Y-40748443D01*
X25018412Y-40748443D01*
X24816243Y-40682754D01*
X24816241Y-40682753D01*
X24816240Y-40682753D01*
X24654957Y-40657208D01*
X24606287Y-40649500D01*
X24393713Y-40649500D01*
X24345042Y-40657208D01*
X24183760Y-40682753D01*
X23981585Y-40748444D01*
X23792179Y-40844951D01*
X23620213Y-40969890D01*
X23469890Y-41120213D01*
X23344951Y-41292179D01*
X23248444Y-41481585D01*
X23182753Y-41683760D01*
X23149500Y-41893713D01*
X23149500Y-42106286D01*
X23182753Y-42316239D01*
X23248444Y-42518414D01*
X23344951Y-42707820D01*
X23469890Y-42879786D01*
X23620213Y-43030109D01*
X23792182Y-43155050D01*
X23800946Y-43159516D01*
X23851742Y-43207491D01*
X23868536Y-43275312D01*
X23845998Y-43341447D01*
X23800946Y-43380484D01*
X23792182Y-43384949D01*
X23620213Y-43509890D01*
X23469898Y-43660205D01*
X23469898Y-43660206D01*
X23469896Y-43660208D01*
X23449422Y-43688386D01*
X23394094Y-43731051D01*
X23349106Y-43739500D01*
X22381155Y-43739500D01*
X22226510Y-43770261D01*
X22226498Y-43770264D01*
X22080827Y-43830602D01*
X22080814Y-43830609D01*
X21949711Y-43918210D01*
X21949707Y-43918213D01*
X20809510Y-45058412D01*
X20489711Y-45378211D01*
X20448136Y-45419786D01*
X20378209Y-45489712D01*
X20290609Y-45620814D01*
X20290602Y-45620827D01*
X20249061Y-45721119D01*
X20205220Y-45775523D01*
X20138926Y-45797588D01*
X20071227Y-45780309D01*
X20023616Y-45729172D01*
X20010500Y-45673667D01*
X20010500Y-24884603D01*
X23239500Y-24884603D01*
X23239500Y-25115396D01*
X23260795Y-25277139D01*
X23269623Y-25344193D01*
X23280995Y-25386632D01*
X23329353Y-25567110D01*
X23417665Y-25780313D01*
X23417669Y-25780323D01*
X23533056Y-25980179D01*
X23673544Y-26163267D01*
X23673550Y-26163274D01*
X23836725Y-26326449D01*
X23836732Y-26326455D01*
X24019820Y-26466943D01*
X24219676Y-26582330D01*
X24219677Y-26582330D01*
X24219680Y-26582332D01*
X24311121Y-26620208D01*
X24432889Y-26670646D01*
X24432890Y-26670646D01*
X24432892Y-26670647D01*
X24655807Y-26730377D01*
X24884611Y-26760500D01*
X24884618Y-26760500D01*
X25115382Y-26760500D01*
X25115389Y-26760500D01*
X25344193Y-26730377D01*
X25567108Y-26670647D01*
X25780320Y-26582332D01*
X25980180Y-26466943D01*
X26163269Y-26326454D01*
X26326454Y-26163269D01*
X26466943Y-25980180D01*
X26582332Y-25780320D01*
X26670647Y-25567108D01*
X26730377Y-25344193D01*
X26760500Y-25115389D01*
X26760500Y-24884611D01*
X26730377Y-24655807D01*
X26670647Y-24432892D01*
X26582332Y-24219680D01*
X26491369Y-24062128D01*
X26466943Y-24019820D01*
X26326455Y-23836732D01*
X26326449Y-23836725D01*
X26163274Y-23673550D01*
X26163267Y-23673544D01*
X25980179Y-23533056D01*
X25780323Y-23417669D01*
X25780313Y-23417665D01*
X25567110Y-23329353D01*
X25434885Y-23293924D01*
X25344193Y-23269623D01*
X25293347Y-23262929D01*
X25115396Y-23239500D01*
X25115389Y-23239500D01*
X24884611Y-23239500D01*
X24884603Y-23239500D01*
X24681229Y-23266276D01*
X24655807Y-23269623D01*
X24602133Y-23284005D01*
X24432889Y-23329353D01*
X24219686Y-23417665D01*
X24219676Y-23417669D01*
X24019820Y-23533056D01*
X23836732Y-23673544D01*
X23836725Y-23673550D01*
X23673550Y-23836725D01*
X23673544Y-23836732D01*
X23533056Y-24019820D01*
X23417669Y-24219676D01*
X23417665Y-24219686D01*
X23329353Y-24432889D01*
X23269623Y-24655808D01*
X23239500Y-24884603D01*
X20010500Y-24884603D01*
X20010500Y-20134500D01*
X20030185Y-20067461D01*
X20082989Y-20021706D01*
X20134500Y-20010500D01*
X38626000Y-20010500D01*
X38693039Y-20030185D01*
G37*
%TD.AperFunction*%
%TA.AperFunction,Conductor*%
G36*
X26574075Y-49812993D02*
G01*
X26639901Y-49927007D01*
X26732993Y-50020099D01*
X26847007Y-50085925D01*
X26910590Y-50102962D01*
X26278282Y-50735269D01*
X26278976Y-50744091D01*
X26307061Y-50780512D01*
X26313040Y-50850125D01*
X26280434Y-50911920D01*
X26219595Y-50946278D01*
X26191510Y-50949500D01*
X25863974Y-50949500D01*
X25796935Y-50929815D01*
X25751180Y-50877011D01*
X25741236Y-50807853D01*
X25764707Y-50751189D01*
X25770020Y-50744091D01*
X25793796Y-50712331D01*
X25844091Y-50577483D01*
X25850500Y-50517873D01*
X25850499Y-50507312D01*
X25870179Y-50440275D01*
X25886818Y-50419626D01*
X26557037Y-49749408D01*
X26574075Y-49812993D01*
G37*
%TD.AperFunction*%
%TA.AperFunction,Conductor*%
G36*
X25841444Y-47733999D02*
G01*
X25880486Y-47779056D01*
X25884951Y-47787820D01*
X26009890Y-47959786D01*
X26160213Y-48110109D01*
X26332179Y-48235048D01*
X26332181Y-48235049D01*
X26332184Y-48235051D01*
X26341493Y-48239794D01*
X26392290Y-48287766D01*
X26409087Y-48355587D01*
X26386552Y-48421722D01*
X26341505Y-48460760D01*
X26332446Y-48465376D01*
X26332440Y-48465380D01*
X26278282Y-48504727D01*
X26278282Y-48504728D01*
X26910591Y-49137037D01*
X26847007Y-49154075D01*
X26732993Y-49219901D01*
X26639901Y-49312993D01*
X26574075Y-49427007D01*
X26557037Y-49490591D01*
X25886818Y-48820372D01*
X25853333Y-48759049D01*
X25850499Y-48732691D01*
X25850499Y-48722129D01*
X25850498Y-48722123D01*
X25850497Y-48722116D01*
X25844091Y-48662517D01*
X25836965Y-48643412D01*
X25793797Y-48527671D01*
X25793793Y-48527664D01*
X25707547Y-48412455D01*
X25707544Y-48412452D01*
X25592335Y-48326206D01*
X25592328Y-48326202D01*
X25460917Y-48277189D01*
X25404983Y-48235318D01*
X25380566Y-48169853D01*
X25395418Y-48101580D01*
X25416563Y-48073332D01*
X25530104Y-47959792D01*
X25546326Y-47937465D01*
X25655048Y-47787820D01*
X25655047Y-47787820D01*
X25655051Y-47787816D01*
X25659514Y-47779054D01*
X25707488Y-47728259D01*
X25775308Y-47711463D01*
X25841444Y-47733999D01*
G37*
%TD.AperFunction*%
%TD*%
M02*
