M48
; DRILL file {KiCad 9.0.9-1.fc43} date 2026-05-19T20:22:37+0200
; FORMAT={-:-/ absolute / metric / decimal}
; #@! TF.CreationDate,2026-05-19T20:22:37+02:00
; #@! TF.GenerationSoftware,Kicad,Pcbnew,9.0.9-1.fc43
; #@! TF.FileFunction,Plated,1,2,PTH
FMAT,2
METRIC
; #@! TA.AperFunction,Plated,PTH,ViaDrill
T1C0.300
; #@! TA.AperFunction,Plated,PTH,ViaDrill
T2C0.500
; #@! TA.AperFunction,Plated,PTH,ComponentDrill
T3C0.950
; #@! TA.AperFunction,Plated,PTH,ComponentDrill
T4C1.000
; #@! TA.AperFunction,Plated,PTH,ComponentDrill
T5C1.500
; #@! TA.AperFunction,Plated,PTH,ComponentDrill
T6C2.000
%
G90
G05
T1
X43.75Y-66.25
X51.75Y-24.5
X62.75Y-66.25
X68.0Y-24.5
X70.75Y-24.5
X76.35Y-26.25
X81.75Y-66.25
X87.0Y-24.5
X89.75Y-24.5
X95.4Y-31.65
X95.5Y-38.0
X100.75Y-66.25
X106.0Y-24.5
X108.75Y-24.5
X114.5Y-32.5
X114.5Y-37.0
X119.75Y-66.25
X125.25Y-24.5
X127.75Y-24.5
X133.5Y-33.75
X133.5Y-36.0
X138.75Y-66.25
X144.0Y-24.5
T2
X27.0Y-54.25
X29.75Y-48.5
X31.5Y-48.5
T3
X152.25Y-48.0
X152.25Y-55.75
X154.75Y-48.0
X154.75Y-55.75
X157.25Y-48.0
X157.25Y-55.75
T4
X24.5Y-42.0
X24.5Y-44.54
X24.5Y-47.08
X24.5Y-49.62
X26.5Y-32.52
X26.5Y-35.06
X26.5Y-37.6
X27.04Y-42.0
X27.04Y-44.54
X27.04Y-47.08
X27.04Y-49.62
X43.21Y-24.96
X43.21Y-27.5
X43.21Y-30.04
X43.21Y-32.58
X43.21Y-35.12
X43.21Y-37.66
X45.75Y-24.96
X45.75Y-27.5
X45.75Y-30.04
X45.75Y-32.58
X45.75Y-35.12
X45.75Y-37.66
X57.3Y-22.5
X59.8Y-22.5
X62.3Y-22.5
X76.35Y-22.5
X78.85Y-22.5
X81.35Y-22.5
X95.4Y-22.5
X97.9Y-22.5
X100.4Y-22.5
X114.45Y-22.5
X116.95Y-22.5
X119.45Y-22.5
X133.5Y-22.5
X136.0Y-22.5
X138.5Y-22.5
X154.75Y-32.118
X154.75Y-37.118
T5
X36.965Y-55.505
X43.315Y-52.965
X56.015Y-55.505
X62.365Y-52.965
X75.065Y-55.505
X81.415Y-52.965
X94.115Y-55.505
X100.465Y-52.965
X113.165Y-55.505
X119.515Y-52.965
X132.215Y-55.505
X138.565Y-52.965
T6
G00X54.2Y-29.45
M15
G01X54.2Y-30.55
M16
G05
G00X65.4Y-29.45
M15
G01X65.4Y-30.55
M16
G05
G00X73.25Y-29.45
M15
G01X73.25Y-30.55
M16
G05
G00X84.45Y-29.45
M15
G01X84.45Y-30.55
M16
G05
G00X92.3Y-29.45
M15
G01X92.3Y-30.55
M16
G05
G00X103.5Y-29.45
M15
G01X103.5Y-30.55
M16
G05
G00X111.35Y-29.45
M15
G01X111.35Y-30.55
M16
G05
G00X122.55Y-29.45
M15
G01X122.55Y-30.55
M16
G05
G00X130.4Y-29.45
M15
G01X130.4Y-30.55
M16
G05
G00X141.6Y-29.45
M15
G01X141.6Y-30.55
M16
G05
M30
