%TF.GenerationSoftware,KiCad,Pcbnew,9.0.9-1.fc43*%
%TF.CreationDate,2026-05-19T20:22:29+02:00*%
%TF.ProjectId,Fader_taster_6x2_encoder_5x2,46616465-725f-4746-9173-7465725f3678,rev?*%
%TF.SameCoordinates,Original*%
%TF.FileFunction,Soldermask,Top*%
%TF.FilePolarity,Negative*%
%FSLAX46Y46*%
G04 Gerber Fmt 4.6, Leading zero omitted, Abs format (unit mm)*
G04 Created by KiCad (PCBNEW 9.0.9-1.fc43) date 2026-05-19 20:22:29*
%MOMM*%
%LPD*%
G01*
G04 APERTURE LIST*
G04 Aperture macros list*
%AMRoundRect*
0 Rectangle with rounded corners*
0 $1 Rounding radius*
0 $2 $3 $4 $5 $6 $7 $8 $9 X,Y pos of 4 corners*
0 Add a 4 corners polygon primitive as box body*
4,1,4,$2,$3,$4,$5,$6,$7,$8,$9,$2,$3,0*
0 Add four circle primitives for the rounded corners*
1,1,$1+$1,$2,$3*
1,1,$1+$1,$4,$5*
1,1,$1+$1,$6,$7*
1,1,$1+$1,$8,$9*
0 Add four rect primitives between the rounded corners*
20,1,$1+$1,$2,$3,$4,$5,0*
20,1,$1+$1,$4,$5,$6,$7,0*
20,1,$1+$1,$6,$7,$8,$9,0*
20,1,$1+$1,$8,$9,$2,$3,0*%
G04 Aperture macros list end*
%ADD10RoundRect,0.250000X0.750000X-0.750000X0.750000X0.750000X-0.750000X0.750000X-0.750000X-0.750000X0*%
%ADD11C,2.000000*%
%ADD12R,1.700000X1.700000*%
%ADD13C,1.700000*%
%ADD14C,4.000000*%
%ADD15C,2.200000*%
%ADD16RoundRect,0.250000X-0.550000X0.550000X-0.550000X-0.550000X0.550000X-0.550000X0.550000X0.550000X0*%
%ADD17C,1.600000*%
%ADD18O,3.000000X4.100000*%
%ADD19RoundRect,0.250000X0.600000X0.725000X-0.600000X0.725000X-0.600000X-0.725000X0.600000X-0.725000X0*%
%ADD20O,1.700000X1.950000*%
G04 APERTURE END LIST*
D10*
%TO.C,C17*%
X154750000Y-37117677D03*
D11*
X154750000Y-32117677D03*
%TD*%
D12*
%TO.C,J2*%
X26500000Y-32520000D03*
D13*
X26500000Y-35060000D03*
X26500000Y-37600000D03*
%TD*%
D14*
%TO.C,SW11*%
X136025000Y-58045000D03*
D15*
X138565000Y-52965000D03*
X132215000Y-55505000D03*
%TD*%
D14*
%TO.C,SW10*%
X116975000Y-58045000D03*
D15*
X119515000Y-52965000D03*
X113165000Y-55505000D03*
%TD*%
D14*
%TO.C,SW9*%
X97925000Y-58045000D03*
D15*
X100465000Y-52965000D03*
X94115000Y-55505000D03*
%TD*%
D14*
%TO.C,SW8*%
X78875000Y-58045000D03*
D15*
X81415000Y-52965000D03*
X75065000Y-55505000D03*
%TD*%
D14*
%TO.C,SW7*%
X59825000Y-58045000D03*
D15*
X62365000Y-52965000D03*
X56015000Y-55505000D03*
%TD*%
D14*
%TO.C,SW6*%
X40775000Y-58045000D03*
D15*
X43315000Y-52965000D03*
X36965000Y-55505000D03*
%TD*%
D16*
%TO.C,SW5*%
X138500000Y-22500000D03*
D17*
X133500000Y-22500000D03*
X136000000Y-22500000D03*
D18*
X141600000Y-30000000D03*
X130400000Y-30000000D03*
%TD*%
D16*
%TO.C,SW4*%
X119450000Y-22500000D03*
D17*
X114450000Y-22500000D03*
X116950000Y-22500000D03*
D18*
X122550000Y-30000000D03*
X111350000Y-30000000D03*
%TD*%
D16*
%TO.C,SW3*%
X100400000Y-22500000D03*
D17*
X95400000Y-22500000D03*
X97900000Y-22500000D03*
D18*
X103500000Y-30000000D03*
X92300000Y-30000000D03*
%TD*%
D16*
%TO.C,SW2*%
X81350000Y-22500000D03*
D17*
X76350000Y-22500000D03*
X78850000Y-22500000D03*
D18*
X84450000Y-30000000D03*
X73250000Y-30000000D03*
%TD*%
D16*
%TO.C,SW1*%
X62300000Y-22500000D03*
D17*
X57300000Y-22500000D03*
X59800000Y-22500000D03*
D18*
X65400000Y-30000000D03*
X54200000Y-30000000D03*
%TD*%
D19*
%TO.C,J5*%
X157250000Y-48000000D03*
D20*
X154750000Y-48000000D03*
X152250000Y-48000000D03*
%TD*%
D19*
%TO.C,J4*%
X157250000Y-55750000D03*
D20*
X154750000Y-55750000D03*
X152250000Y-55750000D03*
%TD*%
D12*
%TO.C,J3*%
X24500000Y-49620000D03*
D13*
X27040000Y-49620000D03*
X24500000Y-47080000D03*
X27040000Y-47080000D03*
X24500000Y-44540000D03*
X27040000Y-44540000D03*
X24500000Y-42000000D03*
X27040000Y-42000000D03*
%TD*%
D12*
%TO.C,J1*%
X45750000Y-24960000D03*
D13*
X43210000Y-24960000D03*
X45750000Y-27500000D03*
X43210000Y-27500000D03*
X45750000Y-30040000D03*
X43210000Y-30040000D03*
X45750000Y-32580000D03*
X43210000Y-32580000D03*
X45750000Y-35120000D03*
X43210000Y-35120000D03*
X45750000Y-37660000D03*
X43210000Y-37660000D03*
%TD*%
M02*
