%TF.GenerationSoftware,KiCad,Pcbnew,9.0.9-1.fc43*%
%TF.CreationDate,2026-05-19T20:22:29+02:00*%
%TF.ProjectId,Fader_taster_6x2_encoder_5x2,46616465-725f-4746-9173-7465725f3678,rev?*%
%TF.SameCoordinates,Original*%
%TF.FileFunction,Legend,Bot*%
%TF.FilePolarity,Positive*%
%FSLAX46Y46*%
G04 Gerber Fmt 4.6, Leading zero omitted, Abs format (unit mm)*
G04 Created by KiCad (PCBNEW 9.0.9-1.fc43) date 2026-05-19 20:22:29*
%MOMM*%
%LPD*%
G01*
G04 APERTURE LIST*
%ADD10C,0.100000*%
%ADD11C,0.150000*%
%ADD12C,0.120000*%
%ADD13C,0.050000*%
G04 APERTURE END LIST*
D10*
X158694925Y-44372419D02*
X159171115Y-44372419D01*
X159171115Y-44372419D02*
X159171115Y-43372419D01*
X158361591Y-43848609D02*
X158028258Y-43848609D01*
X157885401Y-44372419D02*
X158361591Y-44372419D01*
X158361591Y-44372419D02*
X158361591Y-43372419D01*
X158361591Y-43372419D02*
X157885401Y-43372419D01*
X157456829Y-44372419D02*
X157456829Y-43372419D01*
X157456829Y-43372419D02*
X157218734Y-43372419D01*
X157218734Y-43372419D02*
X157075877Y-43420038D01*
X157075877Y-43420038D02*
X156980639Y-43515276D01*
X156980639Y-43515276D02*
X156933020Y-43610514D01*
X156933020Y-43610514D02*
X156885401Y-43800990D01*
X156885401Y-43800990D02*
X156885401Y-43943847D01*
X156885401Y-43943847D02*
X156933020Y-44134323D01*
X156933020Y-44134323D02*
X156980639Y-44229561D01*
X156980639Y-44229561D02*
X157075877Y-44324800D01*
X157075877Y-44324800D02*
X157218734Y-44372419D01*
X157218734Y-44372419D02*
X157456829Y-44372419D01*
X156694925Y-44467657D02*
X155933020Y-44467657D01*
X155694924Y-44372419D02*
X155694924Y-43372419D01*
X155218734Y-44372419D02*
X155218734Y-43372419D01*
X155218734Y-43372419D02*
X154647306Y-44372419D01*
X154647306Y-44372419D02*
X154647306Y-43372419D01*
X158469925Y-61372419D02*
X158946115Y-61372419D01*
X158946115Y-61372419D02*
X158946115Y-60372419D01*
X158136591Y-60848609D02*
X157803258Y-60848609D01*
X157660401Y-61372419D02*
X158136591Y-61372419D01*
X158136591Y-61372419D02*
X158136591Y-60372419D01*
X158136591Y-60372419D02*
X157660401Y-60372419D01*
X157231829Y-61372419D02*
X157231829Y-60372419D01*
X157231829Y-60372419D02*
X156993734Y-60372419D01*
X156993734Y-60372419D02*
X156850877Y-60420038D01*
X156850877Y-60420038D02*
X156755639Y-60515276D01*
X156755639Y-60515276D02*
X156708020Y-60610514D01*
X156708020Y-60610514D02*
X156660401Y-60800990D01*
X156660401Y-60800990D02*
X156660401Y-60943847D01*
X156660401Y-60943847D02*
X156708020Y-61134323D01*
X156708020Y-61134323D02*
X156755639Y-61229561D01*
X156755639Y-61229561D02*
X156850877Y-61324800D01*
X156850877Y-61324800D02*
X156993734Y-61372419D01*
X156993734Y-61372419D02*
X157231829Y-61372419D01*
X156469925Y-61467657D02*
X155708020Y-61467657D01*
X155279448Y-60372419D02*
X155088972Y-60372419D01*
X155088972Y-60372419D02*
X154993734Y-60420038D01*
X154993734Y-60420038D02*
X154898496Y-60515276D01*
X154898496Y-60515276D02*
X154850877Y-60705752D01*
X154850877Y-60705752D02*
X154850877Y-61039085D01*
X154850877Y-61039085D02*
X154898496Y-61229561D01*
X154898496Y-61229561D02*
X154993734Y-61324800D01*
X154993734Y-61324800D02*
X155088972Y-61372419D01*
X155088972Y-61372419D02*
X155279448Y-61372419D01*
X155279448Y-61372419D02*
X155374686Y-61324800D01*
X155374686Y-61324800D02*
X155469924Y-61229561D01*
X155469924Y-61229561D02*
X155517543Y-61039085D01*
X155517543Y-61039085D02*
X155517543Y-60705752D01*
X155517543Y-60705752D02*
X155469924Y-60515276D01*
X155469924Y-60515276D02*
X155374686Y-60420038D01*
X155374686Y-60420038D02*
X155279448Y-60372419D01*
X154422305Y-60372419D02*
X154422305Y-61181942D01*
X154422305Y-61181942D02*
X154374686Y-61277180D01*
X154374686Y-61277180D02*
X154327067Y-61324800D01*
X154327067Y-61324800D02*
X154231829Y-61372419D01*
X154231829Y-61372419D02*
X154041353Y-61372419D01*
X154041353Y-61372419D02*
X153946115Y-61324800D01*
X153946115Y-61324800D02*
X153898496Y-61277180D01*
X153898496Y-61277180D02*
X153850877Y-61181942D01*
X153850877Y-61181942D02*
X153850877Y-60372419D01*
X153517543Y-60372419D02*
X152946115Y-60372419D01*
X153231829Y-61372419D02*
X153231829Y-60372419D01*
D11*
X148859580Y-33974819D02*
X148907200Y-33927200D01*
X148907200Y-33927200D02*
X148954819Y-33784343D01*
X148954819Y-33784343D02*
X148954819Y-33689105D01*
X148954819Y-33689105D02*
X148907200Y-33546248D01*
X148907200Y-33546248D02*
X148811961Y-33451010D01*
X148811961Y-33451010D02*
X148716723Y-33403391D01*
X148716723Y-33403391D02*
X148526247Y-33355772D01*
X148526247Y-33355772D02*
X148383390Y-33355772D01*
X148383390Y-33355772D02*
X148192914Y-33403391D01*
X148192914Y-33403391D02*
X148097676Y-33451010D01*
X148097676Y-33451010D02*
X148002438Y-33546248D01*
X148002438Y-33546248D02*
X147954819Y-33689105D01*
X147954819Y-33689105D02*
X147954819Y-33784343D01*
X147954819Y-33784343D02*
X148002438Y-33927200D01*
X148002438Y-33927200D02*
X148050057Y-33974819D01*
X148954819Y-34927200D02*
X148954819Y-34355772D01*
X148954819Y-34641486D02*
X147954819Y-34641486D01*
X147954819Y-34641486D02*
X148097676Y-34546248D01*
X148097676Y-34546248D02*
X148192914Y-34451010D01*
X148192914Y-34451010D02*
X148240533Y-34355772D01*
X147954819Y-35260534D02*
X147954819Y-35927200D01*
X147954819Y-35927200D02*
X148954819Y-35498629D01*
X26833333Y-29594819D02*
X26833333Y-30309104D01*
X26833333Y-30309104D02*
X26880952Y-30451961D01*
X26880952Y-30451961D02*
X26976190Y-30547200D01*
X26976190Y-30547200D02*
X27119047Y-30594819D01*
X27119047Y-30594819D02*
X27214285Y-30594819D01*
X26404761Y-29690057D02*
X26357142Y-29642438D01*
X26357142Y-29642438D02*
X26261904Y-29594819D01*
X26261904Y-29594819D02*
X26023809Y-29594819D01*
X26023809Y-29594819D02*
X25928571Y-29642438D01*
X25928571Y-29642438D02*
X25880952Y-29690057D01*
X25880952Y-29690057D02*
X25833333Y-29785295D01*
X25833333Y-29785295D02*
X25833333Y-29880533D01*
X25833333Y-29880533D02*
X25880952Y-30023390D01*
X25880952Y-30023390D02*
X26452380Y-30594819D01*
X26452380Y-30594819D02*
X25833333Y-30594819D01*
X142392857Y-21359580D02*
X142440476Y-21407200D01*
X142440476Y-21407200D02*
X142583333Y-21454819D01*
X142583333Y-21454819D02*
X142678571Y-21454819D01*
X142678571Y-21454819D02*
X142821428Y-21407200D01*
X142821428Y-21407200D02*
X142916666Y-21311961D01*
X142916666Y-21311961D02*
X142964285Y-21216723D01*
X142964285Y-21216723D02*
X143011904Y-21026247D01*
X143011904Y-21026247D02*
X143011904Y-20883390D01*
X143011904Y-20883390D02*
X142964285Y-20692914D01*
X142964285Y-20692914D02*
X142916666Y-20597676D01*
X142916666Y-20597676D02*
X142821428Y-20502438D01*
X142821428Y-20502438D02*
X142678571Y-20454819D01*
X142678571Y-20454819D02*
X142583333Y-20454819D01*
X142583333Y-20454819D02*
X142440476Y-20502438D01*
X142440476Y-20502438D02*
X142392857Y-20550057D01*
X141440476Y-21454819D02*
X142011904Y-21454819D01*
X141726190Y-21454819D02*
X141726190Y-20454819D01*
X141726190Y-20454819D02*
X141821428Y-20597676D01*
X141821428Y-20597676D02*
X141916666Y-20692914D01*
X141916666Y-20692914D02*
X142011904Y-20740533D01*
X140583333Y-20454819D02*
X140773809Y-20454819D01*
X140773809Y-20454819D02*
X140869047Y-20502438D01*
X140869047Y-20502438D02*
X140916666Y-20550057D01*
X140916666Y-20550057D02*
X141011904Y-20692914D01*
X141011904Y-20692914D02*
X141059523Y-20883390D01*
X141059523Y-20883390D02*
X141059523Y-21264342D01*
X141059523Y-21264342D02*
X141011904Y-21359580D01*
X141011904Y-21359580D02*
X140964285Y-21407200D01*
X140964285Y-21407200D02*
X140869047Y-21454819D01*
X140869047Y-21454819D02*
X140678571Y-21454819D01*
X140678571Y-21454819D02*
X140583333Y-21407200D01*
X140583333Y-21407200D02*
X140535714Y-21359580D01*
X140535714Y-21359580D02*
X140488095Y-21264342D01*
X140488095Y-21264342D02*
X140488095Y-21026247D01*
X140488095Y-21026247D02*
X140535714Y-20931009D01*
X140535714Y-20931009D02*
X140583333Y-20883390D01*
X140583333Y-20883390D02*
X140678571Y-20835771D01*
X140678571Y-20835771D02*
X140869047Y-20835771D01*
X140869047Y-20835771D02*
X140964285Y-20883390D01*
X140964285Y-20883390D02*
X141011904Y-20931009D01*
X141011904Y-20931009D02*
X141059523Y-21026247D01*
X123430357Y-21359580D02*
X123477976Y-21407200D01*
X123477976Y-21407200D02*
X123620833Y-21454819D01*
X123620833Y-21454819D02*
X123716071Y-21454819D01*
X123716071Y-21454819D02*
X123858928Y-21407200D01*
X123858928Y-21407200D02*
X123954166Y-21311961D01*
X123954166Y-21311961D02*
X124001785Y-21216723D01*
X124001785Y-21216723D02*
X124049404Y-21026247D01*
X124049404Y-21026247D02*
X124049404Y-20883390D01*
X124049404Y-20883390D02*
X124001785Y-20692914D01*
X124001785Y-20692914D02*
X123954166Y-20597676D01*
X123954166Y-20597676D02*
X123858928Y-20502438D01*
X123858928Y-20502438D02*
X123716071Y-20454819D01*
X123716071Y-20454819D02*
X123620833Y-20454819D01*
X123620833Y-20454819D02*
X123477976Y-20502438D01*
X123477976Y-20502438D02*
X123430357Y-20550057D01*
X122477976Y-21454819D02*
X123049404Y-21454819D01*
X122763690Y-21454819D02*
X122763690Y-20454819D01*
X122763690Y-20454819D02*
X122858928Y-20597676D01*
X122858928Y-20597676D02*
X122954166Y-20692914D01*
X122954166Y-20692914D02*
X123049404Y-20740533D01*
X121573214Y-20454819D02*
X122049404Y-20454819D01*
X122049404Y-20454819D02*
X122097023Y-20931009D01*
X122097023Y-20931009D02*
X122049404Y-20883390D01*
X122049404Y-20883390D02*
X121954166Y-20835771D01*
X121954166Y-20835771D02*
X121716071Y-20835771D01*
X121716071Y-20835771D02*
X121620833Y-20883390D01*
X121620833Y-20883390D02*
X121573214Y-20931009D01*
X121573214Y-20931009D02*
X121525595Y-21026247D01*
X121525595Y-21026247D02*
X121525595Y-21264342D01*
X121525595Y-21264342D02*
X121573214Y-21359580D01*
X121573214Y-21359580D02*
X121620833Y-21407200D01*
X121620833Y-21407200D02*
X121716071Y-21454819D01*
X121716071Y-21454819D02*
X121954166Y-21454819D01*
X121954166Y-21454819D02*
X122049404Y-21407200D01*
X122049404Y-21407200D02*
X122097023Y-21359580D01*
X104105357Y-21359580D02*
X104152976Y-21407200D01*
X104152976Y-21407200D02*
X104295833Y-21454819D01*
X104295833Y-21454819D02*
X104391071Y-21454819D01*
X104391071Y-21454819D02*
X104533928Y-21407200D01*
X104533928Y-21407200D02*
X104629166Y-21311961D01*
X104629166Y-21311961D02*
X104676785Y-21216723D01*
X104676785Y-21216723D02*
X104724404Y-21026247D01*
X104724404Y-21026247D02*
X104724404Y-20883390D01*
X104724404Y-20883390D02*
X104676785Y-20692914D01*
X104676785Y-20692914D02*
X104629166Y-20597676D01*
X104629166Y-20597676D02*
X104533928Y-20502438D01*
X104533928Y-20502438D02*
X104391071Y-20454819D01*
X104391071Y-20454819D02*
X104295833Y-20454819D01*
X104295833Y-20454819D02*
X104152976Y-20502438D01*
X104152976Y-20502438D02*
X104105357Y-20550057D01*
X103152976Y-21454819D02*
X103724404Y-21454819D01*
X103438690Y-21454819D02*
X103438690Y-20454819D01*
X103438690Y-20454819D02*
X103533928Y-20597676D01*
X103533928Y-20597676D02*
X103629166Y-20692914D01*
X103629166Y-20692914D02*
X103724404Y-20740533D01*
X102295833Y-20788152D02*
X102295833Y-21454819D01*
X102533928Y-20407200D02*
X102772023Y-21121485D01*
X102772023Y-21121485D02*
X102152976Y-21121485D01*
X85105357Y-21359580D02*
X85152976Y-21407200D01*
X85152976Y-21407200D02*
X85295833Y-21454819D01*
X85295833Y-21454819D02*
X85391071Y-21454819D01*
X85391071Y-21454819D02*
X85533928Y-21407200D01*
X85533928Y-21407200D02*
X85629166Y-21311961D01*
X85629166Y-21311961D02*
X85676785Y-21216723D01*
X85676785Y-21216723D02*
X85724404Y-21026247D01*
X85724404Y-21026247D02*
X85724404Y-20883390D01*
X85724404Y-20883390D02*
X85676785Y-20692914D01*
X85676785Y-20692914D02*
X85629166Y-20597676D01*
X85629166Y-20597676D02*
X85533928Y-20502438D01*
X85533928Y-20502438D02*
X85391071Y-20454819D01*
X85391071Y-20454819D02*
X85295833Y-20454819D01*
X85295833Y-20454819D02*
X85152976Y-20502438D01*
X85152976Y-20502438D02*
X85105357Y-20550057D01*
X84152976Y-21454819D02*
X84724404Y-21454819D01*
X84438690Y-21454819D02*
X84438690Y-20454819D01*
X84438690Y-20454819D02*
X84533928Y-20597676D01*
X84533928Y-20597676D02*
X84629166Y-20692914D01*
X84629166Y-20692914D02*
X84724404Y-20740533D01*
X83819642Y-20454819D02*
X83200595Y-20454819D01*
X83200595Y-20454819D02*
X83533928Y-20835771D01*
X83533928Y-20835771D02*
X83391071Y-20835771D01*
X83391071Y-20835771D02*
X83295833Y-20883390D01*
X83295833Y-20883390D02*
X83248214Y-20931009D01*
X83248214Y-20931009D02*
X83200595Y-21026247D01*
X83200595Y-21026247D02*
X83200595Y-21264342D01*
X83200595Y-21264342D02*
X83248214Y-21359580D01*
X83248214Y-21359580D02*
X83295833Y-21407200D01*
X83295833Y-21407200D02*
X83391071Y-21454819D01*
X83391071Y-21454819D02*
X83676785Y-21454819D01*
X83676785Y-21454819D02*
X83772023Y-21407200D01*
X83772023Y-21407200D02*
X83819642Y-21359580D01*
X66105357Y-21359580D02*
X66152976Y-21407200D01*
X66152976Y-21407200D02*
X66295833Y-21454819D01*
X66295833Y-21454819D02*
X66391071Y-21454819D01*
X66391071Y-21454819D02*
X66533928Y-21407200D01*
X66533928Y-21407200D02*
X66629166Y-21311961D01*
X66629166Y-21311961D02*
X66676785Y-21216723D01*
X66676785Y-21216723D02*
X66724404Y-21026247D01*
X66724404Y-21026247D02*
X66724404Y-20883390D01*
X66724404Y-20883390D02*
X66676785Y-20692914D01*
X66676785Y-20692914D02*
X66629166Y-20597676D01*
X66629166Y-20597676D02*
X66533928Y-20502438D01*
X66533928Y-20502438D02*
X66391071Y-20454819D01*
X66391071Y-20454819D02*
X66295833Y-20454819D01*
X66295833Y-20454819D02*
X66152976Y-20502438D01*
X66152976Y-20502438D02*
X66105357Y-20550057D01*
X65152976Y-21454819D02*
X65724404Y-21454819D01*
X65438690Y-21454819D02*
X65438690Y-20454819D01*
X65438690Y-20454819D02*
X65533928Y-20597676D01*
X65533928Y-20597676D02*
X65629166Y-20692914D01*
X65629166Y-20692914D02*
X65724404Y-20740533D01*
X64772023Y-20550057D02*
X64724404Y-20502438D01*
X64724404Y-20502438D02*
X64629166Y-20454819D01*
X64629166Y-20454819D02*
X64391071Y-20454819D01*
X64391071Y-20454819D02*
X64295833Y-20502438D01*
X64295833Y-20502438D02*
X64248214Y-20550057D01*
X64248214Y-20550057D02*
X64200595Y-20645295D01*
X64200595Y-20645295D02*
X64200595Y-20740533D01*
X64200595Y-20740533D02*
X64248214Y-20883390D01*
X64248214Y-20883390D02*
X64819642Y-21454819D01*
X64819642Y-21454819D02*
X64200595Y-21454819D01*
X130892857Y-21359580D02*
X130940476Y-21407200D01*
X130940476Y-21407200D02*
X131083333Y-21454819D01*
X131083333Y-21454819D02*
X131178571Y-21454819D01*
X131178571Y-21454819D02*
X131321428Y-21407200D01*
X131321428Y-21407200D02*
X131416666Y-21311961D01*
X131416666Y-21311961D02*
X131464285Y-21216723D01*
X131464285Y-21216723D02*
X131511904Y-21026247D01*
X131511904Y-21026247D02*
X131511904Y-20883390D01*
X131511904Y-20883390D02*
X131464285Y-20692914D01*
X131464285Y-20692914D02*
X131416666Y-20597676D01*
X131416666Y-20597676D02*
X131321428Y-20502438D01*
X131321428Y-20502438D02*
X131178571Y-20454819D01*
X131178571Y-20454819D02*
X131083333Y-20454819D01*
X131083333Y-20454819D02*
X130940476Y-20502438D01*
X130940476Y-20502438D02*
X130892857Y-20550057D01*
X129940476Y-21454819D02*
X130511904Y-21454819D01*
X130226190Y-21454819D02*
X130226190Y-20454819D01*
X130226190Y-20454819D02*
X130321428Y-20597676D01*
X130321428Y-20597676D02*
X130416666Y-20692914D01*
X130416666Y-20692914D02*
X130511904Y-20740533D01*
X128988095Y-21454819D02*
X129559523Y-21454819D01*
X129273809Y-21454819D02*
X129273809Y-20454819D01*
X129273809Y-20454819D02*
X129369047Y-20597676D01*
X129369047Y-20597676D02*
X129464285Y-20692914D01*
X129464285Y-20692914D02*
X129559523Y-20740533D01*
X111892857Y-21359580D02*
X111940476Y-21407200D01*
X111940476Y-21407200D02*
X112083333Y-21454819D01*
X112083333Y-21454819D02*
X112178571Y-21454819D01*
X112178571Y-21454819D02*
X112321428Y-21407200D01*
X112321428Y-21407200D02*
X112416666Y-21311961D01*
X112416666Y-21311961D02*
X112464285Y-21216723D01*
X112464285Y-21216723D02*
X112511904Y-21026247D01*
X112511904Y-21026247D02*
X112511904Y-20883390D01*
X112511904Y-20883390D02*
X112464285Y-20692914D01*
X112464285Y-20692914D02*
X112416666Y-20597676D01*
X112416666Y-20597676D02*
X112321428Y-20502438D01*
X112321428Y-20502438D02*
X112178571Y-20454819D01*
X112178571Y-20454819D02*
X112083333Y-20454819D01*
X112083333Y-20454819D02*
X111940476Y-20502438D01*
X111940476Y-20502438D02*
X111892857Y-20550057D01*
X110940476Y-21454819D02*
X111511904Y-21454819D01*
X111226190Y-21454819D02*
X111226190Y-20454819D01*
X111226190Y-20454819D02*
X111321428Y-20597676D01*
X111321428Y-20597676D02*
X111416666Y-20692914D01*
X111416666Y-20692914D02*
X111511904Y-20740533D01*
X110321428Y-20454819D02*
X110226190Y-20454819D01*
X110226190Y-20454819D02*
X110130952Y-20502438D01*
X110130952Y-20502438D02*
X110083333Y-20550057D01*
X110083333Y-20550057D02*
X110035714Y-20645295D01*
X110035714Y-20645295D02*
X109988095Y-20835771D01*
X109988095Y-20835771D02*
X109988095Y-21073866D01*
X109988095Y-21073866D02*
X110035714Y-21264342D01*
X110035714Y-21264342D02*
X110083333Y-21359580D01*
X110083333Y-21359580D02*
X110130952Y-21407200D01*
X110130952Y-21407200D02*
X110226190Y-21454819D01*
X110226190Y-21454819D02*
X110321428Y-21454819D01*
X110321428Y-21454819D02*
X110416666Y-21407200D01*
X110416666Y-21407200D02*
X110464285Y-21359580D01*
X110464285Y-21359580D02*
X110511904Y-21264342D01*
X110511904Y-21264342D02*
X110559523Y-21073866D01*
X110559523Y-21073866D02*
X110559523Y-20835771D01*
X110559523Y-20835771D02*
X110511904Y-20645295D01*
X110511904Y-20645295D02*
X110464285Y-20550057D01*
X110464285Y-20550057D02*
X110416666Y-20502438D01*
X110416666Y-20502438D02*
X110321428Y-20454819D01*
X92454166Y-21359580D02*
X92501785Y-21407200D01*
X92501785Y-21407200D02*
X92644642Y-21454819D01*
X92644642Y-21454819D02*
X92739880Y-21454819D01*
X92739880Y-21454819D02*
X92882737Y-21407200D01*
X92882737Y-21407200D02*
X92977975Y-21311961D01*
X92977975Y-21311961D02*
X93025594Y-21216723D01*
X93025594Y-21216723D02*
X93073213Y-21026247D01*
X93073213Y-21026247D02*
X93073213Y-20883390D01*
X93073213Y-20883390D02*
X93025594Y-20692914D01*
X93025594Y-20692914D02*
X92977975Y-20597676D01*
X92977975Y-20597676D02*
X92882737Y-20502438D01*
X92882737Y-20502438D02*
X92739880Y-20454819D01*
X92739880Y-20454819D02*
X92644642Y-20454819D01*
X92644642Y-20454819D02*
X92501785Y-20502438D01*
X92501785Y-20502438D02*
X92454166Y-20550057D01*
X91977975Y-21454819D02*
X91787499Y-21454819D01*
X91787499Y-21454819D02*
X91692261Y-21407200D01*
X91692261Y-21407200D02*
X91644642Y-21359580D01*
X91644642Y-21359580D02*
X91549404Y-21216723D01*
X91549404Y-21216723D02*
X91501785Y-21026247D01*
X91501785Y-21026247D02*
X91501785Y-20645295D01*
X91501785Y-20645295D02*
X91549404Y-20550057D01*
X91549404Y-20550057D02*
X91597023Y-20502438D01*
X91597023Y-20502438D02*
X91692261Y-20454819D01*
X91692261Y-20454819D02*
X91882737Y-20454819D01*
X91882737Y-20454819D02*
X91977975Y-20502438D01*
X91977975Y-20502438D02*
X92025594Y-20550057D01*
X92025594Y-20550057D02*
X92073213Y-20645295D01*
X92073213Y-20645295D02*
X92073213Y-20883390D01*
X92073213Y-20883390D02*
X92025594Y-20978628D01*
X92025594Y-20978628D02*
X91977975Y-21026247D01*
X91977975Y-21026247D02*
X91882737Y-21073866D01*
X91882737Y-21073866D02*
X91692261Y-21073866D01*
X91692261Y-21073866D02*
X91597023Y-21026247D01*
X91597023Y-21026247D02*
X91549404Y-20978628D01*
X91549404Y-20978628D02*
X91501785Y-20883390D01*
X73416666Y-21359580D02*
X73464285Y-21407200D01*
X73464285Y-21407200D02*
X73607142Y-21454819D01*
X73607142Y-21454819D02*
X73702380Y-21454819D01*
X73702380Y-21454819D02*
X73845237Y-21407200D01*
X73845237Y-21407200D02*
X73940475Y-21311961D01*
X73940475Y-21311961D02*
X73988094Y-21216723D01*
X73988094Y-21216723D02*
X74035713Y-21026247D01*
X74035713Y-21026247D02*
X74035713Y-20883390D01*
X74035713Y-20883390D02*
X73988094Y-20692914D01*
X73988094Y-20692914D02*
X73940475Y-20597676D01*
X73940475Y-20597676D02*
X73845237Y-20502438D01*
X73845237Y-20502438D02*
X73702380Y-20454819D01*
X73702380Y-20454819D02*
X73607142Y-20454819D01*
X73607142Y-20454819D02*
X73464285Y-20502438D01*
X73464285Y-20502438D02*
X73416666Y-20550057D01*
X72845237Y-20883390D02*
X72940475Y-20835771D01*
X72940475Y-20835771D02*
X72988094Y-20788152D01*
X72988094Y-20788152D02*
X73035713Y-20692914D01*
X73035713Y-20692914D02*
X73035713Y-20645295D01*
X73035713Y-20645295D02*
X72988094Y-20550057D01*
X72988094Y-20550057D02*
X72940475Y-20502438D01*
X72940475Y-20502438D02*
X72845237Y-20454819D01*
X72845237Y-20454819D02*
X72654761Y-20454819D01*
X72654761Y-20454819D02*
X72559523Y-20502438D01*
X72559523Y-20502438D02*
X72511904Y-20550057D01*
X72511904Y-20550057D02*
X72464285Y-20645295D01*
X72464285Y-20645295D02*
X72464285Y-20692914D01*
X72464285Y-20692914D02*
X72511904Y-20788152D01*
X72511904Y-20788152D02*
X72559523Y-20835771D01*
X72559523Y-20835771D02*
X72654761Y-20883390D01*
X72654761Y-20883390D02*
X72845237Y-20883390D01*
X72845237Y-20883390D02*
X72940475Y-20931009D01*
X72940475Y-20931009D02*
X72988094Y-20978628D01*
X72988094Y-20978628D02*
X73035713Y-21073866D01*
X73035713Y-21073866D02*
X73035713Y-21264342D01*
X73035713Y-21264342D02*
X72988094Y-21359580D01*
X72988094Y-21359580D02*
X72940475Y-21407200D01*
X72940475Y-21407200D02*
X72845237Y-21454819D01*
X72845237Y-21454819D02*
X72654761Y-21454819D01*
X72654761Y-21454819D02*
X72559523Y-21407200D01*
X72559523Y-21407200D02*
X72511904Y-21359580D01*
X72511904Y-21359580D02*
X72464285Y-21264342D01*
X72464285Y-21264342D02*
X72464285Y-21073866D01*
X72464285Y-21073866D02*
X72511904Y-20978628D01*
X72511904Y-20978628D02*
X72559523Y-20931009D01*
X72559523Y-20931009D02*
X72654761Y-20883390D01*
X54416666Y-21359580D02*
X54464285Y-21407200D01*
X54464285Y-21407200D02*
X54607142Y-21454819D01*
X54607142Y-21454819D02*
X54702380Y-21454819D01*
X54702380Y-21454819D02*
X54845237Y-21407200D01*
X54845237Y-21407200D02*
X54940475Y-21311961D01*
X54940475Y-21311961D02*
X54988094Y-21216723D01*
X54988094Y-21216723D02*
X55035713Y-21026247D01*
X55035713Y-21026247D02*
X55035713Y-20883390D01*
X55035713Y-20883390D02*
X54988094Y-20692914D01*
X54988094Y-20692914D02*
X54940475Y-20597676D01*
X54940475Y-20597676D02*
X54845237Y-20502438D01*
X54845237Y-20502438D02*
X54702380Y-20454819D01*
X54702380Y-20454819D02*
X54607142Y-20454819D01*
X54607142Y-20454819D02*
X54464285Y-20502438D01*
X54464285Y-20502438D02*
X54416666Y-20550057D01*
X54083332Y-20454819D02*
X53416666Y-20454819D01*
X53416666Y-20454819D02*
X53845237Y-21454819D01*
X136129166Y-68289580D02*
X136176785Y-68337200D01*
X136176785Y-68337200D02*
X136319642Y-68384819D01*
X136319642Y-68384819D02*
X136414880Y-68384819D01*
X136414880Y-68384819D02*
X136557737Y-68337200D01*
X136557737Y-68337200D02*
X136652975Y-68241961D01*
X136652975Y-68241961D02*
X136700594Y-68146723D01*
X136700594Y-68146723D02*
X136748213Y-67956247D01*
X136748213Y-67956247D02*
X136748213Y-67813390D01*
X136748213Y-67813390D02*
X136700594Y-67622914D01*
X136700594Y-67622914D02*
X136652975Y-67527676D01*
X136652975Y-67527676D02*
X136557737Y-67432438D01*
X136557737Y-67432438D02*
X136414880Y-67384819D01*
X136414880Y-67384819D02*
X136319642Y-67384819D01*
X136319642Y-67384819D02*
X136176785Y-67432438D01*
X136176785Y-67432438D02*
X136129166Y-67480057D01*
X135272023Y-67384819D02*
X135462499Y-67384819D01*
X135462499Y-67384819D02*
X135557737Y-67432438D01*
X135557737Y-67432438D02*
X135605356Y-67480057D01*
X135605356Y-67480057D02*
X135700594Y-67622914D01*
X135700594Y-67622914D02*
X135748213Y-67813390D01*
X135748213Y-67813390D02*
X135748213Y-68194342D01*
X135748213Y-68194342D02*
X135700594Y-68289580D01*
X135700594Y-68289580D02*
X135652975Y-68337200D01*
X135652975Y-68337200D02*
X135557737Y-68384819D01*
X135557737Y-68384819D02*
X135367261Y-68384819D01*
X135367261Y-68384819D02*
X135272023Y-68337200D01*
X135272023Y-68337200D02*
X135224404Y-68289580D01*
X135224404Y-68289580D02*
X135176785Y-68194342D01*
X135176785Y-68194342D02*
X135176785Y-67956247D01*
X135176785Y-67956247D02*
X135224404Y-67861009D01*
X135224404Y-67861009D02*
X135272023Y-67813390D01*
X135272023Y-67813390D02*
X135367261Y-67765771D01*
X135367261Y-67765771D02*
X135557737Y-67765771D01*
X135557737Y-67765771D02*
X135652975Y-67813390D01*
X135652975Y-67813390D02*
X135700594Y-67861009D01*
X135700594Y-67861009D02*
X135748213Y-67956247D01*
X117129166Y-68289580D02*
X117176785Y-68337200D01*
X117176785Y-68337200D02*
X117319642Y-68384819D01*
X117319642Y-68384819D02*
X117414880Y-68384819D01*
X117414880Y-68384819D02*
X117557737Y-68337200D01*
X117557737Y-68337200D02*
X117652975Y-68241961D01*
X117652975Y-68241961D02*
X117700594Y-68146723D01*
X117700594Y-68146723D02*
X117748213Y-67956247D01*
X117748213Y-67956247D02*
X117748213Y-67813390D01*
X117748213Y-67813390D02*
X117700594Y-67622914D01*
X117700594Y-67622914D02*
X117652975Y-67527676D01*
X117652975Y-67527676D02*
X117557737Y-67432438D01*
X117557737Y-67432438D02*
X117414880Y-67384819D01*
X117414880Y-67384819D02*
X117319642Y-67384819D01*
X117319642Y-67384819D02*
X117176785Y-67432438D01*
X117176785Y-67432438D02*
X117129166Y-67480057D01*
X116224404Y-67384819D02*
X116700594Y-67384819D01*
X116700594Y-67384819D02*
X116748213Y-67861009D01*
X116748213Y-67861009D02*
X116700594Y-67813390D01*
X116700594Y-67813390D02*
X116605356Y-67765771D01*
X116605356Y-67765771D02*
X116367261Y-67765771D01*
X116367261Y-67765771D02*
X116272023Y-67813390D01*
X116272023Y-67813390D02*
X116224404Y-67861009D01*
X116224404Y-67861009D02*
X116176785Y-67956247D01*
X116176785Y-67956247D02*
X116176785Y-68194342D01*
X116176785Y-68194342D02*
X116224404Y-68289580D01*
X116224404Y-68289580D02*
X116272023Y-68337200D01*
X116272023Y-68337200D02*
X116367261Y-68384819D01*
X116367261Y-68384819D02*
X116605356Y-68384819D01*
X116605356Y-68384819D02*
X116700594Y-68337200D01*
X116700594Y-68337200D02*
X116748213Y-68289580D01*
D10*
X137809523Y-50629800D02*
X137666666Y-50677419D01*
X137666666Y-50677419D02*
X137428571Y-50677419D01*
X137428571Y-50677419D02*
X137333333Y-50629800D01*
X137333333Y-50629800D02*
X137285714Y-50582180D01*
X137285714Y-50582180D02*
X137238095Y-50486942D01*
X137238095Y-50486942D02*
X137238095Y-50391704D01*
X137238095Y-50391704D02*
X137285714Y-50296466D01*
X137285714Y-50296466D02*
X137333333Y-50248847D01*
X137333333Y-50248847D02*
X137428571Y-50201228D01*
X137428571Y-50201228D02*
X137619047Y-50153609D01*
X137619047Y-50153609D02*
X137714285Y-50105990D01*
X137714285Y-50105990D02*
X137761904Y-50058371D01*
X137761904Y-50058371D02*
X137809523Y-49963133D01*
X137809523Y-49963133D02*
X137809523Y-49867895D01*
X137809523Y-49867895D02*
X137761904Y-49772657D01*
X137761904Y-49772657D02*
X137714285Y-49725038D01*
X137714285Y-49725038D02*
X137619047Y-49677419D01*
X137619047Y-49677419D02*
X137380952Y-49677419D01*
X137380952Y-49677419D02*
X137238095Y-49725038D01*
X136904761Y-49677419D02*
X136666666Y-50677419D01*
X136666666Y-50677419D02*
X136476190Y-49963133D01*
X136476190Y-49963133D02*
X136285714Y-50677419D01*
X136285714Y-50677419D02*
X136047619Y-49677419D01*
X135142857Y-50677419D02*
X135714285Y-50677419D01*
X135428571Y-50677419D02*
X135428571Y-49677419D01*
X135428571Y-49677419D02*
X135523809Y-49820276D01*
X135523809Y-49820276D02*
X135619047Y-49915514D01*
X135619047Y-49915514D02*
X135714285Y-49963133D01*
X134190476Y-50677419D02*
X134761904Y-50677419D01*
X134476190Y-50677419D02*
X134476190Y-49677419D01*
X134476190Y-49677419D02*
X134571428Y-49820276D01*
X134571428Y-49820276D02*
X134666666Y-49915514D01*
X134666666Y-49915514D02*
X134761904Y-49963133D01*
X118759523Y-50629800D02*
X118616666Y-50677419D01*
X118616666Y-50677419D02*
X118378571Y-50677419D01*
X118378571Y-50677419D02*
X118283333Y-50629800D01*
X118283333Y-50629800D02*
X118235714Y-50582180D01*
X118235714Y-50582180D02*
X118188095Y-50486942D01*
X118188095Y-50486942D02*
X118188095Y-50391704D01*
X118188095Y-50391704D02*
X118235714Y-50296466D01*
X118235714Y-50296466D02*
X118283333Y-50248847D01*
X118283333Y-50248847D02*
X118378571Y-50201228D01*
X118378571Y-50201228D02*
X118569047Y-50153609D01*
X118569047Y-50153609D02*
X118664285Y-50105990D01*
X118664285Y-50105990D02*
X118711904Y-50058371D01*
X118711904Y-50058371D02*
X118759523Y-49963133D01*
X118759523Y-49963133D02*
X118759523Y-49867895D01*
X118759523Y-49867895D02*
X118711904Y-49772657D01*
X118711904Y-49772657D02*
X118664285Y-49725038D01*
X118664285Y-49725038D02*
X118569047Y-49677419D01*
X118569047Y-49677419D02*
X118330952Y-49677419D01*
X118330952Y-49677419D02*
X118188095Y-49725038D01*
X117854761Y-49677419D02*
X117616666Y-50677419D01*
X117616666Y-50677419D02*
X117426190Y-49963133D01*
X117426190Y-49963133D02*
X117235714Y-50677419D01*
X117235714Y-50677419D02*
X116997619Y-49677419D01*
X116092857Y-50677419D02*
X116664285Y-50677419D01*
X116378571Y-50677419D02*
X116378571Y-49677419D01*
X116378571Y-49677419D02*
X116473809Y-49820276D01*
X116473809Y-49820276D02*
X116569047Y-49915514D01*
X116569047Y-49915514D02*
X116664285Y-49963133D01*
X115473809Y-49677419D02*
X115378571Y-49677419D01*
X115378571Y-49677419D02*
X115283333Y-49725038D01*
X115283333Y-49725038D02*
X115235714Y-49772657D01*
X115235714Y-49772657D02*
X115188095Y-49867895D01*
X115188095Y-49867895D02*
X115140476Y-50058371D01*
X115140476Y-50058371D02*
X115140476Y-50296466D01*
X115140476Y-50296466D02*
X115188095Y-50486942D01*
X115188095Y-50486942D02*
X115235714Y-50582180D01*
X115235714Y-50582180D02*
X115283333Y-50629800D01*
X115283333Y-50629800D02*
X115378571Y-50677419D01*
X115378571Y-50677419D02*
X115473809Y-50677419D01*
X115473809Y-50677419D02*
X115569047Y-50629800D01*
X115569047Y-50629800D02*
X115616666Y-50582180D01*
X115616666Y-50582180D02*
X115664285Y-50486942D01*
X115664285Y-50486942D02*
X115711904Y-50296466D01*
X115711904Y-50296466D02*
X115711904Y-50058371D01*
X115711904Y-50058371D02*
X115664285Y-49867895D01*
X115664285Y-49867895D02*
X115616666Y-49772657D01*
X115616666Y-49772657D02*
X115569047Y-49725038D01*
X115569047Y-49725038D02*
X115473809Y-49677419D01*
X99233332Y-50629800D02*
X99090475Y-50677419D01*
X99090475Y-50677419D02*
X98852380Y-50677419D01*
X98852380Y-50677419D02*
X98757142Y-50629800D01*
X98757142Y-50629800D02*
X98709523Y-50582180D01*
X98709523Y-50582180D02*
X98661904Y-50486942D01*
X98661904Y-50486942D02*
X98661904Y-50391704D01*
X98661904Y-50391704D02*
X98709523Y-50296466D01*
X98709523Y-50296466D02*
X98757142Y-50248847D01*
X98757142Y-50248847D02*
X98852380Y-50201228D01*
X98852380Y-50201228D02*
X99042856Y-50153609D01*
X99042856Y-50153609D02*
X99138094Y-50105990D01*
X99138094Y-50105990D02*
X99185713Y-50058371D01*
X99185713Y-50058371D02*
X99233332Y-49963133D01*
X99233332Y-49963133D02*
X99233332Y-49867895D01*
X99233332Y-49867895D02*
X99185713Y-49772657D01*
X99185713Y-49772657D02*
X99138094Y-49725038D01*
X99138094Y-49725038D02*
X99042856Y-49677419D01*
X99042856Y-49677419D02*
X98804761Y-49677419D01*
X98804761Y-49677419D02*
X98661904Y-49725038D01*
X98328570Y-49677419D02*
X98090475Y-50677419D01*
X98090475Y-50677419D02*
X97899999Y-49963133D01*
X97899999Y-49963133D02*
X97709523Y-50677419D01*
X97709523Y-50677419D02*
X97471428Y-49677419D01*
X97042856Y-50677419D02*
X96852380Y-50677419D01*
X96852380Y-50677419D02*
X96757142Y-50629800D01*
X96757142Y-50629800D02*
X96709523Y-50582180D01*
X96709523Y-50582180D02*
X96614285Y-50439323D01*
X96614285Y-50439323D02*
X96566666Y-50248847D01*
X96566666Y-50248847D02*
X96566666Y-49867895D01*
X96566666Y-49867895D02*
X96614285Y-49772657D01*
X96614285Y-49772657D02*
X96661904Y-49725038D01*
X96661904Y-49725038D02*
X96757142Y-49677419D01*
X96757142Y-49677419D02*
X96947618Y-49677419D01*
X96947618Y-49677419D02*
X97042856Y-49725038D01*
X97042856Y-49725038D02*
X97090475Y-49772657D01*
X97090475Y-49772657D02*
X97138094Y-49867895D01*
X97138094Y-49867895D02*
X97138094Y-50105990D01*
X97138094Y-50105990D02*
X97090475Y-50201228D01*
X97090475Y-50201228D02*
X97042856Y-50248847D01*
X97042856Y-50248847D02*
X96947618Y-50296466D01*
X96947618Y-50296466D02*
X96757142Y-50296466D01*
X96757142Y-50296466D02*
X96661904Y-50248847D01*
X96661904Y-50248847D02*
X96614285Y-50201228D01*
X96614285Y-50201228D02*
X96566666Y-50105990D01*
X80183332Y-50629800D02*
X80040475Y-50677419D01*
X80040475Y-50677419D02*
X79802380Y-50677419D01*
X79802380Y-50677419D02*
X79707142Y-50629800D01*
X79707142Y-50629800D02*
X79659523Y-50582180D01*
X79659523Y-50582180D02*
X79611904Y-50486942D01*
X79611904Y-50486942D02*
X79611904Y-50391704D01*
X79611904Y-50391704D02*
X79659523Y-50296466D01*
X79659523Y-50296466D02*
X79707142Y-50248847D01*
X79707142Y-50248847D02*
X79802380Y-50201228D01*
X79802380Y-50201228D02*
X79992856Y-50153609D01*
X79992856Y-50153609D02*
X80088094Y-50105990D01*
X80088094Y-50105990D02*
X80135713Y-50058371D01*
X80135713Y-50058371D02*
X80183332Y-49963133D01*
X80183332Y-49963133D02*
X80183332Y-49867895D01*
X80183332Y-49867895D02*
X80135713Y-49772657D01*
X80135713Y-49772657D02*
X80088094Y-49725038D01*
X80088094Y-49725038D02*
X79992856Y-49677419D01*
X79992856Y-49677419D02*
X79754761Y-49677419D01*
X79754761Y-49677419D02*
X79611904Y-49725038D01*
X79278570Y-49677419D02*
X79040475Y-50677419D01*
X79040475Y-50677419D02*
X78849999Y-49963133D01*
X78849999Y-49963133D02*
X78659523Y-50677419D01*
X78659523Y-50677419D02*
X78421428Y-49677419D01*
X77897618Y-50105990D02*
X77992856Y-50058371D01*
X77992856Y-50058371D02*
X78040475Y-50010752D01*
X78040475Y-50010752D02*
X78088094Y-49915514D01*
X78088094Y-49915514D02*
X78088094Y-49867895D01*
X78088094Y-49867895D02*
X78040475Y-49772657D01*
X78040475Y-49772657D02*
X77992856Y-49725038D01*
X77992856Y-49725038D02*
X77897618Y-49677419D01*
X77897618Y-49677419D02*
X77707142Y-49677419D01*
X77707142Y-49677419D02*
X77611904Y-49725038D01*
X77611904Y-49725038D02*
X77564285Y-49772657D01*
X77564285Y-49772657D02*
X77516666Y-49867895D01*
X77516666Y-49867895D02*
X77516666Y-49915514D01*
X77516666Y-49915514D02*
X77564285Y-50010752D01*
X77564285Y-50010752D02*
X77611904Y-50058371D01*
X77611904Y-50058371D02*
X77707142Y-50105990D01*
X77707142Y-50105990D02*
X77897618Y-50105990D01*
X77897618Y-50105990D02*
X77992856Y-50153609D01*
X77992856Y-50153609D02*
X78040475Y-50201228D01*
X78040475Y-50201228D02*
X78088094Y-50296466D01*
X78088094Y-50296466D02*
X78088094Y-50486942D01*
X78088094Y-50486942D02*
X78040475Y-50582180D01*
X78040475Y-50582180D02*
X77992856Y-50629800D01*
X77992856Y-50629800D02*
X77897618Y-50677419D01*
X77897618Y-50677419D02*
X77707142Y-50677419D01*
X77707142Y-50677419D02*
X77611904Y-50629800D01*
X77611904Y-50629800D02*
X77564285Y-50582180D01*
X77564285Y-50582180D02*
X77516666Y-50486942D01*
X77516666Y-50486942D02*
X77516666Y-50296466D01*
X77516666Y-50296466D02*
X77564285Y-50201228D01*
X77564285Y-50201228D02*
X77611904Y-50153609D01*
X77611904Y-50153609D02*
X77707142Y-50105990D01*
X61133332Y-50629800D02*
X60990475Y-50677419D01*
X60990475Y-50677419D02*
X60752380Y-50677419D01*
X60752380Y-50677419D02*
X60657142Y-50629800D01*
X60657142Y-50629800D02*
X60609523Y-50582180D01*
X60609523Y-50582180D02*
X60561904Y-50486942D01*
X60561904Y-50486942D02*
X60561904Y-50391704D01*
X60561904Y-50391704D02*
X60609523Y-50296466D01*
X60609523Y-50296466D02*
X60657142Y-50248847D01*
X60657142Y-50248847D02*
X60752380Y-50201228D01*
X60752380Y-50201228D02*
X60942856Y-50153609D01*
X60942856Y-50153609D02*
X61038094Y-50105990D01*
X61038094Y-50105990D02*
X61085713Y-50058371D01*
X61085713Y-50058371D02*
X61133332Y-49963133D01*
X61133332Y-49963133D02*
X61133332Y-49867895D01*
X61133332Y-49867895D02*
X61085713Y-49772657D01*
X61085713Y-49772657D02*
X61038094Y-49725038D01*
X61038094Y-49725038D02*
X60942856Y-49677419D01*
X60942856Y-49677419D02*
X60704761Y-49677419D01*
X60704761Y-49677419D02*
X60561904Y-49725038D01*
X60228570Y-49677419D02*
X59990475Y-50677419D01*
X59990475Y-50677419D02*
X59799999Y-49963133D01*
X59799999Y-49963133D02*
X59609523Y-50677419D01*
X59609523Y-50677419D02*
X59371428Y-49677419D01*
X59085713Y-49677419D02*
X58419047Y-49677419D01*
X58419047Y-49677419D02*
X58847618Y-50677419D01*
X42083332Y-50629800D02*
X41940475Y-50677419D01*
X41940475Y-50677419D02*
X41702380Y-50677419D01*
X41702380Y-50677419D02*
X41607142Y-50629800D01*
X41607142Y-50629800D02*
X41559523Y-50582180D01*
X41559523Y-50582180D02*
X41511904Y-50486942D01*
X41511904Y-50486942D02*
X41511904Y-50391704D01*
X41511904Y-50391704D02*
X41559523Y-50296466D01*
X41559523Y-50296466D02*
X41607142Y-50248847D01*
X41607142Y-50248847D02*
X41702380Y-50201228D01*
X41702380Y-50201228D02*
X41892856Y-50153609D01*
X41892856Y-50153609D02*
X41988094Y-50105990D01*
X41988094Y-50105990D02*
X42035713Y-50058371D01*
X42035713Y-50058371D02*
X42083332Y-49963133D01*
X42083332Y-49963133D02*
X42083332Y-49867895D01*
X42083332Y-49867895D02*
X42035713Y-49772657D01*
X42035713Y-49772657D02*
X41988094Y-49725038D01*
X41988094Y-49725038D02*
X41892856Y-49677419D01*
X41892856Y-49677419D02*
X41654761Y-49677419D01*
X41654761Y-49677419D02*
X41511904Y-49725038D01*
X41178570Y-49677419D02*
X40940475Y-50677419D01*
X40940475Y-50677419D02*
X40749999Y-49963133D01*
X40749999Y-49963133D02*
X40559523Y-50677419D01*
X40559523Y-50677419D02*
X40321428Y-49677419D01*
X39511904Y-49677419D02*
X39702380Y-49677419D01*
X39702380Y-49677419D02*
X39797618Y-49725038D01*
X39797618Y-49725038D02*
X39845237Y-49772657D01*
X39845237Y-49772657D02*
X39940475Y-49915514D01*
X39940475Y-49915514D02*
X39988094Y-50105990D01*
X39988094Y-50105990D02*
X39988094Y-50486942D01*
X39988094Y-50486942D02*
X39940475Y-50582180D01*
X39940475Y-50582180D02*
X39892856Y-50629800D01*
X39892856Y-50629800D02*
X39797618Y-50677419D01*
X39797618Y-50677419D02*
X39607142Y-50677419D01*
X39607142Y-50677419D02*
X39511904Y-50629800D01*
X39511904Y-50629800D02*
X39464285Y-50582180D01*
X39464285Y-50582180D02*
X39416666Y-50486942D01*
X39416666Y-50486942D02*
X39416666Y-50248847D01*
X39416666Y-50248847D02*
X39464285Y-50153609D01*
X39464285Y-50153609D02*
X39511904Y-50105990D01*
X39511904Y-50105990D02*
X39607142Y-50058371D01*
X39607142Y-50058371D02*
X39797618Y-50058371D01*
X39797618Y-50058371D02*
X39892856Y-50105990D01*
X39892856Y-50105990D02*
X39940475Y-50153609D01*
X39940475Y-50153609D02*
X39988094Y-50248847D01*
D11*
X122916666Y-26704819D02*
X123249999Y-26228628D01*
X123488094Y-26704819D02*
X123488094Y-25704819D01*
X123488094Y-25704819D02*
X123107142Y-25704819D01*
X123107142Y-25704819D02*
X123011904Y-25752438D01*
X123011904Y-25752438D02*
X122964285Y-25800057D01*
X122964285Y-25800057D02*
X122916666Y-25895295D01*
X122916666Y-25895295D02*
X122916666Y-26038152D01*
X122916666Y-26038152D02*
X122964285Y-26133390D01*
X122964285Y-26133390D02*
X123011904Y-26181009D01*
X123011904Y-26181009D02*
X123107142Y-26228628D01*
X123107142Y-26228628D02*
X123488094Y-26228628D01*
X122440475Y-26704819D02*
X122249999Y-26704819D01*
X122249999Y-26704819D02*
X122154761Y-26657200D01*
X122154761Y-26657200D02*
X122107142Y-26609580D01*
X122107142Y-26609580D02*
X122011904Y-26466723D01*
X122011904Y-26466723D02*
X121964285Y-26276247D01*
X121964285Y-26276247D02*
X121964285Y-25895295D01*
X121964285Y-25895295D02*
X122011904Y-25800057D01*
X122011904Y-25800057D02*
X122059523Y-25752438D01*
X122059523Y-25752438D02*
X122154761Y-25704819D01*
X122154761Y-25704819D02*
X122345237Y-25704819D01*
X122345237Y-25704819D02*
X122440475Y-25752438D01*
X122440475Y-25752438D02*
X122488094Y-25800057D01*
X122488094Y-25800057D02*
X122535713Y-25895295D01*
X122535713Y-25895295D02*
X122535713Y-26133390D01*
X122535713Y-26133390D02*
X122488094Y-26228628D01*
X122488094Y-26228628D02*
X122440475Y-26276247D01*
X122440475Y-26276247D02*
X122345237Y-26323866D01*
X122345237Y-26323866D02*
X122154761Y-26323866D01*
X122154761Y-26323866D02*
X122059523Y-26276247D01*
X122059523Y-26276247D02*
X122011904Y-26228628D01*
X122011904Y-26228628D02*
X121964285Y-26133390D01*
X103666666Y-26704819D02*
X103999999Y-26228628D01*
X104238094Y-26704819D02*
X104238094Y-25704819D01*
X104238094Y-25704819D02*
X103857142Y-25704819D01*
X103857142Y-25704819D02*
X103761904Y-25752438D01*
X103761904Y-25752438D02*
X103714285Y-25800057D01*
X103714285Y-25800057D02*
X103666666Y-25895295D01*
X103666666Y-25895295D02*
X103666666Y-26038152D01*
X103666666Y-26038152D02*
X103714285Y-26133390D01*
X103714285Y-26133390D02*
X103761904Y-26181009D01*
X103761904Y-26181009D02*
X103857142Y-26228628D01*
X103857142Y-26228628D02*
X104238094Y-26228628D01*
X103095237Y-26133390D02*
X103190475Y-26085771D01*
X103190475Y-26085771D02*
X103238094Y-26038152D01*
X103238094Y-26038152D02*
X103285713Y-25942914D01*
X103285713Y-25942914D02*
X103285713Y-25895295D01*
X103285713Y-25895295D02*
X103238094Y-25800057D01*
X103238094Y-25800057D02*
X103190475Y-25752438D01*
X103190475Y-25752438D02*
X103095237Y-25704819D01*
X103095237Y-25704819D02*
X102904761Y-25704819D01*
X102904761Y-25704819D02*
X102809523Y-25752438D01*
X102809523Y-25752438D02*
X102761904Y-25800057D01*
X102761904Y-25800057D02*
X102714285Y-25895295D01*
X102714285Y-25895295D02*
X102714285Y-25942914D01*
X102714285Y-25942914D02*
X102761904Y-26038152D01*
X102761904Y-26038152D02*
X102809523Y-26085771D01*
X102809523Y-26085771D02*
X102904761Y-26133390D01*
X102904761Y-26133390D02*
X103095237Y-26133390D01*
X103095237Y-26133390D02*
X103190475Y-26181009D01*
X103190475Y-26181009D02*
X103238094Y-26228628D01*
X103238094Y-26228628D02*
X103285713Y-26323866D01*
X103285713Y-26323866D02*
X103285713Y-26514342D01*
X103285713Y-26514342D02*
X103238094Y-26609580D01*
X103238094Y-26609580D02*
X103190475Y-26657200D01*
X103190475Y-26657200D02*
X103095237Y-26704819D01*
X103095237Y-26704819D02*
X102904761Y-26704819D01*
X102904761Y-26704819D02*
X102809523Y-26657200D01*
X102809523Y-26657200D02*
X102761904Y-26609580D01*
X102761904Y-26609580D02*
X102714285Y-26514342D01*
X102714285Y-26514342D02*
X102714285Y-26323866D01*
X102714285Y-26323866D02*
X102761904Y-26228628D01*
X102761904Y-26228628D02*
X102809523Y-26181009D01*
X102809523Y-26181009D02*
X102904761Y-26133390D01*
X84666666Y-26704819D02*
X84999999Y-26228628D01*
X85238094Y-26704819D02*
X85238094Y-25704819D01*
X85238094Y-25704819D02*
X84857142Y-25704819D01*
X84857142Y-25704819D02*
X84761904Y-25752438D01*
X84761904Y-25752438D02*
X84714285Y-25800057D01*
X84714285Y-25800057D02*
X84666666Y-25895295D01*
X84666666Y-25895295D02*
X84666666Y-26038152D01*
X84666666Y-26038152D02*
X84714285Y-26133390D01*
X84714285Y-26133390D02*
X84761904Y-26181009D01*
X84761904Y-26181009D02*
X84857142Y-26228628D01*
X84857142Y-26228628D02*
X85238094Y-26228628D01*
X84333332Y-25704819D02*
X83666666Y-25704819D01*
X83666666Y-25704819D02*
X84095237Y-26704819D01*
X65666666Y-26704819D02*
X65999999Y-26228628D01*
X66238094Y-26704819D02*
X66238094Y-25704819D01*
X66238094Y-25704819D02*
X65857142Y-25704819D01*
X65857142Y-25704819D02*
X65761904Y-25752438D01*
X65761904Y-25752438D02*
X65714285Y-25800057D01*
X65714285Y-25800057D02*
X65666666Y-25895295D01*
X65666666Y-25895295D02*
X65666666Y-26038152D01*
X65666666Y-26038152D02*
X65714285Y-26133390D01*
X65714285Y-26133390D02*
X65761904Y-26181009D01*
X65761904Y-26181009D02*
X65857142Y-26228628D01*
X65857142Y-26228628D02*
X66238094Y-26228628D01*
X64809523Y-25704819D02*
X64999999Y-25704819D01*
X64999999Y-25704819D02*
X65095237Y-25752438D01*
X65095237Y-25752438D02*
X65142856Y-25800057D01*
X65142856Y-25800057D02*
X65238094Y-25942914D01*
X65238094Y-25942914D02*
X65285713Y-26133390D01*
X65285713Y-26133390D02*
X65285713Y-26514342D01*
X65285713Y-26514342D02*
X65238094Y-26609580D01*
X65238094Y-26609580D02*
X65190475Y-26657200D01*
X65190475Y-26657200D02*
X65095237Y-26704819D01*
X65095237Y-26704819D02*
X64904761Y-26704819D01*
X64904761Y-26704819D02*
X64809523Y-26657200D01*
X64809523Y-26657200D02*
X64761904Y-26609580D01*
X64761904Y-26609580D02*
X64714285Y-26514342D01*
X64714285Y-26514342D02*
X64714285Y-26276247D01*
X64714285Y-26276247D02*
X64761904Y-26181009D01*
X64761904Y-26181009D02*
X64809523Y-26133390D01*
X64809523Y-26133390D02*
X64904761Y-26085771D01*
X64904761Y-26085771D02*
X65095237Y-26085771D01*
X65095237Y-26085771D02*
X65190475Y-26133390D01*
X65190475Y-26133390D02*
X65238094Y-26181009D01*
X65238094Y-26181009D02*
X65285713Y-26276247D01*
X130416666Y-26704819D02*
X130749999Y-26228628D01*
X130988094Y-26704819D02*
X130988094Y-25704819D01*
X130988094Y-25704819D02*
X130607142Y-25704819D01*
X130607142Y-25704819D02*
X130511904Y-25752438D01*
X130511904Y-25752438D02*
X130464285Y-25800057D01*
X130464285Y-25800057D02*
X130416666Y-25895295D01*
X130416666Y-25895295D02*
X130416666Y-26038152D01*
X130416666Y-26038152D02*
X130464285Y-26133390D01*
X130464285Y-26133390D02*
X130511904Y-26181009D01*
X130511904Y-26181009D02*
X130607142Y-26228628D01*
X130607142Y-26228628D02*
X130988094Y-26228628D01*
X129511904Y-25704819D02*
X129988094Y-25704819D01*
X129988094Y-25704819D02*
X130035713Y-26181009D01*
X130035713Y-26181009D02*
X129988094Y-26133390D01*
X129988094Y-26133390D02*
X129892856Y-26085771D01*
X129892856Y-26085771D02*
X129654761Y-26085771D01*
X129654761Y-26085771D02*
X129559523Y-26133390D01*
X129559523Y-26133390D02*
X129511904Y-26181009D01*
X129511904Y-26181009D02*
X129464285Y-26276247D01*
X129464285Y-26276247D02*
X129464285Y-26514342D01*
X129464285Y-26514342D02*
X129511904Y-26609580D01*
X129511904Y-26609580D02*
X129559523Y-26657200D01*
X129559523Y-26657200D02*
X129654761Y-26704819D01*
X129654761Y-26704819D02*
X129892856Y-26704819D01*
X129892856Y-26704819D02*
X129988094Y-26657200D01*
X129988094Y-26657200D02*
X130035713Y-26609580D01*
X111416666Y-26604819D02*
X111749999Y-26128628D01*
X111988094Y-26604819D02*
X111988094Y-25604819D01*
X111988094Y-25604819D02*
X111607142Y-25604819D01*
X111607142Y-25604819D02*
X111511904Y-25652438D01*
X111511904Y-25652438D02*
X111464285Y-25700057D01*
X111464285Y-25700057D02*
X111416666Y-25795295D01*
X111416666Y-25795295D02*
X111416666Y-25938152D01*
X111416666Y-25938152D02*
X111464285Y-26033390D01*
X111464285Y-26033390D02*
X111511904Y-26081009D01*
X111511904Y-26081009D02*
X111607142Y-26128628D01*
X111607142Y-26128628D02*
X111988094Y-26128628D01*
X110559523Y-25938152D02*
X110559523Y-26604819D01*
X110797618Y-25557200D02*
X111035713Y-26271485D01*
X111035713Y-26271485D02*
X110416666Y-26271485D01*
X92416666Y-26704819D02*
X92749999Y-26228628D01*
X92988094Y-26704819D02*
X92988094Y-25704819D01*
X92988094Y-25704819D02*
X92607142Y-25704819D01*
X92607142Y-25704819D02*
X92511904Y-25752438D01*
X92511904Y-25752438D02*
X92464285Y-25800057D01*
X92464285Y-25800057D02*
X92416666Y-25895295D01*
X92416666Y-25895295D02*
X92416666Y-26038152D01*
X92416666Y-26038152D02*
X92464285Y-26133390D01*
X92464285Y-26133390D02*
X92511904Y-26181009D01*
X92511904Y-26181009D02*
X92607142Y-26228628D01*
X92607142Y-26228628D02*
X92988094Y-26228628D01*
X92083332Y-25704819D02*
X91464285Y-25704819D01*
X91464285Y-25704819D02*
X91797618Y-26085771D01*
X91797618Y-26085771D02*
X91654761Y-26085771D01*
X91654761Y-26085771D02*
X91559523Y-26133390D01*
X91559523Y-26133390D02*
X91511904Y-26181009D01*
X91511904Y-26181009D02*
X91464285Y-26276247D01*
X91464285Y-26276247D02*
X91464285Y-26514342D01*
X91464285Y-26514342D02*
X91511904Y-26609580D01*
X91511904Y-26609580D02*
X91559523Y-26657200D01*
X91559523Y-26657200D02*
X91654761Y-26704819D01*
X91654761Y-26704819D02*
X91940475Y-26704819D01*
X91940475Y-26704819D02*
X92035713Y-26657200D01*
X92035713Y-26657200D02*
X92083332Y-26609580D01*
X73416666Y-26704819D02*
X73749999Y-26228628D01*
X73988094Y-26704819D02*
X73988094Y-25704819D01*
X73988094Y-25704819D02*
X73607142Y-25704819D01*
X73607142Y-25704819D02*
X73511904Y-25752438D01*
X73511904Y-25752438D02*
X73464285Y-25800057D01*
X73464285Y-25800057D02*
X73416666Y-25895295D01*
X73416666Y-25895295D02*
X73416666Y-26038152D01*
X73416666Y-26038152D02*
X73464285Y-26133390D01*
X73464285Y-26133390D02*
X73511904Y-26181009D01*
X73511904Y-26181009D02*
X73607142Y-26228628D01*
X73607142Y-26228628D02*
X73988094Y-26228628D01*
X73035713Y-25800057D02*
X72988094Y-25752438D01*
X72988094Y-25752438D02*
X72892856Y-25704819D01*
X72892856Y-25704819D02*
X72654761Y-25704819D01*
X72654761Y-25704819D02*
X72559523Y-25752438D01*
X72559523Y-25752438D02*
X72511904Y-25800057D01*
X72511904Y-25800057D02*
X72464285Y-25895295D01*
X72464285Y-25895295D02*
X72464285Y-25990533D01*
X72464285Y-25990533D02*
X72511904Y-26133390D01*
X72511904Y-26133390D02*
X73083332Y-26704819D01*
X73083332Y-26704819D02*
X72464285Y-26704819D01*
X54416666Y-26704819D02*
X54749999Y-26228628D01*
X54988094Y-26704819D02*
X54988094Y-25704819D01*
X54988094Y-25704819D02*
X54607142Y-25704819D01*
X54607142Y-25704819D02*
X54511904Y-25752438D01*
X54511904Y-25752438D02*
X54464285Y-25800057D01*
X54464285Y-25800057D02*
X54416666Y-25895295D01*
X54416666Y-25895295D02*
X54416666Y-26038152D01*
X54416666Y-26038152D02*
X54464285Y-26133390D01*
X54464285Y-26133390D02*
X54511904Y-26181009D01*
X54511904Y-26181009D02*
X54607142Y-26228628D01*
X54607142Y-26228628D02*
X54988094Y-26228628D01*
X53464285Y-26704819D02*
X54035713Y-26704819D01*
X53749999Y-26704819D02*
X53749999Y-25704819D01*
X53749999Y-25704819D02*
X53845237Y-25847676D01*
X53845237Y-25847676D02*
X53940475Y-25942914D01*
X53940475Y-25942914D02*
X54035713Y-25990533D01*
X148583333Y-50704819D02*
X148583333Y-51419104D01*
X148583333Y-51419104D02*
X148630952Y-51561961D01*
X148630952Y-51561961D02*
X148726190Y-51657200D01*
X148726190Y-51657200D02*
X148869047Y-51704819D01*
X148869047Y-51704819D02*
X148964285Y-51704819D01*
X147630952Y-50704819D02*
X148107142Y-50704819D01*
X148107142Y-50704819D02*
X148154761Y-51181009D01*
X148154761Y-51181009D02*
X148107142Y-51133390D01*
X148107142Y-51133390D02*
X148011904Y-51085771D01*
X148011904Y-51085771D02*
X147773809Y-51085771D01*
X147773809Y-51085771D02*
X147678571Y-51133390D01*
X147678571Y-51133390D02*
X147630952Y-51181009D01*
X147630952Y-51181009D02*
X147583333Y-51276247D01*
X147583333Y-51276247D02*
X147583333Y-51514342D01*
X147583333Y-51514342D02*
X147630952Y-51609580D01*
X147630952Y-51609580D02*
X147678571Y-51657200D01*
X147678571Y-51657200D02*
X147773809Y-51704819D01*
X147773809Y-51704819D02*
X148011904Y-51704819D01*
X148011904Y-51704819D02*
X148107142Y-51657200D01*
X148107142Y-51657200D02*
X148154761Y-51609580D01*
X148583333Y-58454819D02*
X148583333Y-59169104D01*
X148583333Y-59169104D02*
X148630952Y-59311961D01*
X148630952Y-59311961D02*
X148726190Y-59407200D01*
X148726190Y-59407200D02*
X148869047Y-59454819D01*
X148869047Y-59454819D02*
X148964285Y-59454819D01*
X147678571Y-58788152D02*
X147678571Y-59454819D01*
X147916666Y-58407200D02*
X148154761Y-59121485D01*
X148154761Y-59121485D02*
X147535714Y-59121485D01*
X26103333Y-51454819D02*
X26103333Y-52169104D01*
X26103333Y-52169104D02*
X26150952Y-52311961D01*
X26150952Y-52311961D02*
X26246190Y-52407200D01*
X26246190Y-52407200D02*
X26389047Y-52454819D01*
X26389047Y-52454819D02*
X26484285Y-52454819D01*
X25722380Y-51454819D02*
X25103333Y-51454819D01*
X25103333Y-51454819D02*
X25436666Y-51835771D01*
X25436666Y-51835771D02*
X25293809Y-51835771D01*
X25293809Y-51835771D02*
X25198571Y-51883390D01*
X25198571Y-51883390D02*
X25150952Y-51931009D01*
X25150952Y-51931009D02*
X25103333Y-52026247D01*
X25103333Y-52026247D02*
X25103333Y-52264342D01*
X25103333Y-52264342D02*
X25150952Y-52359580D01*
X25150952Y-52359580D02*
X25198571Y-52407200D01*
X25198571Y-52407200D02*
X25293809Y-52454819D01*
X25293809Y-52454819D02*
X25579523Y-52454819D01*
X25579523Y-52454819D02*
X25674761Y-52407200D01*
X25674761Y-52407200D02*
X25722380Y-52359580D01*
X44813333Y-22034819D02*
X44813333Y-22749104D01*
X44813333Y-22749104D02*
X44860952Y-22891961D01*
X44860952Y-22891961D02*
X44956190Y-22987200D01*
X44956190Y-22987200D02*
X45099047Y-23034819D01*
X45099047Y-23034819D02*
X45194285Y-23034819D01*
X43813333Y-23034819D02*
X44384761Y-23034819D01*
X44099047Y-23034819D02*
X44099047Y-22034819D01*
X44099047Y-22034819D02*
X44194285Y-22177676D01*
X44194285Y-22177676D02*
X44289523Y-22272914D01*
X44289523Y-22272914D02*
X44384761Y-22320533D01*
X98129166Y-68289580D02*
X98176785Y-68337200D01*
X98176785Y-68337200D02*
X98319642Y-68384819D01*
X98319642Y-68384819D02*
X98414880Y-68384819D01*
X98414880Y-68384819D02*
X98557737Y-68337200D01*
X98557737Y-68337200D02*
X98652975Y-68241961D01*
X98652975Y-68241961D02*
X98700594Y-68146723D01*
X98700594Y-68146723D02*
X98748213Y-67956247D01*
X98748213Y-67956247D02*
X98748213Y-67813390D01*
X98748213Y-67813390D02*
X98700594Y-67622914D01*
X98700594Y-67622914D02*
X98652975Y-67527676D01*
X98652975Y-67527676D02*
X98557737Y-67432438D01*
X98557737Y-67432438D02*
X98414880Y-67384819D01*
X98414880Y-67384819D02*
X98319642Y-67384819D01*
X98319642Y-67384819D02*
X98176785Y-67432438D01*
X98176785Y-67432438D02*
X98129166Y-67480057D01*
X97272023Y-67718152D02*
X97272023Y-68384819D01*
X97510118Y-67337200D02*
X97748213Y-68051485D01*
X97748213Y-68051485D02*
X97129166Y-68051485D01*
X78879166Y-68289580D02*
X78926785Y-68337200D01*
X78926785Y-68337200D02*
X79069642Y-68384819D01*
X79069642Y-68384819D02*
X79164880Y-68384819D01*
X79164880Y-68384819D02*
X79307737Y-68337200D01*
X79307737Y-68337200D02*
X79402975Y-68241961D01*
X79402975Y-68241961D02*
X79450594Y-68146723D01*
X79450594Y-68146723D02*
X79498213Y-67956247D01*
X79498213Y-67956247D02*
X79498213Y-67813390D01*
X79498213Y-67813390D02*
X79450594Y-67622914D01*
X79450594Y-67622914D02*
X79402975Y-67527676D01*
X79402975Y-67527676D02*
X79307737Y-67432438D01*
X79307737Y-67432438D02*
X79164880Y-67384819D01*
X79164880Y-67384819D02*
X79069642Y-67384819D01*
X79069642Y-67384819D02*
X78926785Y-67432438D01*
X78926785Y-67432438D02*
X78879166Y-67480057D01*
X78545832Y-67384819D02*
X77926785Y-67384819D01*
X77926785Y-67384819D02*
X78260118Y-67765771D01*
X78260118Y-67765771D02*
X78117261Y-67765771D01*
X78117261Y-67765771D02*
X78022023Y-67813390D01*
X78022023Y-67813390D02*
X77974404Y-67861009D01*
X77974404Y-67861009D02*
X77926785Y-67956247D01*
X77926785Y-67956247D02*
X77926785Y-68194342D01*
X77926785Y-68194342D02*
X77974404Y-68289580D01*
X77974404Y-68289580D02*
X78022023Y-68337200D01*
X78022023Y-68337200D02*
X78117261Y-68384819D01*
X78117261Y-68384819D02*
X78402975Y-68384819D01*
X78402975Y-68384819D02*
X78498213Y-68337200D01*
X78498213Y-68337200D02*
X78545832Y-68289580D01*
X59879166Y-68289580D02*
X59926785Y-68337200D01*
X59926785Y-68337200D02*
X60069642Y-68384819D01*
X60069642Y-68384819D02*
X60164880Y-68384819D01*
X60164880Y-68384819D02*
X60307737Y-68337200D01*
X60307737Y-68337200D02*
X60402975Y-68241961D01*
X60402975Y-68241961D02*
X60450594Y-68146723D01*
X60450594Y-68146723D02*
X60498213Y-67956247D01*
X60498213Y-67956247D02*
X60498213Y-67813390D01*
X60498213Y-67813390D02*
X60450594Y-67622914D01*
X60450594Y-67622914D02*
X60402975Y-67527676D01*
X60402975Y-67527676D02*
X60307737Y-67432438D01*
X60307737Y-67432438D02*
X60164880Y-67384819D01*
X60164880Y-67384819D02*
X60069642Y-67384819D01*
X60069642Y-67384819D02*
X59926785Y-67432438D01*
X59926785Y-67432438D02*
X59879166Y-67480057D01*
X59498213Y-67480057D02*
X59450594Y-67432438D01*
X59450594Y-67432438D02*
X59355356Y-67384819D01*
X59355356Y-67384819D02*
X59117261Y-67384819D01*
X59117261Y-67384819D02*
X59022023Y-67432438D01*
X59022023Y-67432438D02*
X58974404Y-67480057D01*
X58974404Y-67480057D02*
X58926785Y-67575295D01*
X58926785Y-67575295D02*
X58926785Y-67670533D01*
X58926785Y-67670533D02*
X58974404Y-67813390D01*
X58974404Y-67813390D02*
X59545832Y-68384819D01*
X59545832Y-68384819D02*
X58926785Y-68384819D01*
X40879166Y-68289580D02*
X40926785Y-68337200D01*
X40926785Y-68337200D02*
X41069642Y-68384819D01*
X41069642Y-68384819D02*
X41164880Y-68384819D01*
X41164880Y-68384819D02*
X41307737Y-68337200D01*
X41307737Y-68337200D02*
X41402975Y-68241961D01*
X41402975Y-68241961D02*
X41450594Y-68146723D01*
X41450594Y-68146723D02*
X41498213Y-67956247D01*
X41498213Y-67956247D02*
X41498213Y-67813390D01*
X41498213Y-67813390D02*
X41450594Y-67622914D01*
X41450594Y-67622914D02*
X41402975Y-67527676D01*
X41402975Y-67527676D02*
X41307737Y-67432438D01*
X41307737Y-67432438D02*
X41164880Y-67384819D01*
X41164880Y-67384819D02*
X41069642Y-67384819D01*
X41069642Y-67384819D02*
X40926785Y-67432438D01*
X40926785Y-67432438D02*
X40879166Y-67480057D01*
X39926785Y-68384819D02*
X40498213Y-68384819D01*
X40212499Y-68384819D02*
X40212499Y-67384819D01*
X40212499Y-67384819D02*
X40307737Y-67527676D01*
X40307737Y-67527676D02*
X40402975Y-67622914D01*
X40402975Y-67622914D02*
X40498213Y-67670533D01*
X142392857Y-26704819D02*
X142726190Y-26228628D01*
X142964285Y-26704819D02*
X142964285Y-25704819D01*
X142964285Y-25704819D02*
X142583333Y-25704819D01*
X142583333Y-25704819D02*
X142488095Y-25752438D01*
X142488095Y-25752438D02*
X142440476Y-25800057D01*
X142440476Y-25800057D02*
X142392857Y-25895295D01*
X142392857Y-25895295D02*
X142392857Y-26038152D01*
X142392857Y-26038152D02*
X142440476Y-26133390D01*
X142440476Y-26133390D02*
X142488095Y-26181009D01*
X142488095Y-26181009D02*
X142583333Y-26228628D01*
X142583333Y-26228628D02*
X142964285Y-26228628D01*
X141440476Y-26704819D02*
X142011904Y-26704819D01*
X141726190Y-26704819D02*
X141726190Y-25704819D01*
X141726190Y-25704819D02*
X141821428Y-25847676D01*
X141821428Y-25847676D02*
X141916666Y-25942914D01*
X141916666Y-25942914D02*
X142011904Y-25990533D01*
X140821428Y-25704819D02*
X140726190Y-25704819D01*
X140726190Y-25704819D02*
X140630952Y-25752438D01*
X140630952Y-25752438D02*
X140583333Y-25800057D01*
X140583333Y-25800057D02*
X140535714Y-25895295D01*
X140535714Y-25895295D02*
X140488095Y-26085771D01*
X140488095Y-26085771D02*
X140488095Y-26323866D01*
X140488095Y-26323866D02*
X140535714Y-26514342D01*
X140535714Y-26514342D02*
X140583333Y-26609580D01*
X140583333Y-26609580D02*
X140630952Y-26657200D01*
X140630952Y-26657200D02*
X140726190Y-26704819D01*
X140726190Y-26704819D02*
X140821428Y-26704819D01*
X140821428Y-26704819D02*
X140916666Y-26657200D01*
X140916666Y-26657200D02*
X140964285Y-26609580D01*
X140964285Y-26609580D02*
X141011904Y-26514342D01*
X141011904Y-26514342D02*
X141059523Y-26323866D01*
X141059523Y-26323866D02*
X141059523Y-26085771D01*
X141059523Y-26085771D02*
X141011904Y-25895295D01*
X141011904Y-25895295D02*
X140964285Y-25800057D01*
X140964285Y-25800057D02*
X140916666Y-25752438D01*
X140916666Y-25752438D02*
X140821428Y-25704819D01*
D12*
%TO.C,C17*%
X157625000Y-40097323D02*
X157625000Y-39097323D01*
X158125000Y-39597323D02*
X157125000Y-39597323D01*
X159830000Y-34617677D02*
X149670000Y-34617677D01*
X159830000Y-34577677D02*
X149670000Y-34577677D01*
X159829000Y-34537677D02*
X149671000Y-34537677D01*
X159829000Y-34497677D02*
X149671000Y-34497677D01*
X159827000Y-34457677D02*
X149673000Y-34457677D01*
X159826000Y-34417677D02*
X149674000Y-34417677D01*
X159824000Y-34377677D02*
X149676000Y-34377677D01*
X159822000Y-34337677D02*
X149678000Y-34337677D01*
X159820000Y-34297677D02*
X149680000Y-34297677D01*
X159817000Y-34257677D02*
X149683000Y-34257677D01*
X159814000Y-34217677D02*
X149686000Y-34217677D01*
X159811000Y-34177677D02*
X149689000Y-34177677D01*
X159807000Y-34137677D02*
X149693000Y-34137677D01*
X159804000Y-34097677D02*
X149696000Y-34097677D01*
X159799000Y-34057677D02*
X149701000Y-34057677D01*
X159795000Y-34017677D02*
X149705000Y-34017677D01*
X159790000Y-33977677D02*
X149710000Y-33977677D01*
X159785000Y-33937677D02*
X149715000Y-33937677D01*
X159779000Y-33897677D02*
X149721000Y-33897677D01*
X159773000Y-33857677D02*
X149727000Y-33857677D01*
X159767000Y-33817677D02*
X149733000Y-33817677D01*
X159761000Y-33777677D02*
X149739000Y-33777677D01*
X159754000Y-33737677D02*
X149746000Y-33737677D01*
X159747000Y-33697677D02*
X149753000Y-33697677D01*
X159739000Y-33657677D02*
X149761000Y-33657677D01*
X159731000Y-33617677D02*
X149769000Y-33617677D01*
X159723000Y-33577677D02*
X149777000Y-33577677D01*
X159715000Y-33537677D02*
X149785000Y-33537677D01*
X159706000Y-33497677D02*
X149794000Y-33497677D01*
X159697000Y-33457677D02*
X149803000Y-33457677D01*
X159687000Y-33417677D02*
X149813000Y-33417677D01*
X159678000Y-33377677D02*
X149822000Y-33377677D01*
X159667000Y-33337677D02*
X155990000Y-33337677D01*
X153510000Y-33337677D02*
X149833000Y-33337677D01*
X159657000Y-33297677D02*
X155990000Y-33297677D01*
X153510000Y-33297677D02*
X149843000Y-33297677D01*
X159646000Y-33257677D02*
X155990000Y-33257677D01*
X153510000Y-33257677D02*
X149854000Y-33257677D01*
X159635000Y-33217677D02*
X155990000Y-33217677D01*
X153510000Y-33217677D02*
X149865000Y-33217677D01*
X159623000Y-33177677D02*
X155990000Y-33177677D01*
X153510000Y-33177677D02*
X149877000Y-33177677D01*
X159611000Y-33137677D02*
X155990000Y-33137677D01*
X153510000Y-33137677D02*
X149889000Y-33137677D01*
X159599000Y-33097677D02*
X155990000Y-33097677D01*
X153510000Y-33097677D02*
X149901000Y-33097677D01*
X159587000Y-33057677D02*
X155990000Y-33057677D01*
X153510000Y-33057677D02*
X149913000Y-33057677D01*
X159574000Y-33017677D02*
X155990000Y-33017677D01*
X153510000Y-33017677D02*
X149926000Y-33017677D01*
X159560000Y-32977677D02*
X155990000Y-32977677D01*
X153510000Y-32977677D02*
X149940000Y-32977677D01*
X159547000Y-32937677D02*
X155990000Y-32937677D01*
X153510000Y-32937677D02*
X149953000Y-32937677D01*
X159532000Y-32897677D02*
X155990000Y-32897677D01*
X153510000Y-32897677D02*
X149968000Y-32897677D01*
X159518000Y-32857677D02*
X155990000Y-32857677D01*
X153510000Y-32857677D02*
X149982000Y-32857677D01*
X159503000Y-32817677D02*
X155990000Y-32817677D01*
X153510000Y-32817677D02*
X149997000Y-32817677D01*
X159488000Y-32777677D02*
X155990000Y-32777677D01*
X153510000Y-32777677D02*
X150012000Y-32777677D01*
X159472000Y-32737677D02*
X155990000Y-32737677D01*
X153510000Y-32737677D02*
X150028000Y-32737677D01*
X159456000Y-32697677D02*
X155990000Y-32697677D01*
X153510000Y-32697677D02*
X150044000Y-32697677D01*
X159440000Y-32657677D02*
X155990000Y-32657677D01*
X153510000Y-32657677D02*
X150060000Y-32657677D01*
X159423000Y-32617677D02*
X155990000Y-32617677D01*
X153510000Y-32617677D02*
X150077000Y-32617677D01*
X159406000Y-32577677D02*
X155990000Y-32577677D01*
X153510000Y-32577677D02*
X150094000Y-32577677D01*
X159388000Y-32537677D02*
X155990000Y-32537677D01*
X153510000Y-32537677D02*
X150112000Y-32537677D01*
X159370000Y-32497677D02*
X155990000Y-32497677D01*
X153510000Y-32497677D02*
X150130000Y-32497677D01*
X159352000Y-32457677D02*
X155990000Y-32457677D01*
X153510000Y-32457677D02*
X150148000Y-32457677D01*
X159333000Y-32417677D02*
X155990000Y-32417677D01*
X153510000Y-32417677D02*
X150167000Y-32417677D01*
X159314000Y-32377677D02*
X155990000Y-32377677D01*
X153510000Y-32377677D02*
X150186000Y-32377677D01*
X159294000Y-32337677D02*
X155990000Y-32337677D01*
X153510000Y-32337677D02*
X150206000Y-32337677D01*
X159274000Y-32297677D02*
X155990000Y-32297677D01*
X153510000Y-32297677D02*
X150226000Y-32297677D01*
X159254000Y-32257677D02*
X155990000Y-32257677D01*
X153510000Y-32257677D02*
X150246000Y-32257677D01*
X159233000Y-32217677D02*
X155990000Y-32217677D01*
X153510000Y-32217677D02*
X150267000Y-32217677D01*
X159211000Y-32177677D02*
X155990000Y-32177677D01*
X153510000Y-32177677D02*
X150289000Y-32177677D01*
X159189000Y-32137677D02*
X155990000Y-32137677D01*
X153510000Y-32137677D02*
X150311000Y-32137677D01*
X159167000Y-32097677D02*
X155990000Y-32097677D01*
X153510000Y-32097677D02*
X150333000Y-32097677D01*
X159144000Y-32057677D02*
X155990000Y-32057677D01*
X153510000Y-32057677D02*
X150356000Y-32057677D01*
X159121000Y-32017677D02*
X155990000Y-32017677D01*
X153510000Y-32017677D02*
X150379000Y-32017677D01*
X159097000Y-31977677D02*
X155990000Y-31977677D01*
X153510000Y-31977677D02*
X150403000Y-31977677D01*
X159073000Y-31937677D02*
X155990000Y-31937677D01*
X153510000Y-31937677D02*
X150427000Y-31937677D01*
X159048000Y-31897677D02*
X155990000Y-31897677D01*
X153510000Y-31897677D02*
X150452000Y-31897677D01*
X159022000Y-31857677D02*
X155990000Y-31857677D01*
X153510000Y-31857677D02*
X150478000Y-31857677D01*
X158997000Y-31817677D02*
X155990000Y-31817677D01*
X153510000Y-31817677D02*
X150503000Y-31817677D01*
X158970000Y-31777677D02*
X155990000Y-31777677D01*
X153510000Y-31777677D02*
X150530000Y-31777677D01*
X158943000Y-31737677D02*
X155990000Y-31737677D01*
X153510000Y-31737677D02*
X150557000Y-31737677D01*
X158916000Y-31697677D02*
X155990000Y-31697677D01*
X153510000Y-31697677D02*
X150584000Y-31697677D01*
X158888000Y-31657677D02*
X155990000Y-31657677D01*
X153510000Y-31657677D02*
X150612000Y-31657677D01*
X158859000Y-31617677D02*
X155990000Y-31617677D01*
X153510000Y-31617677D02*
X150641000Y-31617677D01*
X158830000Y-31577677D02*
X155990000Y-31577677D01*
X153510000Y-31577677D02*
X150670000Y-31577677D01*
X158800000Y-31537677D02*
X155990000Y-31537677D01*
X153510000Y-31537677D02*
X150700000Y-31537677D01*
X158770000Y-31497677D02*
X155990000Y-31497677D01*
X153510000Y-31497677D02*
X150730000Y-31497677D01*
X158738000Y-31457677D02*
X155990000Y-31457677D01*
X153510000Y-31457677D02*
X150762000Y-31457677D01*
X158707000Y-31417677D02*
X155990000Y-31417677D01*
X153510000Y-31417677D02*
X150793000Y-31417677D01*
X158674000Y-31377677D02*
X155990000Y-31377677D01*
X153510000Y-31377677D02*
X150826000Y-31377677D01*
X158641000Y-31337677D02*
X155990000Y-31337677D01*
X153510000Y-31337677D02*
X150859000Y-31337677D01*
X158608000Y-31297677D02*
X155990000Y-31297677D01*
X153510000Y-31297677D02*
X150892000Y-31297677D01*
X158573000Y-31257677D02*
X155990000Y-31257677D01*
X153510000Y-31257677D02*
X150927000Y-31257677D01*
X158538000Y-31217677D02*
X155990000Y-31217677D01*
X153510000Y-31217677D02*
X150962000Y-31217677D01*
X158502000Y-31177677D02*
X155990000Y-31177677D01*
X153510000Y-31177677D02*
X150998000Y-31177677D01*
X158466000Y-31137677D02*
X155990000Y-31137677D01*
X153510000Y-31137677D02*
X151034000Y-31137677D01*
X158428000Y-31097677D02*
X155990000Y-31097677D01*
X153510000Y-31097677D02*
X151072000Y-31097677D01*
X158390000Y-31057677D02*
X155990000Y-31057677D01*
X153510000Y-31057677D02*
X151110000Y-31057677D01*
X158351000Y-31017677D02*
X155990000Y-31017677D01*
X153510000Y-31017677D02*
X151149000Y-31017677D01*
X158311000Y-30977677D02*
X155990000Y-30977677D01*
X153510000Y-30977677D02*
X151189000Y-30977677D01*
X158270000Y-30937677D02*
X155990000Y-30937677D01*
X153510000Y-30937677D02*
X151230000Y-30937677D01*
X158228000Y-30897677D02*
X155990000Y-30897677D01*
X153510000Y-30897677D02*
X151272000Y-30897677D01*
X158185000Y-30857677D02*
X151315000Y-30857677D01*
X158141000Y-30817677D02*
X151359000Y-30817677D01*
X158097000Y-30777677D02*
X151403000Y-30777677D01*
X158051000Y-30737677D02*
X151449000Y-30737677D01*
X158004000Y-30697677D02*
X151496000Y-30697677D01*
X157955000Y-30657677D02*
X151545000Y-30657677D01*
X157906000Y-30617677D02*
X151594000Y-30617677D01*
X157855000Y-30577677D02*
X151645000Y-30577677D01*
X157803000Y-30537677D02*
X151697000Y-30537677D01*
X157750000Y-30497677D02*
X151750000Y-30497677D01*
X157695000Y-30457677D02*
X151805000Y-30457677D01*
X157638000Y-30417677D02*
X151862000Y-30417677D01*
X157580000Y-30377677D02*
X151920000Y-30377677D01*
X157520000Y-30337677D02*
X151980000Y-30337677D01*
X157458000Y-30297677D02*
X152042000Y-30297677D01*
X157394000Y-30257677D02*
X152106000Y-30257677D01*
X157328000Y-30217677D02*
X152172000Y-30217677D01*
X157260000Y-30177677D02*
X152240000Y-30177677D01*
X157189000Y-30137677D02*
X152311000Y-30137677D01*
X157115000Y-30097677D02*
X152385000Y-30097677D01*
X157038000Y-30057677D02*
X152462000Y-30057677D01*
X156958000Y-30017677D02*
X152542000Y-30017677D01*
X156874000Y-29977677D02*
X152626000Y-29977677D01*
X156787000Y-29937677D02*
X152713000Y-29937677D01*
X156694000Y-29897677D02*
X152806000Y-29897677D01*
X156596000Y-29857677D02*
X152904000Y-29857677D01*
X156492000Y-29817677D02*
X153008000Y-29817677D01*
X156380000Y-29777677D02*
X153120000Y-29777677D01*
X156259000Y-29737677D02*
X153241000Y-29737677D01*
X156127000Y-29697677D02*
X153373000Y-29697677D01*
X155980000Y-29657677D02*
X153520000Y-29657677D01*
X155812000Y-29617677D02*
X153688000Y-29617677D01*
X155612000Y-29577677D02*
X153888000Y-29577677D01*
X155349000Y-29537677D02*
X154151000Y-29537677D01*
X159870000Y-34617677D02*
G75*
G02*
X149630000Y-34617677I-5120000J0D01*
G01*
X149630000Y-34617677D02*
G75*
G02*
X159870000Y-34617677I5120000J0D01*
G01*
%TO.C,J2*%
X27880000Y-31140000D02*
X26500000Y-31140000D01*
X27880000Y-32520000D02*
X27880000Y-31140000D01*
X27880000Y-33790000D02*
X27880000Y-38980000D01*
X27880000Y-33790000D02*
X25120000Y-33790000D01*
X27880000Y-38980000D02*
X25120000Y-38980000D01*
X25120000Y-33790000D02*
X25120000Y-38980000D01*
%TO.C,C16*%
X142011252Y-21765000D02*
X141488748Y-21765000D01*
X142011252Y-23235000D02*
X141488748Y-23235000D01*
%TO.C,C15*%
X123048752Y-21765000D02*
X122526248Y-21765000D01*
X123048752Y-23235000D02*
X122526248Y-23235000D01*
%TO.C,C14*%
X103723752Y-21765000D02*
X103201248Y-21765000D01*
X103723752Y-23235000D02*
X103201248Y-23235000D01*
%TO.C,C13*%
X84723752Y-21765000D02*
X84201248Y-21765000D01*
X84723752Y-23235000D02*
X84201248Y-23235000D01*
%TO.C,C12*%
X65723752Y-21765000D02*
X65201248Y-21765000D01*
X65723752Y-23235000D02*
X65201248Y-23235000D01*
%TO.C,C11*%
X129988748Y-23235000D02*
X130511252Y-23235000D01*
X129988748Y-21765000D02*
X130511252Y-21765000D01*
%TO.C,C10*%
X110951248Y-23235000D02*
X111473752Y-23235000D01*
X110951248Y-21765000D02*
X111473752Y-21765000D01*
%TO.C,C9*%
X91988748Y-23235000D02*
X92511252Y-23235000D01*
X91988748Y-21765000D02*
X92511252Y-21765000D01*
%TO.C,C8*%
X72951248Y-23235000D02*
X73473752Y-23235000D01*
X72951248Y-21765000D02*
X73473752Y-21765000D01*
%TO.C,C7*%
X53951248Y-23235000D02*
X54473752Y-23235000D01*
X53951248Y-21765000D02*
X54473752Y-21765000D01*
%TO.C,C6*%
X135701248Y-65515000D02*
X136223752Y-65515000D01*
X135701248Y-66985000D02*
X136223752Y-66985000D01*
%TO.C,C5*%
X116701248Y-66985000D02*
X117223752Y-66985000D01*
X116701248Y-65515000D02*
X117223752Y-65515000D01*
%TO.C,SW11*%
X129050000Y-51070000D02*
X143020000Y-51070000D01*
X129050000Y-65040000D02*
X129050000Y-51070000D01*
D13*
X131750000Y-62970000D02*
X132250000Y-62470000D01*
D12*
X143000000Y-51070000D02*
X143000000Y-65040000D01*
X143020000Y-65070000D02*
X129050000Y-65070000D01*
D13*
X140254951Y-64270000D02*
G75*
G02*
X139745049Y-64270000I-254951J0D01*
G01*
X139745049Y-64270000D02*
G75*
G02*
X140254951Y-64270000I254951J0D01*
G01*
D12*
%TO.C,SW10*%
X110000000Y-51070000D02*
X123970000Y-51070000D01*
X110000000Y-65040000D02*
X110000000Y-51070000D01*
D13*
X112700000Y-62970000D02*
X113200000Y-62470000D01*
D12*
X123950000Y-51070000D02*
X123950000Y-65040000D01*
X123970000Y-65070000D02*
X110000000Y-65070000D01*
D13*
X121204951Y-64270000D02*
G75*
G02*
X120695049Y-64270000I-254951J0D01*
G01*
X120695049Y-64270000D02*
G75*
G02*
X121204951Y-64270000I254951J0D01*
G01*
D12*
%TO.C,SW9*%
X90950000Y-51070000D02*
X104920000Y-51070000D01*
X90950000Y-65040000D02*
X90950000Y-51070000D01*
D13*
X93650000Y-62970000D02*
X94150000Y-62470000D01*
D12*
X104900000Y-51070000D02*
X104900000Y-65040000D01*
X104920000Y-65070000D02*
X90950000Y-65070000D01*
D13*
X102154951Y-64270000D02*
G75*
G02*
X101645049Y-64270000I-254951J0D01*
G01*
X101645049Y-64270000D02*
G75*
G02*
X102154951Y-64270000I254951J0D01*
G01*
D12*
%TO.C,SW8*%
X71900000Y-51070000D02*
X85870000Y-51070000D01*
X71900000Y-65040000D02*
X71900000Y-51070000D01*
D13*
X74600000Y-62970000D02*
X75100000Y-62470000D01*
D12*
X85850000Y-51070000D02*
X85850000Y-65040000D01*
X85870000Y-65070000D02*
X71900000Y-65070000D01*
D13*
X83104951Y-64270000D02*
G75*
G02*
X82595049Y-64270000I-254951J0D01*
G01*
X82595049Y-64270000D02*
G75*
G02*
X83104951Y-64270000I254951J0D01*
G01*
D12*
%TO.C,SW7*%
X52850000Y-51070000D02*
X66820000Y-51070000D01*
X52850000Y-65040000D02*
X52850000Y-51070000D01*
D13*
X55550000Y-62970000D02*
X56050000Y-62470000D01*
D12*
X66800000Y-51070000D02*
X66800000Y-65040000D01*
X66820000Y-65070000D02*
X52850000Y-65070000D01*
D13*
X64054951Y-64270000D02*
G75*
G02*
X63545049Y-64270000I-254951J0D01*
G01*
X63545049Y-64270000D02*
G75*
G02*
X64054951Y-64270000I254951J0D01*
G01*
D12*
%TO.C,SW6*%
X33800000Y-51070000D02*
X47770000Y-51070000D01*
X33800000Y-65040000D02*
X33800000Y-51070000D01*
D13*
X36500000Y-62970000D02*
X37000000Y-62470000D01*
D12*
X47750000Y-51070000D02*
X47750000Y-65040000D01*
X47770000Y-65070000D02*
X33800000Y-65070000D01*
D13*
X45004951Y-64270000D02*
G75*
G02*
X44495049Y-64270000I-254951J0D01*
G01*
X44495049Y-64270000D02*
G75*
G02*
X45004951Y-64270000I254951J0D01*
G01*
D12*
%TO.C,R9*%
X122977064Y-23765000D02*
X122522936Y-23765000D01*
X122977064Y-25235000D02*
X122522936Y-25235000D01*
%TO.C,R8*%
X103727064Y-23765000D02*
X103272936Y-23765000D01*
X103727064Y-25235000D02*
X103272936Y-25235000D01*
%TO.C,R7*%
X84727064Y-23765000D02*
X84272936Y-23765000D01*
X84727064Y-25235000D02*
X84272936Y-25235000D01*
%TO.C,R6*%
X65727064Y-23765000D02*
X65272936Y-23765000D01*
X65727064Y-25235000D02*
X65272936Y-25235000D01*
%TO.C,R5*%
X130022936Y-25235000D02*
X130477064Y-25235000D01*
X130022936Y-23765000D02*
X130477064Y-23765000D01*
%TO.C,R4*%
X111022936Y-25235000D02*
X111477064Y-25235000D01*
X111022936Y-23765000D02*
X111477064Y-23765000D01*
%TO.C,R3*%
X92022936Y-25235000D02*
X92477064Y-25235000D01*
X92022936Y-23765000D02*
X92477064Y-23765000D01*
%TO.C,R2*%
X73022936Y-25235000D02*
X73477064Y-25235000D01*
X73022936Y-23765000D02*
X73477064Y-23765000D01*
%TO.C,R1*%
X54022936Y-25235000D02*
X54477064Y-25235000D01*
X54022936Y-23765000D02*
X54477064Y-23765000D01*
%TO.C,J5*%
X160100000Y-45250000D02*
X160100000Y-46500000D01*
X159800000Y-47800000D02*
X159050000Y-47800000D01*
X159050000Y-47800000D02*
X159050000Y-50750000D01*
X159050000Y-50750000D02*
X154750000Y-50750000D01*
X158850000Y-45250000D02*
X160100000Y-45250000D01*
X150450000Y-47800000D02*
X150450000Y-50750000D01*
X150450000Y-50750000D02*
X154750000Y-50750000D01*
X149700000Y-47800000D02*
X150450000Y-47800000D01*
X159810000Y-45540000D02*
X149690000Y-45540000D01*
X149690000Y-51510000D01*
X159810000Y-51510000D01*
X159810000Y-45540000D01*
X159800000Y-45550000D02*
X158000000Y-45550000D01*
X158000000Y-46300000D01*
X159800000Y-46300000D01*
X159800000Y-45550000D01*
X156500000Y-45550000D02*
X153000000Y-45550000D01*
X153000000Y-46300000D01*
X156500000Y-46300000D01*
X156500000Y-45550000D01*
X151500000Y-45550000D02*
X149700000Y-45550000D01*
X149700000Y-46300000D01*
X151500000Y-46300000D01*
X151500000Y-45550000D01*
%TO.C,J4*%
X160100000Y-53000000D02*
X160100000Y-54250000D01*
X159800000Y-55550000D02*
X159050000Y-55550000D01*
X159050000Y-55550000D02*
X159050000Y-58500000D01*
X159050000Y-58500000D02*
X154750000Y-58500000D01*
X158850000Y-53000000D02*
X160100000Y-53000000D01*
X150450000Y-55550000D02*
X150450000Y-58500000D01*
X150450000Y-58500000D02*
X154750000Y-58500000D01*
X149700000Y-55550000D02*
X150450000Y-55550000D01*
X159810000Y-53290000D02*
X149690000Y-53290000D01*
X149690000Y-59260000D01*
X159810000Y-59260000D01*
X159810000Y-53290000D01*
X159800000Y-53300000D02*
X158000000Y-53300000D01*
X158000000Y-54050000D01*
X159800000Y-54050000D01*
X159800000Y-53300000D01*
X156500000Y-53300000D02*
X153000000Y-53300000D01*
X153000000Y-54050000D01*
X156500000Y-54050000D01*
X156500000Y-53300000D01*
X151500000Y-53300000D02*
X149700000Y-53300000D01*
X149700000Y-54050000D01*
X151500000Y-54050000D01*
X151500000Y-53300000D01*
%TO.C,J3*%
X23120000Y-51000000D02*
X24500000Y-51000000D01*
X23120000Y-49620000D02*
X23120000Y-51000000D01*
X23120000Y-48350000D02*
X23120000Y-40620000D01*
X23120000Y-48350000D02*
X25770000Y-48350000D01*
X23120000Y-40620000D02*
X28420000Y-40620000D01*
X25770000Y-51000000D02*
X28420000Y-51000000D01*
X25770000Y-48350000D02*
X25770000Y-51000000D01*
X28420000Y-51000000D02*
X28420000Y-40620000D01*
%TO.C,J1*%
X47130000Y-23580000D02*
X45750000Y-23580000D01*
X47130000Y-24960000D02*
X47130000Y-23580000D01*
X47130000Y-26230000D02*
X47130000Y-39040000D01*
X47130000Y-26230000D02*
X44480000Y-26230000D01*
X47130000Y-39040000D02*
X41830000Y-39040000D01*
X44480000Y-23580000D02*
X41830000Y-23580000D01*
X44480000Y-26230000D02*
X44480000Y-23580000D01*
X41830000Y-23580000D02*
X41830000Y-39040000D01*
%TO.C,C4*%
X97701248Y-66985000D02*
X98223752Y-66985000D01*
X97701248Y-65515000D02*
X98223752Y-65515000D01*
%TO.C,C3*%
X78451248Y-66985000D02*
X78973752Y-66985000D01*
X78451248Y-65515000D02*
X78973752Y-65515000D01*
%TO.C,C2*%
X59451248Y-66985000D02*
X59973752Y-66985000D01*
X59451248Y-65515000D02*
X59973752Y-65515000D01*
%TO.C,C1*%
X40451248Y-66985000D02*
X40973752Y-66985000D01*
X40451248Y-65515000D02*
X40973752Y-65515000D01*
%TO.C,R10*%
X141977064Y-23765000D02*
X141522936Y-23765000D01*
X141977064Y-25235000D02*
X141522936Y-25235000D01*
%TD*%
M02*
