%TF.GenerationSoftware,KiCad,Pcbnew,9.0.9-1.fc43*%
%TF.CreationDate,2026-05-12T19:07:22+02:00*%
%TF.ProjectId,Fader_taster_5x2,46616465-725f-4746-9173-7465725f3578,rev?*%
%TF.SameCoordinates,Original*%
%TF.FileFunction,Soldermask,Top*%
%TF.FilePolarity,Negative*%
%FSLAX46Y46*%
G04 Gerber Fmt 4.6, Leading zero omitted, Abs format (unit mm)*
G04 Created by KiCad (PCBNEW 9.0.9-1.fc43) date 2026-05-12 19:07:22*
%MOMM*%
%LPD*%
G01*
G04 APERTURE LIST*
G04 Aperture macros list*
%AMRoundRect*
0 Rectangle with rounded corners*
0 $1 Rounding radius*
0 $2 $3 $4 $5 $6 $7 $8 $9 X,Y pos of 4 corners*
0 Add a 4 corners polygon primitive as box body*
4,1,4,$2,$3,$4,$5,$6,$7,$8,$9,$2,$3,0*
0 Add four circle primitives for the rounded corners*
1,1,$1+$1,$2,$3*
1,1,$1+$1,$4,$5*
1,1,$1+$1,$6,$7*
1,1,$1+$1,$8,$9*
0 Add four rect primitives between the rounded corners*
20,1,$1+$1,$2,$3,$4,$5,0*
20,1,$1+$1,$4,$5,$6,$7,0*
20,1,$1+$1,$6,$7,$8,$9,0*
20,1,$1+$1,$8,$9,$2,$3,0*%
G04 Aperture macros list end*
%ADD10C,4.000000*%
%ADD11C,2.200000*%
%ADD12RoundRect,0.250000X-0.725000X0.600000X-0.725000X-0.600000X0.725000X-0.600000X0.725000X0.600000X0*%
%ADD13O,1.950000X1.700000*%
%ADD14R,1.700000X1.700000*%
%ADD15C,1.700000*%
%ADD16RoundRect,0.250000X-0.750000X0.750000X-0.750000X-0.750000X0.750000X-0.750000X0.750000X0.750000X0*%
%ADD17C,2.000000*%
%ADD18RoundRect,0.250000X-0.600000X-0.725000X0.600000X-0.725000X0.600000X0.725000X-0.600000X0.725000X0*%
%ADD19O,1.700000X1.950000*%
G04 APERTURE END LIST*
D10*
%TO.C,SW9*%
X97200000Y-50100000D03*
D11*
X99740000Y-45020000D03*
X93390000Y-47560000D03*
%TD*%
D10*
%TO.C,SW8*%
X78150000Y-50100000D03*
D11*
X80690000Y-45020000D03*
X74340000Y-47560000D03*
%TD*%
D10*
%TO.C,SW5*%
X116250000Y-31050000D03*
D11*
X118790000Y-25970000D03*
X112440000Y-28510000D03*
%TD*%
D10*
%TO.C,SW3*%
X78150000Y-31050000D03*
D11*
X80690000Y-25970000D03*
X74340000Y-28510000D03*
%TD*%
D10*
%TO.C,SW1*%
X40050000Y-31050000D03*
D11*
X42590000Y-25970000D03*
X36240000Y-28510000D03*
%TD*%
D10*
%TO.C,SW10*%
X116250000Y-50100000D03*
D11*
X118790000Y-45020000D03*
X112440000Y-47560000D03*
%TD*%
D10*
%TO.C,SW6*%
X40050000Y-50100000D03*
D11*
X42590000Y-45020000D03*
X36240000Y-47560000D03*
%TD*%
D10*
%TO.C,SW4*%
X97200000Y-31050000D03*
D11*
X99740000Y-25970000D03*
X93390000Y-28510000D03*
%TD*%
D10*
%TO.C,SW7*%
X59100000Y-50100000D03*
D11*
X61640000Y-45020000D03*
X55290000Y-47560000D03*
%TD*%
D10*
%TO.C,SW2*%
X59100000Y-31050000D03*
D11*
X61640000Y-25970000D03*
X55290000Y-28510000D03*
%TD*%
D12*
%TO.C,J2*%
X25225000Y-31750000D03*
D13*
X25225000Y-34250000D03*
X25225000Y-36750000D03*
%TD*%
D14*
%TO.C,J1*%
X132250000Y-30500000D03*
D15*
X129710000Y-30500000D03*
X132250000Y-33040000D03*
X129710000Y-33040000D03*
X132250000Y-35580000D03*
X129710000Y-35580000D03*
X132250000Y-38120000D03*
X129710000Y-38120000D03*
X132250000Y-40660000D03*
X129710000Y-40660000D03*
X132250000Y-43200000D03*
X129710000Y-43200000D03*
%TD*%
D16*
%TO.C,C11*%
X25500000Y-44882323D03*
D17*
X25500000Y-49882323D03*
%TD*%
D18*
%TO.C,J3*%
X128750000Y-50250000D03*
D19*
X131250000Y-50250000D03*
X133750000Y-50250000D03*
%TD*%
M02*
