%TF.GenerationSoftware,KiCad,Pcbnew,9.0.9-1.fc43*%
%TF.CreationDate,2026-05-12T19:07:22+02:00*%
%TF.ProjectId,Fader_taster_5x2,46616465-725f-4746-9173-7465725f3578,rev?*%
%TF.SameCoordinates,Original*%
%TF.FileFunction,Legend,Top*%
%TF.FilePolarity,Positive*%
%FSLAX46Y46*%
G04 Gerber Fmt 4.6, Leading zero omitted, Abs format (unit mm)*
G04 Created by KiCad (PCBNEW 9.0.9-1.fc43) date 2026-05-12 19:07:22*
%MOMM*%
%LPD*%
G01*
G04 APERTURE LIST*
%ADD10C,0.120000*%
G04 APERTURE END LIST*
D10*
%TO.C,SW9*%
X90215000Y-43115000D02*
X104185000Y-43115000D01*
X90215000Y-57085000D02*
X90215000Y-43115000D01*
X104185000Y-43115000D02*
X104185000Y-57085000D01*
X104185000Y-57085000D02*
X90215000Y-57085000D01*
%TO.C,SW8*%
X71165000Y-43115000D02*
X85135000Y-43115000D01*
X71165000Y-57085000D02*
X71165000Y-43115000D01*
X85135000Y-43115000D02*
X85135000Y-57085000D01*
X85135000Y-57085000D02*
X71165000Y-57085000D01*
%TO.C,SW5*%
X109265000Y-24065000D02*
X123235000Y-24065000D01*
X109265000Y-38035000D02*
X109265000Y-24065000D01*
X123235000Y-24065000D02*
X123235000Y-38035000D01*
X123235000Y-38035000D02*
X109265000Y-38035000D01*
%TO.C,SW3*%
X71165000Y-24065000D02*
X85135000Y-24065000D01*
X71165000Y-38035000D02*
X71165000Y-24065000D01*
X85135000Y-24065000D02*
X85135000Y-38035000D01*
X85135000Y-38035000D02*
X71165000Y-38035000D01*
%TO.C,SW1*%
X33065000Y-24065000D02*
X47035000Y-24065000D01*
X33065000Y-38035000D02*
X33065000Y-24065000D01*
X47035000Y-24065000D02*
X47035000Y-38035000D01*
X47035000Y-38035000D02*
X33065000Y-38035000D01*
%TO.C,SW10*%
X109265000Y-43115000D02*
X123235000Y-43115000D01*
X109265000Y-57085000D02*
X109265000Y-43115000D01*
X123235000Y-43115000D02*
X123235000Y-57085000D01*
X123235000Y-57085000D02*
X109265000Y-57085000D01*
%TO.C,SW6*%
X33065000Y-43115000D02*
X47035000Y-43115000D01*
X33065000Y-57085000D02*
X33065000Y-43115000D01*
X47035000Y-43115000D02*
X47035000Y-57085000D01*
X47035000Y-57085000D02*
X33065000Y-57085000D01*
%TO.C,SW4*%
X90215000Y-24065000D02*
X104185000Y-24065000D01*
X90215000Y-38035000D02*
X90215000Y-24065000D01*
X104185000Y-24065000D02*
X104185000Y-38035000D01*
X104185000Y-38035000D02*
X90215000Y-38035000D01*
%TO.C,SW7*%
X52115000Y-43115000D02*
X66085000Y-43115000D01*
X52115000Y-57085000D02*
X52115000Y-43115000D01*
X66085000Y-43115000D02*
X66085000Y-57085000D01*
X66085000Y-57085000D02*
X52115000Y-57085000D01*
%TO.C,SW2*%
X52115000Y-24065000D02*
X66085000Y-24065000D01*
X52115000Y-38035000D02*
X52115000Y-24065000D01*
X66085000Y-24065000D02*
X66085000Y-38035000D01*
X66085000Y-38035000D02*
X52115000Y-38035000D01*
%TD*%
M02*
