%TF.GenerationSoftware,KiCad,Pcbnew,9.0.9-1.fc43*%
%TF.CreationDate,2026-05-12T19:07:22+02:00*%
%TF.ProjectId,Fader_taster_5x2,46616465-725f-4746-9173-7465725f3578,rev?*%
%TF.SameCoordinates,Original*%
%TF.FileFunction,Legend,Bot*%
%TF.FilePolarity,Positive*%
%FSLAX46Y46*%
G04 Gerber Fmt 4.6, Leading zero omitted, Abs format (unit mm)*
G04 Created by KiCad (PCBNEW 9.0.9-1.fc43) date 2026-05-12 19:07:22*
%MOMM*%
%LPD*%
G01*
G04 APERTURE LIST*
%ADD10C,0.100000*%
%ADD11C,0.300000*%
%ADD12C,0.150000*%
%ADD13C,0.120000*%
%ADD14C,0.050000*%
G04 APERTURE END LIST*
D10*
X135993734Y-43574800D02*
X135850877Y-43622419D01*
X135850877Y-43622419D02*
X135612782Y-43622419D01*
X135612782Y-43622419D02*
X135517544Y-43574800D01*
X135517544Y-43574800D02*
X135469925Y-43527180D01*
X135469925Y-43527180D02*
X135422306Y-43431942D01*
X135422306Y-43431942D02*
X135422306Y-43336704D01*
X135422306Y-43336704D02*
X135469925Y-43241466D01*
X135469925Y-43241466D02*
X135517544Y-43193847D01*
X135517544Y-43193847D02*
X135612782Y-43146228D01*
X135612782Y-43146228D02*
X135803258Y-43098609D01*
X135803258Y-43098609D02*
X135898496Y-43050990D01*
X135898496Y-43050990D02*
X135946115Y-43003371D01*
X135946115Y-43003371D02*
X135993734Y-42908133D01*
X135993734Y-42908133D02*
X135993734Y-42812895D01*
X135993734Y-42812895D02*
X135946115Y-42717657D01*
X135946115Y-42717657D02*
X135898496Y-42670038D01*
X135898496Y-42670038D02*
X135803258Y-42622419D01*
X135803258Y-42622419D02*
X135565163Y-42622419D01*
X135565163Y-42622419D02*
X135422306Y-42670038D01*
X134565163Y-42622419D02*
X134755639Y-42622419D01*
X134755639Y-42622419D02*
X134850877Y-42670038D01*
X134850877Y-42670038D02*
X134898496Y-42717657D01*
X134898496Y-42717657D02*
X134993734Y-42860514D01*
X134993734Y-42860514D02*
X135041353Y-43050990D01*
X135041353Y-43050990D02*
X135041353Y-43431942D01*
X135041353Y-43431942D02*
X134993734Y-43527180D01*
X134993734Y-43527180D02*
X134946115Y-43574800D01*
X134946115Y-43574800D02*
X134850877Y-43622419D01*
X134850877Y-43622419D02*
X134660401Y-43622419D01*
X134660401Y-43622419D02*
X134565163Y-43574800D01*
X134565163Y-43574800D02*
X134517544Y-43527180D01*
X134517544Y-43527180D02*
X134469925Y-43431942D01*
X134469925Y-43431942D02*
X134469925Y-43193847D01*
X134469925Y-43193847D02*
X134517544Y-43098609D01*
X134517544Y-43098609D02*
X134565163Y-43050990D01*
X134565163Y-43050990D02*
X134660401Y-43003371D01*
X134660401Y-43003371D02*
X134850877Y-43003371D01*
X134850877Y-43003371D02*
X134946115Y-43050990D01*
X134946115Y-43050990D02*
X134993734Y-43098609D01*
X134993734Y-43098609D02*
X135041353Y-43193847D01*
X135993734Y-41074800D02*
X135850877Y-41122419D01*
X135850877Y-41122419D02*
X135612782Y-41122419D01*
X135612782Y-41122419D02*
X135517544Y-41074800D01*
X135517544Y-41074800D02*
X135469925Y-41027180D01*
X135469925Y-41027180D02*
X135422306Y-40931942D01*
X135422306Y-40931942D02*
X135422306Y-40836704D01*
X135422306Y-40836704D02*
X135469925Y-40741466D01*
X135469925Y-40741466D02*
X135517544Y-40693847D01*
X135517544Y-40693847D02*
X135612782Y-40646228D01*
X135612782Y-40646228D02*
X135803258Y-40598609D01*
X135803258Y-40598609D02*
X135898496Y-40550990D01*
X135898496Y-40550990D02*
X135946115Y-40503371D01*
X135946115Y-40503371D02*
X135993734Y-40408133D01*
X135993734Y-40408133D02*
X135993734Y-40312895D01*
X135993734Y-40312895D02*
X135946115Y-40217657D01*
X135946115Y-40217657D02*
X135898496Y-40170038D01*
X135898496Y-40170038D02*
X135803258Y-40122419D01*
X135803258Y-40122419D02*
X135565163Y-40122419D01*
X135565163Y-40122419D02*
X135422306Y-40170038D01*
X135088972Y-40122419D02*
X134422306Y-40122419D01*
X134422306Y-40122419D02*
X134850877Y-41122419D01*
X135993734Y-38574800D02*
X135850877Y-38622419D01*
X135850877Y-38622419D02*
X135612782Y-38622419D01*
X135612782Y-38622419D02*
X135517544Y-38574800D01*
X135517544Y-38574800D02*
X135469925Y-38527180D01*
X135469925Y-38527180D02*
X135422306Y-38431942D01*
X135422306Y-38431942D02*
X135422306Y-38336704D01*
X135422306Y-38336704D02*
X135469925Y-38241466D01*
X135469925Y-38241466D02*
X135517544Y-38193847D01*
X135517544Y-38193847D02*
X135612782Y-38146228D01*
X135612782Y-38146228D02*
X135803258Y-38098609D01*
X135803258Y-38098609D02*
X135898496Y-38050990D01*
X135898496Y-38050990D02*
X135946115Y-38003371D01*
X135946115Y-38003371D02*
X135993734Y-37908133D01*
X135993734Y-37908133D02*
X135993734Y-37812895D01*
X135993734Y-37812895D02*
X135946115Y-37717657D01*
X135946115Y-37717657D02*
X135898496Y-37670038D01*
X135898496Y-37670038D02*
X135803258Y-37622419D01*
X135803258Y-37622419D02*
X135565163Y-37622419D01*
X135565163Y-37622419D02*
X135422306Y-37670038D01*
X134850877Y-38050990D02*
X134946115Y-38003371D01*
X134946115Y-38003371D02*
X134993734Y-37955752D01*
X134993734Y-37955752D02*
X135041353Y-37860514D01*
X135041353Y-37860514D02*
X135041353Y-37812895D01*
X135041353Y-37812895D02*
X134993734Y-37717657D01*
X134993734Y-37717657D02*
X134946115Y-37670038D01*
X134946115Y-37670038D02*
X134850877Y-37622419D01*
X134850877Y-37622419D02*
X134660401Y-37622419D01*
X134660401Y-37622419D02*
X134565163Y-37670038D01*
X134565163Y-37670038D02*
X134517544Y-37717657D01*
X134517544Y-37717657D02*
X134469925Y-37812895D01*
X134469925Y-37812895D02*
X134469925Y-37860514D01*
X134469925Y-37860514D02*
X134517544Y-37955752D01*
X134517544Y-37955752D02*
X134565163Y-38003371D01*
X134565163Y-38003371D02*
X134660401Y-38050990D01*
X134660401Y-38050990D02*
X134850877Y-38050990D01*
X134850877Y-38050990D02*
X134946115Y-38098609D01*
X134946115Y-38098609D02*
X134993734Y-38146228D01*
X134993734Y-38146228D02*
X135041353Y-38241466D01*
X135041353Y-38241466D02*
X135041353Y-38431942D01*
X135041353Y-38431942D02*
X134993734Y-38527180D01*
X134993734Y-38527180D02*
X134946115Y-38574800D01*
X134946115Y-38574800D02*
X134850877Y-38622419D01*
X134850877Y-38622419D02*
X134660401Y-38622419D01*
X134660401Y-38622419D02*
X134565163Y-38574800D01*
X134565163Y-38574800D02*
X134517544Y-38527180D01*
X134517544Y-38527180D02*
X134469925Y-38431942D01*
X134469925Y-38431942D02*
X134469925Y-38241466D01*
X134469925Y-38241466D02*
X134517544Y-38146228D01*
X134517544Y-38146228D02*
X134565163Y-38098609D01*
X134565163Y-38098609D02*
X134660401Y-38050990D01*
X135993734Y-36074800D02*
X135850877Y-36122419D01*
X135850877Y-36122419D02*
X135612782Y-36122419D01*
X135612782Y-36122419D02*
X135517544Y-36074800D01*
X135517544Y-36074800D02*
X135469925Y-36027180D01*
X135469925Y-36027180D02*
X135422306Y-35931942D01*
X135422306Y-35931942D02*
X135422306Y-35836704D01*
X135422306Y-35836704D02*
X135469925Y-35741466D01*
X135469925Y-35741466D02*
X135517544Y-35693847D01*
X135517544Y-35693847D02*
X135612782Y-35646228D01*
X135612782Y-35646228D02*
X135803258Y-35598609D01*
X135803258Y-35598609D02*
X135898496Y-35550990D01*
X135898496Y-35550990D02*
X135946115Y-35503371D01*
X135946115Y-35503371D02*
X135993734Y-35408133D01*
X135993734Y-35408133D02*
X135993734Y-35312895D01*
X135993734Y-35312895D02*
X135946115Y-35217657D01*
X135946115Y-35217657D02*
X135898496Y-35170038D01*
X135898496Y-35170038D02*
X135803258Y-35122419D01*
X135803258Y-35122419D02*
X135565163Y-35122419D01*
X135565163Y-35122419D02*
X135422306Y-35170038D01*
X134946115Y-36122419D02*
X134755639Y-36122419D01*
X134755639Y-36122419D02*
X134660401Y-36074800D01*
X134660401Y-36074800D02*
X134612782Y-36027180D01*
X134612782Y-36027180D02*
X134517544Y-35884323D01*
X134517544Y-35884323D02*
X134469925Y-35693847D01*
X134469925Y-35693847D02*
X134469925Y-35312895D01*
X134469925Y-35312895D02*
X134517544Y-35217657D01*
X134517544Y-35217657D02*
X134565163Y-35170038D01*
X134565163Y-35170038D02*
X134660401Y-35122419D01*
X134660401Y-35122419D02*
X134850877Y-35122419D01*
X134850877Y-35122419D02*
X134946115Y-35170038D01*
X134946115Y-35170038D02*
X134993734Y-35217657D01*
X134993734Y-35217657D02*
X135041353Y-35312895D01*
X135041353Y-35312895D02*
X135041353Y-35550990D01*
X135041353Y-35550990D02*
X134993734Y-35646228D01*
X134993734Y-35646228D02*
X134946115Y-35693847D01*
X134946115Y-35693847D02*
X134850877Y-35741466D01*
X134850877Y-35741466D02*
X134660401Y-35741466D01*
X134660401Y-35741466D02*
X134565163Y-35693847D01*
X134565163Y-35693847D02*
X134517544Y-35646228D01*
X134517544Y-35646228D02*
X134469925Y-35550990D01*
X135993734Y-33574800D02*
X135850877Y-33622419D01*
X135850877Y-33622419D02*
X135612782Y-33622419D01*
X135612782Y-33622419D02*
X135517544Y-33574800D01*
X135517544Y-33574800D02*
X135469925Y-33527180D01*
X135469925Y-33527180D02*
X135422306Y-33431942D01*
X135422306Y-33431942D02*
X135422306Y-33336704D01*
X135422306Y-33336704D02*
X135469925Y-33241466D01*
X135469925Y-33241466D02*
X135517544Y-33193847D01*
X135517544Y-33193847D02*
X135612782Y-33146228D01*
X135612782Y-33146228D02*
X135803258Y-33098609D01*
X135803258Y-33098609D02*
X135898496Y-33050990D01*
X135898496Y-33050990D02*
X135946115Y-33003371D01*
X135946115Y-33003371D02*
X135993734Y-32908133D01*
X135993734Y-32908133D02*
X135993734Y-32812895D01*
X135993734Y-32812895D02*
X135946115Y-32717657D01*
X135946115Y-32717657D02*
X135898496Y-32670038D01*
X135898496Y-32670038D02*
X135803258Y-32622419D01*
X135803258Y-32622419D02*
X135565163Y-32622419D01*
X135565163Y-32622419D02*
X135422306Y-32670038D01*
X134469925Y-33622419D02*
X135041353Y-33622419D01*
X134755639Y-33622419D02*
X134755639Y-32622419D01*
X134755639Y-32622419D02*
X134850877Y-32765276D01*
X134850877Y-32765276D02*
X134946115Y-32860514D01*
X134946115Y-32860514D02*
X135041353Y-32908133D01*
X133850877Y-32622419D02*
X133755639Y-32622419D01*
X133755639Y-32622419D02*
X133660401Y-32670038D01*
X133660401Y-32670038D02*
X133612782Y-32717657D01*
X133612782Y-32717657D02*
X133565163Y-32812895D01*
X133565163Y-32812895D02*
X133517544Y-33003371D01*
X133517544Y-33003371D02*
X133517544Y-33241466D01*
X133517544Y-33241466D02*
X133565163Y-33431942D01*
X133565163Y-33431942D02*
X133612782Y-33527180D01*
X133612782Y-33527180D02*
X133660401Y-33574800D01*
X133660401Y-33574800D02*
X133755639Y-33622419D01*
X133755639Y-33622419D02*
X133850877Y-33622419D01*
X133850877Y-33622419D02*
X133946115Y-33574800D01*
X133946115Y-33574800D02*
X133993734Y-33527180D01*
X133993734Y-33527180D02*
X134041353Y-33431942D01*
X134041353Y-33431942D02*
X134088972Y-33241466D01*
X134088972Y-33241466D02*
X134088972Y-33003371D01*
X134088972Y-33003371D02*
X134041353Y-32812895D01*
X134041353Y-32812895D02*
X133993734Y-32717657D01*
X133993734Y-32717657D02*
X133946115Y-32670038D01*
X133946115Y-32670038D02*
X133850877Y-32622419D01*
X127743734Y-43574800D02*
X127600877Y-43622419D01*
X127600877Y-43622419D02*
X127362782Y-43622419D01*
X127362782Y-43622419D02*
X127267544Y-43574800D01*
X127267544Y-43574800D02*
X127219925Y-43527180D01*
X127219925Y-43527180D02*
X127172306Y-43431942D01*
X127172306Y-43431942D02*
X127172306Y-43336704D01*
X127172306Y-43336704D02*
X127219925Y-43241466D01*
X127219925Y-43241466D02*
X127267544Y-43193847D01*
X127267544Y-43193847D02*
X127362782Y-43146228D01*
X127362782Y-43146228D02*
X127553258Y-43098609D01*
X127553258Y-43098609D02*
X127648496Y-43050990D01*
X127648496Y-43050990D02*
X127696115Y-43003371D01*
X127696115Y-43003371D02*
X127743734Y-42908133D01*
X127743734Y-42908133D02*
X127743734Y-42812895D01*
X127743734Y-42812895D02*
X127696115Y-42717657D01*
X127696115Y-42717657D02*
X127648496Y-42670038D01*
X127648496Y-42670038D02*
X127553258Y-42622419D01*
X127553258Y-42622419D02*
X127315163Y-42622419D01*
X127315163Y-42622419D02*
X127172306Y-42670038D01*
X126838972Y-42622419D02*
X126600877Y-43622419D01*
X126600877Y-43622419D02*
X126410401Y-42908133D01*
X126410401Y-42908133D02*
X126219925Y-43622419D01*
X126219925Y-43622419D02*
X125981830Y-42622419D01*
X125124687Y-42622419D02*
X125600877Y-42622419D01*
X125600877Y-42622419D02*
X125648496Y-43098609D01*
X125648496Y-43098609D02*
X125600877Y-43050990D01*
X125600877Y-43050990D02*
X125505639Y-43003371D01*
X125505639Y-43003371D02*
X125267544Y-43003371D01*
X125267544Y-43003371D02*
X125172306Y-43050990D01*
X125172306Y-43050990D02*
X125124687Y-43098609D01*
X125124687Y-43098609D02*
X125077068Y-43193847D01*
X125077068Y-43193847D02*
X125077068Y-43431942D01*
X125077068Y-43431942D02*
X125124687Y-43527180D01*
X125124687Y-43527180D02*
X125172306Y-43574800D01*
X125172306Y-43574800D02*
X125267544Y-43622419D01*
X125267544Y-43622419D02*
X125505639Y-43622419D01*
X125505639Y-43622419D02*
X125600877Y-43574800D01*
X125600877Y-43574800D02*
X125648496Y-43527180D01*
X127743734Y-41074800D02*
X127600877Y-41122419D01*
X127600877Y-41122419D02*
X127362782Y-41122419D01*
X127362782Y-41122419D02*
X127267544Y-41074800D01*
X127267544Y-41074800D02*
X127219925Y-41027180D01*
X127219925Y-41027180D02*
X127172306Y-40931942D01*
X127172306Y-40931942D02*
X127172306Y-40836704D01*
X127172306Y-40836704D02*
X127219925Y-40741466D01*
X127219925Y-40741466D02*
X127267544Y-40693847D01*
X127267544Y-40693847D02*
X127362782Y-40646228D01*
X127362782Y-40646228D02*
X127553258Y-40598609D01*
X127553258Y-40598609D02*
X127648496Y-40550990D01*
X127648496Y-40550990D02*
X127696115Y-40503371D01*
X127696115Y-40503371D02*
X127743734Y-40408133D01*
X127743734Y-40408133D02*
X127743734Y-40312895D01*
X127743734Y-40312895D02*
X127696115Y-40217657D01*
X127696115Y-40217657D02*
X127648496Y-40170038D01*
X127648496Y-40170038D02*
X127553258Y-40122419D01*
X127553258Y-40122419D02*
X127315163Y-40122419D01*
X127315163Y-40122419D02*
X127172306Y-40170038D01*
X126838972Y-40122419D02*
X126600877Y-41122419D01*
X126600877Y-41122419D02*
X126410401Y-40408133D01*
X126410401Y-40408133D02*
X126219925Y-41122419D01*
X126219925Y-41122419D02*
X125981830Y-40122419D01*
X125172306Y-40455752D02*
X125172306Y-41122419D01*
X125410401Y-40074800D02*
X125648496Y-40789085D01*
X125648496Y-40789085D02*
X125029449Y-40789085D01*
X127743734Y-38574800D02*
X127600877Y-38622419D01*
X127600877Y-38622419D02*
X127362782Y-38622419D01*
X127362782Y-38622419D02*
X127267544Y-38574800D01*
X127267544Y-38574800D02*
X127219925Y-38527180D01*
X127219925Y-38527180D02*
X127172306Y-38431942D01*
X127172306Y-38431942D02*
X127172306Y-38336704D01*
X127172306Y-38336704D02*
X127219925Y-38241466D01*
X127219925Y-38241466D02*
X127267544Y-38193847D01*
X127267544Y-38193847D02*
X127362782Y-38146228D01*
X127362782Y-38146228D02*
X127553258Y-38098609D01*
X127553258Y-38098609D02*
X127648496Y-38050990D01*
X127648496Y-38050990D02*
X127696115Y-38003371D01*
X127696115Y-38003371D02*
X127743734Y-37908133D01*
X127743734Y-37908133D02*
X127743734Y-37812895D01*
X127743734Y-37812895D02*
X127696115Y-37717657D01*
X127696115Y-37717657D02*
X127648496Y-37670038D01*
X127648496Y-37670038D02*
X127553258Y-37622419D01*
X127553258Y-37622419D02*
X127315163Y-37622419D01*
X127315163Y-37622419D02*
X127172306Y-37670038D01*
X126838972Y-37622419D02*
X126600877Y-38622419D01*
X126600877Y-38622419D02*
X126410401Y-37908133D01*
X126410401Y-37908133D02*
X126219925Y-38622419D01*
X126219925Y-38622419D02*
X125981830Y-37622419D01*
X125696115Y-37622419D02*
X125077068Y-37622419D01*
X125077068Y-37622419D02*
X125410401Y-38003371D01*
X125410401Y-38003371D02*
X125267544Y-38003371D01*
X125267544Y-38003371D02*
X125172306Y-38050990D01*
X125172306Y-38050990D02*
X125124687Y-38098609D01*
X125124687Y-38098609D02*
X125077068Y-38193847D01*
X125077068Y-38193847D02*
X125077068Y-38431942D01*
X125077068Y-38431942D02*
X125124687Y-38527180D01*
X125124687Y-38527180D02*
X125172306Y-38574800D01*
X125172306Y-38574800D02*
X125267544Y-38622419D01*
X125267544Y-38622419D02*
X125553258Y-38622419D01*
X125553258Y-38622419D02*
X125648496Y-38574800D01*
X125648496Y-38574800D02*
X125696115Y-38527180D01*
X127743734Y-36074800D02*
X127600877Y-36122419D01*
X127600877Y-36122419D02*
X127362782Y-36122419D01*
X127362782Y-36122419D02*
X127267544Y-36074800D01*
X127267544Y-36074800D02*
X127219925Y-36027180D01*
X127219925Y-36027180D02*
X127172306Y-35931942D01*
X127172306Y-35931942D02*
X127172306Y-35836704D01*
X127172306Y-35836704D02*
X127219925Y-35741466D01*
X127219925Y-35741466D02*
X127267544Y-35693847D01*
X127267544Y-35693847D02*
X127362782Y-35646228D01*
X127362782Y-35646228D02*
X127553258Y-35598609D01*
X127553258Y-35598609D02*
X127648496Y-35550990D01*
X127648496Y-35550990D02*
X127696115Y-35503371D01*
X127696115Y-35503371D02*
X127743734Y-35408133D01*
X127743734Y-35408133D02*
X127743734Y-35312895D01*
X127743734Y-35312895D02*
X127696115Y-35217657D01*
X127696115Y-35217657D02*
X127648496Y-35170038D01*
X127648496Y-35170038D02*
X127553258Y-35122419D01*
X127553258Y-35122419D02*
X127315163Y-35122419D01*
X127315163Y-35122419D02*
X127172306Y-35170038D01*
X126838972Y-35122419D02*
X126600877Y-36122419D01*
X126600877Y-36122419D02*
X126410401Y-35408133D01*
X126410401Y-35408133D02*
X126219925Y-36122419D01*
X126219925Y-36122419D02*
X125981830Y-35122419D01*
X125648496Y-35217657D02*
X125600877Y-35170038D01*
X125600877Y-35170038D02*
X125505639Y-35122419D01*
X125505639Y-35122419D02*
X125267544Y-35122419D01*
X125267544Y-35122419D02*
X125172306Y-35170038D01*
X125172306Y-35170038D02*
X125124687Y-35217657D01*
X125124687Y-35217657D02*
X125077068Y-35312895D01*
X125077068Y-35312895D02*
X125077068Y-35408133D01*
X125077068Y-35408133D02*
X125124687Y-35550990D01*
X125124687Y-35550990D02*
X125696115Y-36122419D01*
X125696115Y-36122419D02*
X125077068Y-36122419D01*
X127743734Y-33574800D02*
X127600877Y-33622419D01*
X127600877Y-33622419D02*
X127362782Y-33622419D01*
X127362782Y-33622419D02*
X127267544Y-33574800D01*
X127267544Y-33574800D02*
X127219925Y-33527180D01*
X127219925Y-33527180D02*
X127172306Y-33431942D01*
X127172306Y-33431942D02*
X127172306Y-33336704D01*
X127172306Y-33336704D02*
X127219925Y-33241466D01*
X127219925Y-33241466D02*
X127267544Y-33193847D01*
X127267544Y-33193847D02*
X127362782Y-33146228D01*
X127362782Y-33146228D02*
X127553258Y-33098609D01*
X127553258Y-33098609D02*
X127648496Y-33050990D01*
X127648496Y-33050990D02*
X127696115Y-33003371D01*
X127696115Y-33003371D02*
X127743734Y-32908133D01*
X127743734Y-32908133D02*
X127743734Y-32812895D01*
X127743734Y-32812895D02*
X127696115Y-32717657D01*
X127696115Y-32717657D02*
X127648496Y-32670038D01*
X127648496Y-32670038D02*
X127553258Y-32622419D01*
X127553258Y-32622419D02*
X127315163Y-32622419D01*
X127315163Y-32622419D02*
X127172306Y-32670038D01*
X126838972Y-32622419D02*
X126600877Y-33622419D01*
X126600877Y-33622419D02*
X126410401Y-32908133D01*
X126410401Y-32908133D02*
X126219925Y-33622419D01*
X126219925Y-33622419D02*
X125981830Y-32622419D01*
X125077068Y-33622419D02*
X125648496Y-33622419D01*
X125362782Y-33622419D02*
X125362782Y-32622419D01*
X125362782Y-32622419D02*
X125458020Y-32765276D01*
X125458020Y-32765276D02*
X125553258Y-32860514D01*
X125553258Y-32860514D02*
X125648496Y-32908133D01*
X135422306Y-29920038D02*
X135517544Y-29872419D01*
X135517544Y-29872419D02*
X135660401Y-29872419D01*
X135660401Y-29872419D02*
X135803258Y-29920038D01*
X135803258Y-29920038D02*
X135898496Y-30015276D01*
X135898496Y-30015276D02*
X135946115Y-30110514D01*
X135946115Y-30110514D02*
X135993734Y-30300990D01*
X135993734Y-30300990D02*
X135993734Y-30443847D01*
X135993734Y-30443847D02*
X135946115Y-30634323D01*
X135946115Y-30634323D02*
X135898496Y-30729561D01*
X135898496Y-30729561D02*
X135803258Y-30824800D01*
X135803258Y-30824800D02*
X135660401Y-30872419D01*
X135660401Y-30872419D02*
X135565163Y-30872419D01*
X135565163Y-30872419D02*
X135422306Y-30824800D01*
X135422306Y-30824800D02*
X135374687Y-30777180D01*
X135374687Y-30777180D02*
X135374687Y-30443847D01*
X135374687Y-30443847D02*
X135565163Y-30443847D01*
X134946115Y-30872419D02*
X134946115Y-29872419D01*
X134946115Y-29872419D02*
X134374687Y-30872419D01*
X134374687Y-30872419D02*
X134374687Y-29872419D01*
X133898496Y-30872419D02*
X133898496Y-29872419D01*
X133898496Y-29872419D02*
X133660401Y-29872419D01*
X133660401Y-29872419D02*
X133517544Y-29920038D01*
X133517544Y-29920038D02*
X133422306Y-30015276D01*
X133422306Y-30015276D02*
X133374687Y-30110514D01*
X133374687Y-30110514D02*
X133327068Y-30300990D01*
X133327068Y-30300990D02*
X133327068Y-30443847D01*
X133327068Y-30443847D02*
X133374687Y-30634323D01*
X133374687Y-30634323D02*
X133422306Y-30729561D01*
X133422306Y-30729561D02*
X133517544Y-30824800D01*
X133517544Y-30824800D02*
X133660401Y-30872419D01*
X133660401Y-30872419D02*
X133898496Y-30872419D01*
X127422306Y-29920038D02*
X127517544Y-29872419D01*
X127517544Y-29872419D02*
X127660401Y-29872419D01*
X127660401Y-29872419D02*
X127803258Y-29920038D01*
X127803258Y-29920038D02*
X127898496Y-30015276D01*
X127898496Y-30015276D02*
X127946115Y-30110514D01*
X127946115Y-30110514D02*
X127993734Y-30300990D01*
X127993734Y-30300990D02*
X127993734Y-30443847D01*
X127993734Y-30443847D02*
X127946115Y-30634323D01*
X127946115Y-30634323D02*
X127898496Y-30729561D01*
X127898496Y-30729561D02*
X127803258Y-30824800D01*
X127803258Y-30824800D02*
X127660401Y-30872419D01*
X127660401Y-30872419D02*
X127565163Y-30872419D01*
X127565163Y-30872419D02*
X127422306Y-30824800D01*
X127422306Y-30824800D02*
X127374687Y-30777180D01*
X127374687Y-30777180D02*
X127374687Y-30443847D01*
X127374687Y-30443847D02*
X127565163Y-30443847D01*
X126946115Y-30872419D02*
X126946115Y-29872419D01*
X126946115Y-29872419D02*
X126374687Y-30872419D01*
X126374687Y-30872419D02*
X126374687Y-29872419D01*
X125898496Y-30872419D02*
X125898496Y-29872419D01*
X125898496Y-29872419D02*
X125660401Y-29872419D01*
X125660401Y-29872419D02*
X125517544Y-29920038D01*
X125517544Y-29920038D02*
X125422306Y-30015276D01*
X125422306Y-30015276D02*
X125374687Y-30110514D01*
X125374687Y-30110514D02*
X125327068Y-30300990D01*
X125327068Y-30300990D02*
X125327068Y-30443847D01*
X125327068Y-30443847D02*
X125374687Y-30634323D01*
X125374687Y-30634323D02*
X125422306Y-30729561D01*
X125422306Y-30729561D02*
X125517544Y-30824800D01*
X125517544Y-30824800D02*
X125660401Y-30872419D01*
X125660401Y-30872419D02*
X125898496Y-30872419D01*
X128420038Y-53827693D02*
X128372419Y-53732455D01*
X128372419Y-53732455D02*
X128372419Y-53589598D01*
X128372419Y-53589598D02*
X128420038Y-53446741D01*
X128420038Y-53446741D02*
X128515276Y-53351503D01*
X128515276Y-53351503D02*
X128610514Y-53303884D01*
X128610514Y-53303884D02*
X128800990Y-53256265D01*
X128800990Y-53256265D02*
X128943847Y-53256265D01*
X128943847Y-53256265D02*
X129134323Y-53303884D01*
X129134323Y-53303884D02*
X129229561Y-53351503D01*
X129229561Y-53351503D02*
X129324800Y-53446741D01*
X129324800Y-53446741D02*
X129372419Y-53589598D01*
X129372419Y-53589598D02*
X129372419Y-53684836D01*
X129372419Y-53684836D02*
X129324800Y-53827693D01*
X129324800Y-53827693D02*
X129277180Y-53875312D01*
X129277180Y-53875312D02*
X128943847Y-53875312D01*
X128943847Y-53875312D02*
X128943847Y-53684836D01*
X129372419Y-54303884D02*
X128372419Y-54303884D01*
X128372419Y-54303884D02*
X129372419Y-54875312D01*
X129372419Y-54875312D02*
X128372419Y-54875312D01*
X129372419Y-55351503D02*
X128372419Y-55351503D01*
X128372419Y-55351503D02*
X128372419Y-55589598D01*
X128372419Y-55589598D02*
X128420038Y-55732455D01*
X128420038Y-55732455D02*
X128515276Y-55827693D01*
X128515276Y-55827693D02*
X128610514Y-55875312D01*
X128610514Y-55875312D02*
X128800990Y-55922931D01*
X128800990Y-55922931D02*
X128943847Y-55922931D01*
X128943847Y-55922931D02*
X129134323Y-55875312D01*
X129134323Y-55875312D02*
X129229561Y-55827693D01*
X129229561Y-55827693D02*
X129324800Y-55732455D01*
X129324800Y-55732455D02*
X129372419Y-55589598D01*
X129372419Y-55589598D02*
X129372419Y-55351503D01*
X133991466Y-53303884D02*
X133991466Y-54065789D01*
X134372419Y-53684836D02*
X133610514Y-53684836D01*
X133372419Y-55018169D02*
X133372419Y-54541979D01*
X133372419Y-54541979D02*
X133848609Y-54494360D01*
X133848609Y-54494360D02*
X133800990Y-54541979D01*
X133800990Y-54541979D02*
X133753371Y-54637217D01*
X133753371Y-54637217D02*
X133753371Y-54875312D01*
X133753371Y-54875312D02*
X133800990Y-54970550D01*
X133800990Y-54970550D02*
X133848609Y-55018169D01*
X133848609Y-55018169D02*
X133943847Y-55065788D01*
X133943847Y-55065788D02*
X134181942Y-55065788D01*
X134181942Y-55065788D02*
X134277180Y-55018169D01*
X134277180Y-55018169D02*
X134324800Y-54970550D01*
X134324800Y-54970550D02*
X134372419Y-54875312D01*
X134372419Y-54875312D02*
X134372419Y-54637217D01*
X134372419Y-54637217D02*
X134324800Y-54541979D01*
X134324800Y-54541979D02*
X134277180Y-54494360D01*
X133372419Y-55351503D02*
X134372419Y-55684836D01*
X134372419Y-55684836D02*
X133372419Y-56018169D01*
X31946115Y-34872419D02*
X31946115Y-33872419D01*
X31946115Y-33872419D02*
X31708020Y-33872419D01*
X31708020Y-33872419D02*
X31565163Y-33920038D01*
X31565163Y-33920038D02*
X31469925Y-34015276D01*
X31469925Y-34015276D02*
X31422306Y-34110514D01*
X31422306Y-34110514D02*
X31374687Y-34300990D01*
X31374687Y-34300990D02*
X31374687Y-34443847D01*
X31374687Y-34443847D02*
X31422306Y-34634323D01*
X31422306Y-34634323D02*
X31469925Y-34729561D01*
X31469925Y-34729561D02*
X31565163Y-34824800D01*
X31565163Y-34824800D02*
X31708020Y-34872419D01*
X31708020Y-34872419D02*
X31946115Y-34872419D01*
X31184211Y-34967657D02*
X30422306Y-34967657D01*
X30184210Y-34872419D02*
X30184210Y-33872419D01*
X29708020Y-34872419D02*
X29708020Y-33872419D01*
X29708020Y-33872419D02*
X29136592Y-34872419D01*
X29136592Y-34872419D02*
X29136592Y-33872419D01*
X31172306Y-31420038D02*
X31267544Y-31372419D01*
X31267544Y-31372419D02*
X31410401Y-31372419D01*
X31410401Y-31372419D02*
X31553258Y-31420038D01*
X31553258Y-31420038D02*
X31648496Y-31515276D01*
X31648496Y-31515276D02*
X31696115Y-31610514D01*
X31696115Y-31610514D02*
X31743734Y-31800990D01*
X31743734Y-31800990D02*
X31743734Y-31943847D01*
X31743734Y-31943847D02*
X31696115Y-32134323D01*
X31696115Y-32134323D02*
X31648496Y-32229561D01*
X31648496Y-32229561D02*
X31553258Y-32324800D01*
X31553258Y-32324800D02*
X31410401Y-32372419D01*
X31410401Y-32372419D02*
X31315163Y-32372419D01*
X31315163Y-32372419D02*
X31172306Y-32324800D01*
X31172306Y-32324800D02*
X31124687Y-32277180D01*
X31124687Y-32277180D02*
X31124687Y-31943847D01*
X31124687Y-31943847D02*
X31315163Y-31943847D01*
X30696115Y-32372419D02*
X30696115Y-31372419D01*
X30696115Y-31372419D02*
X30124687Y-32372419D01*
X30124687Y-32372419D02*
X30124687Y-31372419D01*
X29648496Y-32372419D02*
X29648496Y-31372419D01*
X29648496Y-31372419D02*
X29410401Y-31372419D01*
X29410401Y-31372419D02*
X29267544Y-31420038D01*
X29267544Y-31420038D02*
X29172306Y-31515276D01*
X29172306Y-31515276D02*
X29124687Y-31610514D01*
X29124687Y-31610514D02*
X29077068Y-31800990D01*
X29077068Y-31800990D02*
X29077068Y-31943847D01*
X29077068Y-31943847D02*
X29124687Y-32134323D01*
X29124687Y-32134323D02*
X29172306Y-32229561D01*
X29172306Y-32229561D02*
X29267544Y-32324800D01*
X29267544Y-32324800D02*
X29410401Y-32372419D01*
X29410401Y-32372419D02*
X29648496Y-32372419D01*
X31946115Y-36991466D02*
X31184211Y-36991466D01*
X31565163Y-37372419D02*
X31565163Y-36610514D01*
X30231830Y-36372419D02*
X30708020Y-36372419D01*
X30708020Y-36372419D02*
X30755639Y-36848609D01*
X30755639Y-36848609D02*
X30708020Y-36800990D01*
X30708020Y-36800990D02*
X30612782Y-36753371D01*
X30612782Y-36753371D02*
X30374687Y-36753371D01*
X30374687Y-36753371D02*
X30279449Y-36800990D01*
X30279449Y-36800990D02*
X30231830Y-36848609D01*
X30231830Y-36848609D02*
X30184211Y-36943847D01*
X30184211Y-36943847D02*
X30184211Y-37181942D01*
X30184211Y-37181942D02*
X30231830Y-37277180D01*
X30231830Y-37277180D02*
X30279449Y-37324800D01*
X30279449Y-37324800D02*
X30374687Y-37372419D01*
X30374687Y-37372419D02*
X30612782Y-37372419D01*
X30612782Y-37372419D02*
X30708020Y-37324800D01*
X30708020Y-37324800D02*
X30755639Y-37277180D01*
X29898496Y-36372419D02*
X29565163Y-37372419D01*
X29565163Y-37372419D02*
X29231830Y-36372419D01*
X127743734Y-22104912D02*
X127600877Y-22152531D01*
X127600877Y-22152531D02*
X127362782Y-22152531D01*
X127362782Y-22152531D02*
X127267544Y-22104912D01*
X127267544Y-22104912D02*
X127219925Y-22057292D01*
X127219925Y-22057292D02*
X127172306Y-21962054D01*
X127172306Y-21962054D02*
X127172306Y-21866816D01*
X127172306Y-21866816D02*
X127219925Y-21771578D01*
X127219925Y-21771578D02*
X127267544Y-21723959D01*
X127267544Y-21723959D02*
X127362782Y-21676340D01*
X127362782Y-21676340D02*
X127553258Y-21628721D01*
X127553258Y-21628721D02*
X127648496Y-21581102D01*
X127648496Y-21581102D02*
X127696115Y-21533483D01*
X127696115Y-21533483D02*
X127743734Y-21438245D01*
X127743734Y-21438245D02*
X127743734Y-21343007D01*
X127743734Y-21343007D02*
X127696115Y-21247769D01*
X127696115Y-21247769D02*
X127648496Y-21200150D01*
X127648496Y-21200150D02*
X127553258Y-21152531D01*
X127553258Y-21152531D02*
X127315163Y-21152531D01*
X127315163Y-21152531D02*
X127172306Y-21200150D01*
X126743734Y-22057292D02*
X126696115Y-22104912D01*
X126696115Y-22104912D02*
X126743734Y-22152531D01*
X126743734Y-22152531D02*
X126791353Y-22104912D01*
X126791353Y-22104912D02*
X126743734Y-22057292D01*
X126743734Y-22057292D02*
X126743734Y-22152531D01*
X125505639Y-22152531D02*
X125505639Y-21152531D01*
X125505639Y-21152531D02*
X125124687Y-21152531D01*
X125124687Y-21152531D02*
X125029449Y-21200150D01*
X125029449Y-21200150D02*
X124981830Y-21247769D01*
X124981830Y-21247769D02*
X124934211Y-21343007D01*
X124934211Y-21343007D02*
X124934211Y-21485864D01*
X124934211Y-21485864D02*
X124981830Y-21581102D01*
X124981830Y-21581102D02*
X125029449Y-21628721D01*
X125029449Y-21628721D02*
X125124687Y-21676340D01*
X125124687Y-21676340D02*
X125505639Y-21676340D01*
X124077068Y-22152531D02*
X124077068Y-21628721D01*
X124077068Y-21628721D02*
X124124687Y-21533483D01*
X124124687Y-21533483D02*
X124219925Y-21485864D01*
X124219925Y-21485864D02*
X124410401Y-21485864D01*
X124410401Y-21485864D02*
X124505639Y-21533483D01*
X124077068Y-22104912D02*
X124172306Y-22152531D01*
X124172306Y-22152531D02*
X124410401Y-22152531D01*
X124410401Y-22152531D02*
X124505639Y-22104912D01*
X124505639Y-22104912D02*
X124553258Y-22009673D01*
X124553258Y-22009673D02*
X124553258Y-21914435D01*
X124553258Y-21914435D02*
X124505639Y-21819197D01*
X124505639Y-21819197D02*
X124410401Y-21771578D01*
X124410401Y-21771578D02*
X124172306Y-21771578D01*
X124172306Y-21771578D02*
X124077068Y-21723959D01*
X123172306Y-21485864D02*
X123172306Y-22152531D01*
X123600877Y-21485864D02*
X123600877Y-22009673D01*
X123600877Y-22009673D02*
X123553258Y-22104912D01*
X123553258Y-22104912D02*
X123458020Y-22152531D01*
X123458020Y-22152531D02*
X123315163Y-22152531D01*
X123315163Y-22152531D02*
X123219925Y-22104912D01*
X123219925Y-22104912D02*
X123172306Y-22057292D01*
X122838972Y-21485864D02*
X122458020Y-21485864D01*
X122696115Y-21152531D02*
X122696115Y-22009673D01*
X122696115Y-22009673D02*
X122648496Y-22104912D01*
X122648496Y-22104912D02*
X122553258Y-22152531D01*
X122553258Y-22152531D02*
X122458020Y-22152531D01*
X122124686Y-22152531D02*
X122124686Y-21152531D01*
X121696115Y-22152531D02*
X121696115Y-21628721D01*
X121696115Y-21628721D02*
X121743734Y-21533483D01*
X121743734Y-21533483D02*
X121838972Y-21485864D01*
X121838972Y-21485864D02*
X121981829Y-21485864D01*
X121981829Y-21485864D02*
X122077067Y-21533483D01*
X122077067Y-21533483D02*
X122124686Y-21581102D01*
X121219924Y-21485864D02*
X121219924Y-22152531D01*
X121219924Y-21581102D02*
X121172305Y-21533483D01*
X121172305Y-21533483D02*
X121077067Y-21485864D01*
X121077067Y-21485864D02*
X120934210Y-21485864D01*
X120934210Y-21485864D02*
X120838972Y-21533483D01*
X120838972Y-21533483D02*
X120791353Y-21628721D01*
X120791353Y-21628721D02*
X120791353Y-22152531D01*
X119934210Y-22104912D02*
X120029448Y-22152531D01*
X120029448Y-22152531D02*
X120219924Y-22152531D01*
X120219924Y-22152531D02*
X120315162Y-22104912D01*
X120315162Y-22104912D02*
X120362781Y-22009673D01*
X120362781Y-22009673D02*
X120362781Y-21628721D01*
X120362781Y-21628721D02*
X120315162Y-21533483D01*
X120315162Y-21533483D02*
X120219924Y-21485864D01*
X120219924Y-21485864D02*
X120029448Y-21485864D01*
X120029448Y-21485864D02*
X119934210Y-21533483D01*
X119934210Y-21533483D02*
X119886591Y-21628721D01*
X119886591Y-21628721D02*
X119886591Y-21723959D01*
X119886591Y-21723959D02*
X120362781Y-21819197D01*
X119458019Y-22152531D02*
X119458019Y-21485864D01*
X119458019Y-21676340D02*
X119410400Y-21581102D01*
X119410400Y-21581102D02*
X119362781Y-21533483D01*
X119362781Y-21533483D02*
X119267543Y-21485864D01*
X119267543Y-21485864D02*
X119172305Y-21485864D01*
X127172306Y-23762475D02*
X127743734Y-23762475D01*
X127458020Y-23762475D02*
X127458020Y-22762475D01*
X127458020Y-22762475D02*
X127553258Y-22905332D01*
X127553258Y-22905332D02*
X127648496Y-23000570D01*
X127648496Y-23000570D02*
X127743734Y-23048189D01*
X126791353Y-22857713D02*
X126743734Y-22810094D01*
X126743734Y-22810094D02*
X126648496Y-22762475D01*
X126648496Y-22762475D02*
X126410401Y-22762475D01*
X126410401Y-22762475D02*
X126315163Y-22810094D01*
X126315163Y-22810094D02*
X126267544Y-22857713D01*
X126267544Y-22857713D02*
X126219925Y-22952951D01*
X126219925Y-22952951D02*
X126219925Y-23048189D01*
X126219925Y-23048189D02*
X126267544Y-23191046D01*
X126267544Y-23191046D02*
X126838972Y-23762475D01*
X126838972Y-23762475D02*
X126219925Y-23762475D01*
X125791353Y-23667236D02*
X125743734Y-23714856D01*
X125743734Y-23714856D02*
X125791353Y-23762475D01*
X125791353Y-23762475D02*
X125838972Y-23714856D01*
X125838972Y-23714856D02*
X125791353Y-23667236D01*
X125791353Y-23667236D02*
X125791353Y-23762475D01*
X125124687Y-22762475D02*
X125029449Y-22762475D01*
X125029449Y-22762475D02*
X124934211Y-22810094D01*
X124934211Y-22810094D02*
X124886592Y-22857713D01*
X124886592Y-22857713D02*
X124838973Y-22952951D01*
X124838973Y-22952951D02*
X124791354Y-23143427D01*
X124791354Y-23143427D02*
X124791354Y-23381522D01*
X124791354Y-23381522D02*
X124838973Y-23571998D01*
X124838973Y-23571998D02*
X124886592Y-23667236D01*
X124886592Y-23667236D02*
X124934211Y-23714856D01*
X124934211Y-23714856D02*
X125029449Y-23762475D01*
X125029449Y-23762475D02*
X125124687Y-23762475D01*
X125124687Y-23762475D02*
X125219925Y-23714856D01*
X125219925Y-23714856D02*
X125267544Y-23667236D01*
X125267544Y-23667236D02*
X125315163Y-23571998D01*
X125315163Y-23571998D02*
X125362782Y-23381522D01*
X125362782Y-23381522D02*
X125362782Y-23143427D01*
X125362782Y-23143427D02*
X125315163Y-22952951D01*
X125315163Y-22952951D02*
X125267544Y-22857713D01*
X125267544Y-22857713D02*
X125219925Y-22810094D01*
X125219925Y-22810094D02*
X125124687Y-22762475D01*
X123886592Y-22762475D02*
X124362782Y-22762475D01*
X124362782Y-22762475D02*
X124410401Y-23238665D01*
X124410401Y-23238665D02*
X124362782Y-23191046D01*
X124362782Y-23191046D02*
X124267544Y-23143427D01*
X124267544Y-23143427D02*
X124029449Y-23143427D01*
X124029449Y-23143427D02*
X123934211Y-23191046D01*
X123934211Y-23191046D02*
X123886592Y-23238665D01*
X123886592Y-23238665D02*
X123838973Y-23333903D01*
X123838973Y-23333903D02*
X123838973Y-23571998D01*
X123838973Y-23571998D02*
X123886592Y-23667236D01*
X123886592Y-23667236D02*
X123934211Y-23714856D01*
X123934211Y-23714856D02*
X124029449Y-23762475D01*
X124029449Y-23762475D02*
X124267544Y-23762475D01*
X124267544Y-23762475D02*
X124362782Y-23714856D01*
X124362782Y-23714856D02*
X124410401Y-23667236D01*
X123410401Y-23667236D02*
X123362782Y-23714856D01*
X123362782Y-23714856D02*
X123410401Y-23762475D01*
X123410401Y-23762475D02*
X123458020Y-23714856D01*
X123458020Y-23714856D02*
X123410401Y-23667236D01*
X123410401Y-23667236D02*
X123410401Y-23762475D01*
X122981830Y-22857713D02*
X122934211Y-22810094D01*
X122934211Y-22810094D02*
X122838973Y-22762475D01*
X122838973Y-22762475D02*
X122600878Y-22762475D01*
X122600878Y-22762475D02*
X122505640Y-22810094D01*
X122505640Y-22810094D02*
X122458021Y-22857713D01*
X122458021Y-22857713D02*
X122410402Y-22952951D01*
X122410402Y-22952951D02*
X122410402Y-23048189D01*
X122410402Y-23048189D02*
X122458021Y-23191046D01*
X122458021Y-23191046D02*
X123029449Y-23762475D01*
X123029449Y-23762475D02*
X122410402Y-23762475D01*
X121791354Y-22762475D02*
X121696116Y-22762475D01*
X121696116Y-22762475D02*
X121600878Y-22810094D01*
X121600878Y-22810094D02*
X121553259Y-22857713D01*
X121553259Y-22857713D02*
X121505640Y-22952951D01*
X121505640Y-22952951D02*
X121458021Y-23143427D01*
X121458021Y-23143427D02*
X121458021Y-23381522D01*
X121458021Y-23381522D02*
X121505640Y-23571998D01*
X121505640Y-23571998D02*
X121553259Y-23667236D01*
X121553259Y-23667236D02*
X121600878Y-23714856D01*
X121600878Y-23714856D02*
X121696116Y-23762475D01*
X121696116Y-23762475D02*
X121791354Y-23762475D01*
X121791354Y-23762475D02*
X121886592Y-23714856D01*
X121886592Y-23714856D02*
X121934211Y-23667236D01*
X121934211Y-23667236D02*
X121981830Y-23571998D01*
X121981830Y-23571998D02*
X122029449Y-23381522D01*
X122029449Y-23381522D02*
X122029449Y-23143427D01*
X122029449Y-23143427D02*
X121981830Y-22952951D01*
X121981830Y-22952951D02*
X121934211Y-22857713D01*
X121934211Y-22857713D02*
X121886592Y-22810094D01*
X121886592Y-22810094D02*
X121791354Y-22762475D01*
X121077068Y-22857713D02*
X121029449Y-22810094D01*
X121029449Y-22810094D02*
X120934211Y-22762475D01*
X120934211Y-22762475D02*
X120696116Y-22762475D01*
X120696116Y-22762475D02*
X120600878Y-22810094D01*
X120600878Y-22810094D02*
X120553259Y-22857713D01*
X120553259Y-22857713D02*
X120505640Y-22952951D01*
X120505640Y-22952951D02*
X120505640Y-23048189D01*
X120505640Y-23048189D02*
X120553259Y-23191046D01*
X120553259Y-23191046D02*
X121124687Y-23762475D01*
X121124687Y-23762475D02*
X120505640Y-23762475D01*
X119648497Y-22762475D02*
X119838973Y-22762475D01*
X119838973Y-22762475D02*
X119934211Y-22810094D01*
X119934211Y-22810094D02*
X119981830Y-22857713D01*
X119981830Y-22857713D02*
X120077068Y-23000570D01*
X120077068Y-23000570D02*
X120124687Y-23191046D01*
X120124687Y-23191046D02*
X120124687Y-23571998D01*
X120124687Y-23571998D02*
X120077068Y-23667236D01*
X120077068Y-23667236D02*
X120029449Y-23714856D01*
X120029449Y-23714856D02*
X119934211Y-23762475D01*
X119934211Y-23762475D02*
X119743735Y-23762475D01*
X119743735Y-23762475D02*
X119648497Y-23714856D01*
X119648497Y-23714856D02*
X119600878Y-23667236D01*
X119600878Y-23667236D02*
X119553259Y-23571998D01*
X119553259Y-23571998D02*
X119553259Y-23333903D01*
X119553259Y-23333903D02*
X119600878Y-23238665D01*
X119600878Y-23238665D02*
X119648497Y-23191046D01*
X119648497Y-23191046D02*
X119743735Y-23143427D01*
X119743735Y-23143427D02*
X119934211Y-23143427D01*
X119934211Y-23143427D02*
X120029449Y-23191046D01*
X120029449Y-23191046D02*
X120077068Y-23238665D01*
X120077068Y-23238665D02*
X120124687Y-23333903D01*
X127791353Y-24705752D02*
X127553258Y-25372419D01*
X127553258Y-25372419D02*
X127315163Y-24705752D01*
X126410401Y-25372419D02*
X126981829Y-25372419D01*
X126696115Y-25372419D02*
X126696115Y-24372419D01*
X126696115Y-24372419D02*
X126791353Y-24515276D01*
X126791353Y-24515276D02*
X126886591Y-24610514D01*
X126886591Y-24610514D02*
X126981829Y-24658133D01*
X125981829Y-25277180D02*
X125934210Y-25324800D01*
X125934210Y-25324800D02*
X125981829Y-25372419D01*
X125981829Y-25372419D02*
X126029448Y-25324800D01*
X126029448Y-25324800D02*
X125981829Y-25277180D01*
X125981829Y-25277180D02*
X125981829Y-25372419D01*
X125315163Y-24372419D02*
X125219925Y-24372419D01*
X125219925Y-24372419D02*
X125124687Y-24420038D01*
X125124687Y-24420038D02*
X125077068Y-24467657D01*
X125077068Y-24467657D02*
X125029449Y-24562895D01*
X125029449Y-24562895D02*
X124981830Y-24753371D01*
X124981830Y-24753371D02*
X124981830Y-24991466D01*
X124981830Y-24991466D02*
X125029449Y-25181942D01*
X125029449Y-25181942D02*
X125077068Y-25277180D01*
X125077068Y-25277180D02*
X125124687Y-25324800D01*
X125124687Y-25324800D02*
X125219925Y-25372419D01*
X125219925Y-25372419D02*
X125315163Y-25372419D01*
X125315163Y-25372419D02*
X125410401Y-25324800D01*
X125410401Y-25324800D02*
X125458020Y-25277180D01*
X125458020Y-25277180D02*
X125505639Y-25181942D01*
X125505639Y-25181942D02*
X125553258Y-24991466D01*
X125553258Y-24991466D02*
X125553258Y-24753371D01*
X125553258Y-24753371D02*
X125505639Y-24562895D01*
X125505639Y-24562895D02*
X125458020Y-24467657D01*
X125458020Y-24467657D02*
X125410401Y-24420038D01*
X125410401Y-24420038D02*
X125315163Y-24372419D01*
D11*
X124731203Y-53800828D02*
X125445489Y-53800828D01*
X125445489Y-53800828D02*
X125445489Y-52300828D01*
X124231203Y-53015114D02*
X123731203Y-53015114D01*
X123516917Y-53800828D02*
X124231203Y-53800828D01*
X124231203Y-53800828D02*
X124231203Y-52300828D01*
X124231203Y-52300828D02*
X123516917Y-52300828D01*
X122874060Y-53800828D02*
X122874060Y-52300828D01*
X122874060Y-52300828D02*
X122516917Y-52300828D01*
X122516917Y-52300828D02*
X122302631Y-52372257D01*
X122302631Y-52372257D02*
X122159774Y-52515114D01*
X122159774Y-52515114D02*
X122088345Y-52657971D01*
X122088345Y-52657971D02*
X122016917Y-52943685D01*
X122016917Y-52943685D02*
X122016917Y-53157971D01*
X122016917Y-53157971D02*
X122088345Y-53443685D01*
X122088345Y-53443685D02*
X122159774Y-53586542D01*
X122159774Y-53586542D02*
X122302631Y-53729400D01*
X122302631Y-53729400D02*
X122516917Y-53800828D01*
X122516917Y-53800828D02*
X122874060Y-53800828D01*
X121731203Y-53943685D02*
X120588345Y-53943685D01*
X119945488Y-52300828D02*
X119659774Y-52300828D01*
X119659774Y-52300828D02*
X119516917Y-52372257D01*
X119516917Y-52372257D02*
X119374060Y-52515114D01*
X119374060Y-52515114D02*
X119302631Y-52800828D01*
X119302631Y-52800828D02*
X119302631Y-53300828D01*
X119302631Y-53300828D02*
X119374060Y-53586542D01*
X119374060Y-53586542D02*
X119516917Y-53729400D01*
X119516917Y-53729400D02*
X119659774Y-53800828D01*
X119659774Y-53800828D02*
X119945488Y-53800828D01*
X119945488Y-53800828D02*
X120088346Y-53729400D01*
X120088346Y-53729400D02*
X120231203Y-53586542D01*
X120231203Y-53586542D02*
X120302631Y-53300828D01*
X120302631Y-53300828D02*
X120302631Y-52800828D01*
X120302631Y-52800828D02*
X120231203Y-52515114D01*
X120231203Y-52515114D02*
X120088346Y-52372257D01*
X120088346Y-52372257D02*
X119945488Y-52300828D01*
X118659774Y-52300828D02*
X118659774Y-53515114D01*
X118659774Y-53515114D02*
X118588345Y-53657971D01*
X118588345Y-53657971D02*
X118516917Y-53729400D01*
X118516917Y-53729400D02*
X118374059Y-53800828D01*
X118374059Y-53800828D02*
X118088345Y-53800828D01*
X118088345Y-53800828D02*
X117945488Y-53729400D01*
X117945488Y-53729400D02*
X117874059Y-53657971D01*
X117874059Y-53657971D02*
X117802631Y-53515114D01*
X117802631Y-53515114D02*
X117802631Y-52300828D01*
X117302630Y-52300828D02*
X116445488Y-52300828D01*
X116874059Y-53800828D02*
X116874059Y-52300828D01*
X28231203Y-41300828D02*
X28945489Y-41300828D01*
X28945489Y-41300828D02*
X28945489Y-39800828D01*
X27731203Y-40515114D02*
X27231203Y-40515114D01*
X27016917Y-41300828D02*
X27731203Y-41300828D01*
X27731203Y-41300828D02*
X27731203Y-39800828D01*
X27731203Y-39800828D02*
X27016917Y-39800828D01*
X26374060Y-41300828D02*
X26374060Y-39800828D01*
X26374060Y-39800828D02*
X26016917Y-39800828D01*
X26016917Y-39800828D02*
X25802631Y-39872257D01*
X25802631Y-39872257D02*
X25659774Y-40015114D01*
X25659774Y-40015114D02*
X25588345Y-40157971D01*
X25588345Y-40157971D02*
X25516917Y-40443685D01*
X25516917Y-40443685D02*
X25516917Y-40657971D01*
X25516917Y-40657971D02*
X25588345Y-40943685D01*
X25588345Y-40943685D02*
X25659774Y-41086542D01*
X25659774Y-41086542D02*
X25802631Y-41229400D01*
X25802631Y-41229400D02*
X26016917Y-41300828D01*
X26016917Y-41300828D02*
X26374060Y-41300828D01*
X25231203Y-41443685D02*
X24088345Y-41443685D01*
X23731203Y-41300828D02*
X23731203Y-39800828D01*
X23016917Y-41300828D02*
X23016917Y-39800828D01*
X23016917Y-39800828D02*
X22159774Y-41300828D01*
X22159774Y-41300828D02*
X22159774Y-39800828D01*
D10*
X98508332Y-42684800D02*
X98365475Y-42732419D01*
X98365475Y-42732419D02*
X98127380Y-42732419D01*
X98127380Y-42732419D02*
X98032142Y-42684800D01*
X98032142Y-42684800D02*
X97984523Y-42637180D01*
X97984523Y-42637180D02*
X97936904Y-42541942D01*
X97936904Y-42541942D02*
X97936904Y-42446704D01*
X97936904Y-42446704D02*
X97984523Y-42351466D01*
X97984523Y-42351466D02*
X98032142Y-42303847D01*
X98032142Y-42303847D02*
X98127380Y-42256228D01*
X98127380Y-42256228D02*
X98317856Y-42208609D01*
X98317856Y-42208609D02*
X98413094Y-42160990D01*
X98413094Y-42160990D02*
X98460713Y-42113371D01*
X98460713Y-42113371D02*
X98508332Y-42018133D01*
X98508332Y-42018133D02*
X98508332Y-41922895D01*
X98508332Y-41922895D02*
X98460713Y-41827657D01*
X98460713Y-41827657D02*
X98413094Y-41780038D01*
X98413094Y-41780038D02*
X98317856Y-41732419D01*
X98317856Y-41732419D02*
X98079761Y-41732419D01*
X98079761Y-41732419D02*
X97936904Y-41780038D01*
X97603570Y-41732419D02*
X97365475Y-42732419D01*
X97365475Y-42732419D02*
X97174999Y-42018133D01*
X97174999Y-42018133D02*
X96984523Y-42732419D01*
X96984523Y-42732419D02*
X96746428Y-41732419D01*
X96317856Y-42732419D02*
X96127380Y-42732419D01*
X96127380Y-42732419D02*
X96032142Y-42684800D01*
X96032142Y-42684800D02*
X95984523Y-42637180D01*
X95984523Y-42637180D02*
X95889285Y-42494323D01*
X95889285Y-42494323D02*
X95841666Y-42303847D01*
X95841666Y-42303847D02*
X95841666Y-41922895D01*
X95841666Y-41922895D02*
X95889285Y-41827657D01*
X95889285Y-41827657D02*
X95936904Y-41780038D01*
X95936904Y-41780038D02*
X96032142Y-41732419D01*
X96032142Y-41732419D02*
X96222618Y-41732419D01*
X96222618Y-41732419D02*
X96317856Y-41780038D01*
X96317856Y-41780038D02*
X96365475Y-41827657D01*
X96365475Y-41827657D02*
X96413094Y-41922895D01*
X96413094Y-41922895D02*
X96413094Y-42160990D01*
X96413094Y-42160990D02*
X96365475Y-42256228D01*
X96365475Y-42256228D02*
X96317856Y-42303847D01*
X96317856Y-42303847D02*
X96222618Y-42351466D01*
X96222618Y-42351466D02*
X96032142Y-42351466D01*
X96032142Y-42351466D02*
X95936904Y-42303847D01*
X95936904Y-42303847D02*
X95889285Y-42256228D01*
X95889285Y-42256228D02*
X95841666Y-42160990D01*
X79458332Y-42684800D02*
X79315475Y-42732419D01*
X79315475Y-42732419D02*
X79077380Y-42732419D01*
X79077380Y-42732419D02*
X78982142Y-42684800D01*
X78982142Y-42684800D02*
X78934523Y-42637180D01*
X78934523Y-42637180D02*
X78886904Y-42541942D01*
X78886904Y-42541942D02*
X78886904Y-42446704D01*
X78886904Y-42446704D02*
X78934523Y-42351466D01*
X78934523Y-42351466D02*
X78982142Y-42303847D01*
X78982142Y-42303847D02*
X79077380Y-42256228D01*
X79077380Y-42256228D02*
X79267856Y-42208609D01*
X79267856Y-42208609D02*
X79363094Y-42160990D01*
X79363094Y-42160990D02*
X79410713Y-42113371D01*
X79410713Y-42113371D02*
X79458332Y-42018133D01*
X79458332Y-42018133D02*
X79458332Y-41922895D01*
X79458332Y-41922895D02*
X79410713Y-41827657D01*
X79410713Y-41827657D02*
X79363094Y-41780038D01*
X79363094Y-41780038D02*
X79267856Y-41732419D01*
X79267856Y-41732419D02*
X79029761Y-41732419D01*
X79029761Y-41732419D02*
X78886904Y-41780038D01*
X78553570Y-41732419D02*
X78315475Y-42732419D01*
X78315475Y-42732419D02*
X78124999Y-42018133D01*
X78124999Y-42018133D02*
X77934523Y-42732419D01*
X77934523Y-42732419D02*
X77696428Y-41732419D01*
X77172618Y-42160990D02*
X77267856Y-42113371D01*
X77267856Y-42113371D02*
X77315475Y-42065752D01*
X77315475Y-42065752D02*
X77363094Y-41970514D01*
X77363094Y-41970514D02*
X77363094Y-41922895D01*
X77363094Y-41922895D02*
X77315475Y-41827657D01*
X77315475Y-41827657D02*
X77267856Y-41780038D01*
X77267856Y-41780038D02*
X77172618Y-41732419D01*
X77172618Y-41732419D02*
X76982142Y-41732419D01*
X76982142Y-41732419D02*
X76886904Y-41780038D01*
X76886904Y-41780038D02*
X76839285Y-41827657D01*
X76839285Y-41827657D02*
X76791666Y-41922895D01*
X76791666Y-41922895D02*
X76791666Y-41970514D01*
X76791666Y-41970514D02*
X76839285Y-42065752D01*
X76839285Y-42065752D02*
X76886904Y-42113371D01*
X76886904Y-42113371D02*
X76982142Y-42160990D01*
X76982142Y-42160990D02*
X77172618Y-42160990D01*
X77172618Y-42160990D02*
X77267856Y-42208609D01*
X77267856Y-42208609D02*
X77315475Y-42256228D01*
X77315475Y-42256228D02*
X77363094Y-42351466D01*
X77363094Y-42351466D02*
X77363094Y-42541942D01*
X77363094Y-42541942D02*
X77315475Y-42637180D01*
X77315475Y-42637180D02*
X77267856Y-42684800D01*
X77267856Y-42684800D02*
X77172618Y-42732419D01*
X77172618Y-42732419D02*
X76982142Y-42732419D01*
X76982142Y-42732419D02*
X76886904Y-42684800D01*
X76886904Y-42684800D02*
X76839285Y-42637180D01*
X76839285Y-42637180D02*
X76791666Y-42541942D01*
X76791666Y-42541942D02*
X76791666Y-42351466D01*
X76791666Y-42351466D02*
X76839285Y-42256228D01*
X76839285Y-42256228D02*
X76886904Y-42208609D01*
X76886904Y-42208609D02*
X76982142Y-42160990D01*
X117558332Y-23634800D02*
X117415475Y-23682419D01*
X117415475Y-23682419D02*
X117177380Y-23682419D01*
X117177380Y-23682419D02*
X117082142Y-23634800D01*
X117082142Y-23634800D02*
X117034523Y-23587180D01*
X117034523Y-23587180D02*
X116986904Y-23491942D01*
X116986904Y-23491942D02*
X116986904Y-23396704D01*
X116986904Y-23396704D02*
X117034523Y-23301466D01*
X117034523Y-23301466D02*
X117082142Y-23253847D01*
X117082142Y-23253847D02*
X117177380Y-23206228D01*
X117177380Y-23206228D02*
X117367856Y-23158609D01*
X117367856Y-23158609D02*
X117463094Y-23110990D01*
X117463094Y-23110990D02*
X117510713Y-23063371D01*
X117510713Y-23063371D02*
X117558332Y-22968133D01*
X117558332Y-22968133D02*
X117558332Y-22872895D01*
X117558332Y-22872895D02*
X117510713Y-22777657D01*
X117510713Y-22777657D02*
X117463094Y-22730038D01*
X117463094Y-22730038D02*
X117367856Y-22682419D01*
X117367856Y-22682419D02*
X117129761Y-22682419D01*
X117129761Y-22682419D02*
X116986904Y-22730038D01*
X116653570Y-22682419D02*
X116415475Y-23682419D01*
X116415475Y-23682419D02*
X116224999Y-22968133D01*
X116224999Y-22968133D02*
X116034523Y-23682419D01*
X116034523Y-23682419D02*
X115796428Y-22682419D01*
X114939285Y-22682419D02*
X115415475Y-22682419D01*
X115415475Y-22682419D02*
X115463094Y-23158609D01*
X115463094Y-23158609D02*
X115415475Y-23110990D01*
X115415475Y-23110990D02*
X115320237Y-23063371D01*
X115320237Y-23063371D02*
X115082142Y-23063371D01*
X115082142Y-23063371D02*
X114986904Y-23110990D01*
X114986904Y-23110990D02*
X114939285Y-23158609D01*
X114939285Y-23158609D02*
X114891666Y-23253847D01*
X114891666Y-23253847D02*
X114891666Y-23491942D01*
X114891666Y-23491942D02*
X114939285Y-23587180D01*
X114939285Y-23587180D02*
X114986904Y-23634800D01*
X114986904Y-23634800D02*
X115082142Y-23682419D01*
X115082142Y-23682419D02*
X115320237Y-23682419D01*
X115320237Y-23682419D02*
X115415475Y-23634800D01*
X115415475Y-23634800D02*
X115463094Y-23587180D01*
X79458332Y-23634800D02*
X79315475Y-23682419D01*
X79315475Y-23682419D02*
X79077380Y-23682419D01*
X79077380Y-23682419D02*
X78982142Y-23634800D01*
X78982142Y-23634800D02*
X78934523Y-23587180D01*
X78934523Y-23587180D02*
X78886904Y-23491942D01*
X78886904Y-23491942D02*
X78886904Y-23396704D01*
X78886904Y-23396704D02*
X78934523Y-23301466D01*
X78934523Y-23301466D02*
X78982142Y-23253847D01*
X78982142Y-23253847D02*
X79077380Y-23206228D01*
X79077380Y-23206228D02*
X79267856Y-23158609D01*
X79267856Y-23158609D02*
X79363094Y-23110990D01*
X79363094Y-23110990D02*
X79410713Y-23063371D01*
X79410713Y-23063371D02*
X79458332Y-22968133D01*
X79458332Y-22968133D02*
X79458332Y-22872895D01*
X79458332Y-22872895D02*
X79410713Y-22777657D01*
X79410713Y-22777657D02*
X79363094Y-22730038D01*
X79363094Y-22730038D02*
X79267856Y-22682419D01*
X79267856Y-22682419D02*
X79029761Y-22682419D01*
X79029761Y-22682419D02*
X78886904Y-22730038D01*
X78553570Y-22682419D02*
X78315475Y-23682419D01*
X78315475Y-23682419D02*
X78124999Y-22968133D01*
X78124999Y-22968133D02*
X77934523Y-23682419D01*
X77934523Y-23682419D02*
X77696428Y-22682419D01*
X77410713Y-22682419D02*
X76791666Y-22682419D01*
X76791666Y-22682419D02*
X77124999Y-23063371D01*
X77124999Y-23063371D02*
X76982142Y-23063371D01*
X76982142Y-23063371D02*
X76886904Y-23110990D01*
X76886904Y-23110990D02*
X76839285Y-23158609D01*
X76839285Y-23158609D02*
X76791666Y-23253847D01*
X76791666Y-23253847D02*
X76791666Y-23491942D01*
X76791666Y-23491942D02*
X76839285Y-23587180D01*
X76839285Y-23587180D02*
X76886904Y-23634800D01*
X76886904Y-23634800D02*
X76982142Y-23682419D01*
X76982142Y-23682419D02*
X77267856Y-23682419D01*
X77267856Y-23682419D02*
X77363094Y-23634800D01*
X77363094Y-23634800D02*
X77410713Y-23587180D01*
X41358332Y-23634800D02*
X41215475Y-23682419D01*
X41215475Y-23682419D02*
X40977380Y-23682419D01*
X40977380Y-23682419D02*
X40882142Y-23634800D01*
X40882142Y-23634800D02*
X40834523Y-23587180D01*
X40834523Y-23587180D02*
X40786904Y-23491942D01*
X40786904Y-23491942D02*
X40786904Y-23396704D01*
X40786904Y-23396704D02*
X40834523Y-23301466D01*
X40834523Y-23301466D02*
X40882142Y-23253847D01*
X40882142Y-23253847D02*
X40977380Y-23206228D01*
X40977380Y-23206228D02*
X41167856Y-23158609D01*
X41167856Y-23158609D02*
X41263094Y-23110990D01*
X41263094Y-23110990D02*
X41310713Y-23063371D01*
X41310713Y-23063371D02*
X41358332Y-22968133D01*
X41358332Y-22968133D02*
X41358332Y-22872895D01*
X41358332Y-22872895D02*
X41310713Y-22777657D01*
X41310713Y-22777657D02*
X41263094Y-22730038D01*
X41263094Y-22730038D02*
X41167856Y-22682419D01*
X41167856Y-22682419D02*
X40929761Y-22682419D01*
X40929761Y-22682419D02*
X40786904Y-22730038D01*
X40453570Y-22682419D02*
X40215475Y-23682419D01*
X40215475Y-23682419D02*
X40024999Y-22968133D01*
X40024999Y-22968133D02*
X39834523Y-23682419D01*
X39834523Y-23682419D02*
X39596428Y-22682419D01*
X38691666Y-23682419D02*
X39263094Y-23682419D01*
X38977380Y-23682419D02*
X38977380Y-22682419D01*
X38977380Y-22682419D02*
X39072618Y-22825276D01*
X39072618Y-22825276D02*
X39167856Y-22920514D01*
X39167856Y-22920514D02*
X39263094Y-22968133D01*
X118034523Y-42684800D02*
X117891666Y-42732419D01*
X117891666Y-42732419D02*
X117653571Y-42732419D01*
X117653571Y-42732419D02*
X117558333Y-42684800D01*
X117558333Y-42684800D02*
X117510714Y-42637180D01*
X117510714Y-42637180D02*
X117463095Y-42541942D01*
X117463095Y-42541942D02*
X117463095Y-42446704D01*
X117463095Y-42446704D02*
X117510714Y-42351466D01*
X117510714Y-42351466D02*
X117558333Y-42303847D01*
X117558333Y-42303847D02*
X117653571Y-42256228D01*
X117653571Y-42256228D02*
X117844047Y-42208609D01*
X117844047Y-42208609D02*
X117939285Y-42160990D01*
X117939285Y-42160990D02*
X117986904Y-42113371D01*
X117986904Y-42113371D02*
X118034523Y-42018133D01*
X118034523Y-42018133D02*
X118034523Y-41922895D01*
X118034523Y-41922895D02*
X117986904Y-41827657D01*
X117986904Y-41827657D02*
X117939285Y-41780038D01*
X117939285Y-41780038D02*
X117844047Y-41732419D01*
X117844047Y-41732419D02*
X117605952Y-41732419D01*
X117605952Y-41732419D02*
X117463095Y-41780038D01*
X117129761Y-41732419D02*
X116891666Y-42732419D01*
X116891666Y-42732419D02*
X116701190Y-42018133D01*
X116701190Y-42018133D02*
X116510714Y-42732419D01*
X116510714Y-42732419D02*
X116272619Y-41732419D01*
X115367857Y-42732419D02*
X115939285Y-42732419D01*
X115653571Y-42732419D02*
X115653571Y-41732419D01*
X115653571Y-41732419D02*
X115748809Y-41875276D01*
X115748809Y-41875276D02*
X115844047Y-41970514D01*
X115844047Y-41970514D02*
X115939285Y-42018133D01*
X114748809Y-41732419D02*
X114653571Y-41732419D01*
X114653571Y-41732419D02*
X114558333Y-41780038D01*
X114558333Y-41780038D02*
X114510714Y-41827657D01*
X114510714Y-41827657D02*
X114463095Y-41922895D01*
X114463095Y-41922895D02*
X114415476Y-42113371D01*
X114415476Y-42113371D02*
X114415476Y-42351466D01*
X114415476Y-42351466D02*
X114463095Y-42541942D01*
X114463095Y-42541942D02*
X114510714Y-42637180D01*
X114510714Y-42637180D02*
X114558333Y-42684800D01*
X114558333Y-42684800D02*
X114653571Y-42732419D01*
X114653571Y-42732419D02*
X114748809Y-42732419D01*
X114748809Y-42732419D02*
X114844047Y-42684800D01*
X114844047Y-42684800D02*
X114891666Y-42637180D01*
X114891666Y-42637180D02*
X114939285Y-42541942D01*
X114939285Y-42541942D02*
X114986904Y-42351466D01*
X114986904Y-42351466D02*
X114986904Y-42113371D01*
X114986904Y-42113371D02*
X114939285Y-41922895D01*
X114939285Y-41922895D02*
X114891666Y-41827657D01*
X114891666Y-41827657D02*
X114844047Y-41780038D01*
X114844047Y-41780038D02*
X114748809Y-41732419D01*
X41358332Y-42684800D02*
X41215475Y-42732419D01*
X41215475Y-42732419D02*
X40977380Y-42732419D01*
X40977380Y-42732419D02*
X40882142Y-42684800D01*
X40882142Y-42684800D02*
X40834523Y-42637180D01*
X40834523Y-42637180D02*
X40786904Y-42541942D01*
X40786904Y-42541942D02*
X40786904Y-42446704D01*
X40786904Y-42446704D02*
X40834523Y-42351466D01*
X40834523Y-42351466D02*
X40882142Y-42303847D01*
X40882142Y-42303847D02*
X40977380Y-42256228D01*
X40977380Y-42256228D02*
X41167856Y-42208609D01*
X41167856Y-42208609D02*
X41263094Y-42160990D01*
X41263094Y-42160990D02*
X41310713Y-42113371D01*
X41310713Y-42113371D02*
X41358332Y-42018133D01*
X41358332Y-42018133D02*
X41358332Y-41922895D01*
X41358332Y-41922895D02*
X41310713Y-41827657D01*
X41310713Y-41827657D02*
X41263094Y-41780038D01*
X41263094Y-41780038D02*
X41167856Y-41732419D01*
X41167856Y-41732419D02*
X40929761Y-41732419D01*
X40929761Y-41732419D02*
X40786904Y-41780038D01*
X40453570Y-41732419D02*
X40215475Y-42732419D01*
X40215475Y-42732419D02*
X40024999Y-42018133D01*
X40024999Y-42018133D02*
X39834523Y-42732419D01*
X39834523Y-42732419D02*
X39596428Y-41732419D01*
X38786904Y-41732419D02*
X38977380Y-41732419D01*
X38977380Y-41732419D02*
X39072618Y-41780038D01*
X39072618Y-41780038D02*
X39120237Y-41827657D01*
X39120237Y-41827657D02*
X39215475Y-41970514D01*
X39215475Y-41970514D02*
X39263094Y-42160990D01*
X39263094Y-42160990D02*
X39263094Y-42541942D01*
X39263094Y-42541942D02*
X39215475Y-42637180D01*
X39215475Y-42637180D02*
X39167856Y-42684800D01*
X39167856Y-42684800D02*
X39072618Y-42732419D01*
X39072618Y-42732419D02*
X38882142Y-42732419D01*
X38882142Y-42732419D02*
X38786904Y-42684800D01*
X38786904Y-42684800D02*
X38739285Y-42637180D01*
X38739285Y-42637180D02*
X38691666Y-42541942D01*
X38691666Y-42541942D02*
X38691666Y-42303847D01*
X38691666Y-42303847D02*
X38739285Y-42208609D01*
X38739285Y-42208609D02*
X38786904Y-42160990D01*
X38786904Y-42160990D02*
X38882142Y-42113371D01*
X38882142Y-42113371D02*
X39072618Y-42113371D01*
X39072618Y-42113371D02*
X39167856Y-42160990D01*
X39167856Y-42160990D02*
X39215475Y-42208609D01*
X39215475Y-42208609D02*
X39263094Y-42303847D01*
X98508332Y-23634800D02*
X98365475Y-23682419D01*
X98365475Y-23682419D02*
X98127380Y-23682419D01*
X98127380Y-23682419D02*
X98032142Y-23634800D01*
X98032142Y-23634800D02*
X97984523Y-23587180D01*
X97984523Y-23587180D02*
X97936904Y-23491942D01*
X97936904Y-23491942D02*
X97936904Y-23396704D01*
X97936904Y-23396704D02*
X97984523Y-23301466D01*
X97984523Y-23301466D02*
X98032142Y-23253847D01*
X98032142Y-23253847D02*
X98127380Y-23206228D01*
X98127380Y-23206228D02*
X98317856Y-23158609D01*
X98317856Y-23158609D02*
X98413094Y-23110990D01*
X98413094Y-23110990D02*
X98460713Y-23063371D01*
X98460713Y-23063371D02*
X98508332Y-22968133D01*
X98508332Y-22968133D02*
X98508332Y-22872895D01*
X98508332Y-22872895D02*
X98460713Y-22777657D01*
X98460713Y-22777657D02*
X98413094Y-22730038D01*
X98413094Y-22730038D02*
X98317856Y-22682419D01*
X98317856Y-22682419D02*
X98079761Y-22682419D01*
X98079761Y-22682419D02*
X97936904Y-22730038D01*
X97603570Y-22682419D02*
X97365475Y-23682419D01*
X97365475Y-23682419D02*
X97174999Y-22968133D01*
X97174999Y-22968133D02*
X96984523Y-23682419D01*
X96984523Y-23682419D02*
X96746428Y-22682419D01*
X95936904Y-23015752D02*
X95936904Y-23682419D01*
X96174999Y-22634800D02*
X96413094Y-23349085D01*
X96413094Y-23349085D02*
X95794047Y-23349085D01*
X60408332Y-42684800D02*
X60265475Y-42732419D01*
X60265475Y-42732419D02*
X60027380Y-42732419D01*
X60027380Y-42732419D02*
X59932142Y-42684800D01*
X59932142Y-42684800D02*
X59884523Y-42637180D01*
X59884523Y-42637180D02*
X59836904Y-42541942D01*
X59836904Y-42541942D02*
X59836904Y-42446704D01*
X59836904Y-42446704D02*
X59884523Y-42351466D01*
X59884523Y-42351466D02*
X59932142Y-42303847D01*
X59932142Y-42303847D02*
X60027380Y-42256228D01*
X60027380Y-42256228D02*
X60217856Y-42208609D01*
X60217856Y-42208609D02*
X60313094Y-42160990D01*
X60313094Y-42160990D02*
X60360713Y-42113371D01*
X60360713Y-42113371D02*
X60408332Y-42018133D01*
X60408332Y-42018133D02*
X60408332Y-41922895D01*
X60408332Y-41922895D02*
X60360713Y-41827657D01*
X60360713Y-41827657D02*
X60313094Y-41780038D01*
X60313094Y-41780038D02*
X60217856Y-41732419D01*
X60217856Y-41732419D02*
X59979761Y-41732419D01*
X59979761Y-41732419D02*
X59836904Y-41780038D01*
X59503570Y-41732419D02*
X59265475Y-42732419D01*
X59265475Y-42732419D02*
X59074999Y-42018133D01*
X59074999Y-42018133D02*
X58884523Y-42732419D01*
X58884523Y-42732419D02*
X58646428Y-41732419D01*
X58360713Y-41732419D02*
X57694047Y-41732419D01*
X57694047Y-41732419D02*
X58122618Y-42732419D01*
X60408332Y-23634800D02*
X60265475Y-23682419D01*
X60265475Y-23682419D02*
X60027380Y-23682419D01*
X60027380Y-23682419D02*
X59932142Y-23634800D01*
X59932142Y-23634800D02*
X59884523Y-23587180D01*
X59884523Y-23587180D02*
X59836904Y-23491942D01*
X59836904Y-23491942D02*
X59836904Y-23396704D01*
X59836904Y-23396704D02*
X59884523Y-23301466D01*
X59884523Y-23301466D02*
X59932142Y-23253847D01*
X59932142Y-23253847D02*
X60027380Y-23206228D01*
X60027380Y-23206228D02*
X60217856Y-23158609D01*
X60217856Y-23158609D02*
X60313094Y-23110990D01*
X60313094Y-23110990D02*
X60360713Y-23063371D01*
X60360713Y-23063371D02*
X60408332Y-22968133D01*
X60408332Y-22968133D02*
X60408332Y-22872895D01*
X60408332Y-22872895D02*
X60360713Y-22777657D01*
X60360713Y-22777657D02*
X60313094Y-22730038D01*
X60313094Y-22730038D02*
X60217856Y-22682419D01*
X60217856Y-22682419D02*
X59979761Y-22682419D01*
X59979761Y-22682419D02*
X59836904Y-22730038D01*
X59503570Y-22682419D02*
X59265475Y-23682419D01*
X59265475Y-23682419D02*
X59074999Y-22968133D01*
X59074999Y-22968133D02*
X58884523Y-23682419D01*
X58884523Y-23682419D02*
X58646428Y-22682419D01*
X58313094Y-22777657D02*
X58265475Y-22730038D01*
X58265475Y-22730038D02*
X58170237Y-22682419D01*
X58170237Y-22682419D02*
X57932142Y-22682419D01*
X57932142Y-22682419D02*
X57836904Y-22730038D01*
X57836904Y-22730038D02*
X57789285Y-22777657D01*
X57789285Y-22777657D02*
X57741666Y-22872895D01*
X57741666Y-22872895D02*
X57741666Y-22968133D01*
X57741666Y-22968133D02*
X57789285Y-23110990D01*
X57789285Y-23110990D02*
X58360713Y-23682419D01*
X58360713Y-23682419D02*
X57741666Y-23682419D01*
D12*
X43416666Y-39609580D02*
X43464285Y-39657200D01*
X43464285Y-39657200D02*
X43607142Y-39704819D01*
X43607142Y-39704819D02*
X43702380Y-39704819D01*
X43702380Y-39704819D02*
X43845237Y-39657200D01*
X43845237Y-39657200D02*
X43940475Y-39561961D01*
X43940475Y-39561961D02*
X43988094Y-39466723D01*
X43988094Y-39466723D02*
X44035713Y-39276247D01*
X44035713Y-39276247D02*
X44035713Y-39133390D01*
X44035713Y-39133390D02*
X43988094Y-38942914D01*
X43988094Y-38942914D02*
X43940475Y-38847676D01*
X43940475Y-38847676D02*
X43845237Y-38752438D01*
X43845237Y-38752438D02*
X43702380Y-38704819D01*
X43702380Y-38704819D02*
X43607142Y-38704819D01*
X43607142Y-38704819D02*
X43464285Y-38752438D01*
X43464285Y-38752438D02*
X43416666Y-38800057D01*
X42464285Y-39704819D02*
X43035713Y-39704819D01*
X42749999Y-39704819D02*
X42749999Y-38704819D01*
X42749999Y-38704819D02*
X42845237Y-38847676D01*
X42845237Y-38847676D02*
X42940475Y-38942914D01*
X42940475Y-38942914D02*
X43035713Y-38990533D01*
X100416666Y-39609580D02*
X100464285Y-39657200D01*
X100464285Y-39657200D02*
X100607142Y-39704819D01*
X100607142Y-39704819D02*
X100702380Y-39704819D01*
X100702380Y-39704819D02*
X100845237Y-39657200D01*
X100845237Y-39657200D02*
X100940475Y-39561961D01*
X100940475Y-39561961D02*
X100988094Y-39466723D01*
X100988094Y-39466723D02*
X101035713Y-39276247D01*
X101035713Y-39276247D02*
X101035713Y-39133390D01*
X101035713Y-39133390D02*
X100988094Y-38942914D01*
X100988094Y-38942914D02*
X100940475Y-38847676D01*
X100940475Y-38847676D02*
X100845237Y-38752438D01*
X100845237Y-38752438D02*
X100702380Y-38704819D01*
X100702380Y-38704819D02*
X100607142Y-38704819D01*
X100607142Y-38704819D02*
X100464285Y-38752438D01*
X100464285Y-38752438D02*
X100416666Y-38800057D01*
X99559523Y-39038152D02*
X99559523Y-39704819D01*
X99797618Y-38657200D02*
X100035713Y-39371485D01*
X100035713Y-39371485D02*
X99416666Y-39371485D01*
X81666666Y-39609580D02*
X81714285Y-39657200D01*
X81714285Y-39657200D02*
X81857142Y-39704819D01*
X81857142Y-39704819D02*
X81952380Y-39704819D01*
X81952380Y-39704819D02*
X82095237Y-39657200D01*
X82095237Y-39657200D02*
X82190475Y-39561961D01*
X82190475Y-39561961D02*
X82238094Y-39466723D01*
X82238094Y-39466723D02*
X82285713Y-39276247D01*
X82285713Y-39276247D02*
X82285713Y-39133390D01*
X82285713Y-39133390D02*
X82238094Y-38942914D01*
X82238094Y-38942914D02*
X82190475Y-38847676D01*
X82190475Y-38847676D02*
X82095237Y-38752438D01*
X82095237Y-38752438D02*
X81952380Y-38704819D01*
X81952380Y-38704819D02*
X81857142Y-38704819D01*
X81857142Y-38704819D02*
X81714285Y-38752438D01*
X81714285Y-38752438D02*
X81666666Y-38800057D01*
X81333332Y-38704819D02*
X80714285Y-38704819D01*
X80714285Y-38704819D02*
X81047618Y-39085771D01*
X81047618Y-39085771D02*
X80904761Y-39085771D01*
X80904761Y-39085771D02*
X80809523Y-39133390D01*
X80809523Y-39133390D02*
X80761904Y-39181009D01*
X80761904Y-39181009D02*
X80714285Y-39276247D01*
X80714285Y-39276247D02*
X80714285Y-39514342D01*
X80714285Y-39514342D02*
X80761904Y-39609580D01*
X80761904Y-39609580D02*
X80809523Y-39657200D01*
X80809523Y-39657200D02*
X80904761Y-39704819D01*
X80904761Y-39704819D02*
X81190475Y-39704819D01*
X81190475Y-39704819D02*
X81285713Y-39657200D01*
X81285713Y-39657200D02*
X81333332Y-39609580D01*
X21558333Y-28704819D02*
X21558333Y-29419104D01*
X21558333Y-29419104D02*
X21605952Y-29561961D01*
X21605952Y-29561961D02*
X21701190Y-29657200D01*
X21701190Y-29657200D02*
X21844047Y-29704819D01*
X21844047Y-29704819D02*
X21939285Y-29704819D01*
X21129761Y-28800057D02*
X21082142Y-28752438D01*
X21082142Y-28752438D02*
X20986904Y-28704819D01*
X20986904Y-28704819D02*
X20748809Y-28704819D01*
X20748809Y-28704819D02*
X20653571Y-28752438D01*
X20653571Y-28752438D02*
X20605952Y-28800057D01*
X20605952Y-28800057D02*
X20558333Y-28895295D01*
X20558333Y-28895295D02*
X20558333Y-28990533D01*
X20558333Y-28990533D02*
X20605952Y-29133390D01*
X20605952Y-29133390D02*
X21177380Y-29704819D01*
X21177380Y-29704819D02*
X20558333Y-29704819D01*
X131313333Y-27574819D02*
X131313333Y-28289104D01*
X131313333Y-28289104D02*
X131360952Y-28431961D01*
X131360952Y-28431961D02*
X131456190Y-28527200D01*
X131456190Y-28527200D02*
X131599047Y-28574819D01*
X131599047Y-28574819D02*
X131694285Y-28574819D01*
X130313333Y-28574819D02*
X130884761Y-28574819D01*
X130599047Y-28574819D02*
X130599047Y-27574819D01*
X130599047Y-27574819D02*
X130694285Y-27717676D01*
X130694285Y-27717676D02*
X130789523Y-27812914D01*
X130789523Y-27812914D02*
X130884761Y-27860533D01*
X43166666Y-58609580D02*
X43214285Y-58657200D01*
X43214285Y-58657200D02*
X43357142Y-58704819D01*
X43357142Y-58704819D02*
X43452380Y-58704819D01*
X43452380Y-58704819D02*
X43595237Y-58657200D01*
X43595237Y-58657200D02*
X43690475Y-58561961D01*
X43690475Y-58561961D02*
X43738094Y-58466723D01*
X43738094Y-58466723D02*
X43785713Y-58276247D01*
X43785713Y-58276247D02*
X43785713Y-58133390D01*
X43785713Y-58133390D02*
X43738094Y-57942914D01*
X43738094Y-57942914D02*
X43690475Y-57847676D01*
X43690475Y-57847676D02*
X43595237Y-57752438D01*
X43595237Y-57752438D02*
X43452380Y-57704819D01*
X43452380Y-57704819D02*
X43357142Y-57704819D01*
X43357142Y-57704819D02*
X43214285Y-57752438D01*
X43214285Y-57752438D02*
X43166666Y-57800057D01*
X42309523Y-57704819D02*
X42499999Y-57704819D01*
X42499999Y-57704819D02*
X42595237Y-57752438D01*
X42595237Y-57752438D02*
X42642856Y-57800057D01*
X42642856Y-57800057D02*
X42738094Y-57942914D01*
X42738094Y-57942914D02*
X42785713Y-58133390D01*
X42785713Y-58133390D02*
X42785713Y-58514342D01*
X42785713Y-58514342D02*
X42738094Y-58609580D01*
X42738094Y-58609580D02*
X42690475Y-58657200D01*
X42690475Y-58657200D02*
X42595237Y-58704819D01*
X42595237Y-58704819D02*
X42404761Y-58704819D01*
X42404761Y-58704819D02*
X42309523Y-58657200D01*
X42309523Y-58657200D02*
X42261904Y-58609580D01*
X42261904Y-58609580D02*
X42214285Y-58514342D01*
X42214285Y-58514342D02*
X42214285Y-58276247D01*
X42214285Y-58276247D02*
X42261904Y-58181009D01*
X42261904Y-58181009D02*
X42309523Y-58133390D01*
X42309523Y-58133390D02*
X42404761Y-58085771D01*
X42404761Y-58085771D02*
X42595237Y-58085771D01*
X42595237Y-58085771D02*
X42690475Y-58133390D01*
X42690475Y-58133390D02*
X42738094Y-58181009D01*
X42738094Y-58181009D02*
X42785713Y-58276247D01*
X81666666Y-58609580D02*
X81714285Y-58657200D01*
X81714285Y-58657200D02*
X81857142Y-58704819D01*
X81857142Y-58704819D02*
X81952380Y-58704819D01*
X81952380Y-58704819D02*
X82095237Y-58657200D01*
X82095237Y-58657200D02*
X82190475Y-58561961D01*
X82190475Y-58561961D02*
X82238094Y-58466723D01*
X82238094Y-58466723D02*
X82285713Y-58276247D01*
X82285713Y-58276247D02*
X82285713Y-58133390D01*
X82285713Y-58133390D02*
X82238094Y-57942914D01*
X82238094Y-57942914D02*
X82190475Y-57847676D01*
X82190475Y-57847676D02*
X82095237Y-57752438D01*
X82095237Y-57752438D02*
X81952380Y-57704819D01*
X81952380Y-57704819D02*
X81857142Y-57704819D01*
X81857142Y-57704819D02*
X81714285Y-57752438D01*
X81714285Y-57752438D02*
X81666666Y-57800057D01*
X81095237Y-58133390D02*
X81190475Y-58085771D01*
X81190475Y-58085771D02*
X81238094Y-58038152D01*
X81238094Y-58038152D02*
X81285713Y-57942914D01*
X81285713Y-57942914D02*
X81285713Y-57895295D01*
X81285713Y-57895295D02*
X81238094Y-57800057D01*
X81238094Y-57800057D02*
X81190475Y-57752438D01*
X81190475Y-57752438D02*
X81095237Y-57704819D01*
X81095237Y-57704819D02*
X80904761Y-57704819D01*
X80904761Y-57704819D02*
X80809523Y-57752438D01*
X80809523Y-57752438D02*
X80761904Y-57800057D01*
X80761904Y-57800057D02*
X80714285Y-57895295D01*
X80714285Y-57895295D02*
X80714285Y-57942914D01*
X80714285Y-57942914D02*
X80761904Y-58038152D01*
X80761904Y-58038152D02*
X80809523Y-58085771D01*
X80809523Y-58085771D02*
X80904761Y-58133390D01*
X80904761Y-58133390D02*
X81095237Y-58133390D01*
X81095237Y-58133390D02*
X81190475Y-58181009D01*
X81190475Y-58181009D02*
X81238094Y-58228628D01*
X81238094Y-58228628D02*
X81285713Y-58323866D01*
X81285713Y-58323866D02*
X81285713Y-58514342D01*
X81285713Y-58514342D02*
X81238094Y-58609580D01*
X81238094Y-58609580D02*
X81190475Y-58657200D01*
X81190475Y-58657200D02*
X81095237Y-58704819D01*
X81095237Y-58704819D02*
X80904761Y-58704819D01*
X80904761Y-58704819D02*
X80809523Y-58657200D01*
X80809523Y-58657200D02*
X80761904Y-58609580D01*
X80761904Y-58609580D02*
X80714285Y-58514342D01*
X80714285Y-58514342D02*
X80714285Y-58323866D01*
X80714285Y-58323866D02*
X80761904Y-58228628D01*
X80761904Y-58228628D02*
X80809523Y-58181009D01*
X80809523Y-58181009D02*
X80904761Y-58133390D01*
X100666666Y-58609580D02*
X100714285Y-58657200D01*
X100714285Y-58657200D02*
X100857142Y-58704819D01*
X100857142Y-58704819D02*
X100952380Y-58704819D01*
X100952380Y-58704819D02*
X101095237Y-58657200D01*
X101095237Y-58657200D02*
X101190475Y-58561961D01*
X101190475Y-58561961D02*
X101238094Y-58466723D01*
X101238094Y-58466723D02*
X101285713Y-58276247D01*
X101285713Y-58276247D02*
X101285713Y-58133390D01*
X101285713Y-58133390D02*
X101238094Y-57942914D01*
X101238094Y-57942914D02*
X101190475Y-57847676D01*
X101190475Y-57847676D02*
X101095237Y-57752438D01*
X101095237Y-57752438D02*
X100952380Y-57704819D01*
X100952380Y-57704819D02*
X100857142Y-57704819D01*
X100857142Y-57704819D02*
X100714285Y-57752438D01*
X100714285Y-57752438D02*
X100666666Y-57800057D01*
X100190475Y-58704819D02*
X99999999Y-58704819D01*
X99999999Y-58704819D02*
X99904761Y-58657200D01*
X99904761Y-58657200D02*
X99857142Y-58609580D01*
X99857142Y-58609580D02*
X99761904Y-58466723D01*
X99761904Y-58466723D02*
X99714285Y-58276247D01*
X99714285Y-58276247D02*
X99714285Y-57895295D01*
X99714285Y-57895295D02*
X99761904Y-57800057D01*
X99761904Y-57800057D02*
X99809523Y-57752438D01*
X99809523Y-57752438D02*
X99904761Y-57704819D01*
X99904761Y-57704819D02*
X100095237Y-57704819D01*
X100095237Y-57704819D02*
X100190475Y-57752438D01*
X100190475Y-57752438D02*
X100238094Y-57800057D01*
X100238094Y-57800057D02*
X100285713Y-57895295D01*
X100285713Y-57895295D02*
X100285713Y-58133390D01*
X100285713Y-58133390D02*
X100238094Y-58228628D01*
X100238094Y-58228628D02*
X100190475Y-58276247D01*
X100190475Y-58276247D02*
X100095237Y-58323866D01*
X100095237Y-58323866D02*
X99904761Y-58323866D01*
X99904761Y-58323866D02*
X99809523Y-58276247D01*
X99809523Y-58276247D02*
X99761904Y-58228628D01*
X99761904Y-58228628D02*
X99714285Y-58133390D01*
X30642857Y-53359580D02*
X30690476Y-53407200D01*
X30690476Y-53407200D02*
X30833333Y-53454819D01*
X30833333Y-53454819D02*
X30928571Y-53454819D01*
X30928571Y-53454819D02*
X31071428Y-53407200D01*
X31071428Y-53407200D02*
X31166666Y-53311961D01*
X31166666Y-53311961D02*
X31214285Y-53216723D01*
X31214285Y-53216723D02*
X31261904Y-53026247D01*
X31261904Y-53026247D02*
X31261904Y-52883390D01*
X31261904Y-52883390D02*
X31214285Y-52692914D01*
X31214285Y-52692914D02*
X31166666Y-52597676D01*
X31166666Y-52597676D02*
X31071428Y-52502438D01*
X31071428Y-52502438D02*
X30928571Y-52454819D01*
X30928571Y-52454819D02*
X30833333Y-52454819D01*
X30833333Y-52454819D02*
X30690476Y-52502438D01*
X30690476Y-52502438D02*
X30642857Y-52550057D01*
X29690476Y-53454819D02*
X30261904Y-53454819D01*
X29976190Y-53454819D02*
X29976190Y-52454819D01*
X29976190Y-52454819D02*
X30071428Y-52597676D01*
X30071428Y-52597676D02*
X30166666Y-52692914D01*
X30166666Y-52692914D02*
X30261904Y-52740533D01*
X28738095Y-53454819D02*
X29309523Y-53454819D01*
X29023809Y-53454819D02*
X29023809Y-52454819D01*
X29023809Y-52454819D02*
X29119047Y-52597676D01*
X29119047Y-52597676D02*
X29214285Y-52692914D01*
X29214285Y-52692914D02*
X29309523Y-52740533D01*
X119666666Y-39609580D02*
X119714285Y-39657200D01*
X119714285Y-39657200D02*
X119857142Y-39704819D01*
X119857142Y-39704819D02*
X119952380Y-39704819D01*
X119952380Y-39704819D02*
X120095237Y-39657200D01*
X120095237Y-39657200D02*
X120190475Y-39561961D01*
X120190475Y-39561961D02*
X120238094Y-39466723D01*
X120238094Y-39466723D02*
X120285713Y-39276247D01*
X120285713Y-39276247D02*
X120285713Y-39133390D01*
X120285713Y-39133390D02*
X120238094Y-38942914D01*
X120238094Y-38942914D02*
X120190475Y-38847676D01*
X120190475Y-38847676D02*
X120095237Y-38752438D01*
X120095237Y-38752438D02*
X119952380Y-38704819D01*
X119952380Y-38704819D02*
X119857142Y-38704819D01*
X119857142Y-38704819D02*
X119714285Y-38752438D01*
X119714285Y-38752438D02*
X119666666Y-38800057D01*
X118761904Y-38704819D02*
X119238094Y-38704819D01*
X119238094Y-38704819D02*
X119285713Y-39181009D01*
X119285713Y-39181009D02*
X119238094Y-39133390D01*
X119238094Y-39133390D02*
X119142856Y-39085771D01*
X119142856Y-39085771D02*
X118904761Y-39085771D01*
X118904761Y-39085771D02*
X118809523Y-39133390D01*
X118809523Y-39133390D02*
X118761904Y-39181009D01*
X118761904Y-39181009D02*
X118714285Y-39276247D01*
X118714285Y-39276247D02*
X118714285Y-39514342D01*
X118714285Y-39514342D02*
X118761904Y-39609580D01*
X118761904Y-39609580D02*
X118809523Y-39657200D01*
X118809523Y-39657200D02*
X118904761Y-39704819D01*
X118904761Y-39704819D02*
X119142856Y-39704819D01*
X119142856Y-39704819D02*
X119238094Y-39657200D01*
X119238094Y-39657200D02*
X119285713Y-39609580D01*
X62666666Y-58609580D02*
X62714285Y-58657200D01*
X62714285Y-58657200D02*
X62857142Y-58704819D01*
X62857142Y-58704819D02*
X62952380Y-58704819D01*
X62952380Y-58704819D02*
X63095237Y-58657200D01*
X63095237Y-58657200D02*
X63190475Y-58561961D01*
X63190475Y-58561961D02*
X63238094Y-58466723D01*
X63238094Y-58466723D02*
X63285713Y-58276247D01*
X63285713Y-58276247D02*
X63285713Y-58133390D01*
X63285713Y-58133390D02*
X63238094Y-57942914D01*
X63238094Y-57942914D02*
X63190475Y-57847676D01*
X63190475Y-57847676D02*
X63095237Y-57752438D01*
X63095237Y-57752438D02*
X62952380Y-57704819D01*
X62952380Y-57704819D02*
X62857142Y-57704819D01*
X62857142Y-57704819D02*
X62714285Y-57752438D01*
X62714285Y-57752438D02*
X62666666Y-57800057D01*
X62333332Y-57704819D02*
X61666666Y-57704819D01*
X61666666Y-57704819D02*
X62095237Y-58704819D01*
X126833333Y-44954819D02*
X126833333Y-45669104D01*
X126833333Y-45669104D02*
X126880952Y-45811961D01*
X126880952Y-45811961D02*
X126976190Y-45907200D01*
X126976190Y-45907200D02*
X127119047Y-45954819D01*
X127119047Y-45954819D02*
X127214285Y-45954819D01*
X126452380Y-44954819D02*
X125833333Y-44954819D01*
X125833333Y-44954819D02*
X126166666Y-45335771D01*
X126166666Y-45335771D02*
X126023809Y-45335771D01*
X126023809Y-45335771D02*
X125928571Y-45383390D01*
X125928571Y-45383390D02*
X125880952Y-45431009D01*
X125880952Y-45431009D02*
X125833333Y-45526247D01*
X125833333Y-45526247D02*
X125833333Y-45764342D01*
X125833333Y-45764342D02*
X125880952Y-45859580D01*
X125880952Y-45859580D02*
X125928571Y-45907200D01*
X125928571Y-45907200D02*
X126023809Y-45954819D01*
X126023809Y-45954819D02*
X126309523Y-45954819D01*
X126309523Y-45954819D02*
X126404761Y-45907200D01*
X126404761Y-45907200D02*
X126452380Y-45859580D01*
X120392857Y-58609580D02*
X120440476Y-58657200D01*
X120440476Y-58657200D02*
X120583333Y-58704819D01*
X120583333Y-58704819D02*
X120678571Y-58704819D01*
X120678571Y-58704819D02*
X120821428Y-58657200D01*
X120821428Y-58657200D02*
X120916666Y-58561961D01*
X120916666Y-58561961D02*
X120964285Y-58466723D01*
X120964285Y-58466723D02*
X121011904Y-58276247D01*
X121011904Y-58276247D02*
X121011904Y-58133390D01*
X121011904Y-58133390D02*
X120964285Y-57942914D01*
X120964285Y-57942914D02*
X120916666Y-57847676D01*
X120916666Y-57847676D02*
X120821428Y-57752438D01*
X120821428Y-57752438D02*
X120678571Y-57704819D01*
X120678571Y-57704819D02*
X120583333Y-57704819D01*
X120583333Y-57704819D02*
X120440476Y-57752438D01*
X120440476Y-57752438D02*
X120392857Y-57800057D01*
X119440476Y-58704819D02*
X120011904Y-58704819D01*
X119726190Y-58704819D02*
X119726190Y-57704819D01*
X119726190Y-57704819D02*
X119821428Y-57847676D01*
X119821428Y-57847676D02*
X119916666Y-57942914D01*
X119916666Y-57942914D02*
X120011904Y-57990533D01*
X118821428Y-57704819D02*
X118726190Y-57704819D01*
X118726190Y-57704819D02*
X118630952Y-57752438D01*
X118630952Y-57752438D02*
X118583333Y-57800057D01*
X118583333Y-57800057D02*
X118535714Y-57895295D01*
X118535714Y-57895295D02*
X118488095Y-58085771D01*
X118488095Y-58085771D02*
X118488095Y-58323866D01*
X118488095Y-58323866D02*
X118535714Y-58514342D01*
X118535714Y-58514342D02*
X118583333Y-58609580D01*
X118583333Y-58609580D02*
X118630952Y-58657200D01*
X118630952Y-58657200D02*
X118726190Y-58704819D01*
X118726190Y-58704819D02*
X118821428Y-58704819D01*
X118821428Y-58704819D02*
X118916666Y-58657200D01*
X118916666Y-58657200D02*
X118964285Y-58609580D01*
X118964285Y-58609580D02*
X119011904Y-58514342D01*
X119011904Y-58514342D02*
X119059523Y-58323866D01*
X119059523Y-58323866D02*
X119059523Y-58085771D01*
X119059523Y-58085771D02*
X119011904Y-57895295D01*
X119011904Y-57895295D02*
X118964285Y-57800057D01*
X118964285Y-57800057D02*
X118916666Y-57752438D01*
X118916666Y-57752438D02*
X118821428Y-57704819D01*
X62416666Y-39609580D02*
X62464285Y-39657200D01*
X62464285Y-39657200D02*
X62607142Y-39704819D01*
X62607142Y-39704819D02*
X62702380Y-39704819D01*
X62702380Y-39704819D02*
X62845237Y-39657200D01*
X62845237Y-39657200D02*
X62940475Y-39561961D01*
X62940475Y-39561961D02*
X62988094Y-39466723D01*
X62988094Y-39466723D02*
X63035713Y-39276247D01*
X63035713Y-39276247D02*
X63035713Y-39133390D01*
X63035713Y-39133390D02*
X62988094Y-38942914D01*
X62988094Y-38942914D02*
X62940475Y-38847676D01*
X62940475Y-38847676D02*
X62845237Y-38752438D01*
X62845237Y-38752438D02*
X62702380Y-38704819D01*
X62702380Y-38704819D02*
X62607142Y-38704819D01*
X62607142Y-38704819D02*
X62464285Y-38752438D01*
X62464285Y-38752438D02*
X62416666Y-38800057D01*
X62035713Y-38800057D02*
X61988094Y-38752438D01*
X61988094Y-38752438D02*
X61892856Y-38704819D01*
X61892856Y-38704819D02*
X61654761Y-38704819D01*
X61654761Y-38704819D02*
X61559523Y-38752438D01*
X61559523Y-38752438D02*
X61511904Y-38800057D01*
X61511904Y-38800057D02*
X61464285Y-38895295D01*
X61464285Y-38895295D02*
X61464285Y-38990533D01*
X61464285Y-38990533D02*
X61511904Y-39133390D01*
X61511904Y-39133390D02*
X62083332Y-39704819D01*
X62083332Y-39704819D02*
X61464285Y-39704819D01*
D13*
%TO.C,SW9*%
X90225000Y-43125000D02*
X104195000Y-43125000D01*
X90225000Y-57095000D02*
X90225000Y-43125000D01*
D14*
X92925000Y-55025000D02*
X93425000Y-54525000D01*
D13*
X104175000Y-43125000D02*
X104175000Y-57095000D01*
X104195000Y-57125000D02*
X90225000Y-57125000D01*
D14*
X101429951Y-56325000D02*
G75*
G02*
X100920049Y-56325000I-254951J0D01*
G01*
X100920049Y-56325000D02*
G75*
G02*
X101429951Y-56325000I254951J0D01*
G01*
D13*
%TO.C,SW8*%
X71175000Y-43125000D02*
X85145000Y-43125000D01*
X71175000Y-57095000D02*
X71175000Y-43125000D01*
D14*
X73875000Y-55025000D02*
X74375000Y-54525000D01*
D13*
X85125000Y-43125000D02*
X85125000Y-57095000D01*
X85145000Y-57125000D02*
X71175000Y-57125000D01*
D14*
X82379951Y-56325000D02*
G75*
G02*
X81870049Y-56325000I-254951J0D01*
G01*
X81870049Y-56325000D02*
G75*
G02*
X82379951Y-56325000I254951J0D01*
G01*
D13*
%TO.C,SW5*%
X109275000Y-24075000D02*
X123245000Y-24075000D01*
X109275000Y-38045000D02*
X109275000Y-24075000D01*
D14*
X111975000Y-35975000D02*
X112475000Y-35475000D01*
D13*
X123225000Y-24075000D02*
X123225000Y-38045000D01*
X123245000Y-38075000D02*
X109275000Y-38075000D01*
D14*
X120479951Y-37275000D02*
G75*
G02*
X119970049Y-37275000I-254951J0D01*
G01*
X119970049Y-37275000D02*
G75*
G02*
X120479951Y-37275000I254951J0D01*
G01*
D13*
%TO.C,SW3*%
X71175000Y-24075000D02*
X85145000Y-24075000D01*
X71175000Y-38045000D02*
X71175000Y-24075000D01*
D14*
X73875000Y-35975000D02*
X74375000Y-35475000D01*
D13*
X85125000Y-24075000D02*
X85125000Y-38045000D01*
X85145000Y-38075000D02*
X71175000Y-38075000D01*
D14*
X82379951Y-37275000D02*
G75*
G02*
X81870049Y-37275000I-254951J0D01*
G01*
X81870049Y-37275000D02*
G75*
G02*
X82379951Y-37275000I254951J0D01*
G01*
D13*
%TO.C,SW1*%
X33075000Y-24075000D02*
X47045000Y-24075000D01*
X33075000Y-38045000D02*
X33075000Y-24075000D01*
D14*
X35775000Y-35975000D02*
X36275000Y-35475000D01*
D13*
X47025000Y-24075000D02*
X47025000Y-38045000D01*
X47045000Y-38075000D02*
X33075000Y-38075000D01*
D14*
X44279951Y-37275000D02*
G75*
G02*
X43770049Y-37275000I-254951J0D01*
G01*
X43770049Y-37275000D02*
G75*
G02*
X44279951Y-37275000I254951J0D01*
G01*
D13*
%TO.C,SW10*%
X109275000Y-43125000D02*
X123245000Y-43125000D01*
X109275000Y-57095000D02*
X109275000Y-43125000D01*
D14*
X111975000Y-55025000D02*
X112475000Y-54525000D01*
D13*
X123225000Y-43125000D02*
X123225000Y-57095000D01*
X123245000Y-57125000D02*
X109275000Y-57125000D01*
D14*
X120479951Y-56325000D02*
G75*
G02*
X119970049Y-56325000I-254951J0D01*
G01*
X119970049Y-56325000D02*
G75*
G02*
X120479951Y-56325000I254951J0D01*
G01*
D13*
%TO.C,SW6*%
X33075000Y-43125000D02*
X47045000Y-43125000D01*
X33075000Y-57095000D02*
X33075000Y-43125000D01*
D14*
X35775000Y-55025000D02*
X36275000Y-54525000D01*
D13*
X47025000Y-43125000D02*
X47025000Y-57095000D01*
X47045000Y-57125000D02*
X33075000Y-57125000D01*
D14*
X44279951Y-56325000D02*
G75*
G02*
X43770049Y-56325000I-254951J0D01*
G01*
X43770049Y-56325000D02*
G75*
G02*
X44279951Y-56325000I254951J0D01*
G01*
D13*
%TO.C,SW4*%
X90225000Y-24075000D02*
X104195000Y-24075000D01*
X90225000Y-38045000D02*
X90225000Y-24075000D01*
D14*
X92925000Y-35975000D02*
X93425000Y-35475000D01*
D13*
X104175000Y-24075000D02*
X104175000Y-38045000D01*
X104195000Y-38075000D02*
X90225000Y-38075000D01*
D14*
X101429951Y-37275000D02*
G75*
G02*
X100920049Y-37275000I-254951J0D01*
G01*
X100920049Y-37275000D02*
G75*
G02*
X101429951Y-37275000I254951J0D01*
G01*
D13*
%TO.C,SW7*%
X52125000Y-43125000D02*
X66095000Y-43125000D01*
X52125000Y-57095000D02*
X52125000Y-43125000D01*
D14*
X54825000Y-55025000D02*
X55325000Y-54525000D01*
D13*
X66075000Y-43125000D02*
X66075000Y-57095000D01*
X66095000Y-57125000D02*
X52125000Y-57125000D01*
D14*
X63329951Y-56325000D02*
G75*
G02*
X62820049Y-56325000I-254951J0D01*
G01*
X62820049Y-56325000D02*
G75*
G02*
X63329951Y-56325000I254951J0D01*
G01*
D13*
%TO.C,SW2*%
X52125000Y-24075000D02*
X66095000Y-24075000D01*
X52125000Y-38045000D02*
X52125000Y-24075000D01*
D14*
X54825000Y-35975000D02*
X55325000Y-35475000D01*
D13*
X66075000Y-24075000D02*
X66075000Y-38045000D01*
X66095000Y-38075000D02*
X52125000Y-38075000D01*
D14*
X63329951Y-37275000D02*
G75*
G02*
X62820049Y-37275000I-254951J0D01*
G01*
X62820049Y-37275000D02*
G75*
G02*
X63329951Y-37275000I254951J0D01*
G01*
D13*
%TO.C,C1*%
X39738748Y-38515000D02*
X40261252Y-38515000D01*
X39738748Y-39985000D02*
X40261252Y-39985000D01*
%TO.C,C4*%
X96951248Y-38515000D02*
X97473752Y-38515000D01*
X96951248Y-39985000D02*
X97473752Y-39985000D01*
%TO.C,C3*%
X77951248Y-38515000D02*
X78473752Y-38515000D01*
X77951248Y-39985000D02*
X78473752Y-39985000D01*
%TO.C,J2*%
X22475000Y-28900000D02*
X23725000Y-28900000D01*
X22475000Y-30150000D02*
X22475000Y-28900000D01*
X25025000Y-29200000D02*
X25025000Y-29950000D01*
X25025000Y-29950000D02*
X27975000Y-29950000D01*
X25025000Y-38550000D02*
X27975000Y-38550000D01*
X25025000Y-39300000D02*
X25025000Y-38550000D01*
X27975000Y-29950000D02*
X27975000Y-34250000D01*
X27975000Y-38550000D02*
X27975000Y-34250000D01*
X22765000Y-29190000D02*
X28735000Y-29190000D01*
X28735000Y-39310000D01*
X22765000Y-39310000D01*
X22765000Y-29190000D01*
X22775000Y-29200000D02*
X23525000Y-29200000D01*
X23525000Y-31000000D01*
X22775000Y-31000000D01*
X22775000Y-29200000D01*
X22775000Y-32500000D02*
X23525000Y-32500000D01*
X23525000Y-36000000D01*
X22775000Y-36000000D01*
X22775000Y-32500000D01*
X22775000Y-37500000D02*
X23525000Y-37500000D01*
X23525000Y-39300000D01*
X22775000Y-39300000D01*
X22775000Y-37500000D01*
%TO.C,J1*%
X128330000Y-29120000D02*
X128330000Y-44580000D01*
X130980000Y-29120000D02*
X128330000Y-29120000D01*
X130980000Y-31770000D02*
X130980000Y-29120000D01*
X133630000Y-29120000D02*
X132250000Y-29120000D01*
X133630000Y-30500000D02*
X133630000Y-29120000D01*
X133630000Y-31770000D02*
X130980000Y-31770000D01*
X133630000Y-31770000D02*
X133630000Y-44580000D01*
X133630000Y-44580000D02*
X128330000Y-44580000D01*
%TO.C,C6*%
X39701248Y-57515000D02*
X40223752Y-57515000D01*
X39701248Y-58985000D02*
X40223752Y-58985000D01*
%TO.C,C8*%
X77951248Y-57515000D02*
X78473752Y-57515000D01*
X77951248Y-58985000D02*
X78473752Y-58985000D01*
%TO.C,C9*%
X96951248Y-57515000D02*
X97473752Y-57515000D01*
X96951248Y-58985000D02*
X97473752Y-58985000D01*
%TO.C,C11*%
X20420000Y-47382323D02*
X30580000Y-47382323D01*
X20420000Y-47422323D02*
X30580000Y-47422323D01*
X20421000Y-47462323D02*
X30579000Y-47462323D01*
X20421000Y-47502323D02*
X30579000Y-47502323D01*
X20423000Y-47542323D02*
X30577000Y-47542323D01*
X20424000Y-47582323D02*
X30576000Y-47582323D01*
X20426000Y-47622323D02*
X30574000Y-47622323D01*
X20428000Y-47662323D02*
X30572000Y-47662323D01*
X20430000Y-47702323D02*
X30570000Y-47702323D01*
X20433000Y-47742323D02*
X30567000Y-47742323D01*
X20436000Y-47782323D02*
X30564000Y-47782323D01*
X20439000Y-47822323D02*
X30561000Y-47822323D01*
X20443000Y-47862323D02*
X30557000Y-47862323D01*
X20446000Y-47902323D02*
X30554000Y-47902323D01*
X20451000Y-47942323D02*
X30549000Y-47942323D01*
X20455000Y-47982323D02*
X30545000Y-47982323D01*
X20460000Y-48022323D02*
X30540000Y-48022323D01*
X20465000Y-48062323D02*
X30535000Y-48062323D01*
X20471000Y-48102323D02*
X30529000Y-48102323D01*
X20477000Y-48142323D02*
X30523000Y-48142323D01*
X20483000Y-48182323D02*
X30517000Y-48182323D01*
X20489000Y-48222323D02*
X30511000Y-48222323D01*
X20496000Y-48262323D02*
X30504000Y-48262323D01*
X20503000Y-48302323D02*
X30497000Y-48302323D01*
X20511000Y-48342323D02*
X30489000Y-48342323D01*
X20519000Y-48382323D02*
X30481000Y-48382323D01*
X20527000Y-48422323D02*
X30473000Y-48422323D01*
X20535000Y-48462323D02*
X30465000Y-48462323D01*
X20544000Y-48502323D02*
X30456000Y-48502323D01*
X20553000Y-48542323D02*
X30447000Y-48542323D01*
X20563000Y-48582323D02*
X30437000Y-48582323D01*
X20572000Y-48622323D02*
X30428000Y-48622323D01*
X20583000Y-48662323D02*
X24260000Y-48662323D01*
X20593000Y-48702323D02*
X24260000Y-48702323D01*
X20604000Y-48742323D02*
X24260000Y-48742323D01*
X20615000Y-48782323D02*
X24260000Y-48782323D01*
X20627000Y-48822323D02*
X24260000Y-48822323D01*
X20639000Y-48862323D02*
X24260000Y-48862323D01*
X20651000Y-48902323D02*
X24260000Y-48902323D01*
X20663000Y-48942323D02*
X24260000Y-48942323D01*
X20676000Y-48982323D02*
X24260000Y-48982323D01*
X20690000Y-49022323D02*
X24260000Y-49022323D01*
X20703000Y-49062323D02*
X24260000Y-49062323D01*
X20718000Y-49102323D02*
X24260000Y-49102323D01*
X20732000Y-49142323D02*
X24260000Y-49142323D01*
X20747000Y-49182323D02*
X24260000Y-49182323D01*
X20762000Y-49222323D02*
X24260000Y-49222323D01*
X20778000Y-49262323D02*
X24260000Y-49262323D01*
X20794000Y-49302323D02*
X24260000Y-49302323D01*
X20810000Y-49342323D02*
X24260000Y-49342323D01*
X20827000Y-49382323D02*
X24260000Y-49382323D01*
X20844000Y-49422323D02*
X24260000Y-49422323D01*
X20862000Y-49462323D02*
X24260000Y-49462323D01*
X20880000Y-49502323D02*
X24260000Y-49502323D01*
X20898000Y-49542323D02*
X24260000Y-49542323D01*
X20917000Y-49582323D02*
X24260000Y-49582323D01*
X20936000Y-49622323D02*
X24260000Y-49622323D01*
X20956000Y-49662323D02*
X24260000Y-49662323D01*
X20976000Y-49702323D02*
X24260000Y-49702323D01*
X20996000Y-49742323D02*
X24260000Y-49742323D01*
X21017000Y-49782323D02*
X24260000Y-49782323D01*
X21039000Y-49822323D02*
X24260000Y-49822323D01*
X21061000Y-49862323D02*
X24260000Y-49862323D01*
X21083000Y-49902323D02*
X24260000Y-49902323D01*
X21106000Y-49942323D02*
X24260000Y-49942323D01*
X21129000Y-49982323D02*
X24260000Y-49982323D01*
X21153000Y-50022323D02*
X24260000Y-50022323D01*
X21177000Y-50062323D02*
X24260000Y-50062323D01*
X21202000Y-50102323D02*
X24260000Y-50102323D01*
X21228000Y-50142323D02*
X24260000Y-50142323D01*
X21253000Y-50182323D02*
X24260000Y-50182323D01*
X21280000Y-50222323D02*
X24260000Y-50222323D01*
X21307000Y-50262323D02*
X24260000Y-50262323D01*
X21334000Y-50302323D02*
X24260000Y-50302323D01*
X21362000Y-50342323D02*
X24260000Y-50342323D01*
X21391000Y-50382323D02*
X24260000Y-50382323D01*
X21420000Y-50422323D02*
X24260000Y-50422323D01*
X21450000Y-50462323D02*
X24260000Y-50462323D01*
X21480000Y-50502323D02*
X24260000Y-50502323D01*
X21512000Y-50542323D02*
X24260000Y-50542323D01*
X21543000Y-50582323D02*
X24260000Y-50582323D01*
X21576000Y-50622323D02*
X24260000Y-50622323D01*
X21609000Y-50662323D02*
X24260000Y-50662323D01*
X21642000Y-50702323D02*
X24260000Y-50702323D01*
X21677000Y-50742323D02*
X24260000Y-50742323D01*
X21712000Y-50782323D02*
X24260000Y-50782323D01*
X21748000Y-50822323D02*
X24260000Y-50822323D01*
X21784000Y-50862323D02*
X24260000Y-50862323D01*
X21822000Y-50902323D02*
X24260000Y-50902323D01*
X21860000Y-50942323D02*
X24260000Y-50942323D01*
X21899000Y-50982323D02*
X24260000Y-50982323D01*
X21939000Y-51022323D02*
X24260000Y-51022323D01*
X21980000Y-51062323D02*
X24260000Y-51062323D01*
X22022000Y-51102323D02*
X24260000Y-51102323D01*
X22065000Y-51142323D02*
X28935000Y-51142323D01*
X22109000Y-51182323D02*
X28891000Y-51182323D01*
X22125000Y-42402677D02*
X23125000Y-42402677D01*
X22153000Y-51222323D02*
X28847000Y-51222323D01*
X22199000Y-51262323D02*
X28801000Y-51262323D01*
X22246000Y-51302323D02*
X28754000Y-51302323D01*
X22295000Y-51342323D02*
X28705000Y-51342323D01*
X22344000Y-51382323D02*
X28656000Y-51382323D01*
X22395000Y-51422323D02*
X28605000Y-51422323D01*
X22447000Y-51462323D02*
X28553000Y-51462323D01*
X22500000Y-51502323D02*
X28500000Y-51502323D01*
X22555000Y-51542323D02*
X28445000Y-51542323D01*
X22612000Y-51582323D02*
X28388000Y-51582323D01*
X22625000Y-41902677D02*
X22625000Y-42902677D01*
X22670000Y-51622323D02*
X28330000Y-51622323D01*
X22730000Y-51662323D02*
X28270000Y-51662323D01*
X22792000Y-51702323D02*
X28208000Y-51702323D01*
X22856000Y-51742323D02*
X28144000Y-51742323D01*
X22922000Y-51782323D02*
X28078000Y-51782323D01*
X22990000Y-51822323D02*
X28010000Y-51822323D01*
X23061000Y-51862323D02*
X27939000Y-51862323D01*
X23135000Y-51902323D02*
X27865000Y-51902323D01*
X23212000Y-51942323D02*
X27788000Y-51942323D01*
X23292000Y-51982323D02*
X27708000Y-51982323D01*
X23376000Y-52022323D02*
X27624000Y-52022323D01*
X23463000Y-52062323D02*
X27537000Y-52062323D01*
X23556000Y-52102323D02*
X27444000Y-52102323D01*
X23654000Y-52142323D02*
X27346000Y-52142323D01*
X23758000Y-52182323D02*
X27242000Y-52182323D01*
X23870000Y-52222323D02*
X27130000Y-52222323D01*
X23991000Y-52262323D02*
X27009000Y-52262323D01*
X24123000Y-52302323D02*
X26877000Y-52302323D01*
X24270000Y-52342323D02*
X26730000Y-52342323D01*
X24438000Y-52382323D02*
X26562000Y-52382323D01*
X24638000Y-52422323D02*
X26362000Y-52422323D01*
X24901000Y-52462323D02*
X26099000Y-52462323D01*
X26740000Y-48662323D02*
X30417000Y-48662323D01*
X26740000Y-48702323D02*
X30407000Y-48702323D01*
X26740000Y-48742323D02*
X30396000Y-48742323D01*
X26740000Y-48782323D02*
X30385000Y-48782323D01*
X26740000Y-48822323D02*
X30373000Y-48822323D01*
X26740000Y-48862323D02*
X30361000Y-48862323D01*
X26740000Y-48902323D02*
X30349000Y-48902323D01*
X26740000Y-48942323D02*
X30337000Y-48942323D01*
X26740000Y-48982323D02*
X30324000Y-48982323D01*
X26740000Y-49022323D02*
X30310000Y-49022323D01*
X26740000Y-49062323D02*
X30297000Y-49062323D01*
X26740000Y-49102323D02*
X30282000Y-49102323D01*
X26740000Y-49142323D02*
X30268000Y-49142323D01*
X26740000Y-49182323D02*
X30253000Y-49182323D01*
X26740000Y-49222323D02*
X30238000Y-49222323D01*
X26740000Y-49262323D02*
X30222000Y-49262323D01*
X26740000Y-49302323D02*
X30206000Y-49302323D01*
X26740000Y-49342323D02*
X30190000Y-49342323D01*
X26740000Y-49382323D02*
X30173000Y-49382323D01*
X26740000Y-49422323D02*
X30156000Y-49422323D01*
X26740000Y-49462323D02*
X30138000Y-49462323D01*
X26740000Y-49502323D02*
X30120000Y-49502323D01*
X26740000Y-49542323D02*
X30102000Y-49542323D01*
X26740000Y-49582323D02*
X30083000Y-49582323D01*
X26740000Y-49622323D02*
X30064000Y-49622323D01*
X26740000Y-49662323D02*
X30044000Y-49662323D01*
X26740000Y-49702323D02*
X30024000Y-49702323D01*
X26740000Y-49742323D02*
X30004000Y-49742323D01*
X26740000Y-49782323D02*
X29983000Y-49782323D01*
X26740000Y-49822323D02*
X29961000Y-49822323D01*
X26740000Y-49862323D02*
X29939000Y-49862323D01*
X26740000Y-49902323D02*
X29917000Y-49902323D01*
X26740000Y-49942323D02*
X29894000Y-49942323D01*
X26740000Y-49982323D02*
X29871000Y-49982323D01*
X26740000Y-50022323D02*
X29847000Y-50022323D01*
X26740000Y-50062323D02*
X29823000Y-50062323D01*
X26740000Y-50102323D02*
X29798000Y-50102323D01*
X26740000Y-50142323D02*
X29772000Y-50142323D01*
X26740000Y-50182323D02*
X29747000Y-50182323D01*
X26740000Y-50222323D02*
X29720000Y-50222323D01*
X26740000Y-50262323D02*
X29693000Y-50262323D01*
X26740000Y-50302323D02*
X29666000Y-50302323D01*
X26740000Y-50342323D02*
X29638000Y-50342323D01*
X26740000Y-50382323D02*
X29609000Y-50382323D01*
X26740000Y-50422323D02*
X29580000Y-50422323D01*
X26740000Y-50462323D02*
X29550000Y-50462323D01*
X26740000Y-50502323D02*
X29520000Y-50502323D01*
X26740000Y-50542323D02*
X29488000Y-50542323D01*
X26740000Y-50582323D02*
X29457000Y-50582323D01*
X26740000Y-50622323D02*
X29424000Y-50622323D01*
X26740000Y-50662323D02*
X29391000Y-50662323D01*
X26740000Y-50702323D02*
X29358000Y-50702323D01*
X26740000Y-50742323D02*
X29323000Y-50742323D01*
X26740000Y-50782323D02*
X29288000Y-50782323D01*
X26740000Y-50822323D02*
X29252000Y-50822323D01*
X26740000Y-50862323D02*
X29216000Y-50862323D01*
X26740000Y-50902323D02*
X29178000Y-50902323D01*
X26740000Y-50942323D02*
X29140000Y-50942323D01*
X26740000Y-50982323D02*
X29101000Y-50982323D01*
X26740000Y-51022323D02*
X29061000Y-51022323D01*
X26740000Y-51062323D02*
X29020000Y-51062323D01*
X26740000Y-51102323D02*
X28978000Y-51102323D01*
X30620000Y-47382323D02*
G75*
G02*
X20380000Y-47382323I-5120000J0D01*
G01*
X20380000Y-47382323D02*
G75*
G02*
X30620000Y-47382323I5120000J0D01*
G01*
%TO.C,C5*%
X115951248Y-38515000D02*
X116473752Y-38515000D01*
X115951248Y-39985000D02*
X116473752Y-39985000D01*
%TO.C,C7*%
X58951248Y-57515000D02*
X59473752Y-57515000D01*
X58951248Y-58985000D02*
X59473752Y-58985000D01*
%TO.C,J3*%
X125900000Y-53000000D02*
X125900000Y-51750000D01*
X126200000Y-50450000D02*
X126950000Y-50450000D01*
X126950000Y-47500000D02*
X131250000Y-47500000D01*
X126950000Y-50450000D02*
X126950000Y-47500000D01*
X127150000Y-53000000D02*
X125900000Y-53000000D01*
X135550000Y-47500000D02*
X131250000Y-47500000D01*
X135550000Y-50450000D02*
X135550000Y-47500000D01*
X136300000Y-50450000D02*
X135550000Y-50450000D01*
X126190000Y-52710000D02*
X136310000Y-52710000D01*
X136310000Y-46740000D01*
X126190000Y-46740000D01*
X126190000Y-52710000D01*
X126200000Y-52700000D02*
X128000000Y-52700000D01*
X128000000Y-51950000D01*
X126200000Y-51950000D01*
X126200000Y-52700000D01*
X129500000Y-52700000D02*
X133000000Y-52700000D01*
X133000000Y-51950000D01*
X129500000Y-51950000D01*
X129500000Y-52700000D01*
X134500000Y-52700000D02*
X136300000Y-52700000D01*
X136300000Y-51950000D01*
X134500000Y-51950000D01*
X134500000Y-52700000D01*
%TO.C,C10*%
X115951248Y-57515000D02*
X116473752Y-57515000D01*
X115951248Y-58985000D02*
X116473752Y-58985000D01*
%TO.C,C2*%
X58738748Y-38515000D02*
X59261252Y-38515000D01*
X58738748Y-39985000D02*
X59261252Y-39985000D01*
%TD*%
M02*
