%TF.GenerationSoftware,KiCad,Pcbnew,9.0.9-1.fc43*%
%TF.CreationDate,2026-05-12T19:07:21+02:00*%
%TF.ProjectId,Fader_taster_5x2,46616465-725f-4746-9173-7465725f3578,rev?*%
%TF.SameCoordinates,Original*%
%TF.FileFunction,Copper,L1,Top*%
%TF.FilePolarity,Positive*%
%FSLAX46Y46*%
G04 Gerber Fmt 4.6, Leading zero omitted, Abs format (unit mm)*
G04 Created by KiCad (PCBNEW 9.0.9-1.fc43) date 2026-05-12 19:07:21*
%MOMM*%
%LPD*%
G01*
G04 APERTURE LIST*
G04 Aperture macros list*
%AMRoundRect*
0 Rectangle with rounded corners*
0 $1 Rounding radius*
0 $2 $3 $4 $5 $6 $7 $8 $9 X,Y pos of 4 corners*
0 Add a 4 corners polygon primitive as box body*
4,1,4,$2,$3,$4,$5,$6,$7,$8,$9,$2,$3,0*
0 Add four circle primitives for the rounded corners*
1,1,$1+$1,$2,$3*
1,1,$1+$1,$4,$5*
1,1,$1+$1,$6,$7*
1,1,$1+$1,$8,$9*
0 Add four rect primitives between the rounded corners*
20,1,$1+$1,$2,$3,$4,$5,0*
20,1,$1+$1,$4,$5,$6,$7,0*
20,1,$1+$1,$6,$7,$8,$9,0*
20,1,$1+$1,$8,$9,$2,$3,0*%
G04 Aperture macros list end*
%TA.AperFunction,ComponentPad*%
%ADD10C,2.200000*%
%TD*%
%TA.AperFunction,ComponentPad*%
%ADD11RoundRect,0.250000X-0.725000X0.600000X-0.725000X-0.600000X0.725000X-0.600000X0.725000X0.600000X0*%
%TD*%
%TA.AperFunction,ComponentPad*%
%ADD12O,1.950000X1.700000*%
%TD*%
%TA.AperFunction,ComponentPad*%
%ADD13R,1.700000X1.700000*%
%TD*%
%TA.AperFunction,ComponentPad*%
%ADD14C,1.700000*%
%TD*%
%TA.AperFunction,ComponentPad*%
%ADD15RoundRect,0.250000X-0.750000X0.750000X-0.750000X-0.750000X0.750000X-0.750000X0.750000X0.750000X0*%
%TD*%
%TA.AperFunction,ComponentPad*%
%ADD16C,2.000000*%
%TD*%
%TA.AperFunction,ComponentPad*%
%ADD17RoundRect,0.250000X-0.600000X-0.725000X0.600000X-0.725000X0.600000X0.725000X-0.600000X0.725000X0*%
%TD*%
%TA.AperFunction,ComponentPad*%
%ADD18O,1.700000X1.950000*%
%TD*%
%TA.AperFunction,ViaPad*%
%ADD19C,0.600000*%
%TD*%
%TA.AperFunction,Conductor*%
%ADD20C,1.000000*%
%TD*%
%TA.AperFunction,Conductor*%
%ADD21C,0.400000*%
%TD*%
G04 APERTURE END LIST*
D10*
%TO.P,SW9,5,NO*%
%TO.N,Net-(J1-Pin_5)*%
X99740000Y-45020000D03*
%TO.P,SW9,6,COM*%
%TO.N,GND*%
X93390000Y-47560000D03*
%TD*%
%TO.P,SW8,5,NO*%
%TO.N,Net-(J1-Pin_7)*%
X80690000Y-45020000D03*
%TO.P,SW8,6,COM*%
%TO.N,GND*%
X74340000Y-47560000D03*
%TD*%
%TO.P,SW5,5,NO*%
%TO.N,Net-(J1-Pin_12)*%
X118790000Y-25970000D03*
%TO.P,SW5,6,COM*%
%TO.N,GND*%
X112440000Y-28510000D03*
%TD*%
%TO.P,SW3,5,NO*%
%TO.N,Net-(J1-Pin_8)*%
X80690000Y-25970000D03*
%TO.P,SW3,6,COM*%
%TO.N,GND*%
X74340000Y-28510000D03*
%TD*%
%TO.P,SW1,5,NO*%
%TO.N,Net-(J1-Pin_4)*%
X42590000Y-25970000D03*
%TO.P,SW1,6,COM*%
%TO.N,GND*%
X36240000Y-28510000D03*
%TD*%
%TO.P,SW10,5,NO*%
%TO.N,Net-(J1-Pin_3)*%
X118790000Y-45020000D03*
%TO.P,SW10,6,COM*%
%TO.N,GND*%
X112440000Y-47560000D03*
%TD*%
%TO.P,SW6,5,NO*%
%TO.N,Net-(J1-Pin_11)*%
X42590000Y-45020000D03*
%TO.P,SW6,6,COM*%
%TO.N,GND*%
X36240000Y-47560000D03*
%TD*%
%TO.P,SW4,5,NO*%
%TO.N,Net-(J1-Pin_10)*%
X99740000Y-25970000D03*
%TO.P,SW4,6,COM*%
%TO.N,GND*%
X93390000Y-28510000D03*
%TD*%
%TO.P,SW7,5,NO*%
%TO.N,Net-(J1-Pin_9)*%
X61640000Y-45020000D03*
%TO.P,SW7,6,COM*%
%TO.N,GND*%
X55290000Y-47560000D03*
%TD*%
%TO.P,SW2,5,NO*%
%TO.N,Net-(J1-Pin_6)*%
X61640000Y-25970000D03*
%TO.P,SW2,6,COM*%
%TO.N,GND*%
X55290000Y-28510000D03*
%TD*%
D11*
%TO.P,J2,1,Pin_1*%
%TO.N,GND*%
X25225000Y-31750000D03*
D12*
%TO.P,J2,2,Pin_2*%
%TO.N,/LED_IN*%
X25225000Y-34250000D03*
%TO.P,J2,3,Pin_3*%
%TO.N,+5V*%
X25225000Y-36750000D03*
%TD*%
D13*
%TO.P,J1,1,Pin_1*%
%TO.N,GND*%
X132250000Y-30500000D03*
D14*
%TO.P,J1,2,Pin_2*%
X129710000Y-30500000D03*
%TO.P,J1,3,Pin_3*%
%TO.N,Net-(J1-Pin_3)*%
X132250000Y-33040000D03*
%TO.P,J1,4,Pin_4*%
%TO.N,Net-(J1-Pin_4)*%
X129710000Y-33040000D03*
%TO.P,J1,5,Pin_5*%
%TO.N,Net-(J1-Pin_5)*%
X132250000Y-35580000D03*
%TO.P,J1,6,Pin_6*%
%TO.N,Net-(J1-Pin_6)*%
X129710000Y-35580000D03*
%TO.P,J1,7,Pin_7*%
%TO.N,Net-(J1-Pin_7)*%
X132250000Y-38120000D03*
%TO.P,J1,8,Pin_8*%
%TO.N,Net-(J1-Pin_8)*%
X129710000Y-38120000D03*
%TO.P,J1,9,Pin_9*%
%TO.N,Net-(J1-Pin_9)*%
X132250000Y-40660000D03*
%TO.P,J1,10,Pin_10*%
%TO.N,Net-(J1-Pin_10)*%
X129710000Y-40660000D03*
%TO.P,J1,11,Pin_11*%
%TO.N,Net-(J1-Pin_11)*%
X132250000Y-43200000D03*
%TO.P,J1,12,Pin_12*%
%TO.N,Net-(J1-Pin_12)*%
X129710000Y-43200000D03*
%TD*%
D15*
%TO.P,C11,1*%
%TO.N,+5V*%
X25500000Y-44882323D03*
D16*
%TO.P,C11,2*%
%TO.N,GND*%
X25500000Y-49882323D03*
%TD*%
D17*
%TO.P,J3,1,Pin_1*%
%TO.N,GND*%
X128750000Y-50250000D03*
D18*
%TO.P,J3,2,Pin_2*%
%TO.N,/LED_OUT*%
X131250000Y-50250000D03*
%TO.P,J3,3,Pin_3*%
%TO.N,+5V*%
X133750000Y-50250000D03*
%TD*%
D19*
%TO.N,+5V*%
X61750000Y-58250000D03*
X80750000Y-58250000D03*
X99750000Y-39250000D03*
X118750000Y-58250000D03*
X80750000Y-39250000D03*
X118750000Y-39250000D03*
X99750000Y-58250000D03*
X61750000Y-39250000D03*
X42750000Y-58250000D03*
X42750000Y-39250000D03*
%TO.N,Net-(J1-Pin_9)*%
X125750000Y-45700000D03*
%TD*%
D20*
%TO.N,+5V*%
X25225000Y-41475000D02*
X25500000Y-41750000D01*
X79250000Y-39250000D02*
X99750000Y-39250000D01*
X126000000Y-54750000D02*
X128000000Y-52750000D01*
X25225000Y-36750000D02*
X25225000Y-39250000D01*
X32500000Y-58250000D02*
X80750000Y-58250000D01*
X128000000Y-52750000D02*
X132500000Y-52750000D01*
X25225000Y-39250000D02*
X25225000Y-41475000D01*
X30000000Y-46500000D02*
X30000000Y-55750000D01*
X118750000Y-58250000D02*
X124250000Y-58250000D01*
X25500000Y-41750000D02*
X25500000Y-44882323D01*
X60037500Y-39250000D02*
X79250000Y-39250000D01*
X126000000Y-56500000D02*
X126000000Y-54750000D01*
X124250000Y-58250000D02*
X126000000Y-56500000D01*
X25225000Y-39250000D02*
X60037500Y-39250000D01*
X133750000Y-51500000D02*
X133750000Y-50250000D01*
X132500000Y-52750000D02*
X133750000Y-51500000D01*
X99750000Y-58250000D02*
X118750000Y-58250000D01*
X99750000Y-39250000D02*
X118750000Y-39250000D01*
X28382323Y-44882323D02*
X30000000Y-46500000D01*
X80750000Y-58250000D02*
X99750000Y-58250000D01*
X30000000Y-55750000D02*
X32500000Y-58250000D01*
X25500000Y-44882323D02*
X28382323Y-44882323D01*
D21*
%TO.N,Net-(J1-Pin_11)*%
X132250000Y-44750000D02*
X132250000Y-43200000D01*
X42590000Y-45020000D02*
X46860000Y-40750000D01*
X126750000Y-44750000D02*
X127750000Y-45750000D01*
X46860000Y-40750000D02*
X120500000Y-40750000D01*
X120500000Y-40750000D02*
X124500000Y-44750000D01*
X127750000Y-45750000D02*
X131250000Y-45750000D01*
X124500000Y-44750000D02*
X126750000Y-44750000D01*
X131250000Y-45750000D02*
X132250000Y-44750000D01*
%TO.N,Net-(J1-Pin_9)*%
X120000000Y-41500000D02*
X124250000Y-45750000D01*
X65160000Y-41500000D02*
X120000000Y-41500000D01*
X61640000Y-45020000D02*
X65160000Y-41500000D01*
X124250000Y-45750000D02*
X125750000Y-45750000D01*
X125750000Y-45750000D02*
X125750000Y-45700000D01*
%TO.N,Net-(J1-Pin_5)*%
X101760000Y-43000000D02*
X119500000Y-43000000D01*
X134850000Y-46250000D02*
X134850000Y-36850000D01*
X123750000Y-47250000D02*
X133850000Y-47250000D01*
X133580000Y-35580000D02*
X132250000Y-35580000D01*
X119500000Y-43000000D02*
X123750000Y-47250000D01*
X99740000Y-45020000D02*
X101760000Y-43000000D01*
X134850000Y-36850000D02*
X133580000Y-35580000D01*
X133850000Y-47250000D02*
X134850000Y-46250000D01*
%TO.N,Net-(J1-Pin_7)*%
X80690000Y-45020000D02*
X83460000Y-42250000D01*
X124000000Y-46500000D02*
X133250000Y-46500000D01*
X133250000Y-46500000D02*
X134150000Y-45600000D01*
X134150000Y-38900000D02*
X133370000Y-38120000D01*
X134150000Y-45600000D02*
X134150000Y-38900000D01*
X119750000Y-42250000D02*
X124000000Y-46500000D01*
X83460000Y-42250000D02*
X119750000Y-42250000D01*
X133370000Y-38120000D02*
X132250000Y-38120000D01*
%TO.N,Net-(J1-Pin_3)*%
X135550000Y-46950000D02*
X135550000Y-34050000D01*
X135550000Y-34050000D02*
X134540000Y-33040000D01*
X134540000Y-33040000D02*
X132250000Y-33040000D01*
X134500000Y-48000000D02*
X135550000Y-46950000D01*
X121770000Y-48000000D02*
X134500000Y-48000000D01*
X118790000Y-45020000D02*
X121770000Y-48000000D01*
%TD*%
%TA.AperFunction,Conductor*%
%TO.N,+5V*%
G36*
X136142539Y-20070185D02*
G01*
X136188294Y-20122989D01*
X136199500Y-20174500D01*
X136199500Y-33409480D01*
X136179815Y-33476519D01*
X136127011Y-33522274D01*
X136057853Y-33532218D01*
X135994297Y-33503193D01*
X135987819Y-33497161D01*
X134986545Y-32495887D01*
X134871807Y-32419222D01*
X134744332Y-32366421D01*
X134744322Y-32366418D01*
X134608996Y-32339500D01*
X134608994Y-32339500D01*
X134608993Y-32339500D01*
X133473547Y-32339500D01*
X133406508Y-32319815D01*
X133373230Y-32288385D01*
X133331682Y-32231200D01*
X133280107Y-32160211D01*
X133166569Y-32046673D01*
X133133084Y-31985350D01*
X133138068Y-31915658D01*
X133179940Y-31859725D01*
X133210915Y-31842810D01*
X133342331Y-31793796D01*
X133457546Y-31707546D01*
X133543796Y-31592331D01*
X133594091Y-31457483D01*
X133600500Y-31397873D01*
X133600499Y-29602128D01*
X133594091Y-29542517D01*
X133592810Y-29539083D01*
X133543797Y-29407671D01*
X133543793Y-29407664D01*
X133457547Y-29292455D01*
X133457544Y-29292452D01*
X133342335Y-29206206D01*
X133342328Y-29206202D01*
X133207482Y-29155908D01*
X133207483Y-29155908D01*
X133147883Y-29149501D01*
X133147881Y-29149500D01*
X133147873Y-29149500D01*
X133147864Y-29149500D01*
X131352129Y-29149500D01*
X131352123Y-29149501D01*
X131292516Y-29155908D01*
X131157671Y-29206202D01*
X131157664Y-29206206D01*
X131042455Y-29292452D01*
X131042452Y-29292455D01*
X130956206Y-29407664D01*
X130956203Y-29407669D01*
X130907189Y-29539083D01*
X130865317Y-29595016D01*
X130799853Y-29619433D01*
X130731580Y-29604581D01*
X130703326Y-29583430D01*
X130589786Y-29469890D01*
X130417820Y-29344951D01*
X130228414Y-29248444D01*
X130228413Y-29248443D01*
X130228412Y-29248443D01*
X130026243Y-29182754D01*
X130026241Y-29182753D01*
X130026240Y-29182753D01*
X129864957Y-29157208D01*
X129816287Y-29149500D01*
X129603713Y-29149500D01*
X129555042Y-29157208D01*
X129393760Y-29182753D01*
X129191585Y-29248444D01*
X129002179Y-29344951D01*
X128830213Y-29469890D01*
X128679890Y-29620213D01*
X128554951Y-29792179D01*
X128458444Y-29981585D01*
X128392753Y-30183760D01*
X128359500Y-30393713D01*
X128359500Y-30606287D01*
X128392754Y-30816243D01*
X128432133Y-30937440D01*
X128458444Y-31018414D01*
X128554951Y-31207820D01*
X128679890Y-31379786D01*
X128830213Y-31530109D01*
X129002182Y-31655050D01*
X129010946Y-31659516D01*
X129061742Y-31707491D01*
X129078536Y-31775312D01*
X129055998Y-31841447D01*
X129010946Y-31880484D01*
X129002182Y-31884949D01*
X128830213Y-32009890D01*
X128679890Y-32160213D01*
X128554951Y-32332179D01*
X128458444Y-32521585D01*
X128392753Y-32723760D01*
X128377723Y-32818656D01*
X128359500Y-32933713D01*
X128359500Y-33146287D01*
X128392754Y-33356243D01*
X128453170Y-33542184D01*
X128458444Y-33558414D01*
X128554951Y-33747820D01*
X128679890Y-33919786D01*
X128830213Y-34070109D01*
X129002182Y-34195050D01*
X129010946Y-34199516D01*
X129061742Y-34247491D01*
X129078536Y-34315312D01*
X129055998Y-34381447D01*
X129010946Y-34420484D01*
X129002182Y-34424949D01*
X128830213Y-34549890D01*
X128679890Y-34700213D01*
X128554951Y-34872179D01*
X128458444Y-35061585D01*
X128392753Y-35263760D01*
X128359500Y-35473713D01*
X128359500Y-35686286D01*
X128392753Y-35896239D01*
X128458444Y-36098414D01*
X128554951Y-36287820D01*
X128679890Y-36459786D01*
X128830213Y-36610109D01*
X129002182Y-36735050D01*
X129010946Y-36739516D01*
X129061742Y-36787491D01*
X129078536Y-36855312D01*
X129055998Y-36921447D01*
X129010946Y-36960484D01*
X129002182Y-36964949D01*
X128830213Y-37089890D01*
X128679890Y-37240213D01*
X128554951Y-37412179D01*
X128458444Y-37601585D01*
X128458443Y-37601587D01*
X128458443Y-37601588D01*
X128440000Y-37658349D01*
X128392753Y-37803760D01*
X128359500Y-38013713D01*
X128359500Y-38226286D01*
X128392753Y-38436239D01*
X128458444Y-38638414D01*
X128554951Y-38827820D01*
X128679890Y-38999786D01*
X128830213Y-39150109D01*
X129002182Y-39275050D01*
X129010946Y-39279516D01*
X129061742Y-39327491D01*
X129078536Y-39395312D01*
X129055998Y-39461447D01*
X129010946Y-39500484D01*
X129002182Y-39504949D01*
X128830213Y-39629890D01*
X128679890Y-39780213D01*
X128554951Y-39952179D01*
X128458444Y-40141585D01*
X128392753Y-40343760D01*
X128359500Y-40553713D01*
X128359500Y-40766286D01*
X128392753Y-40976239D01*
X128458444Y-41178414D01*
X128554951Y-41367820D01*
X128679890Y-41539786D01*
X128830213Y-41690109D01*
X129002182Y-41815050D01*
X129010946Y-41819516D01*
X129061742Y-41867491D01*
X129078536Y-41935312D01*
X129055998Y-42001447D01*
X129010946Y-42040484D01*
X129002182Y-42044949D01*
X128830213Y-42169890D01*
X128679890Y-42320213D01*
X128554951Y-42492179D01*
X128458444Y-42681585D01*
X128392753Y-42883760D01*
X128359500Y-43093713D01*
X128359500Y-43306286D01*
X128391272Y-43506890D01*
X128392754Y-43516243D01*
X128436582Y-43651132D01*
X128458444Y-43718414D01*
X128554951Y-43907820D01*
X128679890Y-44079786D01*
X128830213Y-44230109D01*
X129002179Y-44355048D01*
X129002181Y-44355049D01*
X129002184Y-44355051D01*
X129191588Y-44451557D01*
X129393757Y-44517246D01*
X129603713Y-44550500D01*
X129603714Y-44550500D01*
X129816286Y-44550500D01*
X129816287Y-44550500D01*
X130026243Y-44517246D01*
X130228412Y-44451557D01*
X130417816Y-44355051D01*
X130470343Y-44316888D01*
X130589786Y-44230109D01*
X130589788Y-44230106D01*
X130589792Y-44230104D01*
X130740104Y-44079792D01*
X130740106Y-44079788D01*
X130740109Y-44079786D01*
X130865048Y-43907820D01*
X130865047Y-43907820D01*
X130865051Y-43907816D01*
X130869514Y-43899054D01*
X130917488Y-43848259D01*
X130985308Y-43831463D01*
X131051444Y-43853999D01*
X131090486Y-43899056D01*
X131094951Y-43907820D01*
X131219890Y-44079786D01*
X131219896Y-44079792D01*
X131370208Y-44230104D01*
X131489659Y-44316890D01*
X131532324Y-44372218D01*
X131538303Y-44441831D01*
X131505698Y-44503627D01*
X131504454Y-44504888D01*
X130996162Y-45013181D01*
X130934839Y-45046666D01*
X130908481Y-45049500D01*
X128091519Y-45049500D01*
X128024480Y-45029815D01*
X128003838Y-45013181D01*
X127196546Y-44205888D01*
X127196545Y-44205887D01*
X127081807Y-44129222D01*
X126954332Y-44076421D01*
X126954322Y-44076418D01*
X126818996Y-44049500D01*
X126818994Y-44049500D01*
X126818993Y-44049500D01*
X124841519Y-44049500D01*
X124774480Y-44029815D01*
X124753838Y-44013181D01*
X120946546Y-40205888D01*
X120946545Y-40205887D01*
X120831807Y-40129222D01*
X120704332Y-40076421D01*
X120704322Y-40076418D01*
X120568996Y-40049500D01*
X120568994Y-40049500D01*
X120568993Y-40049500D01*
X46928994Y-40049500D01*
X46791006Y-40049500D01*
X46791004Y-40049500D01*
X46655677Y-40076418D01*
X46655667Y-40076421D01*
X46528192Y-40129222D01*
X46413454Y-40205887D01*
X43166183Y-43453158D01*
X43104860Y-43486643D01*
X43040184Y-43483408D01*
X42964787Y-43458910D01*
X42798903Y-43432636D01*
X42715962Y-43419500D01*
X42464038Y-43419500D01*
X42339626Y-43439205D01*
X42215214Y-43458910D01*
X41975616Y-43536760D01*
X41751151Y-43651132D01*
X41547350Y-43799201D01*
X41547345Y-43799205D01*
X41369205Y-43977345D01*
X41369201Y-43977350D01*
X41221132Y-44181151D01*
X41106760Y-44405616D01*
X41028910Y-44645214D01*
X40989500Y-44894038D01*
X40989500Y-45145961D01*
X41028910Y-45394785D01*
X41106760Y-45634383D01*
X41221132Y-45858848D01*
X41369201Y-46062649D01*
X41369205Y-46062654D01*
X41547345Y-46240794D01*
X41547350Y-46240798D01*
X41725117Y-46369952D01*
X41751155Y-46388870D01*
X41894184Y-46461747D01*
X41975616Y-46503239D01*
X41975618Y-46503239D01*
X41975621Y-46503241D01*
X42215215Y-46581090D01*
X42464038Y-46620500D01*
X42464039Y-46620500D01*
X42715961Y-46620500D01*
X42715962Y-46620500D01*
X42964785Y-46581090D01*
X43204379Y-46503241D01*
X43428845Y-46388870D01*
X43632656Y-46240793D01*
X43810793Y-46062656D01*
X43958870Y-45858845D01*
X44073241Y-45634379D01*
X44151090Y-45394785D01*
X44190500Y-45145962D01*
X44190500Y-44894038D01*
X44151090Y-44645215D01*
X44126589Y-44569812D01*
X44124595Y-44499973D01*
X44156838Y-44443817D01*
X47113838Y-41486819D01*
X47175161Y-41453334D01*
X47201519Y-41450500D01*
X63919481Y-41450500D01*
X63986520Y-41470185D01*
X64032275Y-41522989D01*
X64042219Y-41592147D01*
X64013194Y-41655703D01*
X64007162Y-41662181D01*
X62216183Y-43453158D01*
X62154860Y-43486643D01*
X62090184Y-43483408D01*
X62014787Y-43458910D01*
X61848903Y-43432636D01*
X61765962Y-43419500D01*
X61514038Y-43419500D01*
X61389626Y-43439205D01*
X61265214Y-43458910D01*
X61025616Y-43536760D01*
X60801151Y-43651132D01*
X60597350Y-43799201D01*
X60597345Y-43799205D01*
X60419205Y-43977345D01*
X60419201Y-43977350D01*
X60271132Y-44181151D01*
X60156760Y-44405616D01*
X60078910Y-44645214D01*
X60039500Y-44894038D01*
X60039500Y-45145961D01*
X60078910Y-45394785D01*
X60156760Y-45634383D01*
X60271132Y-45858848D01*
X60419201Y-46062649D01*
X60419205Y-46062654D01*
X60597345Y-46240794D01*
X60597350Y-46240798D01*
X60775117Y-46369952D01*
X60801155Y-46388870D01*
X60944184Y-46461747D01*
X61025616Y-46503239D01*
X61025618Y-46503239D01*
X61025621Y-46503241D01*
X61265215Y-46581090D01*
X61514038Y-46620500D01*
X61514039Y-46620500D01*
X61765961Y-46620500D01*
X61765962Y-46620500D01*
X62014785Y-46581090D01*
X62254379Y-46503241D01*
X62478845Y-46388870D01*
X62682656Y-46240793D01*
X62860793Y-46062656D01*
X63008870Y-45858845D01*
X63123241Y-45634379D01*
X63201090Y-45394785D01*
X63240500Y-45145962D01*
X63240500Y-44894038D01*
X63201090Y-44645215D01*
X63176589Y-44569812D01*
X63174595Y-44499973D01*
X63206838Y-44443817D01*
X65413838Y-42236819D01*
X65475161Y-42203334D01*
X65501519Y-42200500D01*
X82219481Y-42200500D01*
X82286520Y-42220185D01*
X82332275Y-42272989D01*
X82342219Y-42342147D01*
X82313194Y-42405703D01*
X82307162Y-42412181D01*
X81266183Y-43453158D01*
X81204860Y-43486643D01*
X81140184Y-43483408D01*
X81064787Y-43458910D01*
X80898903Y-43432636D01*
X80815962Y-43419500D01*
X80564038Y-43419500D01*
X80439626Y-43439205D01*
X80315214Y-43458910D01*
X80075616Y-43536760D01*
X79851151Y-43651132D01*
X79647350Y-43799201D01*
X79647345Y-43799205D01*
X79469205Y-43977345D01*
X79469201Y-43977350D01*
X79321132Y-44181151D01*
X79206760Y-44405616D01*
X79128910Y-44645214D01*
X79089500Y-44894038D01*
X79089500Y-45145961D01*
X79128910Y-45394785D01*
X79206760Y-45634383D01*
X79321132Y-45858848D01*
X79469201Y-46062649D01*
X79469205Y-46062654D01*
X79647345Y-46240794D01*
X79647350Y-46240798D01*
X79825117Y-46369952D01*
X79851155Y-46388870D01*
X79994184Y-46461747D01*
X80075616Y-46503239D01*
X80075618Y-46503239D01*
X80075621Y-46503241D01*
X80315215Y-46581090D01*
X80564038Y-46620500D01*
X80564039Y-46620500D01*
X80815961Y-46620500D01*
X80815962Y-46620500D01*
X81064785Y-46581090D01*
X81304379Y-46503241D01*
X81528845Y-46388870D01*
X81732656Y-46240793D01*
X81910793Y-46062656D01*
X82058870Y-45858845D01*
X82173241Y-45634379D01*
X82251090Y-45394785D01*
X82290500Y-45145962D01*
X82290500Y-44894038D01*
X82251090Y-44645215D01*
X82226589Y-44569812D01*
X82224595Y-44499973D01*
X82256838Y-44443817D01*
X83713838Y-42986819D01*
X83775161Y-42953334D01*
X83801519Y-42950500D01*
X100519482Y-42950500D01*
X100586521Y-42970185D01*
X100632276Y-43022989D01*
X100642220Y-43092147D01*
X100613195Y-43155703D01*
X100607181Y-43162161D01*
X100387020Y-43382323D01*
X100316184Y-43453159D01*
X100254861Y-43486643D01*
X100190186Y-43483408D01*
X100114787Y-43458910D01*
X100114788Y-43458910D01*
X99928167Y-43429352D01*
X99865962Y-43419500D01*
X99614038Y-43419500D01*
X99489626Y-43439205D01*
X99365214Y-43458910D01*
X99125616Y-43536760D01*
X98901151Y-43651132D01*
X98697350Y-43799201D01*
X98697345Y-43799205D01*
X98519205Y-43977345D01*
X98519201Y-43977350D01*
X98371132Y-44181151D01*
X98256760Y-44405616D01*
X98178910Y-44645214D01*
X98139500Y-44894038D01*
X98139500Y-45145961D01*
X98178910Y-45394785D01*
X98256760Y-45634383D01*
X98371132Y-45858848D01*
X98519201Y-46062649D01*
X98519205Y-46062654D01*
X98697345Y-46240794D01*
X98697350Y-46240798D01*
X98875117Y-46369952D01*
X98901155Y-46388870D01*
X99044184Y-46461747D01*
X99125616Y-46503239D01*
X99125618Y-46503239D01*
X99125621Y-46503241D01*
X99365215Y-46581090D01*
X99614038Y-46620500D01*
X99614039Y-46620500D01*
X99865961Y-46620500D01*
X99865962Y-46620500D01*
X100114785Y-46581090D01*
X100354379Y-46503241D01*
X100578845Y-46388870D01*
X100782656Y-46240793D01*
X100960793Y-46062656D01*
X101108870Y-45858845D01*
X101223241Y-45634379D01*
X101301090Y-45394785D01*
X101340500Y-45145962D01*
X101340500Y-44894038D01*
X101301090Y-44645215D01*
X101276589Y-44569812D01*
X101274595Y-44499972D01*
X101306838Y-44443816D01*
X102013837Y-43736819D01*
X102075160Y-43703334D01*
X102101518Y-43700500D01*
X117546689Y-43700500D01*
X117613728Y-43720185D01*
X117659483Y-43772989D01*
X117669427Y-43842147D01*
X117640402Y-43905703D01*
X117634370Y-43912181D01*
X117569205Y-43977345D01*
X117569201Y-43977350D01*
X117421132Y-44181151D01*
X117306760Y-44405616D01*
X117228910Y-44645214D01*
X117189500Y-44894038D01*
X117189500Y-45145961D01*
X117228910Y-45394785D01*
X117306760Y-45634383D01*
X117421132Y-45858848D01*
X117569201Y-46062649D01*
X117569205Y-46062654D01*
X117747345Y-46240794D01*
X117747350Y-46240798D01*
X117925117Y-46369952D01*
X117951155Y-46388870D01*
X118094184Y-46461747D01*
X118175616Y-46503239D01*
X118175618Y-46503239D01*
X118175621Y-46503241D01*
X118415215Y-46581090D01*
X118664038Y-46620500D01*
X118664039Y-46620500D01*
X118915961Y-46620500D01*
X118915962Y-46620500D01*
X119164785Y-46581090D01*
X119240186Y-46556589D01*
X119310024Y-46554594D01*
X119366183Y-46586840D01*
X120361018Y-47581674D01*
X121225886Y-48446542D01*
X121323455Y-48544111D01*
X121323459Y-48544115D01*
X121438182Y-48620771D01*
X121438186Y-48620773D01*
X121438189Y-48620775D01*
X121512866Y-48651707D01*
X121565671Y-48673580D01*
X121592591Y-48678934D01*
X121689630Y-48698237D01*
X121701006Y-48700500D01*
X127619894Y-48700500D01*
X127686933Y-48720185D01*
X127732688Y-48772989D01*
X127742632Y-48842147D01*
X127713607Y-48905703D01*
X127684993Y-48930037D01*
X127682546Y-48931546D01*
X127681342Y-48932289D01*
X127557289Y-49056342D01*
X127465187Y-49205663D01*
X127465185Y-49205668D01*
X127460325Y-49220334D01*
X127410001Y-49372203D01*
X127410001Y-49372204D01*
X127410000Y-49372204D01*
X127399500Y-49474983D01*
X127399500Y-51025001D01*
X127399501Y-51025018D01*
X127410000Y-51127796D01*
X127410001Y-51127799D01*
X127455894Y-51266294D01*
X127465186Y-51294334D01*
X127557288Y-51443656D01*
X127681344Y-51567712D01*
X127830666Y-51659814D01*
X127997203Y-51714999D01*
X128099991Y-51725500D01*
X129400008Y-51725499D01*
X129502797Y-51714999D01*
X129669334Y-51659814D01*
X129818656Y-51567712D01*
X129942712Y-51443656D01*
X130034814Y-51294334D01*
X130034814Y-51294331D01*
X130038178Y-51288879D01*
X130090126Y-51242154D01*
X130159088Y-51230931D01*
X130223170Y-51258774D01*
X130231398Y-51266294D01*
X130370213Y-51405109D01*
X130542179Y-51530048D01*
X130542181Y-51530049D01*
X130542184Y-51530051D01*
X130731588Y-51626557D01*
X130933757Y-51692246D01*
X131143713Y-51725500D01*
X131143714Y-51725500D01*
X131356286Y-51725500D01*
X131356287Y-51725500D01*
X131566243Y-51692246D01*
X131768412Y-51626557D01*
X131957816Y-51530051D01*
X131979789Y-51514086D01*
X132129786Y-51405109D01*
X132129788Y-51405106D01*
X132129792Y-51405104D01*
X132280104Y-51254792D01*
X132399991Y-51089779D01*
X132455320Y-51047115D01*
X132524933Y-51041136D01*
X132586729Y-51073741D01*
X132600627Y-51089781D01*
X132720272Y-51254459D01*
X132720276Y-51254464D01*
X132870535Y-51404723D01*
X132870540Y-51404727D01*
X133042442Y-51529620D01*
X133231782Y-51626095D01*
X133433871Y-51691757D01*
X133500000Y-51702231D01*
X133500000Y-50654145D01*
X133566657Y-50692630D01*
X133687465Y-50725000D01*
X133812535Y-50725000D01*
X133933343Y-50692630D01*
X134000000Y-50654145D01*
X134000000Y-51702230D01*
X134066126Y-51691757D01*
X134066129Y-51691757D01*
X134268217Y-51626095D01*
X134457557Y-51529620D01*
X134629459Y-51404727D01*
X134629464Y-51404723D01*
X134779723Y-51254464D01*
X134779727Y-51254459D01*
X134904620Y-51082557D01*
X135001095Y-50893217D01*
X135066757Y-50691130D01*
X135066757Y-50691127D01*
X135097030Y-50500000D01*
X134154146Y-50500000D01*
X134192630Y-50433343D01*
X134225000Y-50312535D01*
X134225000Y-50187465D01*
X134192630Y-50066657D01*
X134154146Y-50000000D01*
X135097030Y-50000000D01*
X135066757Y-49808872D01*
X135066757Y-49808869D01*
X135001095Y-49606782D01*
X134904620Y-49417442D01*
X134779727Y-49245540D01*
X134779723Y-49245535D01*
X134629464Y-49095276D01*
X134629459Y-49095272D01*
X134457553Y-48970376D01*
X134457552Y-48970375D01*
X134388094Y-48934984D01*
X134337298Y-48887010D01*
X134320503Y-48819189D01*
X134343041Y-48753054D01*
X134397756Y-48709603D01*
X134444389Y-48700500D01*
X134568996Y-48700500D01*
X134677412Y-48678934D01*
X134704328Y-48673580D01*
X134768069Y-48647177D01*
X134831807Y-48620777D01*
X134831808Y-48620776D01*
X134831811Y-48620775D01*
X134946543Y-48544114D01*
X135413403Y-48077254D01*
X135987819Y-47502839D01*
X136049142Y-47469354D01*
X136118834Y-47474338D01*
X136174767Y-47516210D01*
X136199184Y-47581674D01*
X136199500Y-47590520D01*
X136199500Y-60925500D01*
X136179815Y-60992539D01*
X136127011Y-61038294D01*
X136075500Y-61049500D01*
X20174500Y-61049500D01*
X20107461Y-61029815D01*
X20061706Y-60977011D01*
X20050500Y-60925500D01*
X20050500Y-55988542D01*
X23299500Y-55988542D01*
X23299500Y-56211450D01*
X23299501Y-56211466D01*
X23328594Y-56432452D01*
X23328595Y-56432457D01*
X23328596Y-56432463D01*
X23328597Y-56432465D01*
X23386290Y-56647780D01*
X23386293Y-56647790D01*
X23471593Y-56853722D01*
X23471595Y-56853726D01*
X23583052Y-57046774D01*
X23583057Y-57046780D01*
X23583058Y-57046782D01*
X23718751Y-57223622D01*
X23718757Y-57223629D01*
X23876370Y-57381242D01*
X23876376Y-57381247D01*
X24053226Y-57516948D01*
X24246274Y-57628405D01*
X24452219Y-57713710D01*
X24667537Y-57771404D01*
X24888543Y-57800500D01*
X24888550Y-57800500D01*
X25111450Y-57800500D01*
X25111457Y-57800500D01*
X25332463Y-57771404D01*
X25547781Y-57713710D01*
X25753726Y-57628405D01*
X25946774Y-57516948D01*
X26123624Y-57381247D01*
X26281247Y-57223624D01*
X26416948Y-57046774D01*
X26528405Y-56853726D01*
X26613710Y-56647781D01*
X26671404Y-56432463D01*
X26700500Y-56211457D01*
X26700500Y-55988543D01*
X26671404Y-55767537D01*
X26613710Y-55552219D01*
X26528405Y-55346274D01*
X26416948Y-55153226D01*
X26281247Y-54976376D01*
X26281242Y-54976370D01*
X26123629Y-54818757D01*
X26123622Y-54818751D01*
X25946782Y-54683058D01*
X25946780Y-54683057D01*
X25946774Y-54683052D01*
X25753726Y-54571595D01*
X25753722Y-54571593D01*
X25547790Y-54486293D01*
X25547783Y-54486291D01*
X25547781Y-54486290D01*
X25332463Y-54428596D01*
X25332457Y-54428595D01*
X25332452Y-54428594D01*
X25111466Y-54399501D01*
X25111463Y-54399500D01*
X25111457Y-54399500D01*
X24888543Y-54399500D01*
X24888537Y-54399500D01*
X24888533Y-54399501D01*
X24667547Y-54428594D01*
X24667540Y-54428595D01*
X24667537Y-54428596D01*
X24452219Y-54486290D01*
X24452209Y-54486293D01*
X24246277Y-54571593D01*
X24246273Y-54571595D01*
X24053226Y-54683052D01*
X24053217Y-54683058D01*
X23876377Y-54818751D01*
X23876370Y-54818757D01*
X23718757Y-54976370D01*
X23718751Y-54976377D01*
X23583058Y-55153217D01*
X23583052Y-55153226D01*
X23471595Y-55346273D01*
X23471593Y-55346277D01*
X23386293Y-55552209D01*
X23386290Y-55552219D01*
X23328597Y-55767534D01*
X23328594Y-55767547D01*
X23301348Y-55974505D01*
X23299500Y-55988542D01*
X20050500Y-55988542D01*
X20050500Y-54054081D01*
X38274500Y-54054081D01*
X38274500Y-54054082D01*
X38274500Y-57095918D01*
X38304082Y-57125500D01*
X41745918Y-57125500D01*
X41775500Y-57095918D01*
X41775500Y-54054082D01*
X41775499Y-54054081D01*
X57324500Y-54054081D01*
X57324500Y-54054082D01*
X57324500Y-57095918D01*
X57354082Y-57125500D01*
X60795918Y-57125500D01*
X60825500Y-57095918D01*
X60825500Y-54054082D01*
X60825499Y-54054081D01*
X76374500Y-54054081D01*
X76374500Y-54054082D01*
X76374500Y-57095918D01*
X76404082Y-57125500D01*
X79845918Y-57125500D01*
X79875500Y-57095918D01*
X79875500Y-54054082D01*
X79875499Y-54054081D01*
X95424500Y-54054081D01*
X95424500Y-54054082D01*
X95424500Y-57095918D01*
X95454082Y-57125500D01*
X98895918Y-57125500D01*
X98925500Y-57095918D01*
X98925500Y-54054082D01*
X98925499Y-54054081D01*
X114474500Y-54054081D01*
X114474500Y-54054082D01*
X114474500Y-57095918D01*
X114504082Y-57125500D01*
X117945918Y-57125500D01*
X117975500Y-57095918D01*
X117975500Y-55988542D01*
X129549500Y-55988542D01*
X129549500Y-56211450D01*
X129549501Y-56211466D01*
X129578594Y-56432452D01*
X129578595Y-56432457D01*
X129578596Y-56432463D01*
X129578597Y-56432465D01*
X129636290Y-56647780D01*
X129636293Y-56647790D01*
X129721593Y-56853722D01*
X129721595Y-56853726D01*
X129833052Y-57046774D01*
X129833057Y-57046780D01*
X129833058Y-57046782D01*
X129968751Y-57223622D01*
X129968757Y-57223629D01*
X130126370Y-57381242D01*
X130126376Y-57381247D01*
X130303226Y-57516948D01*
X130496274Y-57628405D01*
X130702219Y-57713710D01*
X130917537Y-57771404D01*
X131138543Y-57800500D01*
X131138550Y-57800500D01*
X131361450Y-57800500D01*
X131361457Y-57800500D01*
X131582463Y-57771404D01*
X131797781Y-57713710D01*
X132003726Y-57628405D01*
X132196774Y-57516948D01*
X132373624Y-57381247D01*
X132531247Y-57223624D01*
X132666948Y-57046774D01*
X132778405Y-56853726D01*
X132863710Y-56647781D01*
X132921404Y-56432463D01*
X132950500Y-56211457D01*
X132950500Y-55988543D01*
X132921404Y-55767537D01*
X132863710Y-55552219D01*
X132778405Y-55346274D01*
X132666948Y-55153226D01*
X132531247Y-54976376D01*
X132531242Y-54976370D01*
X132373629Y-54818757D01*
X132373622Y-54818751D01*
X132196782Y-54683058D01*
X132196780Y-54683057D01*
X132196774Y-54683052D01*
X132003726Y-54571595D01*
X132003722Y-54571593D01*
X131797790Y-54486293D01*
X131797783Y-54486291D01*
X131797781Y-54486290D01*
X131582463Y-54428596D01*
X131582457Y-54428595D01*
X131582452Y-54428594D01*
X131361466Y-54399501D01*
X131361463Y-54399500D01*
X131361457Y-54399500D01*
X131138543Y-54399500D01*
X131138537Y-54399500D01*
X131138533Y-54399501D01*
X130917547Y-54428594D01*
X130917540Y-54428595D01*
X130917537Y-54428596D01*
X130702219Y-54486290D01*
X130702209Y-54486293D01*
X130496277Y-54571593D01*
X130496273Y-54571595D01*
X130303226Y-54683052D01*
X130303217Y-54683058D01*
X130126377Y-54818751D01*
X130126370Y-54818757D01*
X129968757Y-54976370D01*
X129968751Y-54976377D01*
X129833058Y-55153217D01*
X129833052Y-55153226D01*
X129721595Y-55346273D01*
X129721593Y-55346277D01*
X129636293Y-55552209D01*
X129636290Y-55552219D01*
X129578597Y-55767534D01*
X129578594Y-55767547D01*
X129551348Y-55974505D01*
X129549500Y-55988542D01*
X117975500Y-55988542D01*
X117975500Y-54054082D01*
X117945918Y-54024500D01*
X114545918Y-54024500D01*
X114504082Y-54024500D01*
X114504081Y-54024500D01*
X114474500Y-54054081D01*
X98925499Y-54054081D01*
X98895918Y-54024500D01*
X95495918Y-54024500D01*
X95454082Y-54024500D01*
X95454081Y-54024500D01*
X95424500Y-54054081D01*
X79875499Y-54054081D01*
X79845918Y-54024500D01*
X76445918Y-54024500D01*
X76404082Y-54024500D01*
X76404081Y-54024500D01*
X76374500Y-54054081D01*
X60825499Y-54054081D01*
X60795918Y-54024500D01*
X57395918Y-54024500D01*
X57354082Y-54024500D01*
X57354081Y-54024500D01*
X57324500Y-54054081D01*
X41775499Y-54054081D01*
X41745918Y-54024500D01*
X38345918Y-54024500D01*
X38304082Y-54024500D01*
X38304081Y-54024500D01*
X38274500Y-54054081D01*
X20050500Y-54054081D01*
X20050500Y-49764225D01*
X23999500Y-49764225D01*
X23999500Y-50000420D01*
X24036446Y-50233691D01*
X24109433Y-50458319D01*
X24196958Y-50630095D01*
X24216657Y-50668756D01*
X24355483Y-50859833D01*
X24522490Y-51026840D01*
X24713567Y-51165666D01*
X24812991Y-51216325D01*
X24924003Y-51272889D01*
X24924005Y-51272889D01*
X24924008Y-51272891D01*
X24990003Y-51294334D01*
X25148631Y-51345876D01*
X25381903Y-51382823D01*
X25381908Y-51382823D01*
X25618097Y-51382823D01*
X25851368Y-51345876D01*
X26075992Y-51272891D01*
X26286433Y-51165666D01*
X26477510Y-51026840D01*
X26644517Y-50859833D01*
X26783343Y-50668756D01*
X26890568Y-50458315D01*
X26963553Y-50233691D01*
X27000500Y-50000420D01*
X27000500Y-49952486D01*
X37799500Y-49952486D01*
X37799500Y-50247513D01*
X37807327Y-50306961D01*
X37838007Y-50539993D01*
X37838008Y-50539995D01*
X37914361Y-50824951D01*
X37914364Y-50824961D01*
X38027254Y-51097500D01*
X38027258Y-51097510D01*
X38174761Y-51352993D01*
X38354352Y-51587040D01*
X38354358Y-51587047D01*
X38562952Y-51795641D01*
X38562959Y-51795647D01*
X38797006Y-51975238D01*
X39052489Y-52122741D01*
X39052490Y-52122741D01*
X39052493Y-52122743D01*
X39325048Y-52235639D01*
X39610007Y-52311993D01*
X39902494Y-52350500D01*
X39902501Y-52350500D01*
X40197499Y-52350500D01*
X40197506Y-52350500D01*
X40489993Y-52311993D01*
X40774952Y-52235639D01*
X41047507Y-52122743D01*
X41302994Y-51975238D01*
X41537042Y-51795646D01*
X41745646Y-51587042D01*
X41925238Y-51352994D01*
X42072743Y-51097507D01*
X42185639Y-50824952D01*
X42261993Y-50539993D01*
X42300500Y-50247506D01*
X42300500Y-49952494D01*
X42300499Y-49952486D01*
X56849500Y-49952486D01*
X56849500Y-50247513D01*
X56857327Y-50306961D01*
X56888007Y-50539993D01*
X56888008Y-50539995D01*
X56964361Y-50824951D01*
X56964364Y-50824961D01*
X57077254Y-51097500D01*
X57077258Y-51097510D01*
X57224761Y-51352993D01*
X57404352Y-51587040D01*
X57404358Y-51587047D01*
X57612952Y-51795641D01*
X57612959Y-51795647D01*
X57847006Y-51975238D01*
X58102489Y-52122741D01*
X58102490Y-52122741D01*
X58102493Y-52122743D01*
X58375048Y-52235639D01*
X58660007Y-52311993D01*
X58952494Y-52350500D01*
X58952501Y-52350500D01*
X59247499Y-52350500D01*
X59247506Y-52350500D01*
X59539993Y-52311993D01*
X59824952Y-52235639D01*
X60097507Y-52122743D01*
X60352994Y-51975238D01*
X60587042Y-51795646D01*
X60795646Y-51587042D01*
X60975238Y-51352994D01*
X61122743Y-51097507D01*
X61235639Y-50824952D01*
X61311993Y-50539993D01*
X61350500Y-50247506D01*
X61350500Y-49952494D01*
X61350499Y-49952486D01*
X75899500Y-49952486D01*
X75899500Y-50247513D01*
X75907327Y-50306961D01*
X75938007Y-50539993D01*
X75938008Y-50539995D01*
X76014361Y-50824951D01*
X76014364Y-50824961D01*
X76127254Y-51097500D01*
X76127258Y-51097510D01*
X76274761Y-51352993D01*
X76454352Y-51587040D01*
X76454358Y-51587047D01*
X76662952Y-51795641D01*
X76662959Y-51795647D01*
X76897006Y-51975238D01*
X77152489Y-52122741D01*
X77152490Y-52122741D01*
X77152493Y-52122743D01*
X77425048Y-52235639D01*
X77710007Y-52311993D01*
X78002494Y-52350500D01*
X78002501Y-52350500D01*
X78297499Y-52350500D01*
X78297506Y-52350500D01*
X78589993Y-52311993D01*
X78874952Y-52235639D01*
X79147507Y-52122743D01*
X79402994Y-51975238D01*
X79637042Y-51795646D01*
X79845646Y-51587042D01*
X80025238Y-51352994D01*
X80172743Y-51097507D01*
X80285639Y-50824952D01*
X80361993Y-50539993D01*
X80400500Y-50247506D01*
X80400500Y-49952494D01*
X80400499Y-49952486D01*
X94949500Y-49952486D01*
X94949500Y-50247513D01*
X94957327Y-50306961D01*
X94988007Y-50539993D01*
X94988008Y-50539995D01*
X95064361Y-50824951D01*
X95064364Y-50824961D01*
X95177254Y-51097500D01*
X95177258Y-51097510D01*
X95324761Y-51352993D01*
X95504352Y-51587040D01*
X95504358Y-51587047D01*
X95712952Y-51795641D01*
X95712959Y-51795647D01*
X95947006Y-51975238D01*
X96202489Y-52122741D01*
X96202490Y-52122741D01*
X96202493Y-52122743D01*
X96475048Y-52235639D01*
X96760007Y-52311993D01*
X97052494Y-52350500D01*
X97052501Y-52350500D01*
X97347499Y-52350500D01*
X97347506Y-52350500D01*
X97639993Y-52311993D01*
X97924952Y-52235639D01*
X98197507Y-52122743D01*
X98452994Y-51975238D01*
X98687042Y-51795646D01*
X98895646Y-51587042D01*
X99075238Y-51352994D01*
X99222743Y-51097507D01*
X99335639Y-50824952D01*
X99411993Y-50539993D01*
X99450500Y-50247506D01*
X99450500Y-49952494D01*
X99450499Y-49952486D01*
X113999500Y-49952486D01*
X113999500Y-50247513D01*
X114007327Y-50306961D01*
X114038007Y-50539993D01*
X114038008Y-50539995D01*
X114114361Y-50824951D01*
X114114364Y-50824961D01*
X114227254Y-51097500D01*
X114227258Y-51097510D01*
X114374761Y-51352993D01*
X114554352Y-51587040D01*
X114554358Y-51587047D01*
X114762952Y-51795641D01*
X114762959Y-51795647D01*
X114997006Y-51975238D01*
X115252489Y-52122741D01*
X115252490Y-52122741D01*
X115252493Y-52122743D01*
X115525048Y-52235639D01*
X115810007Y-52311993D01*
X116102494Y-52350500D01*
X116102501Y-52350500D01*
X116397499Y-52350500D01*
X116397506Y-52350500D01*
X116689993Y-52311993D01*
X116974952Y-52235639D01*
X117247507Y-52122743D01*
X117502994Y-51975238D01*
X117737042Y-51795646D01*
X117945646Y-51587042D01*
X118125238Y-51352994D01*
X118272743Y-51097507D01*
X118385639Y-50824952D01*
X118461993Y-50539993D01*
X118500500Y-50247506D01*
X118500500Y-49952494D01*
X118461993Y-49660007D01*
X118385639Y-49375048D01*
X118272743Y-49102493D01*
X118268576Y-49095276D01*
X118125238Y-48847006D01*
X117945647Y-48612959D01*
X117945641Y-48612952D01*
X117737047Y-48404358D01*
X117737040Y-48404352D01*
X117502993Y-48224761D01*
X117247510Y-48077258D01*
X117247500Y-48077254D01*
X116974961Y-47964364D01*
X116974954Y-47964362D01*
X116974952Y-47964361D01*
X116689993Y-47888007D01*
X116641113Y-47881571D01*
X116397513Y-47849500D01*
X116397506Y-47849500D01*
X116102494Y-47849500D01*
X116102486Y-47849500D01*
X115824085Y-47886153D01*
X115810007Y-47888007D01*
X115635428Y-47934785D01*
X115525048Y-47964361D01*
X115525038Y-47964364D01*
X115252499Y-48077254D01*
X115252489Y-48077258D01*
X114997006Y-48224761D01*
X114762959Y-48404352D01*
X114762952Y-48404358D01*
X114554358Y-48612952D01*
X114554352Y-48612959D01*
X114374761Y-48847006D01*
X114227258Y-49102489D01*
X114227254Y-49102499D01*
X114114364Y-49375038D01*
X114114361Y-49375048D01*
X114052269Y-49606782D01*
X114038008Y-49660004D01*
X114038006Y-49660015D01*
X113999500Y-49952486D01*
X99450499Y-49952486D01*
X99411993Y-49660007D01*
X99335639Y-49375048D01*
X99222743Y-49102493D01*
X99218576Y-49095276D01*
X99075238Y-48847006D01*
X98895647Y-48612959D01*
X98895641Y-48612952D01*
X98687047Y-48404358D01*
X98687040Y-48404352D01*
X98452993Y-48224761D01*
X98197510Y-48077258D01*
X98197500Y-48077254D01*
X97924961Y-47964364D01*
X97924954Y-47964362D01*
X97924952Y-47964361D01*
X97639993Y-47888007D01*
X97591113Y-47881571D01*
X97347513Y-47849500D01*
X97347506Y-47849500D01*
X97052494Y-47849500D01*
X97052486Y-47849500D01*
X96774085Y-47886153D01*
X96760007Y-47888007D01*
X96585428Y-47934785D01*
X96475048Y-47964361D01*
X96475038Y-47964364D01*
X96202499Y-48077254D01*
X96202489Y-48077258D01*
X95947006Y-48224761D01*
X95712959Y-48404352D01*
X95712952Y-48404358D01*
X95504358Y-48612952D01*
X95504352Y-48612959D01*
X95324761Y-48847006D01*
X95177258Y-49102489D01*
X95177254Y-49102499D01*
X95064364Y-49375038D01*
X95064361Y-49375048D01*
X95002269Y-49606782D01*
X94988008Y-49660004D01*
X94988006Y-49660015D01*
X94949500Y-49952486D01*
X80400499Y-49952486D01*
X80361993Y-49660007D01*
X80285639Y-49375048D01*
X80172743Y-49102493D01*
X80168576Y-49095276D01*
X80025238Y-48847006D01*
X79845647Y-48612959D01*
X79845641Y-48612952D01*
X79637047Y-48404358D01*
X79637040Y-48404352D01*
X79402993Y-48224761D01*
X79147510Y-48077258D01*
X79147500Y-48077254D01*
X78874961Y-47964364D01*
X78874954Y-47964362D01*
X78874952Y-47964361D01*
X78589993Y-47888007D01*
X78541113Y-47881571D01*
X78297513Y-47849500D01*
X78297506Y-47849500D01*
X78002494Y-47849500D01*
X78002486Y-47849500D01*
X77724085Y-47886153D01*
X77710007Y-47888007D01*
X77535428Y-47934785D01*
X77425048Y-47964361D01*
X77425038Y-47964364D01*
X77152499Y-48077254D01*
X77152489Y-48077258D01*
X76897006Y-48224761D01*
X76662959Y-48404352D01*
X76662952Y-48404358D01*
X76454358Y-48612952D01*
X76454352Y-48612959D01*
X76274761Y-48847006D01*
X76127258Y-49102489D01*
X76127254Y-49102499D01*
X76014364Y-49375038D01*
X76014361Y-49375048D01*
X75952269Y-49606782D01*
X75938008Y-49660004D01*
X75938006Y-49660015D01*
X75899500Y-49952486D01*
X61350499Y-49952486D01*
X61311993Y-49660007D01*
X61235639Y-49375048D01*
X61122743Y-49102493D01*
X61118576Y-49095276D01*
X60975238Y-48847006D01*
X60795647Y-48612959D01*
X60795641Y-48612952D01*
X60587047Y-48404358D01*
X60587040Y-48404352D01*
X60352993Y-48224761D01*
X60097510Y-48077258D01*
X60097500Y-48077254D01*
X59824961Y-47964364D01*
X59824954Y-47964362D01*
X59824952Y-47964361D01*
X59539993Y-47888007D01*
X59491113Y-47881571D01*
X59247513Y-47849500D01*
X59247506Y-47849500D01*
X58952494Y-47849500D01*
X58952486Y-47849500D01*
X58674085Y-47886153D01*
X58660007Y-47888007D01*
X58485428Y-47934785D01*
X58375048Y-47964361D01*
X58375038Y-47964364D01*
X58102499Y-48077254D01*
X58102489Y-48077258D01*
X57847006Y-48224761D01*
X57612959Y-48404352D01*
X57612952Y-48404358D01*
X57404358Y-48612952D01*
X57404352Y-48612959D01*
X57224761Y-48847006D01*
X57077258Y-49102489D01*
X57077254Y-49102499D01*
X56964364Y-49375038D01*
X56964361Y-49375048D01*
X56902269Y-49606782D01*
X56888008Y-49660004D01*
X56888006Y-49660015D01*
X56849500Y-49952486D01*
X42300499Y-49952486D01*
X42261993Y-49660007D01*
X42185639Y-49375048D01*
X42072743Y-49102493D01*
X42068576Y-49095276D01*
X41925238Y-48847006D01*
X41745647Y-48612959D01*
X41745641Y-48612952D01*
X41537047Y-48404358D01*
X41537040Y-48404352D01*
X41302993Y-48224761D01*
X41047510Y-48077258D01*
X41047500Y-48077254D01*
X40774961Y-47964364D01*
X40774954Y-47964362D01*
X40774952Y-47964361D01*
X40489993Y-47888007D01*
X40441113Y-47881571D01*
X40197513Y-47849500D01*
X40197506Y-47849500D01*
X39902494Y-47849500D01*
X39902486Y-47849500D01*
X39624085Y-47886153D01*
X39610007Y-47888007D01*
X39435428Y-47934785D01*
X39325048Y-47964361D01*
X39325038Y-47964364D01*
X39052499Y-48077254D01*
X39052489Y-48077258D01*
X38797006Y-48224761D01*
X38562959Y-48404352D01*
X38562952Y-48404358D01*
X38354358Y-48612952D01*
X38354352Y-48612959D01*
X38174761Y-48847006D01*
X38027258Y-49102489D01*
X38027254Y-49102499D01*
X37914364Y-49375038D01*
X37914361Y-49375048D01*
X37852269Y-49606782D01*
X37838008Y-49660004D01*
X37838006Y-49660015D01*
X37799500Y-49952486D01*
X27000500Y-49952486D01*
X27000500Y-49764225D01*
X26963553Y-49530954D01*
X26924323Y-49410218D01*
X26890568Y-49306331D01*
X26890566Y-49306328D01*
X26890566Y-49306326D01*
X26796183Y-49121090D01*
X26783343Y-49095890D01*
X26644517Y-48904813D01*
X26477510Y-48737806D01*
X26286433Y-48598980D01*
X26075996Y-48491756D01*
X25851368Y-48418769D01*
X25618097Y-48381823D01*
X25618092Y-48381823D01*
X25381908Y-48381823D01*
X25381903Y-48381823D01*
X25148631Y-48418769D01*
X24924003Y-48491756D01*
X24713566Y-48598980D01*
X24610892Y-48673578D01*
X24522490Y-48737806D01*
X24522488Y-48737808D01*
X24522487Y-48737808D01*
X24355485Y-48904810D01*
X24355485Y-48904811D01*
X24355483Y-48904813D01*
X24333562Y-48934985D01*
X24216657Y-49095889D01*
X24109433Y-49306326D01*
X24036446Y-49530954D01*
X23999500Y-49764225D01*
X20050500Y-49764225D01*
X20050500Y-47434038D01*
X34639500Y-47434038D01*
X34639500Y-47685961D01*
X34678910Y-47934785D01*
X34756760Y-48174383D01*
X34871132Y-48398848D01*
X35019201Y-48602649D01*
X35019205Y-48602654D01*
X35197345Y-48780794D01*
X35197350Y-48780798D01*
X35368039Y-48904810D01*
X35401155Y-48928870D01*
X35544184Y-49001747D01*
X35625616Y-49043239D01*
X35625618Y-49043239D01*
X35625621Y-49043241D01*
X35865215Y-49121090D01*
X36114038Y-49160500D01*
X36114039Y-49160500D01*
X36365961Y-49160500D01*
X36365962Y-49160500D01*
X36614785Y-49121090D01*
X36854379Y-49043241D01*
X37078845Y-48928870D01*
X37282656Y-48780793D01*
X37460793Y-48602656D01*
X37608870Y-48398845D01*
X37723241Y-48174379D01*
X37801090Y-47934785D01*
X37840500Y-47685962D01*
X37840500Y-47434038D01*
X53689500Y-47434038D01*
X53689500Y-47685961D01*
X53728910Y-47934785D01*
X53806760Y-48174383D01*
X53921132Y-48398848D01*
X54069201Y-48602649D01*
X54069205Y-48602654D01*
X54247345Y-48780794D01*
X54247350Y-48780798D01*
X54418039Y-48904810D01*
X54451155Y-48928870D01*
X54594184Y-49001747D01*
X54675616Y-49043239D01*
X54675618Y-49043239D01*
X54675621Y-49043241D01*
X54915215Y-49121090D01*
X55164038Y-49160500D01*
X55164039Y-49160500D01*
X55415961Y-49160500D01*
X55415962Y-49160500D01*
X55664785Y-49121090D01*
X55904379Y-49043241D01*
X56128845Y-48928870D01*
X56332656Y-48780793D01*
X56510793Y-48602656D01*
X56658870Y-48398845D01*
X56773241Y-48174379D01*
X56851090Y-47934785D01*
X56890500Y-47685962D01*
X56890500Y-47434038D01*
X72739500Y-47434038D01*
X72739500Y-47685961D01*
X72778910Y-47934785D01*
X72856760Y-48174383D01*
X72971132Y-48398848D01*
X73119201Y-48602649D01*
X73119205Y-48602654D01*
X73297345Y-48780794D01*
X73297350Y-48780798D01*
X73468039Y-48904810D01*
X73501155Y-48928870D01*
X73644184Y-49001747D01*
X73725616Y-49043239D01*
X73725618Y-49043239D01*
X73725621Y-49043241D01*
X73965215Y-49121090D01*
X74214038Y-49160500D01*
X74214039Y-49160500D01*
X74465961Y-49160500D01*
X74465962Y-49160500D01*
X74714785Y-49121090D01*
X74954379Y-49043241D01*
X75178845Y-48928870D01*
X75382656Y-48780793D01*
X75560793Y-48602656D01*
X75708870Y-48398845D01*
X75823241Y-48174379D01*
X75901090Y-47934785D01*
X75940500Y-47685962D01*
X75940500Y-47434038D01*
X91789500Y-47434038D01*
X91789500Y-47685961D01*
X91828910Y-47934785D01*
X91906760Y-48174383D01*
X92021132Y-48398848D01*
X92169201Y-48602649D01*
X92169205Y-48602654D01*
X92347345Y-48780794D01*
X92347350Y-48780798D01*
X92518039Y-48904810D01*
X92551155Y-48928870D01*
X92694184Y-49001747D01*
X92775616Y-49043239D01*
X92775618Y-49043239D01*
X92775621Y-49043241D01*
X93015215Y-49121090D01*
X93264038Y-49160500D01*
X93264039Y-49160500D01*
X93515961Y-49160500D01*
X93515962Y-49160500D01*
X93764785Y-49121090D01*
X94004379Y-49043241D01*
X94228845Y-48928870D01*
X94432656Y-48780793D01*
X94610793Y-48602656D01*
X94758870Y-48398845D01*
X94873241Y-48174379D01*
X94951090Y-47934785D01*
X94990500Y-47685962D01*
X94990500Y-47434038D01*
X110839500Y-47434038D01*
X110839500Y-47685961D01*
X110878910Y-47934785D01*
X110956760Y-48174383D01*
X111071132Y-48398848D01*
X111219201Y-48602649D01*
X111219205Y-48602654D01*
X111397345Y-48780794D01*
X111397350Y-48780798D01*
X111568039Y-48904810D01*
X111601155Y-48928870D01*
X111744184Y-49001747D01*
X111825616Y-49043239D01*
X111825618Y-49043239D01*
X111825621Y-49043241D01*
X112065215Y-49121090D01*
X112314038Y-49160500D01*
X112314039Y-49160500D01*
X112565961Y-49160500D01*
X112565962Y-49160500D01*
X112814785Y-49121090D01*
X113054379Y-49043241D01*
X113278845Y-48928870D01*
X113482656Y-48780793D01*
X113660793Y-48602656D01*
X113808870Y-48398845D01*
X113923241Y-48174379D01*
X114001090Y-47934785D01*
X114040500Y-47685962D01*
X114040500Y-47434038D01*
X114001090Y-47185215D01*
X113923241Y-46945621D01*
X113923239Y-46945618D01*
X113923239Y-46945616D01*
X113881747Y-46864184D01*
X113808870Y-46721155D01*
X113707107Y-46581090D01*
X113660798Y-46517350D01*
X113660794Y-46517345D01*
X113482654Y-46339205D01*
X113482649Y-46339201D01*
X113278848Y-46191132D01*
X113278847Y-46191131D01*
X113278845Y-46191130D01*
X113208747Y-46155413D01*
X113054383Y-46076760D01*
X112814785Y-45998910D01*
X112565962Y-45959500D01*
X112314038Y-45959500D01*
X112189626Y-45979205D01*
X112065214Y-45998910D01*
X111825616Y-46076760D01*
X111601151Y-46191132D01*
X111397350Y-46339201D01*
X111397345Y-46339205D01*
X111219205Y-46517345D01*
X111219201Y-46517350D01*
X111071132Y-46721151D01*
X110956760Y-46945616D01*
X110878910Y-47185214D01*
X110839500Y-47434038D01*
X94990500Y-47434038D01*
X94951090Y-47185215D01*
X94873241Y-46945621D01*
X94873239Y-46945618D01*
X94873239Y-46945616D01*
X94831747Y-46864184D01*
X94758870Y-46721155D01*
X94657107Y-46581090D01*
X94610798Y-46517350D01*
X94610794Y-46517345D01*
X94432654Y-46339205D01*
X94432649Y-46339201D01*
X94228848Y-46191132D01*
X94228847Y-46191131D01*
X94228845Y-46191130D01*
X94158747Y-46155413D01*
X94004383Y-46076760D01*
X93764785Y-45998910D01*
X93515962Y-45959500D01*
X93264038Y-45959500D01*
X93139626Y-45979205D01*
X93015214Y-45998910D01*
X92775616Y-46076760D01*
X92551151Y-46191132D01*
X92347350Y-46339201D01*
X92347345Y-46339205D01*
X92169205Y-46517345D01*
X92169201Y-46517350D01*
X92021132Y-46721151D01*
X91906760Y-46945616D01*
X91828910Y-47185214D01*
X91789500Y-47434038D01*
X75940500Y-47434038D01*
X75901090Y-47185215D01*
X75823241Y-46945621D01*
X75823239Y-46945618D01*
X75823239Y-46945616D01*
X75781747Y-46864184D01*
X75708870Y-46721155D01*
X75607107Y-46581090D01*
X75560798Y-46517350D01*
X75560794Y-46517345D01*
X75382654Y-46339205D01*
X75382649Y-46339201D01*
X75178848Y-46191132D01*
X75178847Y-46191131D01*
X75178845Y-46191130D01*
X75108747Y-46155413D01*
X74954383Y-46076760D01*
X74714785Y-45998910D01*
X74465962Y-45959500D01*
X74214038Y-45959500D01*
X74089626Y-45979205D01*
X73965214Y-45998910D01*
X73725616Y-46076760D01*
X73501151Y-46191132D01*
X73297350Y-46339201D01*
X73297345Y-46339205D01*
X73119205Y-46517345D01*
X73119201Y-46517350D01*
X72971132Y-46721151D01*
X72856760Y-46945616D01*
X72778910Y-47185214D01*
X72739500Y-47434038D01*
X56890500Y-47434038D01*
X56851090Y-47185215D01*
X56773241Y-46945621D01*
X56773239Y-46945618D01*
X56773239Y-46945616D01*
X56731747Y-46864184D01*
X56658870Y-46721155D01*
X56557107Y-46581090D01*
X56510798Y-46517350D01*
X56510794Y-46517345D01*
X56332654Y-46339205D01*
X56332649Y-46339201D01*
X56128848Y-46191132D01*
X56128847Y-46191131D01*
X56128845Y-46191130D01*
X56058747Y-46155413D01*
X55904383Y-46076760D01*
X55664785Y-45998910D01*
X55415962Y-45959500D01*
X55164038Y-45959500D01*
X55039626Y-45979205D01*
X54915214Y-45998910D01*
X54675616Y-46076760D01*
X54451151Y-46191132D01*
X54247350Y-46339201D01*
X54247345Y-46339205D01*
X54069205Y-46517345D01*
X54069201Y-46517350D01*
X53921132Y-46721151D01*
X53806760Y-46945616D01*
X53728910Y-47185214D01*
X53689500Y-47434038D01*
X37840500Y-47434038D01*
X37801090Y-47185215D01*
X37723241Y-46945621D01*
X37723239Y-46945618D01*
X37723239Y-46945616D01*
X37681747Y-46864184D01*
X37608870Y-46721155D01*
X37507107Y-46581090D01*
X37460798Y-46517350D01*
X37460794Y-46517345D01*
X37282654Y-46339205D01*
X37282649Y-46339201D01*
X37078848Y-46191132D01*
X37078847Y-46191131D01*
X37078845Y-46191130D01*
X37008747Y-46155413D01*
X36854383Y-46076760D01*
X36614785Y-45998910D01*
X36365962Y-45959500D01*
X36114038Y-45959500D01*
X35989626Y-45979205D01*
X35865214Y-45998910D01*
X35625616Y-46076760D01*
X35401151Y-46191132D01*
X35197350Y-46339201D01*
X35197345Y-46339205D01*
X35019205Y-46517345D01*
X35019201Y-46517350D01*
X34871132Y-46721151D01*
X34756760Y-46945616D01*
X34678910Y-47185214D01*
X34639500Y-47434038D01*
X20050500Y-47434038D01*
X20050500Y-44082336D01*
X24000000Y-44082336D01*
X24000000Y-44632323D01*
X25066988Y-44632323D01*
X25034075Y-44689330D01*
X25000000Y-44816497D01*
X25000000Y-44948149D01*
X25034075Y-45075316D01*
X25066988Y-45132323D01*
X24000001Y-45132323D01*
X24000001Y-45682309D01*
X24010494Y-45785020D01*
X24065641Y-45951442D01*
X24065643Y-45951447D01*
X24157684Y-46100668D01*
X24281654Y-46224638D01*
X24430875Y-46316679D01*
X24430880Y-46316681D01*
X24597302Y-46371828D01*
X24597309Y-46371829D01*
X24700019Y-46382322D01*
X25249999Y-46382322D01*
X25250000Y-46382321D01*
X25250000Y-45315335D01*
X25307007Y-45348248D01*
X25434174Y-45382323D01*
X25565826Y-45382323D01*
X25692993Y-45348248D01*
X25750000Y-45315335D01*
X25750000Y-46382322D01*
X26299972Y-46382322D01*
X26299986Y-46382321D01*
X26402697Y-46371828D01*
X26569119Y-46316681D01*
X26569124Y-46316679D01*
X26718345Y-46224638D01*
X26842315Y-46100668D01*
X26934356Y-45951447D01*
X26934358Y-45951442D01*
X26989505Y-45785020D01*
X26989506Y-45785013D01*
X26999999Y-45682309D01*
X27000000Y-45682296D01*
X27000000Y-45132323D01*
X25933012Y-45132323D01*
X25965925Y-45075316D01*
X26000000Y-44948149D01*
X26000000Y-44816497D01*
X25965925Y-44689330D01*
X25933012Y-44632323D01*
X26999999Y-44632323D01*
X26999999Y-44082351D01*
X26999998Y-44082336D01*
X26989505Y-43979625D01*
X26934358Y-43813203D01*
X26934356Y-43813198D01*
X26842315Y-43663977D01*
X26718345Y-43540007D01*
X26569124Y-43447966D01*
X26569119Y-43447964D01*
X26402697Y-43392817D01*
X26402690Y-43392816D01*
X26299986Y-43382323D01*
X25750000Y-43382323D01*
X25750000Y-44449311D01*
X25692993Y-44416398D01*
X25565826Y-44382323D01*
X25434174Y-44382323D01*
X25307007Y-44416398D01*
X25250000Y-44449311D01*
X25250000Y-43382323D01*
X24700028Y-43382323D01*
X24700012Y-43382324D01*
X24597302Y-43392817D01*
X24430880Y-43447964D01*
X24430875Y-43447966D01*
X24281654Y-43540007D01*
X24157684Y-43663977D01*
X24065643Y-43813198D01*
X24065641Y-43813203D01*
X24010494Y-43979625D01*
X24010493Y-43979632D01*
X24000000Y-44082336D01*
X20050500Y-44082336D01*
X20050500Y-31099983D01*
X23749500Y-31099983D01*
X23749500Y-32400001D01*
X23749501Y-32400018D01*
X23760000Y-32502796D01*
X23760001Y-32502799D01*
X23815185Y-32669331D01*
X23815187Y-32669336D01*
X23907289Y-32818657D01*
X24031344Y-32942712D01*
X24186120Y-33038178D01*
X24232845Y-33090126D01*
X24244068Y-33159088D01*
X24216224Y-33223171D01*
X24208706Y-33231398D01*
X24069889Y-33370215D01*
X23944951Y-33542179D01*
X23848444Y-33731585D01*
X23848443Y-33731587D01*
X23848443Y-33731588D01*
X23830264Y-33787537D01*
X23782753Y-33933760D01*
X23749500Y-34143713D01*
X23749500Y-34356286D01*
X23782753Y-34566239D01*
X23848444Y-34768414D01*
X23944951Y-34957820D01*
X24069890Y-35129786D01*
X24220209Y-35280105D01*
X24220214Y-35280109D01*
X24385218Y-35399991D01*
X24427884Y-35455320D01*
X24433863Y-35524934D01*
X24401258Y-35586729D01*
X24385218Y-35600627D01*
X24220540Y-35720272D01*
X24220535Y-35720276D01*
X24070276Y-35870535D01*
X24070272Y-35870540D01*
X23945379Y-36042442D01*
X23848904Y-36231782D01*
X23783242Y-36433870D01*
X23783242Y-36433873D01*
X23772769Y-36500000D01*
X24820854Y-36500000D01*
X24782370Y-36566657D01*
X24750000Y-36687465D01*
X24750000Y-36812535D01*
X24782370Y-36933343D01*
X24820854Y-37000000D01*
X23772769Y-37000000D01*
X23783242Y-37066126D01*
X23783242Y-37066129D01*
X23848904Y-37268217D01*
X23945379Y-37457557D01*
X24070272Y-37629459D01*
X24070276Y-37629464D01*
X24220535Y-37779723D01*
X24220540Y-37779727D01*
X24392442Y-37904620D01*
X24581782Y-38001095D01*
X24783872Y-38066757D01*
X24975000Y-38097029D01*
X24975000Y-37154145D01*
X25041657Y-37192630D01*
X25162465Y-37225000D01*
X25287535Y-37225000D01*
X25408343Y-37192630D01*
X25475000Y-37154145D01*
X25475000Y-38097028D01*
X25666127Y-38066757D01*
X25868217Y-38001095D01*
X26057557Y-37904620D01*
X26229459Y-37779727D01*
X26229464Y-37779723D01*
X26379723Y-37629464D01*
X26379727Y-37629459D01*
X26504620Y-37457557D01*
X26601095Y-37268217D01*
X26666757Y-37066129D01*
X26666757Y-37066126D01*
X26677231Y-37000000D01*
X25629146Y-37000000D01*
X25667630Y-36933343D01*
X25700000Y-36812535D01*
X25700000Y-36687465D01*
X25667630Y-36566657D01*
X25629146Y-36500000D01*
X26677231Y-36500000D01*
X26666757Y-36433873D01*
X26666757Y-36433870D01*
X26601095Y-36231782D01*
X26504620Y-36042442D01*
X26379727Y-35870540D01*
X26379723Y-35870535D01*
X26229464Y-35720276D01*
X26229459Y-35720272D01*
X26064781Y-35600627D01*
X26022115Y-35545297D01*
X26016136Y-35475684D01*
X26048741Y-35413889D01*
X26064776Y-35399994D01*
X26229792Y-35280104D01*
X26380104Y-35129792D01*
X26380106Y-35129788D01*
X26380109Y-35129786D01*
X26471438Y-35004081D01*
X38274500Y-35004081D01*
X38274500Y-35004082D01*
X38274500Y-38045918D01*
X38304082Y-38075500D01*
X41745918Y-38075500D01*
X41775500Y-38045918D01*
X41775500Y-35004082D01*
X41775499Y-35004081D01*
X57324500Y-35004081D01*
X57324500Y-35004082D01*
X57324500Y-38045918D01*
X57354082Y-38075500D01*
X60795918Y-38075500D01*
X60825500Y-38045918D01*
X60825500Y-35004082D01*
X60825499Y-35004081D01*
X76374500Y-35004081D01*
X76374500Y-35004082D01*
X76374500Y-38045918D01*
X76404082Y-38075500D01*
X79845918Y-38075500D01*
X79875500Y-38045918D01*
X79875500Y-35004082D01*
X79875499Y-35004081D01*
X95424500Y-35004081D01*
X95424500Y-35004082D01*
X95424500Y-38045918D01*
X95454082Y-38075500D01*
X98895918Y-38075500D01*
X98925500Y-38045918D01*
X98925500Y-35004082D01*
X98925499Y-35004081D01*
X114474500Y-35004081D01*
X114474500Y-35004082D01*
X114474500Y-38045918D01*
X114504082Y-38075500D01*
X117945918Y-38075500D01*
X117975500Y-38045918D01*
X117975500Y-35004082D01*
X117945918Y-34974500D01*
X114545918Y-34974500D01*
X114504082Y-34974500D01*
X114504081Y-34974500D01*
X114474500Y-35004081D01*
X98925499Y-35004081D01*
X98895918Y-34974500D01*
X95495918Y-34974500D01*
X95454082Y-34974500D01*
X95454081Y-34974500D01*
X95424500Y-35004081D01*
X79875499Y-35004081D01*
X79845918Y-34974500D01*
X76445918Y-34974500D01*
X76404082Y-34974500D01*
X76404081Y-34974500D01*
X76374500Y-35004081D01*
X60825499Y-35004081D01*
X60795918Y-34974500D01*
X57395918Y-34974500D01*
X57354082Y-34974500D01*
X57354081Y-34974500D01*
X57324500Y-35004081D01*
X41775499Y-35004081D01*
X41745918Y-34974500D01*
X38345918Y-34974500D01*
X38304082Y-34974500D01*
X38304081Y-34974500D01*
X38274500Y-35004081D01*
X26471438Y-35004081D01*
X26505050Y-34957817D01*
X26522728Y-34923123D01*
X26522728Y-34923122D01*
X26531238Y-34906421D01*
X26601557Y-34768412D01*
X26667246Y-34566243D01*
X26700500Y-34356287D01*
X26700500Y-34143713D01*
X26667246Y-33933757D01*
X26601557Y-33731588D01*
X26505051Y-33542184D01*
X26505049Y-33542181D01*
X26505048Y-33542179D01*
X26380109Y-33370213D01*
X26241294Y-33231398D01*
X26207809Y-33170075D01*
X26212793Y-33100383D01*
X26254665Y-33044450D01*
X26263879Y-33038178D01*
X26269331Y-33034814D01*
X26269334Y-33034814D01*
X26418656Y-32942712D01*
X26542712Y-32818656D01*
X26634814Y-32669334D01*
X26689999Y-32502797D01*
X26700500Y-32400009D01*
X26700499Y-31099992D01*
X26689999Y-30997203D01*
X26658613Y-30902486D01*
X37799500Y-30902486D01*
X37799500Y-31197513D01*
X37828340Y-31416569D01*
X37838007Y-31489993D01*
X37911612Y-31764692D01*
X37914361Y-31774951D01*
X37914364Y-31774961D01*
X38027254Y-32047500D01*
X38027258Y-32047510D01*
X38174761Y-32302993D01*
X38354352Y-32537040D01*
X38354358Y-32537047D01*
X38562952Y-32745641D01*
X38562959Y-32745647D01*
X38797006Y-32925238D01*
X39052489Y-33072741D01*
X39052490Y-33072741D01*
X39052493Y-33072743D01*
X39325048Y-33185639D01*
X39610007Y-33261993D01*
X39902494Y-33300500D01*
X39902501Y-33300500D01*
X40197499Y-33300500D01*
X40197506Y-33300500D01*
X40489993Y-33261993D01*
X40774952Y-33185639D01*
X41047507Y-33072743D01*
X41302994Y-32925238D01*
X41537042Y-32745646D01*
X41745646Y-32537042D01*
X41925238Y-32302994D01*
X42072743Y-32047507D01*
X42185639Y-31774952D01*
X42261993Y-31489993D01*
X42300500Y-31197506D01*
X42300500Y-30902494D01*
X42300499Y-30902486D01*
X56849500Y-30902486D01*
X56849500Y-31197513D01*
X56878340Y-31416569D01*
X56888007Y-31489993D01*
X56961612Y-31764692D01*
X56964361Y-31774951D01*
X56964364Y-31774961D01*
X57077254Y-32047500D01*
X57077258Y-32047510D01*
X57224761Y-32302993D01*
X57404352Y-32537040D01*
X57404358Y-32537047D01*
X57612952Y-32745641D01*
X57612959Y-32745647D01*
X57847006Y-32925238D01*
X58102489Y-33072741D01*
X58102490Y-33072741D01*
X58102493Y-33072743D01*
X58375048Y-33185639D01*
X58660007Y-33261993D01*
X58952494Y-33300500D01*
X58952501Y-33300500D01*
X59247499Y-33300500D01*
X59247506Y-33300500D01*
X59539993Y-33261993D01*
X59824952Y-33185639D01*
X60097507Y-33072743D01*
X60352994Y-32925238D01*
X60587042Y-32745646D01*
X60795646Y-32537042D01*
X60975238Y-32302994D01*
X61122743Y-32047507D01*
X61235639Y-31774952D01*
X61311993Y-31489993D01*
X61350500Y-31197506D01*
X61350500Y-30902494D01*
X61350499Y-30902486D01*
X75899500Y-30902486D01*
X75899500Y-31197513D01*
X75928340Y-31416569D01*
X75938007Y-31489993D01*
X76011612Y-31764692D01*
X76014361Y-31774951D01*
X76014364Y-31774961D01*
X76127254Y-32047500D01*
X76127258Y-32047510D01*
X76274761Y-32302993D01*
X76454352Y-32537040D01*
X76454358Y-32537047D01*
X76662952Y-32745641D01*
X76662959Y-32745647D01*
X76897006Y-32925238D01*
X77152489Y-33072741D01*
X77152490Y-33072741D01*
X77152493Y-33072743D01*
X77425048Y-33185639D01*
X77710007Y-33261993D01*
X78002494Y-33300500D01*
X78002501Y-33300500D01*
X78297499Y-33300500D01*
X78297506Y-33300500D01*
X78589993Y-33261993D01*
X78874952Y-33185639D01*
X79147507Y-33072743D01*
X79402994Y-32925238D01*
X79637042Y-32745646D01*
X79845646Y-32537042D01*
X80025238Y-32302994D01*
X80172743Y-32047507D01*
X80285639Y-31774952D01*
X80361993Y-31489993D01*
X80400500Y-31197506D01*
X80400500Y-30902494D01*
X80400499Y-30902486D01*
X94949500Y-30902486D01*
X94949500Y-31197513D01*
X94978340Y-31416569D01*
X94988007Y-31489993D01*
X95061612Y-31764692D01*
X95064361Y-31774951D01*
X95064364Y-31774961D01*
X95177254Y-32047500D01*
X95177258Y-32047510D01*
X95324761Y-32302993D01*
X95504352Y-32537040D01*
X95504358Y-32537047D01*
X95712952Y-32745641D01*
X95712959Y-32745647D01*
X95947006Y-32925238D01*
X96202489Y-33072741D01*
X96202490Y-33072741D01*
X96202493Y-33072743D01*
X96475048Y-33185639D01*
X96760007Y-33261993D01*
X97052494Y-33300500D01*
X97052501Y-33300500D01*
X97347499Y-33300500D01*
X97347506Y-33300500D01*
X97639993Y-33261993D01*
X97924952Y-33185639D01*
X98197507Y-33072743D01*
X98452994Y-32925238D01*
X98687042Y-32745646D01*
X98895646Y-32537042D01*
X99075238Y-32302994D01*
X99222743Y-32047507D01*
X99335639Y-31774952D01*
X99411993Y-31489993D01*
X99450500Y-31197506D01*
X99450500Y-30902494D01*
X99450499Y-30902486D01*
X113999500Y-30902486D01*
X113999500Y-31197513D01*
X114028340Y-31416569D01*
X114038007Y-31489993D01*
X114111612Y-31764692D01*
X114114361Y-31774951D01*
X114114364Y-31774961D01*
X114227254Y-32047500D01*
X114227258Y-32047510D01*
X114374761Y-32302993D01*
X114554352Y-32537040D01*
X114554358Y-32537047D01*
X114762952Y-32745641D01*
X114762959Y-32745647D01*
X114997006Y-32925238D01*
X115252489Y-33072741D01*
X115252490Y-33072741D01*
X115252493Y-33072743D01*
X115525048Y-33185639D01*
X115810007Y-33261993D01*
X116102494Y-33300500D01*
X116102501Y-33300500D01*
X116397499Y-33300500D01*
X116397506Y-33300500D01*
X116689993Y-33261993D01*
X116974952Y-33185639D01*
X117247507Y-33072743D01*
X117502994Y-32925238D01*
X117737042Y-32745646D01*
X117945646Y-32537042D01*
X118125238Y-32302994D01*
X118272743Y-32047507D01*
X118385639Y-31774952D01*
X118461993Y-31489993D01*
X118500500Y-31197506D01*
X118500500Y-30902494D01*
X118461993Y-30610007D01*
X118385639Y-30325048D01*
X118272743Y-30052493D01*
X118231804Y-29981585D01*
X118125238Y-29797006D01*
X117945647Y-29562959D01*
X117945641Y-29562952D01*
X117737047Y-29354358D01*
X117737040Y-29354352D01*
X117502993Y-29174761D01*
X117247510Y-29027258D01*
X117247500Y-29027254D01*
X116974961Y-28914364D01*
X116974954Y-28914362D01*
X116974952Y-28914361D01*
X116689993Y-28838007D01*
X116641113Y-28831571D01*
X116397513Y-28799500D01*
X116397506Y-28799500D01*
X116102494Y-28799500D01*
X116102486Y-28799500D01*
X115824085Y-28836153D01*
X115810007Y-28838007D01*
X115635428Y-28884785D01*
X115525048Y-28914361D01*
X115525038Y-28914364D01*
X115252499Y-29027254D01*
X115252489Y-29027258D01*
X114997006Y-29174761D01*
X114762959Y-29354352D01*
X114762952Y-29354358D01*
X114554358Y-29562952D01*
X114554352Y-29562959D01*
X114374761Y-29797006D01*
X114227258Y-30052489D01*
X114227254Y-30052499D01*
X114114364Y-30325038D01*
X114114361Y-30325048D01*
X114038008Y-30610004D01*
X114038006Y-30610015D01*
X113999500Y-30902486D01*
X99450499Y-30902486D01*
X99411993Y-30610007D01*
X99335639Y-30325048D01*
X99222743Y-30052493D01*
X99181804Y-29981585D01*
X99075238Y-29797006D01*
X98895647Y-29562959D01*
X98895641Y-29562952D01*
X98687047Y-29354358D01*
X98687040Y-29354352D01*
X98452993Y-29174761D01*
X98197510Y-29027258D01*
X98197500Y-29027254D01*
X97924961Y-28914364D01*
X97924954Y-28914362D01*
X97924952Y-28914361D01*
X97639993Y-28838007D01*
X97591113Y-28831571D01*
X97347513Y-28799500D01*
X97347506Y-28799500D01*
X97052494Y-28799500D01*
X97052486Y-28799500D01*
X96774085Y-28836153D01*
X96760007Y-28838007D01*
X96585428Y-28884785D01*
X96475048Y-28914361D01*
X96475038Y-28914364D01*
X96202499Y-29027254D01*
X96202489Y-29027258D01*
X95947006Y-29174761D01*
X95712959Y-29354352D01*
X95712952Y-29354358D01*
X95504358Y-29562952D01*
X95504352Y-29562959D01*
X95324761Y-29797006D01*
X95177258Y-30052489D01*
X95177254Y-30052499D01*
X95064364Y-30325038D01*
X95064361Y-30325048D01*
X94988008Y-30610004D01*
X94988006Y-30610015D01*
X94949500Y-30902486D01*
X80400499Y-30902486D01*
X80361993Y-30610007D01*
X80285639Y-30325048D01*
X80172743Y-30052493D01*
X80131804Y-29981585D01*
X80025238Y-29797006D01*
X79845647Y-29562959D01*
X79845641Y-29562952D01*
X79637047Y-29354358D01*
X79637040Y-29354352D01*
X79402993Y-29174761D01*
X79147510Y-29027258D01*
X79147500Y-29027254D01*
X78874961Y-28914364D01*
X78874954Y-28914362D01*
X78874952Y-28914361D01*
X78589993Y-28838007D01*
X78541113Y-28831571D01*
X78297513Y-28799500D01*
X78297506Y-28799500D01*
X78002494Y-28799500D01*
X78002486Y-28799500D01*
X77724085Y-28836153D01*
X77710007Y-28838007D01*
X77535428Y-28884785D01*
X77425048Y-28914361D01*
X77425038Y-28914364D01*
X77152499Y-29027254D01*
X77152489Y-29027258D01*
X76897006Y-29174761D01*
X76662959Y-29354352D01*
X76662952Y-29354358D01*
X76454358Y-29562952D01*
X76454352Y-29562959D01*
X76274761Y-29797006D01*
X76127258Y-30052489D01*
X76127254Y-30052499D01*
X76014364Y-30325038D01*
X76014361Y-30325048D01*
X75938008Y-30610004D01*
X75938006Y-30610015D01*
X75899500Y-30902486D01*
X61350499Y-30902486D01*
X61311993Y-30610007D01*
X61235639Y-30325048D01*
X61122743Y-30052493D01*
X61081804Y-29981585D01*
X60975238Y-29797006D01*
X60795647Y-29562959D01*
X60795641Y-29562952D01*
X60587047Y-29354358D01*
X60587040Y-29354352D01*
X60352993Y-29174761D01*
X60097510Y-29027258D01*
X60097500Y-29027254D01*
X59824961Y-28914364D01*
X59824954Y-28914362D01*
X59824952Y-28914361D01*
X59539993Y-28838007D01*
X59491113Y-28831571D01*
X59247513Y-28799500D01*
X59247506Y-28799500D01*
X58952494Y-28799500D01*
X58952486Y-28799500D01*
X58674085Y-28836153D01*
X58660007Y-28838007D01*
X58485428Y-28884785D01*
X58375048Y-28914361D01*
X58375038Y-28914364D01*
X58102499Y-29027254D01*
X58102489Y-29027258D01*
X57847006Y-29174761D01*
X57612959Y-29354352D01*
X57612952Y-29354358D01*
X57404358Y-29562952D01*
X57404352Y-29562959D01*
X57224761Y-29797006D01*
X57077258Y-30052489D01*
X57077254Y-30052499D01*
X56964364Y-30325038D01*
X56964361Y-30325048D01*
X56888008Y-30610004D01*
X56888006Y-30610015D01*
X56849500Y-30902486D01*
X42300499Y-30902486D01*
X42261993Y-30610007D01*
X42185639Y-30325048D01*
X42072743Y-30052493D01*
X42031804Y-29981585D01*
X41925238Y-29797006D01*
X41745647Y-29562959D01*
X41745641Y-29562952D01*
X41537047Y-29354358D01*
X41537040Y-29354352D01*
X41302993Y-29174761D01*
X41047510Y-29027258D01*
X41047500Y-29027254D01*
X40774961Y-28914364D01*
X40774954Y-28914362D01*
X40774952Y-28914361D01*
X40489993Y-28838007D01*
X40441113Y-28831571D01*
X40197513Y-28799500D01*
X40197506Y-28799500D01*
X39902494Y-28799500D01*
X39902486Y-28799500D01*
X39624085Y-28836153D01*
X39610007Y-28838007D01*
X39435428Y-28884785D01*
X39325048Y-28914361D01*
X39325038Y-28914364D01*
X39052499Y-29027254D01*
X39052489Y-29027258D01*
X38797006Y-29174761D01*
X38562959Y-29354352D01*
X38562952Y-29354358D01*
X38354358Y-29562952D01*
X38354352Y-29562959D01*
X38174761Y-29797006D01*
X38027258Y-30052489D01*
X38027254Y-30052499D01*
X37914364Y-30325038D01*
X37914361Y-30325048D01*
X37838008Y-30610004D01*
X37838006Y-30610015D01*
X37799500Y-30902486D01*
X26658613Y-30902486D01*
X26634814Y-30830666D01*
X26542712Y-30681344D01*
X26418656Y-30557288D01*
X26269334Y-30465186D01*
X26102797Y-30410001D01*
X26102795Y-30410000D01*
X26000010Y-30399500D01*
X24449998Y-30399500D01*
X24449981Y-30399501D01*
X24347203Y-30410000D01*
X24347200Y-30410001D01*
X24180668Y-30465185D01*
X24180663Y-30465187D01*
X24031342Y-30557289D01*
X23907289Y-30681342D01*
X23815187Y-30830663D01*
X23815185Y-30830668D01*
X23787349Y-30914670D01*
X23760001Y-30997203D01*
X23760001Y-30997204D01*
X23760000Y-30997204D01*
X23749500Y-31099983D01*
X20050500Y-31099983D01*
X20050500Y-28384038D01*
X34639500Y-28384038D01*
X34639500Y-28635961D01*
X34678910Y-28884785D01*
X34756760Y-29124383D01*
X34871132Y-29348848D01*
X35019201Y-29552649D01*
X35019205Y-29552654D01*
X35197345Y-29730794D01*
X35197350Y-29730798D01*
X35374899Y-29859794D01*
X35401155Y-29878870D01*
X35544184Y-29951747D01*
X35625616Y-29993239D01*
X35625618Y-29993239D01*
X35625621Y-29993241D01*
X35865215Y-30071090D01*
X36114038Y-30110500D01*
X36114039Y-30110500D01*
X36365961Y-30110500D01*
X36365962Y-30110500D01*
X36614785Y-30071090D01*
X36854379Y-29993241D01*
X37078845Y-29878870D01*
X37282656Y-29730793D01*
X37460793Y-29552656D01*
X37608870Y-29348845D01*
X37723241Y-29124379D01*
X37801090Y-28884785D01*
X37840500Y-28635962D01*
X37840500Y-28384038D01*
X53689500Y-28384038D01*
X53689500Y-28635961D01*
X53728910Y-28884785D01*
X53806760Y-29124383D01*
X53921132Y-29348848D01*
X54069201Y-29552649D01*
X54069205Y-29552654D01*
X54247345Y-29730794D01*
X54247350Y-29730798D01*
X54424899Y-29859794D01*
X54451155Y-29878870D01*
X54594184Y-29951747D01*
X54675616Y-29993239D01*
X54675618Y-29993239D01*
X54675621Y-29993241D01*
X54915215Y-30071090D01*
X55164038Y-30110500D01*
X55164039Y-30110500D01*
X55415961Y-30110500D01*
X55415962Y-30110500D01*
X55664785Y-30071090D01*
X55904379Y-29993241D01*
X56128845Y-29878870D01*
X56332656Y-29730793D01*
X56510793Y-29552656D01*
X56658870Y-29348845D01*
X56773241Y-29124379D01*
X56851090Y-28884785D01*
X56890500Y-28635962D01*
X56890500Y-28384038D01*
X72739500Y-28384038D01*
X72739500Y-28635961D01*
X72778910Y-28884785D01*
X72856760Y-29124383D01*
X72971132Y-29348848D01*
X73119201Y-29552649D01*
X73119205Y-29552654D01*
X73297345Y-29730794D01*
X73297350Y-29730798D01*
X73474899Y-29859794D01*
X73501155Y-29878870D01*
X73644184Y-29951747D01*
X73725616Y-29993239D01*
X73725618Y-29993239D01*
X73725621Y-29993241D01*
X73965215Y-30071090D01*
X74214038Y-30110500D01*
X74214039Y-30110500D01*
X74465961Y-30110500D01*
X74465962Y-30110500D01*
X74714785Y-30071090D01*
X74954379Y-29993241D01*
X75178845Y-29878870D01*
X75382656Y-29730793D01*
X75560793Y-29552656D01*
X75708870Y-29348845D01*
X75823241Y-29124379D01*
X75901090Y-28884785D01*
X75940500Y-28635962D01*
X75940500Y-28384038D01*
X91789500Y-28384038D01*
X91789500Y-28635961D01*
X91828910Y-28884785D01*
X91906760Y-29124383D01*
X92021132Y-29348848D01*
X92169201Y-29552649D01*
X92169205Y-29552654D01*
X92347345Y-29730794D01*
X92347350Y-29730798D01*
X92524899Y-29859794D01*
X92551155Y-29878870D01*
X92694184Y-29951747D01*
X92775616Y-29993239D01*
X92775618Y-29993239D01*
X92775621Y-29993241D01*
X93015215Y-30071090D01*
X93264038Y-30110500D01*
X93264039Y-30110500D01*
X93515961Y-30110500D01*
X93515962Y-30110500D01*
X93764785Y-30071090D01*
X94004379Y-29993241D01*
X94228845Y-29878870D01*
X94432656Y-29730793D01*
X94610793Y-29552656D01*
X94758870Y-29348845D01*
X94873241Y-29124379D01*
X94951090Y-28884785D01*
X94990500Y-28635962D01*
X94990500Y-28384038D01*
X110839500Y-28384038D01*
X110839500Y-28635961D01*
X110878910Y-28884785D01*
X110956760Y-29124383D01*
X111071132Y-29348848D01*
X111219201Y-29552649D01*
X111219205Y-29552654D01*
X111397345Y-29730794D01*
X111397350Y-29730798D01*
X111574899Y-29859794D01*
X111601155Y-29878870D01*
X111744184Y-29951747D01*
X111825616Y-29993239D01*
X111825618Y-29993239D01*
X111825621Y-29993241D01*
X112065215Y-30071090D01*
X112314038Y-30110500D01*
X112314039Y-30110500D01*
X112565961Y-30110500D01*
X112565962Y-30110500D01*
X112814785Y-30071090D01*
X113054379Y-29993241D01*
X113278845Y-29878870D01*
X113482656Y-29730793D01*
X113660793Y-29552656D01*
X113808870Y-29348845D01*
X113923241Y-29124379D01*
X114001090Y-28884785D01*
X114040500Y-28635962D01*
X114040500Y-28384038D01*
X114001090Y-28135215D01*
X113923241Y-27895621D01*
X113923239Y-27895618D01*
X113923239Y-27895616D01*
X113881747Y-27814184D01*
X113808870Y-27671155D01*
X113707107Y-27531090D01*
X113660798Y-27467350D01*
X113660794Y-27467345D01*
X113482654Y-27289205D01*
X113482649Y-27289201D01*
X113278848Y-27141132D01*
X113278847Y-27141131D01*
X113278845Y-27141130D01*
X113208747Y-27105413D01*
X113054383Y-27026760D01*
X112814785Y-26948910D01*
X112565962Y-26909500D01*
X112314038Y-26909500D01*
X112189626Y-26929205D01*
X112065214Y-26948910D01*
X111825616Y-27026760D01*
X111601151Y-27141132D01*
X111397350Y-27289201D01*
X111397345Y-27289205D01*
X111219205Y-27467345D01*
X111219201Y-27467350D01*
X111071132Y-27671151D01*
X110956760Y-27895616D01*
X110878910Y-28135214D01*
X110839500Y-28384038D01*
X94990500Y-28384038D01*
X94951090Y-28135215D01*
X94873241Y-27895621D01*
X94873239Y-27895618D01*
X94873239Y-27895616D01*
X94831747Y-27814184D01*
X94758870Y-27671155D01*
X94657107Y-27531090D01*
X94610798Y-27467350D01*
X94610794Y-27467345D01*
X94432654Y-27289205D01*
X94432649Y-27289201D01*
X94228848Y-27141132D01*
X94228847Y-27141131D01*
X94228845Y-27141130D01*
X94158747Y-27105413D01*
X94004383Y-27026760D01*
X93764785Y-26948910D01*
X93515962Y-26909500D01*
X93264038Y-26909500D01*
X93139626Y-26929205D01*
X93015214Y-26948910D01*
X92775616Y-27026760D01*
X92551151Y-27141132D01*
X92347350Y-27289201D01*
X92347345Y-27289205D01*
X92169205Y-27467345D01*
X92169201Y-27467350D01*
X92021132Y-27671151D01*
X91906760Y-27895616D01*
X91828910Y-28135214D01*
X91789500Y-28384038D01*
X75940500Y-28384038D01*
X75901090Y-28135215D01*
X75823241Y-27895621D01*
X75823239Y-27895618D01*
X75823239Y-27895616D01*
X75781747Y-27814184D01*
X75708870Y-27671155D01*
X75607107Y-27531090D01*
X75560798Y-27467350D01*
X75560794Y-27467345D01*
X75382654Y-27289205D01*
X75382649Y-27289201D01*
X75178848Y-27141132D01*
X75178847Y-27141131D01*
X75178845Y-27141130D01*
X75108747Y-27105413D01*
X74954383Y-27026760D01*
X74714785Y-26948910D01*
X74465962Y-26909500D01*
X74214038Y-26909500D01*
X74089626Y-26929205D01*
X73965214Y-26948910D01*
X73725616Y-27026760D01*
X73501151Y-27141132D01*
X73297350Y-27289201D01*
X73297345Y-27289205D01*
X73119205Y-27467345D01*
X73119201Y-27467350D01*
X72971132Y-27671151D01*
X72856760Y-27895616D01*
X72778910Y-28135214D01*
X72739500Y-28384038D01*
X56890500Y-28384038D01*
X56851090Y-28135215D01*
X56773241Y-27895621D01*
X56773239Y-27895618D01*
X56773239Y-27895616D01*
X56731747Y-27814184D01*
X56658870Y-27671155D01*
X56557107Y-27531090D01*
X56510798Y-27467350D01*
X56510794Y-27467345D01*
X56332654Y-27289205D01*
X56332649Y-27289201D01*
X56128848Y-27141132D01*
X56128847Y-27141131D01*
X56128845Y-27141130D01*
X56058747Y-27105413D01*
X55904383Y-27026760D01*
X55664785Y-26948910D01*
X55415962Y-26909500D01*
X55164038Y-26909500D01*
X55039626Y-26929205D01*
X54915214Y-26948910D01*
X54675616Y-27026760D01*
X54451151Y-27141132D01*
X54247350Y-27289201D01*
X54247345Y-27289205D01*
X54069205Y-27467345D01*
X54069201Y-27467350D01*
X53921132Y-27671151D01*
X53806760Y-27895616D01*
X53728910Y-28135214D01*
X53689500Y-28384038D01*
X37840500Y-28384038D01*
X37801090Y-28135215D01*
X37723241Y-27895621D01*
X37723239Y-27895618D01*
X37723239Y-27895616D01*
X37681747Y-27814184D01*
X37608870Y-27671155D01*
X37507107Y-27531090D01*
X37460798Y-27467350D01*
X37460794Y-27467345D01*
X37282654Y-27289205D01*
X37282649Y-27289201D01*
X37078848Y-27141132D01*
X37078847Y-27141131D01*
X37078845Y-27141130D01*
X37008747Y-27105413D01*
X36854383Y-27026760D01*
X36614785Y-26948910D01*
X36365962Y-26909500D01*
X36114038Y-26909500D01*
X35989626Y-26929205D01*
X35865214Y-26948910D01*
X35625616Y-27026760D01*
X35401151Y-27141132D01*
X35197350Y-27289201D01*
X35197345Y-27289205D01*
X35019205Y-27467345D01*
X35019201Y-27467350D01*
X34871132Y-27671151D01*
X34756760Y-27895616D01*
X34678910Y-28135214D01*
X34639500Y-28384038D01*
X20050500Y-28384038D01*
X20050500Y-24888542D01*
X23299500Y-24888542D01*
X23299500Y-25111450D01*
X23299501Y-25111466D01*
X23328594Y-25332452D01*
X23328595Y-25332457D01*
X23328596Y-25332463D01*
X23339564Y-25373396D01*
X23386290Y-25547780D01*
X23386293Y-25547790D01*
X23471593Y-25753722D01*
X23471595Y-25753726D01*
X23583052Y-25946774D01*
X23583057Y-25946780D01*
X23583058Y-25946782D01*
X23718751Y-26123622D01*
X23718757Y-26123629D01*
X23876370Y-26281242D01*
X23876376Y-26281247D01*
X24053226Y-26416948D01*
X24246274Y-26528405D01*
X24452219Y-26613710D01*
X24667537Y-26671404D01*
X24888543Y-26700500D01*
X24888550Y-26700500D01*
X25111450Y-26700500D01*
X25111457Y-26700500D01*
X25332463Y-26671404D01*
X25547781Y-26613710D01*
X25753726Y-26528405D01*
X25946774Y-26416948D01*
X26123624Y-26281247D01*
X26281247Y-26123624D01*
X26416948Y-25946774D01*
X26476263Y-25844038D01*
X40989500Y-25844038D01*
X40989500Y-26095962D01*
X41018847Y-26281248D01*
X41028910Y-26344785D01*
X41106760Y-26584383D01*
X41221132Y-26808848D01*
X41369201Y-27012649D01*
X41369205Y-27012654D01*
X41547345Y-27190794D01*
X41547350Y-27190798D01*
X41725117Y-27319952D01*
X41751155Y-27338870D01*
X41894184Y-27411747D01*
X41975616Y-27453239D01*
X41975618Y-27453239D01*
X41975621Y-27453241D01*
X42215215Y-27531090D01*
X42464038Y-27570500D01*
X42464039Y-27570500D01*
X42715961Y-27570500D01*
X42715962Y-27570500D01*
X42964785Y-27531090D01*
X43204379Y-27453241D01*
X43428845Y-27338870D01*
X43632656Y-27190793D01*
X43810793Y-27012656D01*
X43958870Y-26808845D01*
X44073241Y-26584379D01*
X44151090Y-26344785D01*
X44190500Y-26095962D01*
X44190500Y-25844038D01*
X60039500Y-25844038D01*
X60039500Y-26095962D01*
X60068847Y-26281248D01*
X60078910Y-26344785D01*
X60156760Y-26584383D01*
X60271132Y-26808848D01*
X60419201Y-27012649D01*
X60419205Y-27012654D01*
X60597345Y-27190794D01*
X60597350Y-27190798D01*
X60775117Y-27319952D01*
X60801155Y-27338870D01*
X60944184Y-27411747D01*
X61025616Y-27453239D01*
X61025618Y-27453239D01*
X61025621Y-27453241D01*
X61265215Y-27531090D01*
X61514038Y-27570500D01*
X61514039Y-27570500D01*
X61765961Y-27570500D01*
X61765962Y-27570500D01*
X62014785Y-27531090D01*
X62254379Y-27453241D01*
X62478845Y-27338870D01*
X62682656Y-27190793D01*
X62860793Y-27012656D01*
X63008870Y-26808845D01*
X63123241Y-26584379D01*
X63201090Y-26344785D01*
X63240500Y-26095962D01*
X63240500Y-25844038D01*
X79089500Y-25844038D01*
X79089500Y-26095962D01*
X79118847Y-26281248D01*
X79128910Y-26344785D01*
X79206760Y-26584383D01*
X79321132Y-26808848D01*
X79469201Y-27012649D01*
X79469205Y-27012654D01*
X79647345Y-27190794D01*
X79647350Y-27190798D01*
X79825117Y-27319952D01*
X79851155Y-27338870D01*
X79994184Y-27411747D01*
X80075616Y-27453239D01*
X80075618Y-27453239D01*
X80075621Y-27453241D01*
X80315215Y-27531090D01*
X80564038Y-27570500D01*
X80564039Y-27570500D01*
X80815961Y-27570500D01*
X80815962Y-27570500D01*
X81064785Y-27531090D01*
X81304379Y-27453241D01*
X81528845Y-27338870D01*
X81732656Y-27190793D01*
X81910793Y-27012656D01*
X82058870Y-26808845D01*
X82173241Y-26584379D01*
X82251090Y-26344785D01*
X82290500Y-26095962D01*
X82290500Y-25844038D01*
X98139500Y-25844038D01*
X98139500Y-26095962D01*
X98168847Y-26281248D01*
X98178910Y-26344785D01*
X98256760Y-26584383D01*
X98371132Y-26808848D01*
X98519201Y-27012649D01*
X98519205Y-27012654D01*
X98697345Y-27190794D01*
X98697350Y-27190798D01*
X98875117Y-27319952D01*
X98901155Y-27338870D01*
X99044184Y-27411747D01*
X99125616Y-27453239D01*
X99125618Y-27453239D01*
X99125621Y-27453241D01*
X99365215Y-27531090D01*
X99614038Y-27570500D01*
X99614039Y-27570500D01*
X99865961Y-27570500D01*
X99865962Y-27570500D01*
X100114785Y-27531090D01*
X100354379Y-27453241D01*
X100578845Y-27338870D01*
X100782656Y-27190793D01*
X100960793Y-27012656D01*
X101108870Y-26808845D01*
X101223241Y-26584379D01*
X101301090Y-26344785D01*
X101340500Y-26095962D01*
X101340500Y-25844038D01*
X117189500Y-25844038D01*
X117189500Y-26095962D01*
X117218847Y-26281248D01*
X117228910Y-26344785D01*
X117306760Y-26584383D01*
X117421132Y-26808848D01*
X117569201Y-27012649D01*
X117569205Y-27012654D01*
X117747345Y-27190794D01*
X117747350Y-27190798D01*
X117925117Y-27319952D01*
X117951155Y-27338870D01*
X118094184Y-27411747D01*
X118175616Y-27453239D01*
X118175618Y-27453239D01*
X118175621Y-27453241D01*
X118415215Y-27531090D01*
X118664038Y-27570500D01*
X118664039Y-27570500D01*
X118915961Y-27570500D01*
X118915962Y-27570500D01*
X119164785Y-27531090D01*
X119404379Y-27453241D01*
X119628845Y-27338870D01*
X119832656Y-27190793D01*
X120010793Y-27012656D01*
X120158870Y-26808845D01*
X120273241Y-26584379D01*
X120351090Y-26344785D01*
X120390500Y-26095962D01*
X120390500Y-25844038D01*
X120351090Y-25595215D01*
X120273241Y-25355621D01*
X120273239Y-25355618D01*
X120273239Y-25355616D01*
X120231747Y-25274184D01*
X120158870Y-25131155D01*
X120142117Y-25108096D01*
X120032608Y-24957369D01*
X120032607Y-24957368D01*
X120010796Y-24927347D01*
X119971991Y-24888542D01*
X129549500Y-24888542D01*
X129549500Y-25111450D01*
X129549501Y-25111466D01*
X129578594Y-25332452D01*
X129578595Y-25332457D01*
X129578596Y-25332463D01*
X129589564Y-25373396D01*
X129636290Y-25547780D01*
X129636293Y-25547790D01*
X129721593Y-25753722D01*
X129721595Y-25753726D01*
X129833052Y-25946774D01*
X129833057Y-25946780D01*
X129833058Y-25946782D01*
X129968751Y-26123622D01*
X129968757Y-26123629D01*
X130126370Y-26281242D01*
X130126376Y-26281247D01*
X130303226Y-26416948D01*
X130496274Y-26528405D01*
X130702219Y-26613710D01*
X130917537Y-26671404D01*
X131138543Y-26700500D01*
X131138550Y-26700500D01*
X131361450Y-26700500D01*
X131361457Y-26700500D01*
X131582463Y-26671404D01*
X131797781Y-26613710D01*
X132003726Y-26528405D01*
X132196774Y-26416948D01*
X132373624Y-26281247D01*
X132531247Y-26123624D01*
X132666948Y-25946774D01*
X132778405Y-25753726D01*
X132863710Y-25547781D01*
X132921404Y-25332463D01*
X132950500Y-25111457D01*
X132950500Y-24888543D01*
X132921404Y-24667537D01*
X132863710Y-24452219D01*
X132778405Y-24246274D01*
X132666948Y-24053226D01*
X132531247Y-23876376D01*
X132531242Y-23876370D01*
X132373629Y-23718757D01*
X132373622Y-23718751D01*
X132196782Y-23583058D01*
X132196780Y-23583057D01*
X132196774Y-23583052D01*
X132003726Y-23471595D01*
X132003722Y-23471593D01*
X131797790Y-23386293D01*
X131797783Y-23386291D01*
X131797781Y-23386290D01*
X131582463Y-23328596D01*
X131582457Y-23328595D01*
X131582452Y-23328594D01*
X131361466Y-23299501D01*
X131361463Y-23299500D01*
X131361457Y-23299500D01*
X131138543Y-23299500D01*
X131138537Y-23299500D01*
X131138533Y-23299501D01*
X130917547Y-23328594D01*
X130917540Y-23328595D01*
X130917537Y-23328596D01*
X130702219Y-23386290D01*
X130702209Y-23386293D01*
X130496277Y-23471593D01*
X130496273Y-23471595D01*
X130303226Y-23583052D01*
X130303217Y-23583058D01*
X130126377Y-23718751D01*
X130126370Y-23718757D01*
X129968757Y-23876370D01*
X129968751Y-23876377D01*
X129833058Y-24053217D01*
X129833052Y-24053226D01*
X129721595Y-24246273D01*
X129721593Y-24246277D01*
X129636293Y-24452209D01*
X129636290Y-24452219D01*
X129578597Y-24667534D01*
X129578594Y-24667547D01*
X129551348Y-24874505D01*
X129549500Y-24888542D01*
X119971991Y-24888542D01*
X119832654Y-24749205D01*
X119832649Y-24749201D01*
X119628848Y-24601132D01*
X119628847Y-24601131D01*
X119628845Y-24601130D01*
X119558747Y-24565413D01*
X119404383Y-24486760D01*
X119164785Y-24408910D01*
X119032121Y-24387898D01*
X118915962Y-24369500D01*
X118664038Y-24369500D01*
X118547879Y-24387898D01*
X118415214Y-24408910D01*
X118175616Y-24486760D01*
X117951151Y-24601132D01*
X117747350Y-24749201D01*
X117747345Y-24749205D01*
X117569205Y-24927345D01*
X117569201Y-24927350D01*
X117421132Y-25131151D01*
X117306760Y-25355616D01*
X117244322Y-25547781D01*
X117228910Y-25595215D01*
X117189500Y-25844038D01*
X101340500Y-25844038D01*
X101301090Y-25595215D01*
X101223241Y-25355621D01*
X101223239Y-25355618D01*
X101223239Y-25355616D01*
X101181747Y-25274184D01*
X101108870Y-25131155D01*
X101089952Y-25105117D01*
X100960798Y-24927350D01*
X100960794Y-24927345D01*
X100782654Y-24749205D01*
X100782649Y-24749201D01*
X100578848Y-24601132D01*
X100578847Y-24601131D01*
X100578845Y-24601130D01*
X100508747Y-24565413D01*
X100354383Y-24486760D01*
X100114785Y-24408910D01*
X99982121Y-24387898D01*
X99865962Y-24369500D01*
X99614038Y-24369500D01*
X99497879Y-24387898D01*
X99365214Y-24408910D01*
X99125616Y-24486760D01*
X98901151Y-24601132D01*
X98697350Y-24749201D01*
X98697345Y-24749205D01*
X98519205Y-24927345D01*
X98519201Y-24927350D01*
X98371132Y-25131151D01*
X98256760Y-25355616D01*
X98194322Y-25547781D01*
X98178910Y-25595215D01*
X98139500Y-25844038D01*
X82290500Y-25844038D01*
X82251090Y-25595215D01*
X82173241Y-25355621D01*
X82173239Y-25355618D01*
X82173239Y-25355616D01*
X82131747Y-25274184D01*
X82058870Y-25131155D01*
X82039952Y-25105117D01*
X81910798Y-24927350D01*
X81910794Y-24927345D01*
X81732654Y-24749205D01*
X81732649Y-24749201D01*
X81528848Y-24601132D01*
X81528847Y-24601131D01*
X81528845Y-24601130D01*
X81458747Y-24565413D01*
X81304383Y-24486760D01*
X81064785Y-24408910D01*
X80932121Y-24387898D01*
X80815962Y-24369500D01*
X80564038Y-24369500D01*
X80447879Y-24387898D01*
X80315214Y-24408910D01*
X80075616Y-24486760D01*
X79851151Y-24601132D01*
X79647350Y-24749201D01*
X79647345Y-24749205D01*
X79469205Y-24927345D01*
X79469201Y-24927350D01*
X79321132Y-25131151D01*
X79206760Y-25355616D01*
X79144322Y-25547781D01*
X79128910Y-25595215D01*
X79089500Y-25844038D01*
X63240500Y-25844038D01*
X63201090Y-25595215D01*
X63123241Y-25355621D01*
X63123239Y-25355618D01*
X63123239Y-25355616D01*
X63081747Y-25274184D01*
X63008870Y-25131155D01*
X62989952Y-25105117D01*
X62860798Y-24927350D01*
X62860794Y-24927345D01*
X62682654Y-24749205D01*
X62682649Y-24749201D01*
X62478848Y-24601132D01*
X62478847Y-24601131D01*
X62478845Y-24601130D01*
X62408747Y-24565413D01*
X62254383Y-24486760D01*
X62014785Y-24408910D01*
X61882121Y-24387898D01*
X61765962Y-24369500D01*
X61514038Y-24369500D01*
X61397879Y-24387898D01*
X61265214Y-24408910D01*
X61025616Y-24486760D01*
X60801151Y-24601132D01*
X60597350Y-24749201D01*
X60597345Y-24749205D01*
X60419205Y-24927345D01*
X60419201Y-24927350D01*
X60271132Y-25131151D01*
X60156760Y-25355616D01*
X60094322Y-25547781D01*
X60078910Y-25595215D01*
X60039500Y-25844038D01*
X44190500Y-25844038D01*
X44151090Y-25595215D01*
X44073241Y-25355621D01*
X44073239Y-25355618D01*
X44073239Y-25355616D01*
X44031747Y-25274184D01*
X43958870Y-25131155D01*
X43939952Y-25105117D01*
X43810798Y-24927350D01*
X43810794Y-24927345D01*
X43632654Y-24749205D01*
X43632649Y-24749201D01*
X43428848Y-24601132D01*
X43428847Y-24601131D01*
X43428845Y-24601130D01*
X43358747Y-24565413D01*
X43204383Y-24486760D01*
X42964785Y-24408910D01*
X42832121Y-24387898D01*
X42715962Y-24369500D01*
X42464038Y-24369500D01*
X42347879Y-24387898D01*
X42215214Y-24408910D01*
X41975616Y-24486760D01*
X41751151Y-24601132D01*
X41547350Y-24749201D01*
X41547345Y-24749205D01*
X41369205Y-24927345D01*
X41369201Y-24927350D01*
X41221132Y-25131151D01*
X41106760Y-25355616D01*
X41044322Y-25547781D01*
X41028910Y-25595215D01*
X40989500Y-25844038D01*
X26476263Y-25844038D01*
X26528405Y-25753726D01*
X26613710Y-25547781D01*
X26671404Y-25332463D01*
X26700500Y-25111457D01*
X26700500Y-24888543D01*
X26671404Y-24667537D01*
X26613710Y-24452219D01*
X26528405Y-24246274D01*
X26416948Y-24053226D01*
X26281247Y-23876376D01*
X26281242Y-23876370D01*
X26123629Y-23718757D01*
X26123622Y-23718751D01*
X25946782Y-23583058D01*
X25946780Y-23583057D01*
X25946774Y-23583052D01*
X25753726Y-23471595D01*
X25753722Y-23471593D01*
X25547790Y-23386293D01*
X25547783Y-23386291D01*
X25547781Y-23386290D01*
X25332463Y-23328596D01*
X25332457Y-23328595D01*
X25332452Y-23328594D01*
X25111466Y-23299501D01*
X25111463Y-23299500D01*
X25111457Y-23299500D01*
X24888543Y-23299500D01*
X24888537Y-23299500D01*
X24888533Y-23299501D01*
X24667547Y-23328594D01*
X24667540Y-23328595D01*
X24667537Y-23328596D01*
X24452219Y-23386290D01*
X24452209Y-23386293D01*
X24246277Y-23471593D01*
X24246273Y-23471595D01*
X24053226Y-23583052D01*
X24053217Y-23583058D01*
X23876377Y-23718751D01*
X23876370Y-23718757D01*
X23718757Y-23876370D01*
X23718751Y-23876377D01*
X23583058Y-24053217D01*
X23583052Y-24053226D01*
X23471595Y-24246273D01*
X23471593Y-24246277D01*
X23386293Y-24452209D01*
X23386290Y-24452219D01*
X23328597Y-24667534D01*
X23328594Y-24667547D01*
X23301348Y-24874505D01*
X23299500Y-24888542D01*
X20050500Y-24888542D01*
X20050500Y-20174500D01*
X20070185Y-20107461D01*
X20122989Y-20061706D01*
X20174500Y-20050500D01*
X136075500Y-20050500D01*
X136142539Y-20070185D01*
G37*
%TD.AperFunction*%
%TD*%
M02*
