%TF.GenerationSoftware,KiCad,Pcbnew,9.0.9-1.fc43*%
%TF.CreationDate,2026-05-12T19:07:23+02:00*%
%TF.ProjectId,Fader_taster_5x2,46616465-725f-4746-9173-7465725f3578,rev?*%
%TF.SameCoordinates,Original*%
%TF.FileFunction,Profile,NP*%
%FSLAX46Y46*%
G04 Gerber Fmt 4.6, Leading zero omitted, Abs format (unit mm)*
G04 Created by KiCad (PCBNEW 9.0.9-1.fc43) date 2026-05-12 19:07:23*
%MOMM*%
%LPD*%
G01*
G04 APERTURE LIST*
%TA.AperFunction,Profile*%
%ADD10C,0.050000*%
%TD*%
G04 APERTURE END LIST*
D10*
X20000000Y-20000000D02*
X136250000Y-20000000D01*
X136250000Y-61100000D01*
X20000000Y-61100000D01*
X20000000Y-20000000D01*
X26650000Y-25000000D02*
G75*
G02*
X23350000Y-25000000I-1650000J0D01*
G01*
X23350000Y-25000000D02*
G75*
G02*
X26650000Y-25000000I1650000J0D01*
G01*
X26650000Y-56100000D02*
G75*
G02*
X23350000Y-56100000I-1650000J0D01*
G01*
X23350000Y-56100000D02*
G75*
G02*
X26650000Y-56100000I1650000J0D01*
G01*
X132900000Y-25000000D02*
G75*
G02*
X129600000Y-25000000I-1650000J0D01*
G01*
X129600000Y-25000000D02*
G75*
G02*
X132900000Y-25000000I1650000J0D01*
G01*
X132900000Y-56100000D02*
G75*
G02*
X129600000Y-56100000I-1650000J0D01*
G01*
X129600000Y-56100000D02*
G75*
G02*
X132900000Y-56100000I1650000J0D01*
G01*
%TO.C,SW9*%
X95475000Y-54075000D02*
X98875000Y-54075000D01*
X98875000Y-57075000D01*
X95475000Y-57075000D01*
X95475000Y-54075000D01*
%TO.C,SW8*%
X76425000Y-54075000D02*
X79825000Y-54075000D01*
X79825000Y-57075000D01*
X76425000Y-57075000D01*
X76425000Y-54075000D01*
%TO.C,SW5*%
X114525000Y-35025000D02*
X117925000Y-35025000D01*
X117925000Y-38025000D01*
X114525000Y-38025000D01*
X114525000Y-35025000D01*
%TO.C,SW3*%
X76425000Y-35025000D02*
X79825000Y-35025000D01*
X79825000Y-38025000D01*
X76425000Y-38025000D01*
X76425000Y-35025000D01*
%TO.C,SW1*%
X38325000Y-35025000D02*
X41725000Y-35025000D01*
X41725000Y-38025000D01*
X38325000Y-38025000D01*
X38325000Y-35025000D01*
%TO.C,SW10*%
X114525000Y-54075000D02*
X117925000Y-54075000D01*
X117925000Y-57075000D01*
X114525000Y-57075000D01*
X114525000Y-54075000D01*
%TO.C,SW6*%
X38325000Y-54075000D02*
X41725000Y-54075000D01*
X41725000Y-57075000D01*
X38325000Y-57075000D01*
X38325000Y-54075000D01*
%TO.C,SW4*%
X95475000Y-35025000D02*
X98875000Y-35025000D01*
X98875000Y-38025000D01*
X95475000Y-38025000D01*
X95475000Y-35025000D01*
%TO.C,SW7*%
X57375000Y-54075000D02*
X60775000Y-54075000D01*
X60775000Y-57075000D01*
X57375000Y-57075000D01*
X57375000Y-54075000D01*
%TO.C,SW2*%
X57375000Y-35025000D02*
X60775000Y-35025000D01*
X60775000Y-38025000D01*
X57375000Y-38025000D01*
X57375000Y-35025000D01*
%TD*%
M02*
