M48
; DRILL file {KiCad 9.0.9-1.fc43} date 2026-05-12T19:07:25+0200
; FORMAT={-:-/ absolute / metric / decimal}
; #@! TF.CreationDate,2026-05-12T19:07:25+02:00
; #@! TF.GenerationSoftware,Kicad,Pcbnew,9.0.9-1.fc43
; #@! TF.FileFunction,Plated,1,2,PTH
FMAT,2
METRIC
; #@! TA.AperFunction,Plated,PTH,ViaDrill
T1C0.300
; #@! TA.AperFunction,Plated,PTH,ComponentDrill
T2C0.950
; #@! TA.AperFunction,Plated,PTH,ComponentDrill
T3C1.000
; #@! TA.AperFunction,Plated,PTH,ComponentDrill
T4C1.500
%
G90
G05
T1
X42.75Y-39.25
X42.75Y-58.25
X61.75Y-39.25
X61.75Y-58.25
X80.75Y-39.25
X80.75Y-58.25
X99.75Y-39.25
X99.75Y-58.25
X118.75Y-39.25
X118.75Y-58.25
X125.75Y-45.7
T2
X25.225Y-31.75
X25.225Y-34.25
X25.225Y-36.75
X128.75Y-50.25
X131.25Y-50.25
X133.75Y-50.25
T3
X25.5Y-44.882
X25.5Y-49.882
X129.71Y-30.5
X129.71Y-33.04
X129.71Y-35.58
X129.71Y-38.12
X129.71Y-40.66
X129.71Y-43.2
X132.25Y-30.5
X132.25Y-33.04
X132.25Y-35.58
X132.25Y-38.12
X132.25Y-40.66
X132.25Y-43.2
T4
X36.24Y-28.51
X36.24Y-47.56
X42.59Y-25.97
X42.59Y-45.02
X55.29Y-28.51
X55.29Y-47.56
X61.64Y-25.97
X61.64Y-45.02
X74.34Y-28.51
X74.34Y-47.56
X80.69Y-25.97
X80.69Y-45.02
X93.39Y-28.51
X93.39Y-47.56
X99.74Y-25.97
X99.74Y-45.02
X112.44Y-28.51
X112.44Y-47.56
X118.79Y-25.97
X118.79Y-45.02
M30
