%TF.GenerationSoftware,KiCad,Pcbnew,9.0.8-1.fc42*%
%TF.CreationDate,2026-04-13T21:32:41+02:00*%
%TF.ProjectId,FM,464d2e6b-6963-4616-945f-706362585858,rev?*%
%TF.SameCoordinates,Original*%
%TF.FileFunction,Copper,L2,Bot*%
%TF.FilePolarity,Positive*%
%FSLAX46Y46*%
G04 Gerber Fmt 4.6, Leading zero omitted, Abs format (unit mm)*
G04 Created by KiCad (PCBNEW 9.0.8-1.fc42) date 2026-04-13 21:32:41*
%MOMM*%
%LPD*%
G01*
G04 APERTURE LIST*
G04 Aperture macros list*
%AMRoundRect*
0 Rectangle with rounded corners*
0 $1 Rounding radius*
0 $2 $3 $4 $5 $6 $7 $8 $9 X,Y pos of 4 corners*
0 Add a 4 corners polygon primitive as box body*
4,1,4,$2,$3,$4,$5,$6,$7,$8,$9,$2,$3,0*
0 Add four circle primitives for the rounded corners*
1,1,$1+$1,$2,$3*
1,1,$1+$1,$4,$5*
1,1,$1+$1,$6,$7*
1,1,$1+$1,$8,$9*
0 Add four rect primitives between the rounded corners*
20,1,$1+$1,$2,$3,$4,$5,0*
20,1,$1+$1,$4,$5,$6,$7,0*
20,1,$1+$1,$6,$7,$8,$9,0*
20,1,$1+$1,$8,$9,$2,$3,0*%
G04 Aperture macros list end*
%TA.AperFunction,ComponentPad*%
%ADD10C,2.200000*%
%TD*%
%TA.AperFunction,SMDPad,CuDef*%
%ADD11RoundRect,0.250000X-0.337500X-0.475000X0.337500X-0.475000X0.337500X0.475000X-0.337500X0.475000X0*%
%TD*%
%TA.AperFunction,SMDPad,CuDef*%
%ADD12R,1.450000X0.820000*%
%TD*%
%TA.AperFunction,SMDPad,CuDef*%
%ADD13RoundRect,0.205000X-0.520000X-0.205000X0.520000X-0.205000X0.520000X0.205000X-0.520000X0.205000X0*%
%TD*%
%TA.AperFunction,ComponentPad*%
%ADD14RoundRect,0.250000X0.725000X-0.600000X0.725000X0.600000X-0.725000X0.600000X-0.725000X-0.600000X0*%
%TD*%
%TA.AperFunction,ComponentPad*%
%ADD15O,1.950000X1.700000*%
%TD*%
%TA.AperFunction,SMDPad,CuDef*%
%ADD16RoundRect,0.250000X-0.350000X-0.450000X0.350000X-0.450000X0.350000X0.450000X-0.350000X0.450000X0*%
%TD*%
%TA.AperFunction,ComponentPad*%
%ADD17RoundRect,0.250000X0.750000X0.750000X-0.750000X0.750000X-0.750000X-0.750000X0.750000X-0.750000X0*%
%TD*%
%TA.AperFunction,ComponentPad*%
%ADD18C,2.000000*%
%TD*%
%TA.AperFunction,ComponentPad*%
%ADD19RoundRect,0.250000X-0.725000X0.600000X-0.725000X-0.600000X0.725000X-0.600000X0.725000X0.600000X0*%
%TD*%
%TA.AperFunction,ViaPad*%
%ADD20C,1.000000*%
%TD*%
%TA.AperFunction,ViaPad*%
%ADD21C,2.000000*%
%TD*%
%TA.AperFunction,Conductor*%
%ADD22C,0.500000*%
%TD*%
%TA.AperFunction,Conductor*%
%ADD23C,1.300000*%
%TD*%
%TA.AperFunction,Conductor*%
%ADD24C,1.000000*%
%TD*%
%TA.AperFunction,Conductor*%
%ADD25C,0.600000*%
%TD*%
%TA.AperFunction,Conductor*%
%ADD26C,0.700000*%
%TD*%
G04 APERTURE END LIST*
D10*
%TO.P,SW4,1,1*%
%TO.N,GND*%
X99715000Y-25945000D03*
%TO.P,SW4,2,2*%
%TO.N,Net-(J1-Pin_5)*%
X93365000Y-28485000D03*
%TD*%
%TO.P,SW9,1,1*%
%TO.N,GND*%
X99715000Y-44995000D03*
%TO.P,SW9,2,2*%
%TO.N,Net-(J2-Pin_5)*%
X93365000Y-47535000D03*
%TD*%
%TO.P,SW2,1,1*%
%TO.N,GND*%
X61715000Y-25945000D03*
%TO.P,SW2,2,2*%
%TO.N,Net-(J1-Pin_3)*%
X55365000Y-28485000D03*
%TD*%
%TO.P,SW3,1,1*%
%TO.N,GND*%
X80665000Y-25945000D03*
%TO.P,SW3,2,2*%
%TO.N,Net-(J1-Pin_4)*%
X74315000Y-28485000D03*
%TD*%
%TO.P,SW6,1,1*%
%TO.N,GND*%
X42565000Y-44995000D03*
%TO.P,SW6,2,2*%
%TO.N,Net-(J2-Pin_2)*%
X36215000Y-47535000D03*
%TD*%
%TO.P,SW10,1,1*%
%TO.N,GND*%
X118765000Y-44995000D03*
%TO.P,SW10,2,2*%
%TO.N,Net-(J2-Pin_6)*%
X112415000Y-47535000D03*
%TD*%
%TO.P,SW1,1,1*%
%TO.N,GND*%
X42565000Y-25945000D03*
%TO.P,SW1,2,2*%
%TO.N,Net-(J1-Pin_2)*%
X36215000Y-28485000D03*
%TD*%
%TO.P,SW5,1,1*%
%TO.N,GND*%
X118765000Y-25945000D03*
%TO.P,SW5,2,2*%
%TO.N,Net-(J1-Pin_6)*%
X112415000Y-28485000D03*
%TD*%
%TO.P,SW7,1,1*%
%TO.N,GND*%
X61615000Y-44995000D03*
%TO.P,SW7,2,2*%
%TO.N,Net-(J2-Pin_3)*%
X55265000Y-47535000D03*
%TD*%
%TO.P,SW8,1,1*%
%TO.N,GND*%
X80665000Y-44995000D03*
%TO.P,SW8,2,2*%
%TO.N,Net-(J2-Pin_4)*%
X74315000Y-47535000D03*
%TD*%
D11*
%TO.P,C2,1*%
%TO.N,GND*%
X58037500Y-39000000D03*
%TO.P,C2,2*%
%TO.N,+5V*%
X60112500Y-39000000D03*
%TD*%
D12*
%TO.P,D7,1,VSS*%
%TO.N,GND*%
X56400000Y-54250000D03*
%TO.P,D7,2,DIN*%
%TO.N,Net-(D6-DOUT)*%
X56400000Y-55750000D03*
D13*
%TO.P,D7,3,VDD*%
%TO.N,+5V*%
X61750000Y-55750000D03*
D12*
%TO.P,D7,4,DOUT*%
%TO.N,Net-(D7-DOUT)*%
X61750000Y-54250000D03*
%TD*%
%TO.P,D3,1,VSS*%
%TO.N,GND*%
X75450000Y-35250000D03*
%TO.P,D3,2,DIN*%
%TO.N,Net-(D2-DOUT)*%
X75450000Y-36750000D03*
D13*
%TO.P,D3,3,VDD*%
%TO.N,+5V*%
X80800000Y-36750000D03*
D12*
%TO.P,D3,4,DOUT*%
%TO.N,Net-(D3-DOUT)*%
X80800000Y-35250000D03*
%TD*%
D14*
%TO.P,J1,1,Pin_1*%
%TO.N,GND*%
X125500000Y-37500000D03*
D15*
%TO.P,J1,2,Pin_2*%
%TO.N,Net-(J1-Pin_2)*%
X125500000Y-35000000D03*
%TO.P,J1,3,Pin_3*%
%TO.N,Net-(J1-Pin_3)*%
X125500000Y-32500000D03*
%TO.P,J1,4,Pin_4*%
%TO.N,Net-(J1-Pin_4)*%
X125500000Y-30000000D03*
%TO.P,J1,5,Pin_5*%
%TO.N,Net-(J1-Pin_5)*%
X125500000Y-27500000D03*
%TO.P,J1,6,Pin_6*%
%TO.N,Net-(J1-Pin_6)*%
X125500000Y-25000000D03*
%TD*%
D12*
%TO.P,D9,1,VSS*%
%TO.N,GND*%
X94500000Y-54250000D03*
%TO.P,D9,2,DIN*%
%TO.N,Net-(D8-DOUT)*%
X94500000Y-55750000D03*
D13*
%TO.P,D9,3,VDD*%
%TO.N,+5V*%
X99850000Y-55750000D03*
D12*
%TO.P,D9,4,DOUT*%
%TO.N,Net-(D10-DIN)*%
X99850000Y-54250000D03*
%TD*%
%TO.P,D2,1,VSS*%
%TO.N,GND*%
X56400000Y-35250000D03*
%TO.P,D2,2,DIN*%
%TO.N,Net-(D1-DOUT)*%
X56400000Y-36750000D03*
D13*
%TO.P,D2,3,VDD*%
%TO.N,+5V*%
X61750000Y-36750000D03*
D12*
%TO.P,D2,4,DOUT*%
%TO.N,Net-(D2-DOUT)*%
X61750000Y-35250000D03*
%TD*%
D11*
%TO.P,C10,1*%
%TO.N,GND*%
X115187500Y-58000000D03*
%TO.P,C10,2*%
%TO.N,+5V*%
X117262500Y-58000000D03*
%TD*%
D12*
%TO.P,D6,1,VSS*%
%TO.N,GND*%
X37350000Y-54250000D03*
%TO.P,D6,2,DIN*%
%TO.N,Net-(D5-DOUT)*%
X37350000Y-55750000D03*
D13*
%TO.P,D6,3,VDD*%
%TO.N,+5V*%
X42700000Y-55750000D03*
D12*
%TO.P,D6,4,DOUT*%
%TO.N,Net-(D6-DOUT)*%
X42700000Y-54250000D03*
%TD*%
D11*
%TO.P,C6,1*%
%TO.N,GND*%
X38987500Y-58000000D03*
%TO.P,C6,2*%
%TO.N,+5V*%
X41062500Y-58000000D03*
%TD*%
%TO.P,C3,1*%
%TO.N,GND*%
X77087500Y-39000000D03*
%TO.P,C3,2*%
%TO.N,+5V*%
X79162500Y-39000000D03*
%TD*%
%TO.P,C9,1*%
%TO.N,GND*%
X96137500Y-58000000D03*
%TO.P,C9,2*%
%TO.N,+5V*%
X98212500Y-58000000D03*
%TD*%
D12*
%TO.P,D8,1,VSS*%
%TO.N,GND*%
X75450000Y-54250000D03*
%TO.P,D8,2,DIN*%
%TO.N,Net-(D7-DOUT)*%
X75450000Y-55750000D03*
D13*
%TO.P,D8,3,VDD*%
%TO.N,+5V*%
X80800000Y-55750000D03*
D12*
%TO.P,D8,4,DOUT*%
%TO.N,Net-(D8-DOUT)*%
X80800000Y-54250000D03*
%TD*%
%TO.P,D4,1,VSS*%
%TO.N,GND*%
X94450000Y-35250000D03*
%TO.P,D4,2,DIN*%
%TO.N,Net-(D3-DOUT)*%
X94450000Y-36750000D03*
D13*
%TO.P,D4,3,VDD*%
%TO.N,+5V*%
X99800000Y-36750000D03*
D12*
%TO.P,D4,4,DOUT*%
%TO.N,Net-(D4-DOUT)*%
X99800000Y-35250000D03*
%TD*%
D16*
%TO.P,R1,1*%
%TO.N,Net-(J3-Pin_2)*%
X32200000Y-36800000D03*
%TO.P,R1,2*%
%TO.N,Net-(D1-DIN)*%
X34200000Y-36800000D03*
%TD*%
D11*
%TO.P,C4,1*%
%TO.N,GND*%
X96137500Y-39000000D03*
%TO.P,C4,2*%
%TO.N,+5V*%
X98212500Y-39000000D03*
%TD*%
%TO.P,C5,1*%
%TO.N,GND*%
X115187500Y-39000000D03*
%TO.P,C5,2*%
%TO.N,+5V*%
X117262500Y-39000000D03*
%TD*%
D17*
%TO.P,C11,1*%
%TO.N,+5V*%
X28367677Y-46500000D03*
D18*
%TO.P,C11,2*%
%TO.N,GND*%
X23367677Y-46500000D03*
%TD*%
D11*
%TO.P,C8,1*%
%TO.N,GND*%
X77087500Y-58000000D03*
%TO.P,C8,2*%
%TO.N,+5V*%
X79162500Y-58000000D03*
%TD*%
D14*
%TO.P,J4,1,Pin_1*%
%TO.N,GND*%
X133000000Y-43500000D03*
D15*
%TO.P,J4,2,Pin_2*%
%TO.N,Net-(D10-DOUT)*%
X133000000Y-41000000D03*
%TO.P,J4,3,Pin_3*%
%TO.N,+5V*%
X133000000Y-38500000D03*
%TD*%
D12*
%TO.P,D10,1,VSS*%
%TO.N,GND*%
X113550000Y-54250000D03*
%TO.P,D10,2,DIN*%
%TO.N,Net-(D10-DIN)*%
X113550000Y-55750000D03*
D13*
%TO.P,D10,3,VDD*%
%TO.N,+5V*%
X118900000Y-55750000D03*
D12*
%TO.P,D10,4,DOUT*%
%TO.N,Net-(D10-DOUT)*%
X118900000Y-54250000D03*
%TD*%
%TO.P,D5,1,VSS*%
%TO.N,GND*%
X113550000Y-35250000D03*
%TO.P,D5,2,DIN*%
%TO.N,Net-(D4-DOUT)*%
X113550000Y-36750000D03*
D13*
%TO.P,D5,3,VDD*%
%TO.N,+5V*%
X118900000Y-36750000D03*
D12*
%TO.P,D5,4,DOUT*%
%TO.N,Net-(D5-DOUT)*%
X118900000Y-35250000D03*
%TD*%
%TO.P,D1,1,VSS*%
%TO.N,GND*%
X37350000Y-35250000D03*
%TO.P,D1,2,DIN*%
%TO.N,Net-(D1-DIN)*%
X37350000Y-36750000D03*
D13*
%TO.P,D1,3,VDD*%
%TO.N,+5V*%
X42700000Y-36750000D03*
D12*
%TO.P,D1,4,DOUT*%
%TO.N,Net-(D1-DOUT)*%
X42700000Y-35250000D03*
%TD*%
D14*
%TO.P,J2,1,Pin_1*%
%TO.N,GND*%
X125500000Y-57000000D03*
D15*
%TO.P,J2,2,Pin_2*%
%TO.N,Net-(J2-Pin_2)*%
X125500000Y-54500000D03*
%TO.P,J2,3,Pin_3*%
%TO.N,Net-(J2-Pin_3)*%
X125500000Y-52000000D03*
%TO.P,J2,4,Pin_4*%
%TO.N,Net-(J2-Pin_4)*%
X125500000Y-49500000D03*
%TO.P,J2,5,Pin_5*%
%TO.N,Net-(J2-Pin_5)*%
X125500000Y-47000000D03*
%TO.P,J2,6,Pin_6*%
%TO.N,Net-(J2-Pin_6)*%
X125500000Y-44500000D03*
%TD*%
D19*
%TO.P,J3,1,Pin_1*%
%TO.N,GND*%
X25000000Y-32000000D03*
D15*
%TO.P,J3,2,Pin_2*%
%TO.N,Net-(J3-Pin_2)*%
X25000000Y-34500000D03*
%TO.P,J3,3,Pin_3*%
%TO.N,+5V*%
X25000000Y-37000000D03*
%TD*%
D11*
%TO.P,C1,1*%
%TO.N,GND*%
X38987500Y-39000000D03*
%TO.P,C1,2*%
%TO.N,+5V*%
X41062500Y-39000000D03*
%TD*%
%TO.P,C7,1*%
%TO.N,GND*%
X58037500Y-58000000D03*
%TO.P,C7,2*%
%TO.N,+5V*%
X60112500Y-58000000D03*
%TD*%
D20*
%TO.N,GND*%
X93000000Y-57000000D03*
X111000000Y-33750000D03*
X75315000Y-33750000D03*
X56500000Y-39000000D03*
X73250000Y-52750000D03*
X112000000Y-56750000D03*
X37703635Y-52673398D03*
X37215000Y-33785000D03*
X75750000Y-38500000D03*
X92250000Y-33750000D03*
X37215000Y-39100000D03*
X54000000Y-57500000D03*
X37250000Y-57500000D03*
X93750000Y-38750000D03*
X112500000Y-52750000D03*
X54000000Y-52750000D03*
X73750000Y-57250000D03*
X110250000Y-37500000D03*
X93250000Y-52750000D03*
X56715459Y-33697497D03*
D21*
%TO.N,+5V*%
X122000000Y-47090810D03*
D20*
%TO.N,Net-(D10-DOUT)*%
X120250000Y-49250000D03*
%TD*%
D22*
%TO.N,GND*%
X96137500Y-58000000D02*
X94000000Y-58000000D01*
X113000000Y-52750000D02*
X113550000Y-53300000D01*
X31500000Y-32000000D02*
X25000000Y-32000000D01*
X76250000Y-39000000D02*
X75750000Y-38500000D01*
D23*
X21750000Y-33500000D02*
X21750000Y-44882323D01*
D22*
X58037500Y-58000000D02*
X54500000Y-58000000D01*
X109000000Y-30500000D02*
X109000000Y-28750000D01*
X58037500Y-39000000D02*
X56500000Y-39000000D01*
X117555000Y-25945000D02*
X118765000Y-25945000D01*
X74500000Y-58000000D02*
X73750000Y-57250000D01*
X56400000Y-52850000D02*
X56500000Y-52750000D01*
X37350000Y-35250000D02*
X33500000Y-35250000D01*
X43500000Y-48750000D02*
X42565000Y-47815000D01*
X37215000Y-35115000D02*
X37350000Y-35250000D01*
D23*
X21750000Y-44882323D02*
X23367677Y-46500000D01*
D22*
X75450000Y-33800000D02*
X75450000Y-35250000D01*
X113250000Y-58000000D02*
X112000000Y-56750000D01*
X56750000Y-33750000D02*
X75500000Y-33750000D01*
X75500000Y-33750000D02*
X94500000Y-33750000D01*
X37315000Y-39000000D02*
X37215000Y-39100000D01*
X109000000Y-28750000D02*
X106195000Y-25945000D01*
X43500000Y-52750000D02*
X56500000Y-52750000D01*
X77087500Y-58000000D02*
X74500000Y-58000000D01*
X106195000Y-25945000D02*
X99715000Y-25945000D01*
X37215000Y-33785000D02*
X37250000Y-33750000D01*
X94450000Y-33800000D02*
X94450000Y-35250000D01*
X33500000Y-35250000D02*
X32500000Y-34250000D01*
X42565000Y-47815000D02*
X42565000Y-44995000D01*
D23*
X23250000Y-32000000D02*
X21750000Y-33500000D01*
D22*
X94500000Y-52750000D02*
X113000000Y-52750000D01*
X113550000Y-35250000D02*
X112500000Y-35250000D01*
X32500000Y-34250000D02*
X32500000Y-33000000D01*
X75500000Y-52750000D02*
X94500000Y-52750000D01*
X111000000Y-33750000D02*
X109000000Y-31750000D01*
X38987500Y-39000000D02*
X37315000Y-39000000D01*
X94000000Y-39000000D02*
X93750000Y-38750000D01*
X43500000Y-52750000D02*
X43500000Y-48750000D01*
X115187500Y-39000000D02*
X111750000Y-39000000D01*
X96137500Y-39000000D02*
X94000000Y-39000000D01*
X115187500Y-58000000D02*
X113250000Y-58000000D01*
X37250000Y-33750000D02*
X56750000Y-33750000D01*
X37750000Y-58000000D02*
X37250000Y-57500000D01*
X94000000Y-58000000D02*
X93000000Y-57000000D01*
X38987500Y-58000000D02*
X37750000Y-58000000D01*
X56500000Y-52750000D02*
X75500000Y-52750000D01*
X37350000Y-54250000D02*
X37350000Y-53150000D01*
X32500000Y-33000000D02*
X31500000Y-32000000D01*
X113000000Y-30500000D02*
X117555000Y-25945000D01*
X75500000Y-33750000D02*
X75450000Y-33800000D01*
X77087500Y-39000000D02*
X76250000Y-39000000D01*
X54500000Y-58000000D02*
X54000000Y-57500000D01*
X56400000Y-54250000D02*
X56400000Y-52850000D01*
X75450000Y-54250000D02*
X75450000Y-52800000D01*
X109000000Y-30500000D02*
X113000000Y-30500000D01*
X112500000Y-35250000D02*
X111000000Y-33750000D01*
X113550000Y-53300000D02*
X113550000Y-54250000D01*
X111750000Y-39000000D02*
X110250000Y-37500000D01*
X94500000Y-33750000D02*
X111000000Y-33750000D01*
X37215000Y-33785000D02*
X37215000Y-35115000D01*
X109000000Y-31750000D02*
X109000000Y-30500000D01*
D23*
X25000000Y-32000000D02*
X23250000Y-32000000D01*
D22*
X94500000Y-54250000D02*
X94500000Y-52750000D01*
X37350000Y-53150000D02*
X37750000Y-52750000D01*
X37750000Y-52750000D02*
X43500000Y-52750000D01*
X75450000Y-52800000D02*
X75500000Y-52750000D01*
X56750000Y-33750000D02*
X56400000Y-34100000D01*
X56400000Y-34100000D02*
X56400000Y-35250000D01*
X94500000Y-33750000D02*
X94450000Y-33800000D01*
D24*
%TO.N,+5V*%
X41062500Y-58000000D02*
X41062500Y-59687500D01*
D23*
X41000000Y-59750000D02*
X60000000Y-59750000D01*
X122000000Y-47090810D02*
X122000000Y-57000000D01*
D25*
X118925000Y-57325000D02*
X118925000Y-55750000D01*
D23*
X28367677Y-38367677D02*
X27000000Y-37000000D01*
D24*
X41000000Y-40800000D02*
X28417677Y-40800000D01*
D25*
X118250000Y-58000000D02*
X118925000Y-57325000D01*
D24*
X60112500Y-59637500D02*
X60000000Y-59750000D01*
D23*
X28367677Y-46500000D02*
X28367677Y-40750000D01*
D25*
X117262500Y-58000000D02*
X118250000Y-58000000D01*
X60750000Y-39000000D02*
X61775000Y-37975000D01*
X98212500Y-39000000D02*
X99250000Y-39000000D01*
D23*
X34500000Y-59750000D02*
X41000000Y-59750000D01*
X122000000Y-57000000D02*
X119250000Y-59750000D01*
D24*
X60112500Y-40687500D02*
X60112500Y-39000000D01*
D25*
X80825000Y-57175000D02*
X80825000Y-55750000D01*
X41750000Y-39000000D02*
X42725000Y-38025000D01*
X99250000Y-39000000D02*
X99825000Y-38425000D01*
D23*
X27000000Y-37000000D02*
X25000000Y-37000000D01*
D25*
X99250000Y-58000000D02*
X99875000Y-57375000D01*
D24*
X79000000Y-40800000D02*
X79162500Y-40637500D01*
X98212500Y-39000000D02*
X98212500Y-40287500D01*
D25*
X118925000Y-38075000D02*
X118925000Y-36750000D01*
D24*
X79162500Y-58000000D02*
X79162500Y-59662500D01*
D25*
X98212500Y-58000000D02*
X99250000Y-58000000D01*
X79162500Y-58000000D02*
X80000000Y-58000000D01*
X60112500Y-39000000D02*
X60750000Y-39000000D01*
D23*
X32000000Y-53250000D02*
X32000000Y-57250000D01*
X28367677Y-46500000D02*
X28367677Y-49617677D01*
D24*
X117262500Y-39987500D02*
X116450000Y-40800000D01*
X60000000Y-40800000D02*
X60112500Y-40687500D01*
X41062500Y-40737500D02*
X41062500Y-39000000D01*
D25*
X99825000Y-38425000D02*
X99825000Y-36750000D01*
D24*
X79162500Y-40637500D02*
X79162500Y-39000000D01*
D25*
X80825000Y-38425000D02*
X80825000Y-36750000D01*
D23*
X119250000Y-59750000D02*
X117000000Y-59750000D01*
D24*
X117262500Y-59487500D02*
X117000000Y-59750000D01*
D23*
X32000000Y-57250000D02*
X34500000Y-59750000D01*
D25*
X61775000Y-57225000D02*
X61775000Y-55750000D01*
X61000000Y-58000000D02*
X61775000Y-57225000D01*
X41062500Y-58000000D02*
X42000000Y-58000000D01*
X42725000Y-38025000D02*
X42725000Y-36750000D01*
D23*
X98250000Y-59750000D02*
X117000000Y-59750000D01*
D25*
X80250000Y-39000000D02*
X80825000Y-38425000D01*
D24*
X117262500Y-58000000D02*
X117262500Y-59487500D01*
D25*
X61775000Y-37975000D02*
X61775000Y-36750000D01*
D24*
X116450000Y-40800000D02*
X79000000Y-40800000D01*
D25*
X42725000Y-57275000D02*
X42725000Y-55750000D01*
D24*
X41000000Y-39062500D02*
X41062500Y-39000000D01*
D25*
X60112500Y-58000000D02*
X61000000Y-58000000D01*
X41062500Y-39000000D02*
X41750000Y-39000000D01*
D24*
X60000000Y-40800000D02*
X41000000Y-40800000D01*
D25*
X117262500Y-39000000D02*
X118000000Y-39000000D01*
D24*
X98212500Y-58000000D02*
X98212500Y-59712500D01*
D23*
X28367677Y-40750000D02*
X28367677Y-38367677D01*
D24*
X98212500Y-59712500D02*
X98250000Y-59750000D01*
D25*
X42000000Y-58000000D02*
X42725000Y-57275000D01*
D24*
X117262500Y-39000000D02*
X117262500Y-39987500D01*
D25*
X80000000Y-58000000D02*
X80825000Y-57175000D01*
D24*
X79000000Y-40800000D02*
X60000000Y-40800000D01*
D23*
X28367677Y-49617677D02*
X32000000Y-53250000D01*
D25*
X99875000Y-57375000D02*
X99875000Y-55750000D01*
D23*
X60000000Y-59750000D02*
X79250000Y-59750000D01*
D24*
X60112500Y-58000000D02*
X60112500Y-59637500D01*
X41062500Y-59687500D02*
X41000000Y-59750000D01*
D23*
X79250000Y-59750000D02*
X98250000Y-59750000D01*
D24*
X41000000Y-40800000D02*
X41062500Y-40737500D01*
X28417677Y-40800000D02*
X28367677Y-40750000D01*
D25*
X118000000Y-39000000D02*
X118925000Y-38075000D01*
X79162500Y-39000000D02*
X80250000Y-39000000D01*
D24*
X79162500Y-59662500D02*
X79250000Y-59750000D01*
D25*
%TO.N,Net-(D1-DIN)*%
X34200000Y-36800000D02*
X37275000Y-36800000D01*
X37275000Y-36800000D02*
X37325000Y-36750000D01*
D26*
X37225000Y-36800000D02*
X37275000Y-36750000D01*
D22*
%TO.N,Net-(D1-DOUT)*%
X54250000Y-36750000D02*
X56400000Y-36750000D01*
X42700000Y-35250000D02*
X52750000Y-35250000D01*
X52750000Y-35250000D02*
X54250000Y-36750000D01*
%TO.N,Net-(D2-DOUT)*%
X71750000Y-35250000D02*
X73250000Y-36750000D01*
X73250000Y-36750000D02*
X75450000Y-36750000D01*
X61750000Y-35250000D02*
X71750000Y-35250000D01*
%TO.N,Net-(D3-DOUT)*%
X92250000Y-36750000D02*
X94450000Y-36750000D01*
X80800000Y-35250000D02*
X90750000Y-35250000D01*
X90750000Y-35250000D02*
X92250000Y-36750000D01*
%TO.N,Net-(D4-DOUT)*%
X111250000Y-36750000D02*
X113550000Y-36750000D01*
X99800000Y-35250000D02*
X109750000Y-35250000D01*
X109750000Y-35250000D02*
X111250000Y-36750000D01*
%TO.N,Net-(D5-DOUT)*%
X36000000Y-43000000D02*
X34000000Y-45000000D01*
X34000000Y-45000000D02*
X34000000Y-54000000D01*
X120750000Y-35750000D02*
X120750000Y-38750000D01*
X34000000Y-54000000D02*
X35750000Y-55750000D01*
X118900000Y-35250000D02*
X120250000Y-35250000D01*
X35750000Y-55750000D02*
X37350000Y-55750000D01*
X120250000Y-35250000D02*
X120750000Y-35750000D01*
X117750000Y-41750000D02*
X96000000Y-41750000D01*
X94750000Y-43000000D02*
X36000000Y-43000000D01*
X96000000Y-41750000D02*
X94750000Y-43000000D01*
X120750000Y-38750000D02*
X117750000Y-41750000D01*
%TO.N,Net-(D6-DOUT)*%
X54250000Y-55750000D02*
X56400000Y-55750000D01*
X42700000Y-54250000D02*
X52750000Y-54250000D01*
X52750000Y-54250000D02*
X54250000Y-55750000D01*
%TO.N,Net-(D7-DOUT)*%
X61750000Y-54250000D02*
X71750000Y-54250000D01*
X73250000Y-55750000D02*
X75450000Y-55750000D01*
X71750000Y-54250000D02*
X73250000Y-55750000D01*
%TO.N,Net-(D8-DOUT)*%
X80800000Y-54250000D02*
X90750000Y-54250000D01*
X92250000Y-55750000D02*
X94500000Y-55750000D01*
X90750000Y-54250000D02*
X92250000Y-55750000D01*
%TO.N,Net-(D10-DIN)*%
X99850000Y-54250000D02*
X109750000Y-54250000D01*
X109750000Y-54250000D02*
X111250000Y-55750000D01*
X111250000Y-55750000D02*
X113550000Y-55750000D01*
%TO.N,Net-(D10-DOUT)*%
X118900000Y-54250000D02*
X118900000Y-52600000D01*
X120250000Y-51250000D02*
X120250000Y-49250000D01*
X118900000Y-52600000D02*
X120250000Y-51250000D01*
D26*
%TO.N,Net-(J1-Pin_5)*%
X126000000Y-27500000D02*
X125500000Y-27500000D01*
%TO.N,Net-(J1-Pin_6)*%
X112415000Y-28485000D02*
X112415000Y-24835000D01*
X114000000Y-23250000D02*
X123750000Y-23250000D01*
X112415000Y-24835000D02*
X114000000Y-23250000D01*
X123750000Y-23250000D02*
X125500000Y-25000000D01*
D25*
%TO.N,Net-(J2-Pin_5)*%
X127750000Y-44000000D02*
X127750000Y-45750000D01*
X126500000Y-47000000D02*
X125500000Y-47000000D01*
X93365000Y-47535000D02*
X93365000Y-45885000D01*
D26*
X126000000Y-47000000D02*
X125500000Y-47000000D01*
D25*
X126500000Y-42750000D02*
X127750000Y-44000000D01*
X127750000Y-45750000D02*
X126500000Y-47000000D01*
X96500000Y-42750000D02*
X126500000Y-42750000D01*
X93365000Y-45885000D02*
X96500000Y-42750000D01*
%TO.N,Net-(J2-Pin_6)*%
X114465000Y-47535000D02*
X115000000Y-47000000D01*
X119500000Y-47000000D02*
X122000000Y-44500000D01*
X115000000Y-47000000D02*
X119500000Y-47000000D01*
X112415000Y-47535000D02*
X114465000Y-47535000D01*
X122000000Y-44500000D02*
X125500000Y-44500000D01*
%TO.N,Net-(J3-Pin_2)*%
X30800000Y-36800000D02*
X32200000Y-36800000D01*
X25000000Y-34500000D02*
X28500000Y-34500000D01*
X28500000Y-34500000D02*
X30800000Y-36800000D01*
%TD*%
%TA.AperFunction,Conductor*%
%TO.N,GND*%
G36*
X135443039Y-20769685D02*
G01*
X135488794Y-20822489D01*
X135500000Y-20874000D01*
X135500000Y-60126000D01*
X135480315Y-60193039D01*
X135427511Y-60238794D01*
X135376000Y-60250000D01*
X120676414Y-60250000D01*
X120609375Y-60230315D01*
X120563620Y-60177511D01*
X120553676Y-60108353D01*
X120582701Y-60044797D01*
X120588733Y-60038319D01*
X121484890Y-59142162D01*
X122529211Y-58097840D01*
X122590532Y-58064357D01*
X122660224Y-58069341D01*
X122716157Y-58111213D01*
X122740574Y-58176677D01*
X122731451Y-58232975D01*
X122682185Y-58351913D01*
X122682182Y-58351925D01*
X122649500Y-58516228D01*
X122649500Y-58683771D01*
X122682182Y-58848074D01*
X122682184Y-58848082D01*
X122746295Y-59002860D01*
X122839373Y-59142162D01*
X122957837Y-59260626D01*
X123050494Y-59322537D01*
X123097137Y-59353703D01*
X123251918Y-59417816D01*
X123416228Y-59450499D01*
X123416232Y-59450500D01*
X123416233Y-59450500D01*
X123583768Y-59450500D01*
X123583769Y-59450499D01*
X123748082Y-59417816D01*
X123902863Y-59353703D01*
X124042162Y-59260626D01*
X124160626Y-59142162D01*
X124253703Y-59002863D01*
X124317816Y-58848082D01*
X124350500Y-58683767D01*
X124350500Y-58516233D01*
X124338888Y-58457853D01*
X124335238Y-58439502D01*
X124341465Y-58369910D01*
X124384329Y-58314733D01*
X124450218Y-58291489D01*
X124495860Y-58297605D01*
X124622305Y-58339505D01*
X124622309Y-58339506D01*
X124725019Y-58349999D01*
X125249999Y-58349999D01*
X125250000Y-58349998D01*
X125250000Y-57404145D01*
X125316657Y-57442630D01*
X125437465Y-57475000D01*
X125562535Y-57475000D01*
X125683343Y-57442630D01*
X125750000Y-57404145D01*
X125750000Y-58349999D01*
X126274972Y-58349999D01*
X126274986Y-58349998D01*
X126377697Y-58339505D01*
X126544119Y-58284358D01*
X126544124Y-58284356D01*
X126693345Y-58192315D01*
X126817315Y-58068345D01*
X126909356Y-57919124D01*
X126909358Y-57919119D01*
X126964505Y-57752697D01*
X126964506Y-57752690D01*
X126974999Y-57649986D01*
X126975000Y-57649973D01*
X126975000Y-57250000D01*
X125904146Y-57250000D01*
X125942630Y-57183343D01*
X125975000Y-57062535D01*
X125975000Y-56937465D01*
X125942630Y-56816657D01*
X125904146Y-56750000D01*
X126974999Y-56750000D01*
X126974999Y-56350028D01*
X126974998Y-56350013D01*
X126964505Y-56247302D01*
X126909358Y-56080880D01*
X126909356Y-56080875D01*
X126877925Y-56029918D01*
X126840271Y-55968872D01*
X129249500Y-55968872D01*
X129249500Y-56231127D01*
X129270851Y-56393291D01*
X129283730Y-56491116D01*
X129341936Y-56708343D01*
X129351602Y-56744418D01*
X129351605Y-56744428D01*
X129451953Y-56986690D01*
X129451958Y-56986700D01*
X129583075Y-57213803D01*
X129742718Y-57421851D01*
X129742726Y-57421860D01*
X129928140Y-57607274D01*
X129928148Y-57607281D01*
X129928149Y-57607282D01*
X129929734Y-57608498D01*
X130136196Y-57766924D01*
X130363299Y-57898041D01*
X130363309Y-57898046D01*
X130605571Y-57998394D01*
X130605581Y-57998398D01*
X130858884Y-58066270D01*
X131118880Y-58100500D01*
X131118887Y-58100500D01*
X131381113Y-58100500D01*
X131381120Y-58100500D01*
X131641116Y-58066270D01*
X131894419Y-57998398D01*
X132136697Y-57898043D01*
X132363803Y-57766924D01*
X132571851Y-57607282D01*
X132571855Y-57607277D01*
X132571860Y-57607274D01*
X132757274Y-57421860D01*
X132757277Y-57421855D01*
X132757282Y-57421851D01*
X132916924Y-57213803D01*
X133048043Y-56986697D01*
X133148398Y-56744419D01*
X133216270Y-56491116D01*
X133250500Y-56231120D01*
X133250500Y-55968880D01*
X133216270Y-55708884D01*
X133148398Y-55455581D01*
X133117002Y-55379784D01*
X133048046Y-55213309D01*
X133048041Y-55213299D01*
X132916924Y-54986196D01*
X132757281Y-54778148D01*
X132757274Y-54778140D01*
X132571860Y-54592726D01*
X132571851Y-54592718D01*
X132363803Y-54433075D01*
X132136700Y-54301958D01*
X132136690Y-54301953D01*
X131894428Y-54201605D01*
X131894421Y-54201603D01*
X131894419Y-54201602D01*
X131641116Y-54133730D01*
X131582402Y-54126000D01*
X131381127Y-54099500D01*
X131381120Y-54099500D01*
X131118880Y-54099500D01*
X131118872Y-54099500D01*
X130887772Y-54129926D01*
X130858884Y-54133730D01*
X130672180Y-54183757D01*
X130605581Y-54201602D01*
X130605571Y-54201605D01*
X130363309Y-54301953D01*
X130363299Y-54301958D01*
X130136196Y-54433075D01*
X129928148Y-54592718D01*
X129742718Y-54778148D01*
X129583075Y-54986196D01*
X129451958Y-55213299D01*
X129451953Y-55213309D01*
X129351605Y-55455571D01*
X129351602Y-55455581D01*
X129284527Y-55705912D01*
X129283730Y-55708885D01*
X129249500Y-55968872D01*
X126840271Y-55968872D01*
X126817315Y-55931654D01*
X126693345Y-55807684D01*
X126538515Y-55712184D01*
X126491791Y-55660236D01*
X126480568Y-55591273D01*
X126508412Y-55527191D01*
X126515909Y-55518986D01*
X126655104Y-55379792D01*
X126780051Y-55207816D01*
X126876557Y-55018412D01*
X126942246Y-54816243D01*
X126975500Y-54606287D01*
X126975500Y-54393713D01*
X126942246Y-54183757D01*
X126876557Y-53981588D01*
X126780051Y-53792184D01*
X126780049Y-53792181D01*
X126780048Y-53792179D01*
X126655109Y-53620213D01*
X126504792Y-53469896D01*
X126403975Y-53396649D01*
X126340204Y-53350316D01*
X126297540Y-53294989D01*
X126291561Y-53225376D01*
X126324166Y-53163580D01*
X126340199Y-53149686D01*
X126504792Y-53030104D01*
X126655104Y-52879792D01*
X126655106Y-52879788D01*
X126655109Y-52879786D01*
X126780048Y-52707820D01*
X126780047Y-52707820D01*
X126780051Y-52707816D01*
X126876557Y-52518412D01*
X126942246Y-52316243D01*
X126975500Y-52106287D01*
X126975500Y-51893713D01*
X126942246Y-51683757D01*
X126876557Y-51481588D01*
X126780051Y-51292184D01*
X126780049Y-51292181D01*
X126780048Y-51292179D01*
X126655109Y-51120213D01*
X126504792Y-50969896D01*
X126484026Y-50954809D01*
X126340204Y-50850316D01*
X126297540Y-50794989D01*
X126291561Y-50725376D01*
X126324166Y-50663580D01*
X126340199Y-50649686D01*
X126504792Y-50530104D01*
X126655104Y-50379792D01*
X126655106Y-50379788D01*
X126655109Y-50379786D01*
X126780048Y-50207820D01*
X126780047Y-50207820D01*
X126780051Y-50207816D01*
X126876557Y-50018412D01*
X126942246Y-49816243D01*
X126975500Y-49606287D01*
X126975500Y-49393713D01*
X126942246Y-49183757D01*
X126876557Y-48981588D01*
X126780051Y-48792184D01*
X126780049Y-48792181D01*
X126780048Y-48792179D01*
X126655109Y-48620213D01*
X126504792Y-48469896D01*
X126473665Y-48447281D01*
X126340204Y-48350316D01*
X126297540Y-48294989D01*
X126291561Y-48225376D01*
X126324166Y-48163580D01*
X126340199Y-48149686D01*
X126504792Y-48030104D01*
X126655104Y-47879792D01*
X126715182Y-47797100D01*
X126768044Y-47755427D01*
X126879179Y-47709394D01*
X127010289Y-47621789D01*
X128371789Y-46260289D01*
X128459394Y-46129179D01*
X128465973Y-46113297D01*
X128498787Y-46034075D01*
X128519737Y-45983497D01*
X128550500Y-45828842D01*
X128550500Y-45671158D01*
X128550500Y-45016228D01*
X130149500Y-45016228D01*
X130149500Y-45183771D01*
X130182182Y-45348074D01*
X130182184Y-45348082D01*
X130246295Y-45502860D01*
X130339373Y-45642162D01*
X130457837Y-45760626D01*
X130525981Y-45806158D01*
X130597137Y-45853703D01*
X130751918Y-45917816D01*
X130895083Y-45946293D01*
X130916228Y-45950499D01*
X130916232Y-45950500D01*
X130916233Y-45950500D01*
X131083768Y-45950500D01*
X131083769Y-45950499D01*
X131248082Y-45917816D01*
X131402863Y-45853703D01*
X131542162Y-45760626D01*
X131660626Y-45642162D01*
X131753703Y-45502863D01*
X131817816Y-45348082D01*
X131850500Y-45183767D01*
X131850500Y-45016233D01*
X131846276Y-44994999D01*
X131835238Y-44939502D01*
X131841465Y-44869910D01*
X131884329Y-44814733D01*
X131950218Y-44791489D01*
X131995860Y-44797605D01*
X132122305Y-44839505D01*
X132122309Y-44839506D01*
X132225019Y-44849999D01*
X132749999Y-44849999D01*
X132750000Y-44849998D01*
X132750000Y-43904145D01*
X132816657Y-43942630D01*
X132937465Y-43975000D01*
X133062535Y-43975000D01*
X133183343Y-43942630D01*
X133250000Y-43904145D01*
X133250000Y-44849999D01*
X133774972Y-44849999D01*
X133774986Y-44849998D01*
X133877697Y-44839505D01*
X134044119Y-44784358D01*
X134044124Y-44784356D01*
X134193345Y-44692315D01*
X134317315Y-44568345D01*
X134409356Y-44419124D01*
X134409358Y-44419119D01*
X134464505Y-44252697D01*
X134464506Y-44252690D01*
X134474999Y-44149986D01*
X134475000Y-44149973D01*
X134475000Y-43750000D01*
X133404146Y-43750000D01*
X133442630Y-43683343D01*
X133475000Y-43562535D01*
X133475000Y-43437465D01*
X133442630Y-43316657D01*
X133404146Y-43250000D01*
X134474999Y-43250000D01*
X134474999Y-42850028D01*
X134474998Y-42850013D01*
X134464505Y-42747302D01*
X134409358Y-42580880D01*
X134409356Y-42580875D01*
X134317315Y-42431654D01*
X134193345Y-42307684D01*
X134038515Y-42212184D01*
X133991791Y-42160236D01*
X133980568Y-42091273D01*
X134008412Y-42027191D01*
X134015909Y-42018986D01*
X134155104Y-41879792D01*
X134280051Y-41707816D01*
X134376557Y-41518412D01*
X134442246Y-41316243D01*
X134475500Y-41106287D01*
X134475500Y-40893713D01*
X134442246Y-40683757D01*
X134376557Y-40481588D01*
X134280051Y-40292184D01*
X134280049Y-40292181D01*
X134280048Y-40292179D01*
X134155109Y-40120213D01*
X134004792Y-39969896D01*
X134004784Y-39969890D01*
X133840204Y-39850316D01*
X133797540Y-39794989D01*
X133791561Y-39725376D01*
X133824166Y-39663580D01*
X133840199Y-39649686D01*
X134004792Y-39530104D01*
X134155104Y-39379792D01*
X134155106Y-39379788D01*
X134155109Y-39379786D01*
X134280048Y-39207820D01*
X134280047Y-39207820D01*
X134280051Y-39207816D01*
X134376557Y-39018412D01*
X134442246Y-38816243D01*
X134475500Y-38606287D01*
X134475500Y-38393713D01*
X134442246Y-38183757D01*
X134376557Y-37981588D01*
X134280051Y-37792184D01*
X134280049Y-37792181D01*
X134280048Y-37792179D01*
X134155109Y-37620213D01*
X134004786Y-37469890D01*
X133832820Y-37344951D01*
X133643414Y-37248444D01*
X133643413Y-37248443D01*
X133643412Y-37248443D01*
X133441243Y-37182754D01*
X133441241Y-37182753D01*
X133441240Y-37182753D01*
X133279957Y-37157208D01*
X133231287Y-37149500D01*
X132768713Y-37149500D01*
X132720042Y-37157208D01*
X132558760Y-37182753D01*
X132558757Y-37182754D01*
X132362036Y-37246673D01*
X132356585Y-37248444D01*
X132167179Y-37344951D01*
X131995213Y-37469890D01*
X131844890Y-37620213D01*
X131719951Y-37792179D01*
X131623444Y-37981585D01*
X131623443Y-37981587D01*
X131623443Y-37981588D01*
X131599966Y-38053842D01*
X131557753Y-38183760D01*
X131524500Y-38393713D01*
X131524500Y-38606286D01*
X131557514Y-38814733D01*
X131557754Y-38816243D01*
X131622733Y-39016228D01*
X131623444Y-39018414D01*
X131719951Y-39207820D01*
X131844890Y-39379786D01*
X131995209Y-39530105D01*
X131995214Y-39530109D01*
X132159793Y-39649682D01*
X132202459Y-39705011D01*
X132208438Y-39774625D01*
X132175833Y-39836420D01*
X132159793Y-39850318D01*
X131995214Y-39969890D01*
X131995209Y-39969894D01*
X131844890Y-40120213D01*
X131719951Y-40292179D01*
X131623444Y-40481585D01*
X131557753Y-40683760D01*
X131524500Y-40893713D01*
X131524500Y-41106286D01*
X131557753Y-41316239D01*
X131623444Y-41518414D01*
X131719951Y-41707820D01*
X131844890Y-41879786D01*
X131984068Y-42018964D01*
X132017553Y-42080287D01*
X132012569Y-42149979D01*
X131970697Y-42205912D01*
X131961484Y-42212183D01*
X131806659Y-42307680D01*
X131806655Y-42307683D01*
X131682684Y-42431654D01*
X131590643Y-42580875D01*
X131590641Y-42580880D01*
X131535494Y-42747302D01*
X131535493Y-42747309D01*
X131525000Y-42850013D01*
X131525000Y-43250000D01*
X132595854Y-43250000D01*
X132557370Y-43316657D01*
X132525000Y-43437465D01*
X132525000Y-43562535D01*
X132557370Y-43683343D01*
X132595854Y-43750000D01*
X131525001Y-43750000D01*
X131525001Y-44149986D01*
X131530227Y-44201137D01*
X131517457Y-44269830D01*
X131469577Y-44320715D01*
X131401787Y-44337635D01*
X131359416Y-44328300D01*
X131248082Y-44282184D01*
X131248074Y-44282182D01*
X131083771Y-44249500D01*
X131083767Y-44249500D01*
X130916233Y-44249500D01*
X130916228Y-44249500D01*
X130751925Y-44282182D01*
X130751917Y-44282184D01*
X130597139Y-44346295D01*
X130457837Y-44439373D01*
X130339373Y-44557837D01*
X130246295Y-44697139D01*
X130182184Y-44851917D01*
X130182182Y-44851925D01*
X130149500Y-45016228D01*
X128550500Y-45016228D01*
X128550500Y-43921158D01*
X128550500Y-43921155D01*
X128550499Y-43921153D01*
X128530973Y-43822989D01*
X128519737Y-43766503D01*
X128514282Y-43753334D01*
X128459397Y-43620827D01*
X128459390Y-43620814D01*
X128371790Y-43489712D01*
X128319543Y-43437465D01*
X128260289Y-43378211D01*
X127732091Y-42850013D01*
X127010292Y-42128213D01*
X127010288Y-42128210D01*
X126879185Y-42040609D01*
X126879172Y-42040602D01*
X126733501Y-41980264D01*
X126733489Y-41980261D01*
X126578845Y-41949500D01*
X126578842Y-41949500D01*
X118911230Y-41949500D01*
X118844191Y-41929815D01*
X118798436Y-41877011D01*
X118788492Y-41807853D01*
X118817517Y-41744297D01*
X118823549Y-41737819D01*
X121332947Y-39228420D01*
X121332950Y-39228417D01*
X121332949Y-39228417D01*
X121332952Y-39228415D01*
X121407278Y-39117177D01*
X121415084Y-39105495D01*
X121439401Y-39046789D01*
X121471659Y-38968912D01*
X121500500Y-38823917D01*
X121500500Y-38676082D01*
X121500500Y-35676082D01*
X121500500Y-35676079D01*
X121471659Y-35531092D01*
X121471658Y-35531091D01*
X121471658Y-35531087D01*
X121466408Y-35518412D01*
X121415086Y-35394509D01*
X121415085Y-35394507D01*
X121405253Y-35379793D01*
X121382186Y-35345270D01*
X121382185Y-35345268D01*
X121332956Y-35271589D01*
X121332952Y-35271584D01*
X120728421Y-34667052D01*
X120728420Y-34667051D01*
X120624581Y-34597669D01*
X120624581Y-34597668D01*
X120605495Y-34584916D01*
X120605490Y-34584913D01*
X120468917Y-34528343D01*
X120468907Y-34528340D01*
X120323920Y-34499500D01*
X120323918Y-34499500D01*
X120046588Y-34499500D01*
X119979549Y-34479815D01*
X119972283Y-34474771D01*
X119909252Y-34427586D01*
X119867330Y-34396203D01*
X119867328Y-34396202D01*
X119732482Y-34345908D01*
X119732483Y-34345908D01*
X119672883Y-34339501D01*
X119672881Y-34339500D01*
X119672873Y-34339500D01*
X119672865Y-34339500D01*
X118592884Y-34339500D01*
X118525845Y-34319815D01*
X118489782Y-34284391D01*
X118469113Y-34253457D01*
X118371545Y-34155889D01*
X118371541Y-34155886D01*
X118256809Y-34079224D01*
X118129330Y-34026421D01*
X118129324Y-34026419D01*
X117993998Y-33999501D01*
X117993714Y-33999500D01*
X117990895Y-33999500D01*
X117990892Y-33999500D01*
X117990875Y-33999500D01*
X117925003Y-33999500D01*
X117859111Y-33999499D01*
X117859107Y-33999500D01*
X114598499Y-33999500D01*
X114598482Y-33999499D01*
X114590889Y-33999499D01*
X114524997Y-33999500D01*
X114459108Y-33999500D01*
X114459104Y-33999500D01*
X114456408Y-33999500D01*
X114456001Y-33999501D01*
X114320675Y-34026419D01*
X114320669Y-34026421D01*
X114193190Y-34079224D01*
X114078458Y-34155886D01*
X114078454Y-34155889D01*
X113980889Y-34253454D01*
X113980883Y-34253462D01*
X113959884Y-34284890D01*
X113906272Y-34329696D01*
X113856782Y-34340000D01*
X113800000Y-34340000D01*
X113800000Y-35126000D01*
X113780315Y-35193039D01*
X113727511Y-35238794D01*
X113676000Y-35250000D01*
X113550000Y-35250000D01*
X113550000Y-35376000D01*
X113530315Y-35443039D01*
X113477511Y-35488794D01*
X113426000Y-35500000D01*
X112325000Y-35500000D01*
X112325000Y-35707844D01*
X112331401Y-35767372D01*
X112331403Y-35767380D01*
X112355567Y-35832167D01*
X112360551Y-35901859D01*
X112327066Y-35963182D01*
X112265742Y-35996666D01*
X112239385Y-35999500D01*
X111612229Y-35999500D01*
X111545190Y-35979815D01*
X111524548Y-35963181D01*
X110437901Y-34876532D01*
X110353524Y-34792155D01*
X112325000Y-34792155D01*
X112325000Y-35000000D01*
X113300000Y-35000000D01*
X113300000Y-34340000D01*
X112777155Y-34340000D01*
X112717627Y-34346401D01*
X112717620Y-34346403D01*
X112582913Y-34396645D01*
X112582906Y-34396649D01*
X112467812Y-34482809D01*
X112467809Y-34482812D01*
X112381649Y-34597906D01*
X112381645Y-34597913D01*
X112331403Y-34732620D01*
X112331401Y-34732627D01*
X112325000Y-34792155D01*
X110353524Y-34792155D01*
X110228420Y-34667051D01*
X110124581Y-34597669D01*
X110124581Y-34597668D01*
X110105495Y-34584916D01*
X110105490Y-34584913D01*
X109968917Y-34528343D01*
X109968907Y-34528340D01*
X109823920Y-34499500D01*
X109823918Y-34499500D01*
X100946588Y-34499500D01*
X100879549Y-34479815D01*
X100872283Y-34474771D01*
X100809252Y-34427586D01*
X100767330Y-34396203D01*
X100767328Y-34396202D01*
X100632482Y-34345908D01*
X100632483Y-34345908D01*
X100572883Y-34339501D01*
X100572881Y-34339500D01*
X100572873Y-34339500D01*
X100572865Y-34339500D01*
X99492884Y-34339500D01*
X99425845Y-34319815D01*
X99389782Y-34284391D01*
X99369113Y-34253457D01*
X99271545Y-34155889D01*
X99271541Y-34155886D01*
X99156809Y-34079224D01*
X99029330Y-34026421D01*
X99029324Y-34026419D01*
X98893998Y-33999501D01*
X98893714Y-33999500D01*
X98890895Y-33999500D01*
X98890892Y-33999500D01*
X98890875Y-33999500D01*
X98825003Y-33999500D01*
X98759111Y-33999499D01*
X98759107Y-33999500D01*
X95498499Y-33999500D01*
X95498482Y-33999499D01*
X95490889Y-33999499D01*
X95424997Y-33999500D01*
X95359108Y-33999500D01*
X95359104Y-33999500D01*
X95356408Y-33999500D01*
X95356001Y-33999501D01*
X95220675Y-34026419D01*
X95220669Y-34026421D01*
X95093190Y-34079224D01*
X94978458Y-34155886D01*
X94978454Y-34155889D01*
X94880889Y-34253454D01*
X94880883Y-34253462D01*
X94859884Y-34284890D01*
X94806272Y-34329696D01*
X94756782Y-34340000D01*
X94700000Y-34340000D01*
X94700000Y-35126000D01*
X94680315Y-35193039D01*
X94627511Y-35238794D01*
X94576000Y-35250000D01*
X94450000Y-35250000D01*
X94450000Y-35376000D01*
X94430315Y-35443039D01*
X94377511Y-35488794D01*
X94326000Y-35500000D01*
X93225000Y-35500000D01*
X93225000Y-35707844D01*
X93231401Y-35767372D01*
X93231403Y-35767380D01*
X93255567Y-35832167D01*
X93260551Y-35901859D01*
X93227066Y-35963182D01*
X93165742Y-35996666D01*
X93139385Y-35999500D01*
X92612229Y-35999500D01*
X92545190Y-35979815D01*
X92524548Y-35963181D01*
X91437901Y-34876532D01*
X91353524Y-34792155D01*
X93225000Y-34792155D01*
X93225000Y-35000000D01*
X94200000Y-35000000D01*
X94200000Y-34340000D01*
X93677155Y-34340000D01*
X93617627Y-34346401D01*
X93617620Y-34346403D01*
X93482913Y-34396645D01*
X93482906Y-34396649D01*
X93367812Y-34482809D01*
X93367809Y-34482812D01*
X93281649Y-34597906D01*
X93281645Y-34597913D01*
X93231403Y-34732620D01*
X93231401Y-34732627D01*
X93225000Y-34792155D01*
X91353524Y-34792155D01*
X91228420Y-34667051D01*
X91124581Y-34597669D01*
X91124581Y-34597668D01*
X91105495Y-34584916D01*
X91105490Y-34584913D01*
X90968917Y-34528343D01*
X90968907Y-34528340D01*
X90823920Y-34499500D01*
X90823918Y-34499500D01*
X81946588Y-34499500D01*
X81879549Y-34479815D01*
X81872283Y-34474771D01*
X81809252Y-34427586D01*
X81767330Y-34396203D01*
X81767328Y-34396202D01*
X81632482Y-34345908D01*
X81632483Y-34345908D01*
X81572883Y-34339501D01*
X81572881Y-34339500D01*
X81572873Y-34339500D01*
X81572865Y-34339500D01*
X80492884Y-34339500D01*
X80425845Y-34319815D01*
X80389782Y-34284391D01*
X80369113Y-34253457D01*
X80271545Y-34155889D01*
X80271541Y-34155886D01*
X80156809Y-34079224D01*
X80029330Y-34026421D01*
X80029324Y-34026419D01*
X79893998Y-33999501D01*
X79893714Y-33999500D01*
X79890895Y-33999500D01*
X79890892Y-33999500D01*
X79890875Y-33999500D01*
X79825003Y-33999500D01*
X79759111Y-33999499D01*
X79759107Y-33999500D01*
X76498499Y-33999500D01*
X76498482Y-33999499D01*
X76490889Y-33999499D01*
X76424997Y-33999500D01*
X76359108Y-33999500D01*
X76359104Y-33999500D01*
X76356408Y-33999500D01*
X76356001Y-33999501D01*
X76220675Y-34026419D01*
X76220669Y-34026421D01*
X76093190Y-34079224D01*
X75978458Y-34155886D01*
X75978454Y-34155889D01*
X75880889Y-34253454D01*
X75880883Y-34253462D01*
X75859884Y-34284890D01*
X75806272Y-34329696D01*
X75756782Y-34340000D01*
X75700000Y-34340000D01*
X75700000Y-35126000D01*
X75680315Y-35193039D01*
X75627511Y-35238794D01*
X75576000Y-35250000D01*
X75450000Y-35250000D01*
X75450000Y-35376000D01*
X75430315Y-35443039D01*
X75377511Y-35488794D01*
X75326000Y-35500000D01*
X74225000Y-35500000D01*
X74225000Y-35707844D01*
X74231401Y-35767372D01*
X74231403Y-35767380D01*
X74255567Y-35832167D01*
X74260551Y-35901859D01*
X74227066Y-35963182D01*
X74165742Y-35996666D01*
X74139385Y-35999500D01*
X73612229Y-35999500D01*
X73545190Y-35979815D01*
X73524548Y-35963181D01*
X72437901Y-34876532D01*
X72353524Y-34792155D01*
X74225000Y-34792155D01*
X74225000Y-35000000D01*
X75200000Y-35000000D01*
X75200000Y-34340000D01*
X74677155Y-34340000D01*
X74617627Y-34346401D01*
X74617620Y-34346403D01*
X74482913Y-34396645D01*
X74482906Y-34396649D01*
X74367812Y-34482809D01*
X74367809Y-34482812D01*
X74281649Y-34597906D01*
X74281645Y-34597913D01*
X74231403Y-34732620D01*
X74231401Y-34732627D01*
X74225000Y-34792155D01*
X72353524Y-34792155D01*
X72228420Y-34667051D01*
X72124581Y-34597669D01*
X72124581Y-34597668D01*
X72105495Y-34584916D01*
X72105490Y-34584913D01*
X71968917Y-34528343D01*
X71968907Y-34528340D01*
X71823920Y-34499500D01*
X71823918Y-34499500D01*
X62896588Y-34499500D01*
X62829549Y-34479815D01*
X62822283Y-34474771D01*
X62759252Y-34427586D01*
X62717330Y-34396203D01*
X62717328Y-34396202D01*
X62582482Y-34345908D01*
X62582483Y-34345908D01*
X62522883Y-34339501D01*
X62522881Y-34339500D01*
X62522873Y-34339500D01*
X62522865Y-34339500D01*
X61442884Y-34339500D01*
X61375845Y-34319815D01*
X61339782Y-34284391D01*
X61319113Y-34253457D01*
X61221545Y-34155889D01*
X61221541Y-34155886D01*
X61106809Y-34079224D01*
X60979330Y-34026421D01*
X60979324Y-34026419D01*
X60843998Y-33999501D01*
X60843714Y-33999500D01*
X60840895Y-33999500D01*
X60840892Y-33999500D01*
X60840875Y-33999500D01*
X60775003Y-33999500D01*
X60709111Y-33999499D01*
X60709107Y-33999500D01*
X57448499Y-33999500D01*
X57448482Y-33999499D01*
X57440889Y-33999499D01*
X57374997Y-33999500D01*
X57309108Y-33999500D01*
X57309104Y-33999500D01*
X57306408Y-33999500D01*
X57306001Y-33999501D01*
X57170675Y-34026419D01*
X57170669Y-34026421D01*
X57043190Y-34079224D01*
X56928458Y-34155886D01*
X56928454Y-34155889D01*
X56830889Y-34253454D01*
X56830883Y-34253462D01*
X56809884Y-34284890D01*
X56756272Y-34329696D01*
X56706782Y-34340000D01*
X56650000Y-34340000D01*
X56650000Y-35126000D01*
X56630315Y-35193039D01*
X56577511Y-35238794D01*
X56526000Y-35250000D01*
X56400000Y-35250000D01*
X56400000Y-35376000D01*
X56380315Y-35443039D01*
X56327511Y-35488794D01*
X56276000Y-35500000D01*
X55175000Y-35500000D01*
X55175000Y-35707844D01*
X55181401Y-35767372D01*
X55181403Y-35767380D01*
X55205567Y-35832167D01*
X55210551Y-35901859D01*
X55177066Y-35963182D01*
X55115742Y-35996666D01*
X55089385Y-35999500D01*
X54612229Y-35999500D01*
X54545190Y-35979815D01*
X54524548Y-35963181D01*
X53437901Y-34876532D01*
X53353524Y-34792155D01*
X55175000Y-34792155D01*
X55175000Y-35000000D01*
X56150000Y-35000000D01*
X56150000Y-34340000D01*
X55627155Y-34340000D01*
X55567627Y-34346401D01*
X55567620Y-34346403D01*
X55432913Y-34396645D01*
X55432906Y-34396649D01*
X55317812Y-34482809D01*
X55317809Y-34482812D01*
X55231649Y-34597906D01*
X55231645Y-34597913D01*
X55181403Y-34732620D01*
X55181401Y-34732627D01*
X55175000Y-34792155D01*
X53353524Y-34792155D01*
X53228420Y-34667051D01*
X53124581Y-34597669D01*
X53124581Y-34597668D01*
X53105495Y-34584916D01*
X53105490Y-34584913D01*
X52968917Y-34528343D01*
X52968907Y-34528340D01*
X52823920Y-34499500D01*
X52823918Y-34499500D01*
X43846588Y-34499500D01*
X43779549Y-34479815D01*
X43772283Y-34474771D01*
X43709252Y-34427586D01*
X43667330Y-34396203D01*
X43667328Y-34396202D01*
X43532482Y-34345908D01*
X43532483Y-34345908D01*
X43472883Y-34339501D01*
X43472881Y-34339500D01*
X43472873Y-34339500D01*
X43472865Y-34339500D01*
X42392884Y-34339500D01*
X42325845Y-34319815D01*
X42289782Y-34284391D01*
X42269113Y-34253457D01*
X42171545Y-34155889D01*
X42171541Y-34155886D01*
X42056809Y-34079224D01*
X41929330Y-34026421D01*
X41929324Y-34026419D01*
X41793998Y-33999501D01*
X41793714Y-33999500D01*
X41790895Y-33999500D01*
X41790892Y-33999500D01*
X41790875Y-33999500D01*
X41725003Y-33999500D01*
X41659111Y-33999499D01*
X41659107Y-33999500D01*
X38398499Y-33999500D01*
X38398482Y-33999499D01*
X38390889Y-33999499D01*
X38324997Y-33999500D01*
X38259108Y-33999500D01*
X38259104Y-33999500D01*
X38256408Y-33999500D01*
X38256001Y-33999501D01*
X38120675Y-34026419D01*
X38120669Y-34026421D01*
X37993190Y-34079224D01*
X37878458Y-34155886D01*
X37878454Y-34155889D01*
X37780889Y-34253454D01*
X37780883Y-34253462D01*
X37759884Y-34284890D01*
X37706272Y-34329696D01*
X37656782Y-34340000D01*
X37600000Y-34340000D01*
X37600000Y-35126000D01*
X37580315Y-35193039D01*
X37527511Y-35238794D01*
X37476000Y-35250000D01*
X37350000Y-35250000D01*
X37350000Y-35376000D01*
X37330315Y-35443039D01*
X37277511Y-35488794D01*
X37226000Y-35500000D01*
X36125000Y-35500000D01*
X36125000Y-35707844D01*
X36131401Y-35767372D01*
X36131403Y-35767380D01*
X36155567Y-35832167D01*
X36160551Y-35901859D01*
X36127066Y-35963182D01*
X36065742Y-35996666D01*
X36039385Y-35999500D01*
X35284798Y-35999500D01*
X35217759Y-35979815D01*
X35179259Y-35940597D01*
X35175060Y-35933789D01*
X35142712Y-35881344D01*
X35018656Y-35757288D01*
X34925888Y-35700069D01*
X34869336Y-35665187D01*
X34869331Y-35665185D01*
X34867862Y-35664698D01*
X34702797Y-35610001D01*
X34702795Y-35610000D01*
X34600010Y-35599500D01*
X33799998Y-35599500D01*
X33799980Y-35599501D01*
X33697203Y-35610000D01*
X33697200Y-35610001D01*
X33530668Y-35665185D01*
X33530663Y-35665187D01*
X33381342Y-35757289D01*
X33287681Y-35850951D01*
X33226358Y-35884436D01*
X33156666Y-35879452D01*
X33112319Y-35850951D01*
X33018657Y-35757289D01*
X33018656Y-35757288D01*
X32925888Y-35700069D01*
X32869336Y-35665187D01*
X32869331Y-35665185D01*
X32867862Y-35664698D01*
X32702797Y-35610001D01*
X32702795Y-35610000D01*
X32600010Y-35599500D01*
X31799998Y-35599500D01*
X31799980Y-35599501D01*
X31697203Y-35610000D01*
X31697200Y-35610001D01*
X31530668Y-35665185D01*
X31530663Y-35665187D01*
X31381342Y-35757289D01*
X31257288Y-35881343D01*
X31257286Y-35881346D01*
X31246579Y-35898704D01*
X31194630Y-35945426D01*
X31125667Y-35956646D01*
X31061585Y-35928800D01*
X31053362Y-35921284D01*
X30008611Y-34876532D01*
X29924234Y-34792155D01*
X36125000Y-34792155D01*
X36125000Y-35000000D01*
X37100000Y-35000000D01*
X37100000Y-34340000D01*
X36577155Y-34340000D01*
X36517627Y-34346401D01*
X36517620Y-34346403D01*
X36382913Y-34396645D01*
X36382906Y-34396649D01*
X36267812Y-34482809D01*
X36267809Y-34482812D01*
X36181649Y-34597906D01*
X36181645Y-34597913D01*
X36131403Y-34732620D01*
X36131401Y-34732627D01*
X36125000Y-34792155D01*
X29924234Y-34792155D01*
X29010292Y-33878213D01*
X29010288Y-33878210D01*
X28879185Y-33790609D01*
X28879172Y-33790602D01*
X28733501Y-33730264D01*
X28733489Y-33730261D01*
X28578845Y-33699500D01*
X28578842Y-33699500D01*
X26275894Y-33699500D01*
X26208855Y-33679815D01*
X26175577Y-33648387D01*
X26155104Y-33620208D01*
X26015931Y-33481035D01*
X25982446Y-33419712D01*
X25987430Y-33350020D01*
X26029302Y-33294087D01*
X26038516Y-33287815D01*
X26193343Y-33192317D01*
X26317315Y-33068345D01*
X26409356Y-32919124D01*
X26409358Y-32919119D01*
X26464505Y-32752697D01*
X26464506Y-32752690D01*
X26474999Y-32649986D01*
X26475000Y-32649973D01*
X26475000Y-32250000D01*
X25404146Y-32250000D01*
X25442630Y-32183343D01*
X25475000Y-32062535D01*
X25475000Y-31937465D01*
X25442630Y-31816657D01*
X25404146Y-31750000D01*
X26474999Y-31750000D01*
X26474999Y-31350028D01*
X26474998Y-31350018D01*
X26469772Y-31298864D01*
X26482541Y-31230171D01*
X26530421Y-31179286D01*
X26598210Y-31162364D01*
X26640582Y-31171698D01*
X26751918Y-31217816D01*
X26900191Y-31247309D01*
X26916228Y-31250499D01*
X26916232Y-31250500D01*
X26916233Y-31250500D01*
X27083768Y-31250500D01*
X27083769Y-31250499D01*
X27248082Y-31217816D01*
X27402863Y-31153703D01*
X27542162Y-31060626D01*
X27660626Y-30942162D01*
X27703841Y-30877486D01*
X37774500Y-30877486D01*
X37774500Y-31172513D01*
X37806571Y-31416113D01*
X37813007Y-31464993D01*
X37854598Y-31620213D01*
X37889361Y-31749951D01*
X37889364Y-31749961D01*
X38002254Y-32022500D01*
X38002258Y-32022510D01*
X38149761Y-32277993D01*
X38329352Y-32512040D01*
X38329358Y-32512047D01*
X38537952Y-32720641D01*
X38537959Y-32720647D01*
X38772006Y-32900238D01*
X39027489Y-33047741D01*
X39027490Y-33047741D01*
X39027493Y-33047743D01*
X39300048Y-33160639D01*
X39585007Y-33236993D01*
X39877494Y-33275500D01*
X39877501Y-33275500D01*
X40172499Y-33275500D01*
X40172506Y-33275500D01*
X40464993Y-33236993D01*
X40749952Y-33160639D01*
X41022507Y-33047743D01*
X41277994Y-32900238D01*
X41512042Y-32720646D01*
X41720646Y-32512042D01*
X41900238Y-32277994D01*
X42047743Y-32022507D01*
X42160639Y-31749952D01*
X42236993Y-31464993D01*
X42275500Y-31172506D01*
X42275500Y-30877494D01*
X42275499Y-30877486D01*
X56924500Y-30877486D01*
X56924500Y-31172513D01*
X56956571Y-31416113D01*
X56963007Y-31464993D01*
X57004598Y-31620213D01*
X57039361Y-31749951D01*
X57039364Y-31749961D01*
X57152254Y-32022500D01*
X57152258Y-32022510D01*
X57299761Y-32277993D01*
X57479352Y-32512040D01*
X57479358Y-32512047D01*
X57687952Y-32720641D01*
X57687959Y-32720647D01*
X57922006Y-32900238D01*
X58177489Y-33047741D01*
X58177490Y-33047741D01*
X58177493Y-33047743D01*
X58450048Y-33160639D01*
X58735007Y-33236993D01*
X59027494Y-33275500D01*
X59027501Y-33275500D01*
X59322499Y-33275500D01*
X59322506Y-33275500D01*
X59614993Y-33236993D01*
X59899952Y-33160639D01*
X60172507Y-33047743D01*
X60427994Y-32900238D01*
X60662042Y-32720646D01*
X60870646Y-32512042D01*
X61050238Y-32277994D01*
X61197743Y-32022507D01*
X61310639Y-31749952D01*
X61386993Y-31464993D01*
X61425500Y-31172506D01*
X61425500Y-30877494D01*
X61425499Y-30877486D01*
X75874500Y-30877486D01*
X75874500Y-31172513D01*
X75906571Y-31416113D01*
X75913007Y-31464993D01*
X75954598Y-31620213D01*
X75989361Y-31749951D01*
X75989364Y-31749961D01*
X76102254Y-32022500D01*
X76102258Y-32022510D01*
X76249761Y-32277993D01*
X76429352Y-32512040D01*
X76429358Y-32512047D01*
X76637952Y-32720641D01*
X76637959Y-32720647D01*
X76872006Y-32900238D01*
X77127489Y-33047741D01*
X77127490Y-33047741D01*
X77127493Y-33047743D01*
X77400048Y-33160639D01*
X77685007Y-33236993D01*
X77977494Y-33275500D01*
X77977501Y-33275500D01*
X78272499Y-33275500D01*
X78272506Y-33275500D01*
X78564993Y-33236993D01*
X78849952Y-33160639D01*
X79122507Y-33047743D01*
X79377994Y-32900238D01*
X79612042Y-32720646D01*
X79820646Y-32512042D01*
X80000238Y-32277994D01*
X80147743Y-32022507D01*
X80260639Y-31749952D01*
X80336993Y-31464993D01*
X80375500Y-31172506D01*
X80375500Y-30877494D01*
X80375499Y-30877486D01*
X94924500Y-30877486D01*
X94924500Y-31172513D01*
X94956571Y-31416113D01*
X94963007Y-31464993D01*
X95004598Y-31620213D01*
X95039361Y-31749951D01*
X95039364Y-31749961D01*
X95152254Y-32022500D01*
X95152258Y-32022510D01*
X95299761Y-32277993D01*
X95479352Y-32512040D01*
X95479358Y-32512047D01*
X95687952Y-32720641D01*
X95687959Y-32720647D01*
X95922006Y-32900238D01*
X96177489Y-33047741D01*
X96177490Y-33047741D01*
X96177493Y-33047743D01*
X96450048Y-33160639D01*
X96735007Y-33236993D01*
X97027494Y-33275500D01*
X97027501Y-33275500D01*
X97322499Y-33275500D01*
X97322506Y-33275500D01*
X97614993Y-33236993D01*
X97899952Y-33160639D01*
X98172507Y-33047743D01*
X98427994Y-32900238D01*
X98662042Y-32720646D01*
X98870646Y-32512042D01*
X99050238Y-32277994D01*
X99197743Y-32022507D01*
X99310639Y-31749952D01*
X99386993Y-31464993D01*
X99425500Y-31172506D01*
X99425500Y-30877494D01*
X99425499Y-30877486D01*
X113974500Y-30877486D01*
X113974500Y-31172513D01*
X114006571Y-31416113D01*
X114013007Y-31464993D01*
X114054598Y-31620213D01*
X114089361Y-31749951D01*
X114089364Y-31749961D01*
X114202254Y-32022500D01*
X114202258Y-32022510D01*
X114349761Y-32277993D01*
X114529352Y-32512040D01*
X114529358Y-32512047D01*
X114737952Y-32720641D01*
X114737959Y-32720647D01*
X114972006Y-32900238D01*
X115227489Y-33047741D01*
X115227490Y-33047741D01*
X115227493Y-33047743D01*
X115500048Y-33160639D01*
X115785007Y-33236993D01*
X116077494Y-33275500D01*
X116077501Y-33275500D01*
X116372499Y-33275500D01*
X116372506Y-33275500D01*
X116664993Y-33236993D01*
X116949952Y-33160639D01*
X117222507Y-33047743D01*
X117477994Y-32900238D01*
X117712042Y-32720646D01*
X117920646Y-32512042D01*
X118100238Y-32277994D01*
X118247743Y-32022507D01*
X118360639Y-31749952D01*
X118436993Y-31464993D01*
X118475500Y-31172506D01*
X118475500Y-30877494D01*
X118436993Y-30585007D01*
X118360639Y-30300048D01*
X118247743Y-30027493D01*
X118100238Y-29772006D01*
X117920647Y-29537959D01*
X117920641Y-29537952D01*
X117712047Y-29329358D01*
X117712040Y-29329352D01*
X117477993Y-29149761D01*
X117222510Y-29002258D01*
X117222500Y-29002254D01*
X116949961Y-28889364D01*
X116949954Y-28889362D01*
X116949952Y-28889361D01*
X116664993Y-28813007D01*
X116616113Y-28806571D01*
X116372513Y-28774500D01*
X116372506Y-28774500D01*
X116077494Y-28774500D01*
X116077486Y-28774500D01*
X115799085Y-28811153D01*
X115785007Y-28813007D01*
X115645756Y-28850319D01*
X115500048Y-28889361D01*
X115500038Y-28889364D01*
X115227499Y-29002254D01*
X115227489Y-29002258D01*
X114972006Y-29149761D01*
X114737959Y-29329352D01*
X114737952Y-29329358D01*
X114529358Y-29537952D01*
X114529352Y-29537959D01*
X114349761Y-29772006D01*
X114202258Y-30027489D01*
X114202254Y-30027499D01*
X114089364Y-30300038D01*
X114089361Y-30300048D01*
X114030851Y-30518414D01*
X114013008Y-30585004D01*
X114013006Y-30585015D01*
X113974500Y-30877486D01*
X99425499Y-30877486D01*
X99386993Y-30585007D01*
X99310639Y-30300048D01*
X99197743Y-30027493D01*
X99050238Y-29772006D01*
X98870647Y-29537959D01*
X98870641Y-29537952D01*
X98662047Y-29329358D01*
X98662040Y-29329352D01*
X98427993Y-29149761D01*
X98172510Y-29002258D01*
X98172500Y-29002254D01*
X97899961Y-28889364D01*
X97899954Y-28889362D01*
X97899952Y-28889361D01*
X97614993Y-28813007D01*
X97566113Y-28806571D01*
X97322513Y-28774500D01*
X97322506Y-28774500D01*
X97027494Y-28774500D01*
X97027486Y-28774500D01*
X96749085Y-28811153D01*
X96735007Y-28813007D01*
X96595756Y-28850319D01*
X96450048Y-28889361D01*
X96450038Y-28889364D01*
X96177499Y-29002254D01*
X96177489Y-29002258D01*
X95922006Y-29149761D01*
X95687959Y-29329352D01*
X95687952Y-29329358D01*
X95479358Y-29537952D01*
X95479352Y-29537959D01*
X95299761Y-29772006D01*
X95152258Y-30027489D01*
X95152254Y-30027499D01*
X95039364Y-30300038D01*
X95039361Y-30300048D01*
X94980851Y-30518414D01*
X94963008Y-30585004D01*
X94963006Y-30585015D01*
X94924500Y-30877486D01*
X80375499Y-30877486D01*
X80336993Y-30585007D01*
X80260639Y-30300048D01*
X80147743Y-30027493D01*
X80000238Y-29772006D01*
X79820647Y-29537959D01*
X79820641Y-29537952D01*
X79612047Y-29329358D01*
X79612040Y-29329352D01*
X79377993Y-29149761D01*
X79122510Y-29002258D01*
X79122500Y-29002254D01*
X78849961Y-28889364D01*
X78849954Y-28889362D01*
X78849952Y-28889361D01*
X78564993Y-28813007D01*
X78516113Y-28806571D01*
X78272513Y-28774500D01*
X78272506Y-28774500D01*
X77977494Y-28774500D01*
X77977486Y-28774500D01*
X77699085Y-28811153D01*
X77685007Y-28813007D01*
X77545756Y-28850319D01*
X77400048Y-28889361D01*
X77400038Y-28889364D01*
X77127499Y-29002254D01*
X77127489Y-29002258D01*
X76872006Y-29149761D01*
X76637959Y-29329352D01*
X76637952Y-29329358D01*
X76429358Y-29537952D01*
X76429352Y-29537959D01*
X76249761Y-29772006D01*
X76102258Y-30027489D01*
X76102254Y-30027499D01*
X75989364Y-30300038D01*
X75989361Y-30300048D01*
X75930851Y-30518414D01*
X75913008Y-30585004D01*
X75913006Y-30585015D01*
X75874500Y-30877486D01*
X61425499Y-30877486D01*
X61386993Y-30585007D01*
X61310639Y-30300048D01*
X61197743Y-30027493D01*
X61050238Y-29772006D01*
X60870647Y-29537959D01*
X60870641Y-29537952D01*
X60662047Y-29329358D01*
X60662040Y-29329352D01*
X60427993Y-29149761D01*
X60172510Y-29002258D01*
X60172500Y-29002254D01*
X59899961Y-28889364D01*
X59899954Y-28889362D01*
X59899952Y-28889361D01*
X59614993Y-28813007D01*
X59566113Y-28806571D01*
X59322513Y-28774500D01*
X59322506Y-28774500D01*
X59027494Y-28774500D01*
X59027486Y-28774500D01*
X58749085Y-28811153D01*
X58735007Y-28813007D01*
X58595756Y-28850319D01*
X58450048Y-28889361D01*
X58450038Y-28889364D01*
X58177499Y-29002254D01*
X58177489Y-29002258D01*
X57922006Y-29149761D01*
X57687959Y-29329352D01*
X57687952Y-29329358D01*
X57479358Y-29537952D01*
X57479352Y-29537959D01*
X57299761Y-29772006D01*
X57152258Y-30027489D01*
X57152254Y-30027499D01*
X57039364Y-30300038D01*
X57039361Y-30300048D01*
X56980851Y-30518414D01*
X56963008Y-30585004D01*
X56963006Y-30585015D01*
X56924500Y-30877486D01*
X42275499Y-30877486D01*
X42236993Y-30585007D01*
X42160639Y-30300048D01*
X42047743Y-30027493D01*
X41900238Y-29772006D01*
X41720647Y-29537959D01*
X41720641Y-29537952D01*
X41512047Y-29329358D01*
X41512040Y-29329352D01*
X41277993Y-29149761D01*
X41022510Y-29002258D01*
X41022500Y-29002254D01*
X40749961Y-28889364D01*
X40749954Y-28889362D01*
X40749952Y-28889361D01*
X40464993Y-28813007D01*
X40416113Y-28806571D01*
X40172513Y-28774500D01*
X40172506Y-28774500D01*
X39877494Y-28774500D01*
X39877486Y-28774500D01*
X39599085Y-28811153D01*
X39585007Y-28813007D01*
X39445756Y-28850319D01*
X39300048Y-28889361D01*
X39300038Y-28889364D01*
X39027499Y-29002254D01*
X39027489Y-29002258D01*
X38772006Y-29149761D01*
X38537959Y-29329352D01*
X38537952Y-29329358D01*
X38329358Y-29537952D01*
X38329352Y-29537959D01*
X38149761Y-29772006D01*
X38002258Y-30027489D01*
X38002254Y-30027499D01*
X37889364Y-30300038D01*
X37889361Y-30300048D01*
X37830851Y-30518414D01*
X37813008Y-30585004D01*
X37813006Y-30585015D01*
X37774500Y-30877486D01*
X27703841Y-30877486D01*
X27753703Y-30802863D01*
X27817816Y-30648082D01*
X27850500Y-30483767D01*
X27850500Y-30316233D01*
X27817816Y-30151918D01*
X27753703Y-29997137D01*
X27684597Y-29893713D01*
X27660626Y-29857837D01*
X27542162Y-29739373D01*
X27402860Y-29646295D01*
X27248082Y-29582184D01*
X27248074Y-29582182D01*
X27083771Y-29549500D01*
X27083767Y-29549500D01*
X26916233Y-29549500D01*
X26916228Y-29549500D01*
X26751925Y-29582182D01*
X26751917Y-29582184D01*
X26597139Y-29646295D01*
X26457837Y-29739373D01*
X26339373Y-29857837D01*
X26246295Y-29997139D01*
X26182184Y-30151917D01*
X26182182Y-30151925D01*
X26149500Y-30316228D01*
X26149500Y-30316232D01*
X26149500Y-30316233D01*
X26149500Y-30483767D01*
X26149501Y-30483771D01*
X26164762Y-30560498D01*
X26158533Y-30630090D01*
X26115670Y-30685267D01*
X26049780Y-30708510D01*
X26004140Y-30702394D01*
X25877697Y-30660494D01*
X25877690Y-30660493D01*
X25774986Y-30650000D01*
X25250000Y-30650000D01*
X25250000Y-31595854D01*
X25183343Y-31557370D01*
X25062535Y-31525000D01*
X24937465Y-31525000D01*
X24816657Y-31557370D01*
X24750000Y-31595854D01*
X24750000Y-30650000D01*
X24225028Y-30650000D01*
X24225012Y-30650001D01*
X24122302Y-30660494D01*
X23955880Y-30715641D01*
X23955875Y-30715643D01*
X23806654Y-30807684D01*
X23682684Y-30931654D01*
X23590643Y-31080875D01*
X23590641Y-31080880D01*
X23535494Y-31247302D01*
X23535493Y-31247309D01*
X23525000Y-31350013D01*
X23525000Y-31750000D01*
X24595854Y-31750000D01*
X24557370Y-31816657D01*
X24525000Y-31937465D01*
X24525000Y-32062535D01*
X24557370Y-32183343D01*
X24595854Y-32250000D01*
X23525001Y-32250000D01*
X23525001Y-32649986D01*
X23535494Y-32752697D01*
X23590641Y-32919119D01*
X23590643Y-32919124D01*
X23682684Y-33068345D01*
X23806654Y-33192315D01*
X23961484Y-33287815D01*
X24008208Y-33339763D01*
X24019431Y-33408726D01*
X23991587Y-33472808D01*
X23984069Y-33481035D01*
X23844889Y-33620215D01*
X23719951Y-33792179D01*
X23623444Y-33981585D01*
X23557753Y-34183760D01*
X23531993Y-34346403D01*
X23524500Y-34393713D01*
X23524500Y-34606287D01*
X23534124Y-34667048D01*
X23557753Y-34816239D01*
X23623444Y-35018414D01*
X23719951Y-35207820D01*
X23844890Y-35379786D01*
X23995209Y-35530105D01*
X23995214Y-35530109D01*
X24159793Y-35649682D01*
X24202459Y-35705011D01*
X24208438Y-35774625D01*
X24175833Y-35836420D01*
X24159793Y-35850318D01*
X23995214Y-35969890D01*
X23995209Y-35969894D01*
X23844890Y-36120213D01*
X23719951Y-36292179D01*
X23623444Y-36481585D01*
X23557753Y-36683760D01*
X23524500Y-36893713D01*
X23524500Y-37106286D01*
X23547015Y-37248444D01*
X23557754Y-37316243D01*
X23622151Y-37514437D01*
X23623444Y-37518414D01*
X23719951Y-37707820D01*
X23844890Y-37879786D01*
X23995213Y-38030109D01*
X24167179Y-38155048D01*
X24167181Y-38155049D01*
X24167184Y-38155051D01*
X24356588Y-38251557D01*
X24558757Y-38317246D01*
X24768713Y-38350500D01*
X24768714Y-38350500D01*
X25231286Y-38350500D01*
X25231287Y-38350500D01*
X25441243Y-38317246D01*
X25643412Y-38251557D01*
X25815223Y-38164014D01*
X25871518Y-38150500D01*
X26472085Y-38150500D01*
X26539124Y-38170185D01*
X26559766Y-38186819D01*
X27180858Y-38807911D01*
X27214343Y-38869234D01*
X27217177Y-38895592D01*
X27217177Y-45046042D01*
X27197492Y-45113081D01*
X27158275Y-45151580D01*
X27149021Y-45157287D01*
X27024966Y-45281342D01*
X26932864Y-45430663D01*
X26932862Y-45430668D01*
X26923527Y-45458840D01*
X26877678Y-45597203D01*
X26877678Y-45597204D01*
X26877677Y-45597204D01*
X26867177Y-45699983D01*
X26867177Y-47300001D01*
X26867178Y-47300018D01*
X26877677Y-47402796D01*
X26877678Y-47402799D01*
X26915989Y-47518412D01*
X26932863Y-47569334D01*
X27024965Y-47718656D01*
X27149021Y-47842712D01*
X27158268Y-47848416D01*
X27204995Y-47900360D01*
X27217177Y-47953957D01*
X27217177Y-49522715D01*
X27217176Y-49522730D01*
X27217176Y-49527131D01*
X27217176Y-49708223D01*
X27234285Y-49816239D01*
X27236932Y-49832951D01*
X27236932Y-49832952D01*
X27245506Y-49887086D01*
X27245506Y-49887089D01*
X27301464Y-50059313D01*
X27301465Y-50059316D01*
X27383683Y-50220674D01*
X27490117Y-50367170D01*
X27490121Y-50367174D01*
X27490124Y-50367178D01*
X27618176Y-50495230D01*
X27622506Y-50499560D01*
X27622517Y-50499570D01*
X30813181Y-53690234D01*
X30846666Y-53751557D01*
X30849500Y-53777915D01*
X30849500Y-57155038D01*
X30849499Y-57155053D01*
X30849499Y-57159454D01*
X30849499Y-57340546D01*
X30869095Y-57464266D01*
X30870794Y-57474991D01*
X30870794Y-57474992D01*
X30877829Y-57519409D01*
X30877829Y-57519412D01*
X30933787Y-57691636D01*
X30933788Y-57691639D01*
X30977844Y-57778101D01*
X31013779Y-57848628D01*
X31016006Y-57852997D01*
X31122440Y-57999493D01*
X31122444Y-57999497D01*
X31122447Y-57999501D01*
X31189215Y-58066269D01*
X31254829Y-58131883D01*
X31254840Y-58131893D01*
X33161266Y-60038319D01*
X33194751Y-60099642D01*
X33189767Y-60169334D01*
X33147895Y-60225267D01*
X33082431Y-60249684D01*
X33073585Y-60250000D01*
X20874000Y-60250000D01*
X20806961Y-60230315D01*
X20761206Y-60177511D01*
X20750000Y-60126000D01*
X20750000Y-55968872D01*
X22999500Y-55968872D01*
X22999500Y-56231127D01*
X23020851Y-56393291D01*
X23033730Y-56491116D01*
X23091936Y-56708343D01*
X23101602Y-56744418D01*
X23101605Y-56744428D01*
X23201953Y-56986690D01*
X23201958Y-56986700D01*
X23333075Y-57213803D01*
X23492718Y-57421851D01*
X23492726Y-57421860D01*
X23678140Y-57607274D01*
X23678148Y-57607281D01*
X23678149Y-57607282D01*
X23679734Y-57608498D01*
X23886196Y-57766924D01*
X24113299Y-57898041D01*
X24113309Y-57898046D01*
X24355571Y-57998394D01*
X24355581Y-57998398D01*
X24608884Y-58066270D01*
X24868880Y-58100500D01*
X24868887Y-58100500D01*
X25131113Y-58100500D01*
X25131120Y-58100500D01*
X25391116Y-58066270D01*
X25644419Y-57998398D01*
X25886697Y-57898043D01*
X26113803Y-57766924D01*
X26321851Y-57607282D01*
X26321855Y-57607277D01*
X26321860Y-57607274D01*
X26507274Y-57421860D01*
X26507277Y-57421855D01*
X26507282Y-57421851D01*
X26666924Y-57213803D01*
X26798043Y-56986697D01*
X26898398Y-56744419D01*
X26966270Y-56491116D01*
X27000500Y-56231120D01*
X27000500Y-55968880D01*
X26966270Y-55708884D01*
X26898398Y-55455581D01*
X26867002Y-55379784D01*
X26798046Y-55213309D01*
X26798041Y-55213299D01*
X26666924Y-54986196D01*
X26507281Y-54778148D01*
X26507274Y-54778140D01*
X26321860Y-54592726D01*
X26321851Y-54592718D01*
X26113803Y-54433075D01*
X25886700Y-54301958D01*
X25886690Y-54301953D01*
X25644428Y-54201605D01*
X25644421Y-54201603D01*
X25644419Y-54201602D01*
X25391116Y-54133730D01*
X25332402Y-54126000D01*
X25131127Y-54099500D01*
X25131120Y-54099500D01*
X24868880Y-54099500D01*
X24868872Y-54099500D01*
X24637772Y-54129926D01*
X24608884Y-54133730D01*
X24422180Y-54183757D01*
X24355581Y-54201602D01*
X24355571Y-54201605D01*
X24113309Y-54301953D01*
X24113299Y-54301958D01*
X23886196Y-54433075D01*
X23678148Y-54592718D01*
X23492718Y-54778148D01*
X23333075Y-54986196D01*
X23201958Y-55213299D01*
X23201953Y-55213309D01*
X23101605Y-55455571D01*
X23101602Y-55455581D01*
X23034527Y-55705912D01*
X23033730Y-55708885D01*
X22999500Y-55968872D01*
X20750000Y-55968872D01*
X20750000Y-46381947D01*
X21867677Y-46381947D01*
X21867677Y-46618052D01*
X21904611Y-46851247D01*
X21977574Y-47075802D01*
X22084764Y-47286174D01*
X22145015Y-47369104D01*
X22145017Y-47369105D01*
X22884714Y-46629408D01*
X22901752Y-46692993D01*
X22967578Y-46807007D01*
X23060670Y-46900099D01*
X23174684Y-46965925D01*
X23238267Y-46982962D01*
X22498570Y-47722658D01*
X22581505Y-47782914D01*
X22791874Y-47890102D01*
X23016429Y-47963065D01*
X23016428Y-47963065D01*
X23249625Y-48000000D01*
X23485729Y-48000000D01*
X23718924Y-47963065D01*
X23943479Y-47890102D01*
X24153840Y-47782918D01*
X24153846Y-47782914D01*
X24236781Y-47722658D01*
X24236782Y-47722658D01*
X23497085Y-46982962D01*
X23560670Y-46965925D01*
X23674684Y-46900099D01*
X23767776Y-46807007D01*
X23833602Y-46692993D01*
X23850639Y-46629408D01*
X24590335Y-47369105D01*
X24590335Y-47369104D01*
X24650591Y-47286169D01*
X24650595Y-47286163D01*
X24757779Y-47075802D01*
X24830742Y-46851247D01*
X24867677Y-46618052D01*
X24867677Y-46381947D01*
X24830742Y-46148752D01*
X24757779Y-45924197D01*
X24650591Y-45713828D01*
X24590335Y-45630894D01*
X24590335Y-45630893D01*
X23850639Y-46370590D01*
X23833602Y-46307007D01*
X23767776Y-46192993D01*
X23674684Y-46099901D01*
X23560670Y-46034075D01*
X23497086Y-46017037D01*
X24236782Y-45277340D01*
X24236781Y-45277338D01*
X24153851Y-45217087D01*
X23943479Y-45109897D01*
X23718924Y-45036934D01*
X23718925Y-45036934D01*
X23485729Y-45000000D01*
X23249625Y-45000000D01*
X23016429Y-45036934D01*
X22791874Y-45109897D01*
X22581507Y-45217084D01*
X22498571Y-45277340D01*
X23238268Y-46017037D01*
X23174684Y-46034075D01*
X23060670Y-46099901D01*
X22967578Y-46192993D01*
X22901752Y-46307007D01*
X22884714Y-46370591D01*
X22145017Y-45630894D01*
X22084761Y-45713830D01*
X21977574Y-45924197D01*
X21904611Y-46148752D01*
X21867677Y-46381947D01*
X20750000Y-46381947D01*
X20750000Y-28359038D01*
X34614500Y-28359038D01*
X34614500Y-28610961D01*
X34653910Y-28859785D01*
X34731760Y-29099383D01*
X34757430Y-29149762D01*
X34829995Y-29292179D01*
X34846132Y-29323848D01*
X34994201Y-29527649D01*
X34994205Y-29527654D01*
X35172345Y-29705794D01*
X35172350Y-29705798D01*
X35350117Y-29834952D01*
X35376155Y-29853870D01*
X35519184Y-29926747D01*
X35600616Y-29968239D01*
X35600618Y-29968239D01*
X35600621Y-29968241D01*
X35840215Y-30046090D01*
X36089038Y-30085500D01*
X36089039Y-30085500D01*
X36340961Y-30085500D01*
X36340962Y-30085500D01*
X36589785Y-30046090D01*
X36829379Y-29968241D01*
X37053845Y-29853870D01*
X37257656Y-29705793D01*
X37435793Y-29527656D01*
X37583870Y-29323845D01*
X37698241Y-29099379D01*
X37776090Y-28859785D01*
X37815500Y-28610962D01*
X37815500Y-28359038D01*
X53764500Y-28359038D01*
X53764500Y-28610961D01*
X53803910Y-28859785D01*
X53881760Y-29099383D01*
X53907430Y-29149762D01*
X53979995Y-29292179D01*
X53996132Y-29323848D01*
X54144201Y-29527649D01*
X54144205Y-29527654D01*
X54322345Y-29705794D01*
X54322350Y-29705798D01*
X54500117Y-29834952D01*
X54526155Y-29853870D01*
X54669184Y-29926747D01*
X54750616Y-29968239D01*
X54750618Y-29968239D01*
X54750621Y-29968241D01*
X54990215Y-30046090D01*
X55239038Y-30085500D01*
X55239039Y-30085500D01*
X55490961Y-30085500D01*
X55490962Y-30085500D01*
X55739785Y-30046090D01*
X55979379Y-29968241D01*
X56203845Y-29853870D01*
X56407656Y-29705793D01*
X56585793Y-29527656D01*
X56733870Y-29323845D01*
X56848241Y-29099379D01*
X56926090Y-28859785D01*
X56965500Y-28610962D01*
X56965500Y-28359038D01*
X72714500Y-28359038D01*
X72714500Y-28610961D01*
X72753910Y-28859785D01*
X72831760Y-29099383D01*
X72857430Y-29149762D01*
X72929995Y-29292179D01*
X72946132Y-29323848D01*
X73094201Y-29527649D01*
X73094205Y-29527654D01*
X73272345Y-29705794D01*
X73272350Y-29705798D01*
X73450117Y-29834952D01*
X73476155Y-29853870D01*
X73619184Y-29926747D01*
X73700616Y-29968239D01*
X73700618Y-29968239D01*
X73700621Y-29968241D01*
X73940215Y-30046090D01*
X74189038Y-30085500D01*
X74189039Y-30085500D01*
X74440961Y-30085500D01*
X74440962Y-30085500D01*
X74689785Y-30046090D01*
X74929379Y-29968241D01*
X75153845Y-29853870D01*
X75357656Y-29705793D01*
X75535793Y-29527656D01*
X75683870Y-29323845D01*
X75798241Y-29099379D01*
X75876090Y-28859785D01*
X75915500Y-28610962D01*
X75915500Y-28359038D01*
X91764500Y-28359038D01*
X91764500Y-28610961D01*
X91803910Y-28859785D01*
X91881760Y-29099383D01*
X91907430Y-29149762D01*
X91979995Y-29292179D01*
X91996132Y-29323848D01*
X92144201Y-29527649D01*
X92144205Y-29527654D01*
X92322345Y-29705794D01*
X92322350Y-29705798D01*
X92500117Y-29834952D01*
X92526155Y-29853870D01*
X92669184Y-29926747D01*
X92750616Y-29968239D01*
X92750618Y-29968239D01*
X92750621Y-29968241D01*
X92990215Y-30046090D01*
X93239038Y-30085500D01*
X93239039Y-30085500D01*
X93490961Y-30085500D01*
X93490962Y-30085500D01*
X93739785Y-30046090D01*
X93979379Y-29968241D01*
X94203845Y-29853870D01*
X94407656Y-29705793D01*
X94585793Y-29527656D01*
X94733870Y-29323845D01*
X94848241Y-29099379D01*
X94926090Y-28859785D01*
X94965500Y-28610962D01*
X94965500Y-28359038D01*
X110814500Y-28359038D01*
X110814500Y-28610961D01*
X110853910Y-28859785D01*
X110931760Y-29099383D01*
X110957430Y-29149762D01*
X111029995Y-29292179D01*
X111046132Y-29323848D01*
X111194201Y-29527649D01*
X111194205Y-29527654D01*
X111372345Y-29705794D01*
X111372350Y-29705798D01*
X111550117Y-29834952D01*
X111576155Y-29853870D01*
X111719184Y-29926747D01*
X111800616Y-29968239D01*
X111800618Y-29968239D01*
X111800621Y-29968241D01*
X112040215Y-30046090D01*
X112289038Y-30085500D01*
X112289039Y-30085500D01*
X112540961Y-30085500D01*
X112540962Y-30085500D01*
X112789785Y-30046090D01*
X113029379Y-29968241D01*
X113253845Y-29853870D01*
X113457656Y-29705793D01*
X113635793Y-29527656D01*
X113783870Y-29323845D01*
X113898241Y-29099379D01*
X113976090Y-28859785D01*
X114015500Y-28610962D01*
X114015500Y-28359038D01*
X113976090Y-28110215D01*
X113898241Y-27870621D01*
X113898239Y-27870618D01*
X113898239Y-27870616D01*
X113856747Y-27789184D01*
X113783870Y-27646155D01*
X113681753Y-27505602D01*
X113635798Y-27442350D01*
X113635794Y-27442345D01*
X113479010Y-27285561D01*
X113457656Y-27264207D01*
X113315490Y-27160917D01*
X113314329Y-27160032D01*
X113294447Y-27132986D01*
X113273949Y-27106402D01*
X113273620Y-27104653D01*
X113272946Y-27103736D01*
X113272693Y-27099718D01*
X113265500Y-27061415D01*
X113265500Y-25238650D01*
X113285185Y-25171611D01*
X113301819Y-25150969D01*
X114315969Y-24136819D01*
X114377292Y-24103334D01*
X114403650Y-24100500D01*
X118607217Y-24100500D01*
X118674256Y-24120185D01*
X118720011Y-24172989D01*
X118729955Y-24242147D01*
X118700930Y-24305703D01*
X118642152Y-24343477D01*
X118626615Y-24346973D01*
X118390330Y-24384397D01*
X118150815Y-24462219D01*
X117926413Y-24576559D01*
X117824301Y-24650747D01*
X117824300Y-24650748D01*
X118440974Y-25267421D01*
X118409742Y-25280359D01*
X118286903Y-25362437D01*
X118182437Y-25466903D01*
X118100359Y-25589742D01*
X118087421Y-25620974D01*
X117470748Y-25004300D01*
X117470747Y-25004301D01*
X117396559Y-25106413D01*
X117282219Y-25330815D01*
X117204397Y-25570330D01*
X117165000Y-25819071D01*
X117165000Y-26070928D01*
X117204397Y-26319669D01*
X117282219Y-26559184D01*
X117396557Y-26783583D01*
X117470748Y-26885697D01*
X117470748Y-26885698D01*
X118087421Y-26269024D01*
X118100359Y-26300258D01*
X118182437Y-26423097D01*
X118286903Y-26527563D01*
X118409742Y-26609641D01*
X118440974Y-26622577D01*
X117824300Y-27239250D01*
X117926416Y-27313442D01*
X118150815Y-27427780D01*
X118390330Y-27505602D01*
X118639072Y-27545000D01*
X118890928Y-27545000D01*
X119139669Y-27505602D01*
X119379184Y-27427780D01*
X119603575Y-27313446D01*
X119603581Y-27313442D01*
X119705697Y-27239250D01*
X119705698Y-27239250D01*
X119089025Y-26622578D01*
X119120258Y-26609641D01*
X119243097Y-26527563D01*
X119347563Y-26423097D01*
X119429641Y-26300258D01*
X119442577Y-26269025D01*
X120059250Y-26885698D01*
X120059250Y-26885697D01*
X120133442Y-26783581D01*
X120133446Y-26783575D01*
X120247780Y-26559184D01*
X120325602Y-26319669D01*
X120365000Y-26070928D01*
X120365000Y-25819071D01*
X120325602Y-25570330D01*
X120247780Y-25330815D01*
X120133442Y-25106416D01*
X120059250Y-25004301D01*
X120059250Y-25004300D01*
X119442577Y-25620973D01*
X119429641Y-25589742D01*
X119347563Y-25466903D01*
X119243097Y-25362437D01*
X119120258Y-25280359D01*
X119089024Y-25267421D01*
X119705698Y-24650748D01*
X119603583Y-24576557D01*
X119379184Y-24462219D01*
X119139669Y-24384397D01*
X118903385Y-24346973D01*
X118840250Y-24317044D01*
X118803319Y-24257732D01*
X118804317Y-24187870D01*
X118842927Y-24129637D01*
X118906891Y-24101523D01*
X118922783Y-24100500D01*
X123346349Y-24100500D01*
X123413388Y-24120185D01*
X123434030Y-24136819D01*
X124002579Y-24705368D01*
X124036064Y-24766691D01*
X124037371Y-24812446D01*
X124024500Y-24893713D01*
X124024500Y-25106287D01*
X124057754Y-25316243D01*
X124072763Y-25362437D01*
X124123444Y-25518414D01*
X124219951Y-25707820D01*
X124344890Y-25879786D01*
X124495209Y-26030105D01*
X124495214Y-26030109D01*
X124659793Y-26149682D01*
X124702459Y-26205011D01*
X124708438Y-26274625D01*
X124675833Y-26336420D01*
X124659793Y-26350318D01*
X124495214Y-26469890D01*
X124495209Y-26469894D01*
X124344890Y-26620213D01*
X124219951Y-26792179D01*
X124123444Y-26981585D01*
X124057753Y-27183760D01*
X124024500Y-27393713D01*
X124024500Y-27606286D01*
X124057753Y-27816239D01*
X124123444Y-28018414D01*
X124219951Y-28207820D01*
X124344890Y-28379786D01*
X124495209Y-28530105D01*
X124495214Y-28530109D01*
X124659793Y-28649682D01*
X124702459Y-28705011D01*
X124708438Y-28774625D01*
X124675833Y-28836420D01*
X124659793Y-28850318D01*
X124495214Y-28969890D01*
X124495209Y-28969894D01*
X124344890Y-29120213D01*
X124219951Y-29292179D01*
X124123444Y-29481585D01*
X124057753Y-29683760D01*
X124024500Y-29893713D01*
X124024500Y-30106286D01*
X124057751Y-30316228D01*
X124057754Y-30316243D01*
X124112187Y-30483771D01*
X124123444Y-30518414D01*
X124219951Y-30707820D01*
X124344890Y-30879786D01*
X124495209Y-31030105D01*
X124495214Y-31030109D01*
X124659793Y-31149682D01*
X124702459Y-31205011D01*
X124708438Y-31274625D01*
X124675833Y-31336420D01*
X124659793Y-31350318D01*
X124495214Y-31469890D01*
X124495209Y-31469894D01*
X124344890Y-31620213D01*
X124219951Y-31792179D01*
X124123444Y-31981585D01*
X124057753Y-32183760D01*
X124047262Y-32250000D01*
X124024500Y-32393713D01*
X124024500Y-32606287D01*
X124057754Y-32816243D01*
X124091182Y-32919124D01*
X124123444Y-33018414D01*
X124219951Y-33207820D01*
X124344890Y-33379786D01*
X124495209Y-33530105D01*
X124495214Y-33530109D01*
X124659793Y-33649682D01*
X124702459Y-33705011D01*
X124708438Y-33774625D01*
X124675833Y-33836420D01*
X124659793Y-33850318D01*
X124495214Y-33969890D01*
X124495209Y-33969894D01*
X124344890Y-34120213D01*
X124219951Y-34292179D01*
X124123444Y-34481585D01*
X124057753Y-34683760D01*
X124024500Y-34893713D01*
X124024500Y-35106286D01*
X124056598Y-35308949D01*
X124057754Y-35316243D01*
X124113819Y-35488794D01*
X124123444Y-35518414D01*
X124219951Y-35707820D01*
X124344890Y-35879786D01*
X124484068Y-36018964D01*
X124517553Y-36080287D01*
X124512569Y-36149979D01*
X124470697Y-36205912D01*
X124461484Y-36212183D01*
X124306659Y-36307680D01*
X124306655Y-36307683D01*
X124182684Y-36431654D01*
X124090643Y-36580875D01*
X124090641Y-36580880D01*
X124035494Y-36747302D01*
X124035493Y-36747309D01*
X124025000Y-36850013D01*
X124025000Y-37250000D01*
X125095854Y-37250000D01*
X125057370Y-37316657D01*
X125025000Y-37437465D01*
X125025000Y-37562535D01*
X125057370Y-37683343D01*
X125095854Y-37750000D01*
X124025001Y-37750000D01*
X124025001Y-38149986D01*
X124030227Y-38201137D01*
X124017457Y-38269830D01*
X123969577Y-38320715D01*
X123901787Y-38337635D01*
X123859416Y-38328300D01*
X123748082Y-38282184D01*
X123748074Y-38282182D01*
X123583771Y-38249500D01*
X123583767Y-38249500D01*
X123416233Y-38249500D01*
X123416228Y-38249500D01*
X123251925Y-38282182D01*
X123251917Y-38282184D01*
X123097139Y-38346295D01*
X122957837Y-38439373D01*
X122839373Y-38557837D01*
X122746295Y-38697139D01*
X122682184Y-38851917D01*
X122682182Y-38851925D01*
X122649500Y-39016228D01*
X122649500Y-39183771D01*
X122682182Y-39348074D01*
X122682184Y-39348082D01*
X122746295Y-39502860D01*
X122839373Y-39642162D01*
X122957837Y-39760626D01*
X123050494Y-39822537D01*
X123097137Y-39853703D01*
X123251918Y-39917816D01*
X123416228Y-39950499D01*
X123416232Y-39950500D01*
X123416233Y-39950500D01*
X123583768Y-39950500D01*
X123583769Y-39950499D01*
X123748082Y-39917816D01*
X123902863Y-39853703D01*
X124042162Y-39760626D01*
X124160626Y-39642162D01*
X124253703Y-39502863D01*
X124317816Y-39348082D01*
X124350500Y-39183767D01*
X124350500Y-39016233D01*
X124350364Y-39015550D01*
X124335238Y-38939502D01*
X124341465Y-38869910D01*
X124384329Y-38814733D01*
X124450218Y-38791489D01*
X124495860Y-38797605D01*
X124622305Y-38839505D01*
X124622309Y-38839506D01*
X124725019Y-38849999D01*
X125249999Y-38849999D01*
X125250000Y-38849998D01*
X125250000Y-37904145D01*
X125316657Y-37942630D01*
X125437465Y-37975000D01*
X125562535Y-37975000D01*
X125683343Y-37942630D01*
X125750000Y-37904145D01*
X125750000Y-38849999D01*
X126274972Y-38849999D01*
X126274986Y-38849998D01*
X126377697Y-38839505D01*
X126544119Y-38784358D01*
X126544124Y-38784356D01*
X126693345Y-38692315D01*
X126817315Y-38568345D01*
X126909356Y-38419124D01*
X126909359Y-38419117D01*
X126932316Y-38349838D01*
X126932316Y-38349837D01*
X126964505Y-38252697D01*
X126964506Y-38252690D01*
X126974999Y-38149986D01*
X126975000Y-38149973D01*
X126975000Y-37750000D01*
X125904146Y-37750000D01*
X125942630Y-37683343D01*
X125975000Y-37562535D01*
X125975000Y-37437465D01*
X125942630Y-37316657D01*
X125904146Y-37250000D01*
X126974999Y-37250000D01*
X126974999Y-36850028D01*
X126974998Y-36850013D01*
X126964505Y-36747302D01*
X126909358Y-36580880D01*
X126909356Y-36580875D01*
X126817315Y-36431654D01*
X126693345Y-36307684D01*
X126538515Y-36212184D01*
X126491791Y-36160236D01*
X126480568Y-36091273D01*
X126508412Y-36027191D01*
X126515909Y-36018986D01*
X126655104Y-35879792D01*
X126780051Y-35707816D01*
X126876557Y-35518412D01*
X126942246Y-35316243D01*
X126975500Y-35106287D01*
X126975500Y-34893713D01*
X126942246Y-34683757D01*
X126876557Y-34481588D01*
X126780051Y-34292184D01*
X126780049Y-34292181D01*
X126780048Y-34292179D01*
X126655109Y-34120213D01*
X126504792Y-33969896D01*
X126504784Y-33969890D01*
X126340204Y-33850316D01*
X126297540Y-33794989D01*
X126291561Y-33725376D01*
X126324166Y-33663580D01*
X126340199Y-33649686D01*
X126504792Y-33530104D01*
X126655104Y-33379792D01*
X126655106Y-33379788D01*
X126655109Y-33379786D01*
X126780048Y-33207820D01*
X126780047Y-33207820D01*
X126780051Y-33207816D01*
X126876557Y-33018412D01*
X126942246Y-32816243D01*
X126975500Y-32606287D01*
X126975500Y-32393713D01*
X126942246Y-32183757D01*
X126876557Y-31981588D01*
X126780051Y-31792184D01*
X126780049Y-31792181D01*
X126780048Y-31792179D01*
X126655109Y-31620213D01*
X126504792Y-31469896D01*
X126498031Y-31464984D01*
X126340204Y-31350316D01*
X126297540Y-31294989D01*
X126291561Y-31225376D01*
X126324166Y-31163580D01*
X126340199Y-31149686D01*
X126504792Y-31030104D01*
X126655104Y-30879792D01*
X126655106Y-30879788D01*
X126655109Y-30879786D01*
X126780048Y-30707820D01*
X126780047Y-30707820D01*
X126780051Y-30707816D01*
X126876557Y-30518412D01*
X126942246Y-30316243D01*
X126975500Y-30106287D01*
X126975500Y-29893713D01*
X126942246Y-29683757D01*
X126876557Y-29481588D01*
X126780051Y-29292184D01*
X126780049Y-29292181D01*
X126780048Y-29292179D01*
X126655109Y-29120213D01*
X126504792Y-28969896D01*
X126393948Y-28889364D01*
X126340204Y-28850316D01*
X126297540Y-28794989D01*
X126291561Y-28725376D01*
X126324166Y-28663580D01*
X126340199Y-28649686D01*
X126504792Y-28530104D01*
X126655104Y-28379792D01*
X126655106Y-28379788D01*
X126655109Y-28379786D01*
X126780048Y-28207820D01*
X126780047Y-28207820D01*
X126780051Y-28207816D01*
X126876557Y-28018412D01*
X126942246Y-27816243D01*
X126975500Y-27606287D01*
X126975500Y-27393713D01*
X126942246Y-27183757D01*
X126876557Y-26981588D01*
X126780051Y-26792184D01*
X126780049Y-26792181D01*
X126780048Y-26792179D01*
X126655109Y-26620213D01*
X126504792Y-26469896D01*
X126440378Y-26423097D01*
X126340204Y-26350316D01*
X126297540Y-26294989D01*
X126291561Y-26225376D01*
X126324166Y-26163580D01*
X126340199Y-26149686D01*
X126504792Y-26030104D01*
X126655104Y-25879792D01*
X126655106Y-25879788D01*
X126655109Y-25879786D01*
X126780048Y-25707820D01*
X126780047Y-25707820D01*
X126780051Y-25707816D01*
X126876557Y-25518412D01*
X126942246Y-25316243D01*
X126975500Y-25106287D01*
X126975500Y-24893713D01*
X126971565Y-24868870D01*
X126958158Y-24784219D01*
X126955727Y-24768872D01*
X129249500Y-24768872D01*
X129249500Y-25031127D01*
X129267996Y-25171611D01*
X129283730Y-25291116D01*
X129344634Y-25518414D01*
X129351602Y-25544418D01*
X129351605Y-25544428D01*
X129451953Y-25786690D01*
X129451958Y-25786700D01*
X129583075Y-26013803D01*
X129742718Y-26221851D01*
X129742726Y-26221860D01*
X129928140Y-26407274D01*
X129928148Y-26407281D01*
X129928149Y-26407282D01*
X129976554Y-26444424D01*
X130136196Y-26566924D01*
X130363299Y-26698041D01*
X130363309Y-26698046D01*
X130569814Y-26783583D01*
X130605581Y-26798398D01*
X130858884Y-26866270D01*
X131118880Y-26900500D01*
X131118887Y-26900500D01*
X131381113Y-26900500D01*
X131381120Y-26900500D01*
X131641116Y-26866270D01*
X131894419Y-26798398D01*
X132136697Y-26698043D01*
X132363803Y-26566924D01*
X132571851Y-26407282D01*
X132571855Y-26407277D01*
X132571860Y-26407274D01*
X132757274Y-26221860D01*
X132757277Y-26221855D01*
X132757282Y-26221851D01*
X132916924Y-26013803D01*
X133048043Y-25786697D01*
X133148398Y-25544419D01*
X133216270Y-25291116D01*
X133250500Y-25031120D01*
X133250500Y-24768880D01*
X133216270Y-24508884D01*
X133148398Y-24255581D01*
X133148394Y-24255571D01*
X133048046Y-24013309D01*
X133048041Y-24013299D01*
X132916924Y-23786196D01*
X132757281Y-23578148D01*
X132757274Y-23578140D01*
X132571860Y-23392726D01*
X132571851Y-23392718D01*
X132363803Y-23233075D01*
X132136700Y-23101958D01*
X132136690Y-23101953D01*
X131894428Y-23001605D01*
X131894421Y-23001603D01*
X131894419Y-23001602D01*
X131641116Y-22933730D01*
X131583339Y-22926123D01*
X131381127Y-22899500D01*
X131381120Y-22899500D01*
X131118880Y-22899500D01*
X131118872Y-22899500D01*
X130887772Y-22929926D01*
X130858884Y-22933730D01*
X130613426Y-22999500D01*
X130605581Y-23001602D01*
X130605571Y-23001605D01*
X130363309Y-23101953D01*
X130363299Y-23101958D01*
X130136196Y-23233075D01*
X129928148Y-23392718D01*
X129742718Y-23578148D01*
X129583075Y-23786196D01*
X129451958Y-24013299D01*
X129451953Y-24013309D01*
X129351605Y-24255571D01*
X129351602Y-24255581D01*
X129283730Y-24508884D01*
X129249500Y-24768872D01*
X126955727Y-24768872D01*
X126952403Y-24747885D01*
X126942246Y-24683757D01*
X126876557Y-24481588D01*
X126780051Y-24292184D01*
X126780049Y-24292181D01*
X126780048Y-24292179D01*
X126655109Y-24120213D01*
X126504786Y-23969890D01*
X126332820Y-23844951D01*
X126143414Y-23748444D01*
X126143413Y-23748443D01*
X126143412Y-23748443D01*
X125941243Y-23682754D01*
X125941241Y-23682753D01*
X125941240Y-23682753D01*
X125779957Y-23657208D01*
X125731287Y-23649500D01*
X125731286Y-23649500D01*
X125403651Y-23649500D01*
X125336612Y-23629815D01*
X125315970Y-23613181D01*
X124292165Y-22589375D01*
X124292161Y-22589372D01*
X124152866Y-22496297D01*
X124152863Y-22496296D01*
X124043416Y-22450962D01*
X124043414Y-22450961D01*
X123998086Y-22432185D01*
X123998074Y-22432182D01*
X123833771Y-22399500D01*
X123833767Y-22399500D01*
X113916233Y-22399500D01*
X113916228Y-22399500D01*
X113751925Y-22432182D01*
X113751917Y-22432184D01*
X113597135Y-22496297D01*
X113597129Y-22496301D01*
X113457838Y-22589373D01*
X113457834Y-22589376D01*
X111754375Y-24292834D01*
X111754372Y-24292838D01*
X111661297Y-24432133D01*
X111661296Y-24432136D01*
X111629507Y-24508883D01*
X111629507Y-24508884D01*
X111597184Y-24586917D01*
X111597182Y-24586925D01*
X111564500Y-24751228D01*
X111564500Y-27061415D01*
X111544815Y-27128454D01*
X111513386Y-27161733D01*
X111372342Y-27264208D01*
X111194205Y-27442345D01*
X111194201Y-27442350D01*
X111046132Y-27646151D01*
X110931760Y-27870616D01*
X110853910Y-28110214D01*
X110814500Y-28359038D01*
X94965500Y-28359038D01*
X94926090Y-28110215D01*
X94848241Y-27870621D01*
X94848239Y-27870618D01*
X94848239Y-27870616D01*
X94806747Y-27789184D01*
X94733870Y-27646155D01*
X94631753Y-27505602D01*
X94585798Y-27442350D01*
X94585794Y-27442345D01*
X94407654Y-27264205D01*
X94407649Y-27264201D01*
X94203848Y-27116132D01*
X94203847Y-27116131D01*
X94203845Y-27116130D01*
X94096461Y-27061415D01*
X93979383Y-27001760D01*
X93739785Y-26923910D01*
X93591981Y-26900500D01*
X93490962Y-26884500D01*
X93239038Y-26884500D01*
X93151290Y-26898398D01*
X92990214Y-26923910D01*
X92750616Y-27001760D01*
X92526151Y-27116132D01*
X92322350Y-27264201D01*
X92322345Y-27264205D01*
X92144205Y-27442345D01*
X92144201Y-27442350D01*
X91996132Y-27646151D01*
X91881760Y-27870616D01*
X91803910Y-28110214D01*
X91764500Y-28359038D01*
X75915500Y-28359038D01*
X75876090Y-28110215D01*
X75798241Y-27870621D01*
X75798239Y-27870618D01*
X75798239Y-27870616D01*
X75756747Y-27789184D01*
X75683870Y-27646155D01*
X75581753Y-27505602D01*
X75535798Y-27442350D01*
X75535794Y-27442345D01*
X75357654Y-27264205D01*
X75357649Y-27264201D01*
X75153848Y-27116132D01*
X75153847Y-27116131D01*
X75153845Y-27116130D01*
X75046461Y-27061415D01*
X74929383Y-27001760D01*
X74689785Y-26923910D01*
X74541981Y-26900500D01*
X74440962Y-26884500D01*
X74189038Y-26884500D01*
X74101290Y-26898398D01*
X73940214Y-26923910D01*
X73700616Y-27001760D01*
X73476151Y-27116132D01*
X73272350Y-27264201D01*
X73272345Y-27264205D01*
X73094205Y-27442345D01*
X73094201Y-27442350D01*
X72946132Y-27646151D01*
X72831760Y-27870616D01*
X72753910Y-28110214D01*
X72714500Y-28359038D01*
X56965500Y-28359038D01*
X56926090Y-28110215D01*
X56848241Y-27870621D01*
X56848239Y-27870618D01*
X56848239Y-27870616D01*
X56806747Y-27789184D01*
X56733870Y-27646155D01*
X56631753Y-27505602D01*
X56585798Y-27442350D01*
X56585794Y-27442345D01*
X56407654Y-27264205D01*
X56407649Y-27264201D01*
X56203848Y-27116132D01*
X56203847Y-27116131D01*
X56203845Y-27116130D01*
X56096461Y-27061415D01*
X55979383Y-27001760D01*
X55739785Y-26923910D01*
X55591981Y-26900500D01*
X55490962Y-26884500D01*
X55239038Y-26884500D01*
X55151290Y-26898398D01*
X54990214Y-26923910D01*
X54750616Y-27001760D01*
X54526151Y-27116132D01*
X54322350Y-27264201D01*
X54322345Y-27264205D01*
X54144205Y-27442345D01*
X54144201Y-27442350D01*
X53996132Y-27646151D01*
X53881760Y-27870616D01*
X53803910Y-28110214D01*
X53764500Y-28359038D01*
X37815500Y-28359038D01*
X37776090Y-28110215D01*
X37698241Y-27870621D01*
X37698239Y-27870618D01*
X37698239Y-27870616D01*
X37656747Y-27789184D01*
X37583870Y-27646155D01*
X37481753Y-27505602D01*
X37435798Y-27442350D01*
X37435794Y-27442345D01*
X37257654Y-27264205D01*
X37257649Y-27264201D01*
X37053848Y-27116132D01*
X37053847Y-27116131D01*
X37053845Y-27116130D01*
X36946461Y-27061415D01*
X36829383Y-27001760D01*
X36589785Y-26923910D01*
X36441981Y-26900500D01*
X36340962Y-26884500D01*
X36089038Y-26884500D01*
X36001290Y-26898398D01*
X35840214Y-26923910D01*
X35600616Y-27001760D01*
X35376151Y-27116132D01*
X35172350Y-27264201D01*
X35172345Y-27264205D01*
X34994205Y-27442345D01*
X34994201Y-27442350D01*
X34846132Y-27646151D01*
X34731760Y-27870616D01*
X34653910Y-28110214D01*
X34614500Y-28359038D01*
X20750000Y-28359038D01*
X20750000Y-24868872D01*
X22999500Y-24868872D01*
X22999500Y-25131127D01*
X23025791Y-25330815D01*
X23033730Y-25391116D01*
X23087408Y-25591446D01*
X23101602Y-25644418D01*
X23101605Y-25644428D01*
X23201953Y-25886690D01*
X23201958Y-25886700D01*
X23333075Y-26113803D01*
X23492718Y-26321851D01*
X23492726Y-26321860D01*
X23678140Y-26507274D01*
X23678148Y-26507281D01*
X23886196Y-26666924D01*
X24113299Y-26798041D01*
X24113309Y-26798046D01*
X24355571Y-26898394D01*
X24355581Y-26898398D01*
X24608884Y-26966270D01*
X24868880Y-27000500D01*
X24868887Y-27000500D01*
X25131113Y-27000500D01*
X25131120Y-27000500D01*
X25391116Y-26966270D01*
X25644419Y-26898398D01*
X25885840Y-26798398D01*
X25886690Y-26798046D01*
X25886691Y-26798045D01*
X25886697Y-26798043D01*
X26113803Y-26666924D01*
X26321851Y-26507282D01*
X26321855Y-26507277D01*
X26321860Y-26507274D01*
X26507274Y-26321860D01*
X26507277Y-26321855D01*
X26507282Y-26321851D01*
X26666924Y-26113803D01*
X26798043Y-25886697D01*
X26826055Y-25819071D01*
X40965000Y-25819071D01*
X40965000Y-26070928D01*
X41004397Y-26319669D01*
X41082219Y-26559184D01*
X41196557Y-26783583D01*
X41270748Y-26885697D01*
X41270748Y-26885698D01*
X41887421Y-26269024D01*
X41900359Y-26300258D01*
X41982437Y-26423097D01*
X42086903Y-26527563D01*
X42209742Y-26609641D01*
X42240974Y-26622577D01*
X41624300Y-27239250D01*
X41726416Y-27313442D01*
X41950815Y-27427780D01*
X42190330Y-27505602D01*
X42439072Y-27545000D01*
X42690928Y-27545000D01*
X42939669Y-27505602D01*
X43179184Y-27427780D01*
X43403575Y-27313446D01*
X43403581Y-27313442D01*
X43505697Y-27239250D01*
X43505698Y-27239250D01*
X42889025Y-26622578D01*
X42920258Y-26609641D01*
X43043097Y-26527563D01*
X43147563Y-26423097D01*
X43229641Y-26300258D01*
X43242578Y-26269025D01*
X43859250Y-26885698D01*
X43859250Y-26885697D01*
X43933442Y-26783581D01*
X43933446Y-26783575D01*
X44047780Y-26559184D01*
X44125602Y-26319669D01*
X44165000Y-26070928D01*
X44165000Y-25819071D01*
X60115000Y-25819071D01*
X60115000Y-26070928D01*
X60154397Y-26319669D01*
X60232219Y-26559184D01*
X60346557Y-26783583D01*
X60420748Y-26885697D01*
X60420748Y-26885698D01*
X61037421Y-26269024D01*
X61050359Y-26300258D01*
X61132437Y-26423097D01*
X61236903Y-26527563D01*
X61359742Y-26609641D01*
X61390974Y-26622577D01*
X60774300Y-27239250D01*
X60876416Y-27313442D01*
X61100815Y-27427780D01*
X61340330Y-27505602D01*
X61589072Y-27545000D01*
X61840928Y-27545000D01*
X62089669Y-27505602D01*
X62329184Y-27427780D01*
X62553575Y-27313446D01*
X62553581Y-27313442D01*
X62655697Y-27239250D01*
X62655698Y-27239250D01*
X62039025Y-26622578D01*
X62070258Y-26609641D01*
X62193097Y-26527563D01*
X62297563Y-26423097D01*
X62379641Y-26300258D01*
X62392577Y-26269025D01*
X63009250Y-26885698D01*
X63009250Y-26885697D01*
X63083442Y-26783581D01*
X63083446Y-26783575D01*
X63197780Y-26559184D01*
X63275602Y-26319669D01*
X63315000Y-26070928D01*
X63315000Y-25819071D01*
X79065000Y-25819071D01*
X79065000Y-26070928D01*
X79104397Y-26319669D01*
X79182219Y-26559184D01*
X79296557Y-26783583D01*
X79370748Y-26885697D01*
X79370748Y-26885698D01*
X79987421Y-26269024D01*
X80000359Y-26300258D01*
X80082437Y-26423097D01*
X80186903Y-26527563D01*
X80309742Y-26609641D01*
X80340974Y-26622577D01*
X79724300Y-27239250D01*
X79826416Y-27313442D01*
X80050815Y-27427780D01*
X80290330Y-27505602D01*
X80539072Y-27545000D01*
X80790928Y-27545000D01*
X81039669Y-27505602D01*
X81279184Y-27427780D01*
X81503575Y-27313446D01*
X81503581Y-27313442D01*
X81605697Y-27239250D01*
X81605698Y-27239250D01*
X80989025Y-26622578D01*
X81020258Y-26609641D01*
X81143097Y-26527563D01*
X81247563Y-26423097D01*
X81329641Y-26300258D01*
X81342577Y-26269025D01*
X81959250Y-26885698D01*
X81959250Y-26885697D01*
X82033442Y-26783581D01*
X82033446Y-26783575D01*
X82147780Y-26559184D01*
X82225602Y-26319669D01*
X82265000Y-26070928D01*
X82265000Y-25819071D01*
X98115000Y-25819071D01*
X98115000Y-26070928D01*
X98154397Y-26319669D01*
X98232219Y-26559184D01*
X98346557Y-26783583D01*
X98420748Y-26885697D01*
X98420748Y-26885698D01*
X99037421Y-26269024D01*
X99050359Y-26300258D01*
X99132437Y-26423097D01*
X99236903Y-26527563D01*
X99359742Y-26609641D01*
X99390974Y-26622577D01*
X98774300Y-27239250D01*
X98876416Y-27313442D01*
X99100815Y-27427780D01*
X99340330Y-27505602D01*
X99589072Y-27545000D01*
X99840928Y-27545000D01*
X100089669Y-27505602D01*
X100329184Y-27427780D01*
X100553575Y-27313446D01*
X100553581Y-27313442D01*
X100655697Y-27239250D01*
X100655698Y-27239250D01*
X100039025Y-26622578D01*
X100070258Y-26609641D01*
X100193097Y-26527563D01*
X100297563Y-26423097D01*
X100379641Y-26300258D01*
X100392577Y-26269025D01*
X101009250Y-26885698D01*
X101009250Y-26885697D01*
X101083442Y-26783581D01*
X101083446Y-26783575D01*
X101197780Y-26559184D01*
X101275602Y-26319669D01*
X101315000Y-26070928D01*
X101315000Y-25819071D01*
X101275602Y-25570330D01*
X101197780Y-25330815D01*
X101083442Y-25106416D01*
X101009250Y-25004301D01*
X101009250Y-25004300D01*
X100392577Y-25620973D01*
X100379641Y-25589742D01*
X100297563Y-25466903D01*
X100193097Y-25362437D01*
X100070258Y-25280359D01*
X100039024Y-25267421D01*
X100655698Y-24650748D01*
X100553583Y-24576557D01*
X100329184Y-24462219D01*
X100089669Y-24384397D01*
X99840928Y-24345000D01*
X99589072Y-24345000D01*
X99340330Y-24384397D01*
X99100815Y-24462219D01*
X98876413Y-24576559D01*
X98774301Y-24650747D01*
X98774300Y-24650748D01*
X99390974Y-25267421D01*
X99359742Y-25280359D01*
X99236903Y-25362437D01*
X99132437Y-25466903D01*
X99050359Y-25589742D01*
X99037421Y-25620974D01*
X98420748Y-25004300D01*
X98420747Y-25004301D01*
X98346559Y-25106413D01*
X98232219Y-25330815D01*
X98154397Y-25570330D01*
X98115000Y-25819071D01*
X82265000Y-25819071D01*
X82225602Y-25570330D01*
X82147780Y-25330815D01*
X82033442Y-25106416D01*
X81959250Y-25004301D01*
X81959250Y-25004300D01*
X81342577Y-25620973D01*
X81329641Y-25589742D01*
X81247563Y-25466903D01*
X81143097Y-25362437D01*
X81020258Y-25280359D01*
X80989024Y-25267421D01*
X81605698Y-24650748D01*
X81503583Y-24576557D01*
X81279184Y-24462219D01*
X81039669Y-24384397D01*
X80790928Y-24345000D01*
X80539072Y-24345000D01*
X80290330Y-24384397D01*
X80050815Y-24462219D01*
X79826413Y-24576559D01*
X79724301Y-24650747D01*
X79724300Y-24650748D01*
X80340974Y-25267421D01*
X80309742Y-25280359D01*
X80186903Y-25362437D01*
X80082437Y-25466903D01*
X80000359Y-25589742D01*
X79987421Y-25620974D01*
X79370748Y-25004300D01*
X79370747Y-25004301D01*
X79296559Y-25106413D01*
X79182219Y-25330815D01*
X79104397Y-25570330D01*
X79065000Y-25819071D01*
X63315000Y-25819071D01*
X63275602Y-25570330D01*
X63197780Y-25330815D01*
X63083442Y-25106416D01*
X63009250Y-25004301D01*
X63009250Y-25004300D01*
X62392577Y-25620973D01*
X62379641Y-25589742D01*
X62297563Y-25466903D01*
X62193097Y-25362437D01*
X62070258Y-25280359D01*
X62039024Y-25267421D01*
X62655698Y-24650748D01*
X62553583Y-24576557D01*
X62329184Y-24462219D01*
X62089669Y-24384397D01*
X61840928Y-24345000D01*
X61589072Y-24345000D01*
X61340330Y-24384397D01*
X61100815Y-24462219D01*
X60876413Y-24576559D01*
X60774301Y-24650747D01*
X60774300Y-24650748D01*
X61390974Y-25267421D01*
X61359742Y-25280359D01*
X61236903Y-25362437D01*
X61132437Y-25466903D01*
X61050359Y-25589742D01*
X61037421Y-25620974D01*
X60420748Y-25004300D01*
X60420747Y-25004301D01*
X60346559Y-25106413D01*
X60232219Y-25330815D01*
X60154397Y-25570330D01*
X60115000Y-25819071D01*
X44165000Y-25819071D01*
X44125602Y-25570330D01*
X44047780Y-25330815D01*
X43933442Y-25106416D01*
X43859250Y-25004301D01*
X43859250Y-25004300D01*
X43242577Y-25620973D01*
X43229641Y-25589742D01*
X43147563Y-25466903D01*
X43043097Y-25362437D01*
X42920258Y-25280359D01*
X42889024Y-25267421D01*
X43505698Y-24650748D01*
X43403583Y-24576557D01*
X43179184Y-24462219D01*
X42939669Y-24384397D01*
X42690928Y-24345000D01*
X42439072Y-24345000D01*
X42190330Y-24384397D01*
X41950815Y-24462219D01*
X41726413Y-24576559D01*
X41624301Y-24650747D01*
X41624300Y-24650748D01*
X42240974Y-25267421D01*
X42209742Y-25280359D01*
X42086903Y-25362437D01*
X41982437Y-25466903D01*
X41900359Y-25589742D01*
X41887421Y-25620974D01*
X41270748Y-25004300D01*
X41270747Y-25004301D01*
X41196559Y-25106413D01*
X41082219Y-25330815D01*
X41004397Y-25570330D01*
X40965000Y-25819071D01*
X26826055Y-25819071D01*
X26898398Y-25644419D01*
X26966270Y-25391116D01*
X27000500Y-25131120D01*
X27000500Y-24868880D01*
X26985011Y-24751233D01*
X26980135Y-24714193D01*
X26976127Y-24683757D01*
X26966270Y-24608884D01*
X26898398Y-24355581D01*
X26898394Y-24355571D01*
X26798046Y-24113309D01*
X26798041Y-24113299D01*
X26666924Y-23886196D01*
X26544424Y-23726554D01*
X26507282Y-23678149D01*
X26507281Y-23678148D01*
X26507274Y-23678140D01*
X26321860Y-23492726D01*
X26321851Y-23492718D01*
X26113803Y-23333075D01*
X25886700Y-23201958D01*
X25886690Y-23201953D01*
X25644428Y-23101605D01*
X25644421Y-23101603D01*
X25644419Y-23101602D01*
X25391116Y-23033730D01*
X25333339Y-23026123D01*
X25131127Y-22999500D01*
X25131120Y-22999500D01*
X24868880Y-22999500D01*
X24868872Y-22999500D01*
X24637772Y-23029926D01*
X24608884Y-23033730D01*
X24355581Y-23101602D01*
X24355571Y-23101605D01*
X24113309Y-23201953D01*
X24113299Y-23201958D01*
X23886196Y-23333075D01*
X23678148Y-23492718D01*
X23492718Y-23678148D01*
X23333075Y-23886196D01*
X23201958Y-24113299D01*
X23201953Y-24113309D01*
X23101605Y-24355571D01*
X23101602Y-24355581D01*
X23042392Y-24576559D01*
X23033730Y-24608885D01*
X22999500Y-24868872D01*
X20750000Y-24868872D01*
X20750000Y-20874000D01*
X20769685Y-20806961D01*
X20822489Y-20761206D01*
X20874000Y-20750000D01*
X135376000Y-20750000D01*
X135443039Y-20769685D01*
G37*
%TD.AperFunction*%
%TA.AperFunction,Conductor*%
G36*
X33355703Y-54394557D02*
G01*
X33377599Y-54419376D01*
X33417048Y-54478416D01*
X33417052Y-54478420D01*
X33417052Y-54478421D01*
X35271584Y-56332952D01*
X35271586Y-56332954D01*
X35294422Y-56348211D01*
X35345270Y-56382186D01*
X35394505Y-56415084D01*
X35451080Y-56438518D01*
X35531088Y-56471659D01*
X35639313Y-56493186D01*
X35663825Y-56498062D01*
X35676081Y-56500500D01*
X35676082Y-56500500D01*
X35676083Y-56500500D01*
X35823918Y-56500500D01*
X36203412Y-56500500D01*
X36270451Y-56520185D01*
X36277716Y-56525228D01*
X36370534Y-56594712D01*
X36382669Y-56603796D01*
X36382671Y-56603797D01*
X36517517Y-56654091D01*
X36517516Y-56654091D01*
X36524444Y-56654835D01*
X36577127Y-56660500D01*
X37657115Y-56660499D01*
X37724154Y-56680184D01*
X37760215Y-56715605D01*
X37780887Y-56746542D01*
X37780890Y-56746545D01*
X37780893Y-56746549D01*
X37878454Y-56844110D01*
X37878458Y-56844113D01*
X37993188Y-56920774D01*
X37993189Y-56920774D01*
X37998253Y-56924158D01*
X37996748Y-56926409D01*
X38038253Y-56967208D01*
X38053689Y-57035352D01*
X38035473Y-57092662D01*
X37965645Y-57205871D01*
X37965641Y-57205880D01*
X37910494Y-57372302D01*
X37910493Y-57372309D01*
X37900000Y-57475013D01*
X37900000Y-57750000D01*
X38863500Y-57750000D01*
X38930539Y-57769685D01*
X38976294Y-57822489D01*
X38987500Y-57874000D01*
X38987500Y-58126000D01*
X38967815Y-58193039D01*
X38915011Y-58238794D01*
X38863500Y-58250000D01*
X37900001Y-58250000D01*
X37900001Y-58475500D01*
X37880316Y-58542539D01*
X37827512Y-58588294D01*
X37776001Y-58599500D01*
X35027915Y-58599500D01*
X34960876Y-58579815D01*
X34940234Y-58563181D01*
X33186819Y-56809766D01*
X33153334Y-56748443D01*
X33150500Y-56722085D01*
X33150500Y-54488270D01*
X33170185Y-54421231D01*
X33222989Y-54375476D01*
X33292147Y-54365532D01*
X33355703Y-54394557D01*
G37*
%TD.AperFunction*%
%TA.AperFunction,Conductor*%
G36*
X52454809Y-55020185D02*
G01*
X52475451Y-55036819D01*
X53771580Y-56332948D01*
X53771584Y-56332951D01*
X53894498Y-56415080D01*
X53894511Y-56415087D01*
X54031082Y-56471656D01*
X54031087Y-56471658D01*
X54031091Y-56471658D01*
X54031092Y-56471659D01*
X54176079Y-56500500D01*
X54176082Y-56500500D01*
X54323917Y-56500500D01*
X55253412Y-56500500D01*
X55320451Y-56520185D01*
X55327716Y-56525228D01*
X55420534Y-56594712D01*
X55432669Y-56603796D01*
X55432671Y-56603797D01*
X55567517Y-56654091D01*
X55567516Y-56654091D01*
X55574444Y-56654835D01*
X55627127Y-56660500D01*
X56707115Y-56660499D01*
X56774154Y-56680184D01*
X56810215Y-56715605D01*
X56830887Y-56746542D01*
X56830890Y-56746545D01*
X56830893Y-56746549D01*
X56928454Y-56844110D01*
X56928458Y-56844113D01*
X57043188Y-56920774D01*
X57043189Y-56920774D01*
X57048253Y-56924158D01*
X57046748Y-56926409D01*
X57088253Y-56967208D01*
X57103689Y-57035352D01*
X57085473Y-57092662D01*
X57015645Y-57205871D01*
X57015641Y-57205880D01*
X56960494Y-57372302D01*
X56960493Y-57372309D01*
X56950000Y-57475013D01*
X56950000Y-57750000D01*
X57913500Y-57750000D01*
X57980539Y-57769685D01*
X58026294Y-57822489D01*
X58037500Y-57874000D01*
X58037500Y-58126000D01*
X58017815Y-58193039D01*
X57965011Y-58238794D01*
X57913500Y-58250000D01*
X56950001Y-58250000D01*
X56950001Y-58475500D01*
X56930316Y-58542539D01*
X56877512Y-58588294D01*
X56826001Y-58599500D01*
X42831940Y-58599500D01*
X42764901Y-58579815D01*
X42719146Y-58527011D01*
X42709202Y-58457853D01*
X42738227Y-58394297D01*
X42744259Y-58387819D01*
X43346786Y-57785292D01*
X43346789Y-57785289D01*
X43434394Y-57654179D01*
X43494737Y-57508497D01*
X43525500Y-57353842D01*
X43525500Y-57196157D01*
X43525500Y-56664648D01*
X43545185Y-56597609D01*
X43585351Y-56558531D01*
X43658289Y-56514439D01*
X43779434Y-56393294D01*
X43779437Y-56393291D01*
X43868071Y-56246673D01*
X43919041Y-56083104D01*
X43925500Y-56012026D01*
X43925500Y-55487974D01*
X43919041Y-55416896D01*
X43868071Y-55253327D01*
X43828971Y-55188649D01*
X43811136Y-55121095D01*
X43832654Y-55054621D01*
X43886694Y-55010334D01*
X43935089Y-55000500D01*
X52387770Y-55000500D01*
X52454809Y-55020185D01*
G37*
%TD.AperFunction*%
%TA.AperFunction,Conductor*%
G36*
X71454809Y-55020185D02*
G01*
X71475451Y-55036819D01*
X72771580Y-56332948D01*
X72771584Y-56332951D01*
X72894498Y-56415080D01*
X72894511Y-56415087D01*
X73031082Y-56471656D01*
X73031087Y-56471658D01*
X73031091Y-56471658D01*
X73031092Y-56471659D01*
X73176079Y-56500500D01*
X73176082Y-56500500D01*
X73323917Y-56500500D01*
X74303412Y-56500500D01*
X74370451Y-56520185D01*
X74377716Y-56525228D01*
X74470534Y-56594712D01*
X74482669Y-56603796D01*
X74482671Y-56603797D01*
X74617517Y-56654091D01*
X74617516Y-56654091D01*
X74624444Y-56654835D01*
X74677127Y-56660500D01*
X75757115Y-56660499D01*
X75824154Y-56680184D01*
X75860215Y-56715605D01*
X75880887Y-56746542D01*
X75880890Y-56746545D01*
X75880893Y-56746549D01*
X75978454Y-56844110D01*
X75978458Y-56844113D01*
X76093188Y-56920774D01*
X76093189Y-56920774D01*
X76098253Y-56924158D01*
X76096748Y-56926409D01*
X76138253Y-56967208D01*
X76153689Y-57035352D01*
X76135473Y-57092662D01*
X76065645Y-57205871D01*
X76065641Y-57205880D01*
X76010494Y-57372302D01*
X76010493Y-57372309D01*
X76000000Y-57475013D01*
X76000000Y-57750000D01*
X76963500Y-57750000D01*
X77030539Y-57769685D01*
X77076294Y-57822489D01*
X77087500Y-57874000D01*
X77087500Y-58126000D01*
X77067815Y-58193039D01*
X77015011Y-58238794D01*
X76963500Y-58250000D01*
X76000001Y-58250000D01*
X76000001Y-58475500D01*
X75980316Y-58542539D01*
X75927512Y-58588294D01*
X75876001Y-58599500D01*
X61831940Y-58599500D01*
X61764901Y-58579815D01*
X61719146Y-58527011D01*
X61709202Y-58457853D01*
X61738227Y-58394297D01*
X61744259Y-58387819D01*
X62396786Y-57735292D01*
X62396789Y-57735289D01*
X62484394Y-57604179D01*
X62544738Y-57458497D01*
X62575500Y-57303842D01*
X62575500Y-57146157D01*
X62575500Y-56664648D01*
X62595185Y-56597609D01*
X62635351Y-56558531D01*
X62708289Y-56514439D01*
X62829434Y-56393294D01*
X62829437Y-56393291D01*
X62918071Y-56246673D01*
X62969041Y-56083104D01*
X62975500Y-56012026D01*
X62975500Y-55487974D01*
X62969041Y-55416896D01*
X62918071Y-55253327D01*
X62878971Y-55188649D01*
X62861136Y-55121095D01*
X62882654Y-55054621D01*
X62936694Y-55010334D01*
X62985089Y-55000500D01*
X71387770Y-55000500D01*
X71454809Y-55020185D01*
G37*
%TD.AperFunction*%
%TA.AperFunction,Conductor*%
G36*
X90454809Y-55020185D02*
G01*
X90475451Y-55036819D01*
X91771580Y-56332948D01*
X91771584Y-56332951D01*
X91894498Y-56415080D01*
X91894511Y-56415087D01*
X92031082Y-56471656D01*
X92031087Y-56471658D01*
X92031091Y-56471658D01*
X92031092Y-56471659D01*
X92176079Y-56500500D01*
X92176082Y-56500500D01*
X92323917Y-56500500D01*
X93353412Y-56500500D01*
X93420451Y-56520185D01*
X93427716Y-56525228D01*
X93520534Y-56594712D01*
X93532669Y-56603796D01*
X93532671Y-56603797D01*
X93667517Y-56654091D01*
X93667516Y-56654091D01*
X93674444Y-56654835D01*
X93727127Y-56660500D01*
X94807115Y-56660499D01*
X94874154Y-56680184D01*
X94910215Y-56715605D01*
X94930887Y-56746542D01*
X94930890Y-56746545D01*
X94930893Y-56746549D01*
X95028454Y-56844110D01*
X95028458Y-56844113D01*
X95143188Y-56920774D01*
X95143189Y-56920774D01*
X95148253Y-56924158D01*
X95146748Y-56926409D01*
X95188253Y-56967208D01*
X95203689Y-57035352D01*
X95185473Y-57092662D01*
X95115645Y-57205871D01*
X95115641Y-57205880D01*
X95060494Y-57372302D01*
X95060493Y-57372309D01*
X95050000Y-57475013D01*
X95050000Y-57750000D01*
X96013500Y-57750000D01*
X96080539Y-57769685D01*
X96126294Y-57822489D01*
X96137500Y-57874000D01*
X96137500Y-58126000D01*
X96117815Y-58193039D01*
X96065011Y-58238794D01*
X96013500Y-58250000D01*
X95050001Y-58250000D01*
X95050001Y-58475500D01*
X95030316Y-58542539D01*
X94977512Y-58588294D01*
X94926001Y-58599500D01*
X80831940Y-58599500D01*
X80764901Y-58579815D01*
X80719146Y-58527011D01*
X80709202Y-58457853D01*
X80738227Y-58394297D01*
X80744259Y-58387819D01*
X81446786Y-57685292D01*
X81446789Y-57685289D01*
X81470386Y-57649973D01*
X81498099Y-57608499D01*
X81498099Y-57608498D01*
X81534394Y-57554179D01*
X81594737Y-57408497D01*
X81625500Y-57253842D01*
X81625500Y-56664648D01*
X81645185Y-56597609D01*
X81685351Y-56558531D01*
X81758289Y-56514439D01*
X81879434Y-56393294D01*
X81879437Y-56393291D01*
X81968071Y-56246673D01*
X82019041Y-56083104D01*
X82025500Y-56012026D01*
X82025500Y-55487974D01*
X82019041Y-55416896D01*
X81968071Y-55253327D01*
X81928971Y-55188649D01*
X81911136Y-55121095D01*
X81932654Y-55054621D01*
X81986694Y-55010334D01*
X82035089Y-55000500D01*
X90387770Y-55000500D01*
X90454809Y-55020185D01*
G37*
%TD.AperFunction*%
%TA.AperFunction,Conductor*%
G36*
X109454809Y-55020185D02*
G01*
X109475451Y-55036819D01*
X110667048Y-56228415D01*
X110667049Y-56228416D01*
X110771581Y-56332948D01*
X110771585Y-56332952D01*
X110894498Y-56415080D01*
X110894511Y-56415087D01*
X111031082Y-56471656D01*
X111031087Y-56471658D01*
X111031091Y-56471658D01*
X111031092Y-56471659D01*
X111176079Y-56500500D01*
X111176082Y-56500500D01*
X112403412Y-56500500D01*
X112470451Y-56520185D01*
X112477716Y-56525228D01*
X112570534Y-56594712D01*
X112582669Y-56603796D01*
X112582671Y-56603797D01*
X112717517Y-56654091D01*
X112717516Y-56654091D01*
X112724444Y-56654835D01*
X112777127Y-56660500D01*
X113857115Y-56660499D01*
X113924154Y-56680184D01*
X113960215Y-56715605D01*
X113980887Y-56746542D01*
X113980890Y-56746545D01*
X113980893Y-56746549D01*
X114078454Y-56844110D01*
X114078458Y-56844113D01*
X114193188Y-56920774D01*
X114193189Y-56920774D01*
X114198253Y-56924158D01*
X114196748Y-56926409D01*
X114238253Y-56967208D01*
X114253689Y-57035352D01*
X114235473Y-57092662D01*
X114165645Y-57205871D01*
X114165641Y-57205880D01*
X114110494Y-57372302D01*
X114110493Y-57372309D01*
X114100000Y-57475013D01*
X114100000Y-57750000D01*
X115063500Y-57750000D01*
X115130539Y-57769685D01*
X115176294Y-57822489D01*
X115187500Y-57874000D01*
X115187500Y-58126000D01*
X115167815Y-58193039D01*
X115115011Y-58238794D01*
X115063500Y-58250000D01*
X114100001Y-58250000D01*
X114100001Y-58475500D01*
X114080316Y-58542539D01*
X114027512Y-58588294D01*
X113976001Y-58599500D01*
X100081940Y-58599500D01*
X100014901Y-58579815D01*
X99969146Y-58527011D01*
X99959202Y-58457853D01*
X99988227Y-58394297D01*
X99994259Y-58387819D01*
X100205401Y-58176677D01*
X100496788Y-57885290D01*
X100501958Y-57877553D01*
X100584394Y-57754179D01*
X100610298Y-57691639D01*
X100627061Y-57651170D01*
X100627062Y-57651168D01*
X100644737Y-57608499D01*
X100644739Y-57608490D01*
X100671289Y-57475013D01*
X100675500Y-57453843D01*
X100675500Y-57296158D01*
X100675500Y-56664648D01*
X100695185Y-56597609D01*
X100735351Y-56558531D01*
X100808289Y-56514439D01*
X100929434Y-56393294D01*
X100929437Y-56393291D01*
X101018071Y-56246673D01*
X101069041Y-56083104D01*
X101075500Y-56012026D01*
X101075500Y-55487974D01*
X101069041Y-55416896D01*
X101018071Y-55253327D01*
X100978971Y-55188649D01*
X100961136Y-55121095D01*
X100982654Y-55054621D01*
X101036694Y-55010334D01*
X101085089Y-55000500D01*
X109387770Y-55000500D01*
X109454809Y-55020185D01*
G37*
%TD.AperFunction*%
%TA.AperFunction,Conductor*%
G36*
X124291145Y-45320185D02*
G01*
X124324422Y-45351612D01*
X124344896Y-45379792D01*
X124344898Y-45379794D01*
X124495209Y-45530105D01*
X124495214Y-45530109D01*
X124659793Y-45649682D01*
X124702459Y-45705011D01*
X124708438Y-45774625D01*
X124675833Y-45836420D01*
X124659793Y-45850318D01*
X124495214Y-45969890D01*
X124495209Y-45969894D01*
X124344890Y-46120213D01*
X124219951Y-46292179D01*
X124123444Y-46481585D01*
X124123443Y-46481587D01*
X124123443Y-46481588D01*
X124112646Y-46514818D01*
X124057753Y-46683760D01*
X124024500Y-46893713D01*
X124024500Y-47106286D01*
X124057572Y-47315098D01*
X124057754Y-47316243D01*
X124085877Y-47402797D01*
X124123444Y-47518414D01*
X124219951Y-47707820D01*
X124344890Y-47879786D01*
X124495209Y-48030105D01*
X124495214Y-48030109D01*
X124659793Y-48149682D01*
X124702459Y-48205011D01*
X124708438Y-48274625D01*
X124675833Y-48336420D01*
X124659793Y-48350318D01*
X124495214Y-48469890D01*
X124495209Y-48469894D01*
X124344890Y-48620213D01*
X124219951Y-48792179D01*
X124123444Y-48981585D01*
X124057753Y-49183760D01*
X124031654Y-49348543D01*
X124024500Y-49393713D01*
X124024500Y-49606287D01*
X124057754Y-49816243D01*
X124101297Y-49950255D01*
X124123444Y-50018414D01*
X124219951Y-50207820D01*
X124344890Y-50379786D01*
X124495209Y-50530105D01*
X124495214Y-50530109D01*
X124659793Y-50649682D01*
X124702459Y-50705011D01*
X124708438Y-50774625D01*
X124675833Y-50836420D01*
X124659793Y-50850318D01*
X124495214Y-50969890D01*
X124495209Y-50969894D01*
X124344890Y-51120213D01*
X124219951Y-51292179D01*
X124123444Y-51481585D01*
X124057753Y-51683760D01*
X124043993Y-51770641D01*
X124024500Y-51893713D01*
X124024500Y-52106287D01*
X124057754Y-52316243D01*
X124078823Y-52381087D01*
X124123444Y-52518414D01*
X124219951Y-52707820D01*
X124344890Y-52879786D01*
X124495209Y-53030105D01*
X124495214Y-53030109D01*
X124659793Y-53149682D01*
X124702459Y-53205011D01*
X124708438Y-53274625D01*
X124675833Y-53336420D01*
X124659793Y-53350318D01*
X124495214Y-53469890D01*
X124495209Y-53469894D01*
X124344890Y-53620213D01*
X124219951Y-53792179D01*
X124123444Y-53981585D01*
X124057753Y-54183760D01*
X124024500Y-54393713D01*
X124024500Y-54606286D01*
X124050013Y-54767372D01*
X124057754Y-54816243D01*
X124120818Y-55010334D01*
X124123444Y-55018414D01*
X124219951Y-55207820D01*
X124344890Y-55379786D01*
X124484068Y-55518964D01*
X124517553Y-55580287D01*
X124512569Y-55649979D01*
X124470697Y-55705912D01*
X124461484Y-55712183D01*
X124306659Y-55807680D01*
X124306655Y-55807683D01*
X124182684Y-55931654D01*
X124090643Y-56080875D01*
X124090641Y-56080880D01*
X124035494Y-56247302D01*
X124035493Y-56247309D01*
X124025000Y-56350013D01*
X124025000Y-56750000D01*
X125095854Y-56750000D01*
X125057370Y-56816657D01*
X125025000Y-56937465D01*
X125025000Y-57062535D01*
X125057370Y-57183343D01*
X125095854Y-57250000D01*
X124025001Y-57250000D01*
X124025001Y-57649986D01*
X124030227Y-57701137D01*
X124017457Y-57769830D01*
X123969577Y-57820715D01*
X123901787Y-57837635D01*
X123859416Y-57828300D01*
X123748082Y-57782184D01*
X123748074Y-57782182D01*
X123583771Y-57749500D01*
X123583767Y-57749500D01*
X123416233Y-57749500D01*
X123416228Y-57749500D01*
X123251925Y-57782182D01*
X123251917Y-57782184D01*
X123091509Y-57848628D01*
X123090810Y-57846941D01*
X123030785Y-57859427D01*
X122965546Y-57834414D01*
X122924186Y-57778101D01*
X122919837Y-57708367D01*
X122940438Y-57662945D01*
X122983996Y-57602994D01*
X123066211Y-57441639D01*
X123122171Y-57269409D01*
X123150501Y-57090547D01*
X123150501Y-56909454D01*
X123150501Y-56905053D01*
X123150500Y-56905038D01*
X123150500Y-48100375D01*
X123170185Y-48033336D01*
X123174182Y-48027489D01*
X123220989Y-47963065D01*
X123283343Y-47877243D01*
X123390568Y-47666802D01*
X123463553Y-47442178D01*
X123469790Y-47402797D01*
X123500500Y-47208907D01*
X123500500Y-46972712D01*
X123463553Y-46739441D01*
X123407742Y-46567674D01*
X123390568Y-46514818D01*
X123390566Y-46514815D01*
X123390566Y-46514813D01*
X123298949Y-46335006D01*
X123283343Y-46304377D01*
X123144517Y-46113300D01*
X122977510Y-45946293D01*
X122786433Y-45807467D01*
X122783854Y-45806153D01*
X122575996Y-45700243D01*
X122351368Y-45627256D01*
X122292570Y-45617944D01*
X122281191Y-45612550D01*
X122268634Y-45611652D01*
X122250221Y-45597868D01*
X122229435Y-45588015D01*
X122222779Y-45577326D01*
X122212700Y-45569781D01*
X122204661Y-45548228D01*
X122192504Y-45528703D01*
X122192683Y-45516113D01*
X122188284Y-45504316D01*
X122193173Y-45481839D01*
X122193502Y-45458840D01*
X122200814Y-45446713D01*
X122203136Y-45436043D01*
X122224281Y-45407796D01*
X122295261Y-45336816D01*
X122356583Y-45303334D01*
X122382940Y-45300500D01*
X124224106Y-45300500D01*
X124291145Y-45320185D01*
G37*
%TD.AperFunction*%
%TA.AperFunction,Conductor*%
G36*
X98719022Y-43570185D02*
G01*
X98764777Y-43622989D01*
X98775601Y-43684229D01*
X98774300Y-43700748D01*
X99390974Y-44317421D01*
X99359742Y-44330359D01*
X99236903Y-44412437D01*
X99132437Y-44516903D01*
X99050359Y-44639742D01*
X99037421Y-44670974D01*
X98420748Y-44054300D01*
X98420747Y-44054301D01*
X98346559Y-44156413D01*
X98232219Y-44380815D01*
X98154397Y-44620330D01*
X98115000Y-44869071D01*
X98115000Y-45120928D01*
X98154397Y-45369669D01*
X98232219Y-45609184D01*
X98346557Y-45833583D01*
X98420748Y-45935697D01*
X98420748Y-45935698D01*
X99037421Y-45319024D01*
X99050359Y-45350258D01*
X99132437Y-45473097D01*
X99236903Y-45577563D01*
X99359742Y-45659641D01*
X99390974Y-45672577D01*
X98774300Y-46289250D01*
X98876416Y-46363442D01*
X99100815Y-46477780D01*
X99340330Y-46555602D01*
X99589072Y-46595000D01*
X99840928Y-46595000D01*
X100089669Y-46555602D01*
X100329184Y-46477780D01*
X100553575Y-46363446D01*
X100553581Y-46363442D01*
X100655697Y-46289250D01*
X100655698Y-46289250D01*
X100039025Y-45672578D01*
X100070258Y-45659641D01*
X100193097Y-45577563D01*
X100297563Y-45473097D01*
X100379641Y-45350258D01*
X100392577Y-45319025D01*
X101009250Y-45935698D01*
X101009250Y-45935697D01*
X101083442Y-45833581D01*
X101083446Y-45833575D01*
X101197780Y-45609184D01*
X101275602Y-45369669D01*
X101315000Y-45120928D01*
X101315000Y-44869071D01*
X101275602Y-44620330D01*
X101197780Y-44380815D01*
X101083442Y-44156416D01*
X101009250Y-44054301D01*
X101009250Y-44054300D01*
X100392577Y-44670973D01*
X100379641Y-44639742D01*
X100297563Y-44516903D01*
X100193097Y-44412437D01*
X100070258Y-44330359D01*
X100039024Y-44317421D01*
X100655698Y-43700748D01*
X100654398Y-43684229D01*
X100668762Y-43615851D01*
X100717814Y-43566095D01*
X100778016Y-43550500D01*
X117701983Y-43550500D01*
X117769022Y-43570185D01*
X117814777Y-43622989D01*
X117825601Y-43684229D01*
X117824300Y-43700748D01*
X118440974Y-44317421D01*
X118409742Y-44330359D01*
X118286903Y-44412437D01*
X118182437Y-44516903D01*
X118100359Y-44639742D01*
X118087421Y-44670974D01*
X117470748Y-44054300D01*
X117470747Y-44054301D01*
X117396559Y-44156413D01*
X117282219Y-44380815D01*
X117204397Y-44620330D01*
X117165000Y-44869071D01*
X117165000Y-45120928D01*
X117204397Y-45369669D01*
X117282219Y-45609184D01*
X117396557Y-45833583D01*
X117519366Y-46002614D01*
X117542846Y-46068421D01*
X117527021Y-46136475D01*
X117476915Y-46185170D01*
X117419048Y-46199500D01*
X114921156Y-46199500D01*
X114899376Y-46203832D01*
X114877596Y-46208165D01*
X114877595Y-46208165D01*
X114766510Y-46230261D01*
X114766498Y-46230264D01*
X114620827Y-46290602D01*
X114620820Y-46290606D01*
X114600211Y-46304377D01*
X114547835Y-46339374D01*
X114547834Y-46339375D01*
X114489708Y-46378212D01*
X114489707Y-46378213D01*
X114169741Y-46698181D01*
X114142813Y-46712884D01*
X114116995Y-46729477D01*
X114110794Y-46730368D01*
X114108418Y-46731666D01*
X114082060Y-46734500D01*
X113874911Y-46734500D01*
X113807872Y-46714815D01*
X113774593Y-46683385D01*
X113635798Y-46492350D01*
X113635794Y-46492345D01*
X113457654Y-46314205D01*
X113457649Y-46314201D01*
X113253848Y-46166132D01*
X113253847Y-46166131D01*
X113253845Y-46166130D01*
X113181336Y-46129185D01*
X113029383Y-46051760D01*
X112789785Y-45973910D01*
X112641981Y-45950500D01*
X112540962Y-45934500D01*
X112289038Y-45934500D01*
X112214581Y-45946293D01*
X112040214Y-45973910D01*
X111800616Y-46051760D01*
X111576151Y-46166132D01*
X111372350Y-46314201D01*
X111372345Y-46314205D01*
X111194205Y-46492345D01*
X111194201Y-46492350D01*
X111046132Y-46696151D01*
X110931760Y-46920616D01*
X110853910Y-47160214D01*
X110831767Y-47300018D01*
X110814500Y-47409038D01*
X110814500Y-47660962D01*
X110852417Y-47900360D01*
X110853910Y-47909785D01*
X110931760Y-48149383D01*
X110982773Y-48249500D01*
X111040793Y-48363371D01*
X111046132Y-48373848D01*
X111194201Y-48577649D01*
X111194205Y-48577654D01*
X111372345Y-48755794D01*
X111372350Y-48755798D01*
X111550117Y-48884952D01*
X111576155Y-48903870D01*
X111682725Y-48958170D01*
X111800616Y-49018239D01*
X111800618Y-49018239D01*
X111800621Y-49018241D01*
X112040215Y-49096090D01*
X112289038Y-49135500D01*
X112289039Y-49135500D01*
X112540961Y-49135500D01*
X112540962Y-49135500D01*
X112789785Y-49096090D01*
X113029379Y-49018241D01*
X113253845Y-48903870D01*
X113457656Y-48755793D01*
X113635793Y-48577656D01*
X113708817Y-48477147D01*
X113774593Y-48386615D01*
X113829923Y-48343949D01*
X113874911Y-48335500D01*
X114482449Y-48335500D01*
X114549488Y-48355185D01*
X114595243Y-48407989D01*
X114605187Y-48477147D01*
X114576162Y-48540703D01*
X114570130Y-48547181D01*
X114529358Y-48587952D01*
X114529352Y-48587959D01*
X114349761Y-48822006D01*
X114202258Y-49077489D01*
X114202254Y-49077499D01*
X114089364Y-49350038D01*
X114089361Y-49350048D01*
X114020703Y-49606287D01*
X114013008Y-49635004D01*
X114013006Y-49635015D01*
X113974500Y-49927486D01*
X113974500Y-50222513D01*
X113995206Y-50379786D01*
X114013007Y-50514993D01*
X114082575Y-50774625D01*
X114089361Y-50799951D01*
X114089364Y-50799961D01*
X114202254Y-51072500D01*
X114202258Y-51072510D01*
X114349761Y-51327993D01*
X114529352Y-51562040D01*
X114529358Y-51562047D01*
X114737952Y-51770641D01*
X114737959Y-51770647D01*
X114972006Y-51950238D01*
X115227489Y-52097741D01*
X115227490Y-52097741D01*
X115227493Y-52097743D01*
X115500048Y-52210639D01*
X115785007Y-52286993D01*
X116077494Y-52325500D01*
X116077501Y-52325500D01*
X116372499Y-52325500D01*
X116372506Y-52325500D01*
X116664993Y-52286993D01*
X116949952Y-52210639D01*
X117222507Y-52097743D01*
X117477994Y-51950238D01*
X117712042Y-51770646D01*
X117920646Y-51562042D01*
X118100238Y-51327994D01*
X118247743Y-51072507D01*
X118360639Y-50799952D01*
X118436993Y-50514993D01*
X118475500Y-50222506D01*
X118475500Y-49927494D01*
X118436993Y-49635007D01*
X118360639Y-49350048D01*
X118247743Y-49077493D01*
X118192372Y-48981588D01*
X118100238Y-48822006D01*
X117920647Y-48587959D01*
X117920641Y-48587952D01*
X117712047Y-48379358D01*
X117712040Y-48379352D01*
X117477993Y-48199761D01*
X117222510Y-48052258D01*
X117222500Y-48052253D01*
X117190650Y-48039061D01*
X117136247Y-47995220D01*
X117114182Y-47928926D01*
X117131461Y-47861226D01*
X117182599Y-47813616D01*
X117238103Y-47800500D01*
X119578844Y-47800500D01*
X119578845Y-47800499D01*
X119733497Y-47769737D01*
X119879179Y-47709394D01*
X120010289Y-47621789D01*
X120316980Y-47315098D01*
X120378303Y-47281613D01*
X120447994Y-47286597D01*
X120503928Y-47328468D01*
X120527134Y-47383381D01*
X120536446Y-47442178D01*
X120609433Y-47666806D01*
X120716657Y-47877243D01*
X120825818Y-48027489D01*
X120832970Y-48047535D01*
X120844477Y-48065440D01*
X120847931Y-48089466D01*
X120849298Y-48093296D01*
X120849500Y-48100375D01*
X120849500Y-48229808D01*
X120829815Y-48296847D01*
X120777011Y-48342602D01*
X120707853Y-48352546D01*
X120678048Y-48344369D01*
X120541839Y-48287950D01*
X120541829Y-48287947D01*
X120348543Y-48249500D01*
X120348541Y-48249500D01*
X120151459Y-48249500D01*
X120151457Y-48249500D01*
X119958170Y-48287947D01*
X119958160Y-48287950D01*
X119776092Y-48363364D01*
X119776079Y-48363371D01*
X119612218Y-48472860D01*
X119612214Y-48472863D01*
X119472863Y-48612214D01*
X119472860Y-48612218D01*
X119363371Y-48776079D01*
X119363364Y-48776092D01*
X119287950Y-48958160D01*
X119287947Y-48958170D01*
X119249500Y-49151456D01*
X119249500Y-49151459D01*
X119249500Y-49348541D01*
X119249500Y-49348543D01*
X119249499Y-49348543D01*
X119287947Y-49541829D01*
X119287950Y-49541839D01*
X119363364Y-49723907D01*
X119363371Y-49723920D01*
X119476245Y-49892847D01*
X119474717Y-49893867D01*
X119498666Y-49950255D01*
X119499500Y-49964610D01*
X119499500Y-50887770D01*
X119479815Y-50954809D01*
X119463181Y-50975451D01*
X118317047Y-52121584D01*
X118317043Y-52121589D01*
X118275486Y-52183787D01*
X118275485Y-52183789D01*
X118234914Y-52244507D01*
X118178343Y-52381082D01*
X118178340Y-52381092D01*
X118149500Y-52526079D01*
X118149500Y-52879338D01*
X118129815Y-52946377D01*
X118077011Y-52992132D01*
X118020768Y-53003248D01*
X118010947Y-53002872D01*
X117993996Y-52999501D01*
X117990895Y-52999500D01*
X117990892Y-52999500D01*
X117925003Y-52999500D01*
X117922653Y-52999499D01*
X117922628Y-52999499D01*
X117851517Y-52999499D01*
X117851501Y-52999500D01*
X114590893Y-52999500D01*
X114590889Y-52999499D01*
X114524997Y-52999500D01*
X114459108Y-52999500D01*
X114459104Y-52999500D01*
X114456408Y-52999500D01*
X114456001Y-52999501D01*
X114320675Y-53026419D01*
X114320669Y-53026421D01*
X114193190Y-53079224D01*
X114078458Y-53155886D01*
X114078454Y-53155889D01*
X113980889Y-53253454D01*
X113980883Y-53253462D01*
X113959884Y-53284890D01*
X113906272Y-53329696D01*
X113856782Y-53340000D01*
X113800000Y-53340000D01*
X113800000Y-54126000D01*
X113780315Y-54193039D01*
X113727511Y-54238794D01*
X113676000Y-54250000D01*
X113550000Y-54250000D01*
X113550000Y-54376000D01*
X113530315Y-54443039D01*
X113477511Y-54488794D01*
X113426000Y-54500000D01*
X112325000Y-54500000D01*
X112325000Y-54707844D01*
X112331401Y-54767372D01*
X112331403Y-54767380D01*
X112355567Y-54832167D01*
X112360551Y-54901859D01*
X112327066Y-54963182D01*
X112265742Y-54996666D01*
X112239385Y-54999500D01*
X111612229Y-54999500D01*
X111545190Y-54979815D01*
X111524548Y-54963181D01*
X110437901Y-53876532D01*
X110353524Y-53792155D01*
X112325000Y-53792155D01*
X112325000Y-54000000D01*
X113300000Y-54000000D01*
X113300000Y-53340000D01*
X112777155Y-53340000D01*
X112717627Y-53346401D01*
X112717620Y-53346403D01*
X112582913Y-53396645D01*
X112582906Y-53396649D01*
X112467812Y-53482809D01*
X112467809Y-53482812D01*
X112381649Y-53597906D01*
X112381645Y-53597913D01*
X112331403Y-53732620D01*
X112331401Y-53732627D01*
X112325000Y-53792155D01*
X110353524Y-53792155D01*
X110228420Y-53667051D01*
X110224045Y-53664128D01*
X110124581Y-53597669D01*
X110124581Y-53597668D01*
X110105495Y-53584916D01*
X110105490Y-53584913D01*
X109968917Y-53528343D01*
X109968907Y-53528340D01*
X109823920Y-53499500D01*
X109823918Y-53499500D01*
X100996588Y-53499500D01*
X100929549Y-53479815D01*
X100922283Y-53474771D01*
X100859252Y-53427586D01*
X100817330Y-53396203D01*
X100817328Y-53396202D01*
X100682482Y-53345908D01*
X100682483Y-53345908D01*
X100622883Y-53339501D01*
X100622881Y-53339500D01*
X100622873Y-53339500D01*
X100622865Y-53339500D01*
X99542884Y-53339500D01*
X99475845Y-53319815D01*
X99439782Y-53284391D01*
X99419113Y-53253457D01*
X99321545Y-53155889D01*
X99321541Y-53155886D01*
X99206809Y-53079224D01*
X99079330Y-53026421D01*
X99079324Y-53026419D01*
X98943998Y-52999501D01*
X98943714Y-52999500D01*
X98940895Y-52999500D01*
X98940892Y-52999500D01*
X98940875Y-52999500D01*
X98875003Y-52999500D01*
X98809111Y-52999499D01*
X98809107Y-52999500D01*
X95548499Y-52999500D01*
X95548482Y-52999499D01*
X95540889Y-52999499D01*
X95474997Y-52999500D01*
X95409108Y-52999500D01*
X95409104Y-52999500D01*
X95406408Y-52999500D01*
X95406001Y-52999501D01*
X95270675Y-53026419D01*
X95270669Y-53026421D01*
X95143190Y-53079224D01*
X95028458Y-53155886D01*
X95028454Y-53155889D01*
X94930889Y-53253454D01*
X94930883Y-53253462D01*
X94909884Y-53284890D01*
X94856272Y-53329696D01*
X94806782Y-53340000D01*
X94750000Y-53340000D01*
X94750000Y-54126000D01*
X94730315Y-54193039D01*
X94677511Y-54238794D01*
X94626000Y-54250000D01*
X94500000Y-54250000D01*
X94500000Y-54376000D01*
X94480315Y-54443039D01*
X94427511Y-54488794D01*
X94376000Y-54500000D01*
X93275000Y-54500000D01*
X93275000Y-54707844D01*
X93281401Y-54767372D01*
X93281403Y-54767380D01*
X93305567Y-54832167D01*
X93310551Y-54901859D01*
X93277066Y-54963182D01*
X93215742Y-54996666D01*
X93189385Y-54999500D01*
X92612229Y-54999500D01*
X92545190Y-54979815D01*
X92524548Y-54963181D01*
X91437901Y-53876532D01*
X91353524Y-53792155D01*
X93275000Y-53792155D01*
X93275000Y-54000000D01*
X94250000Y-54000000D01*
X94250000Y-53340000D01*
X93727155Y-53340000D01*
X93667627Y-53346401D01*
X93667620Y-53346403D01*
X93532913Y-53396645D01*
X93532906Y-53396649D01*
X93417812Y-53482809D01*
X93417809Y-53482812D01*
X93331649Y-53597906D01*
X93331645Y-53597913D01*
X93281403Y-53732620D01*
X93281401Y-53732627D01*
X93275000Y-53792155D01*
X91353524Y-53792155D01*
X91228420Y-53667051D01*
X91224045Y-53664128D01*
X91124581Y-53597669D01*
X91124581Y-53597668D01*
X91105495Y-53584916D01*
X91105490Y-53584913D01*
X90968917Y-53528343D01*
X90968907Y-53528340D01*
X90823920Y-53499500D01*
X90823918Y-53499500D01*
X81946588Y-53499500D01*
X81879549Y-53479815D01*
X81872283Y-53474771D01*
X81809252Y-53427586D01*
X81767330Y-53396203D01*
X81767328Y-53396202D01*
X81632482Y-53345908D01*
X81632483Y-53345908D01*
X81572883Y-53339501D01*
X81572881Y-53339500D01*
X81572873Y-53339500D01*
X81572865Y-53339500D01*
X80492884Y-53339500D01*
X80425845Y-53319815D01*
X80389782Y-53284391D01*
X80369113Y-53253457D01*
X80271545Y-53155889D01*
X80271541Y-53155886D01*
X80156809Y-53079224D01*
X80029330Y-53026421D01*
X80029324Y-53026419D01*
X79893998Y-52999501D01*
X79893714Y-52999500D01*
X79890895Y-52999500D01*
X79890892Y-52999500D01*
X79890875Y-52999500D01*
X79825003Y-52999500D01*
X79759111Y-52999499D01*
X79759107Y-52999500D01*
X76498499Y-52999500D01*
X76498482Y-52999499D01*
X76490889Y-52999499D01*
X76424997Y-52999500D01*
X76359108Y-52999500D01*
X76359104Y-52999500D01*
X76356408Y-52999500D01*
X76356001Y-52999501D01*
X76220675Y-53026419D01*
X76220669Y-53026421D01*
X76093190Y-53079224D01*
X75978458Y-53155886D01*
X75978454Y-53155889D01*
X75880889Y-53253454D01*
X75880883Y-53253462D01*
X75859884Y-53284890D01*
X75806272Y-53329696D01*
X75756782Y-53340000D01*
X75700000Y-53340000D01*
X75700000Y-54126000D01*
X75680315Y-54193039D01*
X75627511Y-54238794D01*
X75576000Y-54250000D01*
X75450000Y-54250000D01*
X75450000Y-54376000D01*
X75430315Y-54443039D01*
X75377511Y-54488794D01*
X75326000Y-54500000D01*
X74225000Y-54500000D01*
X74225000Y-54707844D01*
X74231401Y-54767372D01*
X74231403Y-54767380D01*
X74255567Y-54832167D01*
X74260551Y-54901859D01*
X74227066Y-54963182D01*
X74165742Y-54996666D01*
X74139385Y-54999500D01*
X73612229Y-54999500D01*
X73545190Y-54979815D01*
X73524548Y-54963181D01*
X72437901Y-53876532D01*
X72353524Y-53792155D01*
X74225000Y-53792155D01*
X74225000Y-54000000D01*
X75200000Y-54000000D01*
X75200000Y-53340000D01*
X74677155Y-53340000D01*
X74617627Y-53346401D01*
X74617620Y-53346403D01*
X74482913Y-53396645D01*
X74482906Y-53396649D01*
X74367812Y-53482809D01*
X74367809Y-53482812D01*
X74281649Y-53597906D01*
X74281645Y-53597913D01*
X74231403Y-53732620D01*
X74231401Y-53732627D01*
X74225000Y-53792155D01*
X72353524Y-53792155D01*
X72228420Y-53667051D01*
X72224045Y-53664128D01*
X72124581Y-53597669D01*
X72124581Y-53597668D01*
X72105495Y-53584916D01*
X72105490Y-53584913D01*
X71968917Y-53528343D01*
X71968907Y-53528340D01*
X71823920Y-53499500D01*
X71823918Y-53499500D01*
X62896588Y-53499500D01*
X62829549Y-53479815D01*
X62822283Y-53474771D01*
X62759252Y-53427586D01*
X62717330Y-53396203D01*
X62717328Y-53396202D01*
X62582482Y-53345908D01*
X62582483Y-53345908D01*
X62522883Y-53339501D01*
X62522881Y-53339500D01*
X62522873Y-53339500D01*
X62522865Y-53339500D01*
X61442884Y-53339500D01*
X61375845Y-53319815D01*
X61339782Y-53284391D01*
X61319113Y-53253457D01*
X61221545Y-53155889D01*
X61221541Y-53155886D01*
X61106809Y-53079224D01*
X60979330Y-53026421D01*
X60979324Y-53026419D01*
X60843998Y-52999501D01*
X60843714Y-52999500D01*
X60840895Y-52999500D01*
X60840892Y-52999500D01*
X60840875Y-52999500D01*
X60775003Y-52999500D01*
X60709111Y-52999499D01*
X60709107Y-52999500D01*
X57448499Y-52999500D01*
X57448482Y-52999499D01*
X57440889Y-52999499D01*
X57374997Y-52999500D01*
X57309108Y-52999500D01*
X57309104Y-52999500D01*
X57306408Y-52999500D01*
X57306001Y-52999501D01*
X57170675Y-53026419D01*
X57170669Y-53026421D01*
X57043190Y-53079224D01*
X56928458Y-53155886D01*
X56928454Y-53155889D01*
X56830889Y-53253454D01*
X56830883Y-53253462D01*
X56809884Y-53284890D01*
X56756272Y-53329696D01*
X56706782Y-53340000D01*
X56650000Y-53340000D01*
X56650000Y-54126000D01*
X56630315Y-54193039D01*
X56577511Y-54238794D01*
X56526000Y-54250000D01*
X56400000Y-54250000D01*
X56400000Y-54376000D01*
X56380315Y-54443039D01*
X56327511Y-54488794D01*
X56276000Y-54500000D01*
X55175000Y-54500000D01*
X55175000Y-54707844D01*
X55181401Y-54767372D01*
X55181403Y-54767380D01*
X55205567Y-54832167D01*
X55210551Y-54901859D01*
X55177066Y-54963182D01*
X55115742Y-54996666D01*
X55089385Y-54999500D01*
X54612229Y-54999500D01*
X54545190Y-54979815D01*
X54524548Y-54963181D01*
X53437901Y-53876532D01*
X53353524Y-53792155D01*
X55175000Y-53792155D01*
X55175000Y-54000000D01*
X56150000Y-54000000D01*
X56150000Y-53340000D01*
X55627155Y-53340000D01*
X55567627Y-53346401D01*
X55567620Y-53346403D01*
X55432913Y-53396645D01*
X55432906Y-53396649D01*
X55317812Y-53482809D01*
X55317809Y-53482812D01*
X55231649Y-53597906D01*
X55231645Y-53597913D01*
X55181403Y-53732620D01*
X55181401Y-53732627D01*
X55175000Y-53792155D01*
X53353524Y-53792155D01*
X53228420Y-53667051D01*
X53224045Y-53664128D01*
X53124581Y-53597669D01*
X53124581Y-53597668D01*
X53105495Y-53584916D01*
X53105490Y-53584913D01*
X52968917Y-53528343D01*
X52968907Y-53528340D01*
X52823920Y-53499500D01*
X52823918Y-53499500D01*
X43846588Y-53499500D01*
X43779549Y-53479815D01*
X43772283Y-53474771D01*
X43709252Y-53427586D01*
X43667330Y-53396203D01*
X43667328Y-53396202D01*
X43532482Y-53345908D01*
X43532483Y-53345908D01*
X43472883Y-53339501D01*
X43472881Y-53339500D01*
X43472873Y-53339500D01*
X43472865Y-53339500D01*
X42392884Y-53339500D01*
X42325845Y-53319815D01*
X42289782Y-53284391D01*
X42269113Y-53253457D01*
X42171545Y-53155889D01*
X42171541Y-53155886D01*
X42056809Y-53079224D01*
X41929330Y-53026421D01*
X41929324Y-53026419D01*
X41793998Y-52999501D01*
X41793714Y-52999500D01*
X41790895Y-52999500D01*
X41790892Y-52999500D01*
X41790875Y-52999500D01*
X41725003Y-52999500D01*
X41659111Y-52999499D01*
X41659107Y-52999500D01*
X38398499Y-52999500D01*
X38398482Y-52999499D01*
X38390889Y-52999499D01*
X38324997Y-52999500D01*
X38259108Y-52999500D01*
X38259104Y-52999500D01*
X38256408Y-52999500D01*
X38256001Y-52999501D01*
X38120675Y-53026419D01*
X38120669Y-53026421D01*
X37993190Y-53079224D01*
X37878458Y-53155886D01*
X37878454Y-53155889D01*
X37780889Y-53253454D01*
X37780883Y-53253462D01*
X37759884Y-53284890D01*
X37706272Y-53329696D01*
X37656782Y-53340000D01*
X37600000Y-53340000D01*
X37600000Y-54126000D01*
X37580315Y-54193039D01*
X37527511Y-54238794D01*
X37476000Y-54250000D01*
X37350000Y-54250000D01*
X37350000Y-54376000D01*
X37330315Y-54443039D01*
X37277511Y-54488794D01*
X37226000Y-54500000D01*
X36125000Y-54500000D01*
X36125000Y-54707828D01*
X36130288Y-54757013D01*
X36117882Y-54825772D01*
X36070272Y-54876910D01*
X36002572Y-54894189D01*
X35936278Y-54872124D01*
X35919317Y-54857949D01*
X34853523Y-53792155D01*
X36125000Y-53792155D01*
X36125000Y-54000000D01*
X37100000Y-54000000D01*
X37100000Y-53340000D01*
X36577155Y-53340000D01*
X36517627Y-53346401D01*
X36517620Y-53346403D01*
X36382913Y-53396645D01*
X36382906Y-53396649D01*
X36267812Y-53482809D01*
X36267809Y-53482812D01*
X36181649Y-53597906D01*
X36181645Y-53597913D01*
X36131403Y-53732620D01*
X36131401Y-53732627D01*
X36125000Y-53792155D01*
X34853523Y-53792155D01*
X34786819Y-53725451D01*
X34753334Y-53664128D01*
X34750500Y-53637770D01*
X34750500Y-49927486D01*
X37774500Y-49927486D01*
X37774500Y-50222513D01*
X37795206Y-50379786D01*
X37813007Y-50514993D01*
X37882575Y-50774625D01*
X37889361Y-50799951D01*
X37889364Y-50799961D01*
X38002254Y-51072500D01*
X38002258Y-51072510D01*
X38149761Y-51327993D01*
X38329352Y-51562040D01*
X38329358Y-51562047D01*
X38537952Y-51770641D01*
X38537959Y-51770647D01*
X38772006Y-51950238D01*
X39027489Y-52097741D01*
X39027490Y-52097741D01*
X39027493Y-52097743D01*
X39300048Y-52210639D01*
X39585007Y-52286993D01*
X39877494Y-52325500D01*
X39877501Y-52325500D01*
X40172499Y-52325500D01*
X40172506Y-52325500D01*
X40464993Y-52286993D01*
X40749952Y-52210639D01*
X41022507Y-52097743D01*
X41277994Y-51950238D01*
X41512042Y-51770646D01*
X41720646Y-51562042D01*
X41900238Y-51327994D01*
X42047743Y-51072507D01*
X42160639Y-50799952D01*
X42236993Y-50514993D01*
X42275500Y-50222506D01*
X42275500Y-49927494D01*
X42275499Y-49927486D01*
X56824500Y-49927486D01*
X56824500Y-50222513D01*
X56845206Y-50379786D01*
X56863007Y-50514993D01*
X56932575Y-50774625D01*
X56939361Y-50799951D01*
X56939364Y-50799961D01*
X57052254Y-51072500D01*
X57052258Y-51072510D01*
X57199761Y-51327993D01*
X57379352Y-51562040D01*
X57379358Y-51562047D01*
X57587952Y-51770641D01*
X57587959Y-51770647D01*
X57822006Y-51950238D01*
X58077489Y-52097741D01*
X58077490Y-52097741D01*
X58077493Y-52097743D01*
X58350048Y-52210639D01*
X58635007Y-52286993D01*
X58927494Y-52325500D01*
X58927501Y-52325500D01*
X59222499Y-52325500D01*
X59222506Y-52325500D01*
X59514993Y-52286993D01*
X59799952Y-52210639D01*
X60072507Y-52097743D01*
X60327994Y-51950238D01*
X60562042Y-51770646D01*
X60770646Y-51562042D01*
X60950238Y-51327994D01*
X61097743Y-51072507D01*
X61210639Y-50799952D01*
X61286993Y-50514993D01*
X61325500Y-50222506D01*
X61325500Y-49927494D01*
X61325499Y-49927486D01*
X75874500Y-49927486D01*
X75874500Y-50222513D01*
X75895206Y-50379786D01*
X75913007Y-50514993D01*
X75982575Y-50774625D01*
X75989361Y-50799951D01*
X75989364Y-50799961D01*
X76102254Y-51072500D01*
X76102258Y-51072510D01*
X76249761Y-51327993D01*
X76429352Y-51562040D01*
X76429358Y-51562047D01*
X76637952Y-51770641D01*
X76637959Y-51770647D01*
X76872006Y-51950238D01*
X77127489Y-52097741D01*
X77127490Y-52097741D01*
X77127493Y-52097743D01*
X77400048Y-52210639D01*
X77685007Y-52286993D01*
X77977494Y-52325500D01*
X77977501Y-52325500D01*
X78272499Y-52325500D01*
X78272506Y-52325500D01*
X78564993Y-52286993D01*
X78849952Y-52210639D01*
X79122507Y-52097743D01*
X79377994Y-51950238D01*
X79612042Y-51770646D01*
X79820646Y-51562042D01*
X80000238Y-51327994D01*
X80147743Y-51072507D01*
X80260639Y-50799952D01*
X80336993Y-50514993D01*
X80375500Y-50222506D01*
X80375500Y-49927494D01*
X80375499Y-49927486D01*
X94924500Y-49927486D01*
X94924500Y-50222513D01*
X94945206Y-50379786D01*
X94963007Y-50514993D01*
X95032575Y-50774625D01*
X95039361Y-50799951D01*
X95039364Y-50799961D01*
X95152254Y-51072500D01*
X95152258Y-51072510D01*
X95299761Y-51327993D01*
X95479352Y-51562040D01*
X95479358Y-51562047D01*
X95687952Y-51770641D01*
X95687959Y-51770647D01*
X95922006Y-51950238D01*
X96177489Y-52097741D01*
X96177490Y-52097741D01*
X96177493Y-52097743D01*
X96450048Y-52210639D01*
X96735007Y-52286993D01*
X97027494Y-52325500D01*
X97027501Y-52325500D01*
X97322499Y-52325500D01*
X97322506Y-52325500D01*
X97614993Y-52286993D01*
X97899952Y-52210639D01*
X98172507Y-52097743D01*
X98427994Y-51950238D01*
X98662042Y-51770646D01*
X98870646Y-51562042D01*
X99050238Y-51327994D01*
X99197743Y-51072507D01*
X99310639Y-50799952D01*
X99386993Y-50514993D01*
X99425500Y-50222506D01*
X99425500Y-49927494D01*
X99386993Y-49635007D01*
X99310639Y-49350048D01*
X99197743Y-49077493D01*
X99142372Y-48981588D01*
X99050238Y-48822006D01*
X98870647Y-48587959D01*
X98870641Y-48587952D01*
X98662047Y-48379358D01*
X98662040Y-48379352D01*
X98427993Y-48199761D01*
X98172510Y-48052258D01*
X98172500Y-48052254D01*
X97899961Y-47939364D01*
X97899954Y-47939362D01*
X97899952Y-47939361D01*
X97614993Y-47863007D01*
X97566113Y-47856571D01*
X97322513Y-47824500D01*
X97322506Y-47824500D01*
X97027494Y-47824500D01*
X97027486Y-47824500D01*
X96749085Y-47861153D01*
X96735007Y-47863007D01*
X96595603Y-47900360D01*
X96450048Y-47939361D01*
X96450038Y-47939364D01*
X96177499Y-48052254D01*
X96177489Y-48052258D01*
X95922006Y-48199761D01*
X95687959Y-48379352D01*
X95687952Y-48379358D01*
X95479358Y-48587952D01*
X95479352Y-48587959D01*
X95299761Y-48822006D01*
X95152258Y-49077489D01*
X95152254Y-49077499D01*
X95039364Y-49350038D01*
X95039361Y-49350048D01*
X94970703Y-49606287D01*
X94963008Y-49635004D01*
X94963006Y-49635015D01*
X94924500Y-49927486D01*
X80375499Y-49927486D01*
X80336993Y-49635007D01*
X80260639Y-49350048D01*
X80147743Y-49077493D01*
X80092372Y-48981588D01*
X80000238Y-48822006D01*
X79820647Y-48587959D01*
X79820641Y-48587952D01*
X79612047Y-48379358D01*
X79612040Y-48379352D01*
X79377993Y-48199761D01*
X79122510Y-48052258D01*
X79122500Y-48052254D01*
X78849961Y-47939364D01*
X78849954Y-47939362D01*
X78849952Y-47939361D01*
X78564993Y-47863007D01*
X78516113Y-47856571D01*
X78272513Y-47824500D01*
X78272506Y-47824500D01*
X77977494Y-47824500D01*
X77977486Y-47824500D01*
X77699085Y-47861153D01*
X77685007Y-47863007D01*
X77545603Y-47900360D01*
X77400048Y-47939361D01*
X77400038Y-47939364D01*
X77127499Y-48052254D01*
X77127489Y-48052258D01*
X76872006Y-48199761D01*
X76637959Y-48379352D01*
X76637952Y-48379358D01*
X76429358Y-48587952D01*
X76429352Y-48587959D01*
X76249761Y-48822006D01*
X76102258Y-49077489D01*
X76102254Y-49077499D01*
X75989364Y-49350038D01*
X75989361Y-49350048D01*
X75920703Y-49606287D01*
X75913008Y-49635004D01*
X75913006Y-49635015D01*
X75874500Y-49927486D01*
X61325499Y-49927486D01*
X61286993Y-49635007D01*
X61210639Y-49350048D01*
X61097743Y-49077493D01*
X61042372Y-48981588D01*
X60950238Y-48822006D01*
X60770647Y-48587959D01*
X60770641Y-48587952D01*
X60562047Y-48379358D01*
X60562040Y-48379352D01*
X60327993Y-48199761D01*
X60072510Y-48052258D01*
X60072500Y-48052254D01*
X59799961Y-47939364D01*
X59799954Y-47939362D01*
X59799952Y-47939361D01*
X59514993Y-47863007D01*
X59466113Y-47856571D01*
X59222513Y-47824500D01*
X59222506Y-47824500D01*
X58927494Y-47824500D01*
X58927486Y-47824500D01*
X58649085Y-47861153D01*
X58635007Y-47863007D01*
X58495603Y-47900360D01*
X58350048Y-47939361D01*
X58350038Y-47939364D01*
X58077499Y-48052254D01*
X58077489Y-48052258D01*
X57822006Y-48199761D01*
X57587959Y-48379352D01*
X57587952Y-48379358D01*
X57379358Y-48587952D01*
X57379352Y-48587959D01*
X57199761Y-48822006D01*
X57052258Y-49077489D01*
X57052254Y-49077499D01*
X56939364Y-49350038D01*
X56939361Y-49350048D01*
X56870703Y-49606287D01*
X56863008Y-49635004D01*
X56863006Y-49635015D01*
X56824500Y-49927486D01*
X42275499Y-49927486D01*
X42236993Y-49635007D01*
X42160639Y-49350048D01*
X42047743Y-49077493D01*
X41992372Y-48981588D01*
X41900238Y-48822006D01*
X41720647Y-48587959D01*
X41720641Y-48587952D01*
X41512047Y-48379358D01*
X41512040Y-48379352D01*
X41277993Y-48199761D01*
X41022510Y-48052258D01*
X41022500Y-48052254D01*
X40749961Y-47939364D01*
X40749954Y-47939362D01*
X40749952Y-47939361D01*
X40464993Y-47863007D01*
X40416113Y-47856571D01*
X40172513Y-47824500D01*
X40172506Y-47824500D01*
X39877494Y-47824500D01*
X39877486Y-47824500D01*
X39599085Y-47861153D01*
X39585007Y-47863007D01*
X39445603Y-47900360D01*
X39300048Y-47939361D01*
X39300038Y-47939364D01*
X39027499Y-48052254D01*
X39027489Y-48052258D01*
X38772006Y-48199761D01*
X38537959Y-48379352D01*
X38537952Y-48379358D01*
X38329358Y-48587952D01*
X38329352Y-48587959D01*
X38149761Y-48822006D01*
X38002258Y-49077489D01*
X38002254Y-49077499D01*
X37889364Y-49350038D01*
X37889361Y-49350048D01*
X37820703Y-49606287D01*
X37813008Y-49635004D01*
X37813006Y-49635015D01*
X37774500Y-49927486D01*
X34750500Y-49927486D01*
X34750500Y-48623855D01*
X34770185Y-48556816D01*
X34822989Y-48511061D01*
X34892147Y-48501117D01*
X34955703Y-48530142D01*
X34974819Y-48550971D01*
X34994203Y-48577652D01*
X35172345Y-48755794D01*
X35172350Y-48755798D01*
X35350117Y-48884952D01*
X35376155Y-48903870D01*
X35482725Y-48958170D01*
X35600616Y-49018239D01*
X35600618Y-49018239D01*
X35600621Y-49018241D01*
X35840215Y-49096090D01*
X36089038Y-49135500D01*
X36089039Y-49135500D01*
X36340961Y-49135500D01*
X36340962Y-49135500D01*
X36589785Y-49096090D01*
X36829379Y-49018241D01*
X37053845Y-48903870D01*
X37257656Y-48755793D01*
X37435793Y-48577656D01*
X37583870Y-48373845D01*
X37698241Y-48149379D01*
X37776090Y-47909785D01*
X37815500Y-47660962D01*
X37815500Y-47409038D01*
X53664500Y-47409038D01*
X53664500Y-47660962D01*
X53702417Y-47900360D01*
X53703910Y-47909785D01*
X53781760Y-48149383D01*
X53832773Y-48249500D01*
X53890793Y-48363371D01*
X53896132Y-48373848D01*
X54044201Y-48577649D01*
X54044205Y-48577654D01*
X54222345Y-48755794D01*
X54222350Y-48755798D01*
X54400117Y-48884952D01*
X54426155Y-48903870D01*
X54532725Y-48958170D01*
X54650616Y-49018239D01*
X54650618Y-49018239D01*
X54650621Y-49018241D01*
X54890215Y-49096090D01*
X55139038Y-49135500D01*
X55139039Y-49135500D01*
X55390961Y-49135500D01*
X55390962Y-49135500D01*
X55639785Y-49096090D01*
X55879379Y-49018241D01*
X56103845Y-48903870D01*
X56307656Y-48755793D01*
X56485793Y-48577656D01*
X56633870Y-48373845D01*
X56748241Y-48149379D01*
X56826090Y-47909785D01*
X56865500Y-47660962D01*
X56865500Y-47409038D01*
X72714500Y-47409038D01*
X72714500Y-47660962D01*
X72752417Y-47900360D01*
X72753910Y-47909785D01*
X72831760Y-48149383D01*
X72882773Y-48249500D01*
X72940793Y-48363371D01*
X72946132Y-48373848D01*
X73094201Y-48577649D01*
X73094205Y-48577654D01*
X73272345Y-48755794D01*
X73272350Y-48755798D01*
X73450117Y-48884952D01*
X73476155Y-48903870D01*
X73582725Y-48958170D01*
X73700616Y-49018239D01*
X73700618Y-49018239D01*
X73700621Y-49018241D01*
X73940215Y-49096090D01*
X74189038Y-49135500D01*
X74189039Y-49135500D01*
X74440961Y-49135500D01*
X74440962Y-49135500D01*
X74689785Y-49096090D01*
X74929379Y-49018241D01*
X75153845Y-48903870D01*
X75357656Y-48755793D01*
X75535793Y-48577656D01*
X75683870Y-48373845D01*
X75798241Y-48149379D01*
X75876090Y-47909785D01*
X75915500Y-47660962D01*
X75915500Y-47409038D01*
X75876090Y-47160215D01*
X75798241Y-46920621D01*
X75798239Y-46920618D01*
X75798239Y-46920616D01*
X75740352Y-46807007D01*
X75683870Y-46696155D01*
X75610377Y-46595000D01*
X75535798Y-46492350D01*
X75535794Y-46492345D01*
X75357654Y-46314205D01*
X75357649Y-46314201D01*
X75153848Y-46166132D01*
X75153847Y-46166131D01*
X75153845Y-46166130D01*
X75081336Y-46129185D01*
X74929383Y-46051760D01*
X74689785Y-45973910D01*
X74541981Y-45950500D01*
X74440962Y-45934500D01*
X74189038Y-45934500D01*
X74114581Y-45946293D01*
X73940214Y-45973910D01*
X73700616Y-46051760D01*
X73476151Y-46166132D01*
X73272350Y-46314201D01*
X73272345Y-46314205D01*
X73094205Y-46492345D01*
X73094201Y-46492350D01*
X72946132Y-46696151D01*
X72831760Y-46920616D01*
X72753910Y-47160214D01*
X72731767Y-47300018D01*
X72714500Y-47409038D01*
X56865500Y-47409038D01*
X56826090Y-47160215D01*
X56748241Y-46920621D01*
X56748239Y-46920618D01*
X56748239Y-46920616D01*
X56690352Y-46807007D01*
X56633870Y-46696155D01*
X56560377Y-46595000D01*
X56485798Y-46492350D01*
X56485794Y-46492345D01*
X56307654Y-46314205D01*
X56307649Y-46314201D01*
X56103848Y-46166132D01*
X56103847Y-46166131D01*
X56103845Y-46166130D01*
X56031336Y-46129185D01*
X55879383Y-46051760D01*
X55639785Y-45973910D01*
X55491981Y-45950500D01*
X55390962Y-45934500D01*
X55139038Y-45934500D01*
X55064581Y-45946293D01*
X54890214Y-45973910D01*
X54650616Y-46051760D01*
X54426151Y-46166132D01*
X54222350Y-46314201D01*
X54222345Y-46314205D01*
X54044205Y-46492345D01*
X54044201Y-46492350D01*
X53896132Y-46696151D01*
X53781760Y-46920616D01*
X53703910Y-47160214D01*
X53681767Y-47300018D01*
X53664500Y-47409038D01*
X37815500Y-47409038D01*
X37776090Y-47160215D01*
X37698241Y-46920621D01*
X37698239Y-46920618D01*
X37698239Y-46920616D01*
X37640352Y-46807007D01*
X37583870Y-46696155D01*
X37510377Y-46595000D01*
X37435798Y-46492350D01*
X37435794Y-46492345D01*
X37257654Y-46314205D01*
X37257649Y-46314201D01*
X37053848Y-46166132D01*
X37053847Y-46166131D01*
X37053845Y-46166130D01*
X36981336Y-46129185D01*
X36829383Y-46051760D01*
X36589785Y-45973910D01*
X36441981Y-45950500D01*
X36340962Y-45934500D01*
X36089038Y-45934500D01*
X36014581Y-45946293D01*
X35840214Y-45973910D01*
X35600616Y-46051760D01*
X35376151Y-46166132D01*
X35172350Y-46314201D01*
X35172345Y-46314205D01*
X34994205Y-46492345D01*
X34974818Y-46519030D01*
X34919488Y-46561695D01*
X34849874Y-46567674D01*
X34788079Y-46535068D01*
X34753722Y-46474229D01*
X34750500Y-46446144D01*
X34750500Y-45362229D01*
X34770185Y-45295190D01*
X34786819Y-45274548D01*
X36274548Y-43786819D01*
X36335871Y-43753334D01*
X36362229Y-43750500D01*
X41248281Y-43750500D01*
X41315320Y-43770185D01*
X41361075Y-43822989D01*
X41371019Y-43892147D01*
X41345924Y-43947619D01*
X41347452Y-43948729D01*
X41196557Y-44156416D01*
X41082219Y-44380815D01*
X41004397Y-44620330D01*
X40965000Y-44869071D01*
X40965000Y-45120928D01*
X41004397Y-45369669D01*
X41082219Y-45609184D01*
X41196557Y-45833583D01*
X41270748Y-45935697D01*
X41270748Y-45935698D01*
X41887421Y-45319024D01*
X41900359Y-45350258D01*
X41982437Y-45473097D01*
X42086903Y-45577563D01*
X42209742Y-45659641D01*
X42240974Y-45672577D01*
X41624300Y-46289250D01*
X41726416Y-46363442D01*
X41950815Y-46477780D01*
X42190330Y-46555602D01*
X42439072Y-46595000D01*
X42690928Y-46595000D01*
X42939669Y-46555602D01*
X43179184Y-46477780D01*
X43403575Y-46363446D01*
X43403581Y-46363442D01*
X43505697Y-46289250D01*
X43505698Y-46289250D01*
X42889025Y-45672578D01*
X42920258Y-45659641D01*
X43043097Y-45577563D01*
X43147563Y-45473097D01*
X43229641Y-45350258D01*
X43242578Y-45319025D01*
X43859250Y-45935698D01*
X43859250Y-45935697D01*
X43933442Y-45833581D01*
X43933446Y-45833575D01*
X44047780Y-45609184D01*
X44125602Y-45369669D01*
X44165000Y-45120928D01*
X44165000Y-44869071D01*
X44125602Y-44620330D01*
X44047780Y-44380815D01*
X43933442Y-44156416D01*
X43782548Y-43948729D01*
X43784099Y-43947601D01*
X43758858Y-43891269D01*
X43769296Y-43822183D01*
X43815427Y-43769708D01*
X43881719Y-43750500D01*
X60298281Y-43750500D01*
X60365320Y-43770185D01*
X60411075Y-43822989D01*
X60421019Y-43892147D01*
X60395924Y-43947619D01*
X60397452Y-43948729D01*
X60246557Y-44156416D01*
X60132219Y-44380815D01*
X60054397Y-44620330D01*
X60015000Y-44869071D01*
X60015000Y-45120928D01*
X60054397Y-45369669D01*
X60132219Y-45609184D01*
X60246557Y-45833583D01*
X60320748Y-45935697D01*
X60320748Y-45935698D01*
X60937421Y-45319024D01*
X60950359Y-45350258D01*
X61032437Y-45473097D01*
X61136903Y-45577563D01*
X61259742Y-45659641D01*
X61290974Y-45672577D01*
X60674300Y-46289250D01*
X60776416Y-46363442D01*
X61000815Y-46477780D01*
X61240330Y-46555602D01*
X61489072Y-46595000D01*
X61740928Y-46595000D01*
X61989669Y-46555602D01*
X62229184Y-46477780D01*
X62453575Y-46363446D01*
X62453581Y-46363442D01*
X62555697Y-46289250D01*
X62555698Y-46289250D01*
X61939025Y-45672578D01*
X61970258Y-45659641D01*
X62093097Y-45577563D01*
X62197563Y-45473097D01*
X62279641Y-45350258D01*
X62292578Y-45319025D01*
X62909250Y-45935698D01*
X62909250Y-45935697D01*
X62983442Y-45833581D01*
X62983446Y-45833575D01*
X63097780Y-45609184D01*
X63175602Y-45369669D01*
X63215000Y-45120928D01*
X63215000Y-44869071D01*
X63175602Y-44620330D01*
X63097780Y-44380815D01*
X62983442Y-44156416D01*
X62832548Y-43948729D01*
X62834099Y-43947601D01*
X62808858Y-43891269D01*
X62819296Y-43822183D01*
X62865427Y-43769708D01*
X62931719Y-43750500D01*
X79348281Y-43750500D01*
X79415320Y-43770185D01*
X79461075Y-43822989D01*
X79471019Y-43892147D01*
X79445924Y-43947619D01*
X79447452Y-43948729D01*
X79296557Y-44156416D01*
X79182219Y-44380815D01*
X79104397Y-44620330D01*
X79065000Y-44869071D01*
X79065000Y-45120928D01*
X79104397Y-45369669D01*
X79182219Y-45609184D01*
X79296557Y-45833583D01*
X79370748Y-45935697D01*
X79370748Y-45935698D01*
X79987421Y-45319024D01*
X80000359Y-45350258D01*
X80082437Y-45473097D01*
X80186903Y-45577563D01*
X80309742Y-45659641D01*
X80340974Y-45672577D01*
X79724300Y-46289250D01*
X79826416Y-46363442D01*
X80050815Y-46477780D01*
X80290330Y-46555602D01*
X80539072Y-46595000D01*
X80790928Y-46595000D01*
X81039669Y-46555602D01*
X81279184Y-46477780D01*
X81503575Y-46363446D01*
X81503581Y-46363442D01*
X81605697Y-46289250D01*
X81605698Y-46289250D01*
X80989025Y-45672578D01*
X81020258Y-45659641D01*
X81143097Y-45577563D01*
X81247563Y-45473097D01*
X81329641Y-45350258D01*
X81342578Y-45319025D01*
X81959250Y-45935698D01*
X81959250Y-45935697D01*
X82033442Y-45833581D01*
X82033446Y-45833575D01*
X82147780Y-45609184D01*
X82225602Y-45369669D01*
X82265000Y-45120928D01*
X82265000Y-44869071D01*
X82225602Y-44620330D01*
X82147780Y-44380815D01*
X82033442Y-44156416D01*
X81882548Y-43948729D01*
X81884099Y-43947601D01*
X81858858Y-43891269D01*
X81869296Y-43822183D01*
X81915427Y-43769708D01*
X81981719Y-43750500D01*
X94068060Y-43750500D01*
X94135099Y-43770185D01*
X94180854Y-43822989D01*
X94190798Y-43892147D01*
X94161773Y-43955703D01*
X94155741Y-43962181D01*
X92854711Y-45263211D01*
X92822732Y-45295190D01*
X92743209Y-45374712D01*
X92655609Y-45505814D01*
X92655602Y-45505827D01*
X92595264Y-45651498D01*
X92595261Y-45651510D01*
X92564500Y-45806153D01*
X92564500Y-46075089D01*
X92544815Y-46142128D01*
X92513385Y-46175407D01*
X92322350Y-46314201D01*
X92322345Y-46314205D01*
X92144205Y-46492345D01*
X92144201Y-46492350D01*
X91996132Y-46696151D01*
X91881760Y-46920616D01*
X91803910Y-47160214D01*
X91781767Y-47300018D01*
X91764500Y-47409038D01*
X91764500Y-47660962D01*
X91802417Y-47900360D01*
X91803910Y-47909785D01*
X91881760Y-48149383D01*
X91932773Y-48249500D01*
X91990793Y-48363371D01*
X91996132Y-48373848D01*
X92144201Y-48577649D01*
X92144205Y-48577654D01*
X92322345Y-48755794D01*
X92322350Y-48755798D01*
X92500117Y-48884952D01*
X92526155Y-48903870D01*
X92632725Y-48958170D01*
X92750616Y-49018239D01*
X92750618Y-49018239D01*
X92750621Y-49018241D01*
X92990215Y-49096090D01*
X93239038Y-49135500D01*
X93239039Y-49135500D01*
X93490961Y-49135500D01*
X93490962Y-49135500D01*
X93739785Y-49096090D01*
X93979379Y-49018241D01*
X94203845Y-48903870D01*
X94407656Y-48755793D01*
X94585793Y-48577656D01*
X94733870Y-48373845D01*
X94848241Y-48149379D01*
X94926090Y-47909785D01*
X94965500Y-47660962D01*
X94965500Y-47409038D01*
X94926090Y-47160215D01*
X94848241Y-46920621D01*
X94848239Y-46920618D01*
X94848239Y-46920616D01*
X94790352Y-46807007D01*
X94733870Y-46696155D01*
X94660377Y-46595000D01*
X94585798Y-46492350D01*
X94585794Y-46492345D01*
X94428455Y-46335006D01*
X94407656Y-46314207D01*
X94326537Y-46255271D01*
X94324791Y-46253905D01*
X94305693Y-46227228D01*
X94285646Y-46201231D01*
X94285450Y-46198952D01*
X94284119Y-46197093D01*
X94282474Y-46164305D01*
X94279667Y-46131618D01*
X94280733Y-46129596D01*
X94280619Y-46127311D01*
X94296957Y-46098847D01*
X94312272Y-46069822D01*
X94313516Y-46068561D01*
X95605554Y-44776524D01*
X96795259Y-43586819D01*
X96856582Y-43553334D01*
X96882940Y-43550500D01*
X98651983Y-43550500D01*
X98719022Y-43570185D01*
G37*
%TD.AperFunction*%
%TA.AperFunction,Conductor*%
G36*
X121644137Y-43570185D02*
G01*
X121689892Y-43622989D01*
X121699836Y-43692147D01*
X121670811Y-43755703D01*
X121624549Y-43789062D01*
X121620821Y-43790605D01*
X121620814Y-43790609D01*
X121489711Y-43878210D01*
X121489707Y-43878213D01*
X120555384Y-44812537D01*
X120494061Y-44846022D01*
X120424369Y-44841038D01*
X120368436Y-44799166D01*
X120345230Y-44744253D01*
X120325603Y-44620331D01*
X120247780Y-44380815D01*
X120133442Y-44156416D01*
X120059250Y-44054301D01*
X120059250Y-44054300D01*
X119442577Y-44670973D01*
X119429641Y-44639742D01*
X119347563Y-44516903D01*
X119243097Y-44412437D01*
X119120258Y-44330359D01*
X119089024Y-44317421D01*
X119705698Y-43700748D01*
X119704398Y-43684229D01*
X119718762Y-43615851D01*
X119767814Y-43566095D01*
X119828016Y-43550500D01*
X121577098Y-43550500D01*
X121644137Y-43570185D01*
G37*
%TD.AperFunction*%
%TA.AperFunction,Conductor*%
G36*
X28184099Y-35320185D02*
G01*
X28204741Y-35336819D01*
X30178211Y-37310289D01*
X30261213Y-37393291D01*
X30289712Y-37421790D01*
X30420814Y-37509390D01*
X30420816Y-37509391D01*
X30420821Y-37509394D01*
X30527796Y-37553704D01*
X30527799Y-37553705D01*
X30527800Y-37553706D01*
X30566498Y-37569735D01*
X30566503Y-37569737D01*
X30566507Y-37569737D01*
X30566508Y-37569738D01*
X30721154Y-37600500D01*
X30721157Y-37600500D01*
X30721158Y-37600500D01*
X31115202Y-37600500D01*
X31182241Y-37620185D01*
X31220739Y-37659401D01*
X31257288Y-37718656D01*
X31381344Y-37842712D01*
X31530666Y-37934814D01*
X31697203Y-37989999D01*
X31799991Y-38000500D01*
X32600008Y-38000499D01*
X32600016Y-38000498D01*
X32600019Y-38000498D01*
X32656302Y-37994748D01*
X32702797Y-37989999D01*
X32869334Y-37934814D01*
X33018656Y-37842712D01*
X33112319Y-37749049D01*
X33173642Y-37715564D01*
X33243334Y-37720548D01*
X33287681Y-37749049D01*
X33381344Y-37842712D01*
X33530666Y-37934814D01*
X33697203Y-37989999D01*
X33799991Y-38000500D01*
X34600008Y-38000499D01*
X34600016Y-38000498D01*
X34600019Y-38000498D01*
X34656302Y-37994748D01*
X34702797Y-37989999D01*
X34869334Y-37934814D01*
X35018656Y-37842712D01*
X35142712Y-37718656D01*
X35179259Y-37659402D01*
X35231207Y-37612679D01*
X35284798Y-37600500D01*
X36351460Y-37600500D01*
X36394793Y-37608318D01*
X36517517Y-37654091D01*
X36517516Y-37654091D01*
X36524444Y-37654835D01*
X36577127Y-37660500D01*
X37657115Y-37660499D01*
X37724154Y-37680184D01*
X37760215Y-37715605D01*
X37780887Y-37746542D01*
X37780890Y-37746545D01*
X37780893Y-37746549D01*
X37878454Y-37844110D01*
X37878458Y-37844113D01*
X37993188Y-37920774D01*
X37993189Y-37920774D01*
X37998253Y-37924158D01*
X37996748Y-37926409D01*
X38038253Y-37967208D01*
X38053689Y-38035352D01*
X38035473Y-38092662D01*
X37965645Y-38205871D01*
X37965641Y-38205880D01*
X37910494Y-38372302D01*
X37910493Y-38372309D01*
X37900000Y-38475013D01*
X37900000Y-38750000D01*
X38863500Y-38750000D01*
X38930539Y-38769685D01*
X38976294Y-38822489D01*
X38987500Y-38874000D01*
X38987500Y-39126000D01*
X38967815Y-39193039D01*
X38915011Y-39238794D01*
X38863500Y-39250000D01*
X37900001Y-39250000D01*
X37900001Y-39524986D01*
X37910494Y-39627698D01*
X37913409Y-39636494D01*
X37915812Y-39706323D01*
X37880081Y-39766365D01*
X37817562Y-39797558D01*
X37795704Y-39799500D01*
X29642177Y-39799500D01*
X29575138Y-39779815D01*
X29529383Y-39727011D01*
X29518177Y-39675500D01*
X29518177Y-38463358D01*
X29518178Y-38463333D01*
X29518178Y-38277131D01*
X29514127Y-38251555D01*
X29489848Y-38098268D01*
X29433888Y-37926038D01*
X29433886Y-37926035D01*
X29433884Y-37926029D01*
X29431209Y-37920779D01*
X29431207Y-37920777D01*
X29431206Y-37920774D01*
X29351673Y-37764683D01*
X29319607Y-37720548D01*
X29245236Y-37618183D01*
X29245232Y-37618179D01*
X29245230Y-37618176D01*
X29117178Y-37490124D01*
X29117177Y-37490123D01*
X29114066Y-37487012D01*
X29114051Y-37486998D01*
X27881893Y-36254840D01*
X27881884Y-36254830D01*
X27815704Y-36188650D01*
X27749501Y-36122447D01*
X27749497Y-36122444D01*
X27749493Y-36122440D01*
X27602997Y-36016006D01*
X27602996Y-36016005D01*
X27602994Y-36016004D01*
X27512491Y-35969890D01*
X27441639Y-35933788D01*
X27441636Y-35933787D01*
X27269410Y-35877829D01*
X27179977Y-35863664D01*
X27090546Y-35849499D01*
X26909454Y-35849499D01*
X26904343Y-35849499D01*
X26904319Y-35849500D01*
X25946814Y-35849500D01*
X25879775Y-35829815D01*
X25834020Y-35777011D01*
X25824076Y-35707853D01*
X25853101Y-35644297D01*
X25873929Y-35625182D01*
X26004785Y-35530109D01*
X26004783Y-35530109D01*
X26004792Y-35530104D01*
X26155104Y-35379792D01*
X26175577Y-35351613D01*
X26230906Y-35308949D01*
X26275894Y-35300500D01*
X28117060Y-35300500D01*
X28184099Y-35320185D01*
G37*
%TD.AperFunction*%
%TA.AperFunction,Conductor*%
G36*
X52454809Y-36020185D02*
G01*
X52475451Y-36036819D01*
X53771580Y-37332948D01*
X53771584Y-37332951D01*
X53894498Y-37415080D01*
X53894511Y-37415087D01*
X54026833Y-37469896D01*
X54031087Y-37471658D01*
X54031091Y-37471658D01*
X54031092Y-37471659D01*
X54176079Y-37500500D01*
X54176082Y-37500500D01*
X54323917Y-37500500D01*
X55253412Y-37500500D01*
X55320451Y-37520185D01*
X55327716Y-37525228D01*
X55402085Y-37580901D01*
X55432669Y-37603796D01*
X55432671Y-37603797D01*
X55567517Y-37654091D01*
X55567516Y-37654091D01*
X55574444Y-37654835D01*
X55627127Y-37660500D01*
X56707115Y-37660499D01*
X56774154Y-37680184D01*
X56810215Y-37715605D01*
X56830887Y-37746542D01*
X56830890Y-37746545D01*
X56830893Y-37746549D01*
X56928454Y-37844110D01*
X56928458Y-37844113D01*
X57043188Y-37920774D01*
X57043189Y-37920774D01*
X57048253Y-37924158D01*
X57046748Y-37926409D01*
X57088253Y-37967208D01*
X57103689Y-38035352D01*
X57085473Y-38092662D01*
X57015645Y-38205871D01*
X57015641Y-38205880D01*
X56960494Y-38372302D01*
X56960493Y-38372309D01*
X56950000Y-38475013D01*
X56950000Y-38750000D01*
X57913500Y-38750000D01*
X57980539Y-38769685D01*
X58026294Y-38822489D01*
X58037500Y-38874000D01*
X58037500Y-39126000D01*
X58017815Y-39193039D01*
X57965011Y-39238794D01*
X57913500Y-39250000D01*
X56950001Y-39250000D01*
X56950001Y-39524986D01*
X56960494Y-39627698D01*
X56963409Y-39636494D01*
X56965812Y-39706323D01*
X56930081Y-39766365D01*
X56867562Y-39797558D01*
X56845704Y-39799500D01*
X42381941Y-39799500D01*
X42314902Y-39779815D01*
X42269147Y-39727011D01*
X42259203Y-39657853D01*
X42288228Y-39594297D01*
X42294260Y-39587819D01*
X43346786Y-38535292D01*
X43346787Y-38535291D01*
X43346789Y-38535289D01*
X43387078Y-38474992D01*
X43434394Y-38404179D01*
X43494737Y-38258497D01*
X43500353Y-38230263D01*
X43509604Y-38183757D01*
X43525500Y-38103845D01*
X43525500Y-37664648D01*
X43545185Y-37597609D01*
X43585351Y-37558531D01*
X43658289Y-37514439D01*
X43779434Y-37393294D01*
X43779437Y-37393291D01*
X43868071Y-37246673D01*
X43919041Y-37083104D01*
X43925500Y-37012026D01*
X43925500Y-36487974D01*
X43919041Y-36416896D01*
X43880178Y-36292179D01*
X43868072Y-36253329D01*
X43843198Y-36212183D01*
X43828971Y-36188649D01*
X43811136Y-36121095D01*
X43832654Y-36054621D01*
X43886694Y-36010334D01*
X43935089Y-36000500D01*
X52387770Y-36000500D01*
X52454809Y-36020185D01*
G37*
%TD.AperFunction*%
%TA.AperFunction,Conductor*%
G36*
X71454809Y-36020185D02*
G01*
X71475451Y-36036819D01*
X72667048Y-37228415D01*
X72667049Y-37228416D01*
X72748922Y-37310289D01*
X72771585Y-37332952D01*
X72894498Y-37415080D01*
X72894511Y-37415087D01*
X73026833Y-37469896D01*
X73031087Y-37471658D01*
X73031091Y-37471658D01*
X73031092Y-37471659D01*
X73176079Y-37500500D01*
X73176082Y-37500500D01*
X74303412Y-37500500D01*
X74370451Y-37520185D01*
X74377716Y-37525228D01*
X74452085Y-37580901D01*
X74482669Y-37603796D01*
X74482671Y-37603797D01*
X74617517Y-37654091D01*
X74617516Y-37654091D01*
X74624444Y-37654835D01*
X74677127Y-37660500D01*
X75757115Y-37660499D01*
X75824154Y-37680184D01*
X75860215Y-37715605D01*
X75880887Y-37746542D01*
X75880890Y-37746545D01*
X75880893Y-37746549D01*
X75978454Y-37844110D01*
X75978458Y-37844113D01*
X76093188Y-37920774D01*
X76093189Y-37920774D01*
X76098253Y-37924158D01*
X76096748Y-37926409D01*
X76138253Y-37967208D01*
X76153689Y-38035352D01*
X76135473Y-38092662D01*
X76065645Y-38205871D01*
X76065641Y-38205880D01*
X76010494Y-38372302D01*
X76010493Y-38372309D01*
X76000000Y-38475013D01*
X76000000Y-38750000D01*
X76963500Y-38750000D01*
X77030539Y-38769685D01*
X77076294Y-38822489D01*
X77087500Y-38874000D01*
X77087500Y-39126000D01*
X77067815Y-39193039D01*
X77015011Y-39238794D01*
X76963500Y-39250000D01*
X76000001Y-39250000D01*
X76000001Y-39524986D01*
X76010494Y-39627698D01*
X76013409Y-39636494D01*
X76015812Y-39706323D01*
X75980081Y-39766365D01*
X75917562Y-39797558D01*
X75895704Y-39799500D01*
X61381941Y-39799500D01*
X61314902Y-39779815D01*
X61269147Y-39727011D01*
X61259203Y-39657853D01*
X61288228Y-39594297D01*
X61294260Y-39587819D01*
X62396786Y-38485292D01*
X62396789Y-38485289D01*
X62484394Y-38354179D01*
X62544737Y-38208497D01*
X62575500Y-38053842D01*
X62575500Y-37896158D01*
X62575500Y-37664648D01*
X62595185Y-37597609D01*
X62635351Y-37558531D01*
X62708289Y-37514439D01*
X62829434Y-37393294D01*
X62829437Y-37393291D01*
X62918071Y-37246673D01*
X62969041Y-37083104D01*
X62975500Y-37012026D01*
X62975500Y-36487974D01*
X62969041Y-36416896D01*
X62930178Y-36292179D01*
X62918072Y-36253329D01*
X62893198Y-36212183D01*
X62878971Y-36188649D01*
X62861136Y-36121095D01*
X62882654Y-36054621D01*
X62936694Y-36010334D01*
X62985089Y-36000500D01*
X71387770Y-36000500D01*
X71454809Y-36020185D01*
G37*
%TD.AperFunction*%
%TA.AperFunction,Conductor*%
G36*
X90454809Y-36020185D02*
G01*
X90475451Y-36036819D01*
X91771580Y-37332948D01*
X91771584Y-37332951D01*
X91894498Y-37415080D01*
X91894511Y-37415087D01*
X92026833Y-37469896D01*
X92031087Y-37471658D01*
X92031091Y-37471658D01*
X92031092Y-37471659D01*
X92176079Y-37500500D01*
X92176082Y-37500500D01*
X92323917Y-37500500D01*
X93303412Y-37500500D01*
X93370451Y-37520185D01*
X93377716Y-37525228D01*
X93452085Y-37580901D01*
X93482669Y-37603796D01*
X93482671Y-37603797D01*
X93617517Y-37654091D01*
X93617516Y-37654091D01*
X93624444Y-37654835D01*
X93677127Y-37660500D01*
X94757115Y-37660499D01*
X94824154Y-37680184D01*
X94860215Y-37715605D01*
X94880887Y-37746542D01*
X94880890Y-37746545D01*
X94880893Y-37746549D01*
X94978454Y-37844110D01*
X94978458Y-37844113D01*
X95093188Y-37920774D01*
X95116611Y-37930476D01*
X95171014Y-37974316D01*
X95193079Y-38040610D01*
X95175800Y-38108309D01*
X95174697Y-38110133D01*
X95115645Y-38205871D01*
X95115641Y-38205880D01*
X95060494Y-38372302D01*
X95060493Y-38372309D01*
X95050000Y-38475013D01*
X95050000Y-38750000D01*
X96013500Y-38750000D01*
X96080539Y-38769685D01*
X96126294Y-38822489D01*
X96137500Y-38874000D01*
X96137500Y-39126000D01*
X96117815Y-39193039D01*
X96065011Y-39238794D01*
X96013500Y-39250000D01*
X95050001Y-39250000D01*
X95050001Y-39524986D01*
X95060494Y-39627698D01*
X95063409Y-39636494D01*
X95065812Y-39706323D01*
X95030081Y-39766365D01*
X94967562Y-39797558D01*
X94945704Y-39799500D01*
X80881941Y-39799500D01*
X80814902Y-39779815D01*
X80769147Y-39727011D01*
X80759203Y-39657853D01*
X80788228Y-39594297D01*
X80794260Y-39587819D01*
X81446786Y-38935292D01*
X81446789Y-38935289D01*
X81534394Y-38804179D01*
X81594737Y-38658497D01*
X81625500Y-38503842D01*
X81625500Y-38346157D01*
X81625500Y-37664648D01*
X81645185Y-37597609D01*
X81685351Y-37558531D01*
X81758289Y-37514439D01*
X81879434Y-37393294D01*
X81879437Y-37393291D01*
X81968071Y-37246673D01*
X82019041Y-37083104D01*
X82025500Y-37012026D01*
X82025500Y-36487974D01*
X82019041Y-36416896D01*
X81980178Y-36292179D01*
X81968072Y-36253329D01*
X81943198Y-36212183D01*
X81928971Y-36188649D01*
X81911136Y-36121095D01*
X81932654Y-36054621D01*
X81986694Y-36010334D01*
X82035089Y-36000500D01*
X90387770Y-36000500D01*
X90454809Y-36020185D01*
G37*
%TD.AperFunction*%
%TA.AperFunction,Conductor*%
G36*
X109454809Y-36020185D02*
G01*
X109475451Y-36036819D01*
X110771580Y-37332948D01*
X110771584Y-37332951D01*
X110894498Y-37415080D01*
X110894511Y-37415087D01*
X111026833Y-37469896D01*
X111031087Y-37471658D01*
X111031091Y-37471658D01*
X111031092Y-37471659D01*
X111176079Y-37500500D01*
X111176082Y-37500500D01*
X111323917Y-37500500D01*
X112403412Y-37500500D01*
X112470451Y-37520185D01*
X112477716Y-37525228D01*
X112552085Y-37580901D01*
X112582669Y-37603796D01*
X112582671Y-37603797D01*
X112717517Y-37654091D01*
X112717516Y-37654091D01*
X112724444Y-37654835D01*
X112777127Y-37660500D01*
X113857115Y-37660499D01*
X113924154Y-37680184D01*
X113960215Y-37715605D01*
X113980887Y-37746542D01*
X113980890Y-37746545D01*
X113980893Y-37746549D01*
X114078454Y-37844110D01*
X114078458Y-37844113D01*
X114193188Y-37920774D01*
X114193189Y-37920774D01*
X114198253Y-37924158D01*
X114196748Y-37926409D01*
X114238253Y-37967208D01*
X114253689Y-38035352D01*
X114235473Y-38092662D01*
X114165645Y-38205871D01*
X114165641Y-38205880D01*
X114110494Y-38372302D01*
X114110493Y-38372309D01*
X114100000Y-38475013D01*
X114100000Y-38750000D01*
X115063500Y-38750000D01*
X115130539Y-38769685D01*
X115176294Y-38822489D01*
X115187500Y-38874000D01*
X115187500Y-39126000D01*
X115167815Y-39193039D01*
X115115011Y-39238794D01*
X115063500Y-39250000D01*
X114100001Y-39250000D01*
X114100001Y-39524986D01*
X114110494Y-39627698D01*
X114113409Y-39636494D01*
X114115812Y-39706323D01*
X114080081Y-39766365D01*
X114017562Y-39797558D01*
X113995704Y-39799500D01*
X99881941Y-39799500D01*
X99814902Y-39779815D01*
X99769147Y-39727011D01*
X99759203Y-39657853D01*
X99788228Y-39594297D01*
X99794260Y-39587819D01*
X100446786Y-38935292D01*
X100446789Y-38935289D01*
X100534394Y-38804179D01*
X100594737Y-38658497D01*
X100625500Y-38503842D01*
X100625500Y-38346157D01*
X100625500Y-37664648D01*
X100645185Y-37597609D01*
X100685351Y-37558531D01*
X100758289Y-37514439D01*
X100879434Y-37393294D01*
X100879437Y-37393291D01*
X100968071Y-37246673D01*
X101019041Y-37083104D01*
X101025500Y-37012026D01*
X101025500Y-36487974D01*
X101019041Y-36416896D01*
X100980178Y-36292179D01*
X100968072Y-36253329D01*
X100943198Y-36212183D01*
X100928971Y-36188649D01*
X100911136Y-36121095D01*
X100932654Y-36054621D01*
X100986694Y-36010334D01*
X101035089Y-36000500D01*
X109387770Y-36000500D01*
X109454809Y-36020185D01*
G37*
%TD.AperFunction*%
%TD*%
M02*
