%TF.GenerationSoftware,KiCad,Pcbnew,9.0.8-1.fc42*%
%TF.CreationDate,2026-04-13T21:32:41+02:00*%
%TF.ProjectId,FM,464d2e6b-6963-4616-945f-706362585858,rev?*%
%TF.SameCoordinates,Original*%
%TF.FileFunction,Legend,Bot*%
%TF.FilePolarity,Positive*%
%FSLAX46Y46*%
G04 Gerber Fmt 4.6, Leading zero omitted, Abs format (unit mm)*
G04 Created by KiCad (PCBNEW 9.0.8-1.fc42) date 2026-04-13 21:32:41*
%MOMM*%
%LPD*%
G01*
G04 APERTURE LIST*
%ADD10C,0.150000*%
%ADD11C,0.120000*%
%ADD12C,0.100000*%
G04 APERTURE END LIST*
D10*
X62666666Y-39359580D02*
X62714285Y-39407200D01*
X62714285Y-39407200D02*
X62857142Y-39454819D01*
X62857142Y-39454819D02*
X62952380Y-39454819D01*
X62952380Y-39454819D02*
X63095237Y-39407200D01*
X63095237Y-39407200D02*
X63190475Y-39311961D01*
X63190475Y-39311961D02*
X63238094Y-39216723D01*
X63238094Y-39216723D02*
X63285713Y-39026247D01*
X63285713Y-39026247D02*
X63285713Y-38883390D01*
X63285713Y-38883390D02*
X63238094Y-38692914D01*
X63238094Y-38692914D02*
X63190475Y-38597676D01*
X63190475Y-38597676D02*
X63095237Y-38502438D01*
X63095237Y-38502438D02*
X62952380Y-38454819D01*
X62952380Y-38454819D02*
X62857142Y-38454819D01*
X62857142Y-38454819D02*
X62714285Y-38502438D01*
X62714285Y-38502438D02*
X62666666Y-38550057D01*
X62285713Y-38550057D02*
X62238094Y-38502438D01*
X62238094Y-38502438D02*
X62142856Y-38454819D01*
X62142856Y-38454819D02*
X61904761Y-38454819D01*
X61904761Y-38454819D02*
X61809523Y-38502438D01*
X61809523Y-38502438D02*
X61761904Y-38550057D01*
X61761904Y-38550057D02*
X61714285Y-38645295D01*
X61714285Y-38645295D02*
X61714285Y-38740533D01*
X61714285Y-38740533D02*
X61761904Y-38883390D01*
X61761904Y-38883390D02*
X62333332Y-39454819D01*
X62333332Y-39454819D02*
X61714285Y-39454819D01*
X59591666Y-53216033D02*
X59591666Y-52516033D01*
X59591666Y-52516033D02*
X59424999Y-52516033D01*
X59424999Y-52516033D02*
X59324999Y-52549366D01*
X59324999Y-52549366D02*
X59258333Y-52616033D01*
X59258333Y-52616033D02*
X59224999Y-52682700D01*
X59224999Y-52682700D02*
X59191666Y-52816033D01*
X59191666Y-52816033D02*
X59191666Y-52916033D01*
X59191666Y-52916033D02*
X59224999Y-53049366D01*
X59224999Y-53049366D02*
X59258333Y-53116033D01*
X59258333Y-53116033D02*
X59324999Y-53182700D01*
X59324999Y-53182700D02*
X59424999Y-53216033D01*
X59424999Y-53216033D02*
X59591666Y-53216033D01*
X58958333Y-52516033D02*
X58491666Y-52516033D01*
X58491666Y-52516033D02*
X58791666Y-53216033D01*
X78641666Y-34216033D02*
X78641666Y-33516033D01*
X78641666Y-33516033D02*
X78474999Y-33516033D01*
X78474999Y-33516033D02*
X78374999Y-33549366D01*
X78374999Y-33549366D02*
X78308333Y-33616033D01*
X78308333Y-33616033D02*
X78274999Y-33682700D01*
X78274999Y-33682700D02*
X78241666Y-33816033D01*
X78241666Y-33816033D02*
X78241666Y-33916033D01*
X78241666Y-33916033D02*
X78274999Y-34049366D01*
X78274999Y-34049366D02*
X78308333Y-34116033D01*
X78308333Y-34116033D02*
X78374999Y-34182700D01*
X78374999Y-34182700D02*
X78474999Y-34216033D01*
X78474999Y-34216033D02*
X78641666Y-34216033D01*
X78008333Y-33516033D02*
X77574999Y-33516033D01*
X77574999Y-33516033D02*
X77808333Y-33782700D01*
X77808333Y-33782700D02*
X77708333Y-33782700D01*
X77708333Y-33782700D02*
X77641666Y-33816033D01*
X77641666Y-33816033D02*
X77608333Y-33849366D01*
X77608333Y-33849366D02*
X77574999Y-33916033D01*
X77574999Y-33916033D02*
X77574999Y-34082700D01*
X77574999Y-34082700D02*
X77608333Y-34149366D01*
X77608333Y-34149366D02*
X77641666Y-34182700D01*
X77641666Y-34182700D02*
X77708333Y-34216033D01*
X77708333Y-34216033D02*
X77908333Y-34216033D01*
X77908333Y-34216033D02*
X77974999Y-34182700D01*
X77974999Y-34182700D02*
X78008333Y-34149366D01*
X127833333Y-20704819D02*
X127833333Y-21419104D01*
X127833333Y-21419104D02*
X127880952Y-21561961D01*
X127880952Y-21561961D02*
X127976190Y-21657200D01*
X127976190Y-21657200D02*
X128119047Y-21704819D01*
X128119047Y-21704819D02*
X128214285Y-21704819D01*
X126833333Y-21704819D02*
X127404761Y-21704819D01*
X127119047Y-21704819D02*
X127119047Y-20704819D01*
X127119047Y-20704819D02*
X127214285Y-20847676D01*
X127214285Y-20847676D02*
X127309523Y-20942914D01*
X127309523Y-20942914D02*
X127404761Y-20990533D01*
X97691666Y-53216033D02*
X97691666Y-52516033D01*
X97691666Y-52516033D02*
X97524999Y-52516033D01*
X97524999Y-52516033D02*
X97424999Y-52549366D01*
X97424999Y-52549366D02*
X97358333Y-52616033D01*
X97358333Y-52616033D02*
X97324999Y-52682700D01*
X97324999Y-52682700D02*
X97291666Y-52816033D01*
X97291666Y-52816033D02*
X97291666Y-52916033D01*
X97291666Y-52916033D02*
X97324999Y-53049366D01*
X97324999Y-53049366D02*
X97358333Y-53116033D01*
X97358333Y-53116033D02*
X97424999Y-53182700D01*
X97424999Y-53182700D02*
X97524999Y-53216033D01*
X97524999Y-53216033D02*
X97691666Y-53216033D01*
X96958333Y-53216033D02*
X96824999Y-53216033D01*
X96824999Y-53216033D02*
X96758333Y-53182700D01*
X96758333Y-53182700D02*
X96724999Y-53149366D01*
X96724999Y-53149366D02*
X96658333Y-53049366D01*
X96658333Y-53049366D02*
X96624999Y-52916033D01*
X96624999Y-52916033D02*
X96624999Y-52649366D01*
X96624999Y-52649366D02*
X96658333Y-52582700D01*
X96658333Y-52582700D02*
X96691666Y-52549366D01*
X96691666Y-52549366D02*
X96758333Y-52516033D01*
X96758333Y-52516033D02*
X96891666Y-52516033D01*
X96891666Y-52516033D02*
X96958333Y-52549366D01*
X96958333Y-52549366D02*
X96991666Y-52582700D01*
X96991666Y-52582700D02*
X97024999Y-52649366D01*
X97024999Y-52649366D02*
X97024999Y-52816033D01*
X97024999Y-52816033D02*
X96991666Y-52882700D01*
X96991666Y-52882700D02*
X96958333Y-52916033D01*
X96958333Y-52916033D02*
X96891666Y-52949366D01*
X96891666Y-52949366D02*
X96758333Y-52949366D01*
X96758333Y-52949366D02*
X96691666Y-52916033D01*
X96691666Y-52916033D02*
X96658333Y-52882700D01*
X96658333Y-52882700D02*
X96624999Y-52816033D01*
X59591666Y-34216033D02*
X59591666Y-33516033D01*
X59591666Y-33516033D02*
X59424999Y-33516033D01*
X59424999Y-33516033D02*
X59324999Y-33549366D01*
X59324999Y-33549366D02*
X59258333Y-33616033D01*
X59258333Y-33616033D02*
X59224999Y-33682700D01*
X59224999Y-33682700D02*
X59191666Y-33816033D01*
X59191666Y-33816033D02*
X59191666Y-33916033D01*
X59191666Y-33916033D02*
X59224999Y-34049366D01*
X59224999Y-34049366D02*
X59258333Y-34116033D01*
X59258333Y-34116033D02*
X59324999Y-34182700D01*
X59324999Y-34182700D02*
X59424999Y-34216033D01*
X59424999Y-34216033D02*
X59591666Y-34216033D01*
X58924999Y-33582700D02*
X58891666Y-33549366D01*
X58891666Y-33549366D02*
X58824999Y-33516033D01*
X58824999Y-33516033D02*
X58658333Y-33516033D01*
X58658333Y-33516033D02*
X58591666Y-33549366D01*
X58591666Y-33549366D02*
X58558333Y-33582700D01*
X58558333Y-33582700D02*
X58524999Y-33649366D01*
X58524999Y-33649366D02*
X58524999Y-33716033D01*
X58524999Y-33716033D02*
X58558333Y-33816033D01*
X58558333Y-33816033D02*
X58958333Y-34216033D01*
X58958333Y-34216033D02*
X58524999Y-34216033D01*
X120642857Y-58359580D02*
X120690476Y-58407200D01*
X120690476Y-58407200D02*
X120833333Y-58454819D01*
X120833333Y-58454819D02*
X120928571Y-58454819D01*
X120928571Y-58454819D02*
X121071428Y-58407200D01*
X121071428Y-58407200D02*
X121166666Y-58311961D01*
X121166666Y-58311961D02*
X121214285Y-58216723D01*
X121214285Y-58216723D02*
X121261904Y-58026247D01*
X121261904Y-58026247D02*
X121261904Y-57883390D01*
X121261904Y-57883390D02*
X121214285Y-57692914D01*
X121214285Y-57692914D02*
X121166666Y-57597676D01*
X121166666Y-57597676D02*
X121071428Y-57502438D01*
X121071428Y-57502438D02*
X120928571Y-57454819D01*
X120928571Y-57454819D02*
X120833333Y-57454819D01*
X120833333Y-57454819D02*
X120690476Y-57502438D01*
X120690476Y-57502438D02*
X120642857Y-57550057D01*
X119690476Y-58454819D02*
X120261904Y-58454819D01*
X119976190Y-58454819D02*
X119976190Y-57454819D01*
X119976190Y-57454819D02*
X120071428Y-57597676D01*
X120071428Y-57597676D02*
X120166666Y-57692914D01*
X120166666Y-57692914D02*
X120261904Y-57740533D01*
X119071428Y-57454819D02*
X118976190Y-57454819D01*
X118976190Y-57454819D02*
X118880952Y-57502438D01*
X118880952Y-57502438D02*
X118833333Y-57550057D01*
X118833333Y-57550057D02*
X118785714Y-57645295D01*
X118785714Y-57645295D02*
X118738095Y-57835771D01*
X118738095Y-57835771D02*
X118738095Y-58073866D01*
X118738095Y-58073866D02*
X118785714Y-58264342D01*
X118785714Y-58264342D02*
X118833333Y-58359580D01*
X118833333Y-58359580D02*
X118880952Y-58407200D01*
X118880952Y-58407200D02*
X118976190Y-58454819D01*
X118976190Y-58454819D02*
X119071428Y-58454819D01*
X119071428Y-58454819D02*
X119166666Y-58407200D01*
X119166666Y-58407200D02*
X119214285Y-58359580D01*
X119214285Y-58359580D02*
X119261904Y-58264342D01*
X119261904Y-58264342D02*
X119309523Y-58073866D01*
X119309523Y-58073866D02*
X119309523Y-57835771D01*
X119309523Y-57835771D02*
X119261904Y-57645295D01*
X119261904Y-57645295D02*
X119214285Y-57550057D01*
X119214285Y-57550057D02*
X119166666Y-57502438D01*
X119166666Y-57502438D02*
X119071428Y-57454819D01*
X40541666Y-53216033D02*
X40541666Y-52516033D01*
X40541666Y-52516033D02*
X40374999Y-52516033D01*
X40374999Y-52516033D02*
X40274999Y-52549366D01*
X40274999Y-52549366D02*
X40208333Y-52616033D01*
X40208333Y-52616033D02*
X40174999Y-52682700D01*
X40174999Y-52682700D02*
X40141666Y-52816033D01*
X40141666Y-52816033D02*
X40141666Y-52916033D01*
X40141666Y-52916033D02*
X40174999Y-53049366D01*
X40174999Y-53049366D02*
X40208333Y-53116033D01*
X40208333Y-53116033D02*
X40274999Y-53182700D01*
X40274999Y-53182700D02*
X40374999Y-53216033D01*
X40374999Y-53216033D02*
X40541666Y-53216033D01*
X39541666Y-52516033D02*
X39674999Y-52516033D01*
X39674999Y-52516033D02*
X39741666Y-52549366D01*
X39741666Y-52549366D02*
X39774999Y-52582700D01*
X39774999Y-52582700D02*
X39841666Y-52682700D01*
X39841666Y-52682700D02*
X39874999Y-52816033D01*
X39874999Y-52816033D02*
X39874999Y-53082700D01*
X39874999Y-53082700D02*
X39841666Y-53149366D01*
X39841666Y-53149366D02*
X39808333Y-53182700D01*
X39808333Y-53182700D02*
X39741666Y-53216033D01*
X39741666Y-53216033D02*
X39608333Y-53216033D01*
X39608333Y-53216033D02*
X39541666Y-53182700D01*
X39541666Y-53182700D02*
X39508333Y-53149366D01*
X39508333Y-53149366D02*
X39474999Y-53082700D01*
X39474999Y-53082700D02*
X39474999Y-52916033D01*
X39474999Y-52916033D02*
X39508333Y-52849366D01*
X39508333Y-52849366D02*
X39541666Y-52816033D01*
X39541666Y-52816033D02*
X39608333Y-52782700D01*
X39608333Y-52782700D02*
X39741666Y-52782700D01*
X39741666Y-52782700D02*
X39808333Y-52816033D01*
X39808333Y-52816033D02*
X39841666Y-52849366D01*
X39841666Y-52849366D02*
X39874999Y-52916033D01*
X43666666Y-58359580D02*
X43714285Y-58407200D01*
X43714285Y-58407200D02*
X43857142Y-58454819D01*
X43857142Y-58454819D02*
X43952380Y-58454819D01*
X43952380Y-58454819D02*
X44095237Y-58407200D01*
X44095237Y-58407200D02*
X44190475Y-58311961D01*
X44190475Y-58311961D02*
X44238094Y-58216723D01*
X44238094Y-58216723D02*
X44285713Y-58026247D01*
X44285713Y-58026247D02*
X44285713Y-57883390D01*
X44285713Y-57883390D02*
X44238094Y-57692914D01*
X44238094Y-57692914D02*
X44190475Y-57597676D01*
X44190475Y-57597676D02*
X44095237Y-57502438D01*
X44095237Y-57502438D02*
X43952380Y-57454819D01*
X43952380Y-57454819D02*
X43857142Y-57454819D01*
X43857142Y-57454819D02*
X43714285Y-57502438D01*
X43714285Y-57502438D02*
X43666666Y-57550057D01*
X42809523Y-57454819D02*
X42999999Y-57454819D01*
X42999999Y-57454819D02*
X43095237Y-57502438D01*
X43095237Y-57502438D02*
X43142856Y-57550057D01*
X43142856Y-57550057D02*
X43238094Y-57692914D01*
X43238094Y-57692914D02*
X43285713Y-57883390D01*
X43285713Y-57883390D02*
X43285713Y-58264342D01*
X43285713Y-58264342D02*
X43238094Y-58359580D01*
X43238094Y-58359580D02*
X43190475Y-58407200D01*
X43190475Y-58407200D02*
X43095237Y-58454819D01*
X43095237Y-58454819D02*
X42904761Y-58454819D01*
X42904761Y-58454819D02*
X42809523Y-58407200D01*
X42809523Y-58407200D02*
X42761904Y-58359580D01*
X42761904Y-58359580D02*
X42714285Y-58264342D01*
X42714285Y-58264342D02*
X42714285Y-58026247D01*
X42714285Y-58026247D02*
X42761904Y-57931009D01*
X42761904Y-57931009D02*
X42809523Y-57883390D01*
X42809523Y-57883390D02*
X42904761Y-57835771D01*
X42904761Y-57835771D02*
X43095237Y-57835771D01*
X43095237Y-57835771D02*
X43190475Y-57883390D01*
X43190475Y-57883390D02*
X43238094Y-57931009D01*
X43238094Y-57931009D02*
X43285713Y-58026247D01*
X81666666Y-39359580D02*
X81714285Y-39407200D01*
X81714285Y-39407200D02*
X81857142Y-39454819D01*
X81857142Y-39454819D02*
X81952380Y-39454819D01*
X81952380Y-39454819D02*
X82095237Y-39407200D01*
X82095237Y-39407200D02*
X82190475Y-39311961D01*
X82190475Y-39311961D02*
X82238094Y-39216723D01*
X82238094Y-39216723D02*
X82285713Y-39026247D01*
X82285713Y-39026247D02*
X82285713Y-38883390D01*
X82285713Y-38883390D02*
X82238094Y-38692914D01*
X82238094Y-38692914D02*
X82190475Y-38597676D01*
X82190475Y-38597676D02*
X82095237Y-38502438D01*
X82095237Y-38502438D02*
X81952380Y-38454819D01*
X81952380Y-38454819D02*
X81857142Y-38454819D01*
X81857142Y-38454819D02*
X81714285Y-38502438D01*
X81714285Y-38502438D02*
X81666666Y-38550057D01*
X81333332Y-38454819D02*
X80714285Y-38454819D01*
X80714285Y-38454819D02*
X81047618Y-38835771D01*
X81047618Y-38835771D02*
X80904761Y-38835771D01*
X80904761Y-38835771D02*
X80809523Y-38883390D01*
X80809523Y-38883390D02*
X80761904Y-38931009D01*
X80761904Y-38931009D02*
X80714285Y-39026247D01*
X80714285Y-39026247D02*
X80714285Y-39264342D01*
X80714285Y-39264342D02*
X80761904Y-39359580D01*
X80761904Y-39359580D02*
X80809523Y-39407200D01*
X80809523Y-39407200D02*
X80904761Y-39454819D01*
X80904761Y-39454819D02*
X81190475Y-39454819D01*
X81190475Y-39454819D02*
X81285713Y-39407200D01*
X81285713Y-39407200D02*
X81333332Y-39359580D01*
X100666666Y-58359580D02*
X100714285Y-58407200D01*
X100714285Y-58407200D02*
X100857142Y-58454819D01*
X100857142Y-58454819D02*
X100952380Y-58454819D01*
X100952380Y-58454819D02*
X101095237Y-58407200D01*
X101095237Y-58407200D02*
X101190475Y-58311961D01*
X101190475Y-58311961D02*
X101238094Y-58216723D01*
X101238094Y-58216723D02*
X101285713Y-58026247D01*
X101285713Y-58026247D02*
X101285713Y-57883390D01*
X101285713Y-57883390D02*
X101238094Y-57692914D01*
X101238094Y-57692914D02*
X101190475Y-57597676D01*
X101190475Y-57597676D02*
X101095237Y-57502438D01*
X101095237Y-57502438D02*
X100952380Y-57454819D01*
X100952380Y-57454819D02*
X100857142Y-57454819D01*
X100857142Y-57454819D02*
X100714285Y-57502438D01*
X100714285Y-57502438D02*
X100666666Y-57550057D01*
X100190475Y-58454819D02*
X99999999Y-58454819D01*
X99999999Y-58454819D02*
X99904761Y-58407200D01*
X99904761Y-58407200D02*
X99857142Y-58359580D01*
X99857142Y-58359580D02*
X99761904Y-58216723D01*
X99761904Y-58216723D02*
X99714285Y-58026247D01*
X99714285Y-58026247D02*
X99714285Y-57645295D01*
X99714285Y-57645295D02*
X99761904Y-57550057D01*
X99761904Y-57550057D02*
X99809523Y-57502438D01*
X99809523Y-57502438D02*
X99904761Y-57454819D01*
X99904761Y-57454819D02*
X100095237Y-57454819D01*
X100095237Y-57454819D02*
X100190475Y-57502438D01*
X100190475Y-57502438D02*
X100238094Y-57550057D01*
X100238094Y-57550057D02*
X100285713Y-57645295D01*
X100285713Y-57645295D02*
X100285713Y-57883390D01*
X100285713Y-57883390D02*
X100238094Y-57978628D01*
X100238094Y-57978628D02*
X100190475Y-58026247D01*
X100190475Y-58026247D02*
X100095237Y-58073866D01*
X100095237Y-58073866D02*
X99904761Y-58073866D01*
X99904761Y-58073866D02*
X99809523Y-58026247D01*
X99809523Y-58026247D02*
X99761904Y-57978628D01*
X99761904Y-57978628D02*
X99714285Y-57883390D01*
X78641666Y-53216033D02*
X78641666Y-52516033D01*
X78641666Y-52516033D02*
X78474999Y-52516033D01*
X78474999Y-52516033D02*
X78374999Y-52549366D01*
X78374999Y-52549366D02*
X78308333Y-52616033D01*
X78308333Y-52616033D02*
X78274999Y-52682700D01*
X78274999Y-52682700D02*
X78241666Y-52816033D01*
X78241666Y-52816033D02*
X78241666Y-52916033D01*
X78241666Y-52916033D02*
X78274999Y-53049366D01*
X78274999Y-53049366D02*
X78308333Y-53116033D01*
X78308333Y-53116033D02*
X78374999Y-53182700D01*
X78374999Y-53182700D02*
X78474999Y-53216033D01*
X78474999Y-53216033D02*
X78641666Y-53216033D01*
X77841666Y-52816033D02*
X77908333Y-52782700D01*
X77908333Y-52782700D02*
X77941666Y-52749366D01*
X77941666Y-52749366D02*
X77974999Y-52682700D01*
X77974999Y-52682700D02*
X77974999Y-52649366D01*
X77974999Y-52649366D02*
X77941666Y-52582700D01*
X77941666Y-52582700D02*
X77908333Y-52549366D01*
X77908333Y-52549366D02*
X77841666Y-52516033D01*
X77841666Y-52516033D02*
X77708333Y-52516033D01*
X77708333Y-52516033D02*
X77641666Y-52549366D01*
X77641666Y-52549366D02*
X77608333Y-52582700D01*
X77608333Y-52582700D02*
X77574999Y-52649366D01*
X77574999Y-52649366D02*
X77574999Y-52682700D01*
X77574999Y-52682700D02*
X77608333Y-52749366D01*
X77608333Y-52749366D02*
X77641666Y-52782700D01*
X77641666Y-52782700D02*
X77708333Y-52816033D01*
X77708333Y-52816033D02*
X77841666Y-52816033D01*
X77841666Y-52816033D02*
X77908333Y-52849366D01*
X77908333Y-52849366D02*
X77941666Y-52882700D01*
X77941666Y-52882700D02*
X77974999Y-52949366D01*
X77974999Y-52949366D02*
X77974999Y-53082700D01*
X77974999Y-53082700D02*
X77941666Y-53149366D01*
X77941666Y-53149366D02*
X77908333Y-53182700D01*
X77908333Y-53182700D02*
X77841666Y-53216033D01*
X77841666Y-53216033D02*
X77708333Y-53216033D01*
X77708333Y-53216033D02*
X77641666Y-53182700D01*
X77641666Y-53182700D02*
X77608333Y-53149366D01*
X77608333Y-53149366D02*
X77574999Y-53082700D01*
X77574999Y-53082700D02*
X77574999Y-52949366D01*
X77574999Y-52949366D02*
X77608333Y-52882700D01*
X77608333Y-52882700D02*
X77641666Y-52849366D01*
X77641666Y-52849366D02*
X77708333Y-52816033D01*
X97641666Y-34216033D02*
X97641666Y-33516033D01*
X97641666Y-33516033D02*
X97474999Y-33516033D01*
X97474999Y-33516033D02*
X97374999Y-33549366D01*
X97374999Y-33549366D02*
X97308333Y-33616033D01*
X97308333Y-33616033D02*
X97274999Y-33682700D01*
X97274999Y-33682700D02*
X97241666Y-33816033D01*
X97241666Y-33816033D02*
X97241666Y-33916033D01*
X97241666Y-33916033D02*
X97274999Y-34049366D01*
X97274999Y-34049366D02*
X97308333Y-34116033D01*
X97308333Y-34116033D02*
X97374999Y-34182700D01*
X97374999Y-34182700D02*
X97474999Y-34216033D01*
X97474999Y-34216033D02*
X97641666Y-34216033D01*
X96641666Y-33749366D02*
X96641666Y-34216033D01*
X96808333Y-33482700D02*
X96974999Y-33982700D01*
X96974999Y-33982700D02*
X96541666Y-33982700D01*
X33366666Y-38904819D02*
X33699999Y-38428628D01*
X33938094Y-38904819D02*
X33938094Y-37904819D01*
X33938094Y-37904819D02*
X33557142Y-37904819D01*
X33557142Y-37904819D02*
X33461904Y-37952438D01*
X33461904Y-37952438D02*
X33414285Y-38000057D01*
X33414285Y-38000057D02*
X33366666Y-38095295D01*
X33366666Y-38095295D02*
X33366666Y-38238152D01*
X33366666Y-38238152D02*
X33414285Y-38333390D01*
X33414285Y-38333390D02*
X33461904Y-38381009D01*
X33461904Y-38381009D02*
X33557142Y-38428628D01*
X33557142Y-38428628D02*
X33938094Y-38428628D01*
X32414285Y-38904819D02*
X32985713Y-38904819D01*
X32699999Y-38904819D02*
X32699999Y-37904819D01*
X32699999Y-37904819D02*
X32795237Y-38047676D01*
X32795237Y-38047676D02*
X32890475Y-38142914D01*
X32890475Y-38142914D02*
X32985713Y-38190533D01*
X100666666Y-39359580D02*
X100714285Y-39407200D01*
X100714285Y-39407200D02*
X100857142Y-39454819D01*
X100857142Y-39454819D02*
X100952380Y-39454819D01*
X100952380Y-39454819D02*
X101095237Y-39407200D01*
X101095237Y-39407200D02*
X101190475Y-39311961D01*
X101190475Y-39311961D02*
X101238094Y-39216723D01*
X101238094Y-39216723D02*
X101285713Y-39026247D01*
X101285713Y-39026247D02*
X101285713Y-38883390D01*
X101285713Y-38883390D02*
X101238094Y-38692914D01*
X101238094Y-38692914D02*
X101190475Y-38597676D01*
X101190475Y-38597676D02*
X101095237Y-38502438D01*
X101095237Y-38502438D02*
X100952380Y-38454819D01*
X100952380Y-38454819D02*
X100857142Y-38454819D01*
X100857142Y-38454819D02*
X100714285Y-38502438D01*
X100714285Y-38502438D02*
X100666666Y-38550057D01*
X99809523Y-38788152D02*
X99809523Y-39454819D01*
X100047618Y-38407200D02*
X100285713Y-39121485D01*
X100285713Y-39121485D02*
X99666666Y-39121485D01*
X119666666Y-39359580D02*
X119714285Y-39407200D01*
X119714285Y-39407200D02*
X119857142Y-39454819D01*
X119857142Y-39454819D02*
X119952380Y-39454819D01*
X119952380Y-39454819D02*
X120095237Y-39407200D01*
X120095237Y-39407200D02*
X120190475Y-39311961D01*
X120190475Y-39311961D02*
X120238094Y-39216723D01*
X120238094Y-39216723D02*
X120285713Y-39026247D01*
X120285713Y-39026247D02*
X120285713Y-38883390D01*
X120285713Y-38883390D02*
X120238094Y-38692914D01*
X120238094Y-38692914D02*
X120190475Y-38597676D01*
X120190475Y-38597676D02*
X120095237Y-38502438D01*
X120095237Y-38502438D02*
X119952380Y-38454819D01*
X119952380Y-38454819D02*
X119857142Y-38454819D01*
X119857142Y-38454819D02*
X119714285Y-38502438D01*
X119714285Y-38502438D02*
X119666666Y-38550057D01*
X118761904Y-38454819D02*
X119238094Y-38454819D01*
X119238094Y-38454819D02*
X119285713Y-38931009D01*
X119285713Y-38931009D02*
X119238094Y-38883390D01*
X119238094Y-38883390D02*
X119142856Y-38835771D01*
X119142856Y-38835771D02*
X118904761Y-38835771D01*
X118904761Y-38835771D02*
X118809523Y-38883390D01*
X118809523Y-38883390D02*
X118761904Y-38931009D01*
X118761904Y-38931009D02*
X118714285Y-39026247D01*
X118714285Y-39026247D02*
X118714285Y-39264342D01*
X118714285Y-39264342D02*
X118761904Y-39359580D01*
X118761904Y-39359580D02*
X118809523Y-39407200D01*
X118809523Y-39407200D02*
X118904761Y-39454819D01*
X118904761Y-39454819D02*
X119142856Y-39454819D01*
X119142856Y-39454819D02*
X119238094Y-39407200D01*
X119238094Y-39407200D02*
X119285713Y-39359580D01*
X31642857Y-42359580D02*
X31690476Y-42407200D01*
X31690476Y-42407200D02*
X31833333Y-42454819D01*
X31833333Y-42454819D02*
X31928571Y-42454819D01*
X31928571Y-42454819D02*
X32071428Y-42407200D01*
X32071428Y-42407200D02*
X32166666Y-42311961D01*
X32166666Y-42311961D02*
X32214285Y-42216723D01*
X32214285Y-42216723D02*
X32261904Y-42026247D01*
X32261904Y-42026247D02*
X32261904Y-41883390D01*
X32261904Y-41883390D02*
X32214285Y-41692914D01*
X32214285Y-41692914D02*
X32166666Y-41597676D01*
X32166666Y-41597676D02*
X32071428Y-41502438D01*
X32071428Y-41502438D02*
X31928571Y-41454819D01*
X31928571Y-41454819D02*
X31833333Y-41454819D01*
X31833333Y-41454819D02*
X31690476Y-41502438D01*
X31690476Y-41502438D02*
X31642857Y-41550057D01*
X30690476Y-42454819D02*
X31261904Y-42454819D01*
X30976190Y-42454819D02*
X30976190Y-41454819D01*
X30976190Y-41454819D02*
X31071428Y-41597676D01*
X31071428Y-41597676D02*
X31166666Y-41692914D01*
X31166666Y-41692914D02*
X31261904Y-41740533D01*
X29738095Y-42454819D02*
X30309523Y-42454819D01*
X30023809Y-42454819D02*
X30023809Y-41454819D01*
X30023809Y-41454819D02*
X30119047Y-41597676D01*
X30119047Y-41597676D02*
X30214285Y-41692914D01*
X30214285Y-41692914D02*
X30309523Y-41740533D01*
X81666666Y-58359580D02*
X81714285Y-58407200D01*
X81714285Y-58407200D02*
X81857142Y-58454819D01*
X81857142Y-58454819D02*
X81952380Y-58454819D01*
X81952380Y-58454819D02*
X82095237Y-58407200D01*
X82095237Y-58407200D02*
X82190475Y-58311961D01*
X82190475Y-58311961D02*
X82238094Y-58216723D01*
X82238094Y-58216723D02*
X82285713Y-58026247D01*
X82285713Y-58026247D02*
X82285713Y-57883390D01*
X82285713Y-57883390D02*
X82238094Y-57692914D01*
X82238094Y-57692914D02*
X82190475Y-57597676D01*
X82190475Y-57597676D02*
X82095237Y-57502438D01*
X82095237Y-57502438D02*
X81952380Y-57454819D01*
X81952380Y-57454819D02*
X81857142Y-57454819D01*
X81857142Y-57454819D02*
X81714285Y-57502438D01*
X81714285Y-57502438D02*
X81666666Y-57550057D01*
X81095237Y-57883390D02*
X81190475Y-57835771D01*
X81190475Y-57835771D02*
X81238094Y-57788152D01*
X81238094Y-57788152D02*
X81285713Y-57692914D01*
X81285713Y-57692914D02*
X81285713Y-57645295D01*
X81285713Y-57645295D02*
X81238094Y-57550057D01*
X81238094Y-57550057D02*
X81190475Y-57502438D01*
X81190475Y-57502438D02*
X81095237Y-57454819D01*
X81095237Y-57454819D02*
X80904761Y-57454819D01*
X80904761Y-57454819D02*
X80809523Y-57502438D01*
X80809523Y-57502438D02*
X80761904Y-57550057D01*
X80761904Y-57550057D02*
X80714285Y-57645295D01*
X80714285Y-57645295D02*
X80714285Y-57692914D01*
X80714285Y-57692914D02*
X80761904Y-57788152D01*
X80761904Y-57788152D02*
X80809523Y-57835771D01*
X80809523Y-57835771D02*
X80904761Y-57883390D01*
X80904761Y-57883390D02*
X81095237Y-57883390D01*
X81095237Y-57883390D02*
X81190475Y-57931009D01*
X81190475Y-57931009D02*
X81238094Y-57978628D01*
X81238094Y-57978628D02*
X81285713Y-58073866D01*
X81285713Y-58073866D02*
X81285713Y-58264342D01*
X81285713Y-58264342D02*
X81238094Y-58359580D01*
X81238094Y-58359580D02*
X81190475Y-58407200D01*
X81190475Y-58407200D02*
X81095237Y-58454819D01*
X81095237Y-58454819D02*
X80904761Y-58454819D01*
X80904761Y-58454819D02*
X80809523Y-58407200D01*
X80809523Y-58407200D02*
X80761904Y-58359580D01*
X80761904Y-58359580D02*
X80714285Y-58264342D01*
X80714285Y-58264342D02*
X80714285Y-58073866D01*
X80714285Y-58073866D02*
X80761904Y-57978628D01*
X80761904Y-57978628D02*
X80809523Y-57931009D01*
X80809523Y-57931009D02*
X80904761Y-57883390D01*
X135333333Y-34204819D02*
X135333333Y-34919104D01*
X135333333Y-34919104D02*
X135380952Y-35061961D01*
X135380952Y-35061961D02*
X135476190Y-35157200D01*
X135476190Y-35157200D02*
X135619047Y-35204819D01*
X135619047Y-35204819D02*
X135714285Y-35204819D01*
X134428571Y-34538152D02*
X134428571Y-35204819D01*
X134666666Y-34157200D02*
X134904761Y-34871485D01*
X134904761Y-34871485D02*
X134285714Y-34871485D01*
X117075000Y-53216033D02*
X117075000Y-52516033D01*
X117075000Y-52516033D02*
X116908333Y-52516033D01*
X116908333Y-52516033D02*
X116808333Y-52549366D01*
X116808333Y-52549366D02*
X116741667Y-52616033D01*
X116741667Y-52616033D02*
X116708333Y-52682700D01*
X116708333Y-52682700D02*
X116675000Y-52816033D01*
X116675000Y-52816033D02*
X116675000Y-52916033D01*
X116675000Y-52916033D02*
X116708333Y-53049366D01*
X116708333Y-53049366D02*
X116741667Y-53116033D01*
X116741667Y-53116033D02*
X116808333Y-53182700D01*
X116808333Y-53182700D02*
X116908333Y-53216033D01*
X116908333Y-53216033D02*
X117075000Y-53216033D01*
X116008333Y-53216033D02*
X116408333Y-53216033D01*
X116208333Y-53216033D02*
X116208333Y-52516033D01*
X116208333Y-52516033D02*
X116275000Y-52616033D01*
X116275000Y-52616033D02*
X116341667Y-52682700D01*
X116341667Y-52682700D02*
X116408333Y-52716033D01*
X115575000Y-52516033D02*
X115508333Y-52516033D01*
X115508333Y-52516033D02*
X115441666Y-52549366D01*
X115441666Y-52549366D02*
X115408333Y-52582700D01*
X115408333Y-52582700D02*
X115375000Y-52649366D01*
X115375000Y-52649366D02*
X115341666Y-52782700D01*
X115341666Y-52782700D02*
X115341666Y-52949366D01*
X115341666Y-52949366D02*
X115375000Y-53082700D01*
X115375000Y-53082700D02*
X115408333Y-53149366D01*
X115408333Y-53149366D02*
X115441666Y-53182700D01*
X115441666Y-53182700D02*
X115508333Y-53216033D01*
X115508333Y-53216033D02*
X115575000Y-53216033D01*
X115575000Y-53216033D02*
X115641666Y-53182700D01*
X115641666Y-53182700D02*
X115675000Y-53149366D01*
X115675000Y-53149366D02*
X115708333Y-53082700D01*
X115708333Y-53082700D02*
X115741666Y-52949366D01*
X115741666Y-52949366D02*
X115741666Y-52782700D01*
X115741666Y-52782700D02*
X115708333Y-52649366D01*
X115708333Y-52649366D02*
X115675000Y-52582700D01*
X115675000Y-52582700D02*
X115641666Y-52549366D01*
X115641666Y-52549366D02*
X115575000Y-52516033D01*
X116741666Y-34216033D02*
X116741666Y-33516033D01*
X116741666Y-33516033D02*
X116574999Y-33516033D01*
X116574999Y-33516033D02*
X116474999Y-33549366D01*
X116474999Y-33549366D02*
X116408333Y-33616033D01*
X116408333Y-33616033D02*
X116374999Y-33682700D01*
X116374999Y-33682700D02*
X116341666Y-33816033D01*
X116341666Y-33816033D02*
X116341666Y-33916033D01*
X116341666Y-33916033D02*
X116374999Y-34049366D01*
X116374999Y-34049366D02*
X116408333Y-34116033D01*
X116408333Y-34116033D02*
X116474999Y-34182700D01*
X116474999Y-34182700D02*
X116574999Y-34216033D01*
X116574999Y-34216033D02*
X116741666Y-34216033D01*
X115708333Y-33516033D02*
X116041666Y-33516033D01*
X116041666Y-33516033D02*
X116074999Y-33849366D01*
X116074999Y-33849366D02*
X116041666Y-33816033D01*
X116041666Y-33816033D02*
X115974999Y-33782700D01*
X115974999Y-33782700D02*
X115808333Y-33782700D01*
X115808333Y-33782700D02*
X115741666Y-33816033D01*
X115741666Y-33816033D02*
X115708333Y-33849366D01*
X115708333Y-33849366D02*
X115674999Y-33916033D01*
X115674999Y-33916033D02*
X115674999Y-34082700D01*
X115674999Y-34082700D02*
X115708333Y-34149366D01*
X115708333Y-34149366D02*
X115741666Y-34182700D01*
X115741666Y-34182700D02*
X115808333Y-34216033D01*
X115808333Y-34216033D02*
X115974999Y-34216033D01*
X115974999Y-34216033D02*
X116041666Y-34182700D01*
X116041666Y-34182700D02*
X116074999Y-34149366D01*
X40541666Y-34216033D02*
X40541666Y-33516033D01*
X40541666Y-33516033D02*
X40374999Y-33516033D01*
X40374999Y-33516033D02*
X40274999Y-33549366D01*
X40274999Y-33549366D02*
X40208333Y-33616033D01*
X40208333Y-33616033D02*
X40174999Y-33682700D01*
X40174999Y-33682700D02*
X40141666Y-33816033D01*
X40141666Y-33816033D02*
X40141666Y-33916033D01*
X40141666Y-33916033D02*
X40174999Y-34049366D01*
X40174999Y-34049366D02*
X40208333Y-34116033D01*
X40208333Y-34116033D02*
X40274999Y-34182700D01*
X40274999Y-34182700D02*
X40374999Y-34216033D01*
X40374999Y-34216033D02*
X40541666Y-34216033D01*
X39474999Y-34216033D02*
X39874999Y-34216033D01*
X39674999Y-34216033D02*
X39674999Y-33516033D01*
X39674999Y-33516033D02*
X39741666Y-33616033D01*
X39741666Y-33616033D02*
X39808333Y-33682700D01*
X39808333Y-33682700D02*
X39874999Y-33716033D01*
X129583333Y-59704819D02*
X129583333Y-60419104D01*
X129583333Y-60419104D02*
X129630952Y-60561961D01*
X129630952Y-60561961D02*
X129726190Y-60657200D01*
X129726190Y-60657200D02*
X129869047Y-60704819D01*
X129869047Y-60704819D02*
X129964285Y-60704819D01*
X129154761Y-59800057D02*
X129107142Y-59752438D01*
X129107142Y-59752438D02*
X129011904Y-59704819D01*
X129011904Y-59704819D02*
X128773809Y-59704819D01*
X128773809Y-59704819D02*
X128678571Y-59752438D01*
X128678571Y-59752438D02*
X128630952Y-59800057D01*
X128630952Y-59800057D02*
X128583333Y-59895295D01*
X128583333Y-59895295D02*
X128583333Y-59990533D01*
X128583333Y-59990533D02*
X128630952Y-60133390D01*
X128630952Y-60133390D02*
X129202380Y-60704819D01*
X129202380Y-60704819D02*
X128583333Y-60704819D01*
X30583333Y-29204819D02*
X30583333Y-29919104D01*
X30583333Y-29919104D02*
X30630952Y-30061961D01*
X30630952Y-30061961D02*
X30726190Y-30157200D01*
X30726190Y-30157200D02*
X30869047Y-30204819D01*
X30869047Y-30204819D02*
X30964285Y-30204819D01*
X30202380Y-29204819D02*
X29583333Y-29204819D01*
X29583333Y-29204819D02*
X29916666Y-29585771D01*
X29916666Y-29585771D02*
X29773809Y-29585771D01*
X29773809Y-29585771D02*
X29678571Y-29633390D01*
X29678571Y-29633390D02*
X29630952Y-29681009D01*
X29630952Y-29681009D02*
X29583333Y-29776247D01*
X29583333Y-29776247D02*
X29583333Y-30014342D01*
X29583333Y-30014342D02*
X29630952Y-30109580D01*
X29630952Y-30109580D02*
X29678571Y-30157200D01*
X29678571Y-30157200D02*
X29773809Y-30204819D01*
X29773809Y-30204819D02*
X30059523Y-30204819D01*
X30059523Y-30204819D02*
X30154761Y-30157200D01*
X30154761Y-30157200D02*
X30202380Y-30109580D01*
X43666666Y-39359580D02*
X43714285Y-39407200D01*
X43714285Y-39407200D02*
X43857142Y-39454819D01*
X43857142Y-39454819D02*
X43952380Y-39454819D01*
X43952380Y-39454819D02*
X44095237Y-39407200D01*
X44095237Y-39407200D02*
X44190475Y-39311961D01*
X44190475Y-39311961D02*
X44238094Y-39216723D01*
X44238094Y-39216723D02*
X44285713Y-39026247D01*
X44285713Y-39026247D02*
X44285713Y-38883390D01*
X44285713Y-38883390D02*
X44238094Y-38692914D01*
X44238094Y-38692914D02*
X44190475Y-38597676D01*
X44190475Y-38597676D02*
X44095237Y-38502438D01*
X44095237Y-38502438D02*
X43952380Y-38454819D01*
X43952380Y-38454819D02*
X43857142Y-38454819D01*
X43857142Y-38454819D02*
X43714285Y-38502438D01*
X43714285Y-38502438D02*
X43666666Y-38550057D01*
X42714285Y-39454819D02*
X43285713Y-39454819D01*
X42999999Y-39454819D02*
X42999999Y-38454819D01*
X42999999Y-38454819D02*
X43095237Y-38597676D01*
X43095237Y-38597676D02*
X43190475Y-38692914D01*
X43190475Y-38692914D02*
X43285713Y-38740533D01*
X62666666Y-58359580D02*
X62714285Y-58407200D01*
X62714285Y-58407200D02*
X62857142Y-58454819D01*
X62857142Y-58454819D02*
X62952380Y-58454819D01*
X62952380Y-58454819D02*
X63095237Y-58407200D01*
X63095237Y-58407200D02*
X63190475Y-58311961D01*
X63190475Y-58311961D02*
X63238094Y-58216723D01*
X63238094Y-58216723D02*
X63285713Y-58026247D01*
X63285713Y-58026247D02*
X63285713Y-57883390D01*
X63285713Y-57883390D02*
X63238094Y-57692914D01*
X63238094Y-57692914D02*
X63190475Y-57597676D01*
X63190475Y-57597676D02*
X63095237Y-57502438D01*
X63095237Y-57502438D02*
X62952380Y-57454819D01*
X62952380Y-57454819D02*
X62857142Y-57454819D01*
X62857142Y-57454819D02*
X62714285Y-57502438D01*
X62714285Y-57502438D02*
X62666666Y-57550057D01*
X62333332Y-57454819D02*
X61666666Y-57454819D01*
X61666666Y-57454819D02*
X62095237Y-58454819D01*
D11*
%TO.C,C2*%
X58813748Y-38265000D02*
X59336252Y-38265000D01*
X58813748Y-39735000D02*
X59336252Y-39735000D01*
D12*
%TO.C,D7*%
X61275000Y-57000000D02*
X61275000Y-56400000D01*
X61875000Y-56400000D01*
X61275000Y-57000000D01*
G36*
X61275000Y-57000000D02*
G01*
X61275000Y-56400000D01*
X61875000Y-56400000D01*
X61275000Y-57000000D01*
G37*
D11*
X56455000Y-53552000D02*
X56215000Y-53222000D01*
X56695000Y-53222000D01*
X56455000Y-53552000D01*
G36*
X56455000Y-53552000D02*
G01*
X56215000Y-53222000D01*
X56695000Y-53222000D01*
X56455000Y-53552000D01*
G37*
D12*
%TO.C,D3*%
X80325000Y-38000000D02*
X80325000Y-37400000D01*
X80925000Y-37400000D01*
X80325000Y-38000000D01*
G36*
X80325000Y-38000000D02*
G01*
X80325000Y-37400000D01*
X80925000Y-37400000D01*
X80325000Y-38000000D01*
G37*
D11*
X75505000Y-34552000D02*
X75265000Y-34222000D01*
X75745000Y-34222000D01*
X75505000Y-34552000D01*
G36*
X75505000Y-34552000D02*
G01*
X75265000Y-34222000D01*
X75745000Y-34222000D01*
X75505000Y-34552000D01*
G37*
%TO.C,J1*%
X122750000Y-23200000D02*
X122750000Y-31250000D01*
X122750000Y-31250000D02*
X122750000Y-38240000D01*
X125700000Y-22450000D02*
X125700000Y-23200000D01*
X125700000Y-23200000D02*
X122750000Y-23200000D01*
X125700000Y-39300000D02*
X124360000Y-39300000D01*
X125700000Y-40050000D02*
X125700000Y-39300000D01*
X128250000Y-39100000D02*
X128250000Y-40350000D01*
X128250000Y-40350000D02*
X127000000Y-40350000D01*
X127950000Y-24250000D02*
X127200000Y-24250000D01*
X127200000Y-22450000D01*
X127950000Y-22450000D01*
X127950000Y-24250000D01*
X127950000Y-36750000D02*
X127200000Y-36750000D01*
X127200000Y-25750000D01*
X127950000Y-25750000D01*
X127950000Y-36750000D01*
X127950000Y-40050000D02*
X127200000Y-40050000D01*
X127200000Y-38250000D01*
X127950000Y-38250000D01*
X127950000Y-40050000D01*
X127960000Y-40060000D02*
X121990000Y-40060000D01*
X121990000Y-22440000D01*
X127960000Y-22440000D01*
X127960000Y-40060000D01*
D12*
%TO.C,D9*%
X99375000Y-57000000D02*
X99375000Y-56400000D01*
X99975000Y-56400000D01*
X99375000Y-57000000D01*
G36*
X99375000Y-57000000D02*
G01*
X99375000Y-56400000D01*
X99975000Y-56400000D01*
X99375000Y-57000000D01*
G37*
D11*
X94555000Y-53552000D02*
X94315000Y-53222000D01*
X94795000Y-53222000D01*
X94555000Y-53552000D01*
G36*
X94555000Y-53552000D02*
G01*
X94315000Y-53222000D01*
X94795000Y-53222000D01*
X94555000Y-53552000D01*
G37*
D12*
%TO.C,D2*%
X61275000Y-38000000D02*
X61275000Y-37400000D01*
X61875000Y-37400000D01*
X61275000Y-38000000D01*
G36*
X61275000Y-38000000D02*
G01*
X61275000Y-37400000D01*
X61875000Y-37400000D01*
X61275000Y-38000000D01*
G37*
D11*
X56455000Y-34552000D02*
X56215000Y-34222000D01*
X56695000Y-34222000D01*
X56455000Y-34552000D01*
G36*
X56455000Y-34552000D02*
G01*
X56215000Y-34222000D01*
X56695000Y-34222000D01*
X56455000Y-34552000D01*
G37*
%TO.C,C10*%
X115963748Y-57265000D02*
X116486252Y-57265000D01*
X115963748Y-58735000D02*
X116486252Y-58735000D01*
D12*
%TO.C,D6*%
X42225000Y-57000000D02*
X42225000Y-56400000D01*
X42825000Y-56400000D01*
X42225000Y-57000000D01*
G36*
X42225000Y-57000000D02*
G01*
X42225000Y-56400000D01*
X42825000Y-56400000D01*
X42225000Y-57000000D01*
G37*
D11*
X37405000Y-53552000D02*
X37165000Y-53222000D01*
X37645000Y-53222000D01*
X37405000Y-53552000D01*
G36*
X37405000Y-53552000D02*
G01*
X37165000Y-53222000D01*
X37645000Y-53222000D01*
X37405000Y-53552000D01*
G37*
%TO.C,C6*%
X39763748Y-57265000D02*
X40286252Y-57265000D01*
X39763748Y-58735000D02*
X40286252Y-58735000D01*
%TO.C,C3*%
X77863748Y-38265000D02*
X78386252Y-38265000D01*
X77863748Y-39735000D02*
X78386252Y-39735000D01*
%TO.C,C9*%
X96913748Y-57265000D02*
X97436252Y-57265000D01*
X96913748Y-58735000D02*
X97436252Y-58735000D01*
D12*
%TO.C,D8*%
X80325000Y-57000000D02*
X80325000Y-56400000D01*
X80925000Y-56400000D01*
X80325000Y-57000000D01*
G36*
X80325000Y-57000000D02*
G01*
X80325000Y-56400000D01*
X80925000Y-56400000D01*
X80325000Y-57000000D01*
G37*
D11*
X75505000Y-53552000D02*
X75265000Y-53222000D01*
X75745000Y-53222000D01*
X75505000Y-53552000D01*
G36*
X75505000Y-53552000D02*
G01*
X75265000Y-53222000D01*
X75745000Y-53222000D01*
X75505000Y-53552000D01*
G37*
D12*
%TO.C,D4*%
X99325000Y-38000000D02*
X99325000Y-37400000D01*
X99925000Y-37400000D01*
X99325000Y-38000000D01*
G36*
X99325000Y-38000000D02*
G01*
X99325000Y-37400000D01*
X99925000Y-37400000D01*
X99325000Y-38000000D01*
G37*
D11*
X94505000Y-34552000D02*
X94265000Y-34222000D01*
X94745000Y-34222000D01*
X94505000Y-34552000D01*
G36*
X94505000Y-34552000D02*
G01*
X94265000Y-34222000D01*
X94745000Y-34222000D01*
X94505000Y-34552000D01*
G37*
%TO.C,R1*%
X32972936Y-36065000D02*
X33427064Y-36065000D01*
X32972936Y-37535000D02*
X33427064Y-37535000D01*
%TO.C,C4*%
X96913748Y-38265000D02*
X97436252Y-38265000D01*
X96913748Y-39735000D02*
X97436252Y-39735000D01*
%TO.C,C5*%
X115963748Y-38265000D02*
X116486252Y-38265000D01*
X115963748Y-39735000D02*
X116486252Y-39735000D01*
%TO.C,C11*%
X20787677Y-45901000D02*
X20787677Y-47099000D01*
X20827677Y-45638000D02*
X20827677Y-47362000D01*
X20867677Y-45438000D02*
X20867677Y-47562000D01*
X20907677Y-45270000D02*
X20907677Y-47730000D01*
X20947677Y-45123000D02*
X20947677Y-47877000D01*
X20987677Y-44991000D02*
X20987677Y-48009000D01*
X21027677Y-44870000D02*
X21027677Y-48130000D01*
X21067677Y-44758000D02*
X21067677Y-48242000D01*
X21107677Y-44654000D02*
X21107677Y-48346000D01*
X21147677Y-44556000D02*
X21147677Y-48444000D01*
X21187677Y-44463000D02*
X21187677Y-48537000D01*
X21227677Y-44376000D02*
X21227677Y-48624000D01*
X21267677Y-44292000D02*
X21267677Y-48708000D01*
X21307677Y-44212000D02*
X21307677Y-48788000D01*
X21347677Y-44135000D02*
X21347677Y-48865000D01*
X21387677Y-44061000D02*
X21387677Y-48939000D01*
X21427677Y-43990000D02*
X21427677Y-49010000D01*
X21467677Y-43922000D02*
X21467677Y-49078000D01*
X21507677Y-43856000D02*
X21507677Y-49144000D01*
X21547677Y-43792000D02*
X21547677Y-49208000D01*
X21587677Y-43730000D02*
X21587677Y-49270000D01*
X21627677Y-43670000D02*
X21627677Y-49330000D01*
X21667677Y-43612000D02*
X21667677Y-49388000D01*
X21707677Y-43555000D02*
X21707677Y-49445000D01*
X21747677Y-43500000D02*
X21747677Y-49500000D01*
X21787677Y-43447000D02*
X21787677Y-49553000D01*
X21827677Y-43395000D02*
X21827677Y-49605000D01*
X21867677Y-43344000D02*
X21867677Y-49656000D01*
X21907677Y-43295000D02*
X21907677Y-49705000D01*
X21947677Y-43246000D02*
X21947677Y-49754000D01*
X21987677Y-43199000D02*
X21987677Y-49801000D01*
X22027677Y-43153000D02*
X22027677Y-49847000D01*
X22067677Y-43109000D02*
X22067677Y-49891000D01*
X22107677Y-43065000D02*
X22107677Y-49935000D01*
X22147677Y-43022000D02*
X22147677Y-45260000D01*
X22147677Y-47740000D02*
X22147677Y-49978000D01*
X22187677Y-42980000D02*
X22187677Y-45260000D01*
X22187677Y-47740000D02*
X22187677Y-50020000D01*
X22227677Y-42939000D02*
X22227677Y-45260000D01*
X22227677Y-47740000D02*
X22227677Y-50061000D01*
X22267677Y-42899000D02*
X22267677Y-45260000D01*
X22267677Y-47740000D02*
X22267677Y-50101000D01*
X22307677Y-42860000D02*
X22307677Y-45260000D01*
X22307677Y-47740000D02*
X22307677Y-50140000D01*
X22347677Y-42822000D02*
X22347677Y-45260000D01*
X22347677Y-47740000D02*
X22347677Y-50178000D01*
X22387677Y-42784000D02*
X22387677Y-45260000D01*
X22387677Y-47740000D02*
X22387677Y-50216000D01*
X22427677Y-42748000D02*
X22427677Y-45260000D01*
X22427677Y-47740000D02*
X22427677Y-50252000D01*
X22467677Y-42712000D02*
X22467677Y-45260000D01*
X22467677Y-47740000D02*
X22467677Y-50288000D01*
X22507677Y-42677000D02*
X22507677Y-45260000D01*
X22507677Y-47740000D02*
X22507677Y-50323000D01*
X22547677Y-42642000D02*
X22547677Y-45260000D01*
X22547677Y-47740000D02*
X22547677Y-50358000D01*
X22587677Y-42609000D02*
X22587677Y-45260000D01*
X22587677Y-47740000D02*
X22587677Y-50391000D01*
X22627677Y-42576000D02*
X22627677Y-45260000D01*
X22627677Y-47740000D02*
X22627677Y-50424000D01*
X22667677Y-42543000D02*
X22667677Y-45260000D01*
X22667677Y-47740000D02*
X22667677Y-50457000D01*
X22707677Y-42512000D02*
X22707677Y-45260000D01*
X22707677Y-47740000D02*
X22707677Y-50488000D01*
X22747677Y-42480000D02*
X22747677Y-45260000D01*
X22747677Y-47740000D02*
X22747677Y-50520000D01*
X22787677Y-42450000D02*
X22787677Y-45260000D01*
X22787677Y-47740000D02*
X22787677Y-50550000D01*
X22827677Y-42420000D02*
X22827677Y-45260000D01*
X22827677Y-47740000D02*
X22827677Y-50580000D01*
X22867677Y-42391000D02*
X22867677Y-45260000D01*
X22867677Y-47740000D02*
X22867677Y-50609000D01*
X22907677Y-42362000D02*
X22907677Y-45260000D01*
X22907677Y-47740000D02*
X22907677Y-50638000D01*
X22947677Y-42334000D02*
X22947677Y-45260000D01*
X22947677Y-47740000D02*
X22947677Y-50666000D01*
X22987677Y-42307000D02*
X22987677Y-45260000D01*
X22987677Y-47740000D02*
X22987677Y-50693000D01*
X23027677Y-42280000D02*
X23027677Y-45260000D01*
X23027677Y-47740000D02*
X23027677Y-50720000D01*
X23067677Y-42253000D02*
X23067677Y-45260000D01*
X23067677Y-47740000D02*
X23067677Y-50747000D01*
X23107677Y-42228000D02*
X23107677Y-45260000D01*
X23107677Y-47740000D02*
X23107677Y-50772000D01*
X23147677Y-42202000D02*
X23147677Y-45260000D01*
X23147677Y-47740000D02*
X23147677Y-50798000D01*
X23187677Y-42177000D02*
X23187677Y-45260000D01*
X23187677Y-47740000D02*
X23187677Y-50823000D01*
X23227677Y-42153000D02*
X23227677Y-45260000D01*
X23227677Y-47740000D02*
X23227677Y-50847000D01*
X23267677Y-42129000D02*
X23267677Y-45260000D01*
X23267677Y-47740000D02*
X23267677Y-50871000D01*
X23307677Y-42106000D02*
X23307677Y-45260000D01*
X23307677Y-47740000D02*
X23307677Y-50894000D01*
X23347677Y-42083000D02*
X23347677Y-45260000D01*
X23347677Y-47740000D02*
X23347677Y-50917000D01*
X23387677Y-42061000D02*
X23387677Y-45260000D01*
X23387677Y-47740000D02*
X23387677Y-50939000D01*
X23427677Y-42039000D02*
X23427677Y-45260000D01*
X23427677Y-47740000D02*
X23427677Y-50961000D01*
X23467677Y-42017000D02*
X23467677Y-45260000D01*
X23467677Y-47740000D02*
X23467677Y-50983000D01*
X23507677Y-41996000D02*
X23507677Y-45260000D01*
X23507677Y-47740000D02*
X23507677Y-51004000D01*
X23547677Y-41976000D02*
X23547677Y-45260000D01*
X23547677Y-47740000D02*
X23547677Y-51024000D01*
X23587677Y-41956000D02*
X23587677Y-45260000D01*
X23587677Y-47740000D02*
X23587677Y-51044000D01*
X23627677Y-41936000D02*
X23627677Y-45260000D01*
X23627677Y-47740000D02*
X23627677Y-51064000D01*
X23667677Y-41917000D02*
X23667677Y-45260000D01*
X23667677Y-47740000D02*
X23667677Y-51083000D01*
X23707677Y-41898000D02*
X23707677Y-45260000D01*
X23707677Y-47740000D02*
X23707677Y-51102000D01*
X23747677Y-41880000D02*
X23747677Y-45260000D01*
X23747677Y-47740000D02*
X23747677Y-51120000D01*
X23787677Y-41862000D02*
X23787677Y-45260000D01*
X23787677Y-47740000D02*
X23787677Y-51138000D01*
X23827677Y-41844000D02*
X23827677Y-45260000D01*
X23827677Y-47740000D02*
X23827677Y-51156000D01*
X23867677Y-41827000D02*
X23867677Y-45260000D01*
X23867677Y-47740000D02*
X23867677Y-51173000D01*
X23907677Y-41810000D02*
X23907677Y-45260000D01*
X23907677Y-47740000D02*
X23907677Y-51190000D01*
X23947677Y-41794000D02*
X23947677Y-45260000D01*
X23947677Y-47740000D02*
X23947677Y-51206000D01*
X23987677Y-41778000D02*
X23987677Y-45260000D01*
X23987677Y-47740000D02*
X23987677Y-51222000D01*
X24027677Y-41762000D02*
X24027677Y-45260000D01*
X24027677Y-47740000D02*
X24027677Y-51238000D01*
X24067677Y-41747000D02*
X24067677Y-45260000D01*
X24067677Y-47740000D02*
X24067677Y-51253000D01*
X24107677Y-41732000D02*
X24107677Y-45260000D01*
X24107677Y-47740000D02*
X24107677Y-51268000D01*
X24147677Y-41718000D02*
X24147677Y-45260000D01*
X24147677Y-47740000D02*
X24147677Y-51282000D01*
X24187677Y-41703000D02*
X24187677Y-45260000D01*
X24187677Y-47740000D02*
X24187677Y-51297000D01*
X24227677Y-41690000D02*
X24227677Y-45260000D01*
X24227677Y-47740000D02*
X24227677Y-51310000D01*
X24267677Y-41676000D02*
X24267677Y-45260000D01*
X24267677Y-47740000D02*
X24267677Y-51324000D01*
X24307677Y-41663000D02*
X24307677Y-45260000D01*
X24307677Y-47740000D02*
X24307677Y-51337000D01*
X24347677Y-41651000D02*
X24347677Y-45260000D01*
X24347677Y-47740000D02*
X24347677Y-51349000D01*
X24387677Y-41639000D02*
X24387677Y-45260000D01*
X24387677Y-47740000D02*
X24387677Y-51361000D01*
X24427677Y-41627000D02*
X24427677Y-45260000D01*
X24427677Y-47740000D02*
X24427677Y-51373000D01*
X24467677Y-41615000D02*
X24467677Y-45260000D01*
X24467677Y-47740000D02*
X24467677Y-51385000D01*
X24507677Y-41604000D02*
X24507677Y-45260000D01*
X24507677Y-47740000D02*
X24507677Y-51396000D01*
X24547677Y-41593000D02*
X24547677Y-45260000D01*
X24547677Y-47740000D02*
X24547677Y-51407000D01*
X24587677Y-41583000D02*
X24587677Y-45260000D01*
X24587677Y-47740000D02*
X24587677Y-51417000D01*
X24627677Y-41572000D02*
X24627677Y-51428000D01*
X24667677Y-41563000D02*
X24667677Y-51437000D01*
X24707677Y-41553000D02*
X24707677Y-51447000D01*
X24747677Y-41544000D02*
X24747677Y-51456000D01*
X24787677Y-41535000D02*
X24787677Y-51465000D01*
X24827677Y-41527000D02*
X24827677Y-51473000D01*
X24867677Y-41519000D02*
X24867677Y-51481000D01*
X24907677Y-41511000D02*
X24907677Y-51489000D01*
X24947677Y-41503000D02*
X24947677Y-51497000D01*
X24987677Y-41496000D02*
X24987677Y-51504000D01*
X25027677Y-41489000D02*
X25027677Y-51511000D01*
X25067677Y-41483000D02*
X25067677Y-51517000D01*
X25107677Y-41477000D02*
X25107677Y-51523000D01*
X25147677Y-41471000D02*
X25147677Y-51529000D01*
X25187677Y-41465000D02*
X25187677Y-51535000D01*
X25227677Y-41460000D02*
X25227677Y-51540000D01*
X25267677Y-41455000D02*
X25267677Y-51545000D01*
X25307677Y-41451000D02*
X25307677Y-51549000D01*
X25347677Y-41446000D02*
X25347677Y-51554000D01*
X25387677Y-41443000D02*
X25387677Y-51557000D01*
X25427677Y-41439000D02*
X25427677Y-51561000D01*
X25467677Y-41436000D02*
X25467677Y-51564000D01*
X25507677Y-41433000D02*
X25507677Y-51567000D01*
X25547677Y-41430000D02*
X25547677Y-51570000D01*
X25587677Y-41428000D02*
X25587677Y-51572000D01*
X25627677Y-41426000D02*
X25627677Y-51574000D01*
X25667677Y-41424000D02*
X25667677Y-51576000D01*
X25707677Y-41423000D02*
X25707677Y-51577000D01*
X25747677Y-41421000D02*
X25747677Y-51579000D01*
X25787677Y-41421000D02*
X25787677Y-51579000D01*
X25827677Y-41420000D02*
X25827677Y-51580000D01*
X25867677Y-41420000D02*
X25867677Y-51580000D01*
X30847323Y-43125000D02*
X30847323Y-44125000D01*
X31347323Y-43625000D02*
X30347323Y-43625000D01*
X30987677Y-46500000D02*
G75*
G02*
X20747677Y-46500000I-5120000J0D01*
G01*
X20747677Y-46500000D02*
G75*
G02*
X30987677Y-46500000I5120000J0D01*
G01*
%TO.C,C8*%
X77863748Y-57265000D02*
X78386252Y-57265000D01*
X77863748Y-58735000D02*
X78386252Y-58735000D01*
%TO.C,J4*%
X130250000Y-36700000D02*
X130250000Y-41000000D01*
X130250000Y-41000000D02*
X130250000Y-44240000D01*
X133200000Y-35950000D02*
X133200000Y-36700000D01*
X133200000Y-36700000D02*
X130250000Y-36700000D01*
X133200000Y-45300000D02*
X131860000Y-45300000D01*
X133200000Y-46050000D02*
X133200000Y-45300000D01*
X135750000Y-45100000D02*
X135750000Y-46350000D01*
X135750000Y-46350000D02*
X134500000Y-46350000D01*
X135450000Y-37750000D02*
X134700000Y-37750000D01*
X134700000Y-35950000D01*
X135450000Y-35950000D01*
X135450000Y-37750000D01*
X135450000Y-42750000D02*
X134700000Y-42750000D01*
X134700000Y-39250000D01*
X135450000Y-39250000D01*
X135450000Y-42750000D01*
X135450000Y-46050000D02*
X134700000Y-46050000D01*
X134700000Y-44250000D01*
X135450000Y-44250000D01*
X135450000Y-46050000D01*
X135460000Y-46060000D02*
X129490000Y-46060000D01*
X129490000Y-35940000D01*
X135460000Y-35940000D01*
X135460000Y-46060000D01*
D12*
%TO.C,D10*%
X118425000Y-57000000D02*
X118425000Y-56400000D01*
X119025000Y-56400000D01*
X118425000Y-57000000D01*
G36*
X118425000Y-57000000D02*
G01*
X118425000Y-56400000D01*
X119025000Y-56400000D01*
X118425000Y-57000000D01*
G37*
D11*
X113605000Y-53552000D02*
X113365000Y-53222000D01*
X113845000Y-53222000D01*
X113605000Y-53552000D01*
G36*
X113605000Y-53552000D02*
G01*
X113365000Y-53222000D01*
X113845000Y-53222000D01*
X113605000Y-53552000D01*
G37*
D12*
%TO.C,D5*%
X118425000Y-38000000D02*
X118425000Y-37400000D01*
X119025000Y-37400000D01*
X118425000Y-38000000D01*
G36*
X118425000Y-38000000D02*
G01*
X118425000Y-37400000D01*
X119025000Y-37400000D01*
X118425000Y-38000000D01*
G37*
D11*
X113605000Y-34552000D02*
X113365000Y-34222000D01*
X113845000Y-34222000D01*
X113605000Y-34552000D01*
G36*
X113605000Y-34552000D02*
G01*
X113365000Y-34222000D01*
X113845000Y-34222000D01*
X113605000Y-34552000D01*
G37*
D12*
%TO.C,D1*%
X42225000Y-38000000D02*
X42225000Y-37400000D01*
X42825000Y-37400000D01*
X42225000Y-38000000D01*
G36*
X42225000Y-38000000D02*
G01*
X42225000Y-37400000D01*
X42825000Y-37400000D01*
X42225000Y-38000000D01*
G37*
D11*
X37405000Y-34552000D02*
X37165000Y-34222000D01*
X37645000Y-34222000D01*
X37405000Y-34552000D01*
G36*
X37405000Y-34552000D02*
G01*
X37165000Y-34222000D01*
X37645000Y-34222000D01*
X37405000Y-34552000D01*
G37*
%TO.C,J2*%
X122750000Y-42700000D02*
X122750000Y-50750000D01*
X122750000Y-50750000D02*
X122750000Y-57740000D01*
X125700000Y-41950000D02*
X125700000Y-42700000D01*
X125700000Y-42700000D02*
X122750000Y-42700000D01*
X125700000Y-58800000D02*
X124360000Y-58800000D01*
X125700000Y-59550000D02*
X125700000Y-58800000D01*
X128250000Y-58600000D02*
X128250000Y-59850000D01*
X128250000Y-59850000D02*
X127000000Y-59850000D01*
X127950000Y-43750000D02*
X127200000Y-43750000D01*
X127200000Y-41950000D01*
X127950000Y-41950000D01*
X127950000Y-43750000D01*
X127950000Y-56250000D02*
X127200000Y-56250000D01*
X127200000Y-45250000D01*
X127950000Y-45250000D01*
X127950000Y-56250000D01*
X127950000Y-59550000D02*
X127200000Y-59550000D01*
X127200000Y-57750000D01*
X127950000Y-57750000D01*
X127950000Y-59550000D01*
X127960000Y-59560000D02*
X121990000Y-59560000D01*
X121990000Y-41940000D01*
X127960000Y-41940000D01*
X127960000Y-59560000D01*
%TO.C,J3*%
X22250000Y-29150000D02*
X23500000Y-29150000D01*
X22250000Y-30400000D02*
X22250000Y-29150000D01*
X24800000Y-29450000D02*
X24800000Y-30200000D01*
X24800000Y-30200000D02*
X26140000Y-30200000D01*
X24800000Y-38800000D02*
X27750000Y-38800000D01*
X24800000Y-39550000D02*
X24800000Y-38800000D01*
X27750000Y-34500000D02*
X27750000Y-31260000D01*
X27750000Y-38800000D02*
X27750000Y-34500000D01*
X22540000Y-29440000D02*
X28510000Y-29440000D01*
X28510000Y-39560000D01*
X22540000Y-39560000D01*
X22540000Y-29440000D01*
X22550000Y-29450000D02*
X23300000Y-29450000D01*
X23300000Y-31250000D01*
X22550000Y-31250000D01*
X22550000Y-29450000D01*
X22550000Y-32750000D02*
X23300000Y-32750000D01*
X23300000Y-36250000D01*
X22550000Y-36250000D01*
X22550000Y-32750000D01*
X22550000Y-37750000D02*
X23300000Y-37750000D01*
X23300000Y-39550000D01*
X22550000Y-39550000D01*
X22550000Y-37750000D01*
%TO.C,C1*%
X39763748Y-38265000D02*
X40286252Y-38265000D01*
X39763748Y-39735000D02*
X40286252Y-39735000D01*
%TO.C,C7*%
X58813748Y-57265000D02*
X59336252Y-57265000D01*
X58813748Y-58735000D02*
X59336252Y-58735000D01*
%TD*%
M02*
