%TF.GenerationSoftware,KiCad,Pcbnew,9.0.8-1.fc42*%
%TF.CreationDate,2026-04-13T21:32:41+02:00*%
%TF.ProjectId,FM,464d2e6b-6963-4616-945f-706362585858,rev?*%
%TF.SameCoordinates,Original*%
%TF.FileFunction,Soldermask,Bot*%
%TF.FilePolarity,Negative*%
%FSLAX46Y46*%
G04 Gerber Fmt 4.6, Leading zero omitted, Abs format (unit mm)*
G04 Created by KiCad (PCBNEW 9.0.8-1.fc42) date 2026-04-13 21:32:41*
%MOMM*%
%LPD*%
G01*
G04 APERTURE LIST*
G04 Aperture macros list*
%AMRoundRect*
0 Rectangle with rounded corners*
0 $1 Rounding radius*
0 $2 $3 $4 $5 $6 $7 $8 $9 X,Y pos of 4 corners*
0 Add a 4 corners polygon primitive as box body*
4,1,4,$2,$3,$4,$5,$6,$7,$8,$9,$2,$3,0*
0 Add four circle primitives for the rounded corners*
1,1,$1+$1,$2,$3*
1,1,$1+$1,$4,$5*
1,1,$1+$1,$6,$7*
1,1,$1+$1,$8,$9*
0 Add four rect primitives between the rounded corners*
20,1,$1+$1,$2,$3,$4,$5,0*
20,1,$1+$1,$4,$5,$6,$7,0*
20,1,$1+$1,$6,$7,$8,$9,0*
20,1,$1+$1,$8,$9,$2,$3,0*%
G04 Aperture macros list end*
%ADD10C,4.000000*%
%ADD11C,2.200000*%
%ADD12C,3.500000*%
%ADD13RoundRect,0.250000X-0.337500X-0.475000X0.337500X-0.475000X0.337500X0.475000X-0.337500X0.475000X0*%
%ADD14R,1.450000X0.820000*%
%ADD15RoundRect,0.205000X-0.520000X-0.205000X0.520000X-0.205000X0.520000X0.205000X-0.520000X0.205000X0*%
%ADD16C,1.200000*%
%ADD17RoundRect,0.250000X0.725000X-0.600000X0.725000X0.600000X-0.725000X0.600000X-0.725000X-0.600000X0*%
%ADD18O,1.950000X1.700000*%
%ADD19RoundRect,0.250000X-0.350000X-0.450000X0.350000X-0.450000X0.350000X0.450000X-0.350000X0.450000X0*%
%ADD20RoundRect,0.250000X0.750000X0.750000X-0.750000X0.750000X-0.750000X-0.750000X0.750000X-0.750000X0*%
%ADD21C,2.000000*%
%ADD22RoundRect,0.250000X-0.725000X0.600000X-0.725000X-0.600000X0.725000X-0.600000X0.725000X0.600000X0*%
G04 APERTURE END LIST*
D10*
%TO.C,SW4*%
X97175000Y-31025000D03*
D11*
X99715000Y-25945000D03*
X93365000Y-28485000D03*
%TD*%
D10*
%TO.C,SW9*%
X97175000Y-50075000D03*
D11*
X99715000Y-44995000D03*
X93365000Y-47535000D03*
%TD*%
D10*
%TO.C,SW2*%
X59175000Y-31025000D03*
D11*
X61715000Y-25945000D03*
X55365000Y-28485000D03*
%TD*%
D10*
%TO.C,SW3*%
X78125000Y-31025000D03*
D11*
X80665000Y-25945000D03*
X74315000Y-28485000D03*
%TD*%
D12*
%TO.C,REF\u002A\u002A*%
X25000000Y-56100000D03*
%TD*%
D10*
%TO.C,SW6*%
X40025000Y-50075000D03*
D11*
X42565000Y-44995000D03*
X36215000Y-47535000D03*
%TD*%
D10*
%TO.C,SW10*%
X116225000Y-50075000D03*
D11*
X118765000Y-44995000D03*
X112415000Y-47535000D03*
%TD*%
D10*
%TO.C,SW1*%
X40025000Y-31025000D03*
D11*
X42565000Y-25945000D03*
X36215000Y-28485000D03*
%TD*%
D12*
%TO.C,REF\u002A\u002A*%
X25000000Y-25000000D03*
%TD*%
D10*
%TO.C,SW5*%
X116225000Y-31025000D03*
D11*
X118765000Y-25945000D03*
X112415000Y-28485000D03*
%TD*%
D12*
%TO.C,REF\u002A\u002A*%
X131250000Y-24900000D03*
%TD*%
D10*
%TO.C,SW7*%
X59075000Y-50075000D03*
D11*
X61615000Y-44995000D03*
X55265000Y-47535000D03*
%TD*%
D10*
%TO.C,SW8*%
X78125000Y-50075000D03*
D11*
X80665000Y-44995000D03*
X74315000Y-47535000D03*
%TD*%
D12*
%TO.C,REF\u002A\u002A*%
X131250000Y-56100000D03*
%TD*%
D13*
%TO.C,C2*%
X58037500Y-39000000D03*
X60112500Y-39000000D03*
%TD*%
D14*
%TO.C,D7*%
X56400000Y-54250000D03*
X56400000Y-55750000D03*
D15*
X61750000Y-55750000D03*
D14*
X61750000Y-54250000D03*
%TD*%
%TO.C,D3*%
X75450000Y-35250000D03*
X75450000Y-36750000D03*
D15*
X80800000Y-36750000D03*
D14*
X80800000Y-35250000D03*
%TD*%
D16*
%TO.C,J1*%
X123500000Y-39100000D03*
D17*
X125500000Y-37500000D03*
D18*
X125500000Y-35000000D03*
X125500000Y-32500000D03*
X125500000Y-30000000D03*
X125500000Y-27500000D03*
X125500000Y-25000000D03*
%TD*%
D14*
%TO.C,D9*%
X94500000Y-54250000D03*
X94500000Y-55750000D03*
D15*
X99850000Y-55750000D03*
D14*
X99850000Y-54250000D03*
%TD*%
%TO.C,D2*%
X56400000Y-35250000D03*
X56400000Y-36750000D03*
D15*
X61750000Y-36750000D03*
D14*
X61750000Y-35250000D03*
%TD*%
D13*
%TO.C,C10*%
X115187500Y-58000000D03*
X117262500Y-58000000D03*
%TD*%
D14*
%TO.C,D6*%
X37350000Y-54250000D03*
X37350000Y-55750000D03*
D15*
X42700000Y-55750000D03*
D14*
X42700000Y-54250000D03*
%TD*%
D13*
%TO.C,C6*%
X38987500Y-58000000D03*
X41062500Y-58000000D03*
%TD*%
%TO.C,C3*%
X77087500Y-39000000D03*
X79162500Y-39000000D03*
%TD*%
%TO.C,C9*%
X96137500Y-58000000D03*
X98212500Y-58000000D03*
%TD*%
D14*
%TO.C,D8*%
X75450000Y-54250000D03*
X75450000Y-55750000D03*
D15*
X80800000Y-55750000D03*
D14*
X80800000Y-54250000D03*
%TD*%
%TO.C,D4*%
X94450000Y-35250000D03*
X94450000Y-36750000D03*
D15*
X99800000Y-36750000D03*
D14*
X99800000Y-35250000D03*
%TD*%
D19*
%TO.C,R1*%
X32200000Y-36800000D03*
X34200000Y-36800000D03*
%TD*%
D13*
%TO.C,C4*%
X96137500Y-39000000D03*
X98212500Y-39000000D03*
%TD*%
%TO.C,C5*%
X115187500Y-39000000D03*
X117262500Y-39000000D03*
%TD*%
D20*
%TO.C,C11*%
X28367677Y-46500000D03*
D21*
X23367677Y-46500000D03*
%TD*%
D13*
%TO.C,C8*%
X77087500Y-58000000D03*
X79162500Y-58000000D03*
%TD*%
D16*
%TO.C,J4*%
X131000000Y-45100000D03*
D17*
X133000000Y-43500000D03*
D18*
X133000000Y-41000000D03*
X133000000Y-38500000D03*
%TD*%
D14*
%TO.C,D10*%
X113550000Y-54250000D03*
X113550000Y-55750000D03*
D15*
X118900000Y-55750000D03*
D14*
X118900000Y-54250000D03*
%TD*%
%TO.C,D5*%
X113550000Y-35250000D03*
X113550000Y-36750000D03*
D15*
X118900000Y-36750000D03*
D14*
X118900000Y-35250000D03*
%TD*%
%TO.C,D1*%
X37350000Y-35250000D03*
X37350000Y-36750000D03*
D15*
X42700000Y-36750000D03*
D14*
X42700000Y-35250000D03*
%TD*%
D16*
%TO.C,J2*%
X123500000Y-58600000D03*
D17*
X125500000Y-57000000D03*
D18*
X125500000Y-54500000D03*
X125500000Y-52000000D03*
X125500000Y-49500000D03*
X125500000Y-47000000D03*
X125500000Y-44500000D03*
%TD*%
D16*
%TO.C,J3*%
X27000000Y-30400000D03*
D22*
X25000000Y-32000000D03*
D18*
X25000000Y-34500000D03*
X25000000Y-37000000D03*
%TD*%
D13*
%TO.C,C1*%
X38987500Y-39000000D03*
X41062500Y-39000000D03*
%TD*%
%TO.C,C7*%
X58037500Y-58000000D03*
X60112500Y-58000000D03*
%TD*%
M02*
