%TF.GenerationSoftware,KiCad,Pcbnew,9.0.8-1.fc42*%
%TF.CreationDate,2026-04-13T21:32:41+02:00*%
%TF.ProjectId,FM,464d2e6b-6963-4616-945f-706362585858,rev?*%
%TF.SameCoordinates,Original*%
%TF.FileFunction,Profile,NP*%
%FSLAX46Y46*%
G04 Gerber Fmt 4.6, Leading zero omitted, Abs format (unit mm)*
G04 Created by KiCad (PCBNEW 9.0.8-1.fc42) date 2026-04-13 21:32:41*
%MOMM*%
%LPD*%
G01*
G04 APERTURE LIST*
%TA.AperFunction,Profile*%
%ADD10C,0.100000*%
%TD*%
%TA.AperFunction,Profile*%
%ADD11C,0.120000*%
%TD*%
G04 APERTURE END LIST*
D10*
X20000000Y-20000000D02*
X136250000Y-20000000D01*
X136250000Y-61100000D01*
X20000000Y-61100000D01*
X20000000Y-20000000D01*
D11*
%TO.C,D7*%
X57175000Y-53700000D02*
X57175000Y-56300000D01*
X57375000Y-56500000D02*
X60775000Y-56500000D01*
X60775000Y-53500000D02*
X57375000Y-53500000D01*
X60975000Y-56300000D02*
X60975000Y-53700000D01*
X57175000Y-53700000D02*
G75*
G02*
X57375000Y-53500000I200001J-1D01*
G01*
X57375000Y-56500000D02*
G75*
G02*
X57175000Y-56300000I1J200001D01*
G01*
X60775000Y-53500000D02*
G75*
G02*
X60975000Y-53700000I0J-200000D01*
G01*
X60975000Y-56300000D02*
G75*
G02*
X60775000Y-56500000I-200000J0D01*
G01*
%TO.C,D3*%
X76225000Y-34700000D02*
X76225000Y-37300000D01*
X76425000Y-37500000D02*
X79825000Y-37500000D01*
X79825000Y-34500000D02*
X76425000Y-34500000D01*
X80025000Y-37300000D02*
X80025000Y-34700000D01*
X76225000Y-34700000D02*
G75*
G02*
X76425000Y-34500000I200001J-1D01*
G01*
X76425000Y-37500000D02*
G75*
G02*
X76225000Y-37300000I1J200001D01*
G01*
X79825000Y-34500000D02*
G75*
G02*
X80025000Y-34700000I0J-200000D01*
G01*
X80025000Y-37300000D02*
G75*
G02*
X79825000Y-37500000I-200000J0D01*
G01*
%TO.C,D9*%
X95275000Y-53700000D02*
X95275000Y-56300000D01*
X95475000Y-56500000D02*
X98875000Y-56500000D01*
X98875000Y-53500000D02*
X95475000Y-53500000D01*
X99075000Y-56300000D02*
X99075000Y-53700000D01*
X95275000Y-53700000D02*
G75*
G02*
X95475000Y-53500000I200001J-1D01*
G01*
X95475000Y-56500000D02*
G75*
G02*
X95275000Y-56300000I1J200001D01*
G01*
X98875000Y-53500000D02*
G75*
G02*
X99075000Y-53700000I0J-200000D01*
G01*
X99075000Y-56300000D02*
G75*
G02*
X98875000Y-56500000I-200000J0D01*
G01*
%TO.C,D2*%
X57175000Y-34700000D02*
X57175000Y-37300000D01*
X57375000Y-37500000D02*
X60775000Y-37500000D01*
X60775000Y-34500000D02*
X57375000Y-34500000D01*
X60975000Y-37300000D02*
X60975000Y-34700000D01*
X57175000Y-34700000D02*
G75*
G02*
X57375000Y-34500000I200001J-1D01*
G01*
X57375000Y-37500000D02*
G75*
G02*
X57175000Y-37300000I1J200001D01*
G01*
X60775000Y-34500000D02*
G75*
G02*
X60975000Y-34700000I0J-200000D01*
G01*
X60975000Y-37300000D02*
G75*
G02*
X60775000Y-37500000I-200000J0D01*
G01*
%TO.C,D6*%
X38125000Y-53700000D02*
X38125000Y-56300000D01*
X38325000Y-56500000D02*
X41725000Y-56500000D01*
X41725000Y-53500000D02*
X38325000Y-53500000D01*
X41925000Y-56300000D02*
X41925000Y-53700000D01*
X38125000Y-53700000D02*
G75*
G02*
X38325000Y-53500000I200001J-1D01*
G01*
X38325000Y-56500000D02*
G75*
G02*
X38125000Y-56300000I1J200001D01*
G01*
X41725000Y-53500000D02*
G75*
G02*
X41925000Y-53700000I0J-200000D01*
G01*
X41925000Y-56300000D02*
G75*
G02*
X41725000Y-56500000I-200000J0D01*
G01*
%TO.C,D8*%
X76225000Y-53700000D02*
X76225000Y-56300000D01*
X76425000Y-56500000D02*
X79825000Y-56500000D01*
X79825000Y-53500000D02*
X76425000Y-53500000D01*
X80025000Y-56300000D02*
X80025000Y-53700000D01*
X76225000Y-53700000D02*
G75*
G02*
X76425000Y-53500000I200001J-1D01*
G01*
X76425000Y-56500000D02*
G75*
G02*
X76225000Y-56300000I1J200001D01*
G01*
X79825000Y-53500000D02*
G75*
G02*
X80025000Y-53700000I0J-200000D01*
G01*
X80025000Y-56300000D02*
G75*
G02*
X79825000Y-56500000I-200000J0D01*
G01*
%TO.C,D4*%
X95225000Y-34700000D02*
X95225000Y-37300000D01*
X95425000Y-37500000D02*
X98825000Y-37500000D01*
X98825000Y-34500000D02*
X95425000Y-34500000D01*
X99025000Y-37300000D02*
X99025000Y-34700000D01*
X95225000Y-34700000D02*
G75*
G02*
X95425000Y-34500000I200001J-1D01*
G01*
X95425000Y-37500000D02*
G75*
G02*
X95225000Y-37300000I1J200001D01*
G01*
X98825000Y-34500000D02*
G75*
G02*
X99025000Y-34700000I0J-200000D01*
G01*
X99025000Y-37300000D02*
G75*
G02*
X98825000Y-37500000I-200000J0D01*
G01*
%TO.C,D10*%
X114325000Y-53700000D02*
X114325000Y-56300000D01*
X114525000Y-56500000D02*
X117925000Y-56500000D01*
X117925000Y-53500000D02*
X114525000Y-53500000D01*
X118125000Y-56300000D02*
X118125000Y-53700000D01*
X114325000Y-53700000D02*
G75*
G02*
X114525000Y-53500000I200001J-1D01*
G01*
X114525000Y-56500000D02*
G75*
G02*
X114325000Y-56300000I1J200001D01*
G01*
X117925000Y-53500000D02*
G75*
G02*
X118125000Y-53700000I0J-200000D01*
G01*
X118125000Y-56300000D02*
G75*
G02*
X117925000Y-56500000I-200000J0D01*
G01*
%TO.C,D5*%
X114325000Y-34700000D02*
X114325000Y-37300000D01*
X114525000Y-37500000D02*
X117925000Y-37500000D01*
X117925000Y-34500000D02*
X114525000Y-34500000D01*
X118125000Y-37300000D02*
X118125000Y-34700000D01*
X114325000Y-34700000D02*
G75*
G02*
X114525000Y-34500000I200001J-1D01*
G01*
X114525000Y-37500000D02*
G75*
G02*
X114325000Y-37300000I1J200001D01*
G01*
X117925000Y-34500000D02*
G75*
G02*
X118125000Y-34700000I0J-200000D01*
G01*
X118125000Y-37300000D02*
G75*
G02*
X117925000Y-37500000I-200000J0D01*
G01*
%TO.C,D1*%
X38125000Y-34700000D02*
X38125000Y-37300000D01*
X38325000Y-37500000D02*
X41725000Y-37500000D01*
X41725000Y-34500000D02*
X38325000Y-34500000D01*
X41925000Y-37300000D02*
X41925000Y-34700000D01*
X38125000Y-34700000D02*
G75*
G02*
X38325000Y-34500000I200001J-1D01*
G01*
X38325000Y-37500000D02*
G75*
G02*
X38125000Y-37300000I1J200001D01*
G01*
X41725000Y-34500000D02*
G75*
G02*
X41925000Y-34700000I0J-200000D01*
G01*
X41925000Y-37300000D02*
G75*
G02*
X41725000Y-37500000I-200000J0D01*
G01*
%TD*%
M02*
