%TF.GenerationSoftware,KiCad,Pcbnew,9.0.8-1.fc42*%
%TF.CreationDate,2026-04-13T21:32:41+02:00*%
%TF.ProjectId,FM,464d2e6b-6963-4616-945f-706362585858,rev?*%
%TF.SameCoordinates,Original*%
%TF.FileFunction,Soldermask,Top*%
%TF.FilePolarity,Negative*%
%FSLAX46Y46*%
G04 Gerber Fmt 4.6, Leading zero omitted, Abs format (unit mm)*
G04 Created by KiCad (PCBNEW 9.0.8-1.fc42) date 2026-04-13 21:32:41*
%MOMM*%
%LPD*%
G01*
G04 APERTURE LIST*
G04 Aperture macros list*
%AMRoundRect*
0 Rectangle with rounded corners*
0 $1 Rounding radius*
0 $2 $3 $4 $5 $6 $7 $8 $9 X,Y pos of 4 corners*
0 Add a 4 corners polygon primitive as box body*
4,1,4,$2,$3,$4,$5,$6,$7,$8,$9,$2,$3,0*
0 Add four circle primitives for the rounded corners*
1,1,$1+$1,$2,$3*
1,1,$1+$1,$4,$5*
1,1,$1+$1,$6,$7*
1,1,$1+$1,$8,$9*
0 Add four rect primitives between the rounded corners*
20,1,$1+$1,$2,$3,$4,$5,0*
20,1,$1+$1,$4,$5,$6,$7,0*
20,1,$1+$1,$6,$7,$8,$9,0*
20,1,$1+$1,$8,$9,$2,$3,0*%
G04 Aperture macros list end*
%ADD10C,4.000000*%
%ADD11C,2.200000*%
%ADD12C,3.500000*%
%ADD13C,1.200000*%
%ADD14RoundRect,0.250000X0.725000X-0.600000X0.725000X0.600000X-0.725000X0.600000X-0.725000X-0.600000X0*%
%ADD15O,1.950000X1.700000*%
%ADD16RoundRect,0.250000X0.750000X0.750000X-0.750000X0.750000X-0.750000X-0.750000X0.750000X-0.750000X0*%
%ADD17C,2.000000*%
%ADD18RoundRect,0.250000X-0.725000X0.600000X-0.725000X-0.600000X0.725000X-0.600000X0.725000X0.600000X0*%
G04 APERTURE END LIST*
D10*
%TO.C,SW4*%
X97175000Y-31025000D03*
D11*
X99715000Y-25945000D03*
X93365000Y-28485000D03*
%TD*%
D10*
%TO.C,SW9*%
X97175000Y-50075000D03*
D11*
X99715000Y-44995000D03*
X93365000Y-47535000D03*
%TD*%
D10*
%TO.C,SW2*%
X59175000Y-31025000D03*
D11*
X61715000Y-25945000D03*
X55365000Y-28485000D03*
%TD*%
D10*
%TO.C,SW3*%
X78125000Y-31025000D03*
D11*
X80665000Y-25945000D03*
X74315000Y-28485000D03*
%TD*%
D12*
%TO.C,REF\u002A\u002A*%
X25000000Y-56100000D03*
%TD*%
D10*
%TO.C,SW6*%
X40025000Y-50075000D03*
D11*
X42565000Y-44995000D03*
X36215000Y-47535000D03*
%TD*%
D10*
%TO.C,SW10*%
X116225000Y-50075000D03*
D11*
X118765000Y-44995000D03*
X112415000Y-47535000D03*
%TD*%
D10*
%TO.C,SW1*%
X40025000Y-31025000D03*
D11*
X42565000Y-25945000D03*
X36215000Y-28485000D03*
%TD*%
D12*
%TO.C,REF\u002A\u002A*%
X25000000Y-25000000D03*
%TD*%
D10*
%TO.C,SW5*%
X116225000Y-31025000D03*
D11*
X118765000Y-25945000D03*
X112415000Y-28485000D03*
%TD*%
D12*
%TO.C,REF\u002A\u002A*%
X131250000Y-24900000D03*
%TD*%
D10*
%TO.C,SW7*%
X59075000Y-50075000D03*
D11*
X61615000Y-44995000D03*
X55265000Y-47535000D03*
%TD*%
D10*
%TO.C,SW8*%
X78125000Y-50075000D03*
D11*
X80665000Y-44995000D03*
X74315000Y-47535000D03*
%TD*%
D12*
%TO.C,REF\u002A\u002A*%
X131250000Y-56100000D03*
%TD*%
D13*
%TO.C,J1*%
X123500000Y-39100000D03*
D14*
X125500000Y-37500000D03*
D15*
X125500000Y-35000000D03*
X125500000Y-32500000D03*
X125500000Y-30000000D03*
X125500000Y-27500000D03*
X125500000Y-25000000D03*
%TD*%
D16*
%TO.C,C11*%
X28367677Y-46500000D03*
D17*
X23367677Y-46500000D03*
%TD*%
D13*
%TO.C,J4*%
X131000000Y-45100000D03*
D14*
X133000000Y-43500000D03*
D15*
X133000000Y-41000000D03*
X133000000Y-38500000D03*
%TD*%
D13*
%TO.C,J2*%
X123500000Y-58600000D03*
D14*
X125500000Y-57000000D03*
D15*
X125500000Y-54500000D03*
X125500000Y-52000000D03*
X125500000Y-49500000D03*
X125500000Y-47000000D03*
X125500000Y-44500000D03*
%TD*%
D13*
%TO.C,J3*%
X27000000Y-30400000D03*
D18*
X25000000Y-32000000D03*
D15*
X25000000Y-34500000D03*
X25000000Y-37000000D03*
%TD*%
M02*
