M48
; DRILL file {KiCad 9.0.8-1.fc42} date 2026-04-09T08:18:04+0200
; FORMAT={-:-/ absolute / metric / decimal}
; #@! TF.CreationDate,2026-04-09T08:18:04+02:00
; #@! TF.GenerationSoftware,Kicad,Pcbnew,9.0.8-1.fc42
; #@! TF.FileFunction,Plated,1,2,PTH
FMAT,2
METRIC
; #@! TA.AperFunction,Plated,PTH,ViaDrill
T1C0.500
; #@! TA.AperFunction,Plated,PTH,ComponentDrill
T2C0.950
; #@! TA.AperFunction,Plated,PTH,ComponentDrill
T3C1.000
; #@! TA.AperFunction,Plated,PTH,ViaDrill
T4C1.200
; #@! TA.AperFunction,Plated,PTH,ComponentDrill
T5C1.500
%
G90
G05
T1
X37.215Y-33.785
X37.215Y-39.1
X37.25Y-57.5
X37.704Y-52.673
X54.0Y-52.75
X54.0Y-57.5
X56.5Y-39.0
X56.715Y-33.697
X73.25Y-52.75
X73.75Y-57.25
X75.315Y-33.75
X75.75Y-38.5
X92.25Y-33.75
X93.0Y-57.0
X93.25Y-52.75
X93.75Y-38.75
X110.25Y-37.5
X111.0Y-33.75
X112.0Y-56.75
X112.5Y-52.75
X120.25Y-49.25
T2
X25.0Y-32.0
X25.0Y-34.5
X25.0Y-37.0
X125.5Y-25.0
X125.5Y-27.5
X125.5Y-30.0
X125.5Y-32.5
X125.5Y-35.0
X125.5Y-37.5
X125.5Y-44.5
X125.5Y-47.0
X125.5Y-49.5
X125.5Y-52.0
X125.5Y-54.5
X125.5Y-57.0
X133.0Y-38.5
X133.0Y-41.0
X133.0Y-43.5
T3
X23.368Y-46.5
X28.368Y-46.5
T4
X122.0Y-47.091
T5
X36.215Y-28.485
X36.215Y-47.535
X42.565Y-25.945
X42.565Y-44.995
X55.265Y-47.535
X55.365Y-28.485
X61.615Y-44.995
X61.715Y-25.945
X74.315Y-28.485
X74.315Y-47.535
X80.665Y-25.945
X80.665Y-44.995
X93.365Y-28.485
X93.365Y-47.535
X99.715Y-25.945
X99.715Y-44.995
X112.415Y-28.485
X112.415Y-47.535
X118.765Y-25.945
X118.765Y-44.995
M30
