%TF.GenerationSoftware,KiCad,Pcbnew,9.0.9-1.fc43*%
%TF.CreationDate,2026-05-25T13:53:12+02:00*%
%TF.ProjectId,Fader_RPI_PICO,46616465-725f-4525-9049-5f5049434f2e,rev?*%
%TF.SameCoordinates,Original*%
%TF.FileFunction,Paste,Top*%
%TF.FilePolarity,Positive*%
%FSLAX46Y46*%
G04 Gerber Fmt 4.6, Leading zero omitted, Abs format (unit mm)*
G04 Created by KiCad (PCBNEW 9.0.9-1.fc43) date 2026-05-25 13:53:12*
%MOMM*%
%LPD*%
G01*
G04 APERTURE LIST*
G04 Aperture macros list*
%AMRoundRect*
0 Rectangle with rounded corners*
0 $1 Rounding radius*
0 $2 $3 $4 $5 $6 $7 $8 $9 X,Y pos of 4 corners*
0 Add a 4 corners polygon primitive as box body*
4,1,4,$2,$3,$4,$5,$6,$7,$8,$9,$2,$3,0*
0 Add four circle primitives for the rounded corners*
1,1,$1+$1,$2,$3*
1,1,$1+$1,$4,$5*
1,1,$1+$1,$6,$7*
1,1,$1+$1,$8,$9*
0 Add four rect primitives between the rounded corners*
20,1,$1+$1,$2,$3,$4,$5,0*
20,1,$1+$1,$4,$5,$6,$7,0*
20,1,$1+$1,$6,$7,$8,$9,0*
20,1,$1+$1,$8,$9,$2,$3,0*%
G04 Aperture macros list end*
%ADD10RoundRect,0.150000X-0.825000X-0.150000X0.825000X-0.150000X0.825000X0.150000X-0.825000X0.150000X0*%
%ADD11RoundRect,0.250000X-0.450000X0.350000X-0.450000X-0.350000X0.450000X-0.350000X0.450000X0.350000X0*%
%ADD12RoundRect,0.150000X0.875000X0.150000X-0.875000X0.150000X-0.875000X-0.150000X0.875000X-0.150000X0*%
%ADD13RoundRect,0.250000X-0.475000X0.337500X-0.475000X-0.337500X0.475000X-0.337500X0.475000X0.337500X0*%
%ADD14RoundRect,0.250000X0.337500X0.475000X-0.337500X0.475000X-0.337500X-0.475000X0.337500X-0.475000X0*%
%ADD15RoundRect,0.150000X0.825000X0.150000X-0.825000X0.150000X-0.825000X-0.150000X0.825000X-0.150000X0*%
%ADD16RoundRect,0.250000X0.475000X-0.337500X0.475000X0.337500X-0.475000X0.337500X-0.475000X-0.337500X0*%
G04 APERTURE END LIST*
D10*
%TO.C,U1*%
X79475000Y-52440000D03*
X79475000Y-53710000D03*
X79475000Y-54980000D03*
X79475000Y-56250000D03*
X79475000Y-57520000D03*
X79475000Y-58790000D03*
X79475000Y-60060000D03*
X74525000Y-60060000D03*
X74525000Y-58790000D03*
X74525000Y-57520000D03*
X74525000Y-56250000D03*
X74525000Y-54980000D03*
X74525000Y-53710000D03*
X74525000Y-52440000D03*
%TD*%
D11*
%TO.C,R1*%
X71000000Y-55000000D03*
X71000000Y-57000000D03*
%TD*%
D12*
%TO.C,U3*%
X88400000Y-38255000D03*
X88400000Y-36985000D03*
X88400000Y-35715000D03*
X88400000Y-34445000D03*
X88400000Y-33175000D03*
X88400000Y-31905000D03*
X88400000Y-30635000D03*
X88400000Y-29365000D03*
X88400000Y-28095000D03*
X88400000Y-26825000D03*
X88400000Y-25555000D03*
X88400000Y-24285000D03*
X88400000Y-23015000D03*
X88400000Y-21745000D03*
X79100000Y-21745000D03*
X79100000Y-23015000D03*
X79100000Y-24285000D03*
X79100000Y-25555000D03*
X79100000Y-26825000D03*
X79100000Y-28095000D03*
X79100000Y-29365000D03*
X79100000Y-30635000D03*
X79100000Y-31905000D03*
X79100000Y-33175000D03*
X79100000Y-34445000D03*
X79100000Y-35715000D03*
X79100000Y-36985000D03*
X79100000Y-38255000D03*
%TD*%
D13*
%TO.C,C1*%
X69250000Y-25962500D03*
X69250000Y-28037500D03*
%TD*%
D14*
%TO.C,C4*%
X41787500Y-62500000D03*
X39712500Y-62500000D03*
%TD*%
D15*
%TO.C,U4*%
X37225000Y-63405000D03*
X37225000Y-62135000D03*
X37225000Y-60865000D03*
X37225000Y-59595000D03*
X32275000Y-59595000D03*
X32275000Y-60865000D03*
X32275000Y-62135000D03*
X32275000Y-63405000D03*
%TD*%
D13*
%TO.C,C3*%
X91750000Y-23712500D03*
X91750000Y-25787500D03*
%TD*%
D12*
%TO.C,U2*%
X66650000Y-38255000D03*
X66650000Y-36985000D03*
X66650000Y-35715000D03*
X66650000Y-34445000D03*
X66650000Y-33175000D03*
X66650000Y-31905000D03*
X66650000Y-30635000D03*
X66650000Y-29365000D03*
X66650000Y-28095000D03*
X66650000Y-26825000D03*
X66650000Y-25555000D03*
X66650000Y-24285000D03*
X66650000Y-23015000D03*
X66650000Y-21745000D03*
X57350000Y-21745000D03*
X57350000Y-23015000D03*
X57350000Y-24285000D03*
X57350000Y-25555000D03*
X57350000Y-26825000D03*
X57350000Y-28095000D03*
X57350000Y-29365000D03*
X57350000Y-30635000D03*
X57350000Y-31905000D03*
X57350000Y-33175000D03*
X57350000Y-34445000D03*
X57350000Y-35715000D03*
X57350000Y-36985000D03*
X57350000Y-38255000D03*
%TD*%
D16*
%TO.C,C5*%
X29500000Y-62537500D03*
X29500000Y-60462500D03*
%TD*%
D13*
%TO.C,C6*%
X82000000Y-52712500D03*
X82000000Y-54787500D03*
%TD*%
M02*
