%TF.GenerationSoftware,KiCad,Pcbnew,9.0.9-1.fc43*%
%TF.CreationDate,2026-05-25T13:53:12+02:00*%
%TF.ProjectId,Fader_RPI_PICO,46616465-725f-4525-9049-5f5049434f2e,rev?*%
%TF.SameCoordinates,Original*%
%TF.FileFunction,Copper,L1,Top*%
%TF.FilePolarity,Positive*%
%FSLAX46Y46*%
G04 Gerber Fmt 4.6, Leading zero omitted, Abs format (unit mm)*
G04 Created by KiCad (PCBNEW 9.0.9-1.fc43) date 2026-05-25 13:53:12*
%MOMM*%
%LPD*%
G01*
G04 APERTURE LIST*
G04 Aperture macros list*
%AMRoundRect*
0 Rectangle with rounded corners*
0 $1 Rounding radius*
0 $2 $3 $4 $5 $6 $7 $8 $9 X,Y pos of 4 corners*
0 Add a 4 corners polygon primitive as box body*
4,1,4,$2,$3,$4,$5,$6,$7,$8,$9,$2,$3,0*
0 Add four circle primitives for the rounded corners*
1,1,$1+$1,$2,$3*
1,1,$1+$1,$4,$5*
1,1,$1+$1,$6,$7*
1,1,$1+$1,$8,$9*
0 Add four rect primitives between the rounded corners*
20,1,$1+$1,$2,$3,$4,$5,0*
20,1,$1+$1,$4,$5,$6,$7,0*
20,1,$1+$1,$6,$7,$8,$9,0*
20,1,$1+$1,$8,$9,$2,$3,0*%
%AMFreePoly0*
4,1,37,0.603843,0.796157,0.639018,0.796157,0.711114,0.766294,0.766294,0.711114,0.796157,0.639018,0.796157,0.603843,0.800000,0.600000,0.800000,-0.600000,0.796157,-0.603843,0.796157,-0.639018,0.766294,-0.711114,0.711114,-0.766294,0.639018,-0.796157,0.603843,-0.796157,0.600000,-0.800000,0.000000,-0.800000,0.000000,-0.796148,-0.078414,-0.796148,-0.232228,-0.765552,-0.377117,-0.705537,
-0.507515,-0.618408,-0.618408,-0.507515,-0.705537,-0.377117,-0.765552,-0.232228,-0.796148,-0.078414,-0.796148,0.078414,-0.765552,0.232228,-0.705537,0.377117,-0.618408,0.507515,-0.507515,0.618408,-0.377117,0.705537,-0.232228,0.765552,-0.078414,0.796148,0.000000,0.796148,0.000000,0.800000,0.600000,0.800000,0.603843,0.796157,0.603843,0.796157,$1*%
%AMFreePoly1*
4,1,37,0.000000,0.796148,0.078414,0.796148,0.232228,0.765552,0.377117,0.705537,0.507515,0.618408,0.618408,0.507515,0.705537,0.377117,0.765552,0.232228,0.796148,0.078414,0.796148,-0.078414,0.765552,-0.232228,0.705537,-0.377117,0.618408,-0.507515,0.507515,-0.618408,0.377117,-0.705537,0.232228,-0.765552,0.078414,-0.796148,0.000000,-0.796148,0.000000,-0.800000,-0.600000,-0.800000,
-0.603843,-0.796157,-0.639018,-0.796157,-0.711114,-0.766294,-0.766294,-0.711114,-0.796157,-0.639018,-0.796157,-0.603843,-0.800000,-0.600000,-0.800000,0.600000,-0.796157,0.603843,-0.796157,0.639018,-0.766294,0.711114,-0.711114,0.766294,-0.639018,0.796157,-0.603843,0.796157,-0.600000,0.800000,0.000000,0.800000,0.000000,0.796148,0.000000,0.796148,$1*%
G04 Aperture macros list end*
%TA.AperFunction,ComponentPad*%
%ADD10RoundRect,0.200000X0.600000X-0.600000X0.600000X0.600000X-0.600000X0.600000X-0.600000X-0.600000X0*%
%TD*%
%TA.AperFunction,ComponentPad*%
%ADD11C,1.600000*%
%TD*%
%TA.AperFunction,ComponentPad*%
%ADD12FreePoly0,90.000000*%
%TD*%
%TA.AperFunction,ComponentPad*%
%ADD13FreePoly1,90.000000*%
%TD*%
%TA.AperFunction,SMDPad,CuDef*%
%ADD14RoundRect,0.150000X-0.825000X-0.150000X0.825000X-0.150000X0.825000X0.150000X-0.825000X0.150000X0*%
%TD*%
%TA.AperFunction,SMDPad,CuDef*%
%ADD15RoundRect,0.250000X-0.450000X0.350000X-0.450000X-0.350000X0.450000X-0.350000X0.450000X0.350000X0*%
%TD*%
%TA.AperFunction,ComponentPad*%
%ADD16R,1.700000X1.700000*%
%TD*%
%TA.AperFunction,ComponentPad*%
%ADD17C,1.700000*%
%TD*%
%TA.AperFunction,SMDPad,CuDef*%
%ADD18RoundRect,0.150000X0.875000X0.150000X-0.875000X0.150000X-0.875000X-0.150000X0.875000X-0.150000X0*%
%TD*%
%TA.AperFunction,SMDPad,CuDef*%
%ADD19RoundRect,0.250000X-0.475000X0.337500X-0.475000X-0.337500X0.475000X-0.337500X0.475000X0.337500X0*%
%TD*%
%TA.AperFunction,SMDPad,CuDef*%
%ADD20RoundRect,0.250000X0.337500X0.475000X-0.337500X0.475000X-0.337500X-0.475000X0.337500X-0.475000X0*%
%TD*%
%TA.AperFunction,SMDPad,CuDef*%
%ADD21RoundRect,0.150000X0.825000X0.150000X-0.825000X0.150000X-0.825000X-0.150000X0.825000X-0.150000X0*%
%TD*%
%TA.AperFunction,SMDPad,CuDef*%
%ADD22RoundRect,0.250000X0.475000X-0.337500X0.475000X0.337500X-0.475000X0.337500X-0.475000X-0.337500X0*%
%TD*%
%TA.AperFunction,ComponentPad*%
%ADD23RoundRect,0.250000X-0.725000X0.600000X-0.725000X-0.600000X0.725000X-0.600000X0.725000X0.600000X0*%
%TD*%
%TA.AperFunction,ComponentPad*%
%ADD24O,1.950000X1.700000*%
%TD*%
%TA.AperFunction,ViaPad*%
%ADD25C,0.600000*%
%TD*%
%TA.AperFunction,ViaPad*%
%ADD26C,1.000000*%
%TD*%
%TA.AperFunction,Conductor*%
%ADD27C,0.500000*%
%TD*%
%TA.AperFunction,Conductor*%
%ADD28C,1.000000*%
%TD*%
%TA.AperFunction,Conductor*%
%ADD29C,0.300000*%
%TD*%
%TA.AperFunction,Conductor*%
%ADD30C,0.250000*%
%TD*%
G04 APERTURE END LIST*
D10*
%TO.P,A1,1,GPIO0*%
%TO.N,unconnected-(A1-GPIO0-Pad1)*%
X97780000Y-63750000D03*
D11*
%TO.P,A1,2,GPIO1*%
%TO.N,unconnected-(A1-GPIO1-Pad2)*%
X95240000Y-63750000D03*
D12*
%TO.P,A1,3,GND*%
%TO.N,GND*%
X92700000Y-63750000D03*
D11*
%TO.P,A1,4,GPIO2*%
%TO.N,Net-(A1-GPIO2)*%
X90160000Y-63750000D03*
%TO.P,A1,5,GPIO3*%
%TO.N,unconnected-(A1-GPIO3-Pad5)*%
X87620000Y-63750000D03*
%TO.P,A1,6,GPIO4*%
%TO.N,INT_1_A*%
X85080000Y-63750000D03*
%TO.P,A1,7,GPIO5*%
%TO.N,INT_0_A*%
X82540000Y-63750000D03*
D12*
%TO.P,A1,8,GND*%
%TO.N,GND*%
X80000000Y-63750000D03*
D11*
%TO.P,A1,9,GPIO6*%
%TO.N,Net-(A1-GPIO6)*%
X77460000Y-63750000D03*
%TO.P,A1,10,GPIO7*%
%TO.N,Net-(A1-GPIO7)*%
X74920000Y-63750000D03*
%TO.P,A1,11,GPIO8*%
%TO.N,Net-(A1-GPIO8)*%
X72380000Y-63750000D03*
%TO.P,A1,12,GPIO9*%
%TO.N,Net-(A1-GPIO9)*%
X69840000Y-63750000D03*
D12*
%TO.P,A1,13,GND*%
%TO.N,GND*%
X67300000Y-63750000D03*
D11*
%TO.P,A1,14,GPIO10*%
%TO.N,Net-(A1-GPIO10)*%
X64760000Y-63750000D03*
%TO.P,A1,15,GPIO11*%
%TO.N,Net-(A1-GPIO11)*%
X62220000Y-63750000D03*
%TO.P,A1,16,GPIO12*%
%TO.N,Net-(A1-GPIO12)*%
X59680000Y-63750000D03*
%TO.P,A1,17,GPIO13*%
%TO.N,Net-(A1-GPIO13)*%
X57140000Y-63750000D03*
D12*
%TO.P,A1,18,GND*%
%TO.N,GND*%
X54600000Y-63750000D03*
D11*
%TO.P,A1,19,GPIO14*%
%TO.N,Net-(A1-GPIO14)*%
X52060000Y-63750000D03*
%TO.P,A1,20,GPIO15*%
%TO.N,Net-(A1-GPIO15)*%
X49520000Y-63750000D03*
%TO.P,A1,21,GPIO16*%
%TO.N,CAN_TX*%
X49520000Y-45970000D03*
%TO.P,A1,22,GPIO17*%
%TO.N,CAN_RX*%
X52060000Y-45970000D03*
D13*
%TO.P,A1,23,GND*%
%TO.N,GND*%
X54600000Y-45970000D03*
D11*
%TO.P,A1,24,GPIO18*%
%TO.N,SPI_0_SCK*%
X57140000Y-45970000D03*
%TO.P,A1,25,GPIO19*%
%TO.N,SPI_0_MOSI*%
X59680000Y-45970000D03*
%TO.P,A1,26,GPIO20*%
%TO.N,SPI_0_MISO*%
X62220000Y-45970000D03*
%TO.P,A1,27,GPIO21*%
%TO.N,SPI_0_CS*%
X64760000Y-45970000D03*
D13*
%TO.P,A1,28,GND*%
%TO.N,GND*%
X67300000Y-45970000D03*
D11*
%TO.P,A1,29,GPIO22*%
%TO.N,unconnected-(A1-GPIO22-Pad29)*%
X69840000Y-45970000D03*
%TO.P,A1,30,RUN*%
%TO.N,unconnected-(A1-RUN-Pad30)*%
X72380000Y-45970000D03*
%TO.P,A1,31,GPIO26_ADC0*%
%TO.N,unconnected-(A1-GPIO26_ADC0-Pad31)*%
X74920000Y-45970000D03*
%TO.P,A1,32,GPIO27_ADC1*%
%TO.N,unconnected-(A1-GPIO27_ADC1-Pad32)*%
X77460000Y-45970000D03*
D13*
%TO.P,A1,33,AGND*%
%TO.N,unconnected-(A1-AGND-Pad33)*%
X80000000Y-45970000D03*
D11*
%TO.P,A1,34,GPIO28_ADC2*%
%TO.N,unconnected-(A1-GPIO28_ADC2-Pad34)*%
X82540000Y-45970000D03*
%TO.P,A1,35,ADC_VREF*%
%TO.N,unconnected-(A1-ADC_VREF-Pad35)*%
X85080000Y-45970000D03*
%TO.P,A1,36,3V3*%
%TO.N,+3.3V*%
X87620000Y-45970000D03*
%TO.P,A1,37,3V3_EN*%
%TO.N,unconnected-(A1-3V3_EN-Pad37)*%
X90160000Y-45970000D03*
D13*
%TO.P,A1,38,GND*%
%TO.N,GND*%
X92700000Y-45970000D03*
D11*
%TO.P,A1,39,VSYS*%
%TO.N,+5V*%
X95240000Y-45970000D03*
%TO.P,A1,40,VBUS*%
%TO.N,unconnected-(A1-VBUS-Pad40)*%
X97780000Y-45970000D03*
%TD*%
D14*
%TO.P,U1,14,VCC*%
%TO.N,+5V*%
X79475000Y-52440000D03*
%TO.P,U1,13*%
%TO.N,GND*%
X79475000Y-53710000D03*
%TO.P,U1,12*%
X79475000Y-54980000D03*
%TO.P,U1,11*%
%TO.N,unconnected-(U1-Pad11)*%
X79475000Y-56250000D03*
%TO.P,U1,10*%
%TO.N,GND*%
X79475000Y-57520000D03*
%TO.P,U1,9*%
X79475000Y-58790000D03*
%TO.P,U1,8*%
%TO.N,unconnected-(U1-Pad8)*%
X79475000Y-60060000D03*
%TO.P,U1,7,GND*%
%TO.N,GND*%
X74525000Y-60060000D03*
%TO.P,U1,6*%
%TO.N,unconnected-(U1-Pad6)*%
X74525000Y-58790000D03*
%TO.P,U1,5*%
%TO.N,GND*%
X74525000Y-57520000D03*
%TO.P,U1,4*%
X74525000Y-56250000D03*
%TO.P,U1,3*%
%TO.N,Net-(R1-Pad1)*%
X74525000Y-54980000D03*
%TO.P,U1,2*%
%TO.N,Net-(A1-GPIO2)*%
X74525000Y-53710000D03*
%TO.P,U1,1*%
%TO.N,+5V*%
X74525000Y-52440000D03*
%TD*%
D15*
%TO.P,R1,1*%
%TO.N,Net-(R1-Pad1)*%
X71000000Y-55000000D03*
%TO.P,R1,2*%
%TO.N,Net-(J2-Pin_2)*%
X71000000Y-57000000D03*
%TD*%
D16*
%TO.P,J2,1,Pin_1*%
%TO.N,GND*%
X26525000Y-32535000D03*
D17*
%TO.P,J2,2,Pin_2*%
%TO.N,Net-(J2-Pin_2)*%
X26525000Y-35075000D03*
%TO.P,J2,3,Pin_3*%
%TO.N,+5V*%
X26525000Y-37615000D03*
%TD*%
D18*
%TO.P,U3,1,GPB0*%
%TO.N,Net-(J7-Pin_9)*%
X88400000Y-38255000D03*
%TO.P,U3,2,GPB1*%
%TO.N,Net-(J7-Pin_10)*%
X88400000Y-36985000D03*
%TO.P,U3,3,GPB2*%
%TO.N,Net-(J7-Pin_7)*%
X88400000Y-35715000D03*
%TO.P,U3,4,GPB3*%
%TO.N,Net-(J7-Pin_8)*%
X88400000Y-34445000D03*
%TO.P,U3,5,GPB4*%
%TO.N,Net-(J7-Pin_5)*%
X88400000Y-33175000D03*
%TO.P,U3,6,GPB5*%
%TO.N,Net-(J7-Pin_6)*%
X88400000Y-31905000D03*
%TO.P,U3,7,GPB6*%
%TO.N,Net-(J7-Pin_3)*%
X88400000Y-30635000D03*
%TO.P,U3,8,GPB7*%
%TO.N,Net-(J7-Pin_4)*%
X88400000Y-29365000D03*
%TO.P,U3,9,VDD*%
%TO.N,+3.3V*%
X88400000Y-28095000D03*
%TO.P,U3,10,VSS*%
%TO.N,GND*%
X88400000Y-26825000D03*
%TO.P,U3,11,~{CS}*%
%TO.N,SPI_0_CS*%
X88400000Y-25555000D03*
%TO.P,U3,12,SCK*%
%TO.N,SPI_0_SCK*%
X88400000Y-24285000D03*
%TO.P,U3,13,SI*%
%TO.N,SPI_0_MOSI*%
X88400000Y-23015000D03*
%TO.P,U3,14,SO*%
%TO.N,SPI_0_MISO*%
X88400000Y-21745000D03*
%TO.P,U3,15,A0*%
%TO.N,+3.3V*%
X79100000Y-21745000D03*
%TO.P,U3,16,A1*%
%TO.N,GND*%
X79100000Y-23015000D03*
%TO.P,U3,17,A2*%
X79100000Y-24285000D03*
%TO.P,U3,18,~{RESET}*%
%TO.N,+3.3V*%
X79100000Y-25555000D03*
%TO.P,U3,19,INTB*%
%TO.N,unconnected-(U3-INTB-Pad19)*%
X79100000Y-26825000D03*
%TO.P,U3,20,INTA*%
%TO.N,INT_1_A*%
X79100000Y-28095000D03*
%TO.P,U3,21,GPA0*%
%TO.N,Net-(J5-Pin_3)*%
X79100000Y-29365000D03*
%TO.P,U3,22,GPA1*%
%TO.N,Net-(J5-Pin_5)*%
X79100000Y-30635000D03*
%TO.P,U3,23,GPA2*%
%TO.N,Net-(J5-Pin_7)*%
X79100000Y-31905000D03*
%TO.P,U3,24,GPA3*%
%TO.N,Net-(J5-Pin_9)*%
X79100000Y-33175000D03*
%TO.P,U3,25,GPA4*%
%TO.N,Net-(J7-Pin_12)*%
X79100000Y-34445000D03*
%TO.P,U3,26,GPA5*%
%TO.N,Net-(J7-Pin_11)*%
X79100000Y-35715000D03*
%TO.P,U3,27,GPA6*%
%TO.N,Net-(J7-Pin_14)*%
X79100000Y-36985000D03*
%TO.P,U3,28,GPA7*%
%TO.N,Net-(J7-Pin_13)*%
X79100000Y-38255000D03*
%TD*%
D19*
%TO.P,C1,1*%
%TO.N,GND*%
X69250000Y-25962500D03*
%TO.P,C1,2*%
%TO.N,+3.3V*%
X69250000Y-28037500D03*
%TD*%
D20*
%TO.P,C4,1*%
%TO.N,+5V*%
X41787500Y-62500000D03*
%TO.P,C4,2*%
%TO.N,GND*%
X39712500Y-62500000D03*
%TD*%
D21*
%TO.P,U4,1,TXD*%
%TO.N,CAN_TX*%
X37225000Y-63405000D03*
%TO.P,U4,2,GND*%
%TO.N,GND*%
X37225000Y-62135000D03*
%TO.P,U4,3,VCC*%
%TO.N,+5V*%
X37225000Y-60865000D03*
%TO.P,U4,4,RXD*%
%TO.N,CAN_RX*%
X37225000Y-59595000D03*
%TO.P,U4,5,VIO*%
%TO.N,+3.3V*%
X32275000Y-59595000D03*
%TO.P,U4,6,CANL*%
%TO.N,Net-(J8-Pin_2)*%
X32275000Y-60865000D03*
%TO.P,U4,7,CANH*%
%TO.N,Net-(J8-Pin_3)*%
X32275000Y-62135000D03*
%TO.P,U4,8,S*%
%TO.N,GND*%
X32275000Y-63405000D03*
%TD*%
D16*
%TO.P,J4,1,Pin_1*%
%TO.N,GND*%
X45765000Y-24985000D03*
D17*
%TO.P,J4,2,Pin_2*%
%TO.N,+3.3V*%
X43225000Y-24985000D03*
%TO.P,J4,3,Pin_3*%
%TO.N,Net-(A1-GPIO6)*%
X45765000Y-27525000D03*
%TO.P,J4,4,Pin_4*%
%TO.N,Net-(A1-GPIO7)*%
X43225000Y-27525000D03*
%TO.P,J4,5,Pin_5*%
%TO.N,Net-(A1-GPIO8)*%
X45765000Y-30065000D03*
%TO.P,J4,6,Pin_6*%
%TO.N,Net-(A1-GPIO9)*%
X43225000Y-30065000D03*
%TO.P,J4,7,Pin_7*%
%TO.N,Net-(A1-GPIO10)*%
X45765000Y-32605000D03*
%TO.P,J4,8,Pin_8*%
%TO.N,Net-(A1-GPIO11)*%
X43225000Y-32605000D03*
%TO.P,J4,9,Pin_9*%
%TO.N,Net-(A1-GPIO12)*%
X45765000Y-35145000D03*
%TO.P,J4,10,Pin_10*%
%TO.N,Net-(A1-GPIO13)*%
X43225000Y-35145000D03*
%TO.P,J4,11,Pin_11*%
%TO.N,Net-(A1-GPIO14)*%
X45765000Y-37685000D03*
%TO.P,J4,12,Pin_12*%
%TO.N,Net-(A1-GPIO15)*%
X43225000Y-37685000D03*
%TD*%
D19*
%TO.P,C3,1*%
%TO.N,GND*%
X91750000Y-23712500D03*
%TO.P,C3,2*%
%TO.N,+3.3V*%
X91750000Y-25787500D03*
%TD*%
D18*
%TO.P,U2,1,GPB0*%
%TO.N,Net-(J3-Pin_4)*%
X66650000Y-38255000D03*
%TO.P,U2,2,GPB1*%
%TO.N,Net-(J3-Pin_6)*%
X66650000Y-36985000D03*
%TO.P,U2,3,GPB2*%
%TO.N,Net-(J5-Pin_11)*%
X66650000Y-35715000D03*
%TO.P,U2,4,GPB3*%
%TO.N,Net-(J5-Pin_12)*%
X66650000Y-34445000D03*
%TO.P,U2,5,GPB4*%
%TO.N,Net-(J5-Pin_10)*%
X66650000Y-33175000D03*
%TO.P,U2,6,GPB5*%
%TO.N,Net-(J5-Pin_8)*%
X66650000Y-31905000D03*
%TO.P,U2,7,GPB6*%
%TO.N,Net-(J5-Pin_6)*%
X66650000Y-30635000D03*
%TO.P,U2,8,GPB7*%
%TO.N,Net-(J5-Pin_4)*%
X66650000Y-29365000D03*
%TO.P,U2,9,VDD*%
%TO.N,+3.3V*%
X66650000Y-28095000D03*
%TO.P,U2,10,VSS*%
%TO.N,GND*%
X66650000Y-26825000D03*
%TO.P,U2,11,~{CS}*%
%TO.N,SPI_0_CS*%
X66650000Y-25555000D03*
%TO.P,U2,12,SCK*%
%TO.N,SPI_0_SCK*%
X66650000Y-24285000D03*
%TO.P,U2,13,SI*%
%TO.N,SPI_0_MOSI*%
X66650000Y-23015000D03*
%TO.P,U2,14,SO*%
%TO.N,SPI_0_MISO*%
X66650000Y-21745000D03*
%TO.P,U2,15,A0*%
%TO.N,GND*%
X57350000Y-21745000D03*
%TO.P,U2,16,A1*%
X57350000Y-23015000D03*
%TO.P,U2,17,A2*%
X57350000Y-24285000D03*
%TO.P,U2,18,~{RESET}*%
%TO.N,+3.3V*%
X57350000Y-25555000D03*
%TO.P,U2,19,INTB*%
%TO.N,unconnected-(U2-INTB-Pad19)*%
X57350000Y-26825000D03*
%TO.P,U2,20,INTA*%
%TO.N,INT_0_A*%
X57350000Y-28095000D03*
%TO.P,U2,21,GPA0*%
%TO.N,Net-(J1-Pin_2)*%
X57350000Y-29365000D03*
%TO.P,U2,22,GPA1*%
%TO.N,Net-(J1-Pin_3)*%
X57350000Y-30635000D03*
%TO.P,U2,23,GPA2*%
%TO.N,Net-(J1-Pin_4)*%
X57350000Y-31905000D03*
%TO.P,U2,24,GPA3*%
%TO.N,Net-(J1-Pin_5)*%
X57350000Y-33175000D03*
%TO.P,U2,25,GPA4*%
%TO.N,Net-(J3-Pin_3)*%
X57350000Y-34445000D03*
%TO.P,U2,26,GPA5*%
%TO.N,Net-(J3-Pin_5)*%
X57350000Y-35715000D03*
%TO.P,U2,27,GPA6*%
%TO.N,Net-(J3-Pin_7)*%
X57350000Y-36985000D03*
%TO.P,U2,28,GPA7*%
%TO.N,Net-(J3-Pin_8)*%
X57350000Y-38255000D03*
%TD*%
D22*
%TO.P,C5,1*%
%TO.N,GND*%
X29500000Y-62537500D03*
%TO.P,C5,2*%
%TO.N,+3.3V*%
X29500000Y-60462500D03*
%TD*%
D19*
%TO.P,C6,1*%
%TO.N,+5V*%
X82000000Y-52712500D03*
%TO.P,C6,2*%
%TO.N,GND*%
X82000000Y-54787500D03*
%TD*%
D16*
%TO.P,J3,1,Pin_1*%
%TO.N,GND*%
X27065000Y-42010000D03*
D17*
%TO.P,J3,2,Pin_2*%
%TO.N,+5V*%
X24525000Y-42010000D03*
%TO.P,J3,3,Pin_3*%
%TO.N,Net-(J3-Pin_3)*%
X27065000Y-44550000D03*
%TO.P,J3,4,Pin_4*%
%TO.N,Net-(J3-Pin_4)*%
X24525000Y-44550000D03*
%TO.P,J3,5,Pin_5*%
%TO.N,Net-(J3-Pin_5)*%
X27065000Y-47090000D03*
%TO.P,J3,6,Pin_6*%
%TO.N,Net-(J3-Pin_6)*%
X24525000Y-47090000D03*
%TO.P,J3,7,Pin_7*%
%TO.N,Net-(J3-Pin_7)*%
X27065000Y-49630000D03*
%TO.P,J3,8,Pin_8*%
%TO.N,Net-(J3-Pin_8)*%
X24525000Y-49630000D03*
%TD*%
D23*
%TO.P,J8,1,Pin_1*%
%TO.N,GND*%
X38500000Y-52250000D03*
D24*
%TO.P,J8,2,Pin_2*%
%TO.N,Net-(J8-Pin_2)*%
X38500000Y-54750000D03*
%TO.P,J8,3,Pin_3*%
%TO.N,Net-(J8-Pin_3)*%
X38500000Y-57250000D03*
%TD*%
D16*
%TO.P,J1,1,Pin_1*%
%TO.N,GND*%
X52500000Y-24920000D03*
D17*
%TO.P,J1,2,Pin_2*%
%TO.N,Net-(J1-Pin_2)*%
X52500000Y-27460000D03*
%TO.P,J1,3,Pin_3*%
%TO.N,Net-(J1-Pin_3)*%
X52500000Y-30000000D03*
%TO.P,J1,4,Pin_4*%
%TO.N,Net-(J1-Pin_4)*%
X52500000Y-32540000D03*
%TO.P,J1,5,Pin_5*%
%TO.N,Net-(J1-Pin_5)*%
X52500000Y-35080000D03*
%TD*%
D23*
%TO.P,J9,1,Pin_1*%
%TO.N,GND*%
X31475000Y-52250000D03*
D24*
%TO.P,J9,2,Pin_2*%
%TO.N,Net-(J8-Pin_2)*%
X31475000Y-54750000D03*
%TO.P,J9,3,Pin_3*%
%TO.N,Net-(J8-Pin_3)*%
X31475000Y-57250000D03*
%TD*%
D16*
%TO.P,J7,1,Pin_1*%
%TO.N,GND*%
X97040000Y-23670000D03*
D17*
%TO.P,J7,2,Pin_2*%
X94500000Y-23670000D03*
%TO.P,J7,3,Pin_3*%
%TO.N,Net-(J7-Pin_3)*%
X97040000Y-26210000D03*
%TO.P,J7,4,Pin_4*%
%TO.N,Net-(J7-Pin_4)*%
X94500000Y-26210000D03*
%TO.P,J7,5,Pin_5*%
%TO.N,Net-(J7-Pin_5)*%
X97040000Y-28750000D03*
%TO.P,J7,6,Pin_6*%
%TO.N,Net-(J7-Pin_6)*%
X94500000Y-28750000D03*
%TO.P,J7,7,Pin_7*%
%TO.N,Net-(J7-Pin_7)*%
X97040000Y-31290000D03*
%TO.P,J7,8,Pin_8*%
%TO.N,Net-(J7-Pin_8)*%
X94500000Y-31290000D03*
%TO.P,J7,9,Pin_9*%
%TO.N,Net-(J7-Pin_9)*%
X97040000Y-33830000D03*
%TO.P,J7,10,Pin_10*%
%TO.N,Net-(J7-Pin_10)*%
X94500000Y-33830000D03*
%TO.P,J7,11,Pin_11*%
%TO.N,Net-(J7-Pin_11)*%
X97040000Y-36370000D03*
%TO.P,J7,12,Pin_12*%
%TO.N,Net-(J7-Pin_12)*%
X94500000Y-36370000D03*
%TO.P,J7,13,Pin_13*%
%TO.N,Net-(J7-Pin_13)*%
X97040000Y-38910000D03*
%TO.P,J7,14,Pin_14*%
%TO.N,Net-(J7-Pin_14)*%
X94500000Y-38910000D03*
%TD*%
D23*
%TO.P,J6,1,Pin_1*%
%TO.N,GND*%
X35975000Y-26250000D03*
D24*
%TO.P,J6,2,Pin_2*%
%TO.N,+3.3V*%
X35975000Y-28750000D03*
%TO.P,J6,3,Pin_3*%
%TO.N,+5V*%
X35975000Y-31250000D03*
%TD*%
D16*
%TO.P,J5,1,Pin_1*%
%TO.N,GND*%
X75000000Y-26460000D03*
D17*
%TO.P,J5,2,Pin_2*%
X72460000Y-26460000D03*
%TO.P,J5,3,Pin_3*%
%TO.N,Net-(J5-Pin_3)*%
X75000000Y-29000000D03*
%TO.P,J5,4,Pin_4*%
%TO.N,Net-(J5-Pin_4)*%
X72460000Y-29000000D03*
%TO.P,J5,5,Pin_5*%
%TO.N,Net-(J5-Pin_5)*%
X75000000Y-31540000D03*
%TO.P,J5,6,Pin_6*%
%TO.N,Net-(J5-Pin_6)*%
X72460000Y-31540000D03*
%TO.P,J5,7,Pin_7*%
%TO.N,Net-(J5-Pin_7)*%
X75000000Y-34080000D03*
%TO.P,J5,8,Pin_8*%
%TO.N,Net-(J5-Pin_8)*%
X72460000Y-34080000D03*
%TO.P,J5,9,Pin_9*%
%TO.N,Net-(J5-Pin_9)*%
X75000000Y-36620000D03*
%TO.P,J5,10,Pin_10*%
%TO.N,Net-(J5-Pin_10)*%
X72460000Y-36620000D03*
%TO.P,J5,11,Pin_11*%
%TO.N,Net-(J5-Pin_11)*%
X75000000Y-39160000D03*
%TO.P,J5,12,Pin_12*%
%TO.N,Net-(J5-Pin_12)*%
X72460000Y-39160000D03*
%TD*%
D25*
%TO.N,+5V*%
X37750000Y-66000000D03*
X36750000Y-68250000D03*
X91000000Y-49500000D03*
%TO.N,Net-(A1-GPIO9)*%
X40250000Y-65500000D03*
%TO.N,SPI_0_CS*%
X86555000Y-25555000D03*
X64945000Y-25555000D03*
%TO.N,GND*%
X81250000Y-57500000D03*
X81250000Y-58750000D03*
X72750000Y-60000000D03*
X81250000Y-56250000D03*
X72750000Y-56250000D03*
X72750000Y-57500000D03*
X72460000Y-21500000D03*
%TO.N,Net-(A1-GPIO7)*%
X39250000Y-65250000D03*
%TO.N,Net-(A1-GPIO8)*%
X46250000Y-57750000D03*
D26*
%TO.N,+3.3V*%
X27787500Y-60462500D03*
D25*
X86345000Y-28095000D03*
%TO.N,SPI_0_MOSI*%
X86515000Y-23015000D03*
X63235000Y-23015000D03*
X65000000Y-23015000D03*
%TO.N,Net-(A1-GPIO10)*%
X46250000Y-59250000D03*
%TO.N,SPI_0_MISO*%
X86499317Y-22215152D03*
X64000000Y-22250000D03*
%TO.N,SPI_0_SCK*%
X64986577Y-24263348D03*
X86535000Y-24285000D03*
X62215000Y-24285000D03*
%TO.N,+5V*%
X51500000Y-39000000D03*
X36750000Y-39750000D03*
X53301696Y-46760000D03*
X39000000Y-60865000D03*
%TO.N,INT_1_A*%
X83750000Y-34250000D03*
%TO.N,INT_0_A*%
X82750000Y-33500000D03*
%TO.N,Net-(J8-Pin_2)*%
X34500000Y-60865000D03*
%TO.N,Net-(J8-Pin_3)*%
X33750000Y-62135000D03*
%TD*%
D27*
%TO.N,+5V*%
X93000000Y-54750000D02*
X93000000Y-49750000D01*
X93000000Y-49750000D02*
X95240000Y-47510000D01*
X95240000Y-47510000D02*
X95240000Y-45970000D01*
X36750000Y-68250000D02*
X92500000Y-68250000D01*
X92500000Y-68250000D02*
X93990000Y-66760000D01*
X93990000Y-66760000D02*
X93990000Y-61760000D01*
X92250000Y-60000000D02*
X92250000Y-55500000D01*
X93990000Y-61760000D02*
X94000000Y-61750000D01*
X94000000Y-61750000D02*
X92250000Y-60000000D01*
X92250000Y-55500000D02*
X93000000Y-54750000D01*
%TO.N,GND*%
X92700000Y-45970000D02*
X92700000Y-47300000D01*
X92700000Y-47300000D02*
X92000000Y-48000000D01*
X92000000Y-48000000D02*
X92000000Y-53750000D01*
X92000000Y-53750000D02*
X91250000Y-54500000D01*
X91250000Y-54500000D02*
X91250000Y-55000000D01*
X82000000Y-54787500D02*
X91037500Y-54787500D01*
X91037500Y-54787500D02*
X91250000Y-55000000D01*
X92700000Y-63750000D02*
X92700000Y-62700000D01*
X92700000Y-62700000D02*
X91250000Y-61250000D01*
X91250000Y-61250000D02*
X91250000Y-55000000D01*
%TO.N,Net-(J2-Pin_2)*%
X26525000Y-35075000D02*
X22425000Y-35075000D01*
X22425000Y-35075000D02*
X21000000Y-36500000D01*
X76210000Y-65290000D02*
X76210000Y-62460000D01*
X21000000Y-36500000D02*
X21000000Y-65500000D01*
X71000000Y-60750000D02*
X71000000Y-57000000D01*
X21000000Y-65500000D02*
X23000000Y-67500000D01*
X23000000Y-67500000D02*
X74000000Y-67500000D01*
X76210000Y-62460000D02*
X75500000Y-61750000D01*
X75500000Y-61750000D02*
X72000000Y-61750000D01*
X74000000Y-67500000D02*
X76210000Y-65290000D01*
X72000000Y-61750000D02*
X71000000Y-60750000D01*
%TO.N,+5V*%
X91000000Y-51750000D02*
X91000000Y-49500000D01*
X82000000Y-52712500D02*
X90037500Y-52712500D01*
X90037500Y-52712500D02*
X91000000Y-51750000D01*
%TO.N,Net-(R1-Pad1)*%
X74525000Y-54980000D02*
X71020000Y-54980000D01*
X71020000Y-54980000D02*
X71000000Y-55000000D01*
%TO.N,Net-(A1-GPIO9)*%
X40750000Y-66000000D02*
X67590000Y-66000000D01*
X67590000Y-66000000D02*
X69840000Y-63750000D01*
X40250000Y-65500000D02*
X40750000Y-66000000D01*
%TO.N,SPI_0_CS*%
X88400000Y-25555000D02*
X86555000Y-25555000D01*
X64945000Y-25555000D02*
X66650000Y-25555000D01*
%TO.N,GND*%
X90250000Y-24000000D02*
X90537500Y-23712500D01*
X40500000Y-53750000D02*
X39000000Y-52250000D01*
X81807500Y-54980000D02*
X82000000Y-54787500D01*
X79475000Y-54980000D02*
X79475000Y-53710000D01*
X89425000Y-26825000D02*
X90250000Y-26000000D01*
X35750000Y-59242316D02*
X36242316Y-58750000D01*
X40500000Y-58500000D02*
X40500000Y-53750000D01*
X79515000Y-58750000D02*
X79475000Y-58790000D01*
X90250000Y-26000000D02*
X90250000Y-24000000D01*
X74505000Y-57500000D02*
X74525000Y-57520000D01*
X91750000Y-23712500D02*
X94457500Y-23712500D01*
X36242316Y-58750000D02*
X40250000Y-58750000D01*
X88400000Y-26825000D02*
X89425000Y-26825000D01*
X88400000Y-26825000D02*
X86575000Y-26825000D01*
X75000000Y-26460000D02*
X72460000Y-26460000D01*
X30367500Y-63405000D02*
X29500000Y-62537500D01*
X79495000Y-57500000D02*
X79475000Y-57520000D01*
X45765000Y-24985000D02*
X52435000Y-24985000D01*
X79475000Y-57520000D02*
X79475000Y-58790000D01*
X37225000Y-62135000D02*
X39577500Y-62135000D01*
X72750000Y-57500000D02*
X74505000Y-57500000D01*
X54835000Y-24285000D02*
X57350000Y-24285000D01*
X74525000Y-60060000D02*
X72810000Y-60060000D01*
X82000000Y-55500000D02*
X82000000Y-54787500D01*
X79475000Y-54980000D02*
X81807500Y-54980000D01*
X71962500Y-25962500D02*
X69250000Y-25962500D01*
X81250000Y-58750000D02*
X79515000Y-58750000D01*
D28*
X31475000Y-52250000D02*
X38500000Y-52250000D01*
D27*
X94500000Y-23670000D02*
X97040000Y-23670000D01*
X79100000Y-23015000D02*
X79100000Y-24285000D01*
X40250000Y-58750000D02*
X40500000Y-58500000D01*
X52435000Y-24985000D02*
X52500000Y-24920000D01*
X57350000Y-21745000D02*
X57350000Y-24285000D01*
X34845000Y-63405000D02*
X36115000Y-62135000D01*
X81250000Y-57500000D02*
X79495000Y-57500000D01*
X32275000Y-63405000D02*
X30367500Y-63405000D01*
X39000000Y-52250000D02*
X38500000Y-52250000D01*
X54200000Y-24920000D02*
X54835000Y-24285000D01*
X39712500Y-62500000D02*
X39712500Y-62270000D01*
X37225000Y-62135000D02*
X36115000Y-62135000D01*
X86575000Y-26825000D02*
X84035000Y-24285000D01*
X35750000Y-61770000D02*
X35750000Y-59242316D01*
X90537500Y-23712500D02*
X91750000Y-23712500D01*
X94457500Y-23712500D02*
X94500000Y-23670000D01*
X52500000Y-24920000D02*
X54200000Y-24920000D01*
X74525000Y-56250000D02*
X74525000Y-57520000D01*
X72460000Y-26460000D02*
X71962500Y-25962500D01*
X81250000Y-56250000D02*
X82000000Y-55500000D01*
X84035000Y-24285000D02*
X79100000Y-24285000D01*
X39712500Y-62270000D02*
X39577500Y-62135000D01*
X32275000Y-63405000D02*
X34845000Y-63405000D01*
X72460000Y-21500000D02*
X72460000Y-26460000D01*
X66650000Y-26825000D02*
X68387500Y-26825000D01*
X72810000Y-60060000D02*
X72750000Y-60000000D01*
X74525000Y-56250000D02*
X72750000Y-56250000D01*
X36115000Y-62135000D02*
X35750000Y-61770000D01*
X68387500Y-26825000D02*
X69250000Y-25962500D01*
%TO.N,Net-(A1-GPIO7)*%
X39250000Y-65250000D02*
X39250000Y-66000000D01*
X39250000Y-66000000D02*
X40000000Y-66750000D01*
X40000000Y-66750000D02*
X71920000Y-66750000D01*
X71920000Y-66750000D02*
X74920000Y-63750000D01*
%TO.N,Net-(A1-GPIO8)*%
X46250000Y-57750000D02*
X47250000Y-58750000D01*
X48500000Y-62250000D02*
X70880000Y-62250000D01*
X47250000Y-58750000D02*
X47250000Y-61000000D01*
X47250000Y-61000000D02*
X48500000Y-62250000D01*
X70880000Y-62250000D02*
X72380000Y-63750000D01*
%TO.N,+3.3V*%
X60000000Y-26250000D02*
X61845000Y-28095000D01*
X59945000Y-25555000D02*
X60000000Y-25500000D01*
X77250000Y-21750000D02*
X77250000Y-22250000D01*
X91712500Y-25787500D02*
X91750000Y-25787500D01*
X58750000Y-20750000D02*
X60000000Y-22000000D01*
X88400000Y-28095000D02*
X89405000Y-28095000D01*
X77250000Y-25000000D02*
X77805000Y-25555000D01*
X89405000Y-28095000D02*
X91712500Y-25787500D01*
X60000000Y-22000000D02*
X60000000Y-25500000D01*
X57350000Y-25555000D02*
X59945000Y-25555000D01*
X69192500Y-28095000D02*
X69250000Y-28037500D01*
X27787500Y-60462500D02*
X29500000Y-60462500D01*
X77255000Y-21745000D02*
X77250000Y-21750000D01*
X79100000Y-21745000D02*
X77255000Y-21745000D01*
X58750000Y-20750000D02*
X76750000Y-20750000D01*
X61845000Y-28095000D02*
X66650000Y-28095000D01*
X88400000Y-28095000D02*
X86345000Y-28095000D01*
X43225000Y-24985000D02*
X43225000Y-21775000D01*
X76750000Y-20750000D02*
X77250000Y-21250000D01*
X32275000Y-59595000D02*
X30367500Y-59595000D01*
X66650000Y-28095000D02*
X69192500Y-28095000D01*
X44250000Y-20750000D02*
X58750000Y-20750000D01*
X77250000Y-21250000D02*
X77250000Y-22250000D01*
X86345000Y-28095000D02*
X83805000Y-25555000D01*
X77250000Y-22250000D02*
X77250000Y-25000000D01*
X30367500Y-59595000D02*
X29500000Y-60462500D01*
X60000000Y-25500000D02*
X60000000Y-26250000D01*
X83805000Y-25555000D02*
X79100000Y-25555000D01*
X43225000Y-21775000D02*
X44250000Y-20750000D01*
X77805000Y-25555000D02*
X79100000Y-25555000D01*
%TO.N,SPI_0_MOSI*%
X63235000Y-23015000D02*
X65000000Y-23015000D01*
X65000000Y-23015000D02*
X66650000Y-23015000D01*
X88400000Y-23015000D02*
X86515000Y-23015000D01*
%TO.N,CAN_TX*%
X45750000Y-47000000D02*
X46780000Y-45970000D01*
X38070000Y-64250000D02*
X42750000Y-64250000D01*
X45000000Y-62000000D02*
X45000000Y-57939339D01*
X45000000Y-57939339D02*
X45750000Y-57189339D01*
X45750000Y-57189339D02*
X45750000Y-47000000D01*
X46780000Y-45970000D02*
X49520000Y-45970000D01*
X42750000Y-64250000D02*
X45000000Y-62000000D01*
X37225000Y-63405000D02*
X38070000Y-64250000D01*
%TO.N,Net-(A1-GPIO10)*%
X63260000Y-65250000D02*
X64760000Y-63750000D01*
X46250000Y-59250000D02*
X46250000Y-64000000D01*
X46250000Y-64000000D02*
X47500000Y-65250000D01*
X47500000Y-65250000D02*
X63260000Y-65250000D01*
%TO.N,CAN_RX*%
X44750000Y-46250000D02*
X46500000Y-44500000D01*
X41905000Y-59595000D02*
X44750000Y-56750000D01*
X46500000Y-44500000D02*
X51250000Y-44500000D01*
X44750000Y-56750000D02*
X44750000Y-46250000D01*
X52060000Y-45310000D02*
X52060000Y-45970000D01*
X37225000Y-59595000D02*
X41905000Y-59595000D01*
X51250000Y-44500000D02*
X52060000Y-45310000D01*
%TO.N,Net-(A1-GPIO2)*%
X78250000Y-61750000D02*
X89500000Y-61750000D01*
X75960000Y-53710000D02*
X77250000Y-55000000D01*
X77250000Y-55000000D02*
X77250000Y-60750000D01*
X89500000Y-61750000D02*
X90160000Y-62410000D01*
X74525000Y-53710000D02*
X75960000Y-53710000D01*
X77250000Y-60750000D02*
X78250000Y-61750000D01*
X90160000Y-62410000D02*
X90160000Y-63750000D01*
%TO.N,SPI_0_MISO*%
X64505000Y-21745000D02*
X66650000Y-21745000D01*
X86499317Y-22215152D02*
X86534848Y-22215152D01*
X87005000Y-21745000D02*
X88400000Y-21745000D01*
X64000000Y-22250000D02*
X64505000Y-21745000D01*
X86534848Y-22215152D02*
X87005000Y-21745000D01*
%TO.N,SPI_0_SCK*%
X65000000Y-24285000D02*
X66650000Y-24285000D01*
X86535000Y-24285000D02*
X86500000Y-24250000D01*
X62215000Y-24285000D02*
X65000000Y-24285000D01*
X88400000Y-24285000D02*
X86535000Y-24285000D01*
%TO.N,+5V*%
X57750000Y-47500000D02*
X62690000Y-52440000D01*
X81727500Y-52440000D02*
X82000000Y-52712500D01*
X27750000Y-39750000D02*
X26525000Y-38525000D01*
X39000000Y-60865000D02*
X37225000Y-60865000D01*
X41787500Y-62500000D02*
X41787500Y-61537500D01*
X54000000Y-47500000D02*
X57750000Y-47500000D01*
X41115000Y-60865000D02*
X39000000Y-60865000D01*
X53301696Y-46760000D02*
X53301696Y-46801696D01*
X37500000Y-39000000D02*
X36750000Y-39750000D01*
X41787500Y-61537500D02*
X41115000Y-60865000D01*
X74525000Y-52440000D02*
X79475000Y-52440000D01*
X62690000Y-52440000D02*
X74525000Y-52440000D01*
X36750000Y-39750000D02*
X27750000Y-39750000D01*
X51500000Y-39000000D02*
X37500000Y-39000000D01*
X26525000Y-38525000D02*
X26525000Y-37615000D01*
X79475000Y-52440000D02*
X81727500Y-52440000D01*
X53301696Y-46801696D02*
X54000000Y-47500000D01*
D29*
%TO.N,INT_1_A*%
X83750000Y-31250000D02*
X80595000Y-28095000D01*
X83750000Y-34250000D02*
X83750000Y-31250000D01*
X80595000Y-28095000D02*
X79100000Y-28095000D01*
D30*
%TO.N,INT_0_A*%
X75726827Y-30000000D02*
X81250000Y-30000000D01*
X60500000Y-30000000D02*
X71250000Y-30000000D01*
D29*
X81250000Y-30000000D02*
X82750000Y-31500000D01*
D30*
X75476827Y-30250000D02*
X75726827Y-30000000D01*
D29*
X58595000Y-28095000D02*
X60500000Y-30000000D01*
D30*
X71250000Y-30000000D02*
X71500000Y-30250000D01*
D29*
X57350000Y-28095000D02*
X58595000Y-28095000D01*
X82750000Y-31500000D02*
X82750000Y-33500000D01*
D30*
X71500000Y-30250000D02*
X75476827Y-30250000D01*
D27*
%TO.N,Net-(J5-Pin_3)*%
X75365000Y-29365000D02*
X75000000Y-29000000D01*
X79100000Y-29365000D02*
X75365000Y-29365000D01*
%TO.N,Net-(J8-Pin_2)*%
X31475000Y-54750000D02*
X38500000Y-54750000D01*
X34500000Y-60865000D02*
X32275000Y-60865000D01*
%TO.N,Net-(J8-Pin_3)*%
X31475000Y-57250000D02*
X38500000Y-57250000D01*
X33750000Y-62135000D02*
X32275000Y-62135000D01*
%TO.N,Net-(J1-Pin_4)*%
X55345000Y-31905000D02*
X54710000Y-32540000D01*
X57350000Y-31905000D02*
X55345000Y-31905000D01*
X54710000Y-32540000D02*
X52500000Y-32540000D01*
%TO.N,Net-(J1-Pin_2)*%
X54460000Y-27460000D02*
X52500000Y-27460000D01*
X56365000Y-29365000D02*
X54460000Y-27460000D01*
X57350000Y-29365000D02*
X56365000Y-29365000D01*
%TO.N,Net-(J1-Pin_3)*%
X57350000Y-30635000D02*
X55135000Y-30635000D01*
X55135000Y-30635000D02*
X54500000Y-30000000D01*
X54500000Y-30000000D02*
X52500000Y-30000000D01*
%TO.N,Net-(J1-Pin_5)*%
X55825000Y-33175000D02*
X53920000Y-35080000D01*
X53920000Y-35080000D02*
X52500000Y-35080000D01*
X57350000Y-33175000D02*
X55825000Y-33175000D01*
%TO.N,Net-(J3-Pin_7)*%
X42500000Y-41250000D02*
X54500000Y-41250000D01*
X55750000Y-40000000D02*
X55750000Y-37750000D01*
X56515000Y-36985000D02*
X57350000Y-36985000D01*
X37750000Y-46000000D02*
X42500000Y-41250000D01*
X54500000Y-41250000D02*
X55750000Y-40000000D01*
X55750000Y-37750000D02*
X56515000Y-36985000D01*
X28370000Y-49630000D02*
X32000000Y-46000000D01*
X27065000Y-49630000D02*
X28370000Y-49630000D01*
X32000000Y-46000000D02*
X37750000Y-46000000D01*
%TO.N,Net-(J3-Pin_5)*%
X42000000Y-40500000D02*
X54000000Y-40500000D01*
X37200000Y-45300000D02*
X42000000Y-40500000D01*
X56325001Y-35715000D02*
X57350000Y-35715000D01*
X31710050Y-45300000D02*
X37200000Y-45300000D01*
X55000000Y-39500000D02*
X55000000Y-37040001D01*
X27065000Y-47090000D02*
X27155000Y-47000000D01*
X30010050Y-47000000D02*
X31710050Y-45300000D01*
X54000000Y-40500000D02*
X55000000Y-39500000D01*
X27155000Y-47000000D02*
X30010050Y-47000000D01*
X55000000Y-37040001D02*
X56325001Y-35715000D01*
%TO.N,Net-(J3-Pin_3)*%
X55805000Y-34445000D02*
X57350000Y-34445000D01*
X54250000Y-39000000D02*
X54250000Y-36000000D01*
X41500000Y-39750000D02*
X53500000Y-39750000D01*
X53500000Y-39750000D02*
X54250000Y-39000000D01*
X54250000Y-36000000D02*
X55805000Y-34445000D01*
X36700000Y-44550000D02*
X41500000Y-39750000D01*
X27065000Y-44550000D02*
X36700000Y-44550000D01*
%TO.N,Net-(J3-Pin_4)*%
X65245000Y-38255000D02*
X66650000Y-38255000D01*
X22250000Y-51750000D02*
X23250000Y-52750000D01*
X22250000Y-46825000D02*
X22250000Y-51750000D01*
X23250000Y-52750000D02*
X28250000Y-52750000D01*
X64750000Y-38750000D02*
X65245000Y-38255000D01*
X43750000Y-43500000D02*
X63750000Y-43500000D01*
X39000000Y-48250000D02*
X43750000Y-43500000D01*
X24525000Y-44550000D02*
X22250000Y-46825000D01*
X63750000Y-43500000D02*
X64750000Y-42500000D01*
X32750000Y-48250000D02*
X39000000Y-48250000D01*
X28250000Y-52750000D02*
X32750000Y-48250000D01*
X64750000Y-42500000D02*
X64750000Y-38750000D01*
%TO.N,Net-(J3-Pin_8)*%
X24525000Y-49630000D02*
X26145000Y-51250000D01*
X32250000Y-46750000D02*
X38125000Y-46750000D01*
X56500000Y-42000000D02*
X57350000Y-41150000D01*
X27750000Y-51250000D02*
X32250000Y-46750000D01*
X26145000Y-51250000D02*
X27750000Y-51250000D01*
X57350000Y-41150000D02*
X57350000Y-38255000D01*
X42875000Y-42000000D02*
X56500000Y-42000000D01*
X38125000Y-46750000D02*
X42875000Y-42000000D01*
%TO.N,Net-(J3-Pin_6)*%
X64000000Y-37750000D02*
X64765000Y-36985000D01*
X23750000Y-52000000D02*
X28000000Y-52000000D01*
X23000000Y-47750000D02*
X23000000Y-51250000D01*
X63250000Y-42750000D02*
X64000000Y-42000000D01*
X64000000Y-42000000D02*
X64000000Y-37750000D01*
X38500000Y-47500000D02*
X43250000Y-42750000D01*
X23660000Y-47090000D02*
X23000000Y-47750000D01*
X32500000Y-47500000D02*
X38500000Y-47500000D01*
X23000000Y-51250000D02*
X23750000Y-52000000D01*
X28000000Y-52000000D02*
X32500000Y-47500000D01*
X43250000Y-42750000D02*
X63250000Y-42750000D01*
X24525000Y-47090000D02*
X23660000Y-47090000D01*
X64765000Y-36985000D02*
X66650000Y-36985000D01*
%TO.N,Net-(J5-Pin_11)*%
X70750000Y-40750000D02*
X73410000Y-40750000D01*
X66650000Y-35715000D02*
X69215000Y-35715000D01*
X73410000Y-40750000D02*
X75000000Y-39160000D01*
X69750000Y-36250000D02*
X69750000Y-39750000D01*
X69215000Y-35715000D02*
X69750000Y-36250000D01*
X69750000Y-39750000D02*
X70750000Y-40750000D01*
%TO.N,Net-(J5-Pin_5)*%
X79100000Y-30635000D02*
X75905000Y-30635000D01*
X75905000Y-30635000D02*
X75000000Y-31540000D01*
%TO.N,Net-(J5-Pin_4)*%
X66650000Y-29365000D02*
X72095000Y-29365000D01*
X72095000Y-29365000D02*
X72460000Y-29000000D01*
%TO.N,Net-(J5-Pin_9)*%
X75000000Y-36250000D02*
X75000000Y-36620000D01*
X79100000Y-33175000D02*
X78075000Y-33175000D01*
X78075000Y-33175000D02*
X75000000Y-36250000D01*
%TO.N,Net-(J5-Pin_8)*%
X72330000Y-34080000D02*
X72460000Y-34080000D01*
X66650000Y-31905000D02*
X70155000Y-31905000D01*
X70155000Y-31905000D02*
X72330000Y-34080000D01*
%TO.N,Net-(J5-Pin_7)*%
X77845000Y-31905000D02*
X75670000Y-34080000D01*
X79100000Y-31905000D02*
X77845000Y-31905000D01*
X75670000Y-34080000D02*
X75000000Y-34080000D01*
%TO.N,Net-(J5-Pin_6)*%
X70635000Y-30635000D02*
X71540000Y-31540000D01*
X66650000Y-30635000D02*
X70635000Y-30635000D01*
X71540000Y-31540000D02*
X72460000Y-31540000D01*
%TO.N,Net-(J5-Pin_10)*%
X72460000Y-36210000D02*
X72460000Y-36620000D01*
X66650000Y-33175000D02*
X69425000Y-33175000D01*
X69425000Y-33175000D02*
X72460000Y-36210000D01*
%TO.N,Net-(J5-Pin_12)*%
X66650000Y-34445000D02*
X69445000Y-34445000D01*
X70750000Y-38500000D02*
X71410000Y-39160000D01*
X69445000Y-34445000D02*
X70750000Y-35750000D01*
X71410000Y-39160000D02*
X72460000Y-39160000D01*
X70750000Y-35750000D02*
X70750000Y-38500000D01*
D29*
%TO.N,Net-(J7-Pin_4)*%
X92250000Y-27000000D02*
X93000000Y-27000000D01*
X88400000Y-29365000D02*
X89885000Y-29365000D01*
X93000000Y-27000000D02*
X93790000Y-26210000D01*
X89885000Y-29365000D02*
X92250000Y-27000000D01*
X93790000Y-26210000D02*
X94500000Y-26210000D01*
%TO.N,Net-(J7-Pin_6)*%
X89595000Y-31905000D02*
X92750000Y-28750000D01*
X88400000Y-31905000D02*
X89595000Y-31905000D01*
X92750000Y-28750000D02*
X94500000Y-28750000D01*
%TO.N,Net-(J7-Pin_10)*%
X89640000Y-36985000D02*
X92795000Y-33830000D01*
X92795000Y-33830000D02*
X94500000Y-33830000D01*
X88400000Y-36985000D02*
X89640000Y-36985000D01*
%TO.N,Net-(J7-Pin_8)*%
X89555000Y-34445000D02*
X92710000Y-31290000D01*
X92710000Y-31290000D02*
X94500000Y-31290000D01*
X88400000Y-34445000D02*
X89555000Y-34445000D01*
%TO.N,Net-(J7-Pin_5)*%
X92750000Y-30000000D02*
X95790000Y-30000000D01*
X88400000Y-33175000D02*
X89575000Y-33175000D01*
X95790000Y-30000000D02*
X97040000Y-28750000D01*
X89575000Y-33175000D02*
X92750000Y-30000000D01*
%TO.N,Net-(J7-Pin_3)*%
X88400000Y-30635000D02*
X89615000Y-30635000D01*
X95750000Y-27500000D02*
X97040000Y-26210000D01*
X92750000Y-27500000D02*
X95750000Y-27500000D01*
X89615000Y-30635000D02*
X92750000Y-27500000D01*
%TO.N,Net-(J7-Pin_7)*%
X88400000Y-35715000D02*
X89535000Y-35715000D01*
X95830000Y-32500000D02*
X97040000Y-31290000D01*
X92750000Y-32500000D02*
X95830000Y-32500000D01*
X89535000Y-35715000D02*
X92750000Y-32500000D01*
%TO.N,Net-(J7-Pin_9)*%
X88400000Y-38255000D02*
X89620000Y-38255000D01*
X89620000Y-38255000D02*
X92705000Y-35170000D01*
X95830000Y-35170000D02*
X97040000Y-33960000D01*
X92705000Y-35170000D02*
X95830000Y-35170000D01*
X97040000Y-33960000D02*
X97040000Y-33830000D01*
%TO.N,Net-(J7-Pin_14)*%
X79100000Y-36985000D02*
X81235000Y-36985000D01*
X91000000Y-40250000D02*
X92340000Y-38910000D01*
X92340000Y-38910000D02*
X94500000Y-38910000D01*
X82000000Y-37750000D02*
X82000000Y-38750000D01*
X83500000Y-40250000D02*
X91000000Y-40250000D01*
X82000000Y-38750000D02*
X83500000Y-40250000D01*
X81235000Y-36985000D02*
X82000000Y-37750000D01*
%TO.N,Net-(J7-Pin_13)*%
X83250000Y-40750000D02*
X95200000Y-40750000D01*
X79100000Y-38255000D02*
X80755000Y-38255000D01*
X80755000Y-38255000D02*
X83250000Y-40750000D01*
X95200000Y-40750000D02*
X97040000Y-38910000D01*
%TO.N,Net-(J7-Pin_11)*%
X83750000Y-39750000D02*
X90750000Y-39750000D01*
X82500000Y-38500000D02*
X83750000Y-39750000D01*
X79100000Y-35715000D02*
X81715000Y-35715000D01*
X95790000Y-37710000D02*
X97040000Y-36460000D01*
X92790000Y-37710000D02*
X95790000Y-37710000D01*
X82500000Y-36500000D02*
X82500000Y-38500000D01*
X97040000Y-36460000D02*
X97040000Y-36370000D01*
X90750000Y-39750000D02*
X92790000Y-37710000D01*
X81715000Y-35715000D02*
X82500000Y-36500000D01*
%TO.N,Net-(J7-Pin_12)*%
X81945000Y-34445000D02*
X83000000Y-35500000D01*
X90000000Y-39250000D02*
X92750000Y-36500000D01*
X79100000Y-34445000D02*
X81945000Y-34445000D01*
X93000000Y-36500000D02*
X93130000Y-36370000D01*
X83000000Y-35500000D02*
X83000000Y-38250000D01*
X93130000Y-36370000D02*
X94500000Y-36370000D01*
X84000000Y-39250000D02*
X90000000Y-39250000D01*
X83000000Y-38250000D02*
X84000000Y-39250000D01*
X92750000Y-36500000D02*
X93000000Y-36500000D01*
%TD*%
%TA.AperFunction,Conductor*%
%TO.N,+3.3V*%
G36*
X99442539Y-20520185D02*
G01*
X99488294Y-20572989D01*
X99499500Y-20624500D01*
X99499500Y-40120500D01*
X99479815Y-40187539D01*
X99427011Y-40233294D01*
X99375500Y-40244500D01*
X97882459Y-40244500D01*
X97815420Y-40224815D01*
X97769665Y-40172011D01*
X97759721Y-40102853D01*
X97788746Y-40039297D01*
X97809571Y-40020183D01*
X97919792Y-39940104D01*
X98070104Y-39789792D01*
X98070106Y-39789788D01*
X98070109Y-39789786D01*
X98195048Y-39617820D01*
X98195047Y-39617820D01*
X98195051Y-39617816D01*
X98291557Y-39428412D01*
X98357246Y-39226243D01*
X98390500Y-39016287D01*
X98390500Y-38803713D01*
X98357246Y-38593757D01*
X98291557Y-38391588D01*
X98195051Y-38202184D01*
X98195049Y-38202181D01*
X98195048Y-38202179D01*
X98070109Y-38030213D01*
X97919786Y-37879890D01*
X97747820Y-37754951D01*
X97747115Y-37754591D01*
X97739054Y-37750485D01*
X97688259Y-37702512D01*
X97671463Y-37634692D01*
X97693999Y-37568556D01*
X97739054Y-37529515D01*
X97747816Y-37525051D01*
X97782591Y-37499786D01*
X97919786Y-37400109D01*
X97919788Y-37400106D01*
X97919792Y-37400104D01*
X98070104Y-37249792D01*
X98070106Y-37249788D01*
X98070109Y-37249786D01*
X98195048Y-37077820D01*
X98195047Y-37077820D01*
X98195051Y-37077816D01*
X98291557Y-36888412D01*
X98357246Y-36686243D01*
X98390500Y-36476287D01*
X98390500Y-36263713D01*
X98357246Y-36053757D01*
X98291557Y-35851588D01*
X98195051Y-35662184D01*
X98195049Y-35662181D01*
X98195048Y-35662179D01*
X98070109Y-35490213D01*
X97919786Y-35339890D01*
X97747820Y-35214951D01*
X97747115Y-35214591D01*
X97739054Y-35210485D01*
X97688259Y-35162512D01*
X97671463Y-35094692D01*
X97693999Y-35028556D01*
X97739054Y-34989515D01*
X97747816Y-34985051D01*
X97783136Y-34959390D01*
X97919786Y-34860109D01*
X97919788Y-34860106D01*
X97919792Y-34860104D01*
X98070104Y-34709792D01*
X98070106Y-34709788D01*
X98070109Y-34709786D01*
X98195048Y-34537820D01*
X98195047Y-34537820D01*
X98195051Y-34537816D01*
X98291557Y-34348412D01*
X98357246Y-34146243D01*
X98390500Y-33936287D01*
X98390500Y-33723713D01*
X98357246Y-33513757D01*
X98291557Y-33311588D01*
X98195051Y-33122184D01*
X98195049Y-33122181D01*
X98195048Y-33122179D01*
X98070109Y-32950213D01*
X97919786Y-32799890D01*
X97747820Y-32674951D01*
X97747115Y-32674591D01*
X97739054Y-32670485D01*
X97688259Y-32622512D01*
X97671463Y-32554692D01*
X97693999Y-32488556D01*
X97739054Y-32449515D01*
X97747816Y-32445051D01*
X97802876Y-32405048D01*
X97919786Y-32320109D01*
X97919788Y-32320106D01*
X97919792Y-32320104D01*
X98070104Y-32169792D01*
X98070106Y-32169788D01*
X98070109Y-32169786D01*
X98195048Y-31997820D01*
X98195047Y-31997820D01*
X98195051Y-31997816D01*
X98291557Y-31808412D01*
X98357246Y-31606243D01*
X98390500Y-31396287D01*
X98390500Y-31183713D01*
X98357246Y-30973757D01*
X98291557Y-30771588D01*
X98195051Y-30582184D01*
X98195049Y-30582181D01*
X98195048Y-30582179D01*
X98070109Y-30410213D01*
X97919786Y-30259890D01*
X97747820Y-30134951D01*
X97747115Y-30134591D01*
X97739054Y-30130485D01*
X97688259Y-30082512D01*
X97671463Y-30014692D01*
X97693999Y-29948556D01*
X97739054Y-29909515D01*
X97747816Y-29905051D01*
X97783016Y-29879477D01*
X97919786Y-29780109D01*
X97919788Y-29780106D01*
X97919792Y-29780104D01*
X98070104Y-29629792D01*
X98070106Y-29629788D01*
X98070109Y-29629786D01*
X98195048Y-29457820D01*
X98195047Y-29457820D01*
X98195051Y-29457816D01*
X98291557Y-29268412D01*
X98357246Y-29066243D01*
X98390500Y-28856287D01*
X98390500Y-28643713D01*
X98357246Y-28433757D01*
X98291557Y-28231588D01*
X98195051Y-28042184D01*
X98195049Y-28042181D01*
X98195048Y-28042179D01*
X98070109Y-27870213D01*
X97919786Y-27719890D01*
X97747820Y-27594951D01*
X97747115Y-27594591D01*
X97739054Y-27590485D01*
X97688259Y-27542512D01*
X97671463Y-27474692D01*
X97693999Y-27408556D01*
X97739054Y-27369515D01*
X97747816Y-27365051D01*
X97782591Y-27339786D01*
X97919786Y-27240109D01*
X97919788Y-27240106D01*
X97919792Y-27240104D01*
X98070104Y-27089792D01*
X98070106Y-27089788D01*
X98070109Y-27089786D01*
X98195048Y-26917820D01*
X98195047Y-26917820D01*
X98195051Y-26917816D01*
X98291557Y-26728412D01*
X98357246Y-26526243D01*
X98390500Y-26316287D01*
X98390500Y-26103713D01*
X98357246Y-25893757D01*
X98291557Y-25691588D01*
X98195051Y-25502184D01*
X98195049Y-25502181D01*
X98195048Y-25502179D01*
X98070109Y-25330213D01*
X97956569Y-25216673D01*
X97923084Y-25155350D01*
X97928068Y-25085658D01*
X97969940Y-25029725D01*
X98000915Y-25012810D01*
X98132331Y-24963796D01*
X98247546Y-24877546D01*
X98333796Y-24762331D01*
X98384091Y-24627483D01*
X98390500Y-24567873D01*
X98390499Y-22772128D01*
X98384091Y-22712517D01*
X98382810Y-22709083D01*
X98333797Y-22577671D01*
X98333793Y-22577664D01*
X98247547Y-22462455D01*
X98247544Y-22462452D01*
X98132335Y-22376206D01*
X98132328Y-22376202D01*
X97997482Y-22325908D01*
X97997483Y-22325908D01*
X97937883Y-22319501D01*
X97937881Y-22319500D01*
X97937873Y-22319500D01*
X97937864Y-22319500D01*
X96142129Y-22319500D01*
X96142123Y-22319501D01*
X96082516Y-22325908D01*
X95947671Y-22376202D01*
X95947664Y-22376206D01*
X95832455Y-22462452D01*
X95832452Y-22462455D01*
X95746206Y-22577664D01*
X95746203Y-22577669D01*
X95697189Y-22709083D01*
X95655317Y-22765016D01*
X95589853Y-22789433D01*
X95521580Y-22774581D01*
X95493326Y-22753430D01*
X95379786Y-22639890D01*
X95207820Y-22514951D01*
X95018414Y-22418444D01*
X95018413Y-22418443D01*
X95018412Y-22418443D01*
X94816243Y-22352754D01*
X94816241Y-22352753D01*
X94816240Y-22352753D01*
X94654957Y-22327208D01*
X94606287Y-22319500D01*
X94393713Y-22319500D01*
X94345042Y-22327208D01*
X94183760Y-22352753D01*
X93981585Y-22418444D01*
X93792179Y-22514951D01*
X93620213Y-22639890D01*
X93469892Y-22790211D01*
X93398253Y-22888816D01*
X93382450Y-22910569D01*
X93382221Y-22910884D01*
X93326891Y-22953551D01*
X93281902Y-22962000D01*
X92921248Y-22962000D01*
X92854209Y-22942315D01*
X92823468Y-22911002D01*
X92822193Y-22912011D01*
X92817711Y-22906343D01*
X92693657Y-22782289D01*
X92693656Y-22782288D01*
X92544334Y-22690186D01*
X92377797Y-22635001D01*
X92377795Y-22635000D01*
X92275010Y-22624500D01*
X91224998Y-22624500D01*
X91224980Y-22624501D01*
X91122203Y-22635000D01*
X91122200Y-22635001D01*
X90955668Y-22690185D01*
X90955663Y-22690187D01*
X90806342Y-22782289D01*
X90682288Y-22906343D01*
X90677807Y-22912011D01*
X90675984Y-22910569D01*
X90632335Y-22949825D01*
X90578752Y-22962000D01*
X90463580Y-22962000D01*
X90318592Y-22990840D01*
X90318582Y-22990843D01*
X90182011Y-23047412D01*
X90182000Y-23047418D01*
X90118390Y-23089921D01*
X90051712Y-23110798D01*
X89984332Y-23092313D01*
X89937643Y-23040334D01*
X89925500Y-22986818D01*
X89925500Y-22799313D01*
X89925499Y-22799298D01*
X89924160Y-22782288D01*
X89922598Y-22762431D01*
X89901608Y-22690185D01*
X89885576Y-22635001D01*
X89876744Y-22604602D01*
X89793081Y-22463135D01*
X89793078Y-22463132D01*
X89788298Y-22456969D01*
X89790750Y-22455066D01*
X89764155Y-22406421D01*
X89769104Y-22336726D01*
X89789940Y-22304304D01*
X89788298Y-22303031D01*
X89793075Y-22296870D01*
X89793081Y-22296865D01*
X89876744Y-22155398D01*
X89922598Y-21997569D01*
X89925500Y-21960694D01*
X89925500Y-21529306D01*
X89922598Y-21492431D01*
X89908514Y-21443955D01*
X89876745Y-21334606D01*
X89876744Y-21334603D01*
X89876744Y-21334602D01*
X89793081Y-21193135D01*
X89793079Y-21193133D01*
X89793076Y-21193129D01*
X89676870Y-21076923D01*
X89676862Y-21076917D01*
X89598681Y-21030681D01*
X89535398Y-20993256D01*
X89535397Y-20993255D01*
X89535396Y-20993255D01*
X89535393Y-20993254D01*
X89377573Y-20947402D01*
X89377567Y-20947401D01*
X89340701Y-20944500D01*
X89340694Y-20944500D01*
X87459306Y-20944500D01*
X87459298Y-20944500D01*
X87422432Y-20947401D01*
X87422426Y-20947402D01*
X87277267Y-20989576D01*
X87242672Y-20994500D01*
X86931080Y-20994500D01*
X86786092Y-21023340D01*
X86786082Y-21023343D01*
X86649511Y-21079912D01*
X86649498Y-21079919D01*
X86526584Y-21162048D01*
X86526580Y-21162051D01*
X86244676Y-21443955D01*
X86204448Y-21470835D01*
X86120141Y-21505756D01*
X86120131Y-21505761D01*
X85989028Y-21593362D01*
X85989024Y-21593365D01*
X85877530Y-21704859D01*
X85877527Y-21704863D01*
X85789926Y-21835966D01*
X85789919Y-21835979D01*
X85729581Y-21981650D01*
X85729578Y-21981662D01*
X85698817Y-22136305D01*
X85698817Y-22293998D01*
X85729578Y-22448641D01*
X85729581Y-22448653D01*
X85786701Y-22586555D01*
X85794170Y-22656025D01*
X85786702Y-22681458D01*
X85745263Y-22781503D01*
X85745261Y-22781510D01*
X85714500Y-22936153D01*
X85714500Y-23093846D01*
X85745261Y-23248489D01*
X85745264Y-23248501D01*
X85805602Y-23394172D01*
X85805609Y-23394185D01*
X85893210Y-23525288D01*
X85893213Y-23525292D01*
X85940240Y-23572319D01*
X85973725Y-23633642D01*
X85968741Y-23703334D01*
X85940240Y-23747681D01*
X85913213Y-23774707D01*
X85913210Y-23774711D01*
X85825609Y-23905814D01*
X85825602Y-23905827D01*
X85765264Y-24051498D01*
X85765261Y-24051510D01*
X85734500Y-24206153D01*
X85734500Y-24363846D01*
X85765261Y-24518489D01*
X85765264Y-24518501D01*
X85825602Y-24664172D01*
X85825611Y-24664188D01*
X85831049Y-24672327D01*
X85851926Y-24739005D01*
X85833440Y-24806385D01*
X85781461Y-24853074D01*
X85712491Y-24864249D01*
X85648427Y-24836362D01*
X85640265Y-24828897D01*
X84513421Y-23702052D01*
X84513414Y-23702046D01*
X84439729Y-23652812D01*
X84439729Y-23652813D01*
X84390491Y-23619913D01*
X84253917Y-23563343D01*
X84253907Y-23563340D01*
X84108920Y-23534500D01*
X84108918Y-23534500D01*
X80710200Y-23534500D01*
X80643161Y-23514815D01*
X80597406Y-23462011D01*
X80587462Y-23392853D01*
X80591124Y-23375905D01*
X80622597Y-23267573D01*
X80622598Y-23267567D01*
X80623587Y-23255000D01*
X80625500Y-23230694D01*
X80625500Y-22799306D01*
X80622598Y-22762431D01*
X80601608Y-22690185D01*
X80585576Y-22635001D01*
X80576744Y-22604602D01*
X80493081Y-22463135D01*
X80493078Y-22463132D01*
X80488298Y-22456969D01*
X80490635Y-22455155D01*
X80463798Y-22406050D01*
X80468756Y-22336356D01*
X80489554Y-22303998D01*
X80487903Y-22302717D01*
X80492686Y-22296550D01*
X80576281Y-22155198D01*
X80622100Y-21997486D01*
X80622295Y-21995001D01*
X80622295Y-21995000D01*
X77577705Y-21995000D01*
X77577704Y-21995001D01*
X77577899Y-21997486D01*
X77623718Y-22155198D01*
X77707314Y-22296552D01*
X77712100Y-22302722D01*
X77709640Y-22304629D01*
X77736210Y-22353288D01*
X77731226Y-22422980D01*
X77710162Y-22455781D01*
X77711699Y-22456974D01*
X77706915Y-22463140D01*
X77623255Y-22604603D01*
X77623254Y-22604606D01*
X77577402Y-22762426D01*
X77577401Y-22762432D01*
X77574500Y-22799298D01*
X77574500Y-23230701D01*
X77577401Y-23267567D01*
X77577402Y-23267573D01*
X77623254Y-23425393D01*
X77623255Y-23425396D01*
X77706917Y-23566862D01*
X77711702Y-23573031D01*
X77709256Y-23574927D01*
X77735857Y-23623642D01*
X77730873Y-23693334D01*
X77710069Y-23725703D01*
X77711702Y-23726969D01*
X77706917Y-23733137D01*
X77623255Y-23874603D01*
X77623254Y-23874606D01*
X77577402Y-24032426D01*
X77577401Y-24032432D01*
X77574500Y-24069298D01*
X77574500Y-24500701D01*
X77577401Y-24537567D01*
X77577402Y-24537573D01*
X77623254Y-24695393D01*
X77623255Y-24695396D01*
X77623256Y-24695398D01*
X77646627Y-24734917D01*
X77706917Y-24836862D01*
X77711702Y-24843031D01*
X77709369Y-24844840D01*
X77736210Y-24893995D01*
X77731226Y-24963687D01*
X77710470Y-24996021D01*
X77712097Y-24997283D01*
X77707313Y-25003449D01*
X77623718Y-25144801D01*
X77577899Y-25302513D01*
X77577704Y-25304998D01*
X77577705Y-25305000D01*
X80622295Y-25305000D01*
X80622295Y-25304998D01*
X80622100Y-25302511D01*
X80622099Y-25302505D01*
X80590603Y-25194095D01*
X80590802Y-25124225D01*
X80628744Y-25065555D01*
X80692383Y-25036712D01*
X80709679Y-25035500D01*
X83672770Y-25035500D01*
X83739809Y-25055185D01*
X83760451Y-25071819D01*
X84880841Y-26192208D01*
X85992048Y-27303415D01*
X85992049Y-27303416D01*
X86046497Y-27357864D01*
X86096585Y-27407952D01*
X86219498Y-27490080D01*
X86219511Y-27490087D01*
X86348340Y-27543449D01*
X86356087Y-27546658D01*
X86356091Y-27546658D01*
X86356092Y-27546659D01*
X86501079Y-27575500D01*
X86501082Y-27575500D01*
X86790321Y-27575500D01*
X86857360Y-27595185D01*
X86903115Y-27647989D01*
X86913059Y-27717147D01*
X86909397Y-27734095D01*
X86877900Y-27842505D01*
X86877899Y-27842511D01*
X86877704Y-27844998D01*
X86877705Y-27845000D01*
X89922295Y-27845000D01*
X89922295Y-27844998D01*
X89922100Y-27842513D01*
X89876281Y-27684801D01*
X89826355Y-27600380D01*
X89809172Y-27532656D01*
X89831332Y-27466393D01*
X89864199Y-27434155D01*
X89864439Y-27433995D01*
X89903416Y-27407952D01*
X90612672Y-26698694D01*
X90673995Y-26665210D01*
X90743686Y-26670194D01*
X90788034Y-26698695D01*
X90806654Y-26717315D01*
X90955875Y-26809356D01*
X90955880Y-26809358D01*
X91122302Y-26864505D01*
X91122310Y-26864506D01*
X91174133Y-26869801D01*
X91238825Y-26896197D01*
X91278976Y-26953378D01*
X91281840Y-27023189D01*
X91249212Y-27080840D01*
X90021372Y-28308681D01*
X89960049Y-28342166D01*
X89933691Y-28345000D01*
X86877705Y-28345000D01*
X86877704Y-28345001D01*
X86877899Y-28347486D01*
X86923718Y-28505198D01*
X87007314Y-28646552D01*
X87012100Y-28652722D01*
X87009640Y-28654629D01*
X87036210Y-28703288D01*
X87031226Y-28772980D01*
X87010162Y-28805781D01*
X87011699Y-28806974D01*
X87006915Y-28813140D01*
X86923255Y-28954603D01*
X86923254Y-28954606D01*
X86877402Y-29112426D01*
X86877401Y-29112432D01*
X86874500Y-29149298D01*
X86874500Y-29580701D01*
X86877401Y-29617567D01*
X86877402Y-29617573D01*
X86923254Y-29775393D01*
X86923255Y-29775396D01*
X87006917Y-29916862D01*
X87011702Y-29923031D01*
X87009256Y-29924927D01*
X87035857Y-29973642D01*
X87030873Y-30043334D01*
X87010069Y-30075703D01*
X87011702Y-30076969D01*
X87006917Y-30083137D01*
X86923255Y-30224603D01*
X86923254Y-30224606D01*
X86877402Y-30382426D01*
X86877401Y-30382432D01*
X86874500Y-30419298D01*
X86874500Y-30850701D01*
X86877401Y-30887567D01*
X86877402Y-30887573D01*
X86923254Y-31045393D01*
X86923255Y-31045396D01*
X86923256Y-31045398D01*
X86932043Y-31060256D01*
X87006917Y-31186862D01*
X87011702Y-31193031D01*
X87009256Y-31194927D01*
X87035857Y-31243642D01*
X87030873Y-31313334D01*
X87010069Y-31345703D01*
X87011702Y-31346969D01*
X87006917Y-31353137D01*
X86923255Y-31494603D01*
X86923254Y-31494606D01*
X86877402Y-31652426D01*
X86877401Y-31652432D01*
X86874500Y-31689298D01*
X86874500Y-32120701D01*
X86877401Y-32157567D01*
X86877402Y-32157573D01*
X86923254Y-32315393D01*
X86923255Y-32315396D01*
X87006917Y-32456862D01*
X87011702Y-32463031D01*
X87009256Y-32464927D01*
X87035857Y-32513642D01*
X87030873Y-32583334D01*
X87010069Y-32615703D01*
X87011702Y-32616969D01*
X87006917Y-32623137D01*
X86923255Y-32764603D01*
X86923254Y-32764606D01*
X86877402Y-32922426D01*
X86877401Y-32922432D01*
X86874500Y-32959298D01*
X86874500Y-33390701D01*
X86877401Y-33427567D01*
X86877402Y-33427573D01*
X86923254Y-33585393D01*
X86923255Y-33585396D01*
X87006917Y-33726862D01*
X87011702Y-33733031D01*
X87009256Y-33734927D01*
X87035857Y-33783642D01*
X87030873Y-33853334D01*
X87010069Y-33885703D01*
X87011702Y-33886969D01*
X87006917Y-33893137D01*
X86923255Y-34034603D01*
X86923254Y-34034606D01*
X86877402Y-34192426D01*
X86877401Y-34192432D01*
X86874500Y-34229298D01*
X86874500Y-34660701D01*
X86877401Y-34697567D01*
X86877402Y-34697573D01*
X86923254Y-34855393D01*
X86923255Y-34855396D01*
X86923256Y-34855398D01*
X86942463Y-34887876D01*
X87006917Y-34996862D01*
X87011702Y-35003031D01*
X87009256Y-35004927D01*
X87035857Y-35053642D01*
X87030873Y-35123334D01*
X87010069Y-35155703D01*
X87011702Y-35156969D01*
X87006917Y-35163137D01*
X86923255Y-35304603D01*
X86923254Y-35304606D01*
X86877402Y-35462426D01*
X86877401Y-35462432D01*
X86874500Y-35499298D01*
X86874500Y-35930701D01*
X86877401Y-35967567D01*
X86877402Y-35967573D01*
X86923254Y-36125393D01*
X86923255Y-36125396D01*
X86923256Y-36125398D01*
X86944454Y-36161242D01*
X87006917Y-36266862D01*
X87011702Y-36273031D01*
X87009256Y-36274927D01*
X87035857Y-36323642D01*
X87030873Y-36393334D01*
X87010069Y-36425703D01*
X87011702Y-36426969D01*
X87006917Y-36433137D01*
X86923255Y-36574603D01*
X86923254Y-36574606D01*
X86877402Y-36732426D01*
X86877401Y-36732432D01*
X86874500Y-36769298D01*
X86874500Y-37200701D01*
X86877401Y-37237567D01*
X86877402Y-37237573D01*
X86923254Y-37395393D01*
X86923255Y-37395396D01*
X87006917Y-37536862D01*
X87011702Y-37543031D01*
X87009256Y-37544927D01*
X87035857Y-37593642D01*
X87030873Y-37663334D01*
X87010069Y-37695703D01*
X87011702Y-37696969D01*
X87006917Y-37703137D01*
X86923255Y-37844603D01*
X86923254Y-37844606D01*
X86877402Y-38002426D01*
X86877401Y-38002432D01*
X86874500Y-38039298D01*
X86874500Y-38473129D01*
X86873872Y-38473129D01*
X86857456Y-38538399D01*
X86806486Y-38586189D01*
X86750593Y-38599500D01*
X84320808Y-38599500D01*
X84253769Y-38579815D01*
X84233127Y-38563181D01*
X83686819Y-38016873D01*
X83653334Y-37955550D01*
X83650500Y-37929192D01*
X83650500Y-35435928D01*
X83625502Y-35310261D01*
X83625501Y-35310260D01*
X83625501Y-35310256D01*
X83623161Y-35304606D01*
X83588925Y-35221952D01*
X83581456Y-35152483D01*
X83612731Y-35090004D01*
X83672821Y-35054352D01*
X83703486Y-35050500D01*
X83828844Y-35050500D01*
X83828845Y-35050499D01*
X83983497Y-35019737D01*
X84129179Y-34959394D01*
X84260289Y-34871789D01*
X84371789Y-34760289D01*
X84459394Y-34629179D01*
X84460469Y-34626585D01*
X84473067Y-34596166D01*
X84519737Y-34483497D01*
X84550500Y-34328842D01*
X84550500Y-34171158D01*
X84550500Y-34171155D01*
X84550499Y-34171153D01*
X84539309Y-34114896D01*
X84519737Y-34016503D01*
X84508738Y-33989949D01*
X84459397Y-33870828D01*
X84459396Y-33870827D01*
X84459394Y-33870821D01*
X84421396Y-33813953D01*
X84400520Y-33747276D01*
X84400500Y-33745064D01*
X84400500Y-31185928D01*
X84375502Y-31060261D01*
X84375501Y-31060260D01*
X84375501Y-31060256D01*
X84326465Y-30941873D01*
X84314212Y-30923535D01*
X84314211Y-30923532D01*
X84255278Y-30835332D01*
X84255272Y-30835325D01*
X81009673Y-27589726D01*
X80974594Y-27566287D01*
X80903127Y-27518535D01*
X80903122Y-27518533D01*
X80784744Y-27469499D01*
X80784738Y-27469497D01*
X80659065Y-27444498D01*
X80658022Y-27444396D01*
X80657510Y-27444189D01*
X80653094Y-27443311D01*
X80653260Y-27442473D01*
X80593236Y-27418232D01*
X80552880Y-27361195D01*
X80549768Y-27291395D01*
X80563450Y-27257876D01*
X80576744Y-27235398D01*
X80622598Y-27077569D01*
X80625500Y-27040694D01*
X80625500Y-26609306D01*
X80622598Y-26572431D01*
X80592940Y-26470350D01*
X80576745Y-26414606D01*
X80576744Y-26414603D01*
X80576744Y-26414602D01*
X80493081Y-26273135D01*
X80493078Y-26273132D01*
X80488298Y-26266969D01*
X80490635Y-26265155D01*
X80463798Y-26216050D01*
X80468756Y-26146356D01*
X80489554Y-26113998D01*
X80487903Y-26112717D01*
X80492686Y-26106550D01*
X80576281Y-25965198D01*
X80622100Y-25807486D01*
X80622295Y-25805001D01*
X80622295Y-25805000D01*
X77577705Y-25805000D01*
X77577704Y-25805001D01*
X77577899Y-25807486D01*
X77623718Y-25965198D01*
X77707314Y-26106552D01*
X77712100Y-26112722D01*
X77709640Y-26114629D01*
X77736210Y-26163288D01*
X77731226Y-26232980D01*
X77710162Y-26265781D01*
X77711699Y-26266974D01*
X77706915Y-26273140D01*
X77623255Y-26414603D01*
X77623254Y-26414606D01*
X77577402Y-26572426D01*
X77577401Y-26572432D01*
X77574500Y-26609298D01*
X77574500Y-27040701D01*
X77577401Y-27077567D01*
X77577402Y-27077573D01*
X77623254Y-27235393D01*
X77623255Y-27235396D01*
X77706917Y-27376862D01*
X77711702Y-27383031D01*
X77709256Y-27384927D01*
X77735857Y-27433642D01*
X77730873Y-27503334D01*
X77710069Y-27535703D01*
X77711702Y-27536969D01*
X77706917Y-27543137D01*
X77623255Y-27684603D01*
X77623254Y-27684606D01*
X77577402Y-27842426D01*
X77577401Y-27842432D01*
X77574500Y-27879298D01*
X77574500Y-28310701D01*
X77577401Y-28347567D01*
X77577402Y-28347573D01*
X77608876Y-28455905D01*
X77608677Y-28525775D01*
X77570735Y-28584445D01*
X77507096Y-28613288D01*
X77489800Y-28614500D01*
X76384834Y-28614500D01*
X76317795Y-28594815D01*
X76272040Y-28542011D01*
X76266903Y-28528819D01*
X76254325Y-28490109D01*
X76251557Y-28481588D01*
X76251555Y-28481585D01*
X76251555Y-28481583D01*
X76183229Y-28347486D01*
X76155051Y-28292184D01*
X76155049Y-28292181D01*
X76155048Y-28292179D01*
X76030109Y-28120213D01*
X75916569Y-28006673D01*
X75883084Y-27945350D01*
X75888068Y-27875658D01*
X75929940Y-27819725D01*
X75960915Y-27802810D01*
X76092331Y-27753796D01*
X76207546Y-27667546D01*
X76293796Y-27552331D01*
X76344091Y-27417483D01*
X76350500Y-27357873D01*
X76350499Y-25562128D01*
X76344091Y-25502517D01*
X76342810Y-25499083D01*
X76293797Y-25367671D01*
X76293793Y-25367664D01*
X76207547Y-25252455D01*
X76207544Y-25252452D01*
X76092335Y-25166206D01*
X76092328Y-25166202D01*
X75957482Y-25115908D01*
X75957483Y-25115908D01*
X75897883Y-25109501D01*
X75897881Y-25109500D01*
X75897873Y-25109500D01*
X75897864Y-25109500D01*
X74102129Y-25109500D01*
X74102123Y-25109501D01*
X74042516Y-25115908D01*
X73907671Y-25166202D01*
X73907664Y-25166206D01*
X73792455Y-25252452D01*
X73792452Y-25252455D01*
X73706206Y-25367664D01*
X73706203Y-25367669D01*
X73657189Y-25499083D01*
X73615317Y-25555016D01*
X73549853Y-25579433D01*
X73481580Y-25564581D01*
X73453326Y-25543430D01*
X73339794Y-25429898D01*
X73339788Y-25429893D01*
X73261615Y-25373097D01*
X73218949Y-25317767D01*
X73210500Y-25272779D01*
X73210500Y-21804604D01*
X73219939Y-21757151D01*
X73229737Y-21733497D01*
X73260500Y-21578842D01*
X73260500Y-21494998D01*
X77577704Y-21494998D01*
X77577705Y-21495000D01*
X78850000Y-21495000D01*
X79350000Y-21495000D01*
X80622295Y-21495000D01*
X80622295Y-21494998D01*
X80622100Y-21492513D01*
X80576281Y-21334801D01*
X80492685Y-21193447D01*
X80492678Y-21193438D01*
X80376561Y-21077321D01*
X80376552Y-21077314D01*
X80235196Y-20993717D01*
X80235193Y-20993716D01*
X80077495Y-20947900D01*
X80077489Y-20947899D01*
X80040649Y-20945000D01*
X79350000Y-20945000D01*
X79350000Y-21495000D01*
X78850000Y-21495000D01*
X78850000Y-20945000D01*
X78159350Y-20945000D01*
X78122510Y-20947899D01*
X78122504Y-20947900D01*
X77964806Y-20993716D01*
X77964803Y-20993717D01*
X77823447Y-21077314D01*
X77823438Y-21077321D01*
X77707321Y-21193438D01*
X77707314Y-21193447D01*
X77623718Y-21334801D01*
X77577899Y-21492513D01*
X77577704Y-21494998D01*
X73260500Y-21494998D01*
X73260500Y-21421158D01*
X73260500Y-21421155D01*
X73260499Y-21421153D01*
X73243322Y-21334801D01*
X73229737Y-21266503D01*
X73229735Y-21266498D01*
X73169397Y-21120827D01*
X73169390Y-21120814D01*
X73081789Y-20989711D01*
X73081786Y-20989707D01*
X72970292Y-20878213D01*
X72970288Y-20878210D01*
X72839185Y-20790609D01*
X72839172Y-20790602D01*
X72714738Y-20739061D01*
X72660334Y-20695221D01*
X72638269Y-20628926D01*
X72655548Y-20561227D01*
X72706685Y-20513616D01*
X72762190Y-20500500D01*
X99375500Y-20500500D01*
X99442539Y-20520185D01*
G37*
%TD.AperFunction*%
%TA.AperFunction,Conductor*%
G36*
X72224849Y-20520185D02*
G01*
X72270604Y-20572989D01*
X72280548Y-20642147D01*
X72251523Y-20705703D01*
X72205262Y-20739061D01*
X72080827Y-20790602D01*
X72080814Y-20790609D01*
X71949711Y-20878210D01*
X71949707Y-20878213D01*
X71838213Y-20989707D01*
X71838210Y-20989711D01*
X71750609Y-21120814D01*
X71750602Y-21120827D01*
X71690264Y-21266498D01*
X71690261Y-21266510D01*
X71659500Y-21421153D01*
X71659500Y-21578846D01*
X71690261Y-21733489D01*
X71690263Y-21733497D01*
X71700061Y-21757151D01*
X71709500Y-21804604D01*
X71709500Y-25088000D01*
X71689815Y-25155039D01*
X71637011Y-25200794D01*
X71585500Y-25212000D01*
X70421248Y-25212000D01*
X70354209Y-25192315D01*
X70323468Y-25161002D01*
X70322193Y-25162011D01*
X70317711Y-25156343D01*
X70193657Y-25032289D01*
X70193656Y-25032288D01*
X70082607Y-24963793D01*
X70044336Y-24940187D01*
X70044331Y-24940185D01*
X70021067Y-24932476D01*
X69877797Y-24885001D01*
X69877795Y-24885000D01*
X69775010Y-24874500D01*
X68724998Y-24874500D01*
X68724980Y-24874501D01*
X68622203Y-24885000D01*
X68622200Y-24885001D01*
X68455668Y-24940185D01*
X68455663Y-24940187D01*
X68306342Y-25032289D01*
X68264785Y-25073846D01*
X68244941Y-25084681D01*
X68227737Y-25099356D01*
X68214862Y-25101104D01*
X68203462Y-25107330D01*
X68180911Y-25105716D01*
X68158503Y-25108761D01*
X68146726Y-25103271D01*
X68133770Y-25102345D01*
X68115670Y-25088795D01*
X68095175Y-25079242D01*
X68082568Y-25064015D01*
X68077837Y-25060473D01*
X68072271Y-25052390D01*
X68071318Y-25050882D01*
X68043081Y-25003135D01*
X68037853Y-24997907D01*
X68030474Y-24986226D01*
X68024538Y-24965412D01*
X68014155Y-24946421D01*
X68015145Y-24932476D01*
X68011312Y-24919035D01*
X68017570Y-24898316D01*
X68019104Y-24876726D01*
X68028518Y-24862077D01*
X68031517Y-24852151D01*
X68038999Y-24845768D01*
X68039940Y-24844304D01*
X68038298Y-24843031D01*
X68043075Y-24836870D01*
X68043081Y-24836865D01*
X68126744Y-24695398D01*
X68163796Y-24567864D01*
X68172597Y-24537573D01*
X68172598Y-24537567D01*
X68174086Y-24518656D01*
X68175500Y-24500694D01*
X68175500Y-24069306D01*
X68172598Y-24032431D01*
X68171441Y-24028450D01*
X68135812Y-23905814D01*
X68126744Y-23874602D01*
X68043081Y-23733135D01*
X68043078Y-23733132D01*
X68038298Y-23726969D01*
X68040750Y-23725066D01*
X68014155Y-23676421D01*
X68019104Y-23606726D01*
X68039940Y-23574304D01*
X68038298Y-23573031D01*
X68043075Y-23566870D01*
X68043081Y-23566865D01*
X68126744Y-23425398D01*
X68172598Y-23267569D01*
X68175500Y-23230694D01*
X68175500Y-22799306D01*
X68172598Y-22762431D01*
X68151608Y-22690185D01*
X68135576Y-22635001D01*
X68126744Y-22604602D01*
X68043081Y-22463135D01*
X68043078Y-22463132D01*
X68038298Y-22456969D01*
X68040750Y-22455066D01*
X68014155Y-22406421D01*
X68019104Y-22336726D01*
X68039940Y-22304304D01*
X68038298Y-22303031D01*
X68043075Y-22296870D01*
X68043081Y-22296865D01*
X68126744Y-22155398D01*
X68172598Y-21997569D01*
X68175500Y-21960694D01*
X68175500Y-21529306D01*
X68172598Y-21492431D01*
X68158514Y-21443955D01*
X68126745Y-21334606D01*
X68126744Y-21334603D01*
X68126744Y-21334602D01*
X68043081Y-21193135D01*
X68043079Y-21193133D01*
X68043076Y-21193129D01*
X67926870Y-21076923D01*
X67926862Y-21076917D01*
X67848681Y-21030681D01*
X67785398Y-20993256D01*
X67785397Y-20993255D01*
X67785396Y-20993255D01*
X67785393Y-20993254D01*
X67627573Y-20947402D01*
X67627567Y-20947401D01*
X67590701Y-20944500D01*
X67590694Y-20944500D01*
X65709306Y-20944500D01*
X65709298Y-20944500D01*
X65672432Y-20947401D01*
X65672426Y-20947402D01*
X65527267Y-20989576D01*
X65492672Y-20994500D01*
X64431080Y-20994500D01*
X64286092Y-21023340D01*
X64286086Y-21023342D01*
X64149508Y-21079914D01*
X64149496Y-21079921D01*
X64100270Y-21112811D01*
X64100271Y-21112812D01*
X64026581Y-21162049D01*
X63684703Y-21503927D01*
X63644480Y-21530805D01*
X63620819Y-21540606D01*
X63620818Y-21540607D01*
X63489715Y-21628207D01*
X63489707Y-21628213D01*
X63378213Y-21739707D01*
X63378210Y-21739711D01*
X63290609Y-21870814D01*
X63290602Y-21870827D01*
X63230264Y-22016498D01*
X63230261Y-22016508D01*
X63208472Y-22126047D01*
X63176087Y-22187958D01*
X63115371Y-22222532D01*
X63111047Y-22223472D01*
X63001508Y-22245261D01*
X63001498Y-22245264D01*
X62855827Y-22305602D01*
X62855814Y-22305609D01*
X62724711Y-22393210D01*
X62724707Y-22393213D01*
X62613213Y-22504707D01*
X62613210Y-22504711D01*
X62525609Y-22635814D01*
X62525602Y-22635827D01*
X62465264Y-22781498D01*
X62465261Y-22781510D01*
X62434500Y-22936153D01*
X62434500Y-23093846D01*
X62461723Y-23230701D01*
X62465263Y-23248497D01*
X62478777Y-23281123D01*
X62498410Y-23328523D01*
X62505878Y-23397992D01*
X62474602Y-23460471D01*
X62414513Y-23496123D01*
X62359656Y-23497591D01*
X62293844Y-23484500D01*
X62293842Y-23484500D01*
X62136158Y-23484500D01*
X62136155Y-23484500D01*
X61981510Y-23515261D01*
X61981498Y-23515264D01*
X61835827Y-23575602D01*
X61835814Y-23575609D01*
X61704711Y-23663210D01*
X61704707Y-23663213D01*
X61593213Y-23774707D01*
X61593210Y-23774711D01*
X61505609Y-23905814D01*
X61505602Y-23905827D01*
X61445264Y-24051498D01*
X61445261Y-24051510D01*
X61414500Y-24206153D01*
X61414500Y-24363846D01*
X61445261Y-24518489D01*
X61445264Y-24518501D01*
X61505602Y-24664172D01*
X61505609Y-24664185D01*
X61593210Y-24795288D01*
X61593213Y-24795292D01*
X61704707Y-24906786D01*
X61704711Y-24906789D01*
X61835814Y-24994390D01*
X61835827Y-24994397D01*
X61941902Y-25038334D01*
X61981503Y-25054737D01*
X62121569Y-25082598D01*
X62136153Y-25085499D01*
X62136156Y-25085500D01*
X62136158Y-25085500D01*
X62293844Y-25085500D01*
X62293845Y-25085499D01*
X62401854Y-25064015D01*
X62448488Y-25054739D01*
X62448489Y-25054738D01*
X62448497Y-25054737D01*
X62472155Y-25044937D01*
X62519604Y-25035500D01*
X64108150Y-25035500D01*
X64175189Y-25055185D01*
X64220944Y-25107989D01*
X64230888Y-25177147D01*
X64222711Y-25206952D01*
X64175264Y-25321498D01*
X64175261Y-25321510D01*
X64144500Y-25476153D01*
X64144500Y-25633846D01*
X64175261Y-25788489D01*
X64175264Y-25788501D01*
X64235602Y-25934172D01*
X64235609Y-25934185D01*
X64323210Y-26065288D01*
X64323213Y-26065292D01*
X64434707Y-26176786D01*
X64434711Y-26176789D01*
X64565814Y-26264390D01*
X64565827Y-26264397D01*
X64693379Y-26317230D01*
X64711503Y-26324737D01*
X64866133Y-26355495D01*
X64866153Y-26355499D01*
X64866156Y-26355500D01*
X65025274Y-26355500D01*
X65092313Y-26375185D01*
X65138068Y-26427989D01*
X65148012Y-26497147D01*
X65144350Y-26514095D01*
X65127402Y-26572426D01*
X65127401Y-26572432D01*
X65124500Y-26609298D01*
X65124500Y-27040701D01*
X65127401Y-27077567D01*
X65127402Y-27077573D01*
X65173254Y-27235393D01*
X65173255Y-27235396D01*
X65256917Y-27376862D01*
X65261702Y-27383031D01*
X65259369Y-27384840D01*
X65286210Y-27433995D01*
X65281226Y-27503687D01*
X65260470Y-27536021D01*
X65262097Y-27537283D01*
X65257313Y-27543449D01*
X65173718Y-27684801D01*
X65127899Y-27842513D01*
X65127704Y-27844998D01*
X65127705Y-27845000D01*
X67895000Y-27845000D01*
X67916181Y-27823819D01*
X67977504Y-27790334D01*
X68003862Y-27787500D01*
X70474999Y-27787500D01*
X70474999Y-27650028D01*
X70474998Y-27650013D01*
X70464505Y-27547302D01*
X70409358Y-27380880D01*
X70409356Y-27380875D01*
X70317315Y-27231654D01*
X70193344Y-27107683D01*
X70193341Y-27107681D01*
X70190339Y-27105829D01*
X70188713Y-27104021D01*
X70187677Y-27103202D01*
X70187817Y-27103024D01*
X70143617Y-27053880D01*
X70132397Y-26984917D01*
X70160243Y-26920836D01*
X70168431Y-26911944D01*
X70178411Y-26902114D01*
X70193656Y-26892712D01*
X70317712Y-26768656D01*
X70323570Y-26759157D01*
X70334239Y-26748651D01*
X70352370Y-26738929D01*
X70367665Y-26725175D01*
X70385645Y-26721089D01*
X70395817Y-26715636D01*
X70406071Y-26716448D01*
X70421248Y-26713000D01*
X71032114Y-26713000D01*
X71099153Y-26732685D01*
X71144908Y-26785489D01*
X71150044Y-26798680D01*
X71189735Y-26920836D01*
X71208444Y-26978414D01*
X71304951Y-27167820D01*
X71429890Y-27339786D01*
X71580213Y-27490109D01*
X71752182Y-27615050D01*
X71760946Y-27619516D01*
X71811742Y-27667491D01*
X71828536Y-27735312D01*
X71805998Y-27801447D01*
X71760946Y-27840484D01*
X71752182Y-27844949D01*
X71580213Y-27969890D01*
X71429890Y-28120213D01*
X71304951Y-28292179D01*
X71208444Y-28481583D01*
X71193097Y-28528819D01*
X71153659Y-28586494D01*
X71089300Y-28613692D01*
X71075166Y-28614500D01*
X70592952Y-28614500D01*
X70525913Y-28594815D01*
X70480158Y-28542011D01*
X70469594Y-28477898D01*
X70474999Y-28424988D01*
X70475000Y-28424973D01*
X70475000Y-28287500D01*
X68305000Y-28287500D01*
X68283819Y-28308681D01*
X68222496Y-28342166D01*
X68196138Y-28345000D01*
X65127705Y-28345000D01*
X65127704Y-28345001D01*
X65127899Y-28347486D01*
X65173718Y-28505198D01*
X65257314Y-28646552D01*
X65262100Y-28652722D01*
X65259640Y-28654629D01*
X65286210Y-28703288D01*
X65281226Y-28772980D01*
X65260162Y-28805781D01*
X65261699Y-28806974D01*
X65256915Y-28813140D01*
X65173255Y-28954603D01*
X65173254Y-28954606D01*
X65127402Y-29112426D01*
X65127401Y-29112432D01*
X65124500Y-29149298D01*
X65124500Y-29250500D01*
X65104815Y-29317539D01*
X65052011Y-29363294D01*
X65000500Y-29374500D01*
X60845808Y-29374500D01*
X60778769Y-29354815D01*
X60758127Y-29338181D01*
X59009674Y-27589727D01*
X59009673Y-27589726D01*
X58974592Y-27566286D01*
X58903127Y-27518535D01*
X58903126Y-27518534D01*
X58903124Y-27518533D01*
X58839294Y-27492094D01*
X58784891Y-27448253D01*
X58762826Y-27381958D01*
X58780015Y-27314412D01*
X58786518Y-27303416D01*
X58826744Y-27235398D01*
X58872598Y-27077569D01*
X58875500Y-27040694D01*
X58875500Y-26609306D01*
X58872598Y-26572431D01*
X58842940Y-26470350D01*
X58826745Y-26414606D01*
X58826744Y-26414603D01*
X58826744Y-26414602D01*
X58743081Y-26273135D01*
X58743078Y-26273132D01*
X58738298Y-26266969D01*
X58740635Y-26265155D01*
X58713798Y-26216050D01*
X58718756Y-26146356D01*
X58739554Y-26113998D01*
X58737903Y-26112717D01*
X58742686Y-26106550D01*
X58826281Y-25965198D01*
X58872100Y-25807486D01*
X58872295Y-25805001D01*
X58872295Y-25805000D01*
X55827705Y-25805000D01*
X55827704Y-25805001D01*
X55827899Y-25807486D01*
X55873718Y-25965198D01*
X55957314Y-26106552D01*
X55962100Y-26112722D01*
X55959640Y-26114629D01*
X55986210Y-26163288D01*
X55981226Y-26232980D01*
X55960162Y-26265781D01*
X55961699Y-26266974D01*
X55956915Y-26273140D01*
X55873255Y-26414603D01*
X55873254Y-26414606D01*
X55827402Y-26572426D01*
X55827401Y-26572432D01*
X55824500Y-26609298D01*
X55824500Y-27040701D01*
X55827401Y-27077567D01*
X55827402Y-27077573D01*
X55873254Y-27235393D01*
X55873255Y-27235396D01*
X55956917Y-27376862D01*
X55961702Y-27383031D01*
X55959256Y-27384927D01*
X55985857Y-27433642D01*
X55980873Y-27503334D01*
X55970216Y-27525119D01*
X55962610Y-27537443D01*
X55956919Y-27543135D01*
X55906761Y-27627947D01*
X55906121Y-27628985D01*
X55880980Y-27651588D01*
X55856258Y-27674671D01*
X55855065Y-27674887D01*
X55854163Y-27675699D01*
X55820776Y-27681124D01*
X55787516Y-27687174D01*
X55786395Y-27686711D01*
X55785199Y-27686906D01*
X55754185Y-27673423D01*
X55722927Y-27660528D01*
X55721427Y-27659182D01*
X55721122Y-27659050D01*
X55720886Y-27658697D01*
X55712915Y-27651547D01*
X54938417Y-26877049D01*
X54927569Y-26869801D01*
X54848821Y-26817184D01*
X54815495Y-26794916D01*
X54815493Y-26794915D01*
X54815490Y-26794913D01*
X54678917Y-26738343D01*
X54678907Y-26738340D01*
X54533920Y-26709500D01*
X54533918Y-26709500D01*
X53687221Y-26709500D01*
X53620182Y-26689815D01*
X53586903Y-26658385D01*
X53530107Y-26580211D01*
X53416569Y-26466673D01*
X53383084Y-26405350D01*
X53388068Y-26335658D01*
X53429940Y-26279725D01*
X53460915Y-26262810D01*
X53592331Y-26213796D01*
X53707546Y-26127546D01*
X53793796Y-26012331D01*
X53844091Y-25877483D01*
X53850500Y-25817873D01*
X53850500Y-25794500D01*
X53870185Y-25727461D01*
X53922989Y-25681706D01*
X53974500Y-25670500D01*
X54273920Y-25670500D01*
X54371462Y-25651096D01*
X54418913Y-25641658D01*
X54555495Y-25585084D01*
X54604729Y-25552186D01*
X54609938Y-25548706D01*
X54629071Y-25535921D01*
X54678416Y-25502952D01*
X55109548Y-25071818D01*
X55170871Y-25038334D01*
X55197229Y-25035500D01*
X55740321Y-25035500D01*
X55807360Y-25055185D01*
X55853115Y-25107989D01*
X55863059Y-25177147D01*
X55859397Y-25194095D01*
X55827900Y-25302505D01*
X55827899Y-25302511D01*
X55827704Y-25304998D01*
X55827705Y-25305000D01*
X58872295Y-25305000D01*
X58872295Y-25304998D01*
X58872100Y-25302513D01*
X58826281Y-25144801D01*
X58742685Y-25003447D01*
X58737900Y-24997278D01*
X58740366Y-24995364D01*
X58713802Y-24946776D01*
X58718749Y-24877082D01*
X58739856Y-24844232D01*
X58738301Y-24843026D01*
X58743077Y-24836868D01*
X58743081Y-24836865D01*
X58743379Y-24836362D01*
X58750068Y-24825050D01*
X58826744Y-24695398D01*
X58863796Y-24567864D01*
X58872597Y-24537573D01*
X58872598Y-24537567D01*
X58874086Y-24518656D01*
X58875500Y-24500694D01*
X58875500Y-24069306D01*
X58872598Y-24032431D01*
X58871441Y-24028450D01*
X58835812Y-23905814D01*
X58826744Y-23874602D01*
X58743081Y-23733135D01*
X58743078Y-23733132D01*
X58738298Y-23726969D01*
X58740750Y-23725066D01*
X58714155Y-23676421D01*
X58719104Y-23606726D01*
X58739940Y-23574304D01*
X58738298Y-23573031D01*
X58743075Y-23566870D01*
X58743081Y-23566865D01*
X58826744Y-23425398D01*
X58872598Y-23267569D01*
X58875500Y-23230694D01*
X58875500Y-22799306D01*
X58872598Y-22762431D01*
X58851608Y-22690185D01*
X58835576Y-22635001D01*
X58826744Y-22604602D01*
X58743081Y-22463135D01*
X58743078Y-22463132D01*
X58738298Y-22456969D01*
X58740750Y-22455066D01*
X58714155Y-22406421D01*
X58719104Y-22336726D01*
X58739940Y-22304304D01*
X58738298Y-22303031D01*
X58743075Y-22296870D01*
X58743081Y-22296865D01*
X58826744Y-22155398D01*
X58872598Y-21997569D01*
X58875500Y-21960694D01*
X58875500Y-21529306D01*
X58872598Y-21492431D01*
X58858514Y-21443955D01*
X58826745Y-21334606D01*
X58826744Y-21334603D01*
X58826744Y-21334602D01*
X58743081Y-21193135D01*
X58743079Y-21193133D01*
X58743076Y-21193129D01*
X58626870Y-21076923D01*
X58626862Y-21076917D01*
X58548681Y-21030681D01*
X58485398Y-20993256D01*
X58485397Y-20993255D01*
X58485396Y-20993255D01*
X58485393Y-20993254D01*
X58327573Y-20947402D01*
X58327567Y-20947401D01*
X58290701Y-20944500D01*
X58290694Y-20944500D01*
X56409306Y-20944500D01*
X56409298Y-20944500D01*
X56372432Y-20947401D01*
X56372426Y-20947402D01*
X56214606Y-20993254D01*
X56214603Y-20993255D01*
X56073137Y-21076917D01*
X56073129Y-21076923D01*
X55956923Y-21193129D01*
X55956917Y-21193137D01*
X55873255Y-21334603D01*
X55873254Y-21334606D01*
X55827402Y-21492426D01*
X55827401Y-21492432D01*
X55824500Y-21529298D01*
X55824500Y-21960701D01*
X55827401Y-21997567D01*
X55827402Y-21997573D01*
X55873254Y-22155393D01*
X55873255Y-22155396D01*
X55873256Y-22155398D01*
X55892512Y-22187958D01*
X55956917Y-22296862D01*
X55961702Y-22303031D01*
X55959256Y-22304927D01*
X55985857Y-22353642D01*
X55980873Y-22423334D01*
X55960069Y-22455703D01*
X55961702Y-22456969D01*
X55956917Y-22463137D01*
X55873255Y-22604603D01*
X55873254Y-22604606D01*
X55827402Y-22762426D01*
X55827401Y-22762432D01*
X55824500Y-22799298D01*
X55824500Y-23230701D01*
X55827401Y-23267567D01*
X55827402Y-23267573D01*
X55858876Y-23375905D01*
X55858677Y-23445775D01*
X55820735Y-23504445D01*
X55757096Y-23533288D01*
X55739800Y-23534500D01*
X54761076Y-23534500D01*
X54732242Y-23540234D01*
X54732243Y-23540235D01*
X54616092Y-23563339D01*
X54616086Y-23563341D01*
X54554061Y-23589033D01*
X54554053Y-23589037D01*
X54548192Y-23591465D01*
X54479505Y-23619916D01*
X54411284Y-23665500D01*
X54406438Y-23668737D01*
X54406434Y-23668740D01*
X54356586Y-23702047D01*
X54356582Y-23702050D01*
X54048990Y-24009642D01*
X53987667Y-24043127D01*
X53917975Y-24038143D01*
X53862042Y-23996271D01*
X53845127Y-23965294D01*
X53793797Y-23827671D01*
X53793793Y-23827664D01*
X53707547Y-23712455D01*
X53707544Y-23712452D01*
X53592335Y-23626206D01*
X53592328Y-23626202D01*
X53457482Y-23575908D01*
X53457483Y-23575908D01*
X53397883Y-23569501D01*
X53397881Y-23569500D01*
X53397873Y-23569500D01*
X53397864Y-23569500D01*
X51602129Y-23569500D01*
X51602123Y-23569501D01*
X51542516Y-23575908D01*
X51407671Y-23626202D01*
X51407664Y-23626206D01*
X51292455Y-23712452D01*
X51292452Y-23712455D01*
X51206206Y-23827664D01*
X51206202Y-23827671D01*
X51155908Y-23962517D01*
X51149501Y-24022116D01*
X51149500Y-24022135D01*
X51149500Y-24110500D01*
X51129815Y-24177539D01*
X51077011Y-24223294D01*
X51025500Y-24234500D01*
X47239499Y-24234500D01*
X47172460Y-24214815D01*
X47126705Y-24162011D01*
X47115499Y-24110500D01*
X47115499Y-24087129D01*
X47115498Y-24087123D01*
X47115497Y-24087116D01*
X47109091Y-24027517D01*
X47085883Y-23965294D01*
X47058797Y-23892671D01*
X47058793Y-23892664D01*
X46972547Y-23777455D01*
X46972544Y-23777452D01*
X46857335Y-23691206D01*
X46857328Y-23691202D01*
X46722482Y-23640908D01*
X46722483Y-23640908D01*
X46662883Y-23634501D01*
X46662881Y-23634500D01*
X46662873Y-23634500D01*
X46662864Y-23634500D01*
X44867129Y-23634500D01*
X44867123Y-23634501D01*
X44807516Y-23640908D01*
X44672671Y-23691202D01*
X44672664Y-23691206D01*
X44557455Y-23777452D01*
X44557452Y-23777455D01*
X44471206Y-23892664D01*
X44471202Y-23892671D01*
X44420908Y-24027517D01*
X44416416Y-24069306D01*
X44414501Y-24087123D01*
X44414500Y-24087135D01*
X44414500Y-24097690D01*
X44394815Y-24164729D01*
X44378181Y-24185371D01*
X43707962Y-24855590D01*
X43690925Y-24792007D01*
X43625099Y-24677993D01*
X43532007Y-24584901D01*
X43417993Y-24519075D01*
X43354409Y-24502037D01*
X43986716Y-23869728D01*
X43932550Y-23830375D01*
X43743217Y-23733904D01*
X43541129Y-23668242D01*
X43331246Y-23635000D01*
X43118754Y-23635000D01*
X42908872Y-23668242D01*
X42908869Y-23668242D01*
X42706782Y-23733904D01*
X42517439Y-23830380D01*
X42463282Y-23869727D01*
X42463282Y-23869728D01*
X43095591Y-24502037D01*
X43032007Y-24519075D01*
X42917993Y-24584901D01*
X42824901Y-24677993D01*
X42759075Y-24792007D01*
X42742037Y-24855591D01*
X42109728Y-24223282D01*
X42109727Y-24223282D01*
X42070380Y-24277439D01*
X41973904Y-24466782D01*
X41908242Y-24668869D01*
X41908242Y-24668872D01*
X41875000Y-24878753D01*
X41875000Y-25091246D01*
X41908242Y-25301127D01*
X41908242Y-25301130D01*
X41973904Y-25503217D01*
X42070375Y-25692550D01*
X42109728Y-25746716D01*
X42742037Y-25114408D01*
X42759075Y-25177993D01*
X42824901Y-25292007D01*
X42917993Y-25385099D01*
X43032007Y-25450925D01*
X43095590Y-25467962D01*
X42463282Y-26100269D01*
X42463282Y-26100270D01*
X42517452Y-26139626D01*
X42517451Y-26139626D01*
X42526495Y-26144234D01*
X42577292Y-26192208D01*
X42594087Y-26260029D01*
X42571550Y-26326164D01*
X42526499Y-26365202D01*
X42517182Y-26369949D01*
X42345213Y-26494890D01*
X42194890Y-26645213D01*
X42069951Y-26817179D01*
X41973444Y-27006585D01*
X41907753Y-27208760D01*
X41879865Y-27384840D01*
X41874500Y-27418713D01*
X41874500Y-27631287D01*
X41882945Y-27684606D01*
X41907633Y-27840484D01*
X41907754Y-27841243D01*
X41973042Y-28042179D01*
X41973444Y-28043414D01*
X42069951Y-28232820D01*
X42194890Y-28404786D01*
X42345213Y-28555109D01*
X42517182Y-28680050D01*
X42525946Y-28684516D01*
X42576742Y-28732491D01*
X42593536Y-28800312D01*
X42570998Y-28866447D01*
X42525946Y-28905484D01*
X42517182Y-28909949D01*
X42345213Y-29034890D01*
X42194890Y-29185213D01*
X42069951Y-29357179D01*
X41973444Y-29546585D01*
X41907753Y-29748760D01*
X41876109Y-29948556D01*
X41874500Y-29958713D01*
X41874500Y-30171287D01*
X41907754Y-30381243D01*
X41973042Y-30582179D01*
X41973444Y-30583414D01*
X42069951Y-30772820D01*
X42194890Y-30944786D01*
X42345213Y-31095109D01*
X42517182Y-31220050D01*
X42525946Y-31224516D01*
X42576742Y-31272491D01*
X42593536Y-31340312D01*
X42570998Y-31406447D01*
X42525946Y-31445484D01*
X42517182Y-31449949D01*
X42345213Y-31574890D01*
X42194890Y-31725213D01*
X42069951Y-31897179D01*
X41973444Y-32086585D01*
X41907753Y-32288760D01*
X41879950Y-32464304D01*
X41874500Y-32498713D01*
X41874500Y-32711287D01*
X41882945Y-32764606D01*
X41907633Y-32920484D01*
X41907754Y-32921243D01*
X41973042Y-33122179D01*
X41973444Y-33123414D01*
X42069951Y-33312820D01*
X42194890Y-33484786D01*
X42345213Y-33635109D01*
X42517182Y-33760050D01*
X42525946Y-33764516D01*
X42576742Y-33812491D01*
X42593536Y-33880312D01*
X42570998Y-33946447D01*
X42525946Y-33985484D01*
X42517182Y-33989949D01*
X42345213Y-34114890D01*
X42194890Y-34265213D01*
X42069951Y-34437179D01*
X41973444Y-34626585D01*
X41907753Y-34828760D01*
X41877505Y-35019738D01*
X41874500Y-35038713D01*
X41874500Y-35251287D01*
X41882945Y-35304606D01*
X41907633Y-35460484D01*
X41907754Y-35461243D01*
X41973042Y-35662179D01*
X41973444Y-35663414D01*
X42069951Y-35852820D01*
X42194890Y-36024786D01*
X42345213Y-36175109D01*
X42517182Y-36300050D01*
X42525946Y-36304516D01*
X42576742Y-36352491D01*
X42593536Y-36420312D01*
X42570998Y-36486447D01*
X42525946Y-36525484D01*
X42517182Y-36529949D01*
X42345213Y-36654890D01*
X42194890Y-36805213D01*
X42069951Y-36977179D01*
X41973444Y-37166585D01*
X41907753Y-37368760D01*
X41879950Y-37544304D01*
X41874500Y-37578713D01*
X41874500Y-37791287D01*
X41907754Y-38001243D01*
X41935678Y-38087184D01*
X41937673Y-38157023D01*
X41901593Y-38216856D01*
X41838892Y-38247684D01*
X41817747Y-38249500D01*
X37426080Y-38249500D01*
X37281092Y-38278340D01*
X37281082Y-38278343D01*
X37144511Y-38334912D01*
X37144498Y-38334919D01*
X37021584Y-38417048D01*
X37021580Y-38417051D01*
X36475451Y-38963181D01*
X36414128Y-38996666D01*
X36387770Y-38999500D01*
X31879500Y-38999500D01*
X31812461Y-38979815D01*
X31766706Y-38927011D01*
X31755500Y-38875500D01*
X31755500Y-25599983D01*
X34499500Y-25599983D01*
X34499500Y-26900001D01*
X34499501Y-26900018D01*
X34510000Y-27002796D01*
X34510001Y-27002799D01*
X34564683Y-27167816D01*
X34565186Y-27169334D01*
X34657288Y-27318656D01*
X34781344Y-27442712D01*
X34927167Y-27532656D01*
X34936558Y-27538448D01*
X34983283Y-27590396D01*
X34994506Y-27659358D01*
X34966663Y-27723441D01*
X34959144Y-27731668D01*
X34820271Y-27870541D01*
X34695379Y-28042442D01*
X34598904Y-28231782D01*
X34533242Y-28433870D01*
X34533242Y-28433873D01*
X34522769Y-28500000D01*
X35570854Y-28500000D01*
X35532370Y-28566657D01*
X35500000Y-28687465D01*
X35500000Y-28812535D01*
X35532370Y-28933343D01*
X35570854Y-29000000D01*
X34522769Y-29000000D01*
X34533242Y-29066126D01*
X34533242Y-29066129D01*
X34598904Y-29268217D01*
X34695379Y-29457557D01*
X34820272Y-29629459D01*
X34820276Y-29629464D01*
X34970535Y-29779723D01*
X34970540Y-29779727D01*
X35135218Y-29899372D01*
X35177884Y-29954701D01*
X35183863Y-30024315D01*
X35151258Y-30086110D01*
X35135218Y-30100008D01*
X34970214Y-30219890D01*
X34970209Y-30219894D01*
X34819890Y-30370213D01*
X34694951Y-30542179D01*
X34598444Y-30731585D01*
X34532753Y-30933760D01*
X34509853Y-31078349D01*
X34499500Y-31143713D01*
X34499500Y-31356287D01*
X34507245Y-31405185D01*
X34526561Y-31527147D01*
X34532754Y-31566243D01*
X34572965Y-31690000D01*
X34598444Y-31768414D01*
X34694951Y-31957820D01*
X34819890Y-32129786D01*
X34970213Y-32280109D01*
X35142179Y-32405048D01*
X35142181Y-32405049D01*
X35142184Y-32405051D01*
X35331588Y-32501557D01*
X35533757Y-32567246D01*
X35743713Y-32600500D01*
X35743714Y-32600500D01*
X36206286Y-32600500D01*
X36206287Y-32600500D01*
X36416243Y-32567246D01*
X36618412Y-32501557D01*
X36807816Y-32405051D01*
X36829789Y-32389086D01*
X36979786Y-32280109D01*
X36979788Y-32280106D01*
X36979792Y-32280104D01*
X37130104Y-32129792D01*
X37130106Y-32129788D01*
X37130109Y-32129786D01*
X37255048Y-31957820D01*
X37255047Y-31957820D01*
X37255051Y-31957816D01*
X37351557Y-31768412D01*
X37417246Y-31566243D01*
X37450500Y-31356287D01*
X37450500Y-31143713D01*
X37417246Y-30933757D01*
X37351557Y-30731588D01*
X37255051Y-30542184D01*
X37255049Y-30542181D01*
X37255048Y-30542179D01*
X37130109Y-30370213D01*
X36979790Y-30219894D01*
X36979785Y-30219890D01*
X36814781Y-30100008D01*
X36772115Y-30044678D01*
X36766136Y-29975065D01*
X36798741Y-29913270D01*
X36814781Y-29899371D01*
X36979466Y-29779721D01*
X37129723Y-29629464D01*
X37129727Y-29629459D01*
X37254620Y-29457557D01*
X37351095Y-29268217D01*
X37416757Y-29066129D01*
X37416757Y-29066126D01*
X37427231Y-29000000D01*
X36379146Y-29000000D01*
X36417630Y-28933343D01*
X36450000Y-28812535D01*
X36450000Y-28687465D01*
X36417630Y-28566657D01*
X36379146Y-28500000D01*
X37427231Y-28500000D01*
X37416757Y-28433873D01*
X37416757Y-28433870D01*
X37351095Y-28231782D01*
X37254620Y-28042442D01*
X37129727Y-27870540D01*
X37129723Y-27870535D01*
X36990856Y-27731668D01*
X36957371Y-27670345D01*
X36962355Y-27600653D01*
X37004227Y-27544720D01*
X37013441Y-27538448D01*
X37019331Y-27534814D01*
X37019334Y-27534814D01*
X37168656Y-27442712D01*
X37292712Y-27318656D01*
X37384814Y-27169334D01*
X37439999Y-27002797D01*
X37450500Y-26900009D01*
X37450499Y-25599992D01*
X37439999Y-25497203D01*
X37384814Y-25330666D01*
X37292712Y-25181344D01*
X37168656Y-25057288D01*
X37168655Y-25057287D01*
X37042411Y-24979420D01*
X37042410Y-24979419D01*
X37019342Y-24965190D01*
X37019336Y-24965187D01*
X37019334Y-24965186D01*
X36852797Y-24910001D01*
X36852795Y-24910000D01*
X36750010Y-24899500D01*
X35199998Y-24899500D01*
X35199981Y-24899501D01*
X35097203Y-24910000D01*
X35097200Y-24910001D01*
X34930668Y-24965185D01*
X34930663Y-24965187D01*
X34781342Y-25057289D01*
X34657289Y-25181342D01*
X34565187Y-25330663D01*
X34565185Y-25330668D01*
X34562572Y-25338554D01*
X34510001Y-25497203D01*
X34510001Y-25497204D01*
X34510000Y-25497204D01*
X34499500Y-25599983D01*
X31755500Y-25599983D01*
X31755500Y-20624500D01*
X31775185Y-20557461D01*
X31827989Y-20511706D01*
X31879500Y-20500500D01*
X72157810Y-20500500D01*
X72224849Y-20520185D01*
G37*
%TD.AperFunction*%
%TA.AperFunction,Conductor*%
G36*
X44378181Y-25784628D02*
G01*
X44411666Y-25845951D01*
X44414500Y-25872300D01*
X44414500Y-25882865D01*
X44414501Y-25882876D01*
X44420908Y-25942483D01*
X44471202Y-26077328D01*
X44471206Y-26077335D01*
X44557452Y-26192544D01*
X44557455Y-26192547D01*
X44672664Y-26278793D01*
X44672671Y-26278797D01*
X44804082Y-26327810D01*
X44860016Y-26369681D01*
X44884433Y-26435145D01*
X44869582Y-26503418D01*
X44848431Y-26531673D01*
X44734889Y-26645215D01*
X44609949Y-26817182D01*
X44605484Y-26825946D01*
X44557509Y-26876742D01*
X44489688Y-26893536D01*
X44423553Y-26870998D01*
X44384516Y-26825946D01*
X44380050Y-26817182D01*
X44255109Y-26645213D01*
X44104786Y-26494890D01*
X43932817Y-26369949D01*
X43923504Y-26365204D01*
X43872707Y-26317230D01*
X43855912Y-26249409D01*
X43878449Y-26183274D01*
X43923507Y-26144232D01*
X43932555Y-26139622D01*
X43986716Y-26100270D01*
X43986717Y-26100270D01*
X43354408Y-25467962D01*
X43417993Y-25450925D01*
X43532007Y-25385099D01*
X43625099Y-25292007D01*
X43690925Y-25177993D01*
X43707962Y-25114409D01*
X44378181Y-25784628D01*
G37*
%TD.AperFunction*%
%TA.AperFunction,Conductor*%
G36*
X93348906Y-24464541D02*
G01*
X93354268Y-24463455D01*
X93382072Y-24474280D01*
X93410696Y-24482685D01*
X93415630Y-24487345D01*
X93419377Y-24488804D01*
X93443972Y-24514111D01*
X93469896Y-24549792D01*
X93469898Y-24549794D01*
X93620213Y-24700109D01*
X93792182Y-24825050D01*
X93800946Y-24829516D01*
X93851742Y-24877491D01*
X93868536Y-24945312D01*
X93845998Y-25011447D01*
X93800946Y-25050484D01*
X93792182Y-25054949D01*
X93620213Y-25179890D01*
X93469890Y-25330213D01*
X93344951Y-25502179D01*
X93248444Y-25691583D01*
X93190248Y-25870692D01*
X93183261Y-25882093D01*
X93181150Y-25891799D01*
X93159998Y-25920054D01*
X93078871Y-26001181D01*
X93017550Y-26034666D01*
X92991191Y-26037500D01*
X91874000Y-26037500D01*
X91806961Y-26017815D01*
X91761206Y-25965011D01*
X91750000Y-25913500D01*
X91750000Y-25661500D01*
X91769685Y-25594461D01*
X91822489Y-25548706D01*
X91874000Y-25537500D01*
X92974999Y-25537500D01*
X92974999Y-25400028D01*
X92974998Y-25400013D01*
X92964505Y-25297302D01*
X92909358Y-25130880D01*
X92909356Y-25130875D01*
X92817315Y-24981654D01*
X92693344Y-24857683D01*
X92693341Y-24857681D01*
X92690339Y-24855829D01*
X92688713Y-24854021D01*
X92687677Y-24853202D01*
X92687817Y-24853024D01*
X92643617Y-24803880D01*
X92632397Y-24734917D01*
X92660243Y-24670836D01*
X92690344Y-24644754D01*
X92693656Y-24642712D01*
X92817712Y-24518656D01*
X92817715Y-24518650D01*
X92822193Y-24512989D01*
X92824015Y-24514430D01*
X92867665Y-24475175D01*
X92921248Y-24463000D01*
X93343657Y-24463000D01*
X93348906Y-24464541D01*
G37*
%TD.AperFunction*%
%TD*%
%TA.AperFunction,Conductor*%
%TO.N,+5V*%
G36*
X69704309Y-40769685D02*
G01*
X69724951Y-40786319D01*
X70271585Y-41332952D01*
X70271590Y-41332956D01*
X70308338Y-41357509D01*
X70312373Y-41360205D01*
X70394505Y-41415084D01*
X70451080Y-41438518D01*
X70531088Y-41471659D01*
X70647241Y-41494763D01*
X70666468Y-41498587D01*
X70676081Y-41500500D01*
X70676082Y-41500500D01*
X73483920Y-41500500D01*
X73581462Y-41481096D01*
X73628913Y-41471658D01*
X73765495Y-41415084D01*
X73834595Y-41368913D01*
X73888416Y-41332952D01*
X74098678Y-41122690D01*
X74435048Y-40786319D01*
X74496371Y-40752834D01*
X74522729Y-40750000D01*
X82278692Y-40750000D01*
X82345731Y-40769685D01*
X82366373Y-40786319D01*
X82835325Y-41255272D01*
X82835326Y-41255273D01*
X82835329Y-41255275D01*
X82835331Y-41255277D01*
X82938060Y-41323917D01*
X82938058Y-41323919D01*
X82938070Y-41323923D01*
X82941873Y-41326465D01*
X83060256Y-41375501D01*
X83060260Y-41375501D01*
X83060261Y-41375502D01*
X83185928Y-41400500D01*
X83185931Y-41400500D01*
X95264071Y-41400500D01*
X95348615Y-41383682D01*
X95389744Y-41375501D01*
X95508127Y-41326465D01*
X95511924Y-41323927D01*
X95511943Y-41323921D01*
X95511940Y-41323917D01*
X95614669Y-41255277D01*
X96083627Y-40786319D01*
X96144950Y-40752834D01*
X96171308Y-40750000D01*
X99375500Y-40750000D01*
X99442539Y-40769685D01*
X99488294Y-40822489D01*
X99499500Y-40874000D01*
X99499500Y-68425500D01*
X99479815Y-68492539D01*
X99427011Y-68538294D01*
X99375500Y-68549500D01*
X20624500Y-68549500D01*
X20557461Y-68529815D01*
X20511706Y-68477011D01*
X20500500Y-68425500D01*
X20500500Y-66361229D01*
X20520185Y-66294190D01*
X20572989Y-66248435D01*
X20642147Y-66238491D01*
X20705703Y-66267516D01*
X20712181Y-66273548D01*
X22417049Y-67978416D01*
X22521583Y-68082950D01*
X22521585Y-68082952D01*
X22644498Y-68165080D01*
X22644511Y-68165087D01*
X22781082Y-68221656D01*
X22781087Y-68221658D01*
X22781091Y-68221658D01*
X22781092Y-68221659D01*
X22926079Y-68250500D01*
X22926082Y-68250500D01*
X74073920Y-68250500D01*
X74171462Y-68231096D01*
X74218913Y-68221658D01*
X74355495Y-68165084D01*
X74404729Y-68132186D01*
X74478416Y-68082952D01*
X76792952Y-65768416D01*
X76862272Y-65664669D01*
X76875084Y-65645495D01*
X76931658Y-65508913D01*
X76960500Y-65363918D01*
X76960500Y-65125800D01*
X76980185Y-65058761D01*
X77032989Y-65013006D01*
X77102147Y-65003062D01*
X77122820Y-65007870D01*
X77155458Y-65018475D01*
X77155461Y-65018475D01*
X77155466Y-65018477D01*
X77357648Y-65050500D01*
X77357649Y-65050500D01*
X77562351Y-65050500D01*
X77562352Y-65050500D01*
X77764534Y-65018477D01*
X77959219Y-64955220D01*
X78141610Y-64862287D01*
X78261805Y-64774961D01*
X78307213Y-64741971D01*
X78307215Y-64741968D01*
X78307219Y-64741966D01*
X78451966Y-64597219D01*
X78451968Y-64597215D01*
X78451971Y-64597213D01*
X78545998Y-64467794D01*
X78572287Y-64431610D01*
X78615782Y-64346245D01*
X78663756Y-64295449D01*
X78731577Y-64278654D01*
X78797712Y-64301191D01*
X78835625Y-64344086D01*
X78870739Y-64409779D01*
X78870751Y-64409799D01*
X78958278Y-64540793D01*
X78958286Y-64540804D01*
X78958291Y-64540811D01*
X79021157Y-64617412D01*
X79132588Y-64728843D01*
X79209189Y-64791709D01*
X79209198Y-64791715D01*
X79209206Y-64791721D01*
X79340200Y-64879248D01*
X79340205Y-64879251D01*
X79340217Y-64879259D01*
X79340226Y-64879263D01*
X79340228Y-64879265D01*
X79427603Y-64925968D01*
X79427605Y-64925968D01*
X79427611Y-64925972D01*
X79573202Y-64986278D01*
X79668032Y-65015044D01*
X79822590Y-65045787D01*
X79921207Y-65055500D01*
X79921209Y-65055500D01*
X80078791Y-65055500D01*
X80078793Y-65055500D01*
X80177410Y-65045787D01*
X80331968Y-65015044D01*
X80426798Y-64986278D01*
X80572389Y-64925972D01*
X80659783Y-64879259D01*
X80790811Y-64791709D01*
X80867412Y-64728843D01*
X80978843Y-64617412D01*
X81041709Y-64540811D01*
X81129259Y-64409783D01*
X81164375Y-64344084D01*
X81213336Y-64294243D01*
X81281473Y-64278782D01*
X81347153Y-64302613D01*
X81384217Y-64346245D01*
X81414976Y-64406613D01*
X81427715Y-64431613D01*
X81548028Y-64597213D01*
X81692786Y-64741971D01*
X81847749Y-64854556D01*
X81858390Y-64862287D01*
X81962002Y-64915080D01*
X82040776Y-64955218D01*
X82040778Y-64955218D01*
X82040781Y-64955220D01*
X82114375Y-64979132D01*
X82235465Y-65018477D01*
X82319564Y-65031797D01*
X82437648Y-65050500D01*
X82437649Y-65050500D01*
X82642351Y-65050500D01*
X82642352Y-65050500D01*
X82844534Y-65018477D01*
X83039219Y-64955220D01*
X83221610Y-64862287D01*
X83341805Y-64774961D01*
X83387213Y-64741971D01*
X83387215Y-64741968D01*
X83387219Y-64741966D01*
X83531966Y-64597219D01*
X83531968Y-64597215D01*
X83531971Y-64597213D01*
X83652284Y-64431614D01*
X83652286Y-64431611D01*
X83652287Y-64431610D01*
X83699516Y-64338917D01*
X83747489Y-64288123D01*
X83815310Y-64271328D01*
X83881445Y-64293865D01*
X83920483Y-64338917D01*
X83954017Y-64404730D01*
X83967715Y-64431614D01*
X84088028Y-64597213D01*
X84232786Y-64741971D01*
X84387749Y-64854556D01*
X84398390Y-64862287D01*
X84502002Y-64915080D01*
X84580776Y-64955218D01*
X84580778Y-64955218D01*
X84580781Y-64955220D01*
X84654375Y-64979132D01*
X84775465Y-65018477D01*
X84859564Y-65031797D01*
X84977648Y-65050500D01*
X84977649Y-65050500D01*
X85182351Y-65050500D01*
X85182352Y-65050500D01*
X85384534Y-65018477D01*
X85579219Y-64955220D01*
X85761610Y-64862287D01*
X85881805Y-64774961D01*
X85927213Y-64741971D01*
X85927215Y-64741968D01*
X85927219Y-64741966D01*
X86071966Y-64597219D01*
X86071968Y-64597215D01*
X86071971Y-64597213D01*
X86192284Y-64431614D01*
X86192286Y-64431611D01*
X86192287Y-64431610D01*
X86239516Y-64338917D01*
X86287489Y-64288123D01*
X86355310Y-64271328D01*
X86421445Y-64293865D01*
X86460483Y-64338917D01*
X86494017Y-64404730D01*
X86507715Y-64431614D01*
X86628028Y-64597213D01*
X86772786Y-64741971D01*
X86927749Y-64854556D01*
X86938390Y-64862287D01*
X87042002Y-64915080D01*
X87120776Y-64955218D01*
X87120778Y-64955218D01*
X87120781Y-64955220D01*
X87194375Y-64979132D01*
X87315465Y-65018477D01*
X87399564Y-65031797D01*
X87517648Y-65050500D01*
X87517649Y-65050500D01*
X87722351Y-65050500D01*
X87722352Y-65050500D01*
X87924534Y-65018477D01*
X88119219Y-64955220D01*
X88301610Y-64862287D01*
X88421805Y-64774961D01*
X88467213Y-64741971D01*
X88467215Y-64741968D01*
X88467219Y-64741966D01*
X88611966Y-64597219D01*
X88611968Y-64597215D01*
X88611971Y-64597213D01*
X88732284Y-64431614D01*
X88732286Y-64431611D01*
X88732287Y-64431610D01*
X88779516Y-64338917D01*
X88827489Y-64288123D01*
X88895310Y-64271328D01*
X88961445Y-64293865D01*
X89000483Y-64338917D01*
X89034017Y-64404730D01*
X89047715Y-64431614D01*
X89168028Y-64597213D01*
X89312786Y-64741971D01*
X89467749Y-64854556D01*
X89478390Y-64862287D01*
X89582002Y-64915080D01*
X89660776Y-64955218D01*
X89660778Y-64955218D01*
X89660781Y-64955220D01*
X89734375Y-64979132D01*
X89855465Y-65018477D01*
X89939564Y-65031797D01*
X90057648Y-65050500D01*
X90057649Y-65050500D01*
X90262351Y-65050500D01*
X90262352Y-65050500D01*
X90464534Y-65018477D01*
X90659219Y-64955220D01*
X90841610Y-64862287D01*
X90961805Y-64774961D01*
X91007213Y-64741971D01*
X91007215Y-64741968D01*
X91007219Y-64741966D01*
X91151966Y-64597219D01*
X91151968Y-64597215D01*
X91151971Y-64597213D01*
X91245998Y-64467794D01*
X91272287Y-64431610D01*
X91315782Y-64346245D01*
X91363756Y-64295449D01*
X91431577Y-64278654D01*
X91497712Y-64301191D01*
X91535625Y-64344086D01*
X91570739Y-64409779D01*
X91570751Y-64409799D01*
X91658278Y-64540793D01*
X91658286Y-64540804D01*
X91658291Y-64540811D01*
X91721157Y-64617412D01*
X91832588Y-64728843D01*
X91909189Y-64791709D01*
X91909198Y-64791715D01*
X91909206Y-64791721D01*
X92040200Y-64879248D01*
X92040205Y-64879251D01*
X92040217Y-64879259D01*
X92040226Y-64879263D01*
X92040228Y-64879265D01*
X92127603Y-64925968D01*
X92127605Y-64925968D01*
X92127611Y-64925972D01*
X92273202Y-64986278D01*
X92368032Y-65015044D01*
X92522590Y-65045787D01*
X92621207Y-65055500D01*
X92621209Y-65055500D01*
X92778791Y-65055500D01*
X92778793Y-65055500D01*
X92877410Y-65045787D01*
X93031968Y-65015044D01*
X93126798Y-64986278D01*
X93272389Y-64925972D01*
X93359783Y-64879259D01*
X93490811Y-64791709D01*
X93567412Y-64728843D01*
X93678843Y-64617412D01*
X93741709Y-64540811D01*
X93829259Y-64409783D01*
X93864375Y-64344084D01*
X93913336Y-64294243D01*
X93981473Y-64278782D01*
X94047153Y-64302613D01*
X94084217Y-64346245D01*
X94114976Y-64406613D01*
X94127715Y-64431613D01*
X94248028Y-64597213D01*
X94392786Y-64741971D01*
X94547749Y-64854556D01*
X94558390Y-64862287D01*
X94662002Y-64915080D01*
X94740776Y-64955218D01*
X94740778Y-64955218D01*
X94740781Y-64955220D01*
X94814375Y-64979132D01*
X94935465Y-65018477D01*
X95019564Y-65031797D01*
X95137648Y-65050500D01*
X95137649Y-65050500D01*
X95342351Y-65050500D01*
X95342352Y-65050500D01*
X95544534Y-65018477D01*
X95739219Y-64955220D01*
X95921610Y-64862287D01*
X96041805Y-64774961D01*
X96087213Y-64741971D01*
X96087215Y-64741968D01*
X96087219Y-64741966D01*
X96231966Y-64597219D01*
X96290654Y-64516440D01*
X96345984Y-64473774D01*
X96415597Y-64467794D01*
X96477392Y-64500400D01*
X96509358Y-64552435D01*
X96536520Y-64639602D01*
X96536521Y-64639604D01*
X96536522Y-64639606D01*
X96624528Y-64785185D01*
X96624530Y-64785188D01*
X96744811Y-64905469D01*
X96744813Y-64905470D01*
X96744815Y-64905472D01*
X96890394Y-64993478D01*
X97052804Y-65044086D01*
X97123384Y-65050500D01*
X97123387Y-65050500D01*
X98436613Y-65050500D01*
X98436616Y-65050500D01*
X98507196Y-65044086D01*
X98669606Y-64993478D01*
X98815185Y-64905472D01*
X98935472Y-64785185D01*
X99023478Y-64639606D01*
X99074086Y-64477196D01*
X99080500Y-64406616D01*
X99080500Y-63093384D01*
X99074086Y-63022804D01*
X99023478Y-62860394D01*
X98935472Y-62714815D01*
X98935470Y-62714813D01*
X98935469Y-62714811D01*
X98815188Y-62594530D01*
X98802472Y-62586843D01*
X98669606Y-62506522D01*
X98507196Y-62455914D01*
X98507194Y-62455913D01*
X98507192Y-62455913D01*
X98457778Y-62451423D01*
X98436616Y-62449500D01*
X97123384Y-62449500D01*
X97104145Y-62451248D01*
X97052807Y-62455913D01*
X96890393Y-62506522D01*
X96744811Y-62594530D01*
X96624530Y-62714811D01*
X96615158Y-62730315D01*
X96536522Y-62860394D01*
X96536522Y-62860395D01*
X96509358Y-62947565D01*
X96470620Y-63005712D01*
X96406595Y-63033686D01*
X96337610Y-63022604D01*
X96290655Y-62983559D01*
X96231971Y-62902786D01*
X96087213Y-62758028D01*
X95921613Y-62637715D01*
X95921612Y-62637714D01*
X95921610Y-62637713D01*
X95836855Y-62594528D01*
X95739223Y-62544781D01*
X95544534Y-62481522D01*
X95360150Y-62452319D01*
X95342352Y-62449500D01*
X95137648Y-62449500D01*
X95119850Y-62452319D01*
X94935465Y-62481522D01*
X94740776Y-62544781D01*
X94558386Y-62637715D01*
X94392786Y-62758028D01*
X94248032Y-62902782D01*
X94192610Y-62979064D01*
X94137279Y-63021729D01*
X94067666Y-63027708D01*
X94005871Y-62995102D01*
X93972143Y-62936840D01*
X93969126Y-62925019D01*
X93967022Y-62916774D01*
X93966322Y-62915085D01*
X93943669Y-62860394D01*
X93936574Y-62843265D01*
X93913219Y-62794449D01*
X93826994Y-62679267D01*
X93826989Y-62679262D01*
X93826984Y-62679256D01*
X93770747Y-62623019D01*
X93749798Y-62604201D01*
X93730475Y-62586843D01*
X93730467Y-62586837D01*
X93606736Y-62513426D01*
X93606737Y-62513426D01*
X93545164Y-62487923D01*
X93533226Y-62482978D01*
X93533212Y-62482973D01*
X93533204Y-62482970D01*
X93482200Y-62464976D01*
X93481213Y-62464834D01*
X93480617Y-62464748D01*
X93479850Y-62464398D01*
X93476280Y-62463521D01*
X93476446Y-62462843D01*
X93470367Y-62460067D01*
X93459107Y-62459665D01*
X93439158Y-62445814D01*
X93417063Y-62435723D01*
X93409480Y-62425207D01*
X93401715Y-62419816D01*
X93383708Y-62389468D01*
X93369636Y-62355495D01*
X93369635Y-62355492D01*
X93369635Y-62355491D01*
X93365087Y-62344512D01*
X93365086Y-62344510D01*
X93365084Y-62344505D01*
X93295983Y-62241088D01*
X93295981Y-62241084D01*
X93282957Y-62221591D01*
X93282952Y-62221585D01*
X92036819Y-60975451D01*
X92003334Y-60914128D01*
X92000500Y-60887770D01*
X92000500Y-57192486D01*
X93444500Y-57192486D01*
X93444500Y-57377514D01*
X93450796Y-57417262D01*
X93473445Y-57560265D01*
X93530619Y-57736232D01*
X93530620Y-57736235D01*
X93572617Y-57818657D01*
X93614622Y-57901096D01*
X93723379Y-58050787D01*
X93854213Y-58181621D01*
X94003904Y-58290378D01*
X94077127Y-58327687D01*
X94168764Y-58374379D01*
X94168767Y-58374380D01*
X94230685Y-58394498D01*
X94344736Y-58431555D01*
X94527486Y-58460500D01*
X94527487Y-58460500D01*
X94712513Y-58460500D01*
X94712514Y-58460500D01*
X94895264Y-58431555D01*
X95071235Y-58374379D01*
X95236096Y-58290378D01*
X95385787Y-58181621D01*
X95516621Y-58050787D01*
X95625378Y-57901096D01*
X95709379Y-57736235D01*
X95731117Y-57669331D01*
X95766555Y-57560265D01*
X95779472Y-57478713D01*
X96299500Y-57478713D01*
X96299500Y-57691287D01*
X96306186Y-57733501D01*
X96332730Y-57901096D01*
X96332754Y-57901243D01*
X96392433Y-58084916D01*
X96398444Y-58103414D01*
X96494951Y-58292820D01*
X96619890Y-58464786D01*
X96770213Y-58615109D01*
X96942179Y-58740048D01*
X96942181Y-58740049D01*
X96942184Y-58740051D01*
X97131588Y-58836557D01*
X97333757Y-58902246D01*
X97543713Y-58935500D01*
X97543714Y-58935500D01*
X97756286Y-58935500D01*
X97756287Y-58935500D01*
X97966243Y-58902246D01*
X98168412Y-58836557D01*
X98357816Y-58740051D01*
X98414328Y-58698993D01*
X98529786Y-58615109D01*
X98529788Y-58615106D01*
X98529792Y-58615104D01*
X98680104Y-58464792D01*
X98680106Y-58464788D01*
X98680109Y-58464786D01*
X98805048Y-58292820D01*
X98805047Y-58292820D01*
X98805051Y-58292816D01*
X98901557Y-58103412D01*
X98967246Y-57901243D01*
X99000500Y-57691287D01*
X99000500Y-57478713D01*
X98967246Y-57268757D01*
X98901557Y-57066588D01*
X98805051Y-56877184D01*
X98805049Y-56877181D01*
X98805048Y-56877179D01*
X98680109Y-56705213D01*
X98529786Y-56554890D01*
X98357820Y-56429951D01*
X98168414Y-56333444D01*
X98168413Y-56333443D01*
X98168412Y-56333443D01*
X97966243Y-56267754D01*
X97966241Y-56267753D01*
X97966240Y-56267753D01*
X97804957Y-56242208D01*
X97756287Y-56234500D01*
X97543713Y-56234500D01*
X97495042Y-56242208D01*
X97333760Y-56267753D01*
X97131585Y-56333444D01*
X96942179Y-56429951D01*
X96770213Y-56554890D01*
X96619890Y-56705213D01*
X96494951Y-56877179D01*
X96398444Y-57066585D01*
X96332753Y-57268760D01*
X96303344Y-57454442D01*
X96299500Y-57478713D01*
X95779472Y-57478713D01*
X95783316Y-57454443D01*
X95783316Y-57454442D01*
X95795500Y-57377514D01*
X95795500Y-57192486D01*
X95785320Y-57128211D01*
X95766555Y-57009736D01*
X95709379Y-56833765D01*
X95709379Y-56833764D01*
X95625377Y-56668903D01*
X95619198Y-56660398D01*
X95516621Y-56519213D01*
X95385787Y-56388379D01*
X95236096Y-56279622D01*
X95195535Y-56258955D01*
X95071235Y-56195620D01*
X95071232Y-56195619D01*
X94895265Y-56138445D01*
X94803889Y-56123972D01*
X94712514Y-56109500D01*
X94527486Y-56109500D01*
X94466569Y-56119148D01*
X94344734Y-56138445D01*
X94168767Y-56195619D01*
X94168764Y-56195620D01*
X94003903Y-56279622D01*
X93933652Y-56330663D01*
X93854213Y-56388379D01*
X93854211Y-56388381D01*
X93854210Y-56388381D01*
X93723381Y-56519210D01*
X93723381Y-56519211D01*
X93723379Y-56519213D01*
X93706690Y-56542184D01*
X93614622Y-56668903D01*
X93530620Y-56833764D01*
X93530619Y-56833767D01*
X93473445Y-57009734D01*
X93468555Y-57040609D01*
X93444500Y-57192486D01*
X92000500Y-57192486D01*
X92000500Y-54862229D01*
X92020185Y-54795190D01*
X92036819Y-54774548D01*
X92582948Y-54228419D01*
X92582951Y-54228416D01*
X92665084Y-54105495D01*
X92721658Y-53968913D01*
X92735465Y-53899501D01*
X92750500Y-53823920D01*
X92750500Y-52342486D01*
X93444500Y-52342486D01*
X93444500Y-52527513D01*
X93473445Y-52710265D01*
X93530619Y-52886232D01*
X93530620Y-52886235D01*
X93588398Y-52999629D01*
X93614622Y-53051096D01*
X93723379Y-53200787D01*
X93854213Y-53331621D01*
X94003904Y-53440378D01*
X94072739Y-53475451D01*
X94168764Y-53524379D01*
X94168767Y-53524380D01*
X94256750Y-53552967D01*
X94344736Y-53581555D01*
X94527486Y-53610500D01*
X94527487Y-53610500D01*
X94712513Y-53610500D01*
X94712514Y-53610500D01*
X94895264Y-53581555D01*
X95071235Y-53524379D01*
X95236096Y-53440378D01*
X95385787Y-53331621D01*
X95516621Y-53200787D01*
X95625378Y-53051096D01*
X95709379Y-52886235D01*
X95766555Y-52710264D01*
X95795500Y-52527514D01*
X95795500Y-52342486D01*
X95766555Y-52159736D01*
X95732810Y-52055880D01*
X95723983Y-52028713D01*
X96299500Y-52028713D01*
X96299500Y-52241287D01*
X96332754Y-52451243D01*
X96391823Y-52633039D01*
X96398444Y-52653414D01*
X96494951Y-52842820D01*
X96619890Y-53014786D01*
X96770213Y-53165109D01*
X96942179Y-53290048D01*
X96942181Y-53290049D01*
X96942184Y-53290051D01*
X97131588Y-53386557D01*
X97333757Y-53452246D01*
X97543713Y-53485500D01*
X97543714Y-53485500D01*
X97756286Y-53485500D01*
X97756287Y-53485500D01*
X97966243Y-53452246D01*
X98168412Y-53386557D01*
X98357816Y-53290051D01*
X98442650Y-53228416D01*
X98529786Y-53165109D01*
X98529788Y-53165106D01*
X98529792Y-53165104D01*
X98680104Y-53014792D01*
X98680106Y-53014788D01*
X98680109Y-53014786D01*
X98805048Y-52842820D01*
X98805047Y-52842820D01*
X98805051Y-52842816D01*
X98901557Y-52653412D01*
X98967246Y-52451243D01*
X99000500Y-52241287D01*
X99000500Y-52028713D01*
X98967246Y-51818757D01*
X98901557Y-51616588D01*
X98805051Y-51427184D01*
X98805049Y-51427181D01*
X98805048Y-51427179D01*
X98680109Y-51255213D01*
X98529786Y-51104890D01*
X98357820Y-50979951D01*
X98168414Y-50883444D01*
X98168413Y-50883443D01*
X98168412Y-50883443D01*
X97966243Y-50817754D01*
X97966241Y-50817753D01*
X97966240Y-50817753D01*
X97804957Y-50792208D01*
X97756287Y-50784500D01*
X97543713Y-50784500D01*
X97495042Y-50792208D01*
X97333760Y-50817753D01*
X97333757Y-50817754D01*
X97137393Y-50881557D01*
X97131585Y-50883444D01*
X96942179Y-50979951D01*
X96770213Y-51104890D01*
X96619890Y-51255213D01*
X96494951Y-51427179D01*
X96398444Y-51616585D01*
X96332753Y-51818760D01*
X96319751Y-51900853D01*
X96299500Y-52028713D01*
X95723983Y-52028713D01*
X95709380Y-51983767D01*
X95709379Y-51983764D01*
X95650072Y-51867369D01*
X95625378Y-51818904D01*
X95516621Y-51669213D01*
X95385787Y-51538379D01*
X95236096Y-51429622D01*
X95231301Y-51427179D01*
X95071235Y-51345620D01*
X95071232Y-51345619D01*
X94895265Y-51288445D01*
X94803889Y-51273972D01*
X94712514Y-51259500D01*
X94527486Y-51259500D01*
X94466569Y-51269148D01*
X94344734Y-51288445D01*
X94168767Y-51345619D01*
X94168764Y-51345620D01*
X94003903Y-51429622D01*
X93918499Y-51491672D01*
X93854213Y-51538379D01*
X93854211Y-51538381D01*
X93854210Y-51538381D01*
X93723381Y-51669210D01*
X93723381Y-51669211D01*
X93723379Y-51669213D01*
X93676672Y-51733499D01*
X93614622Y-51818903D01*
X93530620Y-51983764D01*
X93530619Y-51983767D01*
X93473445Y-52159734D01*
X93444500Y-52342486D01*
X92750500Y-52342486D01*
X92750500Y-48362229D01*
X92770185Y-48295190D01*
X92786819Y-48274548D01*
X93282948Y-47778419D01*
X93282951Y-47778416D01*
X93365084Y-47655495D01*
X93421658Y-47518913D01*
X93425321Y-47500500D01*
X93450500Y-47373918D01*
X93450500Y-47353972D01*
X93470185Y-47286933D01*
X93522989Y-47241178D01*
X93529150Y-47238754D01*
X93529135Y-47238717D01*
X93562604Y-47224853D01*
X93606735Y-47206574D01*
X93655551Y-47183219D01*
X93770733Y-47096994D01*
X93826994Y-47040733D01*
X93863157Y-47000475D01*
X93936574Y-46876735D01*
X93967022Y-46803226D01*
X93979466Y-46767949D01*
X93982117Y-46762316D01*
X94001320Y-46740651D01*
X94018252Y-46717171D01*
X94024214Y-46714825D01*
X94028464Y-46710031D01*
X94056330Y-46702188D01*
X94083270Y-46691589D01*
X94094203Y-46691530D01*
X94095721Y-46691103D01*
X94097066Y-46691514D01*
X94104053Y-46691477D01*
X94160525Y-46695921D01*
X94757037Y-46099408D01*
X94774075Y-46162993D01*
X94839901Y-46277007D01*
X94932993Y-46370099D01*
X95047007Y-46435925D01*
X95110590Y-46452962D01*
X94514076Y-47049474D01*
X94558650Y-47081859D01*
X94740968Y-47174755D01*
X94935582Y-47237990D01*
X95137683Y-47270000D01*
X95342317Y-47270000D01*
X95544417Y-47237990D01*
X95739031Y-47174755D01*
X95921349Y-47081859D01*
X95965921Y-47049474D01*
X95369409Y-46452962D01*
X95432993Y-46435925D01*
X95547007Y-46370099D01*
X95640099Y-46277007D01*
X95705925Y-46162993D01*
X95722962Y-46099409D01*
X96319474Y-46695921D01*
X96351861Y-46651347D01*
X96351861Y-46651346D01*
X96399234Y-46558371D01*
X96447208Y-46507575D01*
X96515028Y-46490779D01*
X96581164Y-46513316D01*
X96620203Y-46558369D01*
X96667713Y-46651611D01*
X96788028Y-46817213D01*
X96932786Y-46961971D01*
X97053226Y-47049474D01*
X97098390Y-47082287D01*
X97198226Y-47133156D01*
X97280776Y-47175218D01*
X97280778Y-47175218D01*
X97280781Y-47175220D01*
X97377260Y-47206568D01*
X97475465Y-47238477D01*
X97576557Y-47254488D01*
X97677648Y-47270500D01*
X97677649Y-47270500D01*
X97882351Y-47270500D01*
X97882352Y-47270500D01*
X98084534Y-47238477D01*
X98279219Y-47175220D01*
X98461610Y-47082287D01*
X98554590Y-47014732D01*
X98627213Y-46961971D01*
X98627215Y-46961968D01*
X98627219Y-46961966D01*
X98771966Y-46817219D01*
X98771968Y-46817215D01*
X98771971Y-46817213D01*
X98842236Y-46720500D01*
X98892287Y-46651610D01*
X98985220Y-46469219D01*
X99048477Y-46274534D01*
X99080500Y-46072352D01*
X99080500Y-45867648D01*
X99048477Y-45665466D01*
X99047673Y-45662993D01*
X99008751Y-45543202D01*
X98985220Y-45470781D01*
X98985218Y-45470778D01*
X98985218Y-45470776D01*
X98936056Y-45374292D01*
X98892287Y-45288390D01*
X98864759Y-45250500D01*
X98771971Y-45122786D01*
X98627213Y-44978028D01*
X98461613Y-44857715D01*
X98461612Y-44857714D01*
X98461610Y-44857713D01*
X98376076Y-44814131D01*
X98279223Y-44764781D01*
X98084534Y-44701522D01*
X97909995Y-44673878D01*
X97882352Y-44669500D01*
X97677648Y-44669500D01*
X97653329Y-44673351D01*
X97475465Y-44701522D01*
X97280776Y-44764781D01*
X97098386Y-44857715D01*
X96932786Y-44978028D01*
X96788028Y-45122786D01*
X96667713Y-45288388D01*
X96620203Y-45381630D01*
X96572228Y-45432426D01*
X96504407Y-45449220D01*
X96438272Y-45426682D01*
X96399234Y-45381628D01*
X96351861Y-45288652D01*
X96319474Y-45244077D01*
X96319474Y-45244076D01*
X95722962Y-45840589D01*
X95705925Y-45777007D01*
X95640099Y-45662993D01*
X95547007Y-45569901D01*
X95432993Y-45504075D01*
X95369408Y-45487037D01*
X95965922Y-44890524D01*
X95965921Y-44890523D01*
X95921359Y-44858147D01*
X95921350Y-44858141D01*
X95739031Y-44765244D01*
X95544417Y-44702009D01*
X95342317Y-44670000D01*
X95137683Y-44670000D01*
X94935582Y-44702009D01*
X94740968Y-44765244D01*
X94558644Y-44858143D01*
X94514077Y-44890523D01*
X94514077Y-44890524D01*
X95110591Y-45487037D01*
X95047007Y-45504075D01*
X94932993Y-45569901D01*
X94839901Y-45662993D01*
X94774075Y-45777007D01*
X94757037Y-45840590D01*
X94160524Y-45244077D01*
X94160523Y-45244077D01*
X94128143Y-45288645D01*
X94128141Y-45288648D01*
X94084503Y-45374292D01*
X94036529Y-45425087D01*
X93968707Y-45441882D01*
X93902573Y-45419344D01*
X93864661Y-45376449D01*
X93829265Y-45310228D01*
X93829263Y-45310226D01*
X93829259Y-45310217D01*
X93828412Y-45308949D01*
X93741721Y-45179206D01*
X93741712Y-45179194D01*
X93741709Y-45179189D01*
X93678843Y-45102588D01*
X93567412Y-44991157D01*
X93490811Y-44928291D01*
X93490804Y-44928286D01*
X93490793Y-44928278D01*
X93359799Y-44840751D01*
X93359771Y-44840734D01*
X93272396Y-44794031D01*
X93272391Y-44794029D01*
X93244234Y-44782366D01*
X93201781Y-44764781D01*
X93126799Y-44733722D01*
X93101190Y-44725954D01*
X93031968Y-44704956D01*
X92877410Y-44674213D01*
X92877406Y-44674212D01*
X92877398Y-44674211D01*
X92797926Y-44666384D01*
X92778793Y-44664500D01*
X92621207Y-44664500D01*
X92602073Y-44666384D01*
X92522602Y-44674211D01*
X92522599Y-44674211D01*
X92385296Y-44701522D01*
X92368032Y-44704956D01*
X92324416Y-44718186D01*
X92273200Y-44733722D01*
X92127608Y-44794029D01*
X92127603Y-44794031D01*
X92040228Y-44840734D01*
X92040200Y-44840751D01*
X91909206Y-44928278D01*
X91909194Y-44928287D01*
X91909189Y-44928290D01*
X91909189Y-44928291D01*
X91832588Y-44991157D01*
X91832585Y-44991160D01*
X91832582Y-44991162D01*
X91721162Y-45102582D01*
X91721160Y-45102585D01*
X91721157Y-45102588D01*
X91704585Y-45122781D01*
X91658287Y-45179194D01*
X91658278Y-45179206D01*
X91570751Y-45310200D01*
X91570734Y-45310228D01*
X91535624Y-45375914D01*
X91486661Y-45425757D01*
X91418524Y-45441217D01*
X91352844Y-45417384D01*
X91315782Y-45373754D01*
X91283408Y-45310217D01*
X91272287Y-45288390D01*
X91272285Y-45288387D01*
X91272284Y-45288385D01*
X91151971Y-45122786D01*
X91007213Y-44978028D01*
X90841613Y-44857715D01*
X90841612Y-44857714D01*
X90841610Y-44857713D01*
X90756076Y-44814131D01*
X90659223Y-44764781D01*
X90464534Y-44701522D01*
X90289995Y-44673878D01*
X90262352Y-44669500D01*
X90057648Y-44669500D01*
X90033329Y-44673351D01*
X89855465Y-44701522D01*
X89660776Y-44764781D01*
X89478386Y-44857715D01*
X89312786Y-44978028D01*
X89168028Y-45122786D01*
X89047715Y-45288386D01*
X89000485Y-45381080D01*
X88952510Y-45431876D01*
X88884689Y-45448671D01*
X88818554Y-45426134D01*
X88779515Y-45381080D01*
X88775392Y-45372989D01*
X88732287Y-45288390D01*
X88704759Y-45250500D01*
X88611971Y-45122786D01*
X88467213Y-44978028D01*
X88301613Y-44857715D01*
X88301612Y-44857714D01*
X88301610Y-44857713D01*
X88216076Y-44814131D01*
X88119223Y-44764781D01*
X87924534Y-44701522D01*
X87749995Y-44673878D01*
X87722352Y-44669500D01*
X87517648Y-44669500D01*
X87493329Y-44673351D01*
X87315465Y-44701522D01*
X87120776Y-44764781D01*
X86938386Y-44857715D01*
X86772786Y-44978028D01*
X86628028Y-45122786D01*
X86507715Y-45288386D01*
X86460485Y-45381080D01*
X86412510Y-45431876D01*
X86344689Y-45448671D01*
X86278554Y-45426134D01*
X86239515Y-45381080D01*
X86235392Y-45372989D01*
X86192287Y-45288390D01*
X86164759Y-45250500D01*
X86071971Y-45122786D01*
X85927213Y-44978028D01*
X85761613Y-44857715D01*
X85761612Y-44857714D01*
X85761610Y-44857713D01*
X85676076Y-44814131D01*
X85579223Y-44764781D01*
X85384534Y-44701522D01*
X85209995Y-44673878D01*
X85182352Y-44669500D01*
X84977648Y-44669500D01*
X84953329Y-44673351D01*
X84775465Y-44701522D01*
X84580776Y-44764781D01*
X84398386Y-44857715D01*
X84232786Y-44978028D01*
X84088028Y-45122786D01*
X83967715Y-45288386D01*
X83920485Y-45381080D01*
X83872510Y-45431876D01*
X83804689Y-45448671D01*
X83738554Y-45426134D01*
X83699515Y-45381080D01*
X83695392Y-45372989D01*
X83652287Y-45288390D01*
X83624759Y-45250500D01*
X83531971Y-45122786D01*
X83387213Y-44978028D01*
X83221613Y-44857715D01*
X83221612Y-44857714D01*
X83221610Y-44857713D01*
X83136076Y-44814131D01*
X83039223Y-44764781D01*
X82844534Y-44701522D01*
X82669995Y-44673878D01*
X82642352Y-44669500D01*
X82437648Y-44669500D01*
X82413329Y-44673351D01*
X82235465Y-44701522D01*
X82040776Y-44764781D01*
X81858386Y-44857715D01*
X81692786Y-44978028D01*
X81548028Y-45122786D01*
X81427713Y-45288388D01*
X81384216Y-45373755D01*
X81336241Y-45424550D01*
X81268420Y-45441345D01*
X81202286Y-45418807D01*
X81164374Y-45375912D01*
X81129265Y-45310228D01*
X81129263Y-45310226D01*
X81129259Y-45310217D01*
X81128412Y-45308949D01*
X81041721Y-45179206D01*
X81041712Y-45179194D01*
X81041709Y-45179189D01*
X80978843Y-45102588D01*
X80867412Y-44991157D01*
X80790811Y-44928291D01*
X80790804Y-44928286D01*
X80790793Y-44928278D01*
X80659799Y-44840751D01*
X80659771Y-44840734D01*
X80572396Y-44794031D01*
X80572391Y-44794029D01*
X80544234Y-44782366D01*
X80501781Y-44764781D01*
X80426799Y-44733722D01*
X80401190Y-44725954D01*
X80331968Y-44704956D01*
X80177410Y-44674213D01*
X80177406Y-44674212D01*
X80177398Y-44674211D01*
X80097926Y-44666384D01*
X80078793Y-44664500D01*
X79921207Y-44664500D01*
X79902073Y-44666384D01*
X79822602Y-44674211D01*
X79822599Y-44674211D01*
X79685296Y-44701522D01*
X79668032Y-44704956D01*
X79624416Y-44718186D01*
X79573200Y-44733722D01*
X79427608Y-44794029D01*
X79427603Y-44794031D01*
X79340228Y-44840734D01*
X79340200Y-44840751D01*
X79209206Y-44928278D01*
X79209194Y-44928287D01*
X79209189Y-44928290D01*
X79209189Y-44928291D01*
X79132588Y-44991157D01*
X79132585Y-44991160D01*
X79132582Y-44991162D01*
X79021162Y-45102582D01*
X79021160Y-45102585D01*
X79021157Y-45102588D01*
X79004585Y-45122781D01*
X78958287Y-45179194D01*
X78958278Y-45179206D01*
X78870751Y-45310200D01*
X78870734Y-45310228D01*
X78835624Y-45375914D01*
X78786661Y-45425757D01*
X78718524Y-45441217D01*
X78652844Y-45417384D01*
X78615782Y-45373754D01*
X78583408Y-45310217D01*
X78572287Y-45288390D01*
X78572285Y-45288387D01*
X78572284Y-45288385D01*
X78451971Y-45122786D01*
X78307213Y-44978028D01*
X78141613Y-44857715D01*
X78141612Y-44857714D01*
X78141610Y-44857713D01*
X78056076Y-44814131D01*
X77959223Y-44764781D01*
X77764534Y-44701522D01*
X77589995Y-44673878D01*
X77562352Y-44669500D01*
X77357648Y-44669500D01*
X77333329Y-44673351D01*
X77155465Y-44701522D01*
X76960776Y-44764781D01*
X76778386Y-44857715D01*
X76612786Y-44978028D01*
X76468028Y-45122786D01*
X76347715Y-45288386D01*
X76300485Y-45381080D01*
X76252510Y-45431876D01*
X76184689Y-45448671D01*
X76118554Y-45426134D01*
X76079515Y-45381080D01*
X76075392Y-45372989D01*
X76032287Y-45288390D01*
X76004759Y-45250500D01*
X75911971Y-45122786D01*
X75767213Y-44978028D01*
X75601613Y-44857715D01*
X75601612Y-44857714D01*
X75601610Y-44857713D01*
X75516076Y-44814131D01*
X75419223Y-44764781D01*
X75224534Y-44701522D01*
X75049995Y-44673878D01*
X75022352Y-44669500D01*
X74817648Y-44669500D01*
X74793329Y-44673351D01*
X74615465Y-44701522D01*
X74420776Y-44764781D01*
X74238386Y-44857715D01*
X74072786Y-44978028D01*
X73928028Y-45122786D01*
X73807715Y-45288386D01*
X73760485Y-45381080D01*
X73712510Y-45431876D01*
X73644689Y-45448671D01*
X73578554Y-45426134D01*
X73539515Y-45381080D01*
X73535392Y-45372989D01*
X73492287Y-45288390D01*
X73464759Y-45250500D01*
X73371971Y-45122786D01*
X73227213Y-44978028D01*
X73061613Y-44857715D01*
X73061612Y-44857714D01*
X73061610Y-44857713D01*
X72976076Y-44814131D01*
X72879223Y-44764781D01*
X72684534Y-44701522D01*
X72509995Y-44673878D01*
X72482352Y-44669500D01*
X72277648Y-44669500D01*
X72253329Y-44673351D01*
X72075465Y-44701522D01*
X71880776Y-44764781D01*
X71698386Y-44857715D01*
X71532786Y-44978028D01*
X71388028Y-45122786D01*
X71267715Y-45288386D01*
X71220485Y-45381080D01*
X71172510Y-45431876D01*
X71104689Y-45448671D01*
X71038554Y-45426134D01*
X70999515Y-45381080D01*
X70995392Y-45372989D01*
X70952287Y-45288390D01*
X70924759Y-45250500D01*
X70831971Y-45122786D01*
X70687213Y-44978028D01*
X70521613Y-44857715D01*
X70521612Y-44857714D01*
X70521610Y-44857713D01*
X70436076Y-44814131D01*
X70339223Y-44764781D01*
X70144534Y-44701522D01*
X69969995Y-44673878D01*
X69942352Y-44669500D01*
X69737648Y-44669500D01*
X69713329Y-44673351D01*
X69535465Y-44701522D01*
X69340776Y-44764781D01*
X69158386Y-44857715D01*
X68992786Y-44978028D01*
X68848028Y-45122786D01*
X68727713Y-45288388D01*
X68684216Y-45373755D01*
X68636241Y-45424550D01*
X68568420Y-45441345D01*
X68502286Y-45418807D01*
X68464374Y-45375912D01*
X68429265Y-45310228D01*
X68429263Y-45310226D01*
X68429259Y-45310217D01*
X68428412Y-45308949D01*
X68341721Y-45179206D01*
X68341712Y-45179194D01*
X68341709Y-45179189D01*
X68278843Y-45102588D01*
X68167412Y-44991157D01*
X68090811Y-44928291D01*
X68090804Y-44928286D01*
X68090793Y-44928278D01*
X67959799Y-44840751D01*
X67959771Y-44840734D01*
X67872396Y-44794031D01*
X67872391Y-44794029D01*
X67844234Y-44782366D01*
X67801781Y-44764781D01*
X67726799Y-44733722D01*
X67701190Y-44725954D01*
X67631968Y-44704956D01*
X67477410Y-44674213D01*
X67477406Y-44674212D01*
X67477398Y-44674211D01*
X67397926Y-44666384D01*
X67378793Y-44664500D01*
X67221207Y-44664500D01*
X67202073Y-44666384D01*
X67122602Y-44674211D01*
X67122599Y-44674211D01*
X66985296Y-44701522D01*
X66968032Y-44704956D01*
X66924416Y-44718186D01*
X66873200Y-44733722D01*
X66727608Y-44794029D01*
X66727603Y-44794031D01*
X66640228Y-44840734D01*
X66640200Y-44840751D01*
X66509206Y-44928278D01*
X66509194Y-44928287D01*
X66509189Y-44928290D01*
X66509189Y-44928291D01*
X66432588Y-44991157D01*
X66432585Y-44991160D01*
X66432582Y-44991162D01*
X66321162Y-45102582D01*
X66321160Y-45102585D01*
X66321157Y-45102588D01*
X66304585Y-45122781D01*
X66258287Y-45179194D01*
X66258278Y-45179206D01*
X66170751Y-45310200D01*
X66170734Y-45310228D01*
X66135624Y-45375914D01*
X66086661Y-45425757D01*
X66018524Y-45441217D01*
X65952844Y-45417384D01*
X65915782Y-45373754D01*
X65883408Y-45310217D01*
X65872287Y-45288390D01*
X65872285Y-45288387D01*
X65872284Y-45288385D01*
X65751971Y-45122786D01*
X65607213Y-44978028D01*
X65441613Y-44857715D01*
X65441612Y-44857714D01*
X65441610Y-44857713D01*
X65356076Y-44814131D01*
X65259223Y-44764781D01*
X65064534Y-44701522D01*
X64889995Y-44673878D01*
X64862352Y-44669500D01*
X64657648Y-44669500D01*
X64633329Y-44673351D01*
X64455465Y-44701522D01*
X64260776Y-44764781D01*
X64078386Y-44857715D01*
X63912786Y-44978028D01*
X63768028Y-45122786D01*
X63647715Y-45288386D01*
X63600485Y-45381080D01*
X63552510Y-45431876D01*
X63484689Y-45448671D01*
X63418554Y-45426134D01*
X63379515Y-45381080D01*
X63375392Y-45372989D01*
X63332287Y-45288390D01*
X63304759Y-45250500D01*
X63211971Y-45122786D01*
X63067213Y-44978028D01*
X62901613Y-44857715D01*
X62901612Y-44857714D01*
X62901610Y-44857713D01*
X62816076Y-44814131D01*
X62719223Y-44764781D01*
X62524534Y-44701522D01*
X62349995Y-44673878D01*
X62322352Y-44669500D01*
X62117648Y-44669500D01*
X62093329Y-44673351D01*
X61915465Y-44701522D01*
X61720776Y-44764781D01*
X61538386Y-44857715D01*
X61372786Y-44978028D01*
X61228028Y-45122786D01*
X61107715Y-45288386D01*
X61060485Y-45381080D01*
X61012510Y-45431876D01*
X60944689Y-45448671D01*
X60878554Y-45426134D01*
X60839515Y-45381080D01*
X60835392Y-45372989D01*
X60792287Y-45288390D01*
X60764759Y-45250500D01*
X60671971Y-45122786D01*
X60527213Y-44978028D01*
X60361613Y-44857715D01*
X60361612Y-44857714D01*
X60361610Y-44857713D01*
X60276076Y-44814131D01*
X60179223Y-44764781D01*
X59984534Y-44701522D01*
X59809995Y-44673878D01*
X59782352Y-44669500D01*
X59577648Y-44669500D01*
X59553329Y-44673351D01*
X59375465Y-44701522D01*
X59180776Y-44764781D01*
X58998386Y-44857715D01*
X58832786Y-44978028D01*
X58688028Y-45122786D01*
X58567715Y-45288386D01*
X58520485Y-45381080D01*
X58472510Y-45431876D01*
X58404689Y-45448671D01*
X58338554Y-45426134D01*
X58299515Y-45381080D01*
X58295392Y-45372989D01*
X58252287Y-45288390D01*
X58224759Y-45250500D01*
X58131971Y-45122786D01*
X57987213Y-44978028D01*
X57821613Y-44857715D01*
X57821612Y-44857714D01*
X57821610Y-44857713D01*
X57736076Y-44814131D01*
X57639223Y-44764781D01*
X57444534Y-44701522D01*
X57269995Y-44673878D01*
X57242352Y-44669500D01*
X57037648Y-44669500D01*
X57013329Y-44673351D01*
X56835465Y-44701522D01*
X56640776Y-44764781D01*
X56458386Y-44857715D01*
X56292786Y-44978028D01*
X56148028Y-45122786D01*
X56027713Y-45288388D01*
X55984216Y-45373755D01*
X55936241Y-45424550D01*
X55868420Y-45441345D01*
X55802286Y-45418807D01*
X55764374Y-45375912D01*
X55729265Y-45310228D01*
X55729263Y-45310226D01*
X55729259Y-45310217D01*
X55728412Y-45308949D01*
X55641721Y-45179206D01*
X55641712Y-45179194D01*
X55641709Y-45179189D01*
X55578843Y-45102588D01*
X55467412Y-44991157D01*
X55390811Y-44928291D01*
X55390804Y-44928286D01*
X55390793Y-44928278D01*
X55259799Y-44840751D01*
X55259771Y-44840734D01*
X55172396Y-44794031D01*
X55172391Y-44794029D01*
X55144234Y-44782366D01*
X55101781Y-44764781D01*
X55026799Y-44733722D01*
X55001190Y-44725954D01*
X54931968Y-44704956D01*
X54777410Y-44674213D01*
X54777406Y-44674212D01*
X54777398Y-44674211D01*
X54697926Y-44666384D01*
X54678793Y-44664500D01*
X54521207Y-44664500D01*
X54502073Y-44666384D01*
X54422602Y-44674211D01*
X54422599Y-44674211D01*
X54285296Y-44701522D01*
X54268032Y-44704956D01*
X54224416Y-44718186D01*
X54173200Y-44733722D01*
X54027608Y-44794029D01*
X54027603Y-44794031D01*
X53940228Y-44840734D01*
X53940200Y-44840751D01*
X53809206Y-44928278D01*
X53809194Y-44928287D01*
X53809189Y-44928290D01*
X53809189Y-44928291D01*
X53732588Y-44991157D01*
X53732585Y-44991160D01*
X53732582Y-44991162D01*
X53621162Y-45102582D01*
X53621160Y-45102585D01*
X53621157Y-45102588D01*
X53604585Y-45122781D01*
X53558287Y-45179194D01*
X53558278Y-45179206D01*
X53470751Y-45310200D01*
X53470734Y-45310228D01*
X53435624Y-45375914D01*
X53386661Y-45425757D01*
X53318524Y-45441217D01*
X53252844Y-45417384D01*
X53215782Y-45373754D01*
X53183408Y-45310217D01*
X53172287Y-45288390D01*
X53172285Y-45288387D01*
X53172284Y-45288385D01*
X53051971Y-45122786D01*
X52907213Y-44978028D01*
X52741613Y-44857715D01*
X52741612Y-44857714D01*
X52741610Y-44857713D01*
X52611231Y-44791281D01*
X52579845Y-44768477D01*
X52273549Y-44462181D01*
X52240064Y-44400858D01*
X52245048Y-44331166D01*
X52286920Y-44275233D01*
X52352384Y-44250816D01*
X52361230Y-44250500D01*
X63823920Y-44250500D01*
X63921462Y-44231096D01*
X63968913Y-44221658D01*
X64105495Y-44165084D01*
X64154729Y-44132186D01*
X64228416Y-44082952D01*
X65332952Y-42978415D01*
X65387597Y-42896632D01*
X65415084Y-42855495D01*
X65447042Y-42778342D01*
X65471659Y-42718912D01*
X65500500Y-42573917D01*
X65500500Y-42426082D01*
X65500500Y-40874000D01*
X65520185Y-40806961D01*
X65572989Y-40761206D01*
X65624500Y-40750000D01*
X69637270Y-40750000D01*
X69704309Y-40769685D01*
G37*
%TD.AperFunction*%
%TA.AperFunction,Conductor*%
G36*
X29918833Y-52245046D02*
G01*
X29974767Y-52286917D01*
X29999184Y-52352382D01*
X29999500Y-52361228D01*
X29999500Y-52900001D01*
X29999501Y-52900019D01*
X30010000Y-53002796D01*
X30010001Y-53002799D01*
X30034859Y-53077813D01*
X30065186Y-53169334D01*
X30157287Y-53318655D01*
X30157289Y-53318657D01*
X30281344Y-53442712D01*
X30436120Y-53538178D01*
X30482845Y-53590126D01*
X30494068Y-53659088D01*
X30466224Y-53723171D01*
X30458706Y-53731398D01*
X30319889Y-53870215D01*
X30194951Y-54042179D01*
X30098444Y-54231585D01*
X30032753Y-54433760D01*
X29999500Y-54643713D01*
X29999500Y-54856286D01*
X30025991Y-55023548D01*
X30032754Y-55066243D01*
X30086796Y-55232567D01*
X30098444Y-55268414D01*
X30194951Y-55457820D01*
X30319890Y-55629786D01*
X30470209Y-55780105D01*
X30470214Y-55780109D01*
X30634793Y-55899682D01*
X30677459Y-55955011D01*
X30683438Y-56024625D01*
X30650833Y-56086420D01*
X30634793Y-56100318D01*
X30470214Y-56219890D01*
X30470209Y-56219894D01*
X30319890Y-56370213D01*
X30194951Y-56542179D01*
X30098444Y-56731585D01*
X30032753Y-56933760D01*
X29999500Y-57143713D01*
X29999500Y-57356286D01*
X30018890Y-57478713D01*
X30032754Y-57566243D01*
X30087812Y-57735694D01*
X30098444Y-57768414D01*
X30194951Y-57957820D01*
X30319890Y-58129786D01*
X30470213Y-58280109D01*
X30642179Y-58405048D01*
X30642181Y-58405049D01*
X30642184Y-58405051D01*
X30831588Y-58501557D01*
X31033757Y-58567246D01*
X31201545Y-58593821D01*
X31209079Y-58597392D01*
X31217417Y-58597416D01*
X31240179Y-58612135D01*
X31264680Y-58623750D01*
X31269088Y-58630829D01*
X31276088Y-58635356D01*
X31287279Y-58660044D01*
X31301611Y-58683062D01*
X31301491Y-58691399D01*
X31304934Y-58698993D01*
X31301000Y-58725816D01*
X31300613Y-58752924D01*
X31296005Y-58759872D01*
X31294796Y-58768123D01*
X31276983Y-58788563D01*
X31262003Y-58811157D01*
X31253180Y-58815877D01*
X31248892Y-58820798D01*
X31216747Y-58835369D01*
X31202272Y-58839575D01*
X31167672Y-58844500D01*
X30293580Y-58844500D01*
X30148592Y-58873340D01*
X30148582Y-58873343D01*
X30012011Y-58929912D01*
X30011998Y-58929919D01*
X29889084Y-59012048D01*
X29889080Y-59012051D01*
X29562950Y-59338181D01*
X29501627Y-59371666D01*
X29475269Y-59374500D01*
X28974998Y-59374500D01*
X28974980Y-59374501D01*
X28872203Y-59385000D01*
X28872200Y-59385001D01*
X28705668Y-59440185D01*
X28705663Y-59440187D01*
X28556345Y-59532287D01*
X28484045Y-59604587D01*
X28422721Y-59638071D01*
X28353030Y-59633086D01*
X28327473Y-59620007D01*
X28261419Y-59575871D01*
X28261416Y-59575869D01*
X28261414Y-59575868D01*
X28261411Y-59575866D01*
X28261406Y-59575864D01*
X28079339Y-59500450D01*
X28079329Y-59500447D01*
X27886043Y-59462000D01*
X27886041Y-59462000D01*
X27688959Y-59462000D01*
X27688957Y-59462000D01*
X27495670Y-59500447D01*
X27495660Y-59500450D01*
X27313592Y-59575864D01*
X27313579Y-59575871D01*
X27149718Y-59685360D01*
X27149714Y-59685363D01*
X27010363Y-59824714D01*
X27010360Y-59824718D01*
X26900871Y-59988579D01*
X26900864Y-59988592D01*
X26825450Y-60170660D01*
X26825447Y-60170670D01*
X26787000Y-60363956D01*
X26787000Y-60363959D01*
X26787000Y-60561041D01*
X26787000Y-60561043D01*
X26786999Y-60561043D01*
X26825447Y-60754329D01*
X26825450Y-60754339D01*
X26900864Y-60936407D01*
X26900871Y-60936420D01*
X27010360Y-61100281D01*
X27010363Y-61100285D01*
X27149714Y-61239636D01*
X27149718Y-61239639D01*
X27313579Y-61349128D01*
X27313592Y-61349135D01*
X27459746Y-61409673D01*
X27495665Y-61424551D01*
X27495669Y-61424551D01*
X27495670Y-61424552D01*
X27688956Y-61463000D01*
X27688959Y-61463000D01*
X27886043Y-61463000D01*
X28016082Y-61437132D01*
X28079335Y-61424551D01*
X28261414Y-61349132D01*
X28327472Y-61304992D01*
X28356022Y-61296052D01*
X28383732Y-61284739D01*
X28389018Y-61285720D01*
X28394149Y-61284114D01*
X28423003Y-61292029D01*
X28452428Y-61297492D01*
X28458218Y-61301689D01*
X28461529Y-61302598D01*
X28481317Y-61317767D01*
X28482695Y-61319063D01*
X28556344Y-61392712D01*
X28569878Y-61401059D01*
X28579036Y-61409673D01*
X28590608Y-61429404D01*
X28605905Y-61446411D01*
X28607948Y-61458967D01*
X28614385Y-61469942D01*
X28613452Y-61492799D01*
X28617126Y-61515374D01*
X28612056Y-61527041D01*
X28611538Y-61539753D01*
X28598398Y-61558475D01*
X28589282Y-61579456D01*
X28574970Y-61591856D01*
X28571400Y-61596944D01*
X28567048Y-61598720D01*
X28559182Y-61605537D01*
X28556346Y-61607285D01*
X28432289Y-61731342D01*
X28340187Y-61880663D01*
X28340185Y-61880668D01*
X28327382Y-61919306D01*
X28285001Y-62047203D01*
X28285001Y-62047204D01*
X28285000Y-62047204D01*
X28274500Y-62149983D01*
X28274500Y-62925001D01*
X28274501Y-62925019D01*
X28285000Y-63027796D01*
X28285001Y-63027799D01*
X28325291Y-63149384D01*
X28340186Y-63194334D01*
X28432288Y-63343656D01*
X28556344Y-63467712D01*
X28705666Y-63559814D01*
X28872203Y-63614999D01*
X28974991Y-63625500D01*
X29475270Y-63625499D01*
X29542309Y-63645183D01*
X29562951Y-63661818D01*
X29784549Y-63883416D01*
X29853098Y-63951965D01*
X29889085Y-63987952D01*
X30011998Y-64070080D01*
X30012011Y-64070087D01*
X30148582Y-64126656D01*
X30148587Y-64126658D01*
X30148591Y-64126658D01*
X30148592Y-64126659D01*
X30293579Y-64155500D01*
X30293582Y-64155500D01*
X31167672Y-64155500D01*
X31202267Y-64160424D01*
X31347426Y-64202597D01*
X31347429Y-64202597D01*
X31347431Y-64202598D01*
X31384306Y-64205500D01*
X31384314Y-64205500D01*
X33165686Y-64205500D01*
X33165694Y-64205500D01*
X33202569Y-64202598D01*
X33202571Y-64202597D01*
X33202573Y-64202597D01*
X33347733Y-64160424D01*
X33382328Y-64155500D01*
X34918920Y-64155500D01*
X35016462Y-64136096D01*
X35063913Y-64126658D01*
X35200495Y-64070084D01*
X35258858Y-64031087D01*
X35323416Y-63987952D01*
X35581945Y-63729422D01*
X35643265Y-63695939D01*
X35712957Y-63700923D01*
X35768891Y-63742794D01*
X35788700Y-63782509D01*
X35798254Y-63815394D01*
X35798255Y-63815396D01*
X35798256Y-63815398D01*
X35835681Y-63878681D01*
X35881917Y-63956862D01*
X35881923Y-63956870D01*
X35998129Y-64073076D01*
X35998133Y-64073079D01*
X35998135Y-64073081D01*
X36139602Y-64156744D01*
X36152269Y-64160424D01*
X36297426Y-64202597D01*
X36297429Y-64202597D01*
X36297431Y-64202598D01*
X36334306Y-64205500D01*
X36912770Y-64205500D01*
X36979809Y-64225185D01*
X37000451Y-64241819D01*
X37248617Y-64489984D01*
X37487048Y-64728415D01*
X37487049Y-64728416D01*
X37543818Y-64785185D01*
X37591585Y-64832952D01*
X37714498Y-64915080D01*
X37714511Y-64915087D01*
X37811054Y-64955076D01*
X37851087Y-64971658D01*
X37851091Y-64971658D01*
X37851092Y-64971659D01*
X37996079Y-65000500D01*
X37996082Y-65000500D01*
X38332351Y-65000500D01*
X38399390Y-65020185D01*
X38445145Y-65072989D01*
X38455089Y-65142147D01*
X38453969Y-65148690D01*
X38449500Y-65171158D01*
X38449500Y-65328846D01*
X38480261Y-65483489D01*
X38480263Y-65483497D01*
X38490061Y-65507151D01*
X38499500Y-65554604D01*
X38499500Y-66073918D01*
X38499500Y-66073920D01*
X38499499Y-66073920D01*
X38528340Y-66218907D01*
X38528343Y-66218917D01*
X38584913Y-66355490D01*
X38584914Y-66355492D01*
X38584915Y-66355494D01*
X38584916Y-66355495D01*
X38610982Y-66394505D01*
X38667048Y-66478416D01*
X38731107Y-66542475D01*
X38735246Y-66547601D01*
X38746222Y-66574028D01*
X38759936Y-66599142D01*
X38759453Y-66605883D01*
X38762047Y-66612126D01*
X38756993Y-66640290D01*
X38754952Y-66668834D01*
X38750900Y-66674246D01*
X38749707Y-66680897D01*
X38730230Y-66701856D01*
X38713080Y-66724767D01*
X38706747Y-66727128D01*
X38702146Y-66732081D01*
X38674424Y-66739184D01*
X38647616Y-66749184D01*
X38638770Y-66749500D01*
X23362229Y-66749500D01*
X23295190Y-66729815D01*
X23274548Y-66713181D01*
X21786819Y-65225451D01*
X21753334Y-65164128D01*
X21750500Y-65137770D01*
X21750500Y-63902486D01*
X22749500Y-63902486D01*
X22749500Y-64197513D01*
X22777447Y-64409783D01*
X22788007Y-64489993D01*
X22855524Y-64741971D01*
X22864361Y-64774951D01*
X22864364Y-64774961D01*
X22977254Y-65047500D01*
X22977258Y-65047510D01*
X23124761Y-65302993D01*
X23304352Y-65537040D01*
X23304358Y-65537047D01*
X23512952Y-65745641D01*
X23512959Y-65745647D01*
X23747006Y-65925238D01*
X24002489Y-66072741D01*
X24002490Y-66072741D01*
X24002493Y-66072743D01*
X24275048Y-66185639D01*
X24560007Y-66261993D01*
X24852494Y-66300500D01*
X24852501Y-66300500D01*
X25147499Y-66300500D01*
X25147506Y-66300500D01*
X25439993Y-66261993D01*
X25724952Y-66185639D01*
X25997507Y-66072743D01*
X26252994Y-65925238D01*
X26487042Y-65745646D01*
X26695646Y-65537042D01*
X26875238Y-65302994D01*
X27022743Y-65047507D01*
X27135639Y-64774952D01*
X27211993Y-64489993D01*
X27250500Y-64197506D01*
X27250500Y-63902494D01*
X27211993Y-63610007D01*
X27135639Y-63325048D01*
X27022743Y-63052493D01*
X27008484Y-63027796D01*
X26875238Y-62797006D01*
X26695647Y-62562959D01*
X26695641Y-62562952D01*
X26487047Y-62354358D01*
X26487040Y-62354352D01*
X26252993Y-62174761D01*
X25997510Y-62027258D01*
X25997500Y-62027254D01*
X25724961Y-61914364D01*
X25724954Y-61914362D01*
X25724952Y-61914361D01*
X25439993Y-61838007D01*
X25391113Y-61831571D01*
X25147513Y-61799500D01*
X25147506Y-61799500D01*
X24852494Y-61799500D01*
X24852486Y-61799500D01*
X24574085Y-61836153D01*
X24560007Y-61838007D01*
X24323054Y-61901498D01*
X24275048Y-61914361D01*
X24275038Y-61914364D01*
X24002499Y-62027254D01*
X24002489Y-62027258D01*
X23747006Y-62174761D01*
X23512959Y-62354352D01*
X23512952Y-62354358D01*
X23304358Y-62562952D01*
X23304352Y-62562959D01*
X23124761Y-62797006D01*
X22977258Y-63052489D01*
X22977254Y-63052499D01*
X22864364Y-63325038D01*
X22864361Y-63325048D01*
X22788008Y-63610004D01*
X22788006Y-63610015D01*
X22749500Y-63902486D01*
X21750500Y-63902486D01*
X21750500Y-52611229D01*
X21770185Y-52544190D01*
X21822989Y-52498435D01*
X21892147Y-52488491D01*
X21955703Y-52517516D01*
X21962181Y-52523548D01*
X22667049Y-53228416D01*
X22728681Y-53290048D01*
X22771585Y-53332952D01*
X22894498Y-53415080D01*
X22894511Y-53415087D01*
X22917468Y-53424595D01*
X22937164Y-53432754D01*
X23031088Y-53471659D01*
X23144943Y-53494306D01*
X23176082Y-53500500D01*
X28323920Y-53500500D01*
X28421462Y-53481096D01*
X28468913Y-53471658D01*
X28605495Y-53415084D01*
X28696157Y-53354506D01*
X28696159Y-53354505D01*
X28728409Y-53332957D01*
X28728410Y-53332955D01*
X28728416Y-53332952D01*
X29787821Y-52273545D01*
X29849142Y-52240062D01*
X29918833Y-52245046D01*
G37*
%TD.AperFunction*%
%TA.AperFunction,Conductor*%
G36*
X44168834Y-58495047D02*
G01*
X44224767Y-58536919D01*
X44249184Y-58602383D01*
X44249500Y-58611229D01*
X44249500Y-61637769D01*
X44229815Y-61704808D01*
X44213181Y-61725450D01*
X43086681Y-62851950D01*
X43025358Y-62885435D01*
X42955666Y-62880451D01*
X42899733Y-62838579D01*
X42875316Y-62773115D01*
X42875000Y-62764269D01*
X42875000Y-62750000D01*
X41911500Y-62750000D01*
X41844461Y-62730315D01*
X41798706Y-62677511D01*
X41787500Y-62626000D01*
X41787500Y-62500000D01*
X41661500Y-62500000D01*
X41594461Y-62480315D01*
X41548706Y-62427511D01*
X41537500Y-62376000D01*
X41537500Y-62250000D01*
X42037500Y-62250000D01*
X42874999Y-62250000D01*
X42874999Y-61975028D01*
X42874998Y-61975013D01*
X42864505Y-61872302D01*
X42809358Y-61705880D01*
X42809356Y-61705875D01*
X42717315Y-61556654D01*
X42593345Y-61432684D01*
X42444124Y-61340643D01*
X42444119Y-61340641D01*
X42277697Y-61285494D01*
X42277690Y-61285493D01*
X42174986Y-61275000D01*
X42037500Y-61275000D01*
X42037500Y-62250000D01*
X41537500Y-62250000D01*
X41537500Y-61275000D01*
X41400027Y-61275000D01*
X41400012Y-61275001D01*
X41297302Y-61285494D01*
X41130880Y-61340641D01*
X41130875Y-61340643D01*
X40981654Y-61432684D01*
X40857683Y-61556655D01*
X40857679Y-61556660D01*
X40855826Y-61559665D01*
X40854018Y-61561290D01*
X40853202Y-61562323D01*
X40853025Y-61562183D01*
X40803874Y-61606385D01*
X40734911Y-61617601D01*
X40670831Y-61589752D01*
X40644753Y-61559653D01*
X40644026Y-61558475D01*
X40642712Y-61556344D01*
X40518656Y-61432288D01*
X40425888Y-61375069D01*
X40369336Y-61340187D01*
X40369331Y-61340185D01*
X40352175Y-61334500D01*
X40202797Y-61285001D01*
X40202795Y-61285000D01*
X40100010Y-61274500D01*
X39324998Y-61274500D01*
X39324980Y-61274501D01*
X39222203Y-61285000D01*
X39222200Y-61285001D01*
X39055668Y-61340185D01*
X39055659Y-61340189D01*
X39013751Y-61366039D01*
X38997193Y-61370734D01*
X38983590Y-61379477D01*
X38948655Y-61384500D01*
X38784679Y-61384500D01*
X38717640Y-61364815D01*
X38671885Y-61312011D01*
X38661941Y-61242853D01*
X38665603Y-61225905D01*
X38697099Y-61117494D01*
X38697100Y-61117488D01*
X38697295Y-61115001D01*
X38697295Y-61115000D01*
X37349000Y-61115000D01*
X37281961Y-61095315D01*
X37236206Y-61042511D01*
X37225000Y-60991000D01*
X37225000Y-60739000D01*
X37244685Y-60671961D01*
X37297489Y-60626206D01*
X37349000Y-60615000D01*
X38697295Y-60615000D01*
X38697295Y-60614998D01*
X38697100Y-60612511D01*
X38697099Y-60612505D01*
X38665603Y-60504095D01*
X38665802Y-60434225D01*
X38703744Y-60375555D01*
X38767383Y-60346712D01*
X38784679Y-60345500D01*
X41978920Y-60345500D01*
X42076462Y-60326096D01*
X42123913Y-60316658D01*
X42260495Y-60260084D01*
X42309729Y-60227186D01*
X42383416Y-60177952D01*
X44037819Y-58523547D01*
X44099142Y-58490063D01*
X44168834Y-58495047D01*
G37*
%TD.AperFunction*%
%TA.AperFunction,Conductor*%
G36*
X88907227Y-46495389D02*
G01*
X88919808Y-46494850D01*
X88939673Y-46506445D01*
X88961445Y-46513865D01*
X88970719Y-46524568D01*
X88980150Y-46530073D01*
X89000485Y-46558919D01*
X89047715Y-46651614D01*
X89168028Y-46817213D01*
X89312786Y-46961971D01*
X89433226Y-47049474D01*
X89478390Y-47082287D01*
X89578226Y-47133156D01*
X89660776Y-47175218D01*
X89660778Y-47175218D01*
X89660781Y-47175220D01*
X89757260Y-47206568D01*
X89855465Y-47238477D01*
X89956557Y-47254488D01*
X90057648Y-47270500D01*
X90057649Y-47270500D01*
X90262351Y-47270500D01*
X90262352Y-47270500D01*
X90464534Y-47238477D01*
X90659219Y-47175220D01*
X90841610Y-47082287D01*
X90934590Y-47014732D01*
X91007213Y-46961971D01*
X91007215Y-46961968D01*
X91007219Y-46961966D01*
X91151966Y-46817219D01*
X91207388Y-46740935D01*
X91262718Y-46698270D01*
X91332331Y-46692291D01*
X91394127Y-46724896D01*
X91427855Y-46783155D01*
X91432976Y-46803221D01*
X91432980Y-46803233D01*
X91463419Y-46876719D01*
X91463431Y-46876747D01*
X91486779Y-46925548D01*
X91486782Y-46925553D01*
X91514041Y-46961966D01*
X91573006Y-47040733D01*
X91573010Y-47040737D01*
X91573015Y-47040743D01*
X91629259Y-47096987D01*
X91643818Y-47110065D01*
X91680537Y-47169509D01*
X91679289Y-47239367D01*
X91648637Y-47289994D01*
X91417046Y-47521586D01*
X91396959Y-47551650D01*
X91376045Y-47582951D01*
X91334919Y-47644499D01*
X91334912Y-47644511D01*
X91278343Y-47781082D01*
X91278340Y-47781092D01*
X91249500Y-47926079D01*
X91249500Y-53387770D01*
X91229815Y-53454809D01*
X91213181Y-53475451D01*
X90687951Y-54000681D01*
X90626628Y-54034166D01*
X90600270Y-54037000D01*
X83171248Y-54037000D01*
X83104209Y-54017315D01*
X83084239Y-54001348D01*
X83073569Y-53990839D01*
X83067712Y-53981344D01*
X82943656Y-53857288D01*
X82928416Y-53847888D01*
X82918431Y-53838054D01*
X82907990Y-53819276D01*
X82893618Y-53803297D01*
X82891347Y-53789342D01*
X82884479Y-53776989D01*
X82885848Y-53755541D01*
X82882397Y-53734334D01*
X82888030Y-53721368D01*
X82888931Y-53707261D01*
X82901677Y-53689959D01*
X82910240Y-53670252D01*
X82926708Y-53655982D01*
X82930373Y-53651009D01*
X82934083Y-53649592D01*
X82940348Y-53644165D01*
X82943342Y-53642318D01*
X83067315Y-53518345D01*
X83159356Y-53369124D01*
X83159358Y-53369119D01*
X83214505Y-53202697D01*
X83214506Y-53202690D01*
X83224999Y-53099986D01*
X83225000Y-53099973D01*
X83225000Y-52962500D01*
X82124000Y-52962500D01*
X82056961Y-52942815D01*
X82011206Y-52890011D01*
X82000000Y-52838500D01*
X82000000Y-52712500D01*
X81874000Y-52712500D01*
X81806961Y-52692815D01*
X81761206Y-52640011D01*
X81750000Y-52588500D01*
X81750000Y-52462500D01*
X82250000Y-52462500D01*
X83224999Y-52462500D01*
X83224999Y-52325028D01*
X83224998Y-52325013D01*
X83214505Y-52222302D01*
X83159358Y-52055880D01*
X83159356Y-52055875D01*
X83067315Y-51906654D01*
X82943345Y-51782684D01*
X82794124Y-51690643D01*
X82794119Y-51690641D01*
X82627697Y-51635494D01*
X82627690Y-51635493D01*
X82524986Y-51625000D01*
X82250000Y-51625000D01*
X82250000Y-52462500D01*
X81750000Y-52462500D01*
X81750000Y-51625000D01*
X81475029Y-51625000D01*
X81475012Y-51625001D01*
X81372302Y-51635494D01*
X81205880Y-51690641D01*
X81205875Y-51690643D01*
X81056657Y-51782682D01*
X80971970Y-51867369D01*
X80910646Y-51900853D01*
X80840955Y-51895869D01*
X80796608Y-51867368D01*
X80701561Y-51772321D01*
X80701552Y-51772314D01*
X80560196Y-51688717D01*
X80560193Y-51688716D01*
X80402495Y-51642900D01*
X80402489Y-51642899D01*
X80365649Y-51640000D01*
X79725000Y-51640000D01*
X79725000Y-52316000D01*
X79705315Y-52383039D01*
X79652511Y-52428794D01*
X79601000Y-52440000D01*
X79475000Y-52440000D01*
X79475000Y-52566000D01*
X79455315Y-52633039D01*
X79402511Y-52678794D01*
X79351000Y-52690000D01*
X78002705Y-52690000D01*
X78002704Y-52690001D01*
X78002899Y-52692486D01*
X78048718Y-52850198D01*
X78132314Y-52991552D01*
X78137100Y-52997722D01*
X78134640Y-52999629D01*
X78161210Y-53048288D01*
X78156226Y-53117980D01*
X78135162Y-53150781D01*
X78136699Y-53151974D01*
X78131915Y-53158140D01*
X78048255Y-53299603D01*
X78048254Y-53299606D01*
X78002402Y-53457426D01*
X78002401Y-53457432D01*
X77999500Y-53494298D01*
X77999500Y-53925701D01*
X78002401Y-53962567D01*
X78002402Y-53962573D01*
X78048254Y-54120393D01*
X78048255Y-54120396D01*
X78131917Y-54261862D01*
X78136702Y-54268031D01*
X78134256Y-54269927D01*
X78160857Y-54318642D01*
X78155873Y-54388334D01*
X78145511Y-54409638D01*
X78137812Y-54422241D01*
X78131919Y-54428135D01*
X78062131Y-54546140D01*
X78061650Y-54546928D01*
X78036427Y-54569813D01*
X78011493Y-54593095D01*
X78010586Y-54593259D01*
X78009905Y-54593878D01*
X77976290Y-54599497D01*
X77942751Y-54605598D01*
X77941900Y-54605247D01*
X77940992Y-54605399D01*
X77909674Y-54591953D01*
X77878162Y-54578953D01*
X77877362Y-54578079D01*
X77876790Y-54577834D01*
X77875814Y-54576389D01*
X77852729Y-54551182D01*
X77832953Y-54521586D01*
X77808570Y-54497203D01*
X77728416Y-54417049D01*
X77416855Y-54105488D01*
X76438421Y-53127052D01*
X76438414Y-53127046D01*
X76364729Y-53077812D01*
X76364729Y-53077813D01*
X76315491Y-53044913D01*
X76178917Y-52988343D01*
X76178907Y-52988340D01*
X76058381Y-52964365D01*
X75996470Y-52931979D01*
X75961896Y-52871263D01*
X75963497Y-52808153D01*
X75997099Y-52692494D01*
X75997100Y-52692488D01*
X75997295Y-52690001D01*
X75997295Y-52690000D01*
X73052705Y-52690000D01*
X73052704Y-52690001D01*
X73052899Y-52692486D01*
X73098718Y-52850198D01*
X73182314Y-52991552D01*
X73187100Y-52997722D01*
X73184640Y-52999629D01*
X73211210Y-53048288D01*
X73206226Y-53117980D01*
X73185162Y-53150781D01*
X73186699Y-53151974D01*
X73181915Y-53158140D01*
X73098255Y-53299603D01*
X73098254Y-53299606D01*
X73052402Y-53457426D01*
X73052401Y-53457432D01*
X73049500Y-53494298D01*
X73049500Y-53925701D01*
X73052401Y-53962567D01*
X73052402Y-53962573D01*
X73083876Y-54070905D01*
X73083677Y-54140775D01*
X73045735Y-54199445D01*
X72982096Y-54228288D01*
X72964800Y-54229500D01*
X72140822Y-54229500D01*
X72073783Y-54209815D01*
X72047910Y-54186359D01*
X72047819Y-54186451D01*
X72045956Y-54184588D01*
X72043559Y-54182415D01*
X72042712Y-54181344D01*
X71918657Y-54057289D01*
X71918656Y-54057288D01*
X71811268Y-53991051D01*
X71769336Y-53965187D01*
X71769331Y-53965185D01*
X71767862Y-53964698D01*
X71602797Y-53910001D01*
X71602795Y-53910000D01*
X71500010Y-53899500D01*
X70499998Y-53899500D01*
X70499980Y-53899501D01*
X70397203Y-53910000D01*
X70397200Y-53910001D01*
X70230668Y-53965185D01*
X70230663Y-53965187D01*
X70081342Y-54057289D01*
X69957289Y-54181342D01*
X69865187Y-54330663D01*
X69865186Y-54330666D01*
X69810001Y-54497203D01*
X69810001Y-54497204D01*
X69810000Y-54497204D01*
X69799500Y-54599983D01*
X69799500Y-55400001D01*
X69799501Y-55400019D01*
X69810000Y-55502796D01*
X69810001Y-55502799D01*
X69865185Y-55669331D01*
X69865187Y-55669336D01*
X69900069Y-55725888D01*
X69951834Y-55809814D01*
X69957289Y-55818657D01*
X70050951Y-55912319D01*
X70084436Y-55973642D01*
X70079452Y-56043334D01*
X70050951Y-56087681D01*
X69957289Y-56181342D01*
X69865187Y-56330663D01*
X69865185Y-56330668D01*
X69846062Y-56388379D01*
X69810001Y-56497203D01*
X69810001Y-56497204D01*
X69810000Y-56497204D01*
X69799500Y-56599983D01*
X69799500Y-57400001D01*
X69799501Y-57400019D01*
X69810000Y-57502796D01*
X69810001Y-57502799D01*
X69865185Y-57669331D01*
X69865187Y-57669336D01*
X69900069Y-57725888D01*
X69957288Y-57818656D01*
X70081344Y-57942712D01*
X70190597Y-58010099D01*
X70237321Y-58062047D01*
X70249500Y-58115638D01*
X70249500Y-60823918D01*
X70249500Y-60823920D01*
X70249499Y-60823920D01*
X70278340Y-60968907D01*
X70278343Y-60968917D01*
X70334914Y-61105492D01*
X70334915Y-61105494D01*
X70334916Y-61105495D01*
X70367813Y-61154729D01*
X70417048Y-61228416D01*
X70480857Y-61292225D01*
X70484804Y-61297057D01*
X70496061Y-61323733D01*
X70509935Y-61349142D01*
X70509478Y-61355529D01*
X70511968Y-61361430D01*
X70507016Y-61389951D01*
X70504951Y-61418834D01*
X70501112Y-61423962D01*
X70500017Y-61430270D01*
X70480431Y-61451587D01*
X70463079Y-61474767D01*
X70457078Y-61477004D01*
X70452746Y-61481721D01*
X70424739Y-61489066D01*
X70397615Y-61499184D01*
X70388769Y-61499500D01*
X56774000Y-61499500D01*
X56706961Y-61479815D01*
X56661206Y-61427011D01*
X56650000Y-61375500D01*
X56650000Y-52189998D01*
X73052704Y-52189998D01*
X73052705Y-52190000D01*
X74275000Y-52190000D01*
X74775000Y-52190000D01*
X75997295Y-52190000D01*
X75997295Y-52189998D01*
X78002704Y-52189998D01*
X78002705Y-52190000D01*
X79225000Y-52190000D01*
X79225000Y-51640000D01*
X78584350Y-51640000D01*
X78547510Y-51642899D01*
X78547504Y-51642900D01*
X78389806Y-51688716D01*
X78389803Y-51688717D01*
X78248447Y-51772314D01*
X78248438Y-51772321D01*
X78132321Y-51888438D01*
X78132314Y-51888447D01*
X78048718Y-52029801D01*
X78002899Y-52187513D01*
X78002704Y-52189998D01*
X75997295Y-52189998D01*
X75997100Y-52187513D01*
X75951281Y-52029801D01*
X75867685Y-51888447D01*
X75867678Y-51888438D01*
X75751561Y-51772321D01*
X75751552Y-51772314D01*
X75610196Y-51688717D01*
X75610193Y-51688716D01*
X75452495Y-51642900D01*
X75452489Y-51642899D01*
X75415649Y-51640000D01*
X74775000Y-51640000D01*
X74775000Y-52190000D01*
X74275000Y-52190000D01*
X74275000Y-51640000D01*
X73634350Y-51640000D01*
X73597510Y-51642899D01*
X73597504Y-51642900D01*
X73439806Y-51688716D01*
X73439803Y-51688717D01*
X73298447Y-51772314D01*
X73298438Y-51772321D01*
X73182321Y-51888438D01*
X73182314Y-51888447D01*
X73098718Y-52029801D01*
X73052899Y-52187513D01*
X73052704Y-52189998D01*
X56650000Y-52189998D01*
X56650000Y-47760000D01*
X52310105Y-47760000D01*
X52310104Y-47760000D01*
X48697338Y-52412056D01*
X48640672Y-52452931D01*
X48599402Y-52460000D01*
X47650000Y-52460000D01*
X47650000Y-57260000D01*
X48599402Y-57260000D01*
X48666441Y-57279685D01*
X48697338Y-57307944D01*
X51797120Y-61299444D01*
X51822692Y-61364465D01*
X51809051Y-61432990D01*
X51760529Y-61483263D01*
X51699184Y-61499500D01*
X48862230Y-61499500D01*
X48795191Y-61479815D01*
X48774549Y-61463181D01*
X48036819Y-60725451D01*
X48003334Y-60664128D01*
X48000500Y-60637770D01*
X48000500Y-58676082D01*
X47990239Y-58624499D01*
X47971659Y-58531088D01*
X47931653Y-58434506D01*
X47924847Y-58418076D01*
X47915087Y-58394511D01*
X47915080Y-58394498D01*
X47852272Y-58300500D01*
X47832952Y-58271585D01*
X47832949Y-58271582D01*
X46996071Y-57434703D01*
X46969191Y-57394475D01*
X46959394Y-57370821D01*
X46914945Y-57304298D01*
X46871789Y-57239710D01*
X46760292Y-57128213D01*
X46760288Y-57128210D01*
X46629185Y-57040609D01*
X46629170Y-57040601D01*
X46577046Y-57019010D01*
X46522643Y-56975168D01*
X46500579Y-56908874D01*
X46500500Y-56904450D01*
X46500500Y-47362230D01*
X46520185Y-47295191D01*
X46536819Y-47274549D01*
X47054549Y-46756819D01*
X47115872Y-46723334D01*
X47142230Y-46720500D01*
X48394582Y-46720500D01*
X48461621Y-46740185D01*
X48494900Y-46771615D01*
X48528028Y-46817212D01*
X48528032Y-46817217D01*
X48672786Y-46961971D01*
X48793226Y-47049474D01*
X48838390Y-47082287D01*
X48938226Y-47133156D01*
X49020776Y-47175218D01*
X49020778Y-47175218D01*
X49020781Y-47175220D01*
X49117260Y-47206568D01*
X49215465Y-47238477D01*
X49316557Y-47254488D01*
X49417648Y-47270500D01*
X49417649Y-47270500D01*
X49622351Y-47270500D01*
X49622352Y-47270500D01*
X49824534Y-47238477D01*
X50019219Y-47175220D01*
X50201610Y-47082287D01*
X50294590Y-47014732D01*
X50367213Y-46961971D01*
X50367215Y-46961968D01*
X50367219Y-46961966D01*
X50511966Y-46817219D01*
X50511968Y-46817215D01*
X50511971Y-46817213D01*
X50632284Y-46651614D01*
X50632286Y-46651611D01*
X50632287Y-46651610D01*
X50679516Y-46558917D01*
X50727489Y-46508123D01*
X50795310Y-46491328D01*
X50861445Y-46513865D01*
X50900485Y-46558919D01*
X50947715Y-46651614D01*
X51068028Y-46817213D01*
X51212786Y-46961971D01*
X51333226Y-47049474D01*
X51378390Y-47082287D01*
X51478226Y-47133156D01*
X51560776Y-47175218D01*
X51560778Y-47175218D01*
X51560781Y-47175220D01*
X51657260Y-47206568D01*
X51755465Y-47238477D01*
X51856557Y-47254488D01*
X51957648Y-47270500D01*
X51957649Y-47270500D01*
X52162351Y-47270500D01*
X52162352Y-47270500D01*
X52364534Y-47238477D01*
X52559219Y-47175220D01*
X52741610Y-47082287D01*
X52834590Y-47014732D01*
X52907213Y-46961971D01*
X52907215Y-46961968D01*
X52907219Y-46961966D01*
X53051966Y-46817219D01*
X53107388Y-46740935D01*
X53162718Y-46698270D01*
X53232331Y-46692291D01*
X53294127Y-46724896D01*
X53327855Y-46783155D01*
X53332976Y-46803221D01*
X53332980Y-46803233D01*
X53363419Y-46876719D01*
X53363431Y-46876747D01*
X53386779Y-46925548D01*
X53386782Y-46925553D01*
X53414041Y-46961966D01*
X53473006Y-47040733D01*
X53473010Y-47040737D01*
X53473015Y-47040743D01*
X53529252Y-47096980D01*
X53529260Y-47096987D01*
X53529267Y-47096994D01*
X53569524Y-47133156D01*
X53569532Y-47133162D01*
X53693263Y-47206573D01*
X53693262Y-47206573D01*
X53693279Y-47206580D01*
X53766774Y-47237022D01*
X53817802Y-47255024D01*
X53960218Y-47275500D01*
X53960221Y-47275500D01*
X55239784Y-47275500D01*
X55275804Y-47273569D01*
X55293815Y-47272604D01*
X55433226Y-47237022D01*
X55506735Y-47206574D01*
X55555551Y-47183219D01*
X55670733Y-47096994D01*
X55726994Y-47040733D01*
X55763157Y-47000475D01*
X55836574Y-46876735D01*
X55867022Y-46803226D01*
X55877027Y-46774865D01*
X55917893Y-46718195D01*
X55982911Y-46692614D01*
X56051438Y-46706245D01*
X56094281Y-46743235D01*
X56148028Y-46817213D01*
X56292786Y-46961971D01*
X56413226Y-47049474D01*
X56458390Y-47082287D01*
X56558226Y-47133156D01*
X56640776Y-47175218D01*
X56640778Y-47175218D01*
X56640781Y-47175220D01*
X56737260Y-47206568D01*
X56835465Y-47238477D01*
X56936557Y-47254488D01*
X57037648Y-47270500D01*
X57037649Y-47270500D01*
X57242351Y-47270500D01*
X57242352Y-47270500D01*
X57444534Y-47238477D01*
X57639219Y-47175220D01*
X57821610Y-47082287D01*
X57914590Y-47014732D01*
X57987213Y-46961971D01*
X57987215Y-46961968D01*
X57987219Y-46961966D01*
X58131966Y-46817219D01*
X58131968Y-46817215D01*
X58131971Y-46817213D01*
X58252284Y-46651614D01*
X58252286Y-46651611D01*
X58252287Y-46651610D01*
X58299516Y-46558917D01*
X58347489Y-46508123D01*
X58415310Y-46491328D01*
X58481445Y-46513865D01*
X58520485Y-46558919D01*
X58567715Y-46651614D01*
X58688028Y-46817213D01*
X58832786Y-46961971D01*
X58953226Y-47049474D01*
X58998390Y-47082287D01*
X59098226Y-47133156D01*
X59180776Y-47175218D01*
X59180778Y-47175218D01*
X59180781Y-47175220D01*
X59277260Y-47206568D01*
X59375465Y-47238477D01*
X59476557Y-47254488D01*
X59577648Y-47270500D01*
X59577649Y-47270500D01*
X59782351Y-47270500D01*
X59782352Y-47270500D01*
X59984534Y-47238477D01*
X60179219Y-47175220D01*
X60361610Y-47082287D01*
X60454590Y-47014732D01*
X60527213Y-46961971D01*
X60527215Y-46961968D01*
X60527219Y-46961966D01*
X60671966Y-46817219D01*
X60671968Y-46817215D01*
X60671971Y-46817213D01*
X60792284Y-46651614D01*
X60792286Y-46651611D01*
X60792287Y-46651610D01*
X60839516Y-46558917D01*
X60887489Y-46508123D01*
X60955310Y-46491328D01*
X61021445Y-46513865D01*
X61060485Y-46558919D01*
X61107715Y-46651614D01*
X61228028Y-46817213D01*
X61372786Y-46961971D01*
X61493226Y-47049474D01*
X61538390Y-47082287D01*
X61638226Y-47133156D01*
X61720776Y-47175218D01*
X61720778Y-47175218D01*
X61720781Y-47175220D01*
X61817260Y-47206568D01*
X61915465Y-47238477D01*
X62016557Y-47254488D01*
X62117648Y-47270500D01*
X62117649Y-47270500D01*
X62322351Y-47270500D01*
X62322352Y-47270500D01*
X62524534Y-47238477D01*
X62719219Y-47175220D01*
X62901610Y-47082287D01*
X62994590Y-47014732D01*
X63067213Y-46961971D01*
X63067215Y-46961968D01*
X63067219Y-46961966D01*
X63211966Y-46817219D01*
X63211968Y-46817215D01*
X63211971Y-46817213D01*
X63332284Y-46651614D01*
X63332286Y-46651611D01*
X63332287Y-46651610D01*
X63379516Y-46558917D01*
X63427489Y-46508123D01*
X63495310Y-46491328D01*
X63561445Y-46513865D01*
X63600485Y-46558919D01*
X63647715Y-46651614D01*
X63768028Y-46817213D01*
X63912786Y-46961971D01*
X64033226Y-47049474D01*
X64078390Y-47082287D01*
X64178226Y-47133156D01*
X64260776Y-47175218D01*
X64260778Y-47175218D01*
X64260781Y-47175220D01*
X64357260Y-47206568D01*
X64455465Y-47238477D01*
X64556557Y-47254488D01*
X64657648Y-47270500D01*
X64657649Y-47270500D01*
X64862351Y-47270500D01*
X64862352Y-47270500D01*
X65064534Y-47238477D01*
X65259219Y-47175220D01*
X65441610Y-47082287D01*
X65534590Y-47014732D01*
X65607213Y-46961971D01*
X65607215Y-46961968D01*
X65607219Y-46961966D01*
X65751966Y-46817219D01*
X65807388Y-46740935D01*
X65862718Y-46698270D01*
X65932331Y-46692291D01*
X65994127Y-46724896D01*
X66027855Y-46783155D01*
X66032976Y-46803221D01*
X66032980Y-46803233D01*
X66063419Y-46876719D01*
X66063431Y-46876747D01*
X66086779Y-46925548D01*
X66086782Y-46925553D01*
X66114041Y-46961966D01*
X66173006Y-47040733D01*
X66173010Y-47040737D01*
X66173015Y-47040743D01*
X66229252Y-47096980D01*
X66229260Y-47096987D01*
X66229267Y-47096994D01*
X66269524Y-47133156D01*
X66269532Y-47133162D01*
X66393263Y-47206573D01*
X66393262Y-47206573D01*
X66393279Y-47206580D01*
X66466774Y-47237022D01*
X66517802Y-47255024D01*
X66660218Y-47275500D01*
X66660221Y-47275500D01*
X67939784Y-47275500D01*
X67975804Y-47273569D01*
X67993815Y-47272604D01*
X68133226Y-47237022D01*
X68206735Y-47206574D01*
X68255551Y-47183219D01*
X68370733Y-47096994D01*
X68426994Y-47040733D01*
X68463157Y-47000475D01*
X68536574Y-46876735D01*
X68567022Y-46803226D01*
X68577027Y-46774865D01*
X68617893Y-46718195D01*
X68682911Y-46692614D01*
X68751438Y-46706245D01*
X68794281Y-46743235D01*
X68848028Y-46817213D01*
X68992786Y-46961971D01*
X69113226Y-47049474D01*
X69158390Y-47082287D01*
X69258226Y-47133156D01*
X69340776Y-47175218D01*
X69340778Y-47175218D01*
X69340781Y-47175220D01*
X69437260Y-47206568D01*
X69535465Y-47238477D01*
X69636557Y-47254488D01*
X69737648Y-47270500D01*
X69737649Y-47270500D01*
X69942351Y-47270500D01*
X69942352Y-47270500D01*
X70144534Y-47238477D01*
X70339219Y-47175220D01*
X70521610Y-47082287D01*
X70614590Y-47014732D01*
X70687213Y-46961971D01*
X70687215Y-46961968D01*
X70687219Y-46961966D01*
X70831966Y-46817219D01*
X70831968Y-46817215D01*
X70831971Y-46817213D01*
X70952284Y-46651614D01*
X70952286Y-46651611D01*
X70952287Y-46651610D01*
X70999516Y-46558917D01*
X71047489Y-46508123D01*
X71115310Y-46491328D01*
X71181445Y-46513865D01*
X71220485Y-46558919D01*
X71267715Y-46651614D01*
X71388028Y-46817213D01*
X71532786Y-46961971D01*
X71653226Y-47049474D01*
X71698390Y-47082287D01*
X71798226Y-47133156D01*
X71880776Y-47175218D01*
X71880778Y-47175218D01*
X71880781Y-47175220D01*
X71977260Y-47206568D01*
X72075465Y-47238477D01*
X72176557Y-47254488D01*
X72277648Y-47270500D01*
X72277649Y-47270500D01*
X72482351Y-47270500D01*
X72482352Y-47270500D01*
X72684534Y-47238477D01*
X72879219Y-47175220D01*
X73061610Y-47082287D01*
X73154590Y-47014732D01*
X73227213Y-46961971D01*
X73227215Y-46961968D01*
X73227219Y-46961966D01*
X73371966Y-46817219D01*
X73371968Y-46817215D01*
X73371971Y-46817213D01*
X73492284Y-46651614D01*
X73492286Y-46651611D01*
X73492287Y-46651610D01*
X73539516Y-46558917D01*
X73587489Y-46508123D01*
X73655310Y-46491328D01*
X73721445Y-46513865D01*
X73760485Y-46558919D01*
X73807715Y-46651614D01*
X73928028Y-46817213D01*
X74072786Y-46961971D01*
X74193226Y-47049474D01*
X74238390Y-47082287D01*
X74338226Y-47133156D01*
X74420776Y-47175218D01*
X74420778Y-47175218D01*
X74420781Y-47175220D01*
X74517260Y-47206568D01*
X74615465Y-47238477D01*
X74716557Y-47254488D01*
X74817648Y-47270500D01*
X74817649Y-47270500D01*
X75022351Y-47270500D01*
X75022352Y-47270500D01*
X75224534Y-47238477D01*
X75419219Y-47175220D01*
X75601610Y-47082287D01*
X75694590Y-47014732D01*
X75767213Y-46961971D01*
X75767215Y-46961968D01*
X75767219Y-46961966D01*
X75911966Y-46817219D01*
X75911968Y-46817215D01*
X75911971Y-46817213D01*
X76032284Y-46651614D01*
X76032286Y-46651611D01*
X76032287Y-46651610D01*
X76079516Y-46558917D01*
X76127489Y-46508123D01*
X76195310Y-46491328D01*
X76261445Y-46513865D01*
X76300485Y-46558919D01*
X76347715Y-46651614D01*
X76468028Y-46817213D01*
X76612786Y-46961971D01*
X76733226Y-47049474D01*
X76778390Y-47082287D01*
X76878226Y-47133156D01*
X76960776Y-47175218D01*
X76960778Y-47175218D01*
X76960781Y-47175220D01*
X77057260Y-47206568D01*
X77155465Y-47238477D01*
X77256557Y-47254488D01*
X77357648Y-47270500D01*
X77357649Y-47270500D01*
X77562351Y-47270500D01*
X77562352Y-47270500D01*
X77764534Y-47238477D01*
X77959219Y-47175220D01*
X78141610Y-47082287D01*
X78234590Y-47014732D01*
X78307213Y-46961971D01*
X78307215Y-46961968D01*
X78307219Y-46961966D01*
X78451966Y-46817219D01*
X78507388Y-46740935D01*
X78562718Y-46698270D01*
X78632331Y-46692291D01*
X78694127Y-46724896D01*
X78727855Y-46783155D01*
X78732976Y-46803221D01*
X78732980Y-46803233D01*
X78763419Y-46876719D01*
X78763431Y-46876747D01*
X78786779Y-46925548D01*
X78786782Y-46925553D01*
X78814041Y-46961966D01*
X78873006Y-47040733D01*
X78873010Y-47040737D01*
X78873015Y-47040743D01*
X78929252Y-47096980D01*
X78929260Y-47096987D01*
X78929267Y-47096994D01*
X78969524Y-47133156D01*
X78969532Y-47133162D01*
X79093263Y-47206573D01*
X79093262Y-47206573D01*
X79093279Y-47206580D01*
X79166774Y-47237022D01*
X79217802Y-47255024D01*
X79360218Y-47275500D01*
X79360221Y-47275500D01*
X80639784Y-47275500D01*
X80675804Y-47273569D01*
X80693815Y-47272604D01*
X80833226Y-47237022D01*
X80906735Y-47206574D01*
X80955551Y-47183219D01*
X81070733Y-47096994D01*
X81126994Y-47040733D01*
X81163157Y-47000475D01*
X81236574Y-46876735D01*
X81267022Y-46803226D01*
X81277027Y-46774865D01*
X81317893Y-46718195D01*
X81382911Y-46692614D01*
X81451438Y-46706245D01*
X81494281Y-46743235D01*
X81548028Y-46817213D01*
X81692786Y-46961971D01*
X81813226Y-47049474D01*
X81858390Y-47082287D01*
X81958226Y-47133156D01*
X82040776Y-47175218D01*
X82040778Y-47175218D01*
X82040781Y-47175220D01*
X82137260Y-47206568D01*
X82235465Y-47238477D01*
X82336557Y-47254488D01*
X82437648Y-47270500D01*
X82437649Y-47270500D01*
X82642351Y-47270500D01*
X82642352Y-47270500D01*
X82844534Y-47238477D01*
X83039219Y-47175220D01*
X83221610Y-47082287D01*
X83314590Y-47014732D01*
X83387213Y-46961971D01*
X83387215Y-46961968D01*
X83387219Y-46961966D01*
X83531966Y-46817219D01*
X83531968Y-46817215D01*
X83531971Y-46817213D01*
X83652284Y-46651614D01*
X83652286Y-46651611D01*
X83652287Y-46651610D01*
X83699516Y-46558917D01*
X83747489Y-46508123D01*
X83815310Y-46491328D01*
X83881445Y-46513865D01*
X83920485Y-46558919D01*
X83967715Y-46651614D01*
X84088028Y-46817213D01*
X84232786Y-46961971D01*
X84353226Y-47049474D01*
X84398390Y-47082287D01*
X84498226Y-47133156D01*
X84580776Y-47175218D01*
X84580778Y-47175218D01*
X84580781Y-47175220D01*
X84677260Y-47206568D01*
X84775465Y-47238477D01*
X84876557Y-47254488D01*
X84977648Y-47270500D01*
X84977649Y-47270500D01*
X85182351Y-47270500D01*
X85182352Y-47270500D01*
X85384534Y-47238477D01*
X85579219Y-47175220D01*
X85761610Y-47082287D01*
X85854590Y-47014732D01*
X85927213Y-46961971D01*
X85927215Y-46961968D01*
X85927219Y-46961966D01*
X86071966Y-46817219D01*
X86071968Y-46817215D01*
X86071971Y-46817213D01*
X86192284Y-46651614D01*
X86192286Y-46651611D01*
X86192287Y-46651610D01*
X86239516Y-46558917D01*
X86287489Y-46508123D01*
X86355310Y-46491328D01*
X86421445Y-46513865D01*
X86460485Y-46558919D01*
X86507715Y-46651614D01*
X86628028Y-46817213D01*
X86772786Y-46961971D01*
X86893226Y-47049474D01*
X86938390Y-47082287D01*
X87038226Y-47133156D01*
X87120776Y-47175218D01*
X87120778Y-47175218D01*
X87120781Y-47175220D01*
X87217260Y-47206568D01*
X87315465Y-47238477D01*
X87416557Y-47254488D01*
X87517648Y-47270500D01*
X87517649Y-47270500D01*
X87722351Y-47270500D01*
X87722352Y-47270500D01*
X87924534Y-47238477D01*
X88119219Y-47175220D01*
X88301610Y-47082287D01*
X88394590Y-47014732D01*
X88467213Y-46961971D01*
X88467215Y-46961968D01*
X88467219Y-46961966D01*
X88611966Y-46817219D01*
X88611968Y-46817215D01*
X88611971Y-46817213D01*
X88732284Y-46651614D01*
X88732286Y-46651611D01*
X88732287Y-46651610D01*
X88779516Y-46558917D01*
X88788161Y-46549764D01*
X88792896Y-46538099D01*
X88811693Y-46524847D01*
X88827489Y-46508123D01*
X88839711Y-46505096D01*
X88850002Y-46497842D01*
X88872982Y-46496856D01*
X88895310Y-46491328D01*
X88907227Y-46495389D01*
G37*
%TD.AperFunction*%
%TA.AperFunction,Conductor*%
G36*
X31193039Y-20520185D02*
G01*
X31238794Y-20572989D01*
X31250000Y-20624500D01*
X31250000Y-40750000D01*
X39139271Y-40750000D01*
X39206310Y-40769685D01*
X39252065Y-40822489D01*
X39262009Y-40891647D01*
X39232984Y-40955203D01*
X39226957Y-40961675D01*
X37825078Y-42363554D01*
X36425451Y-43763181D01*
X36364128Y-43796666D01*
X36337770Y-43799500D01*
X28252221Y-43799500D01*
X28185182Y-43779815D01*
X28151903Y-43748385D01*
X28095107Y-43670211D01*
X27981569Y-43556673D01*
X27948084Y-43495350D01*
X27953068Y-43425658D01*
X27994940Y-43369725D01*
X28025915Y-43352810D01*
X28157331Y-43303796D01*
X28272546Y-43217546D01*
X28358796Y-43102331D01*
X28409091Y-42967483D01*
X28415500Y-42907873D01*
X28415499Y-41112128D01*
X28409091Y-41052517D01*
X28406025Y-41044297D01*
X28358797Y-40917671D01*
X28358793Y-40917664D01*
X28272547Y-40802455D01*
X28272544Y-40802452D01*
X28157335Y-40716206D01*
X28157328Y-40716202D01*
X28022482Y-40665908D01*
X28022483Y-40665908D01*
X27962883Y-40659501D01*
X27962881Y-40659500D01*
X27962873Y-40659500D01*
X27962864Y-40659500D01*
X26167129Y-40659500D01*
X26167123Y-40659501D01*
X26107516Y-40665908D01*
X25972671Y-40716202D01*
X25972664Y-40716206D01*
X25857455Y-40802452D01*
X25857452Y-40802455D01*
X25771206Y-40917664D01*
X25771202Y-40917671D01*
X25720908Y-41052517D01*
X25714501Y-41112116D01*
X25714501Y-41112123D01*
X25714500Y-41112135D01*
X25714500Y-41122690D01*
X25694815Y-41189729D01*
X25678181Y-41210371D01*
X25007962Y-41880590D01*
X24990925Y-41817007D01*
X24925099Y-41702993D01*
X24832007Y-41609901D01*
X24717993Y-41544075D01*
X24654409Y-41527037D01*
X25286716Y-40894728D01*
X25232550Y-40855375D01*
X25043217Y-40758904D01*
X24841129Y-40693242D01*
X24631246Y-40660000D01*
X24418754Y-40660000D01*
X24208872Y-40693242D01*
X24208869Y-40693242D01*
X24006782Y-40758904D01*
X23817439Y-40855380D01*
X23763282Y-40894727D01*
X23763282Y-40894728D01*
X24395591Y-41527037D01*
X24332007Y-41544075D01*
X24217993Y-41609901D01*
X24124901Y-41702993D01*
X24059075Y-41817007D01*
X24042037Y-41880591D01*
X23409728Y-41248282D01*
X23409727Y-41248282D01*
X23370380Y-41302439D01*
X23273904Y-41491782D01*
X23208242Y-41693869D01*
X23208242Y-41693872D01*
X23175000Y-41903753D01*
X23175000Y-42116246D01*
X23208242Y-42326127D01*
X23208242Y-42326130D01*
X23273904Y-42528217D01*
X23370375Y-42717550D01*
X23409728Y-42771716D01*
X24042037Y-42139408D01*
X24059075Y-42202993D01*
X24124901Y-42317007D01*
X24217993Y-42410099D01*
X24332007Y-42475925D01*
X24395590Y-42492962D01*
X23763282Y-43125269D01*
X23763282Y-43125270D01*
X23817452Y-43164626D01*
X23817451Y-43164626D01*
X23826495Y-43169234D01*
X23877292Y-43217208D01*
X23894087Y-43285029D01*
X23871550Y-43351164D01*
X23826499Y-43390202D01*
X23817182Y-43394949D01*
X23645213Y-43519890D01*
X23494890Y-43670213D01*
X23369951Y-43842179D01*
X23273444Y-44031585D01*
X23207753Y-44233760D01*
X23174500Y-44443713D01*
X23174500Y-44656292D01*
X23189616Y-44751728D01*
X23180662Y-44821021D01*
X23154824Y-44858807D01*
X21962181Y-46051450D01*
X21900858Y-46084935D01*
X21831166Y-46079951D01*
X21775233Y-46038079D01*
X21750816Y-45972615D01*
X21750500Y-45963769D01*
X21750500Y-36862229D01*
X21770185Y-36795190D01*
X21786819Y-36774548D01*
X22699548Y-35861819D01*
X22760871Y-35828334D01*
X22787229Y-35825500D01*
X25337779Y-35825500D01*
X25404818Y-35845185D01*
X25438097Y-35876615D01*
X25494892Y-35954788D01*
X25645213Y-36105109D01*
X25817179Y-36230048D01*
X25817181Y-36230049D01*
X25817184Y-36230051D01*
X25826493Y-36234794D01*
X25877290Y-36282766D01*
X25894087Y-36350587D01*
X25871552Y-36416722D01*
X25826505Y-36455760D01*
X25817446Y-36460376D01*
X25817440Y-36460380D01*
X25763282Y-36499727D01*
X25763282Y-36499728D01*
X26395591Y-37132037D01*
X26332007Y-37149075D01*
X26217993Y-37214901D01*
X26124901Y-37307993D01*
X26059075Y-37422007D01*
X26042037Y-37485591D01*
X25409728Y-36853282D01*
X25409727Y-36853282D01*
X25370380Y-36907439D01*
X25273904Y-37096782D01*
X25208242Y-37298869D01*
X25208242Y-37298872D01*
X25175000Y-37508753D01*
X25175000Y-37721246D01*
X25208242Y-37931127D01*
X25208242Y-37931130D01*
X25273904Y-38133217D01*
X25370375Y-38322550D01*
X25409728Y-38376716D01*
X26042037Y-37744408D01*
X26059075Y-37807993D01*
X26124901Y-37922007D01*
X26217993Y-38015099D01*
X26332007Y-38080925D01*
X26395590Y-38097962D01*
X25763282Y-38730269D01*
X25763282Y-38730270D01*
X25817449Y-38769624D01*
X26006782Y-38866095D01*
X26208870Y-38931757D01*
X26418754Y-38965000D01*
X26631246Y-38965000D01*
X26841127Y-38931757D01*
X26841130Y-38931757D01*
X27043217Y-38866095D01*
X27232554Y-38769622D01*
X27286716Y-38730270D01*
X27286717Y-38730270D01*
X26654408Y-38097962D01*
X26717993Y-38080925D01*
X26832007Y-38015099D01*
X26925099Y-37922007D01*
X26990925Y-37807993D01*
X27007962Y-37744409D01*
X27640270Y-38376717D01*
X27640270Y-38376716D01*
X27679622Y-38322554D01*
X27776095Y-38133217D01*
X27841757Y-37931130D01*
X27841757Y-37931127D01*
X27875000Y-37721246D01*
X27875000Y-37508753D01*
X27841757Y-37298872D01*
X27841757Y-37298869D01*
X27776095Y-37096782D01*
X27679624Y-36907449D01*
X27640270Y-36853282D01*
X27640269Y-36853282D01*
X27007962Y-37485590D01*
X26990925Y-37422007D01*
X26925099Y-37307993D01*
X26832007Y-37214901D01*
X26717993Y-37149075D01*
X26654409Y-37132037D01*
X27286716Y-36499728D01*
X27232547Y-36460373D01*
X27232547Y-36460372D01*
X27223500Y-36455763D01*
X27172706Y-36407788D01*
X27155912Y-36339966D01*
X27178451Y-36273832D01*
X27223508Y-36234793D01*
X27232816Y-36230051D01*
X27376860Y-36125398D01*
X27404786Y-36105109D01*
X27404788Y-36105106D01*
X27404792Y-36105104D01*
X27555104Y-35954792D01*
X27555106Y-35954788D01*
X27555109Y-35954786D01*
X27680048Y-35782820D01*
X27680047Y-35782820D01*
X27680051Y-35782816D01*
X27776557Y-35593412D01*
X27842246Y-35391243D01*
X27875500Y-35181287D01*
X27875500Y-34968713D01*
X27842246Y-34758757D01*
X27776557Y-34556588D01*
X27680051Y-34367184D01*
X27680049Y-34367181D01*
X27680048Y-34367179D01*
X27555109Y-34195213D01*
X27441569Y-34081673D01*
X27408084Y-34020350D01*
X27413068Y-33950658D01*
X27454940Y-33894725D01*
X27485915Y-33877810D01*
X27617331Y-33828796D01*
X27732546Y-33742546D01*
X27818796Y-33627331D01*
X27869091Y-33492483D01*
X27875500Y-33432873D01*
X27875499Y-31637128D01*
X27869091Y-31577517D01*
X27868113Y-31574896D01*
X27818797Y-31442671D01*
X27818793Y-31442664D01*
X27732547Y-31327455D01*
X27732544Y-31327452D01*
X27617335Y-31241206D01*
X27617328Y-31241202D01*
X27482482Y-31190908D01*
X27482483Y-31190908D01*
X27422883Y-31184501D01*
X27422881Y-31184500D01*
X27422873Y-31184500D01*
X27422864Y-31184500D01*
X25627129Y-31184500D01*
X25627123Y-31184501D01*
X25567516Y-31190908D01*
X25432671Y-31241202D01*
X25432664Y-31241206D01*
X25317455Y-31327452D01*
X25317452Y-31327455D01*
X25231206Y-31442664D01*
X25231202Y-31442671D01*
X25180908Y-31577517D01*
X25174501Y-31637116D01*
X25174501Y-31637123D01*
X25174500Y-31637135D01*
X25174500Y-33432870D01*
X25174501Y-33432876D01*
X25180908Y-33492483D01*
X25231202Y-33627328D01*
X25231206Y-33627335D01*
X25317452Y-33742544D01*
X25317455Y-33742547D01*
X25432664Y-33828793D01*
X25432671Y-33828797D01*
X25564082Y-33877810D01*
X25620016Y-33919681D01*
X25644433Y-33985145D01*
X25629582Y-34053418D01*
X25608431Y-34081673D01*
X25494892Y-34195212D01*
X25438097Y-34273385D01*
X25382767Y-34316051D01*
X25337779Y-34324500D01*
X22351080Y-34324500D01*
X22206092Y-34353340D01*
X22206082Y-34353343D01*
X22069511Y-34409912D01*
X22069498Y-34409919D01*
X21946584Y-34492048D01*
X21946580Y-34492051D01*
X20712181Y-35726451D01*
X20650858Y-35759936D01*
X20581166Y-35754952D01*
X20525233Y-35713080D01*
X20500816Y-35647616D01*
X20500500Y-35638770D01*
X20500500Y-24852486D01*
X22749500Y-24852486D01*
X22749500Y-25147513D01*
X22778485Y-25367669D01*
X22788007Y-25439993D01*
X22860221Y-25709500D01*
X22864361Y-25724951D01*
X22864364Y-25724961D01*
X22977254Y-25997500D01*
X22977258Y-25997510D01*
X23124761Y-26252993D01*
X23304352Y-26487040D01*
X23304358Y-26487047D01*
X23512952Y-26695641D01*
X23512959Y-26695647D01*
X23747006Y-26875238D01*
X24002489Y-27022741D01*
X24002490Y-27022741D01*
X24002493Y-27022743D01*
X24275048Y-27135639D01*
X24560007Y-27211993D01*
X24852494Y-27250500D01*
X24852501Y-27250500D01*
X25147499Y-27250500D01*
X25147506Y-27250500D01*
X25439993Y-27211993D01*
X25724952Y-27135639D01*
X25997507Y-27022743D01*
X26252994Y-26875238D01*
X26487042Y-26695646D01*
X26695646Y-26487042D01*
X26875238Y-26252994D01*
X27022743Y-25997507D01*
X27135639Y-25724952D01*
X27211993Y-25439993D01*
X27250500Y-25147506D01*
X27250500Y-24852494D01*
X27211993Y-24560007D01*
X27135639Y-24275048D01*
X27118843Y-24234500D01*
X27099796Y-24188515D01*
X27022743Y-24002493D01*
X26875238Y-23747006D01*
X26840740Y-23702048D01*
X26695647Y-23512959D01*
X26695641Y-23512952D01*
X26487047Y-23304358D01*
X26487040Y-23304352D01*
X26252993Y-23124761D01*
X25997510Y-22977258D01*
X25997500Y-22977254D01*
X25724961Y-22864364D01*
X25724954Y-22864362D01*
X25724952Y-22864361D01*
X25439993Y-22788007D01*
X25390591Y-22781503D01*
X25147513Y-22749500D01*
X25147506Y-22749500D01*
X24852494Y-22749500D01*
X24852486Y-22749500D01*
X24574085Y-22786153D01*
X24560007Y-22788007D01*
X24275048Y-22864361D01*
X24275038Y-22864364D01*
X24002499Y-22977254D01*
X24002489Y-22977258D01*
X23747006Y-23124761D01*
X23512959Y-23304352D01*
X23512952Y-23304358D01*
X23304358Y-23512952D01*
X23304352Y-23512959D01*
X23124761Y-23747006D01*
X22977258Y-24002489D01*
X22977254Y-24002499D01*
X22864364Y-24275038D01*
X22864361Y-24275048D01*
X22799130Y-24518497D01*
X22788008Y-24560004D01*
X22788006Y-24560015D01*
X22749500Y-24852486D01*
X20500500Y-24852486D01*
X20500500Y-20624500D01*
X20520185Y-20557461D01*
X20572989Y-20511706D01*
X20624500Y-20500500D01*
X31126000Y-20500500D01*
X31193039Y-20520185D01*
G37*
%TD.AperFunction*%
%TA.AperFunction,Conductor*%
G36*
X25678181Y-42809628D02*
G01*
X25711666Y-42870951D01*
X25714500Y-42897300D01*
X25714500Y-42907865D01*
X25714501Y-42907876D01*
X25720908Y-42967483D01*
X25771202Y-43102328D01*
X25771206Y-43102335D01*
X25857452Y-43217544D01*
X25857455Y-43217547D01*
X25972664Y-43303793D01*
X25972671Y-43303797D01*
X26104082Y-43352810D01*
X26160016Y-43394681D01*
X26184433Y-43460145D01*
X26169582Y-43528418D01*
X26148431Y-43556673D01*
X26034889Y-43670215D01*
X25909949Y-43842182D01*
X25905484Y-43850946D01*
X25857509Y-43901742D01*
X25789688Y-43918536D01*
X25723553Y-43895998D01*
X25684516Y-43850946D01*
X25680050Y-43842182D01*
X25555109Y-43670213D01*
X25404786Y-43519890D01*
X25232817Y-43394949D01*
X25223504Y-43390204D01*
X25172707Y-43342230D01*
X25155912Y-43274409D01*
X25178449Y-43208274D01*
X25223507Y-43169232D01*
X25232555Y-43164622D01*
X25286716Y-43125270D01*
X25286717Y-43125270D01*
X24654408Y-42492962D01*
X24717993Y-42475925D01*
X24832007Y-42410099D01*
X24925099Y-42317007D01*
X24990925Y-42202993D01*
X25007962Y-42139408D01*
X25678181Y-42809628D01*
G37*
%TD.AperFunction*%
%TD*%
M02*
