M48
; DRILL file {KiCad 9.0.9-1.fc43} date 2026-05-25T13:53:16+0200
; FORMAT={-:-/ absolute / metric / decimal}
; #@! TF.CreationDate,2026-05-25T13:53:16+02:00
; #@! TF.GenerationSoftware,Kicad,Pcbnew,9.0.9-1.fc43
; #@! TF.FileFunction,Plated,1,2,PTH
FMAT,2
METRIC
; #@! TA.AperFunction,Plated,PTH,ViaDrill
T1C0.300
; #@! TA.AperFunction,Plated,PTH,ViaDrill
T2C0.500
; #@! TA.AperFunction,Plated,PTH,ComponentDrill
T3C0.950
; #@! TA.AperFunction,Plated,PTH,ComponentDrill
T4C1.000
%
G90
G05
T1
X33.75Y-62.135
X34.5Y-60.865
X36.75Y-39.75
X36.75Y-68.25
X37.75Y-66.0
X39.0Y-60.865
X39.25Y-65.25
X40.25Y-65.5
X46.25Y-57.75
X46.25Y-59.25
X51.5Y-39.0
X53.302Y-46.76
X62.215Y-24.285
X63.235Y-23.015
X64.0Y-22.25
X64.945Y-25.555
X64.987Y-24.263
X65.0Y-23.015
X72.46Y-21.5
X72.75Y-56.25
X72.75Y-57.5
X72.75Y-60.0
X81.25Y-56.25
X81.25Y-57.5
X81.25Y-58.75
X82.75Y-33.5
X83.75Y-34.25
X86.345Y-28.095
X86.499Y-22.215
X86.515Y-23.015
X86.535Y-24.285
X86.555Y-25.555
X91.0Y-49.5
T2
X27.787Y-60.462
T3
X31.475Y-52.25
X31.475Y-54.75
X31.475Y-57.25
X35.975Y-26.25
X35.975Y-28.75
X35.975Y-31.25
X38.5Y-52.25
X38.5Y-54.75
X38.5Y-57.25
T4
X24.525Y-42.01
X24.525Y-44.55
X24.525Y-47.09
X24.525Y-49.63
X26.525Y-32.535
X26.525Y-35.075
X26.525Y-37.615
X27.065Y-42.01
X27.065Y-44.55
X27.065Y-47.09
X27.065Y-49.63
X43.225Y-24.985
X43.225Y-27.525
X43.225Y-30.065
X43.225Y-32.605
X43.225Y-35.145
X43.225Y-37.685
X45.765Y-24.985
X45.765Y-27.525
X45.765Y-30.065
X45.765Y-32.605
X45.765Y-35.145
X45.765Y-37.685
X49.52Y-45.97
X49.52Y-63.75
X52.06Y-45.97
X52.06Y-63.75
X52.5Y-24.92
X52.5Y-27.46
X52.5Y-30.0
X52.5Y-32.54
X52.5Y-35.08
X54.6Y-45.97
X54.6Y-63.75
X57.14Y-45.97
X57.14Y-63.75
X59.68Y-45.97
X59.68Y-63.75
X62.22Y-45.97
X62.22Y-63.75
X64.76Y-45.97
X64.76Y-63.75
X67.3Y-45.97
X67.3Y-63.75
X69.84Y-45.97
X69.84Y-63.75
X72.38Y-45.97
X72.38Y-63.75
X72.46Y-26.46
X72.46Y-29.0
X72.46Y-31.54
X72.46Y-34.08
X72.46Y-36.62
X72.46Y-39.16
X74.92Y-45.97
X74.92Y-63.75
X75.0Y-26.46
X75.0Y-29.0
X75.0Y-31.54
X75.0Y-34.08
X75.0Y-36.62
X75.0Y-39.16
X77.46Y-45.97
X77.46Y-63.75
X80.0Y-45.97
X80.0Y-63.75
X82.54Y-45.97
X82.54Y-63.75
X85.08Y-45.97
X85.08Y-63.75
X87.62Y-45.97
X87.62Y-63.75
X90.16Y-45.97
X90.16Y-63.75
X92.7Y-45.97
X92.7Y-63.75
X94.5Y-23.67
X94.5Y-26.21
X94.5Y-28.75
X94.5Y-31.29
X94.5Y-33.83
X94.5Y-36.37
X94.5Y-38.91
X95.24Y-45.97
X95.24Y-63.75
X97.04Y-23.67
X97.04Y-26.21
X97.04Y-28.75
X97.04Y-31.29
X97.04Y-33.83
X97.04Y-36.37
X97.04Y-38.91
X97.78Y-45.97
X97.78Y-63.75
M30
