%TF.GenerationSoftware,KiCad,Pcbnew,9.0.9-1.fc43*%
%TF.CreationDate,2026-05-25T13:53:12+02:00*%
%TF.ProjectId,Fader_RPI_PICO,46616465-725f-4525-9049-5f5049434f2e,rev?*%
%TF.SameCoordinates,Original*%
%TF.FileFunction,Copper,L2,Bot*%
%TF.FilePolarity,Positive*%
%FSLAX46Y46*%
G04 Gerber Fmt 4.6, Leading zero omitted, Abs format (unit mm)*
G04 Created by KiCad (PCBNEW 9.0.9-1.fc43) date 2026-05-25 13:53:12*
%MOMM*%
%LPD*%
G01*
G04 APERTURE LIST*
G04 Aperture macros list*
%AMRoundRect*
0 Rectangle with rounded corners*
0 $1 Rounding radius*
0 $2 $3 $4 $5 $6 $7 $8 $9 X,Y pos of 4 corners*
0 Add a 4 corners polygon primitive as box body*
4,1,4,$2,$3,$4,$5,$6,$7,$8,$9,$2,$3,0*
0 Add four circle primitives for the rounded corners*
1,1,$1+$1,$2,$3*
1,1,$1+$1,$4,$5*
1,1,$1+$1,$6,$7*
1,1,$1+$1,$8,$9*
0 Add four rect primitives between the rounded corners*
20,1,$1+$1,$2,$3,$4,$5,0*
20,1,$1+$1,$4,$5,$6,$7,0*
20,1,$1+$1,$6,$7,$8,$9,0*
20,1,$1+$1,$8,$9,$2,$3,0*%
%AMFreePoly0*
4,1,37,0.800000,0.796148,0.878414,0.796148,1.032228,0.765552,1.177117,0.705537,1.307515,0.618408,1.418408,0.507515,1.505537,0.377117,1.565552,0.232228,1.596148,0.078414,1.596148,-0.078414,1.565552,-0.232228,1.505537,-0.377117,1.418408,-0.507515,1.307515,-0.618408,1.177117,-0.705537,1.032228,-0.765552,0.878414,-0.796148,0.800000,-0.796148,0.800000,-0.800000,-1.400000,-0.800000,
-1.403843,-0.796157,-1.439018,-0.796157,-1.511114,-0.766294,-1.566294,-0.711114,-1.596157,-0.639018,-1.596157,-0.603843,-1.600000,-0.600000,-1.600000,0.600000,-1.596157,0.603843,-1.596157,0.639018,-1.566294,0.711114,-1.511114,0.766294,-1.439018,0.796157,-1.403843,0.796157,-1.400000,0.800000,0.800000,0.800000,0.800000,0.796148,0.800000,0.796148,$1*%
%AMFreePoly1*
4,1,37,1.403843,0.796157,1.439018,0.796157,1.511114,0.766294,1.566294,0.711114,1.596157,0.639018,1.596157,0.603843,1.600000,0.600000,1.600000,-0.600000,1.596157,-0.603843,1.596157,-0.639018,1.566294,-0.711114,1.511114,-0.766294,1.439018,-0.796157,1.403843,-0.796157,1.400000,-0.800000,-0.800000,-0.800000,-0.800000,-0.796148,-0.878414,-0.796148,-1.032228,-0.765552,-1.177117,-0.705537,
-1.307515,-0.618408,-1.418408,-0.507515,-1.505537,-0.377117,-1.565552,-0.232228,-1.596148,-0.078414,-1.596148,0.078414,-1.565552,0.232228,-1.505537,0.377117,-1.418408,0.507515,-1.307515,0.618408,-1.177117,0.705537,-1.032228,0.765552,-0.878414,0.796148,-0.800000,0.796148,-0.800000,0.800000,1.400000,0.800000,1.403843,0.796157,1.403843,0.796157,$1*%
%AMFreePoly2*
4,1,37,0.603843,0.796157,0.639018,0.796157,0.711114,0.766294,0.766294,0.711114,0.796157,0.639018,0.796157,0.603843,0.800000,0.600000,0.800000,-0.600000,0.796157,-0.603843,0.796157,-0.639018,0.766294,-0.711114,0.711114,-0.766294,0.639018,-0.796157,0.603843,-0.796157,0.600000,-0.800000,0.000000,-0.800000,0.000000,-0.796148,-0.078414,-0.796148,-0.232228,-0.765552,-0.377117,-0.705537,
-0.507515,-0.618408,-0.618408,-0.507515,-0.705537,-0.377117,-0.765552,-0.232228,-0.796148,-0.078414,-0.796148,0.078414,-0.765552,0.232228,-0.705537,0.377117,-0.618408,0.507515,-0.507515,0.618408,-0.377117,0.705537,-0.232228,0.765552,-0.078414,0.796148,0.000000,0.796148,0.000000,0.800000,0.600000,0.800000,0.603843,0.796157,0.603843,0.796157,$1*%
%AMFreePoly3*
4,1,37,0.000000,0.796148,0.078414,0.796148,0.232228,0.765552,0.377117,0.705537,0.507515,0.618408,0.618408,0.507515,0.705537,0.377117,0.765552,0.232228,0.796148,0.078414,0.796148,-0.078414,0.765552,-0.232228,0.705537,-0.377117,0.618408,-0.507515,0.507515,-0.618408,0.377117,-0.705537,0.232228,-0.765552,0.078414,-0.796148,0.000000,-0.796148,0.000000,-0.800000,-0.600000,-0.800000,
-0.603843,-0.796157,-0.639018,-0.796157,-0.711114,-0.766294,-0.766294,-0.711114,-0.796157,-0.639018,-0.796157,-0.603843,-0.800000,-0.600000,-0.800000,0.600000,-0.796157,0.603843,-0.796157,0.639018,-0.766294,0.711114,-0.711114,0.766294,-0.639018,0.796157,-0.603843,0.796157,-0.600000,0.800000,0.000000,0.800000,0.000000,0.796148,0.000000,0.796148,$1*%
G04 Aperture macros list end*
%TA.AperFunction,SMDPad,CuDef*%
%ADD10FreePoly0,90.000000*%
%TD*%
%TA.AperFunction,ComponentPad*%
%ADD11RoundRect,0.200000X0.600000X-0.600000X0.600000X0.600000X-0.600000X0.600000X-0.600000X-0.600000X0*%
%TD*%
%TA.AperFunction,SMDPad,CuDef*%
%ADD12RoundRect,0.800000X0.000010X-0.800000X0.000010X0.800000X-0.000010X0.800000X-0.000010X-0.800000X0*%
%TD*%
%TA.AperFunction,ComponentPad*%
%ADD13C,1.600000*%
%TD*%
%TA.AperFunction,SMDPad,CuDef*%
%ADD14FreePoly1,90.000000*%
%TD*%
%TA.AperFunction,ComponentPad*%
%ADD15FreePoly2,90.000000*%
%TD*%
%TA.AperFunction,ComponentPad*%
%ADD16FreePoly3,90.000000*%
%TD*%
%TA.AperFunction,ComponentPad*%
%ADD17R,1.700000X1.700000*%
%TD*%
%TA.AperFunction,ComponentPad*%
%ADD18C,1.700000*%
%TD*%
%TA.AperFunction,ComponentPad*%
%ADD19RoundRect,0.250000X-0.725000X0.600000X-0.725000X-0.600000X0.725000X-0.600000X0.725000X0.600000X0*%
%TD*%
%TA.AperFunction,ComponentPad*%
%ADD20O,1.950000X1.700000*%
%TD*%
%TA.AperFunction,SMDPad,CuDef*%
%ADD21RoundRect,0.250000X0.337500X0.475000X-0.337500X0.475000X-0.337500X-0.475000X0.337500X-0.475000X0*%
%TD*%
%TA.AperFunction,ViaPad*%
%ADD22C,0.600000*%
%TD*%
%TA.AperFunction,ViaPad*%
%ADD23C,1.000000*%
%TD*%
%TA.AperFunction,Conductor*%
%ADD24C,0.500000*%
%TD*%
%TA.AperFunction,Conductor*%
%ADD25C,1.000000*%
%TD*%
%TA.AperFunction,Conductor*%
%ADD26C,0.600000*%
%TD*%
%TA.AperFunction,Conductor*%
%ADD27C,0.300000*%
%TD*%
G04 APERTURE END LIST*
D10*
%TO.P,A1,1,GPIO0*%
%TO.N,unconnected-(A1-GPIO0-Pad1)*%
X97780000Y-64550000D03*
D11*
X97780000Y-63750000D03*
D12*
%TO.P,A1,2,GPIO1*%
%TO.N,unconnected-(A1-GPIO1-Pad2)*%
X95240000Y-64550000D03*
D13*
X95240000Y-63750000D03*
D14*
%TO.P,A1,3,GND*%
%TO.N,GND*%
X92700000Y-64550000D03*
D15*
X92700000Y-63750000D03*
D12*
%TO.P,A1,4,GPIO2*%
%TO.N,Net-(A1-GPIO2)*%
X90160000Y-64550000D03*
D13*
X90160000Y-63750000D03*
D12*
%TO.P,A1,5,GPIO3*%
%TO.N,unconnected-(A1-GPIO3-Pad5)*%
X87620000Y-64550000D03*
D13*
X87620000Y-63750000D03*
D12*
%TO.P,A1,6,GPIO4*%
%TO.N,INT_1_A*%
X85080000Y-64550000D03*
D13*
X85080000Y-63750000D03*
D12*
%TO.P,A1,7,GPIO5*%
%TO.N,INT_0_A*%
X82540000Y-64550000D03*
D13*
X82540000Y-63750000D03*
D14*
%TO.P,A1,8,GND*%
%TO.N,GND*%
X80000000Y-64550000D03*
D15*
X80000000Y-63750000D03*
D12*
%TO.P,A1,9,GPIO6*%
%TO.N,Net-(A1-GPIO6)*%
X77460000Y-64550000D03*
D13*
X77460000Y-63750000D03*
D12*
%TO.P,A1,10,GPIO7*%
%TO.N,Net-(A1-GPIO7)*%
X74920000Y-64550000D03*
D13*
X74920000Y-63750000D03*
D12*
%TO.P,A1,11,GPIO8*%
%TO.N,Net-(A1-GPIO8)*%
X72380000Y-64550000D03*
D13*
X72380000Y-63750000D03*
D12*
%TO.P,A1,12,GPIO9*%
%TO.N,Net-(A1-GPIO9)*%
X69840000Y-64550000D03*
D13*
X69840000Y-63750000D03*
D14*
%TO.P,A1,13,GND*%
%TO.N,GND*%
X67300000Y-64550000D03*
D15*
X67300000Y-63750000D03*
D12*
%TO.P,A1,14,GPIO10*%
%TO.N,Net-(A1-GPIO10)*%
X64760000Y-64550000D03*
D13*
X64760000Y-63750000D03*
D12*
%TO.P,A1,15,GPIO11*%
%TO.N,Net-(A1-GPIO11)*%
X62220000Y-64550000D03*
D13*
X62220000Y-63750000D03*
D12*
%TO.P,A1,16,GPIO12*%
%TO.N,Net-(A1-GPIO12)*%
X59680000Y-64550000D03*
D13*
X59680000Y-63750000D03*
D12*
%TO.P,A1,17,GPIO13*%
%TO.N,Net-(A1-GPIO13)*%
X57140000Y-64550000D03*
D13*
X57140000Y-63750000D03*
D14*
%TO.P,A1,18,GND*%
%TO.N,GND*%
X54600000Y-64550000D03*
D15*
X54600000Y-63750000D03*
D12*
%TO.P,A1,19,GPIO14*%
%TO.N,Net-(A1-GPIO14)*%
X52060000Y-64550000D03*
D13*
X52060000Y-63750000D03*
D12*
%TO.P,A1,20,GPIO15*%
%TO.N,Net-(A1-GPIO15)*%
X49520000Y-64550000D03*
D13*
X49520000Y-63750000D03*
%TO.P,A1,21,GPIO16*%
%TO.N,CAN_TX*%
X49520000Y-45970000D03*
D12*
X49520000Y-45170000D03*
D13*
%TO.P,A1,22,GPIO17*%
%TO.N,CAN_RX*%
X52060000Y-45970000D03*
D12*
X52060000Y-45170000D03*
D16*
%TO.P,A1,23,GND*%
%TO.N,GND*%
X54600000Y-45970000D03*
D10*
X54600000Y-45170000D03*
D13*
%TO.P,A1,24,GPIO18*%
%TO.N,SPI_0_SCK*%
X57140000Y-45970000D03*
D12*
X57140000Y-45170000D03*
D13*
%TO.P,A1,25,GPIO19*%
%TO.N,SPI_0_MOSI*%
X59680000Y-45970000D03*
D12*
X59680000Y-45170000D03*
D13*
%TO.P,A1,26,GPIO20*%
%TO.N,SPI_0_MISO*%
X62220000Y-45970000D03*
D12*
X62220000Y-45170000D03*
D13*
%TO.P,A1,27,GPIO21*%
%TO.N,SPI_0_CS*%
X64760000Y-45970000D03*
D12*
X64760000Y-45170000D03*
D16*
%TO.P,A1,28,GND*%
%TO.N,GND*%
X67300000Y-45970000D03*
D10*
X67300000Y-45170000D03*
D13*
%TO.P,A1,29,GPIO22*%
%TO.N,unconnected-(A1-GPIO22-Pad29)*%
X69840000Y-45970000D03*
D12*
X69840000Y-45170000D03*
D13*
%TO.P,A1,30,RUN*%
%TO.N,unconnected-(A1-RUN-Pad30)*%
X72380000Y-45970000D03*
D12*
X72380000Y-45170000D03*
D13*
%TO.P,A1,31,GPIO26_ADC0*%
%TO.N,unconnected-(A1-GPIO26_ADC0-Pad31)*%
X74920000Y-45970000D03*
D12*
X74920000Y-45170000D03*
D13*
%TO.P,A1,32,GPIO27_ADC1*%
%TO.N,unconnected-(A1-GPIO27_ADC1-Pad32)*%
X77460000Y-45970000D03*
D12*
X77460000Y-45170000D03*
D16*
%TO.P,A1,33,AGND*%
%TO.N,unconnected-(A1-AGND-Pad33)*%
X80000000Y-45970000D03*
D10*
X80000000Y-45170000D03*
D13*
%TO.P,A1,34,GPIO28_ADC2*%
%TO.N,unconnected-(A1-GPIO28_ADC2-Pad34)*%
X82540000Y-45970000D03*
D12*
X82540000Y-45170000D03*
D13*
%TO.P,A1,35,ADC_VREF*%
%TO.N,unconnected-(A1-ADC_VREF-Pad35)*%
X85080000Y-45970000D03*
D12*
X85080000Y-45170000D03*
D13*
%TO.P,A1,36,3V3*%
%TO.N,+3.3V*%
X87620000Y-45970000D03*
D12*
X87620000Y-45170000D03*
D13*
%TO.P,A1,37,3V3_EN*%
%TO.N,unconnected-(A1-3V3_EN-Pad37)*%
X90160000Y-45970000D03*
D12*
X90160000Y-45170000D03*
D16*
%TO.P,A1,38,GND*%
%TO.N,GND*%
X92700000Y-45970000D03*
D10*
X92700000Y-45170000D03*
D13*
%TO.P,A1,39,VSYS*%
%TO.N,+5V*%
X95240000Y-45970000D03*
D12*
X95240000Y-45170000D03*
D13*
%TO.P,A1,40,VBUS*%
%TO.N,unconnected-(A1-VBUS-Pad40)*%
X97780000Y-45970000D03*
D12*
X97780000Y-45170000D03*
%TD*%
D17*
%TO.P,J2,1,Pin_1*%
%TO.N,GND*%
X26525000Y-32535000D03*
D18*
%TO.P,J2,2,Pin_2*%
%TO.N,Net-(J2-Pin_2)*%
X26525000Y-35075000D03*
%TO.P,J2,3,Pin_3*%
%TO.N,+5V*%
X26525000Y-37615000D03*
%TD*%
D17*
%TO.P,J4,1,Pin_1*%
%TO.N,GND*%
X45765000Y-24985000D03*
D18*
%TO.P,J4,2,Pin_2*%
%TO.N,+3.3V*%
X43225000Y-24985000D03*
%TO.P,J4,3,Pin_3*%
%TO.N,Net-(A1-GPIO6)*%
X45765000Y-27525000D03*
%TO.P,J4,4,Pin_4*%
%TO.N,Net-(A1-GPIO7)*%
X43225000Y-27525000D03*
%TO.P,J4,5,Pin_5*%
%TO.N,Net-(A1-GPIO8)*%
X45765000Y-30065000D03*
%TO.P,J4,6,Pin_6*%
%TO.N,Net-(A1-GPIO9)*%
X43225000Y-30065000D03*
%TO.P,J4,7,Pin_7*%
%TO.N,Net-(A1-GPIO10)*%
X45765000Y-32605000D03*
%TO.P,J4,8,Pin_8*%
%TO.N,Net-(A1-GPIO11)*%
X43225000Y-32605000D03*
%TO.P,J4,9,Pin_9*%
%TO.N,Net-(A1-GPIO12)*%
X45765000Y-35145000D03*
%TO.P,J4,10,Pin_10*%
%TO.N,Net-(A1-GPIO13)*%
X43225000Y-35145000D03*
%TO.P,J4,11,Pin_11*%
%TO.N,Net-(A1-GPIO14)*%
X45765000Y-37685000D03*
%TO.P,J4,12,Pin_12*%
%TO.N,Net-(A1-GPIO15)*%
X43225000Y-37685000D03*
%TD*%
D17*
%TO.P,J3,1,Pin_1*%
%TO.N,GND*%
X27065000Y-42010000D03*
D18*
%TO.P,J3,2,Pin_2*%
%TO.N,+5V*%
X24525000Y-42010000D03*
%TO.P,J3,3,Pin_3*%
%TO.N,Net-(J3-Pin_3)*%
X27065000Y-44550000D03*
%TO.P,J3,4,Pin_4*%
%TO.N,Net-(J3-Pin_4)*%
X24525000Y-44550000D03*
%TO.P,J3,5,Pin_5*%
%TO.N,Net-(J3-Pin_5)*%
X27065000Y-47090000D03*
%TO.P,J3,6,Pin_6*%
%TO.N,Net-(J3-Pin_6)*%
X24525000Y-47090000D03*
%TO.P,J3,7,Pin_7*%
%TO.N,Net-(J3-Pin_7)*%
X27065000Y-49630000D03*
%TO.P,J3,8,Pin_8*%
%TO.N,Net-(J3-Pin_8)*%
X24525000Y-49630000D03*
%TD*%
D19*
%TO.P,J8,1,Pin_1*%
%TO.N,GND*%
X38500000Y-52250000D03*
D20*
%TO.P,J8,2,Pin_2*%
%TO.N,Net-(J8-Pin_2)*%
X38500000Y-54750000D03*
%TO.P,J8,3,Pin_3*%
%TO.N,Net-(J8-Pin_3)*%
X38500000Y-57250000D03*
%TD*%
D17*
%TO.P,J1,1,Pin_1*%
%TO.N,GND*%
X52500000Y-24920000D03*
D18*
%TO.P,J1,2,Pin_2*%
%TO.N,Net-(J1-Pin_2)*%
X52500000Y-27460000D03*
%TO.P,J1,3,Pin_3*%
%TO.N,Net-(J1-Pin_3)*%
X52500000Y-30000000D03*
%TO.P,J1,4,Pin_4*%
%TO.N,Net-(J1-Pin_4)*%
X52500000Y-32540000D03*
%TO.P,J1,5,Pin_5*%
%TO.N,Net-(J1-Pin_5)*%
X52500000Y-35080000D03*
%TD*%
D19*
%TO.P,J9,1,Pin_1*%
%TO.N,GND*%
X31475000Y-52250000D03*
D20*
%TO.P,J9,2,Pin_2*%
%TO.N,Net-(J8-Pin_2)*%
X31475000Y-54750000D03*
%TO.P,J9,3,Pin_3*%
%TO.N,Net-(J8-Pin_3)*%
X31475000Y-57250000D03*
%TD*%
D21*
%TO.P,C2,1*%
%TO.N,+5V*%
X95037500Y-42250000D03*
%TO.P,C2,2*%
%TO.N,GND*%
X92962500Y-42250000D03*
%TD*%
D17*
%TO.P,J7,1,Pin_1*%
%TO.N,GND*%
X97040000Y-23670000D03*
D18*
%TO.P,J7,2,Pin_2*%
X94500000Y-23670000D03*
%TO.P,J7,3,Pin_3*%
%TO.N,Net-(J7-Pin_3)*%
X97040000Y-26210000D03*
%TO.P,J7,4,Pin_4*%
%TO.N,Net-(J7-Pin_4)*%
X94500000Y-26210000D03*
%TO.P,J7,5,Pin_5*%
%TO.N,Net-(J7-Pin_5)*%
X97040000Y-28750000D03*
%TO.P,J7,6,Pin_6*%
%TO.N,Net-(J7-Pin_6)*%
X94500000Y-28750000D03*
%TO.P,J7,7,Pin_7*%
%TO.N,Net-(J7-Pin_7)*%
X97040000Y-31290000D03*
%TO.P,J7,8,Pin_8*%
%TO.N,Net-(J7-Pin_8)*%
X94500000Y-31290000D03*
%TO.P,J7,9,Pin_9*%
%TO.N,Net-(J7-Pin_9)*%
X97040000Y-33830000D03*
%TO.P,J7,10,Pin_10*%
%TO.N,Net-(J7-Pin_10)*%
X94500000Y-33830000D03*
%TO.P,J7,11,Pin_11*%
%TO.N,Net-(J7-Pin_11)*%
X97040000Y-36370000D03*
%TO.P,J7,12,Pin_12*%
%TO.N,Net-(J7-Pin_12)*%
X94500000Y-36370000D03*
%TO.P,J7,13,Pin_13*%
%TO.N,Net-(J7-Pin_13)*%
X97040000Y-38910000D03*
%TO.P,J7,14,Pin_14*%
%TO.N,Net-(J7-Pin_14)*%
X94500000Y-38910000D03*
%TD*%
D19*
%TO.P,J6,1,Pin_1*%
%TO.N,GND*%
X35975000Y-26250000D03*
D20*
%TO.P,J6,2,Pin_2*%
%TO.N,+3.3V*%
X35975000Y-28750000D03*
%TO.P,J6,3,Pin_3*%
%TO.N,+5V*%
X35975000Y-31250000D03*
%TD*%
D17*
%TO.P,J5,1,Pin_1*%
%TO.N,GND*%
X75000000Y-26460000D03*
D18*
%TO.P,J5,2,Pin_2*%
X72460000Y-26460000D03*
%TO.P,J5,3,Pin_3*%
%TO.N,Net-(J5-Pin_3)*%
X75000000Y-29000000D03*
%TO.P,J5,4,Pin_4*%
%TO.N,Net-(J5-Pin_4)*%
X72460000Y-29000000D03*
%TO.P,J5,5,Pin_5*%
%TO.N,Net-(J5-Pin_5)*%
X75000000Y-31540000D03*
%TO.P,J5,6,Pin_6*%
%TO.N,Net-(J5-Pin_6)*%
X72460000Y-31540000D03*
%TO.P,J5,7,Pin_7*%
%TO.N,Net-(J5-Pin_7)*%
X75000000Y-34080000D03*
%TO.P,J5,8,Pin_8*%
%TO.N,Net-(J5-Pin_8)*%
X72460000Y-34080000D03*
%TO.P,J5,9,Pin_9*%
%TO.N,Net-(J5-Pin_9)*%
X75000000Y-36620000D03*
%TO.P,J5,10,Pin_10*%
%TO.N,Net-(J5-Pin_10)*%
X72460000Y-36620000D03*
%TO.P,J5,11,Pin_11*%
%TO.N,Net-(J5-Pin_11)*%
X75000000Y-39160000D03*
%TO.P,J5,12,Pin_12*%
%TO.N,Net-(J5-Pin_12)*%
X72460000Y-39160000D03*
%TD*%
D22*
%TO.N,+5V*%
X37750000Y-66000000D03*
X36750000Y-68250000D03*
X91000000Y-49500000D03*
%TO.N,Net-(A1-GPIO9)*%
X40250000Y-65500000D03*
%TO.N,SPI_0_CS*%
X86555000Y-25555000D03*
X64945000Y-25555000D03*
%TO.N,GND*%
X81250000Y-57500000D03*
X81250000Y-58750000D03*
X72750000Y-60000000D03*
X81250000Y-56250000D03*
X72750000Y-56250000D03*
X72750000Y-57500000D03*
X72460000Y-21500000D03*
%TO.N,Net-(A1-GPIO7)*%
X39250000Y-65250000D03*
%TO.N,Net-(A1-GPIO8)*%
X46250000Y-57750000D03*
D23*
%TO.N,+3.3V*%
X27787500Y-60462500D03*
D22*
X86345000Y-28095000D03*
%TO.N,SPI_0_MOSI*%
X86515000Y-23015000D03*
X63235000Y-23015000D03*
X65000000Y-23015000D03*
%TO.N,Net-(A1-GPIO10)*%
X46250000Y-59250000D03*
%TO.N,SPI_0_MISO*%
X86499317Y-22215152D03*
X64000000Y-22250000D03*
%TO.N,SPI_0_SCK*%
X64986577Y-24263348D03*
X86535000Y-24285000D03*
X62215000Y-24285000D03*
%TO.N,+5V*%
X51500000Y-39000000D03*
X36750000Y-39750000D03*
X53301696Y-46760000D03*
X39000000Y-60865000D03*
%TO.N,INT_1_A*%
X83750000Y-34250000D03*
%TO.N,INT_0_A*%
X82750000Y-33500000D03*
%TO.N,Net-(J8-Pin_2)*%
X34500000Y-60865000D03*
%TO.N,Net-(J8-Pin_3)*%
X33750000Y-62135000D03*
%TD*%
D24*
%TO.N,+5V*%
X37750000Y-66000000D02*
X37750000Y-65250000D01*
X36750000Y-68250000D02*
X36750000Y-67500000D01*
X36750000Y-67500000D02*
X37750000Y-66500000D01*
X37750000Y-66500000D02*
X37750000Y-66000000D01*
X37750000Y-65250000D02*
X39000000Y-64000000D01*
X39000000Y-64000000D02*
X39000000Y-60865000D01*
X94750000Y-48250000D02*
X95250000Y-47750000D01*
X91500000Y-48250000D02*
X94750000Y-48250000D01*
X91000000Y-49500000D02*
X91000000Y-48750000D01*
X91000000Y-48750000D02*
X91500000Y-48250000D01*
X95250000Y-47750000D02*
X95240000Y-47740000D01*
X95240000Y-47740000D02*
X95240000Y-45970000D01*
D25*
%TO.N,GND*%
X92700000Y-45170000D02*
X92700000Y-42512500D01*
X92700000Y-42512500D02*
X92962500Y-42250000D01*
%TO.N,+5V*%
X95240000Y-45170000D02*
X95240000Y-42452500D01*
X95240000Y-42452500D02*
X95037500Y-42250000D01*
D26*
%TO.N,+3.3V*%
X86345000Y-41595000D02*
X87620000Y-42870000D01*
X87620000Y-42870000D02*
X87620000Y-45170000D01*
X86345000Y-28095000D02*
X86345000Y-41595000D01*
D24*
%TO.N,+5V*%
X95240000Y-42702500D02*
X94787500Y-42250000D01*
%TO.N,Net-(A1-GPIO9)*%
X40250000Y-65500000D02*
X41000000Y-64750000D01*
X40000000Y-40000000D02*
X40000000Y-33290000D01*
X41000000Y-41000000D02*
X40000000Y-40000000D01*
X40000000Y-33290000D02*
X43225000Y-30065000D01*
X41000000Y-64750000D02*
X41000000Y-41000000D01*
%TO.N,Net-(A1-GPIO6)*%
X45765000Y-27525000D02*
X49750000Y-31510000D01*
X58250000Y-49000000D02*
X58250000Y-60750000D01*
X58250000Y-60750000D02*
X59750000Y-62250000D01*
X75960000Y-62250000D02*
X77460000Y-63750000D01*
X49750000Y-31510000D02*
X49750000Y-40250000D01*
X48010000Y-47510000D02*
X56760000Y-47510000D01*
X56760000Y-47510000D02*
X58250000Y-49000000D01*
X47250000Y-42750000D02*
X47250000Y-46750000D01*
X47250000Y-46750000D02*
X48010000Y-47510000D01*
X59750000Y-62250000D02*
X75960000Y-62250000D01*
X49750000Y-40250000D02*
X47250000Y-42750000D01*
%TO.N,SPI_0_CS*%
X64945000Y-25555000D02*
X64945000Y-25575000D01*
X64760000Y-25760000D02*
X64760000Y-45170000D01*
X64945000Y-25555000D02*
X65500000Y-25000000D01*
X64945000Y-25575000D02*
X64760000Y-25760000D01*
X86000000Y-25000000D02*
X86555000Y-25555000D01*
X65500000Y-25000000D02*
X86000000Y-25000000D01*
D25*
%TO.N,GND*%
X23250000Y-52250000D02*
X31475000Y-52250000D01*
D24*
X71710000Y-20750000D02*
X52250000Y-20750000D01*
X72750000Y-57500000D02*
X72750000Y-58250000D01*
D25*
X26525000Y-32535000D02*
X26465000Y-32475000D01*
X35975000Y-24275000D02*
X38000000Y-22250000D01*
D24*
X88500000Y-25500000D02*
X88500000Y-24500000D01*
X80000000Y-62250000D02*
X81250000Y-61000000D01*
X88500000Y-24500000D02*
X89330000Y-23670000D01*
X87540000Y-26460000D02*
X88500000Y-25500000D01*
D25*
X80000000Y-66250000D02*
X80000000Y-64550000D01*
D24*
X81250000Y-58250000D02*
X81250000Y-58750000D01*
D25*
X50750000Y-22250000D02*
X52500000Y-22250000D01*
D24*
X81250000Y-61000000D02*
X81250000Y-58750000D01*
D25*
X44250000Y-22250000D02*
X49750000Y-22250000D01*
X26465000Y-32475000D02*
X23275000Y-32475000D01*
X30250000Y-26250000D02*
X26525000Y-29975000D01*
D24*
X72750000Y-51500000D02*
X72750000Y-56250000D01*
D25*
X78750000Y-67500000D02*
X80000000Y-66250000D01*
X23275000Y-32475000D02*
X21500000Y-34250000D01*
D24*
X81250000Y-58250000D02*
X81250000Y-57500000D01*
D25*
X31475000Y-43225000D02*
X31475000Y-52250000D01*
X45765000Y-22265000D02*
X45765000Y-24985000D01*
X38000000Y-22250000D02*
X44250000Y-22250000D01*
X45750000Y-22250000D02*
X45765000Y-22265000D01*
X67300000Y-64550000D02*
X67300000Y-66050000D01*
X44250000Y-22250000D02*
X45750000Y-22250000D01*
D24*
X72750000Y-58250000D02*
X72750000Y-60000000D01*
D25*
X67300000Y-66050000D02*
X68750000Y-67500000D01*
X69790000Y-26460000D02*
X72460000Y-26460000D01*
D24*
X52250000Y-20750000D02*
X50750000Y-22250000D01*
X80000000Y-63750000D02*
X80000000Y-62250000D01*
D25*
X27065000Y-42010000D02*
X30260000Y-42010000D01*
D24*
X89330000Y-23670000D02*
X94500000Y-23670000D01*
D25*
X53500000Y-22250000D02*
X54600000Y-23350000D01*
X49750000Y-22250000D02*
X53500000Y-22250000D01*
X67300000Y-45170000D02*
X67300000Y-28950000D01*
D24*
X81250000Y-57500000D02*
X81250000Y-56250000D01*
D25*
X67300000Y-28950000D02*
X69790000Y-26460000D01*
X35975000Y-26250000D02*
X35975000Y-24275000D01*
D24*
X67300000Y-46050000D02*
X72750000Y-51500000D01*
D25*
X21500000Y-50500000D02*
X23250000Y-52250000D01*
D24*
X72750000Y-56250000D02*
X72750000Y-57500000D01*
D25*
X30260000Y-42010000D02*
X31475000Y-43225000D01*
X52500000Y-22250000D02*
X52500000Y-24920000D01*
X54600000Y-23350000D02*
X54600000Y-45170000D01*
D24*
X72460000Y-21500000D02*
X71710000Y-20750000D01*
D25*
X21500000Y-34250000D02*
X21500000Y-50500000D01*
X68750000Y-67500000D02*
X78750000Y-67500000D01*
D24*
X72750000Y-58250000D02*
X81250000Y-58250000D01*
D25*
X26525000Y-29975000D02*
X26525000Y-32535000D01*
D24*
X67300000Y-45970000D02*
X67300000Y-46050000D01*
D25*
X49750000Y-22250000D02*
X50750000Y-22250000D01*
D24*
X75000000Y-26460000D02*
X87540000Y-26460000D01*
D25*
X35975000Y-26250000D02*
X30250000Y-26250000D01*
D24*
%TO.N,Net-(A1-GPIO7)*%
X40250000Y-64250000D02*
X40250000Y-41250000D01*
X39250000Y-40250000D02*
X39250000Y-31500000D01*
X40250000Y-41250000D02*
X39250000Y-40250000D01*
X39250000Y-31500000D02*
X43225000Y-27525000D01*
X39250000Y-65250000D02*
X40250000Y-64250000D01*
%TO.N,Net-(A1-GPIO8)*%
X49000000Y-39750000D02*
X46250000Y-42500000D01*
X45765000Y-30065000D02*
X49000000Y-33300000D01*
X46250000Y-42500000D02*
X46250000Y-57500000D01*
X49000000Y-33300000D02*
X49000000Y-39750000D01*
D25*
%TO.N,+3.3V*%
X34125000Y-63625000D02*
X30375000Y-63625000D01*
X37750000Y-36000000D02*
X35500000Y-38250000D01*
X35500000Y-62250000D02*
X34125000Y-63625000D01*
X41515000Y-24985000D02*
X43225000Y-24985000D01*
X35500000Y-38250000D02*
X35500000Y-62250000D01*
X35975000Y-28750000D02*
X37750000Y-28750000D01*
X37750000Y-28750000D02*
X37750000Y-36000000D01*
X37750000Y-28750000D02*
X41515000Y-24985000D01*
X27787500Y-61037500D02*
X27787500Y-60462500D01*
X30375000Y-63625000D02*
X27787500Y-61037500D01*
D24*
%TO.N,Net-(A1-GPIO12)*%
X50996551Y-61000000D02*
X52246551Y-62250000D01*
X44750000Y-59250000D02*
X46500000Y-61000000D01*
X47500000Y-38750000D02*
X44750000Y-41500000D01*
X45765000Y-35145000D02*
X47500000Y-36880000D01*
X47500000Y-36880000D02*
X47500000Y-38750000D01*
X52246551Y-62250000D02*
X58180000Y-62250000D01*
X58180000Y-62250000D02*
X59680000Y-63750000D01*
X46500000Y-61000000D02*
X50996551Y-61000000D01*
X44750000Y-41500000D02*
X44750000Y-59250000D01*
%TO.N,Net-(A1-GPIO13)*%
X41500000Y-38750000D02*
X42500000Y-39750000D01*
X57140000Y-65110000D02*
X57140000Y-64550000D01*
X43225000Y-35145000D02*
X41500000Y-36870000D01*
X42500000Y-65000000D02*
X44250000Y-66750000D01*
X42500000Y-39750000D02*
X42500000Y-65000000D01*
X44250000Y-66750000D02*
X55500000Y-66750000D01*
X55500000Y-66750000D02*
X57140000Y-65110000D01*
X41500000Y-36870000D02*
X41500000Y-38750000D01*
%TO.N,SPI_0_MOSI*%
X63235000Y-23015000D02*
X63000000Y-23250000D01*
X63000000Y-40250000D02*
X59680000Y-43570000D01*
X65000000Y-23015000D02*
X86515000Y-23015000D01*
X63000000Y-23250000D02*
X63000000Y-40250000D01*
X59680000Y-43570000D02*
X59680000Y-45170000D01*
%TO.N,Net-(A1-GPIO11)*%
X43750000Y-67750000D02*
X60000000Y-67750000D01*
X40750000Y-35080000D02*
X40750000Y-39500000D01*
X60000000Y-67750000D02*
X62220000Y-65530000D01*
X62220000Y-65530000D02*
X62220000Y-64550000D01*
X40750000Y-39500000D02*
X41750000Y-40500000D01*
X41750000Y-65750000D02*
X43750000Y-67750000D01*
X41750000Y-40500000D02*
X41750000Y-65750000D01*
X43225000Y-32605000D02*
X40750000Y-35080000D01*
%TO.N,Net-(A1-GPIO10)*%
X45765000Y-32605000D02*
X48250000Y-35090000D01*
X48250000Y-39250000D02*
X45500000Y-42000000D01*
X45500000Y-58500000D02*
X46250000Y-59250000D01*
X45500000Y-42000000D02*
X45500000Y-58500000D01*
X48250000Y-35090000D02*
X48250000Y-39250000D01*
%TO.N,Net-(A1-GPIO14)*%
X44000000Y-39450000D02*
X44000000Y-60000000D01*
X45750000Y-61750000D02*
X50060000Y-61750000D01*
X51622500Y-63872500D02*
X51622500Y-64640000D01*
X50060000Y-61750000D02*
X52060000Y-63750000D01*
X44000000Y-60000000D02*
X45750000Y-61750000D01*
X45765000Y-37685000D02*
X44000000Y-39450000D01*
%TO.N,SPI_0_MISO*%
X86464469Y-22250000D02*
X64000000Y-22250000D01*
X64000000Y-41750000D02*
X62220000Y-43530000D01*
X86499317Y-22215152D02*
X86464469Y-22250000D01*
X62220000Y-43530000D02*
X62220000Y-45170000D01*
X64000000Y-22250000D02*
X64000000Y-41750000D01*
%TO.N,Net-(A1-GPIO15)*%
X43225000Y-37685000D02*
X43225000Y-64225000D01*
X44750000Y-65750000D02*
X48320000Y-65750000D01*
X48320000Y-65750000D02*
X49520000Y-64550000D01*
X43225000Y-64225000D02*
X44750000Y-65750000D01*
%TO.N,SPI_0_SCK*%
X62000000Y-24500000D02*
X62000000Y-39750000D01*
X59750000Y-42000000D02*
X58500000Y-42000000D01*
X62215000Y-24285000D02*
X62000000Y-24500000D01*
X86513348Y-24263348D02*
X86535000Y-24285000D01*
X62000000Y-39750000D02*
X59750000Y-42000000D01*
X64986577Y-24263348D02*
X86513348Y-24263348D01*
X57140000Y-43360000D02*
X57140000Y-45170000D01*
X58500000Y-42000000D02*
X57140000Y-43360000D01*
D25*
%TO.N,+5V*%
X35975000Y-31250000D02*
X34750000Y-31250000D01*
X24525000Y-39615000D02*
X26525000Y-37615000D01*
X24525000Y-42010000D02*
X24525000Y-39615000D01*
D24*
X53308660Y-46753036D02*
X53301696Y-46760000D01*
D25*
X34750000Y-31250000D02*
X28385000Y-37615000D01*
D24*
X53310000Y-40810000D02*
X53310000Y-46690000D01*
X53308660Y-46691340D02*
X53308660Y-46753036D01*
D25*
X28385000Y-37615000D02*
X26525000Y-37615000D01*
D24*
X53310000Y-46690000D02*
X53308660Y-46691340D01*
X36750000Y-39750000D02*
X36750000Y-58500000D01*
X36750000Y-58500000D02*
X39000000Y-60750000D01*
X51500000Y-39000000D02*
X53310000Y-40810000D01*
X39000000Y-60750000D02*
X39000000Y-60865000D01*
D27*
%TO.N,INT_1_A*%
X83750000Y-47750000D02*
X83000000Y-48500000D01*
X83000000Y-48500000D02*
X83000000Y-60000000D01*
X85080000Y-62080000D02*
X85080000Y-63750000D01*
X83000000Y-60000000D02*
X85080000Y-62080000D01*
X83750000Y-34250000D02*
X83750000Y-47750000D01*
%TO.N,INT_0_A*%
X82000000Y-42250000D02*
X82000000Y-43283654D01*
X82000000Y-43283654D02*
X81390000Y-43893654D01*
X82540000Y-62040000D02*
X82540000Y-63750000D01*
X82750000Y-33500000D02*
X82750000Y-41500000D01*
X81390000Y-43893654D02*
X81390000Y-47890000D01*
X81390000Y-47890000D02*
X82250000Y-48750000D01*
X82250000Y-48750000D02*
X82250000Y-61750000D01*
X82250000Y-61750000D02*
X82540000Y-62040000D01*
X82750000Y-41500000D02*
X82000000Y-42250000D01*
D24*
%TO.N,Net-(J8-Pin_2)*%
X32500000Y-54750000D02*
X31475000Y-54750000D01*
X34500000Y-56750000D02*
X32500000Y-54750000D01*
X34500000Y-60865000D02*
X34500000Y-56750000D01*
%TO.N,Net-(J8-Pin_3)*%
X33250000Y-57250000D02*
X31475000Y-57250000D01*
X33750000Y-62135000D02*
X33750000Y-57750000D01*
X33750000Y-57750000D02*
X33250000Y-57250000D01*
%TD*%
%TA.AperFunction,Conductor*%
%TO.N,GND*%
G36*
X95652356Y-24468803D02*
G01*
X95685841Y-24530126D01*
X95684926Y-24544831D01*
X95687497Y-24544555D01*
X95696401Y-24627373D01*
X95696403Y-24627380D01*
X95746645Y-24762086D01*
X95746649Y-24762093D01*
X95832809Y-24877187D01*
X95832812Y-24877190D01*
X95947906Y-24963350D01*
X95947913Y-24963354D01*
X96079470Y-25012422D01*
X96135404Y-25054293D01*
X96159821Y-25119758D01*
X96144969Y-25188031D01*
X96123819Y-25216285D01*
X96009889Y-25330215D01*
X95884949Y-25502182D01*
X95880484Y-25510946D01*
X95832509Y-25561742D01*
X95764688Y-25578536D01*
X95698553Y-25555998D01*
X95659516Y-25510946D01*
X95655050Y-25502182D01*
X95530109Y-25330213D01*
X95379786Y-25179890D01*
X95207817Y-25054949D01*
X95198504Y-25050204D01*
X95147707Y-25002230D01*
X95130912Y-24934409D01*
X95153449Y-24868274D01*
X95198507Y-24829232D01*
X95207555Y-24824622D01*
X95261716Y-24785270D01*
X95261717Y-24785270D01*
X94629408Y-24152962D01*
X94692993Y-24135925D01*
X94807007Y-24070099D01*
X94900099Y-23977007D01*
X94965925Y-23862993D01*
X94982962Y-23799408D01*
X95652356Y-24468803D01*
G37*
%TD.AperFunction*%
%TA.AperFunction,Conductor*%
G36*
X99442539Y-20520185D02*
G01*
X99488294Y-20572989D01*
X99499500Y-20624500D01*
X99499500Y-68425500D01*
X99479815Y-68492539D01*
X99427011Y-68538294D01*
X99375500Y-68549500D01*
X60561108Y-68549500D01*
X60494069Y-68529815D01*
X60448314Y-68477011D01*
X60438370Y-68407853D01*
X60467395Y-68344297D01*
X60474361Y-68337513D01*
X60474108Y-68337260D01*
X62124548Y-66686819D01*
X62185871Y-66653334D01*
X62212229Y-66650500D01*
X62276785Y-66650500D01*
X62276785Y-66650499D01*
X62446692Y-66635635D01*
X62666496Y-66576739D01*
X62872734Y-66480568D01*
X63059139Y-66350047D01*
X63220047Y-66189139D01*
X63350568Y-66002734D01*
X63377618Y-65944724D01*
X63423790Y-65892285D01*
X63490983Y-65873133D01*
X63557865Y-65893348D01*
X63602381Y-65944724D01*
X63613661Y-65968913D01*
X63629429Y-66002728D01*
X63629432Y-66002734D01*
X63759954Y-66189141D01*
X63920858Y-66350045D01*
X63920861Y-66350047D01*
X64107266Y-66480568D01*
X64313504Y-66576739D01*
X64313509Y-66576740D01*
X64313511Y-66576741D01*
X64350205Y-66586573D01*
X64533308Y-66635635D01*
X64703214Y-66650499D01*
X64703215Y-66650500D01*
X64703216Y-66650500D01*
X64816785Y-66650500D01*
X64816785Y-66650499D01*
X64986692Y-66635635D01*
X65206496Y-66576739D01*
X65412734Y-66480568D01*
X65599139Y-66350047D01*
X65760047Y-66189139D01*
X65890568Y-66002734D01*
X65914795Y-65950777D01*
X65960965Y-65898341D01*
X66028158Y-65879188D01*
X66095040Y-65899403D01*
X66136534Y-65944730D01*
X66171155Y-66009501D01*
X66171167Y-66009521D01*
X66258704Y-66140530D01*
X66258708Y-66140536D01*
X66321514Y-66217064D01*
X66432935Y-66328485D01*
X66509463Y-66391291D01*
X66509469Y-66391295D01*
X66640478Y-66478832D01*
X66640498Y-66478844D01*
X66727801Y-66525509D01*
X66873387Y-66585814D01*
X66968135Y-66614554D01*
X67050000Y-66630837D01*
X67050000Y-64674000D01*
X67069685Y-64606961D01*
X67122489Y-64561206D01*
X67174000Y-64550000D01*
X67426000Y-64550000D01*
X67493039Y-64569685D01*
X67538794Y-64622489D01*
X67550000Y-64674000D01*
X67550000Y-66630837D01*
X67631864Y-66614554D01*
X67726612Y-66585814D01*
X67872198Y-66525509D01*
X67959501Y-66478844D01*
X67959521Y-66478832D01*
X68090530Y-66391295D01*
X68090536Y-66391291D01*
X68167064Y-66328485D01*
X68278485Y-66217064D01*
X68341291Y-66140536D01*
X68341295Y-66140530D01*
X68428832Y-66009521D01*
X68428844Y-66009500D01*
X68463464Y-65944732D01*
X68512426Y-65894887D01*
X68580564Y-65879426D01*
X68646244Y-65903257D01*
X68685204Y-65950778D01*
X68693661Y-65968913D01*
X68709431Y-66002732D01*
X68709432Y-66002734D01*
X68839954Y-66189141D01*
X69000858Y-66350045D01*
X69000861Y-66350047D01*
X69187266Y-66480568D01*
X69393504Y-66576739D01*
X69393509Y-66576740D01*
X69393511Y-66576741D01*
X69430205Y-66586573D01*
X69613308Y-66635635D01*
X69783214Y-66650499D01*
X69783215Y-66650500D01*
X69783216Y-66650500D01*
X69896785Y-66650500D01*
X69896785Y-66650499D01*
X70066692Y-66635635D01*
X70286496Y-66576739D01*
X70492734Y-66480568D01*
X70679139Y-66350047D01*
X70840047Y-66189139D01*
X70970568Y-66002734D01*
X70997618Y-65944724D01*
X71043790Y-65892285D01*
X71110983Y-65873133D01*
X71177865Y-65893348D01*
X71222381Y-65944724D01*
X71233661Y-65968913D01*
X71249429Y-66002728D01*
X71249432Y-66002734D01*
X71379954Y-66189141D01*
X71540858Y-66350045D01*
X71540861Y-66350047D01*
X71727266Y-66480568D01*
X71933504Y-66576739D01*
X71933509Y-66576740D01*
X71933511Y-66576741D01*
X71970205Y-66586573D01*
X72153308Y-66635635D01*
X72323214Y-66650499D01*
X72323215Y-66650500D01*
X72323216Y-66650500D01*
X72436785Y-66650500D01*
X72436785Y-66650499D01*
X72606692Y-66635635D01*
X72826496Y-66576739D01*
X73032734Y-66480568D01*
X73219139Y-66350047D01*
X73380047Y-66189139D01*
X73510568Y-66002734D01*
X73537618Y-65944724D01*
X73583790Y-65892285D01*
X73650983Y-65873133D01*
X73717865Y-65893348D01*
X73762381Y-65944724D01*
X73773661Y-65968913D01*
X73789429Y-66002728D01*
X73789432Y-66002734D01*
X73919954Y-66189141D01*
X74080858Y-66350045D01*
X74080861Y-66350047D01*
X74267266Y-66480568D01*
X74473504Y-66576739D01*
X74473509Y-66576740D01*
X74473511Y-66576741D01*
X74510205Y-66586573D01*
X74693308Y-66635635D01*
X74863214Y-66650499D01*
X74863215Y-66650500D01*
X74863216Y-66650500D01*
X74976785Y-66650500D01*
X74976785Y-66650499D01*
X75146692Y-66635635D01*
X75366496Y-66576739D01*
X75572734Y-66480568D01*
X75759139Y-66350047D01*
X75920047Y-66189139D01*
X76050568Y-66002734D01*
X76077618Y-65944724D01*
X76123790Y-65892285D01*
X76190983Y-65873133D01*
X76257865Y-65893348D01*
X76302381Y-65944724D01*
X76313661Y-65968913D01*
X76329429Y-66002728D01*
X76329432Y-66002734D01*
X76459954Y-66189141D01*
X76620858Y-66350045D01*
X76620861Y-66350047D01*
X76807266Y-66480568D01*
X77013504Y-66576739D01*
X77013509Y-66576740D01*
X77013511Y-66576741D01*
X77050205Y-66586573D01*
X77233308Y-66635635D01*
X77403214Y-66650499D01*
X77403215Y-66650500D01*
X77403216Y-66650500D01*
X77516785Y-66650500D01*
X77516785Y-66650499D01*
X77686692Y-66635635D01*
X77906496Y-66576739D01*
X78112734Y-66480568D01*
X78299139Y-66350047D01*
X78460047Y-66189139D01*
X78590568Y-66002734D01*
X78614795Y-65950777D01*
X78660965Y-65898341D01*
X78728158Y-65879188D01*
X78795040Y-65899403D01*
X78836534Y-65944730D01*
X78871155Y-66009501D01*
X78871167Y-66009521D01*
X78958704Y-66140530D01*
X78958708Y-66140536D01*
X79021514Y-66217064D01*
X79132935Y-66328485D01*
X79209463Y-66391291D01*
X79209469Y-66391295D01*
X79340478Y-66478832D01*
X79340498Y-66478844D01*
X79427801Y-66525509D01*
X79573387Y-66585814D01*
X79668135Y-66614554D01*
X79750000Y-66630837D01*
X79750000Y-64183012D01*
X79807007Y-64215925D01*
X79934174Y-64250000D01*
X80065826Y-64250000D01*
X80192993Y-64215925D01*
X80250000Y-64183012D01*
X80250000Y-66630837D01*
X80331864Y-66614554D01*
X80426612Y-66585814D01*
X80572198Y-66525509D01*
X80659501Y-66478844D01*
X80659521Y-66478832D01*
X80790530Y-66391295D01*
X80790536Y-66391291D01*
X80867064Y-66328485D01*
X80978485Y-66217064D01*
X81041291Y-66140536D01*
X81041295Y-66140530D01*
X81128832Y-66009521D01*
X81128844Y-66009500D01*
X81163464Y-65944732D01*
X81212426Y-65894887D01*
X81280564Y-65879426D01*
X81346244Y-65903257D01*
X81385204Y-65950778D01*
X81393661Y-65968913D01*
X81409431Y-66002732D01*
X81409432Y-66002734D01*
X81539954Y-66189141D01*
X81700858Y-66350045D01*
X81700861Y-66350047D01*
X81887266Y-66480568D01*
X82093504Y-66576739D01*
X82093509Y-66576740D01*
X82093511Y-66576741D01*
X82130205Y-66586573D01*
X82313308Y-66635635D01*
X82483214Y-66650499D01*
X82483215Y-66650500D01*
X82483216Y-66650500D01*
X82596785Y-66650500D01*
X82596785Y-66650499D01*
X82766692Y-66635635D01*
X82986496Y-66576739D01*
X83192734Y-66480568D01*
X83379139Y-66350047D01*
X83540047Y-66189139D01*
X83670568Y-66002734D01*
X83697618Y-65944724D01*
X83743790Y-65892285D01*
X83810983Y-65873133D01*
X83877865Y-65893348D01*
X83922381Y-65944724D01*
X83933661Y-65968913D01*
X83949429Y-66002728D01*
X83949432Y-66002734D01*
X84079954Y-66189141D01*
X84240858Y-66350045D01*
X84240861Y-66350047D01*
X84427266Y-66480568D01*
X84633504Y-66576739D01*
X84633509Y-66576740D01*
X84633511Y-66576741D01*
X84670205Y-66586573D01*
X84853308Y-66635635D01*
X85023214Y-66650499D01*
X85023215Y-66650500D01*
X85023216Y-66650500D01*
X85136785Y-66650500D01*
X85136785Y-66650499D01*
X85306692Y-66635635D01*
X85526496Y-66576739D01*
X85732734Y-66480568D01*
X85919139Y-66350047D01*
X86080047Y-66189139D01*
X86210568Y-66002734D01*
X86237618Y-65944724D01*
X86283790Y-65892285D01*
X86350983Y-65873133D01*
X86417865Y-65893348D01*
X86462381Y-65944724D01*
X86473661Y-65968913D01*
X86489429Y-66002728D01*
X86489432Y-66002734D01*
X86619954Y-66189141D01*
X86780858Y-66350045D01*
X86780861Y-66350047D01*
X86967266Y-66480568D01*
X87173504Y-66576739D01*
X87173509Y-66576740D01*
X87173511Y-66576741D01*
X87210205Y-66586573D01*
X87393308Y-66635635D01*
X87563214Y-66650499D01*
X87563215Y-66650500D01*
X87563216Y-66650500D01*
X87676785Y-66650500D01*
X87676785Y-66650499D01*
X87846692Y-66635635D01*
X88066496Y-66576739D01*
X88272734Y-66480568D01*
X88459139Y-66350047D01*
X88620047Y-66189139D01*
X88750568Y-66002734D01*
X88777618Y-65944724D01*
X88823790Y-65892285D01*
X88890983Y-65873133D01*
X88957865Y-65893348D01*
X89002381Y-65944724D01*
X89013661Y-65968913D01*
X89029429Y-66002728D01*
X89029432Y-66002734D01*
X89159954Y-66189141D01*
X89320858Y-66350045D01*
X89320861Y-66350047D01*
X89507266Y-66480568D01*
X89713504Y-66576739D01*
X89713509Y-66576740D01*
X89713511Y-66576741D01*
X89750205Y-66586573D01*
X89933308Y-66635635D01*
X90103214Y-66650499D01*
X90103215Y-66650500D01*
X90103216Y-66650500D01*
X90216785Y-66650500D01*
X90216785Y-66650499D01*
X90386692Y-66635635D01*
X90606496Y-66576739D01*
X90812734Y-66480568D01*
X90999139Y-66350047D01*
X91160047Y-66189139D01*
X91290568Y-66002734D01*
X91314795Y-65950777D01*
X91360965Y-65898341D01*
X91428158Y-65879188D01*
X91495040Y-65899403D01*
X91536534Y-65944730D01*
X91571155Y-66009501D01*
X91571167Y-66009521D01*
X91658704Y-66140530D01*
X91658708Y-66140536D01*
X91721514Y-66217064D01*
X91832935Y-66328485D01*
X91909463Y-66391291D01*
X91909469Y-66391295D01*
X92040478Y-66478832D01*
X92040498Y-66478844D01*
X92127801Y-66525509D01*
X92273387Y-66585814D01*
X92368135Y-66614554D01*
X92450000Y-66630837D01*
X92450000Y-64183012D01*
X92507007Y-64215925D01*
X92634174Y-64250000D01*
X92765826Y-64250000D01*
X92892993Y-64215925D01*
X92950000Y-64183012D01*
X92950000Y-66630837D01*
X93031864Y-66614554D01*
X93126612Y-66585814D01*
X93272198Y-66525509D01*
X93359501Y-66478844D01*
X93359521Y-66478832D01*
X93490530Y-66391295D01*
X93490536Y-66391291D01*
X93567064Y-66328485D01*
X93678485Y-66217064D01*
X93741291Y-66140536D01*
X93741295Y-66140530D01*
X93828832Y-66009521D01*
X93828844Y-66009500D01*
X93863464Y-65944732D01*
X93912426Y-65894887D01*
X93980564Y-65879426D01*
X94046244Y-65903257D01*
X94085204Y-65950778D01*
X94093661Y-65968913D01*
X94109431Y-66002732D01*
X94109432Y-66002734D01*
X94239954Y-66189141D01*
X94400858Y-66350045D01*
X94400861Y-66350047D01*
X94587266Y-66480568D01*
X94793504Y-66576739D01*
X94793509Y-66576740D01*
X94793511Y-66576741D01*
X94830205Y-66586573D01*
X95013308Y-66635635D01*
X95183214Y-66650499D01*
X95183215Y-66650500D01*
X95183216Y-66650500D01*
X95296785Y-66650500D01*
X95296785Y-66650499D01*
X95466692Y-66635635D01*
X95686496Y-66576739D01*
X95892734Y-66480568D01*
X96079139Y-66350047D01*
X96240047Y-66189139D01*
X96286250Y-66123153D01*
X96340823Y-66079530D01*
X96410321Y-66072336D01*
X96472677Y-66103857D01*
X96507970Y-66163609D01*
X96512975Y-66183216D01*
X96512980Y-66183233D01*
X96543419Y-66256719D01*
X96543431Y-66256747D01*
X96566779Y-66305548D01*
X96566782Y-66305553D01*
X96609893Y-66363142D01*
X96653006Y-66420733D01*
X96653010Y-66420737D01*
X96653015Y-66420743D01*
X96709252Y-66476980D01*
X96709261Y-66476988D01*
X96709267Y-66476994D01*
X96713245Y-66480567D01*
X96749524Y-66513156D01*
X96749532Y-66513162D01*
X96873263Y-66586573D01*
X96873262Y-66586573D01*
X96873279Y-66586580D01*
X96946774Y-66617022D01*
X96997802Y-66635024D01*
X97140218Y-66655500D01*
X97140221Y-66655500D01*
X98419784Y-66655500D01*
X98460195Y-66653334D01*
X98473815Y-66652604D01*
X98613226Y-66617022D01*
X98686735Y-66586574D01*
X98735551Y-66563219D01*
X98850733Y-66476994D01*
X98906994Y-66420733D01*
X98943157Y-66380475D01*
X98961211Y-66350047D01*
X98987612Y-66305548D01*
X99016574Y-66256735D01*
X99047022Y-66183226D01*
X99065024Y-66132198D01*
X99085500Y-65989782D01*
X99085500Y-63671207D01*
X99081097Y-63626501D01*
X99080500Y-63614348D01*
X99080500Y-63093386D01*
X99078229Y-63068391D01*
X99074086Y-63022804D01*
X99023478Y-62860394D01*
X98935472Y-62714815D01*
X98935470Y-62714813D01*
X98935469Y-62714811D01*
X98815188Y-62594530D01*
X98794176Y-62581828D01*
X98669606Y-62506522D01*
X98507196Y-62455914D01*
X98507194Y-62455913D01*
X98507192Y-62455913D01*
X98457778Y-62451423D01*
X98436616Y-62449500D01*
X98436613Y-62449500D01*
X97915650Y-62449500D01*
X97903497Y-62448903D01*
X97858793Y-62444500D01*
X97701207Y-62444500D01*
X97656502Y-62448903D01*
X97644350Y-62449500D01*
X97123384Y-62449500D01*
X97104145Y-62451248D01*
X97052807Y-62455913D01*
X96890393Y-62506522D01*
X96744811Y-62594530D01*
X96624530Y-62714811D01*
X96536521Y-62860396D01*
X96509456Y-62947251D01*
X96470719Y-63005398D01*
X96406693Y-63033372D01*
X96337708Y-63022290D01*
X96289496Y-62981483D01*
X96240047Y-62910861D01*
X96240045Y-62910859D01*
X96240044Y-62910857D01*
X96079140Y-62749953D01*
X95996078Y-62691793D01*
X95995180Y-62691164D01*
X95921610Y-62637713D01*
X95911448Y-62632535D01*
X95904346Y-62627562D01*
X95892734Y-62619432D01*
X95812128Y-62581844D01*
X95810169Y-62580930D01*
X95739219Y-62544780D01*
X95717534Y-62537733D01*
X95710662Y-62534529D01*
X95710661Y-62534528D01*
X95686494Y-62523260D01*
X95612600Y-62503460D01*
X95612600Y-62503459D01*
X95609446Y-62502614D01*
X95544534Y-62481523D01*
X95510766Y-62476174D01*
X95466692Y-62464365D01*
X95466689Y-62464364D01*
X95466686Y-62464364D01*
X95402891Y-62458783D01*
X95394301Y-62457728D01*
X95382848Y-62455914D01*
X95342352Y-62449500D01*
X95137648Y-62449500D01*
X95137644Y-62449500D01*
X95085697Y-62457728D01*
X95085695Y-62457728D01*
X95081410Y-62458406D01*
X95013308Y-62464365D01*
X94969245Y-62476170D01*
X94962841Y-62477185D01*
X94962824Y-62477189D01*
X94935463Y-62481523D01*
X94935459Y-62481524D01*
X94873627Y-62501615D01*
X94867404Y-62503459D01*
X94793504Y-62523261D01*
X94793503Y-62523261D01*
X94769338Y-62534529D01*
X94769337Y-62534528D01*
X94762456Y-62537736D01*
X94740781Y-62544780D01*
X94669886Y-62580901D01*
X94667900Y-62581828D01*
X94667882Y-62581838D01*
X94587262Y-62619433D01*
X94575655Y-62627559D01*
X94575656Y-62627560D01*
X94568549Y-62632535D01*
X94558390Y-62637713D01*
X94484870Y-62691126D01*
X94483939Y-62691779D01*
X94400859Y-62749954D01*
X94239954Y-62910859D01*
X94193374Y-62977380D01*
X94138796Y-63021004D01*
X94069298Y-63028195D01*
X94006944Y-62996671D01*
X93971652Y-62936918D01*
X93966559Y-62916962D01*
X93943135Y-62860414D01*
X93182961Y-63620588D01*
X93165925Y-63557007D01*
X93100099Y-63442993D01*
X93007007Y-63349901D01*
X92892993Y-63284075D01*
X92765826Y-63250000D01*
X92634174Y-63250000D01*
X92507007Y-63284075D01*
X92392993Y-63349901D01*
X92299901Y-63442993D01*
X92234075Y-63557007D01*
X92217037Y-63620589D01*
X91456863Y-62860415D01*
X91456862Y-62860415D01*
X91433446Y-62916947D01*
X91433431Y-62916987D01*
X91423491Y-62945164D01*
X91382625Y-63001835D01*
X91317607Y-63027417D01*
X91249079Y-63013785D01*
X91204979Y-62975032D01*
X91160044Y-62910857D01*
X90999140Y-62749953D01*
X90916078Y-62691793D01*
X90914316Y-62690536D01*
X90855763Y-62647995D01*
X90841612Y-62637714D01*
X90839169Y-62636469D01*
X90824347Y-62627563D01*
X90812734Y-62619432D01*
X90732128Y-62581844D01*
X90730169Y-62580930D01*
X90659219Y-62544780D01*
X90637534Y-62537733D01*
X90630662Y-62534529D01*
X90630661Y-62534528D01*
X90606494Y-62523260D01*
X90545300Y-62506863D01*
X91810414Y-62506863D01*
X92449999Y-63146448D01*
X92950000Y-63146448D01*
X93589584Y-62506862D01*
X93533059Y-62483449D01*
X93482053Y-62465455D01*
X93339780Y-62445000D01*
X92950000Y-62445000D01*
X92950000Y-63146448D01*
X92449999Y-63146448D01*
X92450000Y-63146447D01*
X92450000Y-62445000D01*
X92060214Y-62445000D01*
X92006237Y-62447893D01*
X92006235Y-62447893D01*
X91866976Y-62483436D01*
X91866962Y-62483441D01*
X91810414Y-62506863D01*
X90545300Y-62506863D01*
X90532600Y-62503460D01*
X90532600Y-62503459D01*
X90529446Y-62502614D01*
X90464534Y-62481523D01*
X90430766Y-62476174D01*
X90386692Y-62464365D01*
X90386689Y-62464364D01*
X90386686Y-62464364D01*
X90322891Y-62458783D01*
X90314301Y-62457728D01*
X90302848Y-62455914D01*
X90262352Y-62449500D01*
X90057648Y-62449500D01*
X90057644Y-62449500D01*
X90005697Y-62457728D01*
X90005695Y-62457728D01*
X90001410Y-62458406D01*
X89933308Y-62464365D01*
X89889245Y-62476170D01*
X89882841Y-62477185D01*
X89882824Y-62477189D01*
X89855463Y-62481523D01*
X89855459Y-62481524D01*
X89793627Y-62501615D01*
X89787404Y-62503459D01*
X89713504Y-62523261D01*
X89713503Y-62523261D01*
X89689338Y-62534529D01*
X89689337Y-62534528D01*
X89682456Y-62537736D01*
X89660781Y-62544780D01*
X89589886Y-62580901D01*
X89587900Y-62581828D01*
X89587882Y-62581838D01*
X89507262Y-62619433D01*
X89495655Y-62627559D01*
X89495656Y-62627560D01*
X89488549Y-62632535D01*
X89478390Y-62637713D01*
X89404870Y-62691126D01*
X89403939Y-62691779D01*
X89320859Y-62749954D01*
X89159954Y-62910859D01*
X89101781Y-62993934D01*
X89101782Y-62993935D01*
X89101132Y-62994863D01*
X89047713Y-63068390D01*
X89042535Y-63078550D01*
X89037560Y-63085656D01*
X89037558Y-63085656D01*
X89029435Y-63097260D01*
X89002380Y-63155276D01*
X88956206Y-63207714D01*
X88889012Y-63226864D01*
X88822131Y-63206646D01*
X88777617Y-63155272D01*
X88750570Y-63097270D01*
X88750568Y-63097266D01*
X88742436Y-63085652D01*
X88733524Y-63070818D01*
X88732288Y-63068391D01*
X88732286Y-63068388D01*
X88679462Y-62995682D01*
X88678205Y-62993920D01*
X88620045Y-62910858D01*
X88459140Y-62749953D01*
X88376078Y-62691793D01*
X88375180Y-62691164D01*
X88301610Y-62637713D01*
X88291448Y-62632535D01*
X88284346Y-62627562D01*
X88272734Y-62619432D01*
X88192128Y-62581844D01*
X88190169Y-62580930D01*
X88119219Y-62544780D01*
X88097534Y-62537733D01*
X88090662Y-62534529D01*
X88090661Y-62534528D01*
X88066494Y-62523260D01*
X87992600Y-62503460D01*
X87992600Y-62503459D01*
X87989446Y-62502614D01*
X87924534Y-62481523D01*
X87890766Y-62476174D01*
X87846692Y-62464365D01*
X87846689Y-62464364D01*
X87846686Y-62464364D01*
X87782891Y-62458783D01*
X87774301Y-62457728D01*
X87762848Y-62455914D01*
X87722352Y-62449500D01*
X87517648Y-62449500D01*
X87517644Y-62449500D01*
X87465697Y-62457728D01*
X87465695Y-62457728D01*
X87461410Y-62458406D01*
X87393308Y-62464365D01*
X87349245Y-62476170D01*
X87342841Y-62477185D01*
X87342824Y-62477189D01*
X87315463Y-62481523D01*
X87315459Y-62481524D01*
X87253627Y-62501615D01*
X87247404Y-62503459D01*
X87173504Y-62523261D01*
X87173503Y-62523261D01*
X87149338Y-62534529D01*
X87149337Y-62534528D01*
X87142456Y-62537736D01*
X87120781Y-62544780D01*
X87049886Y-62580901D01*
X87047900Y-62581828D01*
X87047882Y-62581838D01*
X86967262Y-62619433D01*
X86955655Y-62627559D01*
X86955656Y-62627560D01*
X86948549Y-62632535D01*
X86938390Y-62637713D01*
X86864870Y-62691126D01*
X86863939Y-62691779D01*
X86780859Y-62749954D01*
X86619954Y-62910859D01*
X86561781Y-62993934D01*
X86561782Y-62993935D01*
X86561132Y-62994863D01*
X86507713Y-63068390D01*
X86502535Y-63078550D01*
X86497560Y-63085656D01*
X86497558Y-63085656D01*
X86489435Y-63097260D01*
X86462380Y-63155276D01*
X86416206Y-63207714D01*
X86349012Y-63226864D01*
X86282131Y-63206646D01*
X86237617Y-63155272D01*
X86210570Y-63097270D01*
X86210568Y-63097266D01*
X86202436Y-63085652D01*
X86193524Y-63070818D01*
X86192288Y-63068391D01*
X86192286Y-63068388D01*
X86139462Y-62995682D01*
X86138205Y-62993920D01*
X86080045Y-62910858D01*
X85919140Y-62749953D01*
X85836078Y-62691793D01*
X85834315Y-62690536D01*
X85834301Y-62690526D01*
X85818695Y-62679187D01*
X85781614Y-62652246D01*
X85738949Y-62596915D01*
X85730500Y-62551928D01*
X85730500Y-62015928D01*
X85705502Y-61890261D01*
X85705501Y-61890260D01*
X85705501Y-61890256D01*
X85656465Y-61771873D01*
X85656464Y-61771872D01*
X85656461Y-61771866D01*
X85585277Y-61665332D01*
X85545273Y-61625328D01*
X85494669Y-61574724D01*
X84740390Y-60820445D01*
X83686819Y-59766873D01*
X83653334Y-59705550D01*
X83650500Y-59679192D01*
X83650500Y-58263944D01*
X83670185Y-58196905D01*
X83722989Y-58151150D01*
X83792147Y-58141206D01*
X83855703Y-58170231D01*
X83862181Y-58176263D01*
X83894306Y-58208388D01*
X84007833Y-58273932D01*
X84134455Y-58307861D01*
X84200000Y-58310000D01*
X91600000Y-58310000D01*
X91665545Y-58307861D01*
X91792167Y-58273933D01*
X91905694Y-58208388D01*
X91998388Y-58115694D01*
X92063933Y-58002167D01*
X92097861Y-57875545D01*
X92100000Y-57810000D01*
X92100000Y-57192486D01*
X93444500Y-57192486D01*
X93444500Y-57377514D01*
X93454974Y-57443641D01*
X93473445Y-57560265D01*
X93530619Y-57736232D01*
X93530620Y-57736235D01*
X93601603Y-57875545D01*
X93614622Y-57901096D01*
X93723379Y-58050787D01*
X93854213Y-58181621D01*
X94003904Y-58290378D01*
X94070554Y-58324338D01*
X94168764Y-58374379D01*
X94168767Y-58374380D01*
X94222785Y-58391931D01*
X94344736Y-58431555D01*
X94527486Y-58460500D01*
X94527487Y-58460500D01*
X94712513Y-58460500D01*
X94712514Y-58460500D01*
X94895264Y-58431555D01*
X95071235Y-58374379D01*
X95236096Y-58290378D01*
X95385787Y-58181621D01*
X95516621Y-58050787D01*
X95625378Y-57901096D01*
X95709379Y-57736235D01*
X95766555Y-57560264D01*
X95795500Y-57377514D01*
X95795500Y-57192486D01*
X95766555Y-57009736D01*
X95718693Y-56862430D01*
X95709380Y-56833767D01*
X95709379Y-56833764D01*
X95657316Y-56731585D01*
X95625378Y-56668904D01*
X95516621Y-56519213D01*
X95385787Y-56388379D01*
X95236096Y-56279622D01*
X95229574Y-56276299D01*
X95071235Y-56195620D01*
X95071232Y-56195619D01*
X94895265Y-56138445D01*
X94803889Y-56123972D01*
X94712514Y-56109500D01*
X94527486Y-56109500D01*
X94466569Y-56119148D01*
X94344734Y-56138445D01*
X94168767Y-56195619D01*
X94168764Y-56195620D01*
X94003903Y-56279622D01*
X93947255Y-56320780D01*
X93854213Y-56388379D01*
X93854211Y-56388381D01*
X93854210Y-56388381D01*
X93723381Y-56519210D01*
X93723381Y-56519211D01*
X93723379Y-56519213D01*
X93697458Y-56554890D01*
X93614622Y-56668903D01*
X93530620Y-56833764D01*
X93530619Y-56833767D01*
X93473445Y-57009734D01*
X93452225Y-57143713D01*
X93444500Y-57192486D01*
X92100000Y-57192486D01*
X92100000Y-56910000D01*
X92097861Y-56844455D01*
X92063933Y-56717833D01*
X91998388Y-56604306D01*
X91905694Y-56511612D01*
X91792167Y-56446067D01*
X91665545Y-56412139D01*
X91600000Y-56410000D01*
X87900000Y-56410000D01*
X84200000Y-56410000D01*
X84134458Y-56412138D01*
X84007832Y-56446068D01*
X83894307Y-56511611D01*
X83894304Y-56511613D01*
X83862181Y-56543737D01*
X83800858Y-56577222D01*
X83731166Y-56572238D01*
X83675233Y-56530366D01*
X83650816Y-56464902D01*
X83650500Y-56456056D01*
X83650500Y-54409999D01*
X93700000Y-54409999D01*
X93700000Y-55310000D01*
X93702138Y-55375541D01*
X93702138Y-55375544D01*
X93702139Y-55375545D01*
X93736068Y-55502167D01*
X93801612Y-55615694D01*
X93894306Y-55708388D01*
X94007833Y-55773932D01*
X94134455Y-55807861D01*
X94200000Y-55810000D01*
X95100000Y-55810000D01*
X95165545Y-55807861D01*
X95292167Y-55773932D01*
X95405694Y-55708388D01*
X95498388Y-55615694D01*
X95563932Y-55502167D01*
X95597861Y-55375545D01*
X95600000Y-55310000D01*
X95600000Y-54860000D01*
X95600000Y-54410000D01*
X95597861Y-54344455D01*
X95563933Y-54217833D01*
X95498388Y-54104306D01*
X95405694Y-54011612D01*
X95292167Y-53946067D01*
X95165545Y-53912139D01*
X95100000Y-53910000D01*
X94200000Y-53910000D01*
X94134455Y-53912139D01*
X94007833Y-53946067D01*
X94007831Y-53946067D01*
X94007831Y-53946068D01*
X93894306Y-54011612D01*
X93894303Y-54011614D01*
X93801614Y-54104303D01*
X93801612Y-54104306D01*
X93736067Y-54217833D01*
X93727194Y-54250948D01*
X93702139Y-54344455D01*
X93700000Y-54409999D01*
X83650500Y-54409999D01*
X83650500Y-52342486D01*
X93444500Y-52342486D01*
X93444500Y-52527513D01*
X93473445Y-52710265D01*
X93530619Y-52886232D01*
X93530620Y-52886235D01*
X93589958Y-53002690D01*
X93614622Y-53051096D01*
X93723379Y-53200787D01*
X93854213Y-53331621D01*
X94003904Y-53440378D01*
X94084763Y-53481577D01*
X94168764Y-53524379D01*
X94168767Y-53524380D01*
X94210117Y-53537815D01*
X94344736Y-53581555D01*
X94527486Y-53610500D01*
X94527487Y-53610500D01*
X94712513Y-53610500D01*
X94712514Y-53610500D01*
X94895264Y-53581555D01*
X95071235Y-53524379D01*
X95236096Y-53440378D01*
X95385787Y-53331621D01*
X95516621Y-53200787D01*
X95625378Y-53051096D01*
X95709379Y-52886235D01*
X95766555Y-52710264D01*
X95795500Y-52527514D01*
X95795500Y-52342486D01*
X95766555Y-52159736D01*
X95723983Y-52028713D01*
X96299500Y-52028713D01*
X96299500Y-52241286D01*
X96332495Y-52449613D01*
X96332754Y-52451243D01*
X96396634Y-52647846D01*
X96398444Y-52653414D01*
X96494951Y-52842820D01*
X96619890Y-53014786D01*
X96770211Y-53165107D01*
X96828512Y-53207464D01*
X96934638Y-53284568D01*
X96977304Y-53339897D01*
X96985687Y-53388928D01*
X96985000Y-53409995D01*
X96985000Y-54310000D01*
X96987138Y-54375541D01*
X96987138Y-54375544D01*
X96987139Y-54375545D01*
X97021068Y-54502167D01*
X97086612Y-54615694D01*
X97179306Y-54708388D01*
X97263404Y-54756941D01*
X97311620Y-54807508D01*
X97324844Y-54876115D01*
X97298876Y-54940980D01*
X97263407Y-54971715D01*
X97194309Y-55011610D01*
X97194303Y-55011614D01*
X97101614Y-55104303D01*
X97101612Y-55104306D01*
X97045999Y-55200631D01*
X97036067Y-55217833D01*
X97002139Y-55344455D01*
X97000000Y-55409999D01*
X97000000Y-56310009D01*
X97000351Y-56320780D01*
X96982861Y-56388425D01*
X96945495Y-56426219D01*
X96946125Y-56427085D01*
X96770213Y-56554890D01*
X96619890Y-56705213D01*
X96494951Y-56877179D01*
X96398444Y-57066585D01*
X96332753Y-57268760D01*
X96299500Y-57478713D01*
X96299500Y-57691286D01*
X96332730Y-57901096D01*
X96332754Y-57901243D01*
X96389512Y-58075926D01*
X96398444Y-58103414D01*
X96494951Y-58292820D01*
X96619890Y-58464786D01*
X96770213Y-58615109D01*
X96942179Y-58740048D01*
X96942181Y-58740049D01*
X96942184Y-58740051D01*
X97131588Y-58836557D01*
X97333757Y-58902246D01*
X97543713Y-58935500D01*
X97543714Y-58935500D01*
X97756286Y-58935500D01*
X97756287Y-58935500D01*
X97966243Y-58902246D01*
X98168412Y-58836557D01*
X98357816Y-58740051D01*
X98451228Y-58672184D01*
X98529786Y-58615109D01*
X98529788Y-58615106D01*
X98529792Y-58615104D01*
X98680104Y-58464792D01*
X98680106Y-58464788D01*
X98680109Y-58464786D01*
X98805048Y-58292820D01*
X98805047Y-58292820D01*
X98805051Y-58292816D01*
X98901557Y-58103412D01*
X98967246Y-57901243D01*
X99000500Y-57691287D01*
X99000500Y-57478713D01*
X98967246Y-57268757D01*
X98901557Y-57066588D01*
X98805051Y-56877184D01*
X98773507Y-56833767D01*
X98754460Y-56807550D01*
X98730980Y-56741744D01*
X98746806Y-56673690D01*
X98767094Y-56646987D01*
X98798388Y-56615694D01*
X98863932Y-56502167D01*
X98897861Y-56375545D01*
X98900000Y-56310000D01*
X98900000Y-55860000D01*
X98900000Y-55410000D01*
X98897861Y-55344455D01*
X98863933Y-55217833D01*
X98798388Y-55104306D01*
X98705694Y-55011612D01*
X98621593Y-54963056D01*
X98573378Y-54912488D01*
X98560156Y-54843881D01*
X98586124Y-54779017D01*
X98621592Y-54748283D01*
X98690694Y-54708388D01*
X98783388Y-54615694D01*
X98848932Y-54502167D01*
X98882861Y-54375545D01*
X98885000Y-54310000D01*
X98885000Y-53860000D01*
X98885000Y-53410000D01*
X98882861Y-53344455D01*
X98848933Y-53217833D01*
X98783388Y-53104306D01*
X98760785Y-53081703D01*
X98727300Y-53020380D01*
X98732284Y-52950688D01*
X98748148Y-52921137D01*
X98773505Y-52886235D01*
X98805051Y-52842816D01*
X98901557Y-52653412D01*
X98967246Y-52451243D01*
X99000500Y-52241287D01*
X99000500Y-52028713D01*
X98967246Y-51818757D01*
X98901557Y-51616588D01*
X98805051Y-51427184D01*
X98805049Y-51427181D01*
X98805048Y-51427179D01*
X98680109Y-51255213D01*
X98529786Y-51104890D01*
X98357820Y-50979951D01*
X98168414Y-50883444D01*
X98168413Y-50883443D01*
X98168412Y-50883443D01*
X97966243Y-50817754D01*
X97966241Y-50817753D01*
X97966240Y-50817753D01*
X97804957Y-50792208D01*
X97756287Y-50784500D01*
X97543713Y-50784500D01*
X97495042Y-50792208D01*
X97333760Y-50817753D01*
X97239651Y-50848331D01*
X97137393Y-50881557D01*
X97131585Y-50883444D01*
X96942179Y-50979951D01*
X96770213Y-51104890D01*
X96619890Y-51255213D01*
X96494951Y-51427179D01*
X96398444Y-51616585D01*
X96332753Y-51818760D01*
X96299500Y-52028713D01*
X95723983Y-52028713D01*
X95709380Y-51983767D01*
X95709379Y-51983764D01*
X95651364Y-51869905D01*
X95625378Y-51818904D01*
X95516621Y-51669213D01*
X95385787Y-51538379D01*
X95236096Y-51429622D01*
X95169199Y-51395536D01*
X95071235Y-51345620D01*
X95071232Y-51345619D01*
X94895265Y-51288445D01*
X94803889Y-51273972D01*
X94712514Y-51259500D01*
X94527486Y-51259500D01*
X94466569Y-51269148D01*
X94344734Y-51288445D01*
X94168767Y-51345619D01*
X94168764Y-51345620D01*
X94003903Y-51429622D01*
X93939990Y-51476058D01*
X93854213Y-51538379D01*
X93854211Y-51538381D01*
X93854210Y-51538381D01*
X93723381Y-51669210D01*
X93723381Y-51669211D01*
X93723379Y-51669213D01*
X93693164Y-51710801D01*
X93614622Y-51818903D01*
X93530620Y-51983764D01*
X93530619Y-51983767D01*
X93473445Y-52159734D01*
X93444500Y-52342486D01*
X83650500Y-52342486D01*
X83650500Y-48820807D01*
X83670185Y-48753768D01*
X83686819Y-48733126D01*
X84255273Y-48164672D01*
X84255276Y-48164669D01*
X84326465Y-48058127D01*
X84375501Y-47939744D01*
X84378725Y-47923535D01*
X84400500Y-47814069D01*
X84400500Y-47285712D01*
X84409163Y-47256207D01*
X84415736Y-47226160D01*
X84418919Y-47222984D01*
X84420185Y-47218673D01*
X84443420Y-47198539D01*
X84465198Y-47176812D01*
X84469592Y-47175861D01*
X84472989Y-47172918D01*
X84503427Y-47168541D01*
X84533488Y-47162038D01*
X84538648Y-47163476D01*
X84542147Y-47162974D01*
X84567967Y-47169580D01*
X84574541Y-47172040D01*
X84580781Y-47175220D01*
X84597871Y-47180772D01*
X84600402Y-47181720D01*
X84601045Y-47182203D01*
X84609323Y-47185463D01*
X84633504Y-47196739D01*
X84633510Y-47196740D01*
X84633513Y-47196742D01*
X84694462Y-47213072D01*
X84706904Y-47216406D01*
X84707386Y-47216535D01*
X84710528Y-47217377D01*
X84775466Y-47238477D01*
X84809233Y-47243825D01*
X84853308Y-47255635D01*
X84917103Y-47261215D01*
X84925690Y-47262269D01*
X84977648Y-47270500D01*
X84977649Y-47270500D01*
X85182350Y-47270500D01*
X85182352Y-47270500D01*
X85234308Y-47262270D01*
X85238582Y-47261592D01*
X85306692Y-47255635D01*
X85350766Y-47243825D01*
X85384534Y-47238477D01*
X85446404Y-47218373D01*
X85452617Y-47216534D01*
X85526490Y-47196741D01*
X85526492Y-47196739D01*
X85526496Y-47196739D01*
X85557532Y-47182266D01*
X85579219Y-47175220D01*
X85650172Y-47139067D01*
X85732734Y-47100568D01*
X85751446Y-47087465D01*
X85761610Y-47082287D01*
X85835199Y-47028821D01*
X85919139Y-46970047D01*
X86080047Y-46809139D01*
X86138821Y-46725199D01*
X86192287Y-46651610D01*
X86197465Y-46641446D01*
X86210568Y-46622734D01*
X86237617Y-46564724D01*
X86283788Y-46512287D01*
X86350981Y-46493134D01*
X86417862Y-46513349D01*
X86462381Y-46564724D01*
X86489433Y-46622736D01*
X86497563Y-46634347D01*
X86506469Y-46649169D01*
X86507714Y-46651612D01*
X86507714Y-46651613D01*
X86560536Y-46724316D01*
X86561793Y-46726078D01*
X86619953Y-46809140D01*
X86780858Y-46970045D01*
X86863904Y-47028194D01*
X86864800Y-47028821D01*
X86938390Y-47082287D01*
X86948547Y-47087462D01*
X86955648Y-47092434D01*
X86955652Y-47092436D01*
X86961688Y-47096662D01*
X86967266Y-47100568D01*
X87049827Y-47139067D01*
X87120781Y-47175220D01*
X87142467Y-47182266D01*
X87173504Y-47196739D01*
X87173510Y-47196740D01*
X87173513Y-47196742D01*
X87234462Y-47213072D01*
X87246904Y-47216406D01*
X87247386Y-47216535D01*
X87250528Y-47217377D01*
X87315466Y-47238477D01*
X87349233Y-47243825D01*
X87393308Y-47255635D01*
X87457103Y-47261215D01*
X87465690Y-47262269D01*
X87517648Y-47270500D01*
X87517649Y-47270500D01*
X87722350Y-47270500D01*
X87722352Y-47270500D01*
X87774308Y-47262270D01*
X87778582Y-47261592D01*
X87846692Y-47255635D01*
X87890766Y-47243825D01*
X87924534Y-47238477D01*
X87986404Y-47218373D01*
X87992617Y-47216534D01*
X88066490Y-47196741D01*
X88066492Y-47196739D01*
X88066496Y-47196739D01*
X88097532Y-47182266D01*
X88119219Y-47175220D01*
X88190172Y-47139067D01*
X88272734Y-47100568D01*
X88291446Y-47087465D01*
X88301610Y-47082287D01*
X88375199Y-47028821D01*
X88459139Y-46970047D01*
X88620047Y-46809139D01*
X88678821Y-46725199D01*
X88732287Y-46651610D01*
X88737465Y-46641446D01*
X88750568Y-46622734D01*
X88777617Y-46564724D01*
X88823788Y-46512287D01*
X88890981Y-46493134D01*
X88957862Y-46513349D01*
X89002381Y-46564724D01*
X89029433Y-46622736D01*
X89037563Y-46634347D01*
X89046469Y-46649169D01*
X89047714Y-46651612D01*
X89047714Y-46651613D01*
X89100536Y-46724316D01*
X89101793Y-46726078D01*
X89159953Y-46809140D01*
X89320858Y-46970045D01*
X89403904Y-47028194D01*
X89404800Y-47028821D01*
X89478390Y-47082287D01*
X89488547Y-47087462D01*
X89495648Y-47092434D01*
X89495652Y-47092436D01*
X89501688Y-47096662D01*
X89507266Y-47100568D01*
X89589827Y-47139067D01*
X89660781Y-47175220D01*
X89682467Y-47182266D01*
X89713504Y-47196739D01*
X89713510Y-47196740D01*
X89713513Y-47196742D01*
X89774462Y-47213072D01*
X89786904Y-47216406D01*
X89787386Y-47216535D01*
X89790528Y-47217377D01*
X89855466Y-47238477D01*
X89889233Y-47243825D01*
X89933308Y-47255635D01*
X89997103Y-47261215D01*
X90005690Y-47262269D01*
X90057648Y-47270500D01*
X90057649Y-47270500D01*
X90262350Y-47270500D01*
X90262352Y-47270500D01*
X90314308Y-47262270D01*
X90318582Y-47261592D01*
X90386692Y-47255635D01*
X90430766Y-47243825D01*
X90464534Y-47238477D01*
X90526404Y-47218373D01*
X90532617Y-47216534D01*
X90606490Y-47196741D01*
X90606492Y-47196739D01*
X90606496Y-47196739D01*
X90637532Y-47182266D01*
X90659219Y-47175220D01*
X90730172Y-47139067D01*
X90812734Y-47100568D01*
X90831446Y-47087465D01*
X90841610Y-47082287D01*
X90915199Y-47028821D01*
X90999139Y-46970047D01*
X91160047Y-46809139D01*
X91206623Y-46742619D01*
X91261196Y-46698996D01*
X91330695Y-46691801D01*
X91393050Y-46723322D01*
X91428344Y-46783073D01*
X91433438Y-46803028D01*
X91433442Y-46803043D01*
X91456862Y-46859584D01*
X92217037Y-46099408D01*
X92234075Y-46162993D01*
X92299901Y-46277007D01*
X92392993Y-46370099D01*
X92507007Y-46435925D01*
X92570589Y-46452962D01*
X91810414Y-47213135D01*
X91866960Y-47236557D01*
X91866964Y-47236559D01*
X91917944Y-47254543D01*
X91920142Y-47255084D01*
X91921170Y-47255681D01*
X91923688Y-47256570D01*
X91923519Y-47257047D01*
X91980545Y-47290202D01*
X92012373Y-47352402D01*
X92005521Y-47421935D01*
X91962164Y-47476725D01*
X91896068Y-47499377D01*
X91890543Y-47499500D01*
X91426080Y-47499500D01*
X91281092Y-47528340D01*
X91281082Y-47528343D01*
X91144509Y-47584913D01*
X91109341Y-47608412D01*
X91021579Y-47667051D01*
X91021578Y-47667052D01*
X90417047Y-48271584D01*
X90417045Y-48271586D01*
X90380381Y-48326462D01*
X90380379Y-48326465D01*
X90334919Y-48394499D01*
X90334912Y-48394511D01*
X90278343Y-48531082D01*
X90278340Y-48531092D01*
X90249500Y-48676079D01*
X90249500Y-49195396D01*
X90240062Y-49242844D01*
X90230263Y-49266503D01*
X90230262Y-49266506D01*
X90230260Y-49266511D01*
X90199500Y-49421153D01*
X90199500Y-49578846D01*
X90230261Y-49733489D01*
X90230264Y-49733501D01*
X90290602Y-49879172D01*
X90290609Y-49879185D01*
X90378210Y-50010288D01*
X90378213Y-50010292D01*
X90489707Y-50121786D01*
X90489711Y-50121789D01*
X90620814Y-50209390D01*
X90620827Y-50209397D01*
X90766498Y-50269735D01*
X90766503Y-50269737D01*
X90921153Y-50300499D01*
X90921156Y-50300500D01*
X90921158Y-50300500D01*
X91078844Y-50300500D01*
X91078845Y-50300499D01*
X91233497Y-50269737D01*
X91379179Y-50209394D01*
X91510289Y-50121789D01*
X91621789Y-50010289D01*
X91709394Y-49879179D01*
X91769737Y-49733497D01*
X91800500Y-49578842D01*
X91800500Y-49421158D01*
X91800500Y-49421155D01*
X91800499Y-49421153D01*
X91769739Y-49266511D01*
X91769738Y-49266508D01*
X91769737Y-49266503D01*
X91759937Y-49242844D01*
X91758311Y-49234670D01*
X91755523Y-49230331D01*
X91750500Y-49195396D01*
X91750500Y-49124500D01*
X91770185Y-49057461D01*
X91822989Y-49011706D01*
X91874500Y-49000500D01*
X94823920Y-49000500D01*
X94921462Y-48981096D01*
X94968913Y-48971658D01*
X95105495Y-48915084D01*
X95154729Y-48882186D01*
X95228416Y-48832952D01*
X95832952Y-48228416D01*
X95915084Y-48105494D01*
X95971658Y-47968912D01*
X96000500Y-47823917D01*
X96000500Y-47676082D01*
X95992882Y-47637788D01*
X95990500Y-47613597D01*
X95990500Y-47096662D01*
X96010185Y-47029623D01*
X96043379Y-46995086D01*
X96079140Y-46970046D01*
X96240044Y-46809142D01*
X96240045Y-46809141D01*
X96240047Y-46809139D01*
X96298821Y-46725199D01*
X96352287Y-46651610D01*
X96357465Y-46641446D01*
X96370568Y-46622734D01*
X96397617Y-46564724D01*
X96443788Y-46512287D01*
X96510981Y-46493134D01*
X96577862Y-46513349D01*
X96622381Y-46564724D01*
X96649433Y-46622736D01*
X96657563Y-46634347D01*
X96666469Y-46649169D01*
X96667714Y-46651612D01*
X96667714Y-46651613D01*
X96720536Y-46724316D01*
X96721793Y-46726078D01*
X96779953Y-46809140D01*
X96940858Y-46970045D01*
X97023904Y-47028194D01*
X97024800Y-47028821D01*
X97098390Y-47082287D01*
X97108547Y-47087462D01*
X97115648Y-47092434D01*
X97115652Y-47092436D01*
X97121688Y-47096662D01*
X97127266Y-47100568D01*
X97209827Y-47139067D01*
X97280781Y-47175220D01*
X97302467Y-47182266D01*
X97333504Y-47196739D01*
X97333510Y-47196740D01*
X97333513Y-47196742D01*
X97394462Y-47213072D01*
X97406904Y-47216406D01*
X97407386Y-47216535D01*
X97410528Y-47217377D01*
X97475466Y-47238477D01*
X97509233Y-47243825D01*
X97553308Y-47255635D01*
X97617103Y-47261215D01*
X97625690Y-47262269D01*
X97677648Y-47270500D01*
X97677649Y-47270500D01*
X97882350Y-47270500D01*
X97882352Y-47270500D01*
X97934308Y-47262270D01*
X97938582Y-47261592D01*
X98006692Y-47255635D01*
X98050766Y-47243825D01*
X98084534Y-47238477D01*
X98146404Y-47218373D01*
X98152617Y-47216534D01*
X98226490Y-47196741D01*
X98226492Y-47196739D01*
X98226496Y-47196739D01*
X98257532Y-47182266D01*
X98279219Y-47175220D01*
X98350172Y-47139067D01*
X98432734Y-47100568D01*
X98451446Y-47087465D01*
X98461610Y-47082287D01*
X98535199Y-47028821D01*
X98619139Y-46970047D01*
X98780047Y-46809139D01*
X98838821Y-46725199D01*
X98892287Y-46651610D01*
X98897465Y-46641446D01*
X98910568Y-46622734D01*
X98949067Y-46540172D01*
X98985220Y-46469219D01*
X98992266Y-46447532D01*
X99006739Y-46416496D01*
X99027377Y-46339471D01*
X99048477Y-46274534D01*
X99053825Y-46240766D01*
X99065635Y-46196692D01*
X99071215Y-46132892D01*
X99072270Y-46124306D01*
X99080500Y-46072350D01*
X99080500Y-44313215D01*
X99080499Y-44313214D01*
X99065635Y-44143308D01*
X99006739Y-43923504D01*
X98910568Y-43717266D01*
X98780047Y-43530861D01*
X98780045Y-43530858D01*
X98619141Y-43369954D01*
X98432734Y-43239432D01*
X98432732Y-43239431D01*
X98226497Y-43143261D01*
X98226488Y-43143258D01*
X98006697Y-43084366D01*
X98006687Y-43084364D01*
X97836785Y-43069500D01*
X97836784Y-43069500D01*
X97723216Y-43069500D01*
X97723215Y-43069500D01*
X97553312Y-43084364D01*
X97553302Y-43084366D01*
X97333511Y-43143258D01*
X97333502Y-43143261D01*
X97127267Y-43239431D01*
X97127265Y-43239432D01*
X96940858Y-43369954D01*
X96779954Y-43530858D01*
X96649432Y-43717265D01*
X96649431Y-43717267D01*
X96622382Y-43775275D01*
X96576209Y-43827714D01*
X96509016Y-43846866D01*
X96442135Y-43826650D01*
X96397618Y-43775275D01*
X96370568Y-43717267D01*
X96370568Y-43717266D01*
X96262924Y-43563532D01*
X96240597Y-43497326D01*
X96240500Y-43492410D01*
X96240500Y-42353957D01*
X96222437Y-42263155D01*
X96221275Y-42257312D01*
X96202051Y-42160664D01*
X96166119Y-42073917D01*
X96134937Y-41998638D01*
X96125499Y-41951186D01*
X96125499Y-41724998D01*
X96125498Y-41724981D01*
X96114999Y-41622203D01*
X96114998Y-41622200D01*
X96111694Y-41612229D01*
X96059814Y-41455666D01*
X95967712Y-41306344D01*
X95843656Y-41182288D01*
X95729952Y-41112155D01*
X95694336Y-41090187D01*
X95694331Y-41090185D01*
X95692862Y-41089698D01*
X95527797Y-41035001D01*
X95527795Y-41035000D01*
X95425010Y-41024500D01*
X94649998Y-41024500D01*
X94649980Y-41024501D01*
X94547203Y-41035000D01*
X94547200Y-41035001D01*
X94380668Y-41090185D01*
X94380663Y-41090187D01*
X94231342Y-41182289D01*
X94107288Y-41306343D01*
X94107283Y-41306349D01*
X94105241Y-41309661D01*
X94103247Y-41311453D01*
X94102807Y-41312011D01*
X94102711Y-41311935D01*
X94053291Y-41356383D01*
X93984328Y-41367602D01*
X93920247Y-41339755D01*
X93894168Y-41309656D01*
X93892319Y-41306659D01*
X93892316Y-41306655D01*
X93768345Y-41182684D01*
X93619124Y-41090643D01*
X93619119Y-41090641D01*
X93452697Y-41035494D01*
X93452690Y-41035493D01*
X93349986Y-41025000D01*
X93212500Y-41025000D01*
X93212500Y-42126000D01*
X93192815Y-42193039D01*
X93140011Y-42238794D01*
X93088500Y-42250000D01*
X92962500Y-42250000D01*
X92962500Y-42376000D01*
X92942815Y-42443039D01*
X92890011Y-42488794D01*
X92838500Y-42500000D01*
X91875001Y-42500000D01*
X91875001Y-42774986D01*
X91885494Y-42877697D01*
X91940641Y-43044119D01*
X91940643Y-43044124D01*
X91993075Y-43129129D01*
X92011515Y-43196522D01*
X91990592Y-43263185D01*
X91956428Y-43297327D01*
X91909465Y-43328707D01*
X91909463Y-43328708D01*
X91832935Y-43391514D01*
X91721514Y-43502935D01*
X91658708Y-43579463D01*
X91658704Y-43579469D01*
X91571167Y-43710478D01*
X91571155Y-43710499D01*
X91536534Y-43775269D01*
X91487571Y-43825113D01*
X91419433Y-43840573D01*
X91353753Y-43816741D01*
X91314794Y-43769219D01*
X91290570Y-43717271D01*
X91290567Y-43717265D01*
X91290566Y-43717264D01*
X91160047Y-43530861D01*
X91160045Y-43530858D01*
X90999141Y-43369954D01*
X90812734Y-43239432D01*
X90812732Y-43239431D01*
X90606497Y-43143261D01*
X90606488Y-43143258D01*
X90386697Y-43084366D01*
X90386687Y-43084364D01*
X90216785Y-43069500D01*
X90216784Y-43069500D01*
X90103216Y-43069500D01*
X90103215Y-43069500D01*
X89933312Y-43084364D01*
X89933302Y-43084366D01*
X89713511Y-43143258D01*
X89713502Y-43143261D01*
X89507267Y-43239431D01*
X89507265Y-43239432D01*
X89320858Y-43369954D01*
X89159954Y-43530858D01*
X89029432Y-43717265D01*
X89029431Y-43717267D01*
X89002382Y-43775275D01*
X88956209Y-43827714D01*
X88889016Y-43846866D01*
X88822135Y-43826650D01*
X88777618Y-43775275D01*
X88750568Y-43717267D01*
X88750567Y-43717265D01*
X88750566Y-43717264D01*
X88620047Y-43530861D01*
X88620045Y-43530858D01*
X88456819Y-43367632D01*
X88423334Y-43306309D01*
X88420500Y-43279951D01*
X88420500Y-42791156D01*
X88411833Y-42747591D01*
X88411186Y-42744336D01*
X88389737Y-42636503D01*
X88376893Y-42605494D01*
X88350569Y-42541943D01*
X88329397Y-42490827D01*
X88329390Y-42490814D01*
X88241789Y-42359711D01*
X88241786Y-42359707D01*
X88125970Y-42243891D01*
X88125947Y-42243870D01*
X87691622Y-41809545D01*
X87607090Y-41725013D01*
X91875000Y-41725013D01*
X91875000Y-42000000D01*
X92712500Y-42000000D01*
X92712500Y-41025000D01*
X92575027Y-41025000D01*
X92575012Y-41025001D01*
X92472302Y-41035494D01*
X92305880Y-41090641D01*
X92305875Y-41090643D01*
X92156654Y-41182684D01*
X92032684Y-41306654D01*
X91940643Y-41455875D01*
X91940641Y-41455880D01*
X91885494Y-41622302D01*
X91885493Y-41622309D01*
X91875000Y-41725013D01*
X87607090Y-41725013D01*
X87181819Y-41299741D01*
X87148334Y-41238418D01*
X87145500Y-41212060D01*
X87145500Y-28016155D01*
X87145499Y-28016153D01*
X87131338Y-27944962D01*
X87114737Y-27861503D01*
X87107880Y-27844949D01*
X87054397Y-27715827D01*
X87054390Y-27715814D01*
X86966789Y-27584711D01*
X86966786Y-27584707D01*
X86855292Y-27473213D01*
X86855288Y-27473210D01*
X86724185Y-27385609D01*
X86724172Y-27385602D01*
X86578501Y-27325264D01*
X86578489Y-27325261D01*
X86423845Y-27294500D01*
X86423842Y-27294500D01*
X86266158Y-27294500D01*
X86266155Y-27294500D01*
X86111510Y-27325261D01*
X86111498Y-27325264D01*
X85965827Y-27385602D01*
X85965814Y-27385609D01*
X85834711Y-27473210D01*
X85834707Y-27473213D01*
X85723213Y-27584707D01*
X85723210Y-27584711D01*
X85635609Y-27715814D01*
X85635602Y-27715827D01*
X85575264Y-27861498D01*
X85575261Y-27861510D01*
X85544500Y-28016153D01*
X85544500Y-41673846D01*
X85575261Y-41828489D01*
X85575264Y-41828501D01*
X85635602Y-41974172D01*
X85635609Y-41974185D01*
X85723210Y-42105288D01*
X85723213Y-42105292D01*
X86783181Y-43165258D01*
X86797884Y-43192185D01*
X86814477Y-43218004D01*
X86815368Y-43224204D01*
X86816666Y-43226581D01*
X86819500Y-43252939D01*
X86819500Y-43279951D01*
X86799815Y-43346990D01*
X86783181Y-43367632D01*
X86619954Y-43530858D01*
X86489432Y-43717265D01*
X86489431Y-43717267D01*
X86462382Y-43775275D01*
X86416209Y-43827714D01*
X86349016Y-43846866D01*
X86282135Y-43826650D01*
X86237618Y-43775275D01*
X86210568Y-43717267D01*
X86210567Y-43717265D01*
X86210566Y-43717264D01*
X86080047Y-43530861D01*
X86080045Y-43530858D01*
X85919141Y-43369954D01*
X85732734Y-43239432D01*
X85732732Y-43239431D01*
X85526497Y-43143261D01*
X85526488Y-43143258D01*
X85306697Y-43084366D01*
X85306687Y-43084364D01*
X85136785Y-43069500D01*
X85136784Y-43069500D01*
X85023216Y-43069500D01*
X85023215Y-43069500D01*
X84853312Y-43084364D01*
X84853302Y-43084366D01*
X84633511Y-43143258D01*
X84633506Y-43143260D01*
X84576904Y-43169654D01*
X84507826Y-43180145D01*
X84444042Y-43151624D01*
X84405803Y-43093147D01*
X84400500Y-43057271D01*
X84400500Y-34754935D01*
X84420185Y-34687896D01*
X84421366Y-34686090D01*
X84459394Y-34629179D01*
X84519737Y-34483497D01*
X84550500Y-34328842D01*
X84550500Y-34171158D01*
X84550500Y-34171155D01*
X84550499Y-34171153D01*
X84539309Y-34114896D01*
X84519737Y-34016503D01*
X84519735Y-34016498D01*
X84459397Y-33870827D01*
X84459390Y-33870814D01*
X84371789Y-33739711D01*
X84371786Y-33739707D01*
X84260292Y-33628213D01*
X84260288Y-33628210D01*
X84129185Y-33540609D01*
X84129172Y-33540602D01*
X83983501Y-33480264D01*
X83983489Y-33480261D01*
X83828845Y-33449500D01*
X83828842Y-33449500D01*
X83671158Y-33449500D01*
X83671150Y-33449500D01*
X83670174Y-33449596D01*
X83669668Y-33449500D01*
X83665066Y-33449500D01*
X83665066Y-33448626D01*
X83601530Y-33436566D01*
X83550827Y-33388494D01*
X83536422Y-33350382D01*
X83519738Y-33266510D01*
X83519737Y-33266503D01*
X83492277Y-33200208D01*
X83459397Y-33120827D01*
X83459390Y-33120814D01*
X83371789Y-32989711D01*
X83371786Y-32989707D01*
X83260292Y-32878213D01*
X83260288Y-32878210D01*
X83129185Y-32790609D01*
X83129172Y-32790602D01*
X82983501Y-32730264D01*
X82983489Y-32730261D01*
X82828845Y-32699500D01*
X82828842Y-32699500D01*
X82671158Y-32699500D01*
X82671155Y-32699500D01*
X82516510Y-32730261D01*
X82516498Y-32730264D01*
X82370827Y-32790602D01*
X82370814Y-32790609D01*
X82239711Y-32878210D01*
X82239707Y-32878213D01*
X82128213Y-32989707D01*
X82128210Y-32989711D01*
X82040609Y-33120814D01*
X82040602Y-33120827D01*
X81980264Y-33266498D01*
X81980261Y-33266510D01*
X81949500Y-33421153D01*
X81949500Y-33578846D01*
X81980261Y-33733489D01*
X81980264Y-33733501D01*
X82040602Y-33879172D01*
X82040606Y-33879179D01*
X82078602Y-33936044D01*
X82099480Y-34002721D01*
X82099500Y-34004935D01*
X82099500Y-41179191D01*
X82079815Y-41246230D01*
X82063181Y-41266872D01*
X81494727Y-41835325D01*
X81494726Y-41835326D01*
X81423534Y-41941874D01*
X81374499Y-42060255D01*
X81374497Y-42060261D01*
X81349500Y-42185928D01*
X81349500Y-42962845D01*
X81329815Y-43029884D01*
X81313181Y-43050526D01*
X81004628Y-43359078D01*
X80943305Y-43392563D01*
X80873613Y-43387579D01*
X80838282Y-43367250D01*
X80819026Y-43351447D01*
X80790811Y-43328291D01*
X80790802Y-43328285D01*
X80790793Y-43328278D01*
X80659799Y-43240751D01*
X80659771Y-43240734D01*
X80572396Y-43194031D01*
X80572391Y-43194029D01*
X80570732Y-43193342D01*
X80525264Y-43174508D01*
X80426799Y-43133722D01*
X80398932Y-43125269D01*
X80331968Y-43104956D01*
X80177410Y-43074213D01*
X80177406Y-43074212D01*
X80177398Y-43074211D01*
X80097926Y-43066384D01*
X80078793Y-43064500D01*
X79921207Y-43064500D01*
X79902073Y-43066384D01*
X79822602Y-43074211D01*
X79822599Y-43074211D01*
X79668037Y-43104955D01*
X79668032Y-43104956D01*
X79644053Y-43112230D01*
X79573200Y-43133722D01*
X79427608Y-43194029D01*
X79427603Y-43194031D01*
X79340228Y-43240734D01*
X79340200Y-43240751D01*
X79209206Y-43328278D01*
X79209194Y-43328287D01*
X79209189Y-43328290D01*
X79209189Y-43328291D01*
X79132588Y-43391157D01*
X79132585Y-43391160D01*
X79132582Y-43391162D01*
X79021162Y-43502582D01*
X79021160Y-43502585D01*
X79021157Y-43502588D01*
X78977088Y-43556285D01*
X78958287Y-43579194D01*
X78958278Y-43579206D01*
X78870751Y-43710200D01*
X78870742Y-43710214D01*
X78870741Y-43710217D01*
X78870590Y-43710499D01*
X78836271Y-43774705D01*
X78787308Y-43824549D01*
X78719170Y-43840009D01*
X78653491Y-43816177D01*
X78614531Y-43768655D01*
X78590570Y-43717271D01*
X78590567Y-43717265D01*
X78590566Y-43717264D01*
X78460047Y-43530861D01*
X78460045Y-43530858D01*
X78299141Y-43369954D01*
X78112734Y-43239432D01*
X78112732Y-43239431D01*
X77906497Y-43143261D01*
X77906488Y-43143258D01*
X77686697Y-43084366D01*
X77686687Y-43084364D01*
X77516785Y-43069500D01*
X77516784Y-43069500D01*
X77403216Y-43069500D01*
X77403215Y-43069500D01*
X77233312Y-43084364D01*
X77233302Y-43084366D01*
X77013511Y-43143258D01*
X77013502Y-43143261D01*
X76807267Y-43239431D01*
X76807265Y-43239432D01*
X76620858Y-43369954D01*
X76459954Y-43530858D01*
X76329432Y-43717265D01*
X76329431Y-43717267D01*
X76302382Y-43775275D01*
X76256209Y-43827714D01*
X76189016Y-43846866D01*
X76122135Y-43826650D01*
X76077618Y-43775275D01*
X76050568Y-43717267D01*
X76050567Y-43717265D01*
X76050566Y-43717264D01*
X75920047Y-43530861D01*
X75920045Y-43530858D01*
X75759141Y-43369954D01*
X75572734Y-43239432D01*
X75572732Y-43239431D01*
X75366497Y-43143261D01*
X75366488Y-43143258D01*
X75146697Y-43084366D01*
X75146687Y-43084364D01*
X74976785Y-43069500D01*
X74976784Y-43069500D01*
X74863216Y-43069500D01*
X74863215Y-43069500D01*
X74693312Y-43084364D01*
X74693302Y-43084366D01*
X74473511Y-43143258D01*
X74473502Y-43143261D01*
X74267267Y-43239431D01*
X74267265Y-43239432D01*
X74080858Y-43369954D01*
X73919954Y-43530858D01*
X73789432Y-43717265D01*
X73789431Y-43717267D01*
X73762382Y-43775275D01*
X73716209Y-43827714D01*
X73649016Y-43846866D01*
X73582135Y-43826650D01*
X73537618Y-43775275D01*
X73510568Y-43717267D01*
X73510567Y-43717265D01*
X73510566Y-43717264D01*
X73380047Y-43530861D01*
X73380045Y-43530858D01*
X73219141Y-43369954D01*
X73032734Y-43239432D01*
X73032732Y-43239431D01*
X72826497Y-43143261D01*
X72826488Y-43143258D01*
X72606697Y-43084366D01*
X72606687Y-43084364D01*
X72436785Y-43069500D01*
X72436784Y-43069500D01*
X72323216Y-43069500D01*
X72323215Y-43069500D01*
X72153312Y-43084364D01*
X72153302Y-43084366D01*
X71933511Y-43143258D01*
X71933502Y-43143261D01*
X71727267Y-43239431D01*
X71727265Y-43239432D01*
X71540858Y-43369954D01*
X71379954Y-43530858D01*
X71249432Y-43717265D01*
X71249431Y-43717267D01*
X71222382Y-43775275D01*
X71176209Y-43827714D01*
X71109016Y-43846866D01*
X71042135Y-43826650D01*
X70997618Y-43775275D01*
X70970568Y-43717267D01*
X70970567Y-43717265D01*
X70970566Y-43717264D01*
X70840047Y-43530861D01*
X70840045Y-43530858D01*
X70679141Y-43369954D01*
X70492734Y-43239432D01*
X70492732Y-43239431D01*
X70286497Y-43143261D01*
X70286488Y-43143258D01*
X70066697Y-43084366D01*
X70066687Y-43084364D01*
X69896785Y-43069500D01*
X69896784Y-43069500D01*
X69783216Y-43069500D01*
X69783215Y-43069500D01*
X69613312Y-43084364D01*
X69613302Y-43084366D01*
X69393511Y-43143258D01*
X69393502Y-43143261D01*
X69187267Y-43239431D01*
X69187265Y-43239432D01*
X69000858Y-43369954D01*
X68839954Y-43530858D01*
X68709433Y-43717264D01*
X68685205Y-43769221D01*
X68639032Y-43821660D01*
X68571838Y-43840811D01*
X68504957Y-43820595D01*
X68463465Y-43775268D01*
X68428849Y-43710506D01*
X68428832Y-43710478D01*
X68341295Y-43579469D01*
X68341291Y-43579463D01*
X68278485Y-43502935D01*
X68167064Y-43391514D01*
X68090536Y-43328708D01*
X68090530Y-43328704D01*
X67959521Y-43241167D01*
X67959501Y-43241155D01*
X67872198Y-43194490D01*
X67726612Y-43134185D01*
X67631860Y-43105443D01*
X67631849Y-43105440D01*
X67550000Y-43089160D01*
X67550000Y-45536988D01*
X67492993Y-45504075D01*
X67365826Y-45470000D01*
X67234174Y-45470000D01*
X67107007Y-45504075D01*
X67050000Y-45536988D01*
X67050000Y-43089161D01*
X67049999Y-43089160D01*
X66968150Y-43105440D01*
X66968139Y-43105443D01*
X66873387Y-43134185D01*
X66727801Y-43194490D01*
X66640498Y-43241155D01*
X66640478Y-43241167D01*
X66509469Y-43328704D01*
X66509463Y-43328708D01*
X66432935Y-43391514D01*
X66321514Y-43502935D01*
X66258708Y-43579463D01*
X66258704Y-43579469D01*
X66171167Y-43710478D01*
X66171155Y-43710499D01*
X66136534Y-43775269D01*
X66087571Y-43825113D01*
X66019433Y-43840573D01*
X65953753Y-43816741D01*
X65914794Y-43769219D01*
X65890570Y-43717271D01*
X65890567Y-43717265D01*
X65890566Y-43717264D01*
X65794849Y-43580564D01*
X65760048Y-43530862D01*
X65688944Y-43459758D01*
X65599139Y-43369953D01*
X65583608Y-43359078D01*
X65563375Y-43344910D01*
X65519751Y-43290332D01*
X65510500Y-43243336D01*
X65510500Y-26172940D01*
X65530185Y-26105901D01*
X65546821Y-26085257D01*
X65566789Y-26065289D01*
X65590402Y-26029950D01*
X65654394Y-25934179D01*
X65664190Y-25910525D01*
X65668823Y-25903592D01*
X65669921Y-25898548D01*
X65691072Y-25870294D01*
X65774550Y-25786818D01*
X65835873Y-25753333D01*
X65862230Y-25750500D01*
X71104018Y-25750500D01*
X71171057Y-25770185D01*
X71216812Y-25822989D01*
X71226756Y-25892147D01*
X71214503Y-25930795D01*
X71208904Y-25941782D01*
X71143242Y-26143869D01*
X71143242Y-26143872D01*
X71110000Y-26353753D01*
X71110000Y-26566246D01*
X71143242Y-26776127D01*
X71143242Y-26776130D01*
X71208904Y-26978217D01*
X71305375Y-27167550D01*
X71344728Y-27221716D01*
X71977036Y-26589407D01*
X71994075Y-26652993D01*
X72059901Y-26767007D01*
X72152993Y-26860099D01*
X72267007Y-26925925D01*
X72330590Y-26942962D01*
X71698282Y-27575269D01*
X71698282Y-27575270D01*
X71752452Y-27614626D01*
X71752451Y-27614626D01*
X71761495Y-27619234D01*
X71812292Y-27667208D01*
X71829087Y-27735029D01*
X71806550Y-27801164D01*
X71761499Y-27840202D01*
X71752182Y-27844949D01*
X71580213Y-27969890D01*
X71429890Y-28120213D01*
X71304951Y-28292179D01*
X71208444Y-28481585D01*
X71142753Y-28683760D01*
X71109500Y-28893713D01*
X71109500Y-29106286D01*
X71138942Y-29292179D01*
X71142754Y-29316243D01*
X71188755Y-29457820D01*
X71208444Y-29518414D01*
X71304951Y-29707820D01*
X71429890Y-29879786D01*
X71580213Y-30030109D01*
X71752182Y-30155050D01*
X71760946Y-30159516D01*
X71811742Y-30207491D01*
X71828536Y-30275312D01*
X71805998Y-30341447D01*
X71760946Y-30380484D01*
X71752182Y-30384949D01*
X71580213Y-30509890D01*
X71429890Y-30660213D01*
X71304951Y-30832179D01*
X71208444Y-31021585D01*
X71142753Y-31223760D01*
X71109500Y-31433713D01*
X71109500Y-31646286D01*
X71138942Y-31832179D01*
X71142754Y-31856243D01*
X71206199Y-32051507D01*
X71208444Y-32058414D01*
X71304951Y-32247820D01*
X71429890Y-32419786D01*
X71580213Y-32570109D01*
X71752182Y-32695050D01*
X71760946Y-32699516D01*
X71811742Y-32747491D01*
X71828536Y-32815312D01*
X71805998Y-32881447D01*
X71760946Y-32920484D01*
X71752182Y-32924949D01*
X71580213Y-33049890D01*
X71429890Y-33200213D01*
X71304951Y-33372179D01*
X71208444Y-33561585D01*
X71142753Y-33763760D01*
X71109500Y-33973713D01*
X71109500Y-34186286D01*
X71138942Y-34372179D01*
X71142754Y-34396243D01*
X71194853Y-34556588D01*
X71208444Y-34598414D01*
X71304951Y-34787820D01*
X71429890Y-34959786D01*
X71580213Y-35110109D01*
X71752182Y-35235050D01*
X71760946Y-35239516D01*
X71811742Y-35287491D01*
X71828536Y-35355312D01*
X71805998Y-35421447D01*
X71760946Y-35460484D01*
X71752182Y-35464949D01*
X71580213Y-35589890D01*
X71429890Y-35740213D01*
X71304951Y-35912179D01*
X71208444Y-36101585D01*
X71142753Y-36303760D01*
X71109500Y-36513713D01*
X71109500Y-36726286D01*
X71138150Y-36907179D01*
X71142754Y-36936243D01*
X71194853Y-37096588D01*
X71208444Y-37138414D01*
X71304951Y-37327820D01*
X71429890Y-37499786D01*
X71580213Y-37650109D01*
X71752182Y-37775050D01*
X71760946Y-37779516D01*
X71811742Y-37827491D01*
X71828536Y-37895312D01*
X71805998Y-37961447D01*
X71760946Y-38000484D01*
X71752182Y-38004949D01*
X71580213Y-38129890D01*
X71429890Y-38280213D01*
X71304951Y-38452179D01*
X71208444Y-38641585D01*
X71142753Y-38843760D01*
X71117782Y-39001423D01*
X71109500Y-39053713D01*
X71109500Y-39266287D01*
X71119534Y-39329644D01*
X71142628Y-39475451D01*
X71142754Y-39476243D01*
X71206084Y-39671153D01*
X71208444Y-39678414D01*
X71304951Y-39867820D01*
X71429890Y-40039786D01*
X71580213Y-40190109D01*
X71752179Y-40315048D01*
X71752181Y-40315049D01*
X71752184Y-40315051D01*
X71941588Y-40411557D01*
X72143757Y-40477246D01*
X72353713Y-40510500D01*
X72353714Y-40510500D01*
X72566286Y-40510500D01*
X72566287Y-40510500D01*
X72776243Y-40477246D01*
X72978412Y-40411557D01*
X73167816Y-40315051D01*
X73250536Y-40254952D01*
X73339786Y-40190109D01*
X73339788Y-40190106D01*
X73339792Y-40190104D01*
X73490104Y-40039792D01*
X73490106Y-40039788D01*
X73490109Y-40039786D01*
X73615048Y-39867820D01*
X73615047Y-39867820D01*
X73615051Y-39867816D01*
X73619514Y-39859054D01*
X73667488Y-39808259D01*
X73735308Y-39791463D01*
X73801444Y-39813999D01*
X73840486Y-39859056D01*
X73844951Y-39867820D01*
X73969890Y-40039786D01*
X74120213Y-40190109D01*
X74292179Y-40315048D01*
X74292181Y-40315049D01*
X74292184Y-40315051D01*
X74481588Y-40411557D01*
X74683757Y-40477246D01*
X74893713Y-40510500D01*
X74893714Y-40510500D01*
X75106286Y-40510500D01*
X75106287Y-40510500D01*
X75316243Y-40477246D01*
X75518412Y-40411557D01*
X75707816Y-40315051D01*
X75790536Y-40254952D01*
X75879786Y-40190109D01*
X75879788Y-40190106D01*
X75879792Y-40190104D01*
X76030104Y-40039792D01*
X76030106Y-40039788D01*
X76030109Y-40039786D01*
X76155048Y-39867820D01*
X76155047Y-39867820D01*
X76155051Y-39867816D01*
X76251557Y-39678412D01*
X76317246Y-39476243D01*
X76350500Y-39266287D01*
X76350500Y-39053713D01*
X76317246Y-38843757D01*
X76251557Y-38641588D01*
X76155051Y-38452184D01*
X76155049Y-38452181D01*
X76155048Y-38452179D01*
X76030109Y-38280213D01*
X75879786Y-38129890D01*
X75707820Y-38004951D01*
X75707115Y-38004591D01*
X75699054Y-38000485D01*
X75648259Y-37952512D01*
X75631463Y-37884692D01*
X75653999Y-37818556D01*
X75699054Y-37779515D01*
X75707816Y-37775051D01*
X75729789Y-37759086D01*
X75879786Y-37650109D01*
X75879788Y-37650106D01*
X75879792Y-37650104D01*
X76030104Y-37499792D01*
X76030106Y-37499788D01*
X76030109Y-37499786D01*
X76155048Y-37327820D01*
X76155047Y-37327820D01*
X76155051Y-37327816D01*
X76251557Y-37138412D01*
X76317246Y-36936243D01*
X76350500Y-36726287D01*
X76350500Y-36513713D01*
X76317246Y-36303757D01*
X76251557Y-36101588D01*
X76155051Y-35912184D01*
X76155049Y-35912181D01*
X76155048Y-35912179D01*
X76030109Y-35740213D01*
X75879786Y-35589890D01*
X75707820Y-35464951D01*
X75707115Y-35464591D01*
X75699054Y-35460485D01*
X75648259Y-35412512D01*
X75631463Y-35344692D01*
X75653999Y-35278556D01*
X75699054Y-35239515D01*
X75707816Y-35235051D01*
X75729789Y-35219086D01*
X75879786Y-35110109D01*
X75879788Y-35110106D01*
X75879792Y-35110104D01*
X76030104Y-34959792D01*
X76030106Y-34959788D01*
X76030109Y-34959786D01*
X76155048Y-34787820D01*
X76155047Y-34787820D01*
X76155051Y-34787816D01*
X76251557Y-34598412D01*
X76317246Y-34396243D01*
X76350500Y-34186287D01*
X76350500Y-33973713D01*
X76317246Y-33763757D01*
X76251557Y-33561588D01*
X76155051Y-33372184D01*
X76155049Y-33372181D01*
X76155048Y-33372179D01*
X76030109Y-33200213D01*
X75879786Y-33049890D01*
X75707820Y-32924951D01*
X75707115Y-32924591D01*
X75699054Y-32920485D01*
X75648259Y-32872512D01*
X75631463Y-32804692D01*
X75653999Y-32738556D01*
X75699054Y-32699515D01*
X75707816Y-32695051D01*
X75729789Y-32679086D01*
X75879786Y-32570109D01*
X75879788Y-32570106D01*
X75879792Y-32570104D01*
X76030104Y-32419792D01*
X76030106Y-32419788D01*
X76030109Y-32419786D01*
X76155048Y-32247820D01*
X76155047Y-32247820D01*
X76155051Y-32247816D01*
X76251557Y-32058412D01*
X76317246Y-31856243D01*
X76350500Y-31646287D01*
X76350500Y-31433713D01*
X76317246Y-31223757D01*
X76251557Y-31021588D01*
X76155051Y-30832184D01*
X76155049Y-30832181D01*
X76155048Y-30832179D01*
X76030109Y-30660213D01*
X75879786Y-30509890D01*
X75707820Y-30384951D01*
X75707115Y-30384591D01*
X75699054Y-30380485D01*
X75648259Y-30332512D01*
X75631463Y-30264692D01*
X75653999Y-30198556D01*
X75699054Y-30159515D01*
X75707816Y-30155051D01*
X75729789Y-30139086D01*
X75879786Y-30030109D01*
X75879788Y-30030106D01*
X75879792Y-30030104D01*
X76030104Y-29879792D01*
X76030106Y-29879788D01*
X76030109Y-29879786D01*
X76155048Y-29707820D01*
X76155047Y-29707820D01*
X76155051Y-29707816D01*
X76251557Y-29518412D01*
X76317246Y-29316243D01*
X76350500Y-29106287D01*
X76350500Y-28893713D01*
X76317246Y-28683757D01*
X76251557Y-28481588D01*
X76155051Y-28292184D01*
X76155049Y-28292181D01*
X76155048Y-28292179D01*
X76030109Y-28120213D01*
X75916181Y-28006285D01*
X75882696Y-27944962D01*
X75887680Y-27875270D01*
X75929552Y-27819337D01*
X75960529Y-27802422D01*
X76092086Y-27753354D01*
X76092093Y-27753350D01*
X76207187Y-27667190D01*
X76207190Y-27667187D01*
X76293350Y-27552093D01*
X76293354Y-27552086D01*
X76343596Y-27417379D01*
X76343598Y-27417372D01*
X76349999Y-27357844D01*
X76350000Y-27357827D01*
X76350000Y-26710000D01*
X75433012Y-26710000D01*
X75465925Y-26652993D01*
X75500000Y-26525826D01*
X75500000Y-26394174D01*
X75465925Y-26267007D01*
X75433012Y-26210000D01*
X76350000Y-26210000D01*
X76350000Y-25874500D01*
X76369685Y-25807461D01*
X76422489Y-25761706D01*
X76474000Y-25750500D01*
X85637770Y-25750500D01*
X85667210Y-25759144D01*
X85697197Y-25765668D01*
X85702212Y-25769422D01*
X85704809Y-25770185D01*
X85725450Y-25786818D01*
X85808927Y-25870295D01*
X85835806Y-25910521D01*
X85845606Y-25934179D01*
X85845607Y-25934181D01*
X85933207Y-26065284D01*
X85933213Y-26065292D01*
X86044707Y-26176786D01*
X86044711Y-26176789D01*
X86175814Y-26264390D01*
X86175827Y-26264397D01*
X86304060Y-26317512D01*
X86321503Y-26324737D01*
X86467375Y-26353753D01*
X86476153Y-26355499D01*
X86476156Y-26355500D01*
X86476158Y-26355500D01*
X86633844Y-26355500D01*
X86633845Y-26355499D01*
X86788497Y-26324737D01*
X86934179Y-26264394D01*
X87065289Y-26176789D01*
X87138365Y-26103713D01*
X93149500Y-26103713D01*
X93149500Y-26316287D01*
X93152507Y-26335270D01*
X93179077Y-26503031D01*
X93182754Y-26526243D01*
X93247334Y-26725000D01*
X93248444Y-26728414D01*
X93344951Y-26917820D01*
X93469890Y-27089786D01*
X93620213Y-27240109D01*
X93792182Y-27365050D01*
X93800946Y-27369516D01*
X93851742Y-27417491D01*
X93868536Y-27485312D01*
X93845998Y-27551447D01*
X93800946Y-27590484D01*
X93792182Y-27594949D01*
X93620213Y-27719890D01*
X93469890Y-27870213D01*
X93344951Y-28042179D01*
X93248444Y-28231585D01*
X93182753Y-28433760D01*
X93154040Y-28615048D01*
X93149500Y-28643713D01*
X93149500Y-28856287D01*
X93182754Y-29066243D01*
X93231342Y-29215782D01*
X93248444Y-29268414D01*
X93344951Y-29457820D01*
X93469890Y-29629786D01*
X93620213Y-29780109D01*
X93792182Y-29905050D01*
X93800946Y-29909516D01*
X93851742Y-29957491D01*
X93868536Y-30025312D01*
X93845998Y-30091447D01*
X93800946Y-30130484D01*
X93792182Y-30134949D01*
X93620213Y-30259890D01*
X93469890Y-30410213D01*
X93344951Y-30582179D01*
X93248444Y-30771585D01*
X93182753Y-30973760D01*
X93154126Y-31154505D01*
X93149500Y-31183713D01*
X93149500Y-31396287D01*
X93155803Y-31436082D01*
X93178221Y-31577627D01*
X93182754Y-31606243D01*
X93240689Y-31784549D01*
X93248444Y-31808414D01*
X93344951Y-31997820D01*
X93469890Y-32169786D01*
X93620213Y-32320109D01*
X93792182Y-32445050D01*
X93800946Y-32449516D01*
X93851742Y-32497491D01*
X93868536Y-32565312D01*
X93845998Y-32631447D01*
X93800946Y-32670484D01*
X93792182Y-32674949D01*
X93620213Y-32799890D01*
X93469890Y-32950213D01*
X93344951Y-33122179D01*
X93248444Y-33311585D01*
X93182753Y-33513760D01*
X93149500Y-33723713D01*
X93149500Y-33936286D01*
X93172465Y-34081285D01*
X93182754Y-34146243D01*
X93242084Y-34328842D01*
X93248444Y-34348414D01*
X93344951Y-34537820D01*
X93469890Y-34709786D01*
X93620213Y-34860109D01*
X93792182Y-34985050D01*
X93800946Y-34989516D01*
X93851742Y-35037491D01*
X93868536Y-35105312D01*
X93845998Y-35171447D01*
X93800946Y-35210484D01*
X93792182Y-35214949D01*
X93620213Y-35339890D01*
X93469890Y-35490213D01*
X93344951Y-35662179D01*
X93248444Y-35851585D01*
X93182753Y-36053760D01*
X93149500Y-36263713D01*
X93149500Y-36476286D01*
X93165638Y-36578181D01*
X93182754Y-36686243D01*
X93235507Y-36848600D01*
X93248444Y-36888414D01*
X93344951Y-37077820D01*
X93469890Y-37249786D01*
X93620213Y-37400109D01*
X93792182Y-37525050D01*
X93800946Y-37529516D01*
X93851742Y-37577491D01*
X93868536Y-37645312D01*
X93845998Y-37711447D01*
X93800946Y-37750484D01*
X93792182Y-37754949D01*
X93620213Y-37879890D01*
X93469890Y-38030213D01*
X93344951Y-38202179D01*
X93248444Y-38391585D01*
X93248443Y-38391587D01*
X93248443Y-38391588D01*
X93182754Y-38593757D01*
X93149500Y-38803713D01*
X93149500Y-39016287D01*
X93155244Y-39052552D01*
X93182459Y-39224384D01*
X93182754Y-39226243D01*
X93229732Y-39370827D01*
X93248444Y-39428414D01*
X93344951Y-39617820D01*
X93469890Y-39789786D01*
X93620213Y-39940109D01*
X93792179Y-40065048D01*
X93792181Y-40065049D01*
X93792184Y-40065051D01*
X93981588Y-40161557D01*
X94183757Y-40227246D01*
X94393713Y-40260500D01*
X94393714Y-40260500D01*
X94606286Y-40260500D01*
X94606287Y-40260500D01*
X94816243Y-40227246D01*
X95018412Y-40161557D01*
X95207816Y-40065051D01*
X95287509Y-40007151D01*
X95379786Y-39940109D01*
X95379788Y-39940106D01*
X95379792Y-39940104D01*
X95530104Y-39789792D01*
X95530106Y-39789788D01*
X95530109Y-39789786D01*
X95655048Y-39617820D01*
X95655047Y-39617820D01*
X95655051Y-39617816D01*
X95659514Y-39609054D01*
X95707488Y-39558259D01*
X95775308Y-39541463D01*
X95841444Y-39563999D01*
X95880486Y-39609056D01*
X95884951Y-39617820D01*
X96009890Y-39789786D01*
X96160213Y-39940109D01*
X96332179Y-40065048D01*
X96332181Y-40065049D01*
X96332184Y-40065051D01*
X96521588Y-40161557D01*
X96723757Y-40227246D01*
X96933713Y-40260500D01*
X96933714Y-40260500D01*
X97146286Y-40260500D01*
X97146287Y-40260500D01*
X97356243Y-40227246D01*
X97558412Y-40161557D01*
X97747816Y-40065051D01*
X97827509Y-40007151D01*
X97919786Y-39940109D01*
X97919788Y-39940106D01*
X97919792Y-39940104D01*
X98070104Y-39789792D01*
X98070106Y-39789788D01*
X98070109Y-39789786D01*
X98195048Y-39617820D01*
X98195047Y-39617820D01*
X98195051Y-39617816D01*
X98291557Y-39428412D01*
X98357246Y-39226243D01*
X98390500Y-39016287D01*
X98390500Y-38803713D01*
X98357246Y-38593757D01*
X98291557Y-38391588D01*
X98195051Y-38202184D01*
X98195049Y-38202181D01*
X98195048Y-38202179D01*
X98070109Y-38030213D01*
X97919786Y-37879890D01*
X97747820Y-37754951D01*
X97747115Y-37754591D01*
X97739054Y-37750485D01*
X97688259Y-37702512D01*
X97671463Y-37634692D01*
X97693999Y-37568556D01*
X97739054Y-37529515D01*
X97747816Y-37525051D01*
X97819653Y-37472859D01*
X97919786Y-37400109D01*
X97919788Y-37400106D01*
X97919792Y-37400104D01*
X98070104Y-37249792D01*
X98070106Y-37249788D01*
X98070109Y-37249786D01*
X98195048Y-37077820D01*
X98195047Y-37077820D01*
X98195051Y-37077816D01*
X98291557Y-36888412D01*
X98357246Y-36686243D01*
X98390500Y-36476287D01*
X98390500Y-36263713D01*
X98357246Y-36053757D01*
X98291557Y-35851588D01*
X98195051Y-35662184D01*
X98195049Y-35662181D01*
X98195048Y-35662179D01*
X98070109Y-35490213D01*
X97919786Y-35339890D01*
X97747820Y-35214951D01*
X97747115Y-35214591D01*
X97739054Y-35210485D01*
X97688259Y-35162512D01*
X97671463Y-35094692D01*
X97693999Y-35028556D01*
X97739054Y-34989515D01*
X97747816Y-34985051D01*
X97782591Y-34959786D01*
X97919786Y-34860109D01*
X97919788Y-34860106D01*
X97919792Y-34860104D01*
X98070104Y-34709792D01*
X98070106Y-34709788D01*
X98070109Y-34709786D01*
X98195048Y-34537820D01*
X98195047Y-34537820D01*
X98195051Y-34537816D01*
X98291557Y-34348412D01*
X98357246Y-34146243D01*
X98390500Y-33936287D01*
X98390500Y-33723713D01*
X98357246Y-33513757D01*
X98291557Y-33311588D01*
X98195051Y-33122184D01*
X98195049Y-33122181D01*
X98195048Y-33122179D01*
X98070109Y-32950213D01*
X97919786Y-32799890D01*
X97747820Y-32674951D01*
X97747115Y-32674591D01*
X97739054Y-32670485D01*
X97688259Y-32622512D01*
X97671463Y-32554692D01*
X97693999Y-32488556D01*
X97739054Y-32449515D01*
X97747816Y-32445051D01*
X97879508Y-32349372D01*
X97919786Y-32320109D01*
X97919788Y-32320106D01*
X97919792Y-32320104D01*
X98070104Y-32169792D01*
X98070106Y-32169788D01*
X98070109Y-32169786D01*
X98195048Y-31997820D01*
X98195047Y-31997820D01*
X98195051Y-31997816D01*
X98291557Y-31808412D01*
X98357246Y-31606243D01*
X98390500Y-31396287D01*
X98390500Y-31183713D01*
X98357246Y-30973757D01*
X98291557Y-30771588D01*
X98195051Y-30582184D01*
X98195049Y-30582181D01*
X98195048Y-30582179D01*
X98070109Y-30410213D01*
X97919786Y-30259890D01*
X97747820Y-30134951D01*
X97747115Y-30134591D01*
X97739054Y-30130485D01*
X97688259Y-30082512D01*
X97671463Y-30014692D01*
X97693999Y-29948556D01*
X97739054Y-29909515D01*
X97747816Y-29905051D01*
X97782591Y-29879786D01*
X97919786Y-29780109D01*
X97919788Y-29780106D01*
X97919792Y-29780104D01*
X98070104Y-29629792D01*
X98070106Y-29629788D01*
X98070109Y-29629786D01*
X98195048Y-29457820D01*
X98195047Y-29457820D01*
X98195051Y-29457816D01*
X98291557Y-29268412D01*
X98357246Y-29066243D01*
X98390500Y-28856287D01*
X98390500Y-28643713D01*
X98357246Y-28433757D01*
X98291557Y-28231588D01*
X98195051Y-28042184D01*
X98195049Y-28042181D01*
X98195048Y-28042179D01*
X98070109Y-27870213D01*
X97919786Y-27719890D01*
X97747820Y-27594951D01*
X97747115Y-27594591D01*
X97739054Y-27590485D01*
X97688259Y-27542512D01*
X97671463Y-27474692D01*
X97693999Y-27408556D01*
X97739054Y-27369515D01*
X97747816Y-27365051D01*
X97789411Y-27334831D01*
X97919786Y-27240109D01*
X97919788Y-27240106D01*
X97919792Y-27240104D01*
X98070104Y-27089792D01*
X98070106Y-27089788D01*
X98070109Y-27089786D01*
X98179086Y-26939789D01*
X98195051Y-26917816D01*
X98291557Y-26728412D01*
X98357246Y-26526243D01*
X98390500Y-26316287D01*
X98390500Y-26103713D01*
X98357246Y-25893757D01*
X98291557Y-25691588D01*
X98195051Y-25502184D01*
X98195049Y-25502181D01*
X98195048Y-25502179D01*
X98070109Y-25330213D01*
X97956181Y-25216285D01*
X97922696Y-25154962D01*
X97927680Y-25085270D01*
X97969552Y-25029337D01*
X98000529Y-25012422D01*
X98132086Y-24963354D01*
X98132093Y-24963350D01*
X98247187Y-24877190D01*
X98247190Y-24877187D01*
X98333350Y-24762093D01*
X98333354Y-24762086D01*
X98383596Y-24627379D01*
X98383598Y-24627372D01*
X98389999Y-24567844D01*
X98390000Y-24567827D01*
X98390000Y-23920000D01*
X97473012Y-23920000D01*
X97505925Y-23862993D01*
X97540000Y-23735826D01*
X97540000Y-23604174D01*
X97505925Y-23477007D01*
X97473012Y-23420000D01*
X98390000Y-23420000D01*
X98390000Y-22772172D01*
X98389999Y-22772155D01*
X98383598Y-22712627D01*
X98383596Y-22712620D01*
X98333354Y-22577913D01*
X98333350Y-22577906D01*
X98247190Y-22462812D01*
X98247187Y-22462809D01*
X98132093Y-22376649D01*
X98132086Y-22376645D01*
X97997379Y-22326403D01*
X97997372Y-22326401D01*
X97937844Y-22320000D01*
X97290000Y-22320000D01*
X97290000Y-23236988D01*
X97232993Y-23204075D01*
X97105826Y-23170000D01*
X96974174Y-23170000D01*
X96847007Y-23204075D01*
X96790000Y-23236988D01*
X96790000Y-22320000D01*
X96142155Y-22320000D01*
X96082627Y-22326401D01*
X96082620Y-22326403D01*
X95947913Y-22376645D01*
X95947906Y-22376649D01*
X95832812Y-22462809D01*
X95832809Y-22462812D01*
X95746649Y-22577906D01*
X95746645Y-22577913D01*
X95696403Y-22712619D01*
X95696401Y-22712626D01*
X95687497Y-22795444D01*
X95684434Y-22795114D01*
X95685336Y-22812094D01*
X95652356Y-22871195D01*
X94982962Y-23540590D01*
X94965925Y-23477007D01*
X94900099Y-23362993D01*
X94807007Y-23269901D01*
X94692993Y-23204075D01*
X94629409Y-23187037D01*
X95261716Y-22554728D01*
X95207550Y-22515375D01*
X95018217Y-22418904D01*
X94816129Y-22353242D01*
X94606246Y-22320000D01*
X94393754Y-22320000D01*
X94183872Y-22353242D01*
X94183869Y-22353242D01*
X93981782Y-22418904D01*
X93792439Y-22515380D01*
X93738282Y-22554727D01*
X93738282Y-22554728D01*
X94370591Y-23187037D01*
X94307007Y-23204075D01*
X94192993Y-23269901D01*
X94099901Y-23362993D01*
X94034075Y-23477007D01*
X94017037Y-23540591D01*
X93384728Y-22908282D01*
X93384727Y-22908282D01*
X93345380Y-22962439D01*
X93248904Y-23151782D01*
X93183242Y-23353869D01*
X93183242Y-23353872D01*
X93150000Y-23563753D01*
X93150000Y-23776246D01*
X93183242Y-23986127D01*
X93183242Y-23986130D01*
X93248904Y-24188217D01*
X93345375Y-24377550D01*
X93384728Y-24431716D01*
X94017037Y-23799408D01*
X94034075Y-23862993D01*
X94099901Y-23977007D01*
X94192993Y-24070099D01*
X94307007Y-24135925D01*
X94370590Y-24152962D01*
X93738282Y-24785269D01*
X93738282Y-24785270D01*
X93792452Y-24824626D01*
X93792451Y-24824626D01*
X93801495Y-24829234D01*
X93852292Y-24877208D01*
X93869087Y-24945029D01*
X93846550Y-25011164D01*
X93801499Y-25050202D01*
X93792182Y-25054949D01*
X93620213Y-25179890D01*
X93469890Y-25330213D01*
X93344951Y-25502179D01*
X93248444Y-25691585D01*
X93182753Y-25893760D01*
X93165105Y-26005185D01*
X93149500Y-26103713D01*
X87138365Y-26103713D01*
X87176789Y-26065289D01*
X87212334Y-26012093D01*
X87264390Y-25934185D01*
X87264390Y-25934184D01*
X87264394Y-25934179D01*
X87324737Y-25788497D01*
X87355500Y-25633842D01*
X87355500Y-25476158D01*
X87355500Y-25476155D01*
X87355499Y-25476153D01*
X87326470Y-25330215D01*
X87324737Y-25321503D01*
X87324735Y-25321498D01*
X87264397Y-25175827D01*
X87264390Y-25175814D01*
X87176789Y-25044711D01*
X87176786Y-25044707D01*
X87129759Y-24997680D01*
X87096274Y-24936357D01*
X87101258Y-24866665D01*
X87129760Y-24822317D01*
X87156789Y-24795289D01*
X87244394Y-24664179D01*
X87304737Y-24518497D01*
X87335500Y-24363842D01*
X87335500Y-24206158D01*
X87335500Y-24206155D01*
X87335499Y-24206153D01*
X87321530Y-24135925D01*
X87304737Y-24051503D01*
X87301809Y-24044435D01*
X87244397Y-23905827D01*
X87244390Y-23905814D01*
X87156789Y-23774711D01*
X87156786Y-23774707D01*
X87109759Y-23727680D01*
X87108507Y-23725388D01*
X87106266Y-23724043D01*
X87091849Y-23694881D01*
X87076274Y-23666357D01*
X87076460Y-23663752D01*
X87075302Y-23661409D01*
X87078938Y-23629092D01*
X87081258Y-23596665D01*
X87082913Y-23593774D01*
X87083116Y-23591977D01*
X87088726Y-23583626D01*
X87101277Y-23561714D01*
X87105274Y-23556803D01*
X87136789Y-23525289D01*
X87224394Y-23394179D01*
X87284737Y-23248497D01*
X87315500Y-23093842D01*
X87315500Y-22936158D01*
X87315500Y-22936155D01*
X87315499Y-22936153D01*
X87301219Y-22864364D01*
X87284737Y-22781503D01*
X87280628Y-22771584D01*
X87230036Y-22649442D01*
X87227616Y-22643600D01*
X87220146Y-22574131D01*
X87227615Y-22548693D01*
X87245834Y-22504707D01*
X87269054Y-22448649D01*
X87299817Y-22293994D01*
X87299817Y-22136310D01*
X87299817Y-22136307D01*
X87299816Y-22136305D01*
X87297776Y-22126047D01*
X87269054Y-21981655D01*
X87223148Y-21870827D01*
X87208714Y-21835979D01*
X87208707Y-21835966D01*
X87121106Y-21704863D01*
X87121103Y-21704859D01*
X87009609Y-21593365D01*
X87009605Y-21593362D01*
X86878502Y-21505761D01*
X86878489Y-21505754D01*
X86732818Y-21445416D01*
X86732806Y-21445413D01*
X86578162Y-21414652D01*
X86578159Y-21414652D01*
X86420475Y-21414652D01*
X86420472Y-21414652D01*
X86265828Y-21445412D01*
X86265818Y-21445415D01*
X86158034Y-21490061D01*
X86110582Y-21499500D01*
X64304604Y-21499500D01*
X64257155Y-21490062D01*
X64233497Y-21480263D01*
X64233493Y-21480262D01*
X64233488Y-21480260D01*
X64078845Y-21449500D01*
X64078842Y-21449500D01*
X63921158Y-21449500D01*
X63921155Y-21449500D01*
X63766510Y-21480261D01*
X63766498Y-21480264D01*
X63620827Y-21540602D01*
X63620814Y-21540609D01*
X63489711Y-21628210D01*
X63489707Y-21628213D01*
X63378213Y-21739707D01*
X63378210Y-21739711D01*
X63290609Y-21870814D01*
X63290602Y-21870827D01*
X63230264Y-22016498D01*
X63230261Y-22016508D01*
X63208472Y-22126047D01*
X63176087Y-22187958D01*
X63115371Y-22222532D01*
X63111047Y-22223472D01*
X63001508Y-22245261D01*
X63001498Y-22245264D01*
X62855827Y-22305602D01*
X62855814Y-22305609D01*
X62724711Y-22393210D01*
X62724707Y-22393213D01*
X62613213Y-22504707D01*
X62613210Y-22504711D01*
X62525609Y-22635814D01*
X62525603Y-22635826D01*
X62515806Y-22659478D01*
X62514633Y-22661394D01*
X62514474Y-22662573D01*
X62509396Y-22669952D01*
X62495646Y-22692426D01*
X62492429Y-22696202D01*
X62417048Y-22771584D01*
X62380379Y-22826465D01*
X62376367Y-22832469D01*
X62376363Y-22832474D01*
X62334919Y-22894499D01*
X62334912Y-22894511D01*
X62278343Y-23031082D01*
X62278340Y-23031092D01*
X62249500Y-23176079D01*
X62249500Y-23360949D01*
X62229815Y-23427988D01*
X62177011Y-23473743D01*
X62142100Y-23483154D01*
X62142132Y-23483311D01*
X62139796Y-23483775D01*
X62137662Y-23484351D01*
X62136158Y-23484499D01*
X61981510Y-23515261D01*
X61981498Y-23515264D01*
X61835827Y-23575602D01*
X61835814Y-23575609D01*
X61704711Y-23663210D01*
X61704707Y-23663213D01*
X61593213Y-23774707D01*
X61593207Y-23774715D01*
X61505607Y-23905818D01*
X61505604Y-23905823D01*
X61495806Y-23929477D01*
X61494866Y-23931021D01*
X61494745Y-23931961D01*
X61490688Y-23937890D01*
X61476078Y-23961914D01*
X61472658Y-23965972D01*
X61417048Y-24021584D01*
X61387313Y-24066087D01*
X61383486Y-24071814D01*
X61383483Y-24071818D01*
X61334914Y-24144507D01*
X61278343Y-24281082D01*
X61278340Y-24281092D01*
X61249500Y-24426079D01*
X61249500Y-39387770D01*
X61229815Y-39454809D01*
X61213181Y-39475451D01*
X59475451Y-41213181D01*
X59414128Y-41246666D01*
X59387770Y-41249500D01*
X58426080Y-41249500D01*
X58281092Y-41278340D01*
X58281082Y-41278343D01*
X58144511Y-41334912D01*
X58144498Y-41334919D01*
X58021584Y-41417048D01*
X58021580Y-41417051D01*
X56557048Y-42881583D01*
X56539502Y-42907844D01*
X56513307Y-42947049D01*
X56499728Y-42967372D01*
X56474916Y-43004504D01*
X56474912Y-43004511D01*
X56418343Y-43141082D01*
X56418340Y-43141091D01*
X56394172Y-43262589D01*
X56361786Y-43324499D01*
X56343680Y-43339970D01*
X56300863Y-43369951D01*
X56139951Y-43530862D01*
X56009433Y-43717264D01*
X55985205Y-43769221D01*
X55939032Y-43821660D01*
X55871838Y-43840811D01*
X55804957Y-43820595D01*
X55763465Y-43775268D01*
X55728849Y-43710506D01*
X55728832Y-43710478D01*
X55641295Y-43579469D01*
X55641291Y-43579463D01*
X55578485Y-43502935D01*
X55467064Y-43391514D01*
X55390536Y-43328708D01*
X55390530Y-43328704D01*
X55259521Y-43241167D01*
X55259501Y-43241155D01*
X55172198Y-43194490D01*
X55026612Y-43134185D01*
X54931860Y-43105443D01*
X54931849Y-43105440D01*
X54850000Y-43089160D01*
X54850000Y-45046000D01*
X54830315Y-45113039D01*
X54777511Y-45158794D01*
X54726000Y-45170000D01*
X54474000Y-45170000D01*
X54406961Y-45150315D01*
X54361206Y-45097511D01*
X54350000Y-45046000D01*
X54350000Y-43089161D01*
X54349999Y-43089160D01*
X54268150Y-43105440D01*
X54268133Y-43105445D01*
X54220494Y-43119896D01*
X54150627Y-43120519D01*
X54091515Y-43083270D01*
X54061924Y-43019975D01*
X54060500Y-43001235D01*
X54060500Y-40736081D01*
X54056634Y-40716645D01*
X54046768Y-40667049D01*
X54046639Y-40666401D01*
X54039161Y-40628807D01*
X54031659Y-40591088D01*
X53994136Y-40500500D01*
X53975084Y-40454505D01*
X53975082Y-40454502D01*
X53975080Y-40454498D01*
X53908927Y-40355494D01*
X53908925Y-40355491D01*
X53892954Y-40331587D01*
X53892952Y-40331585D01*
X52246071Y-38684703D01*
X52219191Y-38644475D01*
X52209394Y-38620821D01*
X52192132Y-38594986D01*
X52121789Y-38489710D01*
X52010292Y-38378213D01*
X52010288Y-38378210D01*
X51879185Y-38290609D01*
X51879172Y-38290602D01*
X51733501Y-38230264D01*
X51733489Y-38230261D01*
X51578845Y-38199500D01*
X51578842Y-38199500D01*
X51421158Y-38199500D01*
X51421155Y-38199500D01*
X51266510Y-38230261D01*
X51266498Y-38230264D01*
X51120827Y-38290602D01*
X51120814Y-38290609D01*
X50989711Y-38378210D01*
X50989707Y-38378213D01*
X50878213Y-38489707D01*
X50878210Y-38489711D01*
X50790609Y-38620814D01*
X50790602Y-38620827D01*
X50739061Y-38745261D01*
X50695220Y-38799665D01*
X50628926Y-38821730D01*
X50561227Y-38804451D01*
X50513616Y-38753314D01*
X50500500Y-38697809D01*
X50500500Y-31436079D01*
X50471659Y-31291092D01*
X50471658Y-31291091D01*
X50471658Y-31291087D01*
X50462923Y-31270000D01*
X50442234Y-31220051D01*
X50415084Y-31154505D01*
X50375394Y-31095104D01*
X50375394Y-31095103D01*
X50332950Y-31031581D01*
X50332947Y-31031578D01*
X47135175Y-27833807D01*
X47101690Y-27772484D01*
X47100383Y-27726728D01*
X47111154Y-27658726D01*
X47115500Y-27631287D01*
X47115500Y-27418713D01*
X47105205Y-27353713D01*
X51149500Y-27353713D01*
X51149500Y-27566287D01*
X51157156Y-27614622D01*
X51182158Y-27772484D01*
X51182754Y-27776243D01*
X51248319Y-27978031D01*
X51248444Y-27978414D01*
X51344951Y-28167820D01*
X51469890Y-28339786D01*
X51620213Y-28490109D01*
X51792182Y-28615050D01*
X51800946Y-28619516D01*
X51851742Y-28667491D01*
X51868536Y-28735312D01*
X51845998Y-28801447D01*
X51800946Y-28840484D01*
X51792182Y-28844949D01*
X51620213Y-28969890D01*
X51469890Y-29120213D01*
X51344951Y-29292179D01*
X51248444Y-29481585D01*
X51182753Y-29683760D01*
X51167494Y-29780104D01*
X51149500Y-29893713D01*
X51149500Y-30106287D01*
X51153333Y-30130486D01*
X51182158Y-30312484D01*
X51182754Y-30316243D01*
X51233643Y-30472863D01*
X51248444Y-30518414D01*
X51344951Y-30707820D01*
X51469890Y-30879786D01*
X51620213Y-31030109D01*
X51792182Y-31155050D01*
X51800946Y-31159516D01*
X51851742Y-31207491D01*
X51868536Y-31275312D01*
X51845998Y-31341447D01*
X51800946Y-31380484D01*
X51792182Y-31384949D01*
X51620213Y-31509890D01*
X51469890Y-31660213D01*
X51344951Y-31832179D01*
X51248444Y-32021585D01*
X51182753Y-32223760D01*
X51154390Y-32402839D01*
X51149500Y-32433713D01*
X51149500Y-32646287D01*
X51153333Y-32670486D01*
X51182158Y-32852484D01*
X51182754Y-32856243D01*
X51229764Y-33000925D01*
X51248444Y-33058414D01*
X51344951Y-33247820D01*
X51469890Y-33419786D01*
X51620213Y-33570109D01*
X51792182Y-33695050D01*
X51800946Y-33699516D01*
X51851742Y-33747491D01*
X51868536Y-33815312D01*
X51845998Y-33881447D01*
X51800946Y-33920484D01*
X51792182Y-33924949D01*
X51620213Y-34049890D01*
X51469890Y-34200213D01*
X51344951Y-34372179D01*
X51248444Y-34561585D01*
X51182753Y-34763760D01*
X51167494Y-34860104D01*
X51149500Y-34973713D01*
X51149500Y-35186287D01*
X51153333Y-35210486D01*
X51181902Y-35390867D01*
X51182754Y-35396243D01*
X51246818Y-35593412D01*
X51248444Y-35598414D01*
X51344951Y-35787820D01*
X51469890Y-35959786D01*
X51620213Y-36110109D01*
X51792179Y-36235048D01*
X51792181Y-36235049D01*
X51792184Y-36235051D01*
X51981588Y-36331557D01*
X52183757Y-36397246D01*
X52393713Y-36430500D01*
X52393714Y-36430500D01*
X52606286Y-36430500D01*
X52606287Y-36430500D01*
X52816243Y-36397246D01*
X53018412Y-36331557D01*
X53207816Y-36235051D01*
X53313388Y-36158349D01*
X53379786Y-36110109D01*
X53379788Y-36110106D01*
X53379792Y-36110104D01*
X53530104Y-35959792D01*
X53530106Y-35959788D01*
X53530109Y-35959786D01*
X53655048Y-35787820D01*
X53655047Y-35787820D01*
X53655051Y-35787816D01*
X53751557Y-35598412D01*
X53817246Y-35396243D01*
X53850500Y-35186287D01*
X53850500Y-34973713D01*
X53817246Y-34763757D01*
X53751557Y-34561588D01*
X53655051Y-34372184D01*
X53655049Y-34372181D01*
X53655048Y-34372179D01*
X53530109Y-34200213D01*
X53379786Y-34049890D01*
X53207820Y-33924951D01*
X53207115Y-33924591D01*
X53199054Y-33920485D01*
X53148259Y-33872512D01*
X53131463Y-33804692D01*
X53153999Y-33738556D01*
X53199054Y-33699515D01*
X53207816Y-33695051D01*
X53266756Y-33652229D01*
X53379786Y-33570109D01*
X53379788Y-33570106D01*
X53379792Y-33570104D01*
X53530104Y-33419792D01*
X53530106Y-33419788D01*
X53530109Y-33419786D01*
X53655048Y-33247820D01*
X53655047Y-33247820D01*
X53655051Y-33247816D01*
X53751557Y-33058412D01*
X53817246Y-32856243D01*
X53850500Y-32646287D01*
X53850500Y-32433713D01*
X53817246Y-32223757D01*
X53751557Y-32021588D01*
X53655051Y-31832184D01*
X53655049Y-31832181D01*
X53655048Y-31832179D01*
X53530109Y-31660213D01*
X53379786Y-31509890D01*
X53207820Y-31384951D01*
X53207115Y-31384591D01*
X53199054Y-31380485D01*
X53148259Y-31332512D01*
X53131463Y-31264692D01*
X53153999Y-31198556D01*
X53199054Y-31159515D01*
X53207816Y-31155051D01*
X53313388Y-31078349D01*
X53379786Y-31030109D01*
X53379788Y-31030106D01*
X53379792Y-31030104D01*
X53530104Y-30879792D01*
X53530106Y-30879788D01*
X53530109Y-30879786D01*
X53655048Y-30707820D01*
X53655047Y-30707820D01*
X53655051Y-30707816D01*
X53751557Y-30518412D01*
X53817246Y-30316243D01*
X53850500Y-30106287D01*
X53850500Y-29893713D01*
X53817246Y-29683757D01*
X53751557Y-29481588D01*
X53655051Y-29292184D01*
X53655049Y-29292181D01*
X53655048Y-29292179D01*
X53530109Y-29120213D01*
X53379786Y-28969890D01*
X53207820Y-28844951D01*
X53207115Y-28844591D01*
X53199054Y-28840485D01*
X53148259Y-28792512D01*
X53131463Y-28724692D01*
X53153999Y-28658556D01*
X53199054Y-28619515D01*
X53207816Y-28615051D01*
X53313388Y-28538349D01*
X53379786Y-28490109D01*
X53379788Y-28490106D01*
X53379792Y-28490104D01*
X53530104Y-28339792D01*
X53530106Y-28339788D01*
X53530109Y-28339786D01*
X53655048Y-28167820D01*
X53655047Y-28167820D01*
X53655051Y-28167816D01*
X53751557Y-27978412D01*
X53817246Y-27776243D01*
X53850500Y-27566287D01*
X53850500Y-27353713D01*
X53817246Y-27143757D01*
X53751557Y-26941588D01*
X53655051Y-26752184D01*
X53655049Y-26752181D01*
X53655048Y-26752179D01*
X53530109Y-26580213D01*
X53416181Y-26466285D01*
X53382696Y-26404962D01*
X53387680Y-26335270D01*
X53429552Y-26279337D01*
X53460529Y-26262422D01*
X53592086Y-26213354D01*
X53592093Y-26213350D01*
X53707187Y-26127190D01*
X53707190Y-26127187D01*
X53793350Y-26012093D01*
X53793354Y-26012086D01*
X53843596Y-25877379D01*
X53843598Y-25877372D01*
X53849999Y-25817844D01*
X53850000Y-25817827D01*
X53850000Y-25170000D01*
X52933012Y-25170000D01*
X52965925Y-25112993D01*
X53000000Y-24985826D01*
X53000000Y-24854174D01*
X52965925Y-24727007D01*
X52933012Y-24670000D01*
X53850000Y-24670000D01*
X53850000Y-24022172D01*
X53849999Y-24022155D01*
X53843598Y-23962627D01*
X53843596Y-23962620D01*
X53793354Y-23827913D01*
X53793350Y-23827906D01*
X53707190Y-23712812D01*
X53707187Y-23712809D01*
X53592093Y-23626649D01*
X53592086Y-23626645D01*
X53457379Y-23576403D01*
X53457372Y-23576401D01*
X53397844Y-23570000D01*
X52750000Y-23570000D01*
X52750000Y-24486988D01*
X52692993Y-24454075D01*
X52565826Y-24420000D01*
X52434174Y-24420000D01*
X52307007Y-24454075D01*
X52250000Y-24486988D01*
X52250000Y-23570000D01*
X51602155Y-23570000D01*
X51542627Y-23576401D01*
X51542620Y-23576403D01*
X51407913Y-23626645D01*
X51407906Y-23626649D01*
X51292812Y-23712809D01*
X51292809Y-23712812D01*
X51206649Y-23827906D01*
X51206645Y-23827913D01*
X51156403Y-23962620D01*
X51156401Y-23962627D01*
X51150000Y-24022155D01*
X51150000Y-24670000D01*
X52066988Y-24670000D01*
X52034075Y-24727007D01*
X52000000Y-24854174D01*
X52000000Y-24985826D01*
X52034075Y-25112993D01*
X52066988Y-25170000D01*
X51150000Y-25170000D01*
X51150000Y-25817844D01*
X51156401Y-25877372D01*
X51156403Y-25877379D01*
X51206645Y-26012086D01*
X51206649Y-26012093D01*
X51292809Y-26127187D01*
X51292812Y-26127190D01*
X51407906Y-26213350D01*
X51407913Y-26213354D01*
X51539470Y-26262422D01*
X51595404Y-26304293D01*
X51619821Y-26369758D01*
X51604969Y-26438031D01*
X51583819Y-26466285D01*
X51469889Y-26580215D01*
X51344951Y-26752179D01*
X51248444Y-26941585D01*
X51182753Y-27143760D01*
X51165847Y-27250500D01*
X51149500Y-27353713D01*
X47105205Y-27353713D01*
X47082246Y-27208757D01*
X47016557Y-27006588D01*
X46920051Y-26817184D01*
X46920049Y-26817181D01*
X46920048Y-26817179D01*
X46795109Y-26645213D01*
X46681181Y-26531285D01*
X46647696Y-26469962D01*
X46652680Y-26400270D01*
X46694552Y-26344337D01*
X46725529Y-26327422D01*
X46857086Y-26278354D01*
X46857093Y-26278350D01*
X46972187Y-26192190D01*
X46972190Y-26192187D01*
X47058350Y-26077093D01*
X47058354Y-26077086D01*
X47108596Y-25942379D01*
X47108598Y-25942372D01*
X47114999Y-25882844D01*
X47115000Y-25882827D01*
X47115000Y-25235000D01*
X46198012Y-25235000D01*
X46230925Y-25177993D01*
X46265000Y-25050826D01*
X46265000Y-24919174D01*
X46230925Y-24792007D01*
X46198012Y-24735000D01*
X47115000Y-24735000D01*
X47115000Y-24087172D01*
X47114999Y-24087157D01*
X47109080Y-24032108D01*
X47109079Y-24032106D01*
X47108596Y-24027619D01*
X47058354Y-23892913D01*
X47058350Y-23892906D01*
X46972190Y-23777812D01*
X46972187Y-23777809D01*
X46857093Y-23691649D01*
X46857086Y-23691645D01*
X46722379Y-23641403D01*
X46722372Y-23641401D01*
X46662844Y-23635000D01*
X46015000Y-23635000D01*
X46015000Y-24551988D01*
X45957993Y-24519075D01*
X45830826Y-24485000D01*
X45699174Y-24485000D01*
X45572007Y-24519075D01*
X45515000Y-24551988D01*
X45515000Y-23635000D01*
X44867155Y-23635000D01*
X44807627Y-23641401D01*
X44807620Y-23641403D01*
X44672913Y-23691645D01*
X44672906Y-23691649D01*
X44557812Y-23777809D01*
X44557809Y-23777812D01*
X44471649Y-23892906D01*
X44471646Y-23892912D01*
X44422577Y-24024471D01*
X44380705Y-24080404D01*
X44315241Y-24104821D01*
X44246968Y-24089969D01*
X44218714Y-24068818D01*
X44104786Y-23954890D01*
X43932820Y-23829951D01*
X43743414Y-23733444D01*
X43743413Y-23733443D01*
X43743412Y-23733443D01*
X43541243Y-23667754D01*
X43541241Y-23667753D01*
X43541240Y-23667753D01*
X43379957Y-23642208D01*
X43331287Y-23634500D01*
X43118713Y-23634500D01*
X43070042Y-23642208D01*
X42908760Y-23667753D01*
X42706585Y-23733444D01*
X42517179Y-23829951D01*
X42341266Y-23957759D01*
X42340635Y-23956891D01*
X42281581Y-23983359D01*
X42264800Y-23984500D01*
X41416457Y-23984500D01*
X41330406Y-24001617D01*
X41330403Y-24001617D01*
X41326003Y-24002493D01*
X41223164Y-24022949D01*
X41171293Y-24044435D01*
X41164178Y-24047381D01*
X41164178Y-24047382D01*
X41041082Y-24098369D01*
X40877219Y-24207859D01*
X40810041Y-24275038D01*
X40737861Y-24347218D01*
X40737858Y-24347221D01*
X37371899Y-27713181D01*
X37310576Y-27746666D01*
X37284218Y-27749500D01*
X37107559Y-27749500D01*
X37040520Y-27729815D01*
X36994765Y-27677011D01*
X36984821Y-27607853D01*
X37013846Y-27544297D01*
X37042462Y-27519961D01*
X37168345Y-27442315D01*
X37292315Y-27318345D01*
X37384356Y-27169124D01*
X37384358Y-27169119D01*
X37439505Y-27002697D01*
X37439506Y-27002690D01*
X37449999Y-26899986D01*
X37450000Y-26899973D01*
X37450000Y-26500000D01*
X36379146Y-26500000D01*
X36417630Y-26433343D01*
X36450000Y-26312535D01*
X36450000Y-26187465D01*
X36417630Y-26066657D01*
X36379146Y-26000000D01*
X37449999Y-26000000D01*
X37449999Y-25600028D01*
X37449998Y-25600013D01*
X37439505Y-25497302D01*
X37384358Y-25330880D01*
X37384356Y-25330875D01*
X37292315Y-25181654D01*
X37168345Y-25057684D01*
X37019124Y-24965643D01*
X37019119Y-24965641D01*
X36852697Y-24910494D01*
X36852690Y-24910493D01*
X36749986Y-24900000D01*
X36225000Y-24900000D01*
X36225000Y-25845854D01*
X36158343Y-25807370D01*
X36037535Y-25775000D01*
X35912465Y-25775000D01*
X35791657Y-25807370D01*
X35725000Y-25845854D01*
X35725000Y-24900000D01*
X35200028Y-24900000D01*
X35200012Y-24900001D01*
X35097302Y-24910494D01*
X34930880Y-24965641D01*
X34930875Y-24965643D01*
X34781654Y-25057684D01*
X34657684Y-25181654D01*
X34565643Y-25330875D01*
X34565641Y-25330880D01*
X34510494Y-25497302D01*
X34510493Y-25497309D01*
X34500000Y-25600013D01*
X34500000Y-26000000D01*
X35570854Y-26000000D01*
X35532370Y-26066657D01*
X35500000Y-26187465D01*
X35500000Y-26312535D01*
X35532370Y-26433343D01*
X35570854Y-26500000D01*
X34500001Y-26500000D01*
X34500001Y-26899986D01*
X34510494Y-27002697D01*
X34565641Y-27169119D01*
X34565643Y-27169124D01*
X34657684Y-27318345D01*
X34781654Y-27442315D01*
X34936484Y-27537815D01*
X34983208Y-27589763D01*
X34994431Y-27658726D01*
X34966587Y-27722808D01*
X34959069Y-27731035D01*
X34819889Y-27870215D01*
X34694951Y-28042179D01*
X34598444Y-28231585D01*
X34532753Y-28433760D01*
X34504040Y-28615048D01*
X34499500Y-28643713D01*
X34499500Y-28856287D01*
X34532754Y-29066243D01*
X34581342Y-29215782D01*
X34598444Y-29268414D01*
X34694951Y-29457820D01*
X34819890Y-29629786D01*
X34970209Y-29780105D01*
X34970214Y-29780109D01*
X35134793Y-29899682D01*
X35151907Y-29921876D01*
X35171477Y-29941943D01*
X35172954Y-29949169D01*
X35177459Y-29955011D01*
X35179857Y-29982938D01*
X35185471Y-30010397D01*
X35182806Y-30017275D01*
X35183438Y-30024625D01*
X35170357Y-30049415D01*
X35160235Y-30075550D01*
X35152695Y-30082889D01*
X35150833Y-30086420D01*
X35134967Y-30100192D01*
X35134808Y-30100307D01*
X34970208Y-30219896D01*
X34968593Y-30221510D01*
X34962859Y-30225692D01*
X34934280Y-30235944D01*
X34906581Y-30248359D01*
X34898060Y-30248938D01*
X34897094Y-30249285D01*
X34896153Y-30249068D01*
X34889800Y-30249500D01*
X34651456Y-30249500D01*
X34458171Y-30287947D01*
X34458163Y-30287949D01*
X34403035Y-30310784D01*
X34403030Y-30310786D01*
X34400129Y-30311988D01*
X34276086Y-30363368D01*
X34243788Y-30384949D01*
X34236264Y-30389975D01*
X34236256Y-30389980D01*
X34112222Y-30472857D01*
X34112214Y-30472863D01*
X28006899Y-36578181D01*
X27945576Y-36611666D01*
X27919218Y-36614500D01*
X27485200Y-36614500D01*
X27418161Y-36594815D01*
X27405634Y-36585506D01*
X27232820Y-36459951D01*
X27232115Y-36459591D01*
X27224054Y-36455485D01*
X27173259Y-36407512D01*
X27156463Y-36339692D01*
X27178999Y-36273556D01*
X27224054Y-36234515D01*
X27232816Y-36230051D01*
X27331506Y-36158349D01*
X27404786Y-36105109D01*
X27404788Y-36105106D01*
X27404792Y-36105104D01*
X27555104Y-35954792D01*
X27555106Y-35954788D01*
X27555109Y-35954786D01*
X27680048Y-35782820D01*
X27680047Y-35782820D01*
X27680051Y-35782816D01*
X27776557Y-35593412D01*
X27842246Y-35391243D01*
X27875500Y-35181287D01*
X27875500Y-34968713D01*
X27842246Y-34758757D01*
X27776557Y-34556588D01*
X27680051Y-34367184D01*
X27680049Y-34367181D01*
X27680048Y-34367179D01*
X27555109Y-34195213D01*
X27441181Y-34081285D01*
X27407696Y-34019962D01*
X27412680Y-33950270D01*
X27454552Y-33894337D01*
X27485529Y-33877422D01*
X27617086Y-33828354D01*
X27617093Y-33828350D01*
X27732187Y-33742190D01*
X27732190Y-33742187D01*
X27818350Y-33627093D01*
X27818354Y-33627086D01*
X27868596Y-33492379D01*
X27868598Y-33492372D01*
X27874999Y-33432844D01*
X27875000Y-33432827D01*
X27875000Y-32785000D01*
X26958012Y-32785000D01*
X26990925Y-32727993D01*
X27025000Y-32600826D01*
X27025000Y-32469174D01*
X26990925Y-32342007D01*
X26958012Y-32285000D01*
X27875000Y-32285000D01*
X27875000Y-31637172D01*
X27874999Y-31637155D01*
X27868598Y-31577627D01*
X27868596Y-31577620D01*
X27818354Y-31442913D01*
X27818350Y-31442906D01*
X27732190Y-31327812D01*
X27732187Y-31327809D01*
X27617093Y-31241649D01*
X27617086Y-31241645D01*
X27482379Y-31191403D01*
X27482372Y-31191401D01*
X27422844Y-31185000D01*
X26775000Y-31185000D01*
X26775000Y-32101988D01*
X26717993Y-32069075D01*
X26590826Y-32035000D01*
X26459174Y-32035000D01*
X26332007Y-32069075D01*
X26275000Y-32101988D01*
X26275000Y-31185000D01*
X25627155Y-31185000D01*
X25567627Y-31191401D01*
X25567620Y-31191403D01*
X25432913Y-31241645D01*
X25432906Y-31241649D01*
X25317812Y-31327809D01*
X25317809Y-31327812D01*
X25231649Y-31442906D01*
X25231645Y-31442913D01*
X25181403Y-31577620D01*
X25181401Y-31577627D01*
X25175000Y-31637155D01*
X25175000Y-32285000D01*
X26091988Y-32285000D01*
X26059075Y-32342007D01*
X26025000Y-32469174D01*
X26025000Y-32600826D01*
X26059075Y-32727993D01*
X26091988Y-32785000D01*
X25175000Y-32785000D01*
X25175000Y-33432844D01*
X25181401Y-33492372D01*
X25181403Y-33492379D01*
X25231645Y-33627086D01*
X25231649Y-33627093D01*
X25317809Y-33742187D01*
X25317812Y-33742190D01*
X25432906Y-33828350D01*
X25432913Y-33828354D01*
X25564470Y-33877422D01*
X25620404Y-33919293D01*
X25644821Y-33984758D01*
X25629969Y-34053031D01*
X25608819Y-34081285D01*
X25494889Y-34195215D01*
X25369951Y-34367179D01*
X25273444Y-34556585D01*
X25273443Y-34556587D01*
X25273443Y-34556588D01*
X25259853Y-34598414D01*
X25207753Y-34758760D01*
X25174500Y-34968713D01*
X25174500Y-35181286D01*
X25204142Y-35368443D01*
X25207754Y-35391243D01*
X25254209Y-35534217D01*
X25273444Y-35593414D01*
X25369951Y-35782820D01*
X25494890Y-35954786D01*
X25645213Y-36105109D01*
X25817182Y-36230050D01*
X25825946Y-36234516D01*
X25876742Y-36282491D01*
X25893536Y-36350312D01*
X25870998Y-36416447D01*
X25825946Y-36455484D01*
X25817182Y-36459949D01*
X25645213Y-36584890D01*
X25494890Y-36735213D01*
X25369951Y-36907179D01*
X25273444Y-37096585D01*
X25273443Y-37096587D01*
X25273443Y-37096588D01*
X25259853Y-37138414D01*
X25207753Y-37298760D01*
X25173738Y-37513525D01*
X25172684Y-37513358D01*
X25149621Y-37573850D01*
X25138576Y-37586503D01*
X24525579Y-38199500D01*
X23887221Y-38837858D01*
X23887218Y-38837861D01*
X23840069Y-38885010D01*
X23747859Y-38977219D01*
X23638371Y-39141080D01*
X23638364Y-39141093D01*
X23599345Y-39235294D01*
X23599339Y-39235311D01*
X23597517Y-39239711D01*
X23562949Y-39323164D01*
X23552423Y-39376082D01*
X23550976Y-39383352D01*
X23550976Y-39383355D01*
X23524500Y-39516456D01*
X23524500Y-41049800D01*
X23504815Y-41116839D01*
X23495506Y-41129365D01*
X23369951Y-41302179D01*
X23273444Y-41491585D01*
X23207753Y-41693760D01*
X23185331Y-41835331D01*
X23174500Y-41903713D01*
X23174500Y-42116287D01*
X23177622Y-42136000D01*
X23200766Y-42282126D01*
X23207754Y-42326243D01*
X23270529Y-42519445D01*
X23273444Y-42528414D01*
X23369951Y-42717820D01*
X23494890Y-42889786D01*
X23645213Y-43040109D01*
X23817182Y-43165050D01*
X23825946Y-43169516D01*
X23876742Y-43217491D01*
X23893536Y-43285312D01*
X23870998Y-43351447D01*
X23825946Y-43390484D01*
X23817182Y-43394949D01*
X23645213Y-43519890D01*
X23494890Y-43670213D01*
X23369951Y-43842179D01*
X23273444Y-44031585D01*
X23207753Y-44233760D01*
X23174500Y-44443713D01*
X23174500Y-44656286D01*
X23207753Y-44866239D01*
X23273444Y-45068414D01*
X23369951Y-45257820D01*
X23494890Y-45429786D01*
X23645213Y-45580109D01*
X23817182Y-45705050D01*
X23825946Y-45709516D01*
X23876742Y-45757491D01*
X23893536Y-45825312D01*
X23870998Y-45891447D01*
X23825946Y-45930484D01*
X23817182Y-45934949D01*
X23645213Y-46059890D01*
X23494890Y-46210213D01*
X23369951Y-46382179D01*
X23273444Y-46571585D01*
X23273443Y-46571587D01*
X23273443Y-46571588D01*
X23253053Y-46634341D01*
X23207753Y-46773760D01*
X23202149Y-46809143D01*
X23174500Y-46983713D01*
X23174500Y-47196287D01*
X23179502Y-47227869D01*
X23202884Y-47375500D01*
X23207754Y-47406243D01*
X23221690Y-47449132D01*
X23273443Y-47608412D01*
X23369951Y-47797820D01*
X23494890Y-47969786D01*
X23645213Y-48120109D01*
X23817182Y-48245050D01*
X23825946Y-48249516D01*
X23876742Y-48297491D01*
X23893536Y-48365312D01*
X23870998Y-48431447D01*
X23825946Y-48470484D01*
X23817182Y-48474949D01*
X23645213Y-48599890D01*
X23494890Y-48750213D01*
X23369951Y-48922179D01*
X23273444Y-49111585D01*
X23207753Y-49313760D01*
X23190743Y-49421158D01*
X23174500Y-49523713D01*
X23174500Y-49736287D01*
X23207754Y-49946243D01*
X23263692Y-50118403D01*
X23273444Y-50148414D01*
X23369951Y-50337820D01*
X23494890Y-50509786D01*
X23645213Y-50660109D01*
X23817179Y-50785048D01*
X23817181Y-50785049D01*
X23817184Y-50785051D01*
X24006588Y-50881557D01*
X24208757Y-50947246D01*
X24418713Y-50980500D01*
X24418714Y-50980500D01*
X24631286Y-50980500D01*
X24631287Y-50980500D01*
X24841243Y-50947246D01*
X25043412Y-50881557D01*
X25232816Y-50785051D01*
X25289701Y-50743722D01*
X25404786Y-50660109D01*
X25404788Y-50660106D01*
X25404792Y-50660104D01*
X25555104Y-50509792D01*
X25555106Y-50509788D01*
X25555109Y-50509786D01*
X25680048Y-50337820D01*
X25680047Y-50337820D01*
X25680051Y-50337816D01*
X25684514Y-50329054D01*
X25732488Y-50278259D01*
X25800308Y-50261463D01*
X25866444Y-50283999D01*
X25905486Y-50329056D01*
X25909951Y-50337820D01*
X26034890Y-50509786D01*
X26185213Y-50660109D01*
X26357179Y-50785048D01*
X26357181Y-50785049D01*
X26357184Y-50785051D01*
X26546588Y-50881557D01*
X26748757Y-50947246D01*
X26958713Y-50980500D01*
X26958714Y-50980500D01*
X27171286Y-50980500D01*
X27171287Y-50980500D01*
X27381243Y-50947246D01*
X27583412Y-50881557D01*
X27772816Y-50785051D01*
X27829701Y-50743722D01*
X27944786Y-50660109D01*
X27944788Y-50660106D01*
X27944792Y-50660104D01*
X28095104Y-50509792D01*
X28095106Y-50509788D01*
X28095109Y-50509786D01*
X28220048Y-50337820D01*
X28220047Y-50337820D01*
X28220051Y-50337816D01*
X28316557Y-50148412D01*
X28382246Y-49946243D01*
X28415500Y-49736287D01*
X28415500Y-49523713D01*
X28382246Y-49313757D01*
X28316557Y-49111588D01*
X28220051Y-48922184D01*
X28220049Y-48922181D01*
X28220048Y-48922179D01*
X28095109Y-48750213D01*
X27944786Y-48599890D01*
X27772820Y-48474951D01*
X27772115Y-48474591D01*
X27764054Y-48470485D01*
X27713259Y-48422512D01*
X27696463Y-48354692D01*
X27718999Y-48288556D01*
X27764054Y-48249515D01*
X27772816Y-48245051D01*
X27869118Y-48175084D01*
X27944786Y-48120109D01*
X27944788Y-48120106D01*
X27944792Y-48120104D01*
X28095104Y-47969792D01*
X28095106Y-47969788D01*
X28095109Y-47969786D01*
X28220048Y-47797820D01*
X28220047Y-47797820D01*
X28220051Y-47797816D01*
X28316557Y-47608412D01*
X28382246Y-47406243D01*
X28415500Y-47196287D01*
X28415500Y-46983713D01*
X28382246Y-46773757D01*
X28316557Y-46571588D01*
X28220051Y-46382184D01*
X28220049Y-46382181D01*
X28220048Y-46382179D01*
X28095109Y-46210213D01*
X27944786Y-46059890D01*
X27772820Y-45934951D01*
X27772115Y-45934591D01*
X27764054Y-45930485D01*
X27713259Y-45882512D01*
X27696463Y-45814692D01*
X27718999Y-45748556D01*
X27764054Y-45709515D01*
X27772816Y-45705051D01*
X27830704Y-45662993D01*
X27944786Y-45580109D01*
X27944788Y-45580106D01*
X27944792Y-45580104D01*
X28095104Y-45429792D01*
X28095106Y-45429788D01*
X28095109Y-45429786D01*
X28220048Y-45257820D01*
X28220047Y-45257820D01*
X28220051Y-45257816D01*
X28316557Y-45068412D01*
X28382246Y-44866243D01*
X28415500Y-44656287D01*
X28415500Y-44443713D01*
X28382246Y-44233757D01*
X28316557Y-44031588D01*
X28220051Y-43842184D01*
X28220049Y-43842181D01*
X28220048Y-43842179D01*
X28095109Y-43670213D01*
X27981181Y-43556285D01*
X27947696Y-43494962D01*
X27952680Y-43425270D01*
X27994552Y-43369337D01*
X28025529Y-43352422D01*
X28157086Y-43303354D01*
X28157093Y-43303350D01*
X28272187Y-43217190D01*
X28272190Y-43217187D01*
X28358350Y-43102093D01*
X28358354Y-43102086D01*
X28408596Y-42967379D01*
X28408598Y-42967372D01*
X28414999Y-42907844D01*
X28415000Y-42907827D01*
X28415000Y-42260000D01*
X27498012Y-42260000D01*
X27530925Y-42202993D01*
X27565000Y-42075826D01*
X27565000Y-41944174D01*
X27530925Y-41817007D01*
X27498012Y-41760000D01*
X28415000Y-41760000D01*
X28415000Y-41112172D01*
X28414999Y-41112155D01*
X28408598Y-41052627D01*
X28408596Y-41052620D01*
X28358354Y-40917913D01*
X28358350Y-40917906D01*
X28272190Y-40802812D01*
X28272187Y-40802809D01*
X28157093Y-40716649D01*
X28157086Y-40716645D01*
X28022379Y-40666403D01*
X28022372Y-40666401D01*
X27962844Y-40660000D01*
X27315000Y-40660000D01*
X27315000Y-41576988D01*
X27257993Y-41544075D01*
X27130826Y-41510000D01*
X26999174Y-41510000D01*
X26872007Y-41544075D01*
X26815000Y-41576988D01*
X26815000Y-40660000D01*
X26167155Y-40660000D01*
X26107627Y-40666401D01*
X26107620Y-40666403D01*
X25972913Y-40716645D01*
X25972906Y-40716649D01*
X25857812Y-40802809D01*
X25857809Y-40802812D01*
X25771649Y-40917906D01*
X25771643Y-40917917D01*
X25765681Y-40933903D01*
X25723810Y-40989837D01*
X25658345Y-41014253D01*
X25590072Y-40999401D01*
X25540667Y-40949995D01*
X25525500Y-40890569D01*
X25525500Y-40080782D01*
X25545185Y-40013743D01*
X25561819Y-39993101D01*
X26044632Y-39510288D01*
X26553498Y-39001421D01*
X26614819Y-38967938D01*
X26630279Y-38965659D01*
X26631283Y-38965500D01*
X26631287Y-38965500D01*
X26841243Y-38932246D01*
X27043412Y-38866557D01*
X27232816Y-38770051D01*
X27266937Y-38745261D01*
X27408734Y-38642241D01*
X27409364Y-38643108D01*
X27468419Y-38616641D01*
X27485200Y-38615500D01*
X28483543Y-38615500D01*
X28542788Y-38603714D01*
X28592849Y-38593757D01*
X28676836Y-38577051D01*
X28761852Y-38541836D01*
X28858914Y-38501632D01*
X29022782Y-38392139D01*
X29162139Y-38252782D01*
X29162139Y-38252780D01*
X29172347Y-38242573D01*
X29172348Y-38242570D01*
X34991022Y-32423897D01*
X35052343Y-32390414D01*
X35122035Y-32395398D01*
X35137736Y-32403047D01*
X35137843Y-32402839D01*
X35142183Y-32405050D01*
X35142184Y-32405051D01*
X35331588Y-32501557D01*
X35533757Y-32567246D01*
X35743713Y-32600500D01*
X35743714Y-32600500D01*
X36206286Y-32600500D01*
X36206287Y-32600500D01*
X36416243Y-32567246D01*
X36587186Y-32511702D01*
X36657022Y-32509708D01*
X36716855Y-32545788D01*
X36747684Y-32608488D01*
X36749500Y-32629634D01*
X36749500Y-35534217D01*
X36729815Y-35601256D01*
X36713181Y-35621898D01*
X34862220Y-37472859D01*
X34862218Y-37472861D01*
X34826366Y-37508713D01*
X34722859Y-37612219D01*
X34613371Y-37776080D01*
X34613364Y-37776093D01*
X34573823Y-37871557D01*
X34542183Y-37947944D01*
X34542181Y-37947950D01*
X34537949Y-37958164D01*
X34537946Y-37958175D01*
X34499500Y-38151454D01*
X34499500Y-55388769D01*
X34479815Y-55455808D01*
X34427011Y-55501563D01*
X34357853Y-55511507D01*
X34294297Y-55482482D01*
X34287819Y-55476450D01*
X32978420Y-54167051D01*
X32884514Y-54104306D01*
X32884510Y-54104303D01*
X32855495Y-54084916D01*
X32855492Y-54084914D01*
X32855491Y-54084914D01*
X32788531Y-54057178D01*
X32735666Y-54015502D01*
X32630104Y-53870208D01*
X32490931Y-53731035D01*
X32457446Y-53669712D01*
X32462430Y-53600020D01*
X32504302Y-53544087D01*
X32513516Y-53537815D01*
X32668343Y-53442317D01*
X32792315Y-53318345D01*
X32884356Y-53169124D01*
X32884358Y-53169119D01*
X32939505Y-53002697D01*
X32939506Y-53002690D01*
X32949999Y-52899986D01*
X32950000Y-52899973D01*
X32950000Y-52500000D01*
X31879146Y-52500000D01*
X31917630Y-52433343D01*
X31950000Y-52312535D01*
X31950000Y-52187465D01*
X31917630Y-52066657D01*
X31879146Y-52000000D01*
X32949999Y-52000000D01*
X32949999Y-51600028D01*
X32949998Y-51600013D01*
X32939505Y-51497302D01*
X32884358Y-51330880D01*
X32884356Y-51330875D01*
X32792315Y-51181654D01*
X32668345Y-51057684D01*
X32519124Y-50965643D01*
X32519119Y-50965641D01*
X32352697Y-50910494D01*
X32352690Y-50910493D01*
X32249986Y-50900000D01*
X31725000Y-50900000D01*
X31725000Y-51845854D01*
X31658343Y-51807370D01*
X31537535Y-51775000D01*
X31412465Y-51775000D01*
X31291657Y-51807370D01*
X31225000Y-51845854D01*
X31225000Y-50900000D01*
X30700028Y-50900000D01*
X30700012Y-50900001D01*
X30597302Y-50910494D01*
X30430880Y-50965641D01*
X30430875Y-50965643D01*
X30281654Y-51057684D01*
X30157684Y-51181654D01*
X30065643Y-51330875D01*
X30065641Y-51330880D01*
X30010494Y-51497302D01*
X30010493Y-51497309D01*
X30000000Y-51600013D01*
X30000000Y-52000000D01*
X31070854Y-52000000D01*
X31032370Y-52066657D01*
X31000000Y-52187465D01*
X31000000Y-52312535D01*
X31032370Y-52433343D01*
X31070854Y-52500000D01*
X30000001Y-52500000D01*
X30000001Y-52899986D01*
X30010494Y-53002697D01*
X30065641Y-53169119D01*
X30065643Y-53169124D01*
X30157684Y-53318345D01*
X30281654Y-53442315D01*
X30436484Y-53537815D01*
X30483208Y-53589763D01*
X30494431Y-53658726D01*
X30466587Y-53722808D01*
X30459069Y-53731035D01*
X30319889Y-53870215D01*
X30194951Y-54042179D01*
X30098444Y-54231585D01*
X30032753Y-54433760D01*
X30018349Y-54524703D01*
X29999500Y-54643713D01*
X29999500Y-54856287D01*
X30007000Y-54903641D01*
X30024101Y-55011614D01*
X30032754Y-55066243D01*
X30096157Y-55261377D01*
X30098444Y-55268414D01*
X30194951Y-55457820D01*
X30319890Y-55629786D01*
X30470209Y-55780105D01*
X30470214Y-55780109D01*
X30634793Y-55899682D01*
X30677459Y-55955011D01*
X30683438Y-56024625D01*
X30650833Y-56086420D01*
X30634793Y-56100318D01*
X30470214Y-56219890D01*
X30470209Y-56219894D01*
X30319890Y-56370213D01*
X30194951Y-56542179D01*
X30098444Y-56731585D01*
X30032753Y-56933760D01*
X29999500Y-57143713D01*
X29999500Y-57356287D01*
X30002862Y-57377513D01*
X30018890Y-57478713D01*
X30032754Y-57566243D01*
X30073383Y-57691287D01*
X30098444Y-57768414D01*
X30194951Y-57957820D01*
X30319890Y-58129786D01*
X30470213Y-58280109D01*
X30642179Y-58405048D01*
X30642181Y-58405049D01*
X30642184Y-58405051D01*
X30831588Y-58501557D01*
X31033757Y-58567246D01*
X31243713Y-58600500D01*
X31243714Y-58600500D01*
X31706286Y-58600500D01*
X31706287Y-58600500D01*
X31916243Y-58567246D01*
X32118412Y-58501557D01*
X32307816Y-58405051D01*
X32329789Y-58389086D01*
X32479786Y-58280109D01*
X32479788Y-58280106D01*
X32479792Y-58280104D01*
X32630104Y-58129792D01*
X32630549Y-58129179D01*
X32686903Y-58051615D01*
X32691234Y-58048274D01*
X32693508Y-58043297D01*
X32718610Y-58027164D01*
X32742233Y-58008949D01*
X32748904Y-58007696D01*
X32752286Y-58005523D01*
X32787221Y-58000500D01*
X32875500Y-58000500D01*
X32942539Y-58020185D01*
X32988294Y-58072989D01*
X32999500Y-58124500D01*
X32999500Y-61830396D01*
X32990062Y-61877844D01*
X32984922Y-61890255D01*
X32980262Y-61901506D01*
X32980260Y-61901511D01*
X32949500Y-62056153D01*
X32949500Y-62213846D01*
X32980261Y-62368489D01*
X32980264Y-62368501D01*
X33015284Y-62453048D01*
X33022753Y-62522518D01*
X32991477Y-62584997D01*
X32931388Y-62620649D01*
X32900723Y-62624500D01*
X30840783Y-62624500D01*
X30773744Y-62604815D01*
X30753102Y-62588181D01*
X28824319Y-60659398D01*
X28790834Y-60598075D01*
X28788000Y-60571717D01*
X28788000Y-60363956D01*
X28749552Y-60170670D01*
X28749551Y-60170669D01*
X28749551Y-60170665D01*
X28749549Y-60170660D01*
X28674135Y-59988592D01*
X28674128Y-59988579D01*
X28564639Y-59824718D01*
X28564636Y-59824714D01*
X28425285Y-59685363D01*
X28425281Y-59685360D01*
X28261420Y-59575871D01*
X28261407Y-59575864D01*
X28079339Y-59500450D01*
X28079329Y-59500447D01*
X27886043Y-59462000D01*
X27886041Y-59462000D01*
X27688959Y-59462000D01*
X27688957Y-59462000D01*
X27495670Y-59500447D01*
X27495660Y-59500450D01*
X27313592Y-59575864D01*
X27313579Y-59575871D01*
X27149718Y-59685360D01*
X27149714Y-59685363D01*
X27010363Y-59824714D01*
X27010360Y-59824718D01*
X26900871Y-59988579D01*
X26900864Y-59988592D01*
X26825450Y-60170660D01*
X26825447Y-60170670D01*
X26787000Y-60363956D01*
X26787000Y-61136041D01*
X26825446Y-61329328D01*
X26825448Y-61329332D01*
X26825449Y-61329336D01*
X26831281Y-61343416D01*
X26831281Y-61343417D01*
X26900864Y-61511407D01*
X26900871Y-61511420D01*
X27010359Y-61675280D01*
X27010360Y-61675281D01*
X27010361Y-61675282D01*
X27149718Y-61814639D01*
X27149719Y-61814639D01*
X27156786Y-61821706D01*
X27156785Y-61821706D01*
X27156789Y-61821709D01*
X29737215Y-64402137D01*
X29737219Y-64402140D01*
X29901079Y-64511628D01*
X29901085Y-64511631D01*
X29901086Y-64511632D01*
X30083165Y-64587052D01*
X30261318Y-64622489D01*
X30276455Y-64625500D01*
X30276458Y-64625501D01*
X30276460Y-64625501D01*
X30479655Y-64625501D01*
X30479675Y-64625500D01*
X34223543Y-64625500D01*
X34253750Y-64619490D01*
X34324117Y-64605494D01*
X34416836Y-64587051D01*
X34470165Y-64564961D01*
X34598914Y-64511632D01*
X34762782Y-64402139D01*
X34902139Y-64262782D01*
X34902139Y-64262780D01*
X34912347Y-64252573D01*
X34912348Y-64252570D01*
X36277140Y-62887781D01*
X36386632Y-62723914D01*
X36462052Y-62541835D01*
X36500500Y-62348540D01*
X36500500Y-62151459D01*
X36500500Y-59611229D01*
X36520185Y-59544190D01*
X36572989Y-59498435D01*
X36642147Y-59488491D01*
X36705703Y-59517516D01*
X36712181Y-59523548D01*
X38189544Y-61000911D01*
X38197182Y-61013809D01*
X38206293Y-61021731D01*
X38215692Y-61045066D01*
X38220900Y-61053860D01*
X38222420Y-61059070D01*
X38230263Y-61098497D01*
X38242647Y-61128394D01*
X38244537Y-61134872D01*
X38244520Y-61144569D01*
X38249500Y-61169604D01*
X38249500Y-63637770D01*
X38229815Y-63704809D01*
X38213181Y-63725451D01*
X37167048Y-64771583D01*
X37155323Y-64789132D01*
X37126045Y-64832951D01*
X37084919Y-64894499D01*
X37084912Y-64894511D01*
X37028343Y-65031082D01*
X37028340Y-65031092D01*
X36999500Y-65176079D01*
X36999500Y-65695396D01*
X36990062Y-65742844D01*
X36988902Y-65745647D01*
X36980262Y-65766506D01*
X36980260Y-65766511D01*
X36949500Y-65921153D01*
X36949500Y-65921158D01*
X36949500Y-66078842D01*
X36949500Y-66078844D01*
X36949499Y-66078844D01*
X36963163Y-66147531D01*
X36956936Y-66217123D01*
X36929227Y-66259404D01*
X36167046Y-67021585D01*
X36162534Y-67028340D01*
X36162529Y-67028347D01*
X36084916Y-67144502D01*
X36084914Y-67144506D01*
X36028343Y-67281082D01*
X36028340Y-67281092D01*
X35999500Y-67426079D01*
X35999500Y-67945396D01*
X35990062Y-67992844D01*
X35980263Y-68016503D01*
X35980262Y-68016506D01*
X35980260Y-68016511D01*
X35949500Y-68171153D01*
X35949500Y-68328846D01*
X35963914Y-68401309D01*
X35957687Y-68470900D01*
X35914824Y-68526078D01*
X35848934Y-68549322D01*
X35842297Y-68549500D01*
X20624500Y-68549500D01*
X20557461Y-68529815D01*
X20511706Y-68477011D01*
X20500500Y-68425500D01*
X20500500Y-63902486D01*
X22749500Y-63902486D01*
X22749500Y-64197513D01*
X22768482Y-64341690D01*
X22788007Y-64489993D01*
X22863459Y-64771584D01*
X22864361Y-64774951D01*
X22864364Y-64774961D01*
X22977254Y-65047500D01*
X22977258Y-65047510D01*
X23124761Y-65302993D01*
X23304352Y-65537040D01*
X23304358Y-65537047D01*
X23512952Y-65745641D01*
X23512959Y-65745647D01*
X23747006Y-65925238D01*
X24002489Y-66072741D01*
X24002490Y-66072741D01*
X24002493Y-66072743D01*
X24166160Y-66140536D01*
X24269222Y-66183226D01*
X24275048Y-66185639D01*
X24560007Y-66261993D01*
X24852494Y-66300500D01*
X24852501Y-66300500D01*
X25147499Y-66300500D01*
X25147506Y-66300500D01*
X25439993Y-66261993D01*
X25724952Y-66185639D01*
X25997507Y-66072743D01*
X26252994Y-65925238D01*
X26487042Y-65745646D01*
X26695646Y-65537042D01*
X26875238Y-65302994D01*
X27022743Y-65047507D01*
X27135639Y-64774952D01*
X27211993Y-64489993D01*
X27250500Y-64197506D01*
X27250500Y-63902494D01*
X27211993Y-63610007D01*
X27135639Y-63325048D01*
X27022743Y-63052493D01*
X27008265Y-63027417D01*
X26875238Y-62797006D01*
X26695647Y-62562959D01*
X26695641Y-62562952D01*
X26487047Y-62354358D01*
X26487040Y-62354352D01*
X26252993Y-62174761D01*
X25997510Y-62027258D01*
X25997500Y-62027254D01*
X25724961Y-61914364D01*
X25724954Y-61914362D01*
X25724952Y-61914361D01*
X25439993Y-61838007D01*
X25391113Y-61831571D01*
X25147513Y-61799500D01*
X25147506Y-61799500D01*
X24852494Y-61799500D01*
X24852486Y-61799500D01*
X24574085Y-61836153D01*
X24560007Y-61838007D01*
X24365010Y-61890256D01*
X24275048Y-61914361D01*
X24275038Y-61914364D01*
X24002499Y-62027254D01*
X24002489Y-62027258D01*
X23747006Y-62174761D01*
X23512959Y-62354352D01*
X23512952Y-62354358D01*
X23304358Y-62562952D01*
X23304352Y-62562959D01*
X23124761Y-62797006D01*
X22977258Y-63052489D01*
X22977254Y-63052499D01*
X22864364Y-63325038D01*
X22864361Y-63325048D01*
X22788007Y-63610007D01*
X22786633Y-63620441D01*
X22749500Y-63902486D01*
X20500500Y-63902486D01*
X20500500Y-24852486D01*
X22749500Y-24852486D01*
X22749500Y-25147513D01*
X22772407Y-25321503D01*
X22788007Y-25439993D01*
X22864361Y-25724951D01*
X22864364Y-25724961D01*
X22977254Y-25997500D01*
X22977258Y-25997510D01*
X23124761Y-26252993D01*
X23304352Y-26487040D01*
X23304358Y-26487047D01*
X23512952Y-26695641D01*
X23512959Y-26695647D01*
X23747006Y-26875238D01*
X24002489Y-27022741D01*
X24002490Y-27022741D01*
X24002493Y-27022743D01*
X24275048Y-27135639D01*
X24560007Y-27211993D01*
X24852494Y-27250500D01*
X24852501Y-27250500D01*
X25147499Y-27250500D01*
X25147506Y-27250500D01*
X25439993Y-27211993D01*
X25724952Y-27135639D01*
X25997507Y-27022743D01*
X26252994Y-26875238D01*
X26487042Y-26695646D01*
X26695646Y-26487042D01*
X26875238Y-26252994D01*
X27022743Y-25997507D01*
X27135639Y-25724952D01*
X27211993Y-25439993D01*
X27250500Y-25147506D01*
X27250500Y-24852494D01*
X27211993Y-24560007D01*
X27135639Y-24275048D01*
X27107808Y-24207859D01*
X27022743Y-24002493D01*
X27022741Y-24002489D01*
X26875238Y-23747006D01*
X26695647Y-23512959D01*
X26695641Y-23512952D01*
X26487047Y-23304358D01*
X26487040Y-23304352D01*
X26252993Y-23124761D01*
X25997510Y-22977258D01*
X25997500Y-22977254D01*
X25724961Y-22864364D01*
X25724954Y-22864362D01*
X25724952Y-22864361D01*
X25439993Y-22788007D01*
X25390553Y-22781498D01*
X25147513Y-22749500D01*
X25147506Y-22749500D01*
X24852494Y-22749500D01*
X24852486Y-22749500D01*
X24574085Y-22786153D01*
X24560007Y-22788007D01*
X24416479Y-22826465D01*
X24275048Y-22864361D01*
X24275038Y-22864364D01*
X24002499Y-22977254D01*
X24002489Y-22977258D01*
X23747006Y-23124761D01*
X23512959Y-23304352D01*
X23512952Y-23304358D01*
X23304358Y-23512952D01*
X23304352Y-23512959D01*
X23124761Y-23747006D01*
X22977258Y-24002489D01*
X22977257Y-24002493D01*
X22864364Y-24275038D01*
X22864361Y-24275048D01*
X22792074Y-24544831D01*
X22788008Y-24560004D01*
X22788006Y-24560015D01*
X22749500Y-24852486D01*
X20500500Y-24852486D01*
X20500500Y-20624500D01*
X20520185Y-20557461D01*
X20572989Y-20511706D01*
X20624500Y-20500500D01*
X99375500Y-20500500D01*
X99442539Y-20520185D01*
G37*
%TD.AperFunction*%
%TA.AperFunction,Conductor*%
G36*
X66834075Y-46162993D02*
G01*
X66899901Y-46277007D01*
X66992993Y-46370099D01*
X67107007Y-46435925D01*
X67234174Y-46470000D01*
X67365826Y-46470000D01*
X67492993Y-46435925D01*
X67607007Y-46370099D01*
X67700099Y-46277007D01*
X67765925Y-46162993D01*
X67782962Y-46099410D01*
X68543136Y-46859584D01*
X68566556Y-46803045D01*
X68566558Y-46803039D01*
X68576507Y-46774838D01*
X68617372Y-46718165D01*
X68682390Y-46692583D01*
X68750917Y-46706213D01*
X68795019Y-46744966D01*
X68839954Y-46809141D01*
X69000858Y-46970045D01*
X69083904Y-47028194D01*
X69084800Y-47028821D01*
X69158390Y-47082287D01*
X69168547Y-47087462D01*
X69175648Y-47092434D01*
X69175652Y-47092436D01*
X69181688Y-47096662D01*
X69187266Y-47100568D01*
X69269827Y-47139067D01*
X69340781Y-47175220D01*
X69362467Y-47182266D01*
X69393504Y-47196739D01*
X69393510Y-47196740D01*
X69393513Y-47196742D01*
X69454462Y-47213072D01*
X69466904Y-47216406D01*
X69467386Y-47216535D01*
X69470528Y-47217377D01*
X69535466Y-47238477D01*
X69569233Y-47243825D01*
X69613308Y-47255635D01*
X69677103Y-47261215D01*
X69685690Y-47262269D01*
X69737648Y-47270500D01*
X69737649Y-47270500D01*
X69942350Y-47270500D01*
X69942352Y-47270500D01*
X69994308Y-47262270D01*
X69998582Y-47261592D01*
X70066692Y-47255635D01*
X70110766Y-47243825D01*
X70144534Y-47238477D01*
X70206404Y-47218373D01*
X70212617Y-47216534D01*
X70286490Y-47196741D01*
X70286492Y-47196739D01*
X70286496Y-47196739D01*
X70317532Y-47182266D01*
X70339219Y-47175220D01*
X70410172Y-47139067D01*
X70492734Y-47100568D01*
X70511446Y-47087465D01*
X70521610Y-47082287D01*
X70595199Y-47028821D01*
X70679139Y-46970047D01*
X70840047Y-46809139D01*
X70898821Y-46725199D01*
X70952287Y-46651610D01*
X70957465Y-46641446D01*
X70970568Y-46622734D01*
X70997617Y-46564724D01*
X71043788Y-46512287D01*
X71110981Y-46493134D01*
X71177862Y-46513349D01*
X71222381Y-46564724D01*
X71249433Y-46622736D01*
X71257563Y-46634347D01*
X71266469Y-46649169D01*
X71267714Y-46651612D01*
X71267714Y-46651613D01*
X71320536Y-46724316D01*
X71321793Y-46726078D01*
X71379953Y-46809140D01*
X71540858Y-46970045D01*
X71623904Y-47028194D01*
X71624800Y-47028821D01*
X71698390Y-47082287D01*
X71708547Y-47087462D01*
X71715648Y-47092434D01*
X71715652Y-47092436D01*
X71721688Y-47096662D01*
X71727266Y-47100568D01*
X71809827Y-47139067D01*
X71880781Y-47175220D01*
X71902467Y-47182266D01*
X71933504Y-47196739D01*
X71933510Y-47196740D01*
X71933513Y-47196742D01*
X71994462Y-47213072D01*
X72006904Y-47216406D01*
X72007386Y-47216535D01*
X72010528Y-47217377D01*
X72075466Y-47238477D01*
X72109233Y-47243825D01*
X72153308Y-47255635D01*
X72217103Y-47261215D01*
X72225690Y-47262269D01*
X72277648Y-47270500D01*
X72277649Y-47270500D01*
X72482350Y-47270500D01*
X72482352Y-47270500D01*
X72534308Y-47262270D01*
X72538582Y-47261592D01*
X72606692Y-47255635D01*
X72650766Y-47243825D01*
X72684534Y-47238477D01*
X72746404Y-47218373D01*
X72752617Y-47216534D01*
X72826490Y-47196741D01*
X72826492Y-47196739D01*
X72826496Y-47196739D01*
X72857532Y-47182266D01*
X72879219Y-47175220D01*
X72950172Y-47139067D01*
X73032734Y-47100568D01*
X73051446Y-47087465D01*
X73061610Y-47082287D01*
X73135199Y-47028821D01*
X73219139Y-46970047D01*
X73380047Y-46809139D01*
X73438821Y-46725199D01*
X73492287Y-46651610D01*
X73497465Y-46641446D01*
X73510568Y-46622734D01*
X73537617Y-46564724D01*
X73583788Y-46512287D01*
X73650981Y-46493134D01*
X73717862Y-46513349D01*
X73762381Y-46564724D01*
X73789433Y-46622736D01*
X73797563Y-46634347D01*
X73806469Y-46649169D01*
X73807714Y-46651612D01*
X73807714Y-46651613D01*
X73860536Y-46724316D01*
X73861793Y-46726078D01*
X73919953Y-46809140D01*
X74080858Y-46970045D01*
X74163904Y-47028194D01*
X74164800Y-47028821D01*
X74238390Y-47082287D01*
X74248547Y-47087462D01*
X74255648Y-47092434D01*
X74255652Y-47092436D01*
X74261688Y-47096662D01*
X74267266Y-47100568D01*
X74349827Y-47139067D01*
X74420781Y-47175220D01*
X74442467Y-47182266D01*
X74473504Y-47196739D01*
X74473510Y-47196740D01*
X74473513Y-47196742D01*
X74534462Y-47213072D01*
X74546904Y-47216406D01*
X74547386Y-47216535D01*
X74550528Y-47217377D01*
X74615466Y-47238477D01*
X74649233Y-47243825D01*
X74693308Y-47255635D01*
X74757103Y-47261215D01*
X74765690Y-47262269D01*
X74817648Y-47270500D01*
X74817649Y-47270500D01*
X75022350Y-47270500D01*
X75022352Y-47270500D01*
X75074308Y-47262270D01*
X75078582Y-47261592D01*
X75146692Y-47255635D01*
X75190766Y-47243825D01*
X75224534Y-47238477D01*
X75286404Y-47218373D01*
X75292617Y-47216534D01*
X75366490Y-47196741D01*
X75366492Y-47196739D01*
X75366496Y-47196739D01*
X75397532Y-47182266D01*
X75419219Y-47175220D01*
X75490172Y-47139067D01*
X75572734Y-47100568D01*
X75591446Y-47087465D01*
X75601610Y-47082287D01*
X75675199Y-47028821D01*
X75759139Y-46970047D01*
X75920047Y-46809139D01*
X75978821Y-46725199D01*
X76032287Y-46651610D01*
X76037465Y-46641446D01*
X76050568Y-46622734D01*
X76077617Y-46564724D01*
X76123788Y-46512287D01*
X76190981Y-46493134D01*
X76257862Y-46513349D01*
X76302381Y-46564724D01*
X76329433Y-46622736D01*
X76337563Y-46634347D01*
X76346469Y-46649169D01*
X76347714Y-46651612D01*
X76347714Y-46651613D01*
X76400536Y-46724316D01*
X76401793Y-46726078D01*
X76459953Y-46809140D01*
X76620858Y-46970045D01*
X76703904Y-47028194D01*
X76704800Y-47028821D01*
X76778390Y-47082287D01*
X76788547Y-47087462D01*
X76795648Y-47092434D01*
X76795652Y-47092436D01*
X76801688Y-47096662D01*
X76807266Y-47100568D01*
X76889827Y-47139067D01*
X76960781Y-47175220D01*
X76982467Y-47182266D01*
X77013504Y-47196739D01*
X77013510Y-47196740D01*
X77013513Y-47196742D01*
X77074462Y-47213072D01*
X77086904Y-47216406D01*
X77087386Y-47216535D01*
X77090528Y-47217377D01*
X77155466Y-47238477D01*
X77189233Y-47243825D01*
X77233308Y-47255635D01*
X77297103Y-47261215D01*
X77305690Y-47262269D01*
X77357648Y-47270500D01*
X77357649Y-47270500D01*
X77562350Y-47270500D01*
X77562352Y-47270500D01*
X77614308Y-47262270D01*
X77618582Y-47261592D01*
X77686692Y-47255635D01*
X77730766Y-47243825D01*
X77764534Y-47238477D01*
X77826404Y-47218373D01*
X77832617Y-47216534D01*
X77906490Y-47196741D01*
X77906492Y-47196739D01*
X77906496Y-47196739D01*
X77937532Y-47182266D01*
X77959219Y-47175220D01*
X78030172Y-47139067D01*
X78112734Y-47100568D01*
X78131446Y-47087465D01*
X78141610Y-47082287D01*
X78215199Y-47028821D01*
X78299139Y-46970047D01*
X78460047Y-46809139D01*
X78506248Y-46743154D01*
X78560823Y-46699530D01*
X78630321Y-46692336D01*
X78692677Y-46723857D01*
X78727970Y-46783609D01*
X78732975Y-46803216D01*
X78732980Y-46803233D01*
X78763419Y-46876719D01*
X78763431Y-46876747D01*
X78786779Y-46925548D01*
X78786782Y-46925553D01*
X78829893Y-46983142D01*
X78873006Y-47040733D01*
X78873010Y-47040737D01*
X78873015Y-47040743D01*
X78929252Y-47096980D01*
X78929261Y-47096988D01*
X78929267Y-47096994D01*
X78933246Y-47100568D01*
X78969524Y-47133156D01*
X78969532Y-47133162D01*
X79093263Y-47206573D01*
X79093262Y-47206573D01*
X79107615Y-47212518D01*
X79166774Y-47237022D01*
X79217802Y-47255024D01*
X79360218Y-47275500D01*
X79360221Y-47275500D01*
X80615500Y-47275500D01*
X80682539Y-47295185D01*
X80728294Y-47347989D01*
X80739500Y-47399500D01*
X80739500Y-47954071D01*
X80747119Y-47992373D01*
X80760199Y-48058127D01*
X80764499Y-48079744D01*
X80803988Y-48175080D01*
X80813535Y-48198127D01*
X80847872Y-48249516D01*
X80884726Y-48304673D01*
X80884727Y-48304674D01*
X81563181Y-48983127D01*
X81596666Y-49044450D01*
X81599500Y-49070808D01*
X81599500Y-61814069D01*
X81599500Y-61814071D01*
X81599499Y-61814071D01*
X81624497Y-61939738D01*
X81624499Y-61939744D01*
X81660748Y-62027258D01*
X81673535Y-62058127D01*
X81744723Y-62164669D01*
X81853182Y-62273128D01*
X81867888Y-62300059D01*
X81884477Y-62325873D01*
X81885368Y-62332072D01*
X81886666Y-62334449D01*
X81889500Y-62360808D01*
X81889500Y-62551929D01*
X81869815Y-62618968D01*
X81838382Y-62652249D01*
X81785695Y-62690526D01*
X81783939Y-62691779D01*
X81700859Y-62749954D01*
X81539954Y-62910859D01*
X81493374Y-62977380D01*
X81438796Y-63021004D01*
X81369298Y-63028195D01*
X81306944Y-62996671D01*
X81271652Y-62936918D01*
X81266559Y-62916962D01*
X81243135Y-62860414D01*
X80482961Y-63620588D01*
X80465925Y-63557007D01*
X80400099Y-63442993D01*
X80307007Y-63349901D01*
X80192993Y-63284075D01*
X80065826Y-63250000D01*
X79934174Y-63250000D01*
X79807007Y-63284075D01*
X79692993Y-63349901D01*
X79599901Y-63442993D01*
X79534075Y-63557007D01*
X79517037Y-63620589D01*
X78756863Y-62860415D01*
X78756862Y-62860415D01*
X78733446Y-62916947D01*
X78733431Y-62916987D01*
X78723491Y-62945164D01*
X78682625Y-63001835D01*
X78617607Y-63027417D01*
X78549079Y-63013785D01*
X78504979Y-62975032D01*
X78460044Y-62910857D01*
X78299140Y-62749953D01*
X78216078Y-62691793D01*
X78214316Y-62690536D01*
X78155763Y-62647995D01*
X78141612Y-62637714D01*
X78139169Y-62636469D01*
X78124347Y-62627563D01*
X78112734Y-62619432D01*
X78032128Y-62581844D01*
X78030169Y-62580930D01*
X77959219Y-62544780D01*
X77937534Y-62537733D01*
X77930662Y-62534529D01*
X77930661Y-62534528D01*
X77906494Y-62523260D01*
X77845300Y-62506863D01*
X79110414Y-62506863D01*
X79749999Y-63146448D01*
X80250000Y-63146448D01*
X80889584Y-62506862D01*
X80833059Y-62483449D01*
X80782053Y-62465455D01*
X80639780Y-62445000D01*
X80250000Y-62445000D01*
X80250000Y-63146448D01*
X79749999Y-63146448D01*
X79750000Y-63146447D01*
X79750000Y-62445000D01*
X79360214Y-62445000D01*
X79306237Y-62447893D01*
X79306235Y-62447893D01*
X79166976Y-62483436D01*
X79166962Y-62483441D01*
X79110414Y-62506863D01*
X77845300Y-62506863D01*
X77832600Y-62503460D01*
X77832600Y-62503459D01*
X77829446Y-62502614D01*
X77764534Y-62481523D01*
X77730766Y-62476174D01*
X77686692Y-62464365D01*
X77686689Y-62464364D01*
X77686686Y-62464364D01*
X77622891Y-62458783D01*
X77614301Y-62457728D01*
X77602848Y-62455914D01*
X77562352Y-62449500D01*
X77357648Y-62449500D01*
X77357644Y-62449500D01*
X77305696Y-62457728D01*
X77297109Y-62458782D01*
X77293142Y-62459129D01*
X77224642Y-62445365D01*
X77194651Y-62423283D01*
X76438413Y-61667045D01*
X76375976Y-61625328D01*
X76356355Y-61612218D01*
X76315495Y-61584916D01*
X76315494Y-61584915D01*
X76315492Y-61584914D01*
X76315490Y-61584913D01*
X76178917Y-61528343D01*
X76178907Y-61528340D01*
X76033920Y-61499500D01*
X76033918Y-61499500D01*
X60112229Y-61499500D01*
X60045190Y-61479815D01*
X60024548Y-61463181D01*
X59036819Y-60475451D01*
X59003334Y-60414128D01*
X59000500Y-60387770D01*
X59000500Y-53488500D01*
X66962600Y-53488500D01*
X66962600Y-54275900D01*
X66962600Y-55063300D01*
X66964522Y-55102700D01*
X66979600Y-55139101D01*
X66994678Y-55175503D01*
X67050396Y-55231221D01*
X67050397Y-55231221D01*
X67050398Y-55231222D01*
X67123200Y-55261378D01*
X67162600Y-55263300D01*
X67162615Y-55263300D01*
X68737385Y-55263300D01*
X68737400Y-55263300D01*
X68776800Y-55261378D01*
X68849602Y-55231222D01*
X68849603Y-55231221D01*
X68849605Y-55231220D01*
X68905320Y-55175505D01*
X68905321Y-55175503D01*
X68905322Y-55175502D01*
X68935478Y-55102700D01*
X68937400Y-55063300D01*
X68937400Y-54275900D01*
X68937400Y-53488500D01*
X68935478Y-53449100D01*
X68932668Y-53442317D01*
X68919282Y-53409999D01*
X77700000Y-53409999D01*
X77700000Y-54310000D01*
X77702138Y-54375541D01*
X77702138Y-54375544D01*
X77702139Y-54375545D01*
X77736068Y-54502167D01*
X77801612Y-54615694D01*
X77894306Y-54708388D01*
X78007833Y-54773932D01*
X78134455Y-54807861D01*
X78200000Y-54810000D01*
X79100000Y-54810000D01*
X79165545Y-54807861D01*
X79292167Y-54773932D01*
X79405694Y-54708388D01*
X79498388Y-54615694D01*
X79563932Y-54502167D01*
X79597861Y-54375545D01*
X79600000Y-54310000D01*
X79600000Y-53860000D01*
X79600000Y-53410000D01*
X79597861Y-53344455D01*
X79563933Y-53217833D01*
X79498388Y-53104306D01*
X79405694Y-53011612D01*
X79292167Y-52946067D01*
X79165545Y-52912139D01*
X79100000Y-52910000D01*
X78200000Y-52910000D01*
X78134455Y-52912139D01*
X78007833Y-52946067D01*
X78007831Y-52946067D01*
X78007831Y-52946068D01*
X77894306Y-53011612D01*
X77894303Y-53011614D01*
X77801614Y-53104303D01*
X77801612Y-53104306D01*
X77742054Y-53207464D01*
X77736067Y-53217833D01*
X77716617Y-53290422D01*
X77702139Y-53344455D01*
X77700000Y-53409999D01*
X68919282Y-53409999D01*
X68905325Y-53376303D01*
X68905323Y-53376298D01*
X68849602Y-53320577D01*
X68849598Y-53320575D01*
X68849596Y-53320574D01*
X68776801Y-53290422D01*
X68776803Y-53290422D01*
X68768357Y-53290010D01*
X68737400Y-53288500D01*
X67162600Y-53288500D01*
X67132292Y-53289978D01*
X67123197Y-53290422D01*
X67050403Y-53320574D01*
X67050395Y-53320579D01*
X66994679Y-53376295D01*
X66994674Y-53376303D01*
X66964522Y-53449097D01*
X66964522Y-53449100D01*
X66962600Y-53488500D01*
X59000500Y-53488500D01*
X59000500Y-51756680D01*
X66958040Y-51756680D01*
X66980966Y-51948955D01*
X67040805Y-52133118D01*
X67040804Y-52133118D01*
X67135269Y-52302142D01*
X67135272Y-52302145D01*
X67135274Y-52302149D01*
X67260775Y-52449613D01*
X67412529Y-52569892D01*
X67584755Y-52658404D01*
X67770893Y-52711778D01*
X67963853Y-52727981D01*
X68156285Y-52706397D01*
X68340860Y-52647846D01*
X68510548Y-52554559D01*
X68658884Y-52430091D01*
X68780219Y-52279180D01*
X68780222Y-52279173D01*
X68780226Y-52279168D01*
X68834369Y-52175600D01*
X68869931Y-52107576D01*
X68924604Y-51921816D01*
X68942154Y-51728973D01*
X68921913Y-51536395D01*
X68921912Y-51536392D01*
X68921912Y-51536390D01*
X68864653Y-51351419D01*
X68864652Y-51351418D01*
X68864652Y-51351416D01*
X68772553Y-51181081D01*
X68649123Y-51031880D01*
X68499063Y-50909494D01*
X68446521Y-50881557D01*
X68328091Y-50818586D01*
X68142712Y-50762617D01*
X67950002Y-50743722D01*
X67950000Y-50743722D01*
X67949194Y-50743733D01*
X67922302Y-50744108D01*
X67922298Y-50744108D01*
X67730186Y-50768377D01*
X67546439Y-50829502D01*
X67378081Y-50925143D01*
X67231495Y-51051672D01*
X67112275Y-51204265D01*
X67024969Y-51377103D01*
X66972896Y-51563605D01*
X66972895Y-51563608D01*
X66958040Y-51756680D01*
X59000500Y-51756680D01*
X59000500Y-49216680D01*
X66958040Y-49216680D01*
X66980966Y-49408955D01*
X67040805Y-49593118D01*
X67040804Y-49593118D01*
X67135269Y-49762142D01*
X67135272Y-49762145D01*
X67135274Y-49762149D01*
X67260775Y-49909613D01*
X67412529Y-50029892D01*
X67584755Y-50118404D01*
X67770893Y-50171778D01*
X67963853Y-50187981D01*
X68156285Y-50166397D01*
X68340860Y-50107846D01*
X68510548Y-50014559D01*
X68658884Y-49890091D01*
X68780219Y-49739180D01*
X68780222Y-49739173D01*
X68780226Y-49739168D01*
X68869930Y-49567577D01*
X68869931Y-49567576D01*
X68924604Y-49381816D01*
X68942154Y-49188973D01*
X68921913Y-48996395D01*
X68921912Y-48996392D01*
X68921912Y-48996390D01*
X68864653Y-48811419D01*
X68864652Y-48811418D01*
X68864652Y-48811416D01*
X68772553Y-48641081D01*
X68649123Y-48491880D01*
X68499063Y-48369494D01*
X68430407Y-48332989D01*
X68328091Y-48278586D01*
X68142712Y-48222617D01*
X67950002Y-48203722D01*
X67950000Y-48203722D01*
X67949194Y-48203733D01*
X67922302Y-48204108D01*
X67922298Y-48204108D01*
X67730186Y-48228377D01*
X67546439Y-48289502D01*
X67378081Y-48385143D01*
X67231495Y-48511672D01*
X67112275Y-48664265D01*
X67024969Y-48837103D01*
X66972896Y-49023605D01*
X66972895Y-49023608D01*
X66958040Y-49216680D01*
X59000500Y-49216680D01*
X59000500Y-48926079D01*
X58971659Y-48781092D01*
X58971658Y-48781091D01*
X58971658Y-48781087D01*
X58966836Y-48769445D01*
X58915087Y-48644511D01*
X58915080Y-48644498D01*
X58832952Y-48521585D01*
X58781851Y-48470484D01*
X58728416Y-48417049D01*
X58234898Y-47923531D01*
X57658789Y-47347421D01*
X57645308Y-47322733D01*
X57629100Y-47299743D01*
X57628788Y-47292479D01*
X57625304Y-47286098D01*
X57627310Y-47258038D01*
X57626105Y-47229937D01*
X57629769Y-47223658D01*
X57630288Y-47216406D01*
X57647146Y-47193886D01*
X57661325Y-47169594D01*
X57669810Y-47163611D01*
X57672160Y-47160473D01*
X57690160Y-47149263D01*
X57708330Y-47140005D01*
X57712077Y-47138178D01*
X57792734Y-47100568D01*
X57811446Y-47087465D01*
X57821610Y-47082287D01*
X57895199Y-47028821D01*
X57979139Y-46970047D01*
X58140047Y-46809139D01*
X58198821Y-46725199D01*
X58252287Y-46651610D01*
X58257465Y-46641446D01*
X58270568Y-46622734D01*
X58297617Y-46564724D01*
X58343788Y-46512287D01*
X58410981Y-46493134D01*
X58477862Y-46513349D01*
X58522381Y-46564724D01*
X58549433Y-46622736D01*
X58557563Y-46634347D01*
X58566469Y-46649169D01*
X58567714Y-46651612D01*
X58567714Y-46651613D01*
X58620536Y-46724316D01*
X58621793Y-46726078D01*
X58679953Y-46809140D01*
X58840858Y-46970045D01*
X58923904Y-47028194D01*
X58924800Y-47028821D01*
X58998390Y-47082287D01*
X59008547Y-47087462D01*
X59015648Y-47092434D01*
X59015652Y-47092436D01*
X59021688Y-47096662D01*
X59027266Y-47100568D01*
X59109827Y-47139067D01*
X59180781Y-47175220D01*
X59202467Y-47182266D01*
X59233504Y-47196739D01*
X59233510Y-47196740D01*
X59233513Y-47196742D01*
X59294462Y-47213072D01*
X59306904Y-47216406D01*
X59307386Y-47216535D01*
X59310528Y-47217377D01*
X59375466Y-47238477D01*
X59409233Y-47243825D01*
X59453308Y-47255635D01*
X59517103Y-47261215D01*
X59525690Y-47262269D01*
X59577648Y-47270500D01*
X59577649Y-47270500D01*
X59782350Y-47270500D01*
X59782352Y-47270500D01*
X59834308Y-47262270D01*
X59838582Y-47261592D01*
X59906692Y-47255635D01*
X59950766Y-47243825D01*
X59984534Y-47238477D01*
X60046404Y-47218373D01*
X60052617Y-47216534D01*
X60126490Y-47196741D01*
X60126492Y-47196739D01*
X60126496Y-47196739D01*
X60157532Y-47182266D01*
X60179219Y-47175220D01*
X60250172Y-47139067D01*
X60332734Y-47100568D01*
X60351446Y-47087465D01*
X60361610Y-47082287D01*
X60435199Y-47028821D01*
X60519139Y-46970047D01*
X60680047Y-46809139D01*
X60738821Y-46725199D01*
X60792287Y-46651610D01*
X60797465Y-46641446D01*
X60810568Y-46622734D01*
X60837617Y-46564724D01*
X60883788Y-46512287D01*
X60950981Y-46493134D01*
X61017862Y-46513349D01*
X61062381Y-46564724D01*
X61089433Y-46622736D01*
X61097563Y-46634347D01*
X61106469Y-46649169D01*
X61107714Y-46651612D01*
X61107714Y-46651613D01*
X61160536Y-46724316D01*
X61161793Y-46726078D01*
X61219953Y-46809140D01*
X61380858Y-46970045D01*
X61463904Y-47028194D01*
X61464800Y-47028821D01*
X61538390Y-47082287D01*
X61548547Y-47087462D01*
X61555648Y-47092434D01*
X61555652Y-47092436D01*
X61561688Y-47096662D01*
X61567266Y-47100568D01*
X61649827Y-47139067D01*
X61720781Y-47175220D01*
X61742467Y-47182266D01*
X61773504Y-47196739D01*
X61773510Y-47196740D01*
X61773513Y-47196742D01*
X61834462Y-47213072D01*
X61846904Y-47216406D01*
X61847386Y-47216535D01*
X61850528Y-47217377D01*
X61915466Y-47238477D01*
X61949233Y-47243825D01*
X61993308Y-47255635D01*
X62057103Y-47261215D01*
X62065690Y-47262269D01*
X62117648Y-47270500D01*
X62117649Y-47270500D01*
X62322350Y-47270500D01*
X62322352Y-47270500D01*
X62374308Y-47262270D01*
X62378582Y-47261592D01*
X62446692Y-47255635D01*
X62490766Y-47243825D01*
X62524534Y-47238477D01*
X62586404Y-47218373D01*
X62592617Y-47216534D01*
X62666490Y-47196741D01*
X62666492Y-47196739D01*
X62666496Y-47196739D01*
X62697532Y-47182266D01*
X62719219Y-47175220D01*
X62790172Y-47139067D01*
X62872734Y-47100568D01*
X62891446Y-47087465D01*
X62901610Y-47082287D01*
X62975199Y-47028821D01*
X63059139Y-46970047D01*
X63220047Y-46809139D01*
X63278821Y-46725199D01*
X63332287Y-46651610D01*
X63337465Y-46641446D01*
X63350568Y-46622734D01*
X63377617Y-46564724D01*
X63423788Y-46512287D01*
X63490981Y-46493134D01*
X63557862Y-46513349D01*
X63602381Y-46564724D01*
X63629433Y-46622736D01*
X63637563Y-46634347D01*
X63646469Y-46649169D01*
X63647714Y-46651612D01*
X63647714Y-46651613D01*
X63700536Y-46724316D01*
X63701793Y-46726078D01*
X63759953Y-46809140D01*
X63920858Y-46970045D01*
X64003904Y-47028194D01*
X64004800Y-47028821D01*
X64078390Y-47082287D01*
X64088547Y-47087462D01*
X64095648Y-47092434D01*
X64095652Y-47092436D01*
X64101688Y-47096662D01*
X64107266Y-47100568D01*
X64189827Y-47139067D01*
X64260781Y-47175220D01*
X64282467Y-47182266D01*
X64313504Y-47196739D01*
X64313510Y-47196740D01*
X64313513Y-47196742D01*
X64374462Y-47213072D01*
X64386904Y-47216406D01*
X64387386Y-47216535D01*
X64390528Y-47217377D01*
X64455466Y-47238477D01*
X64489233Y-47243825D01*
X64533308Y-47255635D01*
X64597103Y-47261215D01*
X64605690Y-47262269D01*
X64657648Y-47270500D01*
X64657649Y-47270500D01*
X64862350Y-47270500D01*
X64862352Y-47270500D01*
X64914308Y-47262270D01*
X64918582Y-47261592D01*
X64986692Y-47255635D01*
X65030766Y-47243825D01*
X65064534Y-47238477D01*
X65126404Y-47218373D01*
X65132617Y-47216534D01*
X65145303Y-47213135D01*
X66410414Y-47213135D01*
X66466960Y-47236557D01*
X66466964Y-47236559D01*
X66517946Y-47254544D01*
X66660219Y-47274999D01*
X66660221Y-47275000D01*
X67050000Y-47275000D01*
X67550000Y-47275000D01*
X67939786Y-47275000D01*
X67993762Y-47272106D01*
X67993764Y-47272106D01*
X68133039Y-47236558D01*
X68189584Y-47213136D01*
X68189584Y-47213135D01*
X67550000Y-46573551D01*
X67550000Y-47275000D01*
X67050000Y-47275000D01*
X67050000Y-46573552D01*
X67049999Y-46573551D01*
X66410414Y-47213135D01*
X65145303Y-47213135D01*
X65206490Y-47196741D01*
X65206492Y-47196739D01*
X65206496Y-47196739D01*
X65237532Y-47182266D01*
X65259219Y-47175220D01*
X65330172Y-47139067D01*
X65412734Y-47100568D01*
X65424382Y-47092411D01*
X65427618Y-47090222D01*
X65433211Y-47086565D01*
X65441610Y-47082287D01*
X65514358Y-47029432D01*
X65516047Y-47028227D01*
X65599139Y-46970047D01*
X65760047Y-46809139D01*
X65806623Y-46742619D01*
X65861196Y-46698996D01*
X65930695Y-46691801D01*
X65993050Y-46723322D01*
X66028344Y-46783073D01*
X66033438Y-46803028D01*
X66033442Y-46803043D01*
X66056862Y-46859584D01*
X66817037Y-46099409D01*
X66834075Y-46162993D01*
G37*
%TD.AperFunction*%
%TA.AperFunction,Conductor*%
G36*
X38418834Y-36848600D02*
G01*
X38474767Y-36890472D01*
X38499184Y-36955936D01*
X38499500Y-36964782D01*
X38499500Y-40323918D01*
X38499500Y-40323920D01*
X38499499Y-40323920D01*
X38528340Y-40468907D01*
X38528343Y-40468917D01*
X38584913Y-40605490D01*
X38584914Y-40605492D01*
X38610982Y-40644505D01*
X38610983Y-40644507D01*
X38667045Y-40728414D01*
X38667049Y-40728418D01*
X39463181Y-41524548D01*
X39496666Y-41585871D01*
X39499500Y-41612229D01*
X39499500Y-50785624D01*
X39479815Y-50852663D01*
X39427011Y-50898418D01*
X39362897Y-50908982D01*
X39274986Y-50900000D01*
X38750000Y-50900000D01*
X38750000Y-51845854D01*
X38683343Y-51807370D01*
X38562535Y-51775000D01*
X38437465Y-51775000D01*
X38316657Y-51807370D01*
X38250000Y-51845854D01*
X38250000Y-50900000D01*
X37725028Y-50900000D01*
X37725010Y-50900001D01*
X37637101Y-50908982D01*
X37568408Y-50896212D01*
X37517524Y-50848331D01*
X37500500Y-50785624D01*
X37500500Y-40054604D01*
X37509939Y-40007151D01*
X37519737Y-39983497D01*
X37550500Y-39828842D01*
X37550500Y-39671158D01*
X37550500Y-39671155D01*
X37550499Y-39671153D01*
X37539890Y-39617820D01*
X37519737Y-39516503D01*
X37483249Y-39428412D01*
X37459397Y-39370827D01*
X37459390Y-39370814D01*
X37371789Y-39239710D01*
X37260292Y-39128213D01*
X37260288Y-39128210D01*
X37129185Y-39040609D01*
X37129172Y-39040602D01*
X36983501Y-38980264D01*
X36983489Y-38980261D01*
X36828845Y-38949500D01*
X36828842Y-38949500D01*
X36671158Y-38949500D01*
X36648690Y-38953969D01*
X36627705Y-38952090D01*
X36606853Y-38955089D01*
X36593603Y-38949038D01*
X36579099Y-38947740D01*
X36562463Y-38934816D01*
X36543297Y-38926064D01*
X36535422Y-38913810D01*
X36523922Y-38904877D01*
X36516913Y-38885010D01*
X36505523Y-38867286D01*
X36501988Y-38842700D01*
X36500678Y-38838987D01*
X36500500Y-38832351D01*
X36500500Y-38715782D01*
X36520185Y-38648743D01*
X36536819Y-38628101D01*
X38287819Y-36877101D01*
X38349142Y-36843616D01*
X38418834Y-36848600D01*
G37*
%TD.AperFunction*%
%TA.AperFunction,Conductor*%
G36*
X93943135Y-46859584D02*
G01*
X93943136Y-46859584D01*
X93966556Y-46803045D01*
X93966558Y-46803039D01*
X93976507Y-46774838D01*
X94017372Y-46718165D01*
X94082390Y-46692583D01*
X94150917Y-46706213D01*
X94195019Y-46744966D01*
X94239954Y-46809141D01*
X94400859Y-46970046D01*
X94436621Y-46995086D01*
X94480247Y-47049662D01*
X94489500Y-47096662D01*
X94489500Y-47375500D01*
X94469815Y-47442539D01*
X94417011Y-47488294D01*
X94365500Y-47499500D01*
X93490075Y-47499500D01*
X93423036Y-47479815D01*
X93377281Y-47427011D01*
X93367337Y-47357853D01*
X93396362Y-47294297D01*
X93455140Y-47256523D01*
X93459409Y-47255352D01*
X93533039Y-47236558D01*
X93589584Y-47213136D01*
X93589584Y-47213135D01*
X92829410Y-46452962D01*
X92892993Y-46435925D01*
X93007007Y-46370099D01*
X93100099Y-46277007D01*
X93165925Y-46162993D01*
X93182962Y-46099411D01*
X93943135Y-46859584D01*
G37*
%TD.AperFunction*%
%TA.AperFunction,Conductor*%
G36*
X73612356Y-27258803D02*
G01*
X73645841Y-27320126D01*
X73644926Y-27334831D01*
X73647497Y-27334555D01*
X73656401Y-27417373D01*
X73656403Y-27417380D01*
X73706645Y-27552086D01*
X73706649Y-27552093D01*
X73792809Y-27667187D01*
X73792812Y-27667190D01*
X73907906Y-27753350D01*
X73907913Y-27753354D01*
X74039470Y-27802422D01*
X74095404Y-27844293D01*
X74119821Y-27909758D01*
X74104969Y-27978031D01*
X74083819Y-28006285D01*
X73969889Y-28120215D01*
X73844949Y-28292182D01*
X73840484Y-28300946D01*
X73792509Y-28351742D01*
X73724688Y-28368536D01*
X73658553Y-28345998D01*
X73619516Y-28300946D01*
X73615050Y-28292182D01*
X73490109Y-28120213D01*
X73339786Y-27969890D01*
X73167817Y-27844949D01*
X73158504Y-27840204D01*
X73107707Y-27792230D01*
X73090912Y-27724409D01*
X73113449Y-27658274D01*
X73158507Y-27619232D01*
X73167555Y-27614622D01*
X73221716Y-27575270D01*
X73221717Y-27575270D01*
X72589408Y-26942962D01*
X72652993Y-26925925D01*
X72767007Y-26860099D01*
X72860099Y-26767007D01*
X72925925Y-26652993D01*
X72942962Y-26589409D01*
X73612356Y-27258803D01*
G37*
%TD.AperFunction*%
%TD*%
M02*
