%TF.GenerationSoftware,KiCad,Pcbnew,9.0.9-1.fc43*%
%TF.CreationDate,2026-05-25T12:50:10+02:00*%
%TF.ProjectId,Fader_taster_2x6,46616465-725f-4746-9173-7465725f3278,rev?*%
%TF.SameCoordinates,Original*%
%TF.FileFunction,Copper,L1,Top*%
%TF.FilePolarity,Positive*%
%FSLAX46Y46*%
G04 Gerber Fmt 4.6, Leading zero omitted, Abs format (unit mm)*
G04 Created by KiCad (PCBNEW 9.0.9-1.fc43) date 2026-05-25 12:50:10*
%MOMM*%
%LPD*%
G01*
G04 APERTURE LIST*
G04 Aperture macros list*
%AMRoundRect*
0 Rectangle with rounded corners*
0 $1 Rounding radius*
0 $2 $3 $4 $5 $6 $7 $8 $9 X,Y pos of 4 corners*
0 Add a 4 corners polygon primitive as box body*
4,1,4,$2,$3,$4,$5,$6,$7,$8,$9,$2,$3,0*
0 Add four circle primitives for the rounded corners*
1,1,$1+$1,$2,$3*
1,1,$1+$1,$4,$5*
1,1,$1+$1,$6,$7*
1,1,$1+$1,$8,$9*
0 Add four rect primitives between the rounded corners*
20,1,$1+$1,$2,$3,$4,$5,0*
20,1,$1+$1,$4,$5,$6,$7,0*
20,1,$1+$1,$6,$7,$8,$9,0*
20,1,$1+$1,$8,$9,$2,$3,0*%
G04 Aperture macros list end*
%TA.AperFunction,ComponentPad*%
%ADD10RoundRect,0.250000X-0.725000X0.600000X-0.725000X-0.600000X0.725000X-0.600000X0.725000X0.600000X0*%
%TD*%
%TA.AperFunction,ComponentPad*%
%ADD11O,1.950000X1.700000*%
%TD*%
%TA.AperFunction,ComponentPad*%
%ADD12C,2.200000*%
%TD*%
%TA.AperFunction,ComponentPad*%
%ADD13R,1.700000X1.700000*%
%TD*%
%TA.AperFunction,ComponentPad*%
%ADD14C,1.700000*%
%TD*%
%TA.AperFunction,ComponentPad*%
%ADD15RoundRect,0.250000X-0.750000X0.750000X-0.750000X-0.750000X0.750000X-0.750000X0.750000X0.750000X0*%
%TD*%
%TA.AperFunction,ComponentPad*%
%ADD16C,2.000000*%
%TD*%
%TA.AperFunction,ViaPad*%
%ADD17C,0.600000*%
%TD*%
%TA.AperFunction,ViaPad*%
%ADD18C,1.000000*%
%TD*%
%TA.AperFunction,Conductor*%
%ADD19C,0.600000*%
%TD*%
%TA.AperFunction,Conductor*%
%ADD20C,1.000000*%
%TD*%
%TA.AperFunction,Conductor*%
%ADD21C,0.300000*%
%TD*%
G04 APERTURE END LIST*
D10*
%TO.P,J3,1,Pin_1*%
%TO.N,GND*%
X25000000Y-114750000D03*
D11*
%TO.P,J3,2,Pin_2*%
%TO.N,LED_DOUT*%
X25000000Y-117250000D03*
%TO.P,J3,3,Pin_3*%
%TO.N,+5V*%
X25000000Y-119750000D03*
%TD*%
D10*
%TO.P,J2,1,Pin_1*%
%TO.N,GND*%
X25000000Y-37500000D03*
D11*
%TO.P,J2,2,Pin_2*%
%TO.N,LED_DIN*%
X25000000Y-40000000D03*
%TO.P,J2,3,Pin_3*%
%TO.N,+5V*%
X25000000Y-42500000D03*
%TD*%
D12*
%TO.P,SW12,5,NO*%
%TO.N,SW51*%
X61640000Y-121220000D03*
%TO.P,SW12,6,COM*%
%TO.N,GND*%
X55290000Y-123760000D03*
%TD*%
%TO.P,SW11,5,NO*%
%TO.N,SW50*%
X42590000Y-121220000D03*
%TO.P,SW11,6,COM*%
%TO.N,GND*%
X36240000Y-123760000D03*
%TD*%
%TO.P,SW10,5,NO*%
%TO.N,SW41*%
X61590000Y-102170000D03*
%TO.P,SW10,6,COM*%
%TO.N,GND*%
X55240000Y-104710000D03*
%TD*%
%TO.P,SW9,5,NO*%
%TO.N,SW40*%
X42640000Y-102170000D03*
%TO.P,SW9,6,COM*%
%TO.N,GND*%
X36290000Y-104710000D03*
%TD*%
%TO.P,SW8,5,NO*%
%TO.N,SW31*%
X61640000Y-83120000D03*
%TO.P,SW8,6,COM*%
%TO.N,GND*%
X55290000Y-85660000D03*
%TD*%
%TO.P,SW7,5,NO*%
%TO.N,SW30*%
X42590000Y-83120000D03*
%TO.P,SW7,6,COM*%
%TO.N,GND*%
X36240000Y-85660000D03*
%TD*%
%TO.P,SW6,5,NO*%
%TO.N,SW21*%
X61640000Y-64070000D03*
%TO.P,SW6,6,COM*%
%TO.N,GND*%
X55290000Y-66610000D03*
%TD*%
%TO.P,SW5,5,NO*%
%TO.N,SW20*%
X42590000Y-64070000D03*
%TO.P,SW5,6,COM*%
%TO.N,GND*%
X36240000Y-66610000D03*
%TD*%
%TO.P,SW4,5,NO*%
%TO.N,SW11*%
X61640000Y-45020000D03*
%TO.P,SW4,6,COM*%
%TO.N,GND*%
X55290000Y-47560000D03*
%TD*%
%TO.P,SW3,5,NO*%
%TO.N,SW10*%
X42590000Y-45020000D03*
%TO.P,SW3,6,COM*%
%TO.N,GND*%
X36240000Y-47560000D03*
%TD*%
%TO.P,SW2,5,NO*%
%TO.N,SW01*%
X61640000Y-25970000D03*
%TO.P,SW2,6,COM*%
%TO.N,GND*%
X55290000Y-28510000D03*
%TD*%
%TO.P,SW1,5,NO*%
%TO.N,SW00*%
X42590000Y-25970000D03*
%TO.P,SW1,6,COM*%
%TO.N,GND*%
X36240000Y-28510000D03*
%TD*%
D13*
%TO.P,J1,1,Pin_1*%
%TO.N,GND*%
X25000000Y-75710000D03*
D14*
%TO.P,J1,2,Pin_2*%
X22460000Y-75710000D03*
%TO.P,J1,3,Pin_3*%
%TO.N,SW20*%
X25000000Y-78250000D03*
%TO.P,J1,4,Pin_4*%
%TO.N,SW10*%
X22460000Y-78250000D03*
%TO.P,J1,5,Pin_5*%
%TO.N,SW00*%
X25000000Y-80790000D03*
%TO.P,J1,6,Pin_6*%
%TO.N,SW01*%
X22460000Y-80790000D03*
%TO.P,J1,7,Pin_7*%
%TO.N,SW11*%
X25000000Y-83330000D03*
%TO.P,J1,8,Pin_8*%
%TO.N,SW21*%
X22460000Y-83330000D03*
%TO.P,J1,9,Pin_9*%
%TO.N,SW30*%
X25000000Y-85870000D03*
%TO.P,J1,10,Pin_10*%
%TO.N,SW31*%
X22460000Y-85870000D03*
%TO.P,J1,11,Pin_11*%
%TO.N,SW41*%
X25000000Y-88410000D03*
%TO.P,J1,12,Pin_12*%
%TO.N,SW40*%
X22460000Y-88410000D03*
%TO.P,J1,13,Pin_13*%
%TO.N,SW51*%
X25000000Y-90950000D03*
%TO.P,J1,14,Pin_14*%
%TO.N,SW50*%
X22460000Y-90950000D03*
%TD*%
D15*
%TO.P,C13,1*%
%TO.N,+5V*%
X25000000Y-52632323D03*
D16*
%TO.P,C13,2*%
%TO.N,GND*%
X25000000Y-57632323D03*
%TD*%
D17*
%TO.N,+5V*%
X43750000Y-134500000D03*
%TO.N,GND*%
X54500000Y-54825000D03*
X54500000Y-58500000D03*
X54500000Y-73875000D03*
X54500000Y-77500000D03*
X54500000Y-92925000D03*
X54500000Y-96500000D03*
X54500000Y-111975000D03*
X54500000Y-115500000D03*
X54500000Y-131025000D03*
X54500000Y-134500000D03*
X35500000Y-39250000D03*
X35500000Y-58250000D03*
X35500000Y-76750000D03*
X35500000Y-96500000D03*
X35224612Y-115507835D03*
X35500000Y-134500000D03*
X35500000Y-131025000D03*
X35250000Y-112000000D03*
X35500000Y-92925000D03*
X35500000Y-73875000D03*
X35500000Y-54825000D03*
X35500000Y-35775000D03*
%TO.N,LED_DOUT*%
X48500000Y-123750000D03*
%TO.N,+5V*%
X62750000Y-39250000D03*
X62750000Y-58500000D03*
X62750000Y-77500000D03*
X62750000Y-96500000D03*
D18*
X62500000Y-117250000D03*
D17*
X63750000Y-134500000D03*
%TO.N,GND*%
X54500000Y-39250000D03*
X54500000Y-35750000D03*
%TD*%
D19*
%TO.N,+5V*%
X43750000Y-134500000D02*
X51500000Y-134500000D01*
X62750000Y-135500000D02*
X63750000Y-134500000D01*
X51500000Y-134500000D02*
X52500000Y-135500000D01*
X52500000Y-135500000D02*
X62750000Y-135500000D01*
%TO.N,GND*%
X54500000Y-131025000D02*
X54500000Y-134500000D01*
X54500000Y-111975000D02*
X54500000Y-115500000D01*
X54500000Y-92925000D02*
X54500000Y-96500000D01*
X54500000Y-73875000D02*
X54500000Y-77500000D01*
X54500000Y-54825000D02*
X54500000Y-58500000D01*
X35500000Y-131025000D02*
X35500000Y-134500000D01*
X35250000Y-112000000D02*
X35250000Y-115482447D01*
X35250000Y-115482447D02*
X35224612Y-115507835D01*
X35500000Y-92925000D02*
X35500000Y-96500000D01*
X35500000Y-73875000D02*
X35500000Y-76750000D01*
X35500000Y-54825000D02*
X35500000Y-58250000D01*
X35500000Y-35775000D02*
X35500000Y-39250000D01*
D20*
%TO.N,+5V*%
X62500000Y-117250000D02*
X63750000Y-117250000D01*
X63750000Y-117250000D02*
X64000000Y-117000000D01*
X64000000Y-117000000D02*
X64000000Y-115500000D01*
D19*
%TO.N,LED_DOUT*%
X48500000Y-123750000D02*
X41750000Y-123750000D01*
X41750000Y-123750000D02*
X39750000Y-121750000D01*
X39750000Y-121750000D02*
X39750000Y-119250000D01*
X39750000Y-119250000D02*
X37750000Y-117250000D01*
X37750000Y-117250000D02*
X25000000Y-117250000D01*
D20*
%TO.N,+5V*%
X64000000Y-40500000D02*
X64000000Y-58500000D01*
X62750000Y-58500000D02*
X64000000Y-58500000D01*
X64000000Y-58500000D02*
X64000000Y-77500000D01*
X62750000Y-77500000D02*
X64000000Y-77500000D01*
X64000000Y-77500000D02*
X64000000Y-96500000D01*
X62750000Y-96500000D02*
X64000000Y-96500000D01*
X64000000Y-96500000D02*
X64000000Y-115500000D01*
X62750000Y-39250000D02*
X64000000Y-40500000D01*
X64000000Y-134250000D02*
X63750000Y-134500000D01*
X64000000Y-115500000D02*
X64000000Y-134250000D01*
D19*
%TO.N,GND*%
X54500000Y-35750000D02*
X54500000Y-39250000D01*
D21*
%TO.N,SW51*%
X61640000Y-121220000D02*
X51970000Y-121220000D01*
X23250000Y-92700000D02*
X25000000Y-90950000D01*
X51970000Y-121220000D02*
X49750000Y-119000000D01*
X24250000Y-99750000D02*
X23250000Y-98750000D01*
X49750000Y-119000000D02*
X49750000Y-101500000D01*
X49750000Y-101500000D02*
X48000000Y-99750000D01*
X48000000Y-99750000D02*
X24250000Y-99750000D01*
X23250000Y-98750000D02*
X23250000Y-92700000D01*
%TO.N,SW50*%
X42590000Y-121220000D02*
X46780000Y-121220000D01*
X46780000Y-121220000D02*
X49000000Y-119000000D01*
X49000000Y-119000000D02*
X49000000Y-101750000D01*
X49000000Y-101750000D02*
X47750000Y-100500000D01*
X47750000Y-100500000D02*
X24000000Y-100500000D01*
X24000000Y-100500000D02*
X22460000Y-98960000D01*
X22460000Y-98960000D02*
X22460000Y-90950000D01*
%TO.N,SW41*%
X61590000Y-102170000D02*
X51420000Y-102170000D01*
X51420000Y-102170000D02*
X48250000Y-99000000D01*
X48250000Y-99000000D02*
X24500000Y-99000000D01*
X24500000Y-99000000D02*
X24000000Y-98500000D01*
X24000000Y-98500000D02*
X24000000Y-94000000D01*
X26500000Y-91500000D02*
X26500000Y-89910000D01*
X24000000Y-94000000D02*
X26500000Y-91500000D01*
X26500000Y-89910000D02*
X25000000Y-88410000D01*
%TO.N,SW40*%
X42640000Y-102170000D02*
X41720000Y-101250000D01*
X41720000Y-101250000D02*
X23750000Y-101250000D01*
X21000000Y-89870000D02*
X22460000Y-88410000D01*
X23750000Y-101250000D02*
X21750000Y-99250000D01*
X21750000Y-99250000D02*
X21750000Y-92500000D01*
X21750000Y-92500000D02*
X21000000Y-91750000D01*
X21000000Y-91750000D02*
X21000000Y-89870000D01*
%TO.N,SW31*%
X61640000Y-83120000D02*
X45130000Y-83120000D01*
X45130000Y-83120000D02*
X43500000Y-84750000D01*
X43500000Y-84750000D02*
X41750000Y-84750000D01*
X41750000Y-84750000D02*
X40000000Y-83000000D01*
X40000000Y-83000000D02*
X30000000Y-83000000D01*
X25930000Y-87070000D02*
X23660000Y-87070000D01*
X30000000Y-83000000D02*
X25930000Y-87070000D01*
X23660000Y-87070000D02*
X22460000Y-85870000D01*
%TO.N,SW30*%
X25000000Y-85870000D02*
X25880000Y-85870000D01*
X25880000Y-85870000D02*
X29500000Y-82250000D01*
X29500000Y-82250000D02*
X41720000Y-82250000D01*
X41720000Y-82250000D02*
X42590000Y-83120000D01*
%TO.N,SW21*%
X61640000Y-64070000D02*
X54430000Y-64070000D01*
X54430000Y-64070000D02*
X52000000Y-66500000D01*
X52000000Y-66500000D02*
X52000000Y-75000000D01*
X52000000Y-75000000D02*
X45500000Y-81500000D01*
X45500000Y-81500000D02*
X29000000Y-81500000D01*
X29000000Y-81500000D02*
X25970000Y-84530000D01*
X25970000Y-84530000D02*
X23660000Y-84530000D01*
X23660000Y-84530000D02*
X22460000Y-83330000D01*
%TO.N,SW11*%
X61640000Y-45020000D02*
X53730000Y-45020000D01*
X53730000Y-45020000D02*
X51250000Y-47500000D01*
X51250000Y-47500000D02*
X51250000Y-74500000D01*
X28500000Y-80750000D02*
X25920000Y-83330000D01*
X51250000Y-74500000D02*
X45000000Y-80750000D01*
X45000000Y-80750000D02*
X28500000Y-80750000D01*
X25920000Y-83330000D02*
X25000000Y-83330000D01*
%TO.N,SW20*%
X42590000Y-64070000D02*
X45820000Y-64070000D01*
X45820000Y-64070000D02*
X48250000Y-66500000D01*
X48250000Y-66500000D02*
X48250000Y-72500000D01*
X48250000Y-72500000D02*
X43000000Y-77750000D01*
X43000000Y-77750000D02*
X25500000Y-77750000D01*
X25500000Y-77750000D02*
X25000000Y-78250000D01*
%TO.N,SW01*%
X61640000Y-25970000D02*
X53030000Y-25970000D01*
X23670000Y-82000000D02*
X22460000Y-80790000D01*
X53030000Y-25970000D02*
X50500000Y-28500000D01*
X50500000Y-28500000D02*
X50500000Y-74000000D01*
X50500000Y-74000000D02*
X44500000Y-80000000D01*
X44500000Y-80000000D02*
X28000000Y-80000000D01*
X28000000Y-80000000D02*
X26000000Y-82000000D01*
X26000000Y-82000000D02*
X23670000Y-82000000D01*
%TO.N,SW00*%
X42590000Y-25970000D02*
X47220000Y-25970000D01*
X25960000Y-80790000D02*
X25000000Y-80790000D01*
X47220000Y-25970000D02*
X49750000Y-28500000D01*
X27500000Y-79250000D02*
X25960000Y-80790000D01*
X49750000Y-28500000D02*
X49750000Y-73500000D01*
X49750000Y-73500000D02*
X44000000Y-79250000D01*
X44000000Y-79250000D02*
X27500000Y-79250000D01*
%TO.N,SW10*%
X42590000Y-45020000D02*
X46270000Y-45020000D01*
X46270000Y-45020000D02*
X49000000Y-47750000D01*
X26000000Y-79500000D02*
X23710000Y-79500000D01*
X49000000Y-47750000D02*
X49000000Y-73000000D01*
X49000000Y-73000000D02*
X43500000Y-78500000D01*
X43500000Y-78500000D02*
X27000000Y-78500000D01*
X27000000Y-78500000D02*
X26000000Y-79500000D01*
X23710000Y-79500000D02*
X22460000Y-78250000D01*
%TD*%
%TA.AperFunction,Conductor*%
%TO.N,+5V*%
G36*
X78992539Y-20070185D02*
G01*
X79038294Y-20122989D01*
X79049500Y-20174500D01*
X79049500Y-137125500D01*
X79029815Y-137192539D01*
X78977011Y-137238294D01*
X78925500Y-137249500D01*
X20174500Y-137249500D01*
X20107461Y-137229815D01*
X20061706Y-137177011D01*
X20050500Y-137125500D01*
X20050500Y-132181995D01*
X23199500Y-132181995D01*
X23199500Y-132418004D01*
X23199501Y-132418020D01*
X23230306Y-132652010D01*
X23291394Y-132879993D01*
X23381714Y-133098045D01*
X23381719Y-133098056D01*
X23452677Y-133220957D01*
X23499727Y-133302450D01*
X23499729Y-133302453D01*
X23499730Y-133302454D01*
X23643406Y-133489697D01*
X23643412Y-133489704D01*
X23810295Y-133656587D01*
X23810301Y-133656592D01*
X23997550Y-133800273D01*
X24128918Y-133876118D01*
X24201943Y-133918280D01*
X24201948Y-133918282D01*
X24201951Y-133918284D01*
X24420007Y-134008606D01*
X24647986Y-134069693D01*
X24881989Y-134100500D01*
X24881996Y-134100500D01*
X25118004Y-134100500D01*
X25118011Y-134100500D01*
X25352014Y-134069693D01*
X25579993Y-134008606D01*
X25798049Y-133918284D01*
X26002450Y-133800273D01*
X26189699Y-133656592D01*
X26356592Y-133489699D01*
X26500273Y-133302450D01*
X26618284Y-133098049D01*
X26708606Y-132879993D01*
X26769693Y-132652014D01*
X26800500Y-132418011D01*
X26800500Y-132181989D01*
X26769693Y-131947986D01*
X26708606Y-131720007D01*
X26618284Y-131501951D01*
X26618282Y-131501948D01*
X26618280Y-131501943D01*
X26533908Y-131355808D01*
X26500273Y-131297550D01*
X26356592Y-131110301D01*
X26356587Y-131110295D01*
X26192445Y-130946153D01*
X34699500Y-130946153D01*
X34699500Y-134578846D01*
X34730261Y-134733489D01*
X34730264Y-134733501D01*
X34790602Y-134879172D01*
X34790609Y-134879185D01*
X34878210Y-135010288D01*
X34878213Y-135010292D01*
X34989707Y-135121786D01*
X34989711Y-135121789D01*
X35120814Y-135209390D01*
X35120827Y-135209397D01*
X35266498Y-135269735D01*
X35266503Y-135269737D01*
X35421153Y-135300499D01*
X35421156Y-135300500D01*
X35421158Y-135300500D01*
X35578844Y-135300500D01*
X35578845Y-135300499D01*
X35733497Y-135269737D01*
X35879179Y-135209394D01*
X36010289Y-135121789D01*
X36121789Y-135010289D01*
X36209394Y-134879179D01*
X36269737Y-134733497D01*
X36300500Y-134578842D01*
X36300500Y-134421158D01*
X36300500Y-130946158D01*
X36300500Y-130946155D01*
X36300499Y-130946153D01*
X36271373Y-130799730D01*
X36269737Y-130791503D01*
X36227980Y-130690692D01*
X36209397Y-130645827D01*
X36209390Y-130645814D01*
X36121789Y-130514711D01*
X36121786Y-130514707D01*
X36010292Y-130403213D01*
X36010288Y-130403210D01*
X35904492Y-130332519D01*
X35879185Y-130315609D01*
X35879172Y-130315602D01*
X35733501Y-130255264D01*
X35733489Y-130255261D01*
X35727557Y-130254081D01*
X38274500Y-130254081D01*
X38274500Y-130254082D01*
X38274500Y-133295918D01*
X38304082Y-133325500D01*
X41745918Y-133325500D01*
X41775500Y-133295918D01*
X41775500Y-130946153D01*
X53699500Y-130946153D01*
X53699500Y-134578846D01*
X53730261Y-134733489D01*
X53730264Y-134733501D01*
X53790602Y-134879172D01*
X53790609Y-134879185D01*
X53878210Y-135010288D01*
X53878213Y-135010292D01*
X53989707Y-135121786D01*
X53989711Y-135121789D01*
X54120814Y-135209390D01*
X54120827Y-135209397D01*
X54266498Y-135269735D01*
X54266503Y-135269737D01*
X54421153Y-135300499D01*
X54421156Y-135300500D01*
X54421158Y-135300500D01*
X54578844Y-135300500D01*
X54578845Y-135300499D01*
X54733497Y-135269737D01*
X54879179Y-135209394D01*
X55010289Y-135121789D01*
X55121789Y-135010289D01*
X55209394Y-134879179D01*
X55269737Y-134733497D01*
X55300500Y-134578842D01*
X55300500Y-134421158D01*
X55300500Y-130946158D01*
X55300500Y-130946155D01*
X55300499Y-130946153D01*
X55271373Y-130799730D01*
X55269737Y-130791503D01*
X55227980Y-130690692D01*
X55209397Y-130645827D01*
X55209390Y-130645814D01*
X55121789Y-130514711D01*
X55121786Y-130514707D01*
X55010292Y-130403213D01*
X55010288Y-130403210D01*
X54904492Y-130332519D01*
X54879185Y-130315609D01*
X54879172Y-130315602D01*
X54733501Y-130255264D01*
X54733489Y-130255261D01*
X54727557Y-130254081D01*
X57324500Y-130254081D01*
X57324500Y-130254082D01*
X57324500Y-133295918D01*
X57354082Y-133325500D01*
X60795918Y-133325500D01*
X60825500Y-133295918D01*
X60825500Y-132181995D01*
X72299500Y-132181995D01*
X72299500Y-132418004D01*
X72299501Y-132418020D01*
X72330306Y-132652010D01*
X72391394Y-132879993D01*
X72481714Y-133098045D01*
X72481719Y-133098056D01*
X72552677Y-133220957D01*
X72599727Y-133302450D01*
X72599729Y-133302453D01*
X72599730Y-133302454D01*
X72743406Y-133489697D01*
X72743412Y-133489704D01*
X72910295Y-133656587D01*
X72910301Y-133656592D01*
X73097550Y-133800273D01*
X73228918Y-133876118D01*
X73301943Y-133918280D01*
X73301948Y-133918282D01*
X73301951Y-133918284D01*
X73520007Y-134008606D01*
X73747986Y-134069693D01*
X73981989Y-134100500D01*
X73981996Y-134100500D01*
X74218004Y-134100500D01*
X74218011Y-134100500D01*
X74452014Y-134069693D01*
X74679993Y-134008606D01*
X74898049Y-133918284D01*
X75102450Y-133800273D01*
X75289699Y-133656592D01*
X75456592Y-133489699D01*
X75600273Y-133302450D01*
X75718284Y-133098049D01*
X75808606Y-132879993D01*
X75869693Y-132652014D01*
X75900500Y-132418011D01*
X75900500Y-132181989D01*
X75869693Y-131947986D01*
X75808606Y-131720007D01*
X75718284Y-131501951D01*
X75718282Y-131501948D01*
X75718280Y-131501943D01*
X75633908Y-131355808D01*
X75600273Y-131297550D01*
X75456592Y-131110301D01*
X75456587Y-131110295D01*
X75289704Y-130943412D01*
X75289697Y-130943406D01*
X75102454Y-130799730D01*
X75102453Y-130799729D01*
X75102450Y-130799727D01*
X75020957Y-130752677D01*
X74898056Y-130681719D01*
X74898045Y-130681714D01*
X74679993Y-130591394D01*
X74452010Y-130530306D01*
X74218020Y-130499501D01*
X74218017Y-130499500D01*
X74218011Y-130499500D01*
X73981989Y-130499500D01*
X73981983Y-130499500D01*
X73981979Y-130499501D01*
X73747989Y-130530306D01*
X73520006Y-130591394D01*
X73301954Y-130681714D01*
X73301943Y-130681719D01*
X73097545Y-130799730D01*
X72910302Y-130943406D01*
X72910295Y-130943412D01*
X72743412Y-131110295D01*
X72743406Y-131110302D01*
X72599730Y-131297545D01*
X72481719Y-131501943D01*
X72481714Y-131501954D01*
X72391394Y-131720006D01*
X72330306Y-131947989D01*
X72299501Y-132181979D01*
X72299500Y-132181995D01*
X60825500Y-132181995D01*
X60825500Y-130254082D01*
X60795918Y-130224500D01*
X57395918Y-130224500D01*
X57354082Y-130224500D01*
X57354081Y-130224500D01*
X57324500Y-130254081D01*
X54727557Y-130254081D01*
X54578845Y-130224500D01*
X54578842Y-130224500D01*
X54421158Y-130224500D01*
X54421155Y-130224500D01*
X54266510Y-130255261D01*
X54266498Y-130255264D01*
X54120827Y-130315602D01*
X54120814Y-130315609D01*
X53989711Y-130403210D01*
X53989707Y-130403213D01*
X53878213Y-130514707D01*
X53878210Y-130514711D01*
X53790609Y-130645814D01*
X53790602Y-130645827D01*
X53730264Y-130791498D01*
X53730261Y-130791510D01*
X53699500Y-130946153D01*
X41775500Y-130946153D01*
X41775500Y-130254082D01*
X41745918Y-130224500D01*
X38345918Y-130224500D01*
X38304082Y-130224500D01*
X38304081Y-130224500D01*
X38274500Y-130254081D01*
X35727557Y-130254081D01*
X35578845Y-130224500D01*
X35578842Y-130224500D01*
X35421158Y-130224500D01*
X35421155Y-130224500D01*
X35266510Y-130255261D01*
X35266498Y-130255264D01*
X35120827Y-130315602D01*
X35120814Y-130315609D01*
X34989711Y-130403210D01*
X34989707Y-130403213D01*
X34878213Y-130514707D01*
X34878210Y-130514711D01*
X34790609Y-130645814D01*
X34790602Y-130645827D01*
X34730264Y-130791498D01*
X34730261Y-130791510D01*
X34699500Y-130946153D01*
X26192445Y-130946153D01*
X26189704Y-130943412D01*
X26189697Y-130943406D01*
X26002454Y-130799730D01*
X26002453Y-130799729D01*
X26002450Y-130799727D01*
X25920957Y-130752677D01*
X25798056Y-130681719D01*
X25798045Y-130681714D01*
X25579993Y-130591394D01*
X25352010Y-130530306D01*
X25118020Y-130499501D01*
X25118017Y-130499500D01*
X25118011Y-130499500D01*
X24881989Y-130499500D01*
X24881983Y-130499500D01*
X24881979Y-130499501D01*
X24647989Y-130530306D01*
X24420006Y-130591394D01*
X24201954Y-130681714D01*
X24201943Y-130681719D01*
X23997545Y-130799730D01*
X23810302Y-130943406D01*
X23810295Y-130943412D01*
X23643412Y-131110295D01*
X23643406Y-131110302D01*
X23499730Y-131297545D01*
X23381719Y-131501943D01*
X23381714Y-131501954D01*
X23291394Y-131720006D01*
X23230306Y-131947989D01*
X23199501Y-132181979D01*
X23199500Y-132181995D01*
X20050500Y-132181995D01*
X20050500Y-123634038D01*
X34639500Y-123634038D01*
X34639500Y-123885961D01*
X34678910Y-124134785D01*
X34756760Y-124374383D01*
X34871132Y-124598848D01*
X35019201Y-124802649D01*
X35019205Y-124802654D01*
X35197345Y-124980794D01*
X35197350Y-124980798D01*
X35375117Y-125109952D01*
X35401155Y-125128870D01*
X35544184Y-125201747D01*
X35625616Y-125243239D01*
X35625618Y-125243239D01*
X35625621Y-125243241D01*
X35865215Y-125321090D01*
X36114038Y-125360500D01*
X36114039Y-125360500D01*
X36365961Y-125360500D01*
X36365962Y-125360500D01*
X36614785Y-125321090D01*
X36854379Y-125243241D01*
X37078845Y-125128870D01*
X37282656Y-124980793D01*
X37460793Y-124802656D01*
X37608870Y-124598845D01*
X37723241Y-124374379D01*
X37801090Y-124134785D01*
X37840500Y-123885962D01*
X37840500Y-123634038D01*
X37801090Y-123385215D01*
X37723241Y-123145621D01*
X37723239Y-123145618D01*
X37723239Y-123145616D01*
X37669731Y-123040602D01*
X37608870Y-122921155D01*
X37535740Y-122820500D01*
X37460798Y-122717350D01*
X37460794Y-122717345D01*
X37282654Y-122539205D01*
X37282649Y-122539201D01*
X37078848Y-122391132D01*
X37078847Y-122391131D01*
X37078845Y-122391130D01*
X37008747Y-122355413D01*
X36854383Y-122276760D01*
X36614785Y-122198910D01*
X36427880Y-122169307D01*
X36365962Y-122159500D01*
X36114038Y-122159500D01*
X36052120Y-122169307D01*
X35865214Y-122198910D01*
X35625616Y-122276760D01*
X35401151Y-122391132D01*
X35197350Y-122539201D01*
X35197345Y-122539205D01*
X35019205Y-122717345D01*
X35019201Y-122717350D01*
X34871132Y-122921151D01*
X34756760Y-123145616D01*
X34678910Y-123385214D01*
X34639500Y-123634038D01*
X20050500Y-123634038D01*
X20050500Y-107102486D01*
X37849500Y-107102486D01*
X37849500Y-107397513D01*
X37881571Y-107641113D01*
X37888007Y-107689993D01*
X37888008Y-107689995D01*
X37964361Y-107974951D01*
X37964364Y-107974961D01*
X38077254Y-108247500D01*
X38077258Y-108247510D01*
X38224761Y-108502993D01*
X38404352Y-108737040D01*
X38404358Y-108737047D01*
X38612952Y-108945641D01*
X38612959Y-108945647D01*
X38847006Y-109125238D01*
X39102489Y-109272741D01*
X39102490Y-109272741D01*
X39102493Y-109272743D01*
X39375048Y-109385639D01*
X39660007Y-109461993D01*
X39952494Y-109500500D01*
X39952501Y-109500500D01*
X40247499Y-109500500D01*
X40247506Y-109500500D01*
X40539993Y-109461993D01*
X40824952Y-109385639D01*
X41097507Y-109272743D01*
X41352994Y-109125238D01*
X41587042Y-108945646D01*
X41795646Y-108737042D01*
X41975238Y-108502994D01*
X42122743Y-108247507D01*
X42235639Y-107974952D01*
X42311993Y-107689993D01*
X42350500Y-107397506D01*
X42350500Y-107102494D01*
X42311993Y-106810007D01*
X42235639Y-106525048D01*
X42122743Y-106252493D01*
X41975238Y-105997006D01*
X41795646Y-105762958D01*
X41795641Y-105762952D01*
X41587047Y-105554358D01*
X41587040Y-105554352D01*
X41352993Y-105374761D01*
X41097510Y-105227258D01*
X41097500Y-105227254D01*
X40824961Y-105114364D01*
X40824954Y-105114362D01*
X40824952Y-105114361D01*
X40539993Y-105038007D01*
X40491113Y-105031571D01*
X40247513Y-104999500D01*
X40247506Y-104999500D01*
X39952494Y-104999500D01*
X39952486Y-104999500D01*
X39674085Y-105036153D01*
X39660007Y-105038007D01*
X39485428Y-105084785D01*
X39375048Y-105114361D01*
X39375038Y-105114364D01*
X39102499Y-105227254D01*
X39102489Y-105227258D01*
X38847006Y-105374761D01*
X38612959Y-105554352D01*
X38612952Y-105554358D01*
X38404358Y-105762952D01*
X38404352Y-105762959D01*
X38224761Y-105997006D01*
X38077258Y-106252489D01*
X38077254Y-106252499D01*
X37964364Y-106525038D01*
X37964361Y-106525048D01*
X37888008Y-106810004D01*
X37888006Y-106810015D01*
X37849500Y-107102486D01*
X20050500Y-107102486D01*
X20050500Y-104584038D01*
X34689500Y-104584038D01*
X34689500Y-104835961D01*
X34728910Y-105084785D01*
X34806760Y-105324383D01*
X34921132Y-105548848D01*
X35069201Y-105752649D01*
X35069205Y-105752654D01*
X35247345Y-105930794D01*
X35247350Y-105930798D01*
X35425117Y-106059952D01*
X35451155Y-106078870D01*
X35594184Y-106151747D01*
X35675616Y-106193239D01*
X35675618Y-106193239D01*
X35675621Y-106193241D01*
X35915215Y-106271090D01*
X36164038Y-106310500D01*
X36164039Y-106310500D01*
X36415961Y-106310500D01*
X36415962Y-106310500D01*
X36664785Y-106271090D01*
X36904379Y-106193241D01*
X37128845Y-106078870D01*
X37332656Y-105930793D01*
X37510793Y-105752656D01*
X37658870Y-105548845D01*
X37773241Y-105324379D01*
X37851090Y-105084785D01*
X37890500Y-104835962D01*
X37890500Y-104584038D01*
X37851090Y-104335215D01*
X37773241Y-104095621D01*
X37773239Y-104095618D01*
X37773239Y-104095616D01*
X37731747Y-104014184D01*
X37658870Y-103871155D01*
X37557107Y-103731090D01*
X37510798Y-103667350D01*
X37510794Y-103667345D01*
X37332654Y-103489205D01*
X37332649Y-103489201D01*
X37128848Y-103341132D01*
X37128847Y-103341131D01*
X37128845Y-103341130D01*
X37058747Y-103305413D01*
X36904383Y-103226760D01*
X36664785Y-103148910D01*
X36415962Y-103109500D01*
X36164038Y-103109500D01*
X36039626Y-103129205D01*
X35915214Y-103148910D01*
X35675616Y-103226760D01*
X35451151Y-103341132D01*
X35247350Y-103489201D01*
X35247345Y-103489205D01*
X35069205Y-103667345D01*
X35069201Y-103667350D01*
X34921132Y-103871151D01*
X34806760Y-104095616D01*
X34728910Y-104335214D01*
X34689500Y-104584038D01*
X20050500Y-104584038D01*
X20050500Y-91814071D01*
X20349499Y-91814071D01*
X20369511Y-91914669D01*
X20374499Y-91939744D01*
X20423535Y-92058127D01*
X20488439Y-92155264D01*
X20494726Y-92164673D01*
X20494727Y-92164674D01*
X21063181Y-92733126D01*
X21096666Y-92794449D01*
X21099500Y-92820807D01*
X21099500Y-99314070D01*
X21111720Y-99375500D01*
X21111720Y-99375502D01*
X21124497Y-99439736D01*
X21124499Y-99439744D01*
X21173534Y-99558125D01*
X21244726Y-99664673D01*
X21244727Y-99664674D01*
X23244724Y-101664669D01*
X23335331Y-101755276D01*
X23335332Y-101755277D01*
X23441866Y-101826461D01*
X23441872Y-101826464D01*
X23441873Y-101826465D01*
X23560256Y-101875501D01*
X23560260Y-101875501D01*
X23560261Y-101875502D01*
X23685928Y-101900500D01*
X23685931Y-101900500D01*
X40917048Y-101900500D01*
X40984087Y-101920185D01*
X41029842Y-101972989D01*
X41039352Y-102039132D01*
X41039882Y-102039174D01*
X41039696Y-102041527D01*
X41039786Y-102042147D01*
X41039523Y-102043890D01*
X41039500Y-102044035D01*
X41039500Y-102295961D01*
X41078910Y-102544785D01*
X41156760Y-102784383D01*
X41271132Y-103008848D01*
X41419201Y-103212649D01*
X41419205Y-103212654D01*
X41597345Y-103390794D01*
X41597350Y-103390798D01*
X41775117Y-103519952D01*
X41801155Y-103538870D01*
X41944184Y-103611747D01*
X42025616Y-103653239D01*
X42025618Y-103653239D01*
X42025621Y-103653241D01*
X42265215Y-103731090D01*
X42514038Y-103770500D01*
X42514039Y-103770500D01*
X42765961Y-103770500D01*
X42765962Y-103770500D01*
X43014785Y-103731090D01*
X43254379Y-103653241D01*
X43478845Y-103538870D01*
X43682656Y-103390793D01*
X43860793Y-103212656D01*
X44008870Y-103008845D01*
X44123241Y-102784379D01*
X44201090Y-102544785D01*
X44240500Y-102295962D01*
X44240500Y-102044038D01*
X44201090Y-101795215D01*
X44123241Y-101555621D01*
X44123239Y-101555618D01*
X44123239Y-101555616D01*
X44067162Y-101445560D01*
X44008870Y-101331155D01*
X44008867Y-101331151D01*
X44008686Y-101330795D01*
X43995790Y-101262126D01*
X44022066Y-101197385D01*
X44079173Y-101157128D01*
X44119171Y-101150500D01*
X47429192Y-101150500D01*
X47496231Y-101170185D01*
X47516873Y-101186819D01*
X48313181Y-101983127D01*
X48346666Y-102044450D01*
X48349500Y-102070808D01*
X48349500Y-118679192D01*
X48329815Y-118746231D01*
X48313181Y-118766873D01*
X46546873Y-120533181D01*
X46485550Y-120566666D01*
X46459192Y-120569500D01*
X44130824Y-120569500D01*
X44063785Y-120549815D01*
X44020339Y-120501795D01*
X44009093Y-120479724D01*
X43958870Y-120381155D01*
X43821899Y-120192630D01*
X43810798Y-120177350D01*
X43810794Y-120177345D01*
X43632654Y-119999205D01*
X43632649Y-119999201D01*
X43428848Y-119851132D01*
X43428847Y-119851131D01*
X43428845Y-119851130D01*
X43353098Y-119812535D01*
X43204383Y-119736760D01*
X42964785Y-119658910D01*
X42715962Y-119619500D01*
X42464038Y-119619500D01*
X42381158Y-119632627D01*
X42215214Y-119658910D01*
X41975616Y-119736760D01*
X41751151Y-119851132D01*
X41547350Y-119999201D01*
X41547345Y-119999205D01*
X41369205Y-120177345D01*
X41369201Y-120177350D01*
X41221132Y-120381151D01*
X41106760Y-120605616D01*
X41028910Y-120845214D01*
X40989500Y-121094038D01*
X40989500Y-121345962D01*
X40989499Y-121345962D01*
X41026051Y-121576741D01*
X41017096Y-121646034D01*
X40972100Y-121699486D01*
X40905348Y-121720125D01*
X40838035Y-121701400D01*
X40815897Y-121683819D01*
X40586819Y-121454741D01*
X40553334Y-121393418D01*
X40550500Y-121367060D01*
X40550500Y-119171155D01*
X40550499Y-119171153D01*
X40519737Y-119016503D01*
X40519735Y-119016498D01*
X40459397Y-118870827D01*
X40459390Y-118870814D01*
X40371790Y-118739712D01*
X40337628Y-118705550D01*
X40260289Y-118628211D01*
X39400490Y-117768412D01*
X38260292Y-116628213D01*
X38260288Y-116628210D01*
X38129185Y-116540609D01*
X38129172Y-116540602D01*
X37983501Y-116480264D01*
X37983489Y-116480261D01*
X37828845Y-116449500D01*
X37828842Y-116449500D01*
X35664279Y-116449500D01*
X35597240Y-116429815D01*
X35551485Y-116377011D01*
X35541541Y-116307853D01*
X35570566Y-116244297D01*
X35599248Y-116221395D01*
X35598726Y-116220614D01*
X35690805Y-116159088D01*
X35734901Y-116129624D01*
X35846401Y-116018124D01*
X35871789Y-115992736D01*
X35959394Y-115861626D01*
X36019737Y-115715944D01*
X36050500Y-115561289D01*
X36050500Y-115403605D01*
X36050500Y-111921158D01*
X36050500Y-111921155D01*
X36050499Y-111921153D01*
X36045527Y-111896158D01*
X36019737Y-111766503D01*
X36009380Y-111741498D01*
X35959397Y-111620827D01*
X35959390Y-111620814D01*
X35871789Y-111489711D01*
X35871786Y-111489707D01*
X35760292Y-111378213D01*
X35760288Y-111378210D01*
X35629180Y-111290606D01*
X35629177Y-111290604D01*
X35483501Y-111230264D01*
X35483489Y-111230261D01*
X35351875Y-111204081D01*
X38324500Y-111204081D01*
X38324500Y-111204082D01*
X38324500Y-114245918D01*
X38354082Y-114275500D01*
X41795918Y-114275500D01*
X41825500Y-114245918D01*
X41825500Y-111204082D01*
X41795918Y-111174500D01*
X38395918Y-111174500D01*
X38354082Y-111174500D01*
X38354081Y-111174500D01*
X38324500Y-111204081D01*
X35351875Y-111204081D01*
X35328845Y-111199500D01*
X35328842Y-111199500D01*
X35171158Y-111199500D01*
X35171155Y-111199500D01*
X35016510Y-111230261D01*
X35016498Y-111230264D01*
X34870827Y-111290602D01*
X34870814Y-111290609D01*
X34739711Y-111378210D01*
X34739707Y-111378213D01*
X34628213Y-111489707D01*
X34628210Y-111489711D01*
X34540609Y-111620814D01*
X34540602Y-111620827D01*
X34480264Y-111766498D01*
X34480261Y-111766510D01*
X34449500Y-111921153D01*
X34449500Y-115289147D01*
X34447117Y-115313339D01*
X34424112Y-115428990D01*
X34424112Y-115586681D01*
X34454873Y-115741324D01*
X34454876Y-115741336D01*
X34515214Y-115887007D01*
X34515221Y-115887020D01*
X34602821Y-116018122D01*
X34602825Y-116018127D01*
X34714319Y-116129621D01*
X34714323Y-116129624D01*
X34850498Y-116220614D01*
X34849488Y-116222125D01*
X34893240Y-116265099D01*
X34908703Y-116333236D01*
X34884875Y-116398917D01*
X34829319Y-116441288D01*
X34784945Y-116449500D01*
X26275894Y-116449500D01*
X26208855Y-116429815D01*
X26175577Y-116398387D01*
X26155104Y-116370208D01*
X26016294Y-116231398D01*
X25982809Y-116170075D01*
X25987793Y-116100383D01*
X26029665Y-116044450D01*
X26038879Y-116038178D01*
X26044331Y-116034814D01*
X26044334Y-116034814D01*
X26193656Y-115942712D01*
X26317712Y-115818656D01*
X26409814Y-115669334D01*
X26464999Y-115502797D01*
X26475500Y-115400009D01*
X26475499Y-114099992D01*
X26464999Y-113997203D01*
X26409814Y-113830666D01*
X26317712Y-113681344D01*
X26193656Y-113557288D01*
X26044334Y-113465186D01*
X25877797Y-113410001D01*
X25877795Y-113410000D01*
X25775010Y-113399500D01*
X24224998Y-113399500D01*
X24224981Y-113399501D01*
X24122203Y-113410000D01*
X24122200Y-113410001D01*
X23955668Y-113465185D01*
X23955663Y-113465187D01*
X23806342Y-113557289D01*
X23682289Y-113681342D01*
X23590187Y-113830663D01*
X23590186Y-113830666D01*
X23535001Y-113997203D01*
X23535001Y-113997204D01*
X23535000Y-113997204D01*
X23524500Y-114099983D01*
X23524500Y-115400001D01*
X23524501Y-115400018D01*
X23535000Y-115502796D01*
X23535001Y-115502799D01*
X23560201Y-115578846D01*
X23590186Y-115669334D01*
X23634594Y-115741332D01*
X23682289Y-115818657D01*
X23806344Y-115942712D01*
X23961120Y-116038178D01*
X24007845Y-116090126D01*
X24019068Y-116159088D01*
X23991224Y-116223171D01*
X23983706Y-116231398D01*
X23844889Y-116370215D01*
X23719951Y-116542179D01*
X23623444Y-116731585D01*
X23557753Y-116933760D01*
X23524500Y-117143713D01*
X23524500Y-117356286D01*
X23557753Y-117566239D01*
X23623444Y-117768414D01*
X23719951Y-117957820D01*
X23844890Y-118129786D01*
X23995209Y-118280105D01*
X23995214Y-118280109D01*
X24160218Y-118399991D01*
X24202884Y-118455320D01*
X24208863Y-118524934D01*
X24176258Y-118586729D01*
X24160218Y-118600627D01*
X23995540Y-118720272D01*
X23995535Y-118720276D01*
X23845276Y-118870535D01*
X23845272Y-118870540D01*
X23720379Y-119042442D01*
X23623904Y-119231782D01*
X23558242Y-119433870D01*
X23558242Y-119433873D01*
X23547769Y-119500000D01*
X24595854Y-119500000D01*
X24557370Y-119566657D01*
X24525000Y-119687465D01*
X24525000Y-119812535D01*
X24557370Y-119933343D01*
X24595854Y-120000000D01*
X23547769Y-120000000D01*
X23558242Y-120066126D01*
X23558242Y-120066129D01*
X23623904Y-120268217D01*
X23720379Y-120457557D01*
X23845272Y-120629459D01*
X23845276Y-120629464D01*
X23995535Y-120779723D01*
X23995540Y-120779727D01*
X24167442Y-120904620D01*
X24356782Y-121001095D01*
X24558872Y-121066757D01*
X24750000Y-121097029D01*
X24750000Y-120154145D01*
X24816657Y-120192630D01*
X24937465Y-120225000D01*
X25062535Y-120225000D01*
X25183343Y-120192630D01*
X25250000Y-120154145D01*
X25250000Y-121097028D01*
X25441127Y-121066757D01*
X25643217Y-121001095D01*
X25832557Y-120904620D01*
X26004459Y-120779727D01*
X26004464Y-120779723D01*
X26154723Y-120629464D01*
X26154727Y-120629459D01*
X26279620Y-120457557D01*
X26376095Y-120268217D01*
X26441757Y-120066129D01*
X26441757Y-120066126D01*
X26452231Y-120000000D01*
X25404146Y-120000000D01*
X25442630Y-119933343D01*
X25475000Y-119812535D01*
X25475000Y-119687465D01*
X25442630Y-119566657D01*
X25404146Y-119500000D01*
X26452231Y-119500000D01*
X26441757Y-119433873D01*
X26441757Y-119433870D01*
X26376095Y-119231782D01*
X26279620Y-119042442D01*
X26154727Y-118870540D01*
X26154723Y-118870535D01*
X26004464Y-118720276D01*
X26004459Y-118720272D01*
X25839781Y-118600627D01*
X25797115Y-118545297D01*
X25791136Y-118475684D01*
X25823741Y-118413889D01*
X25839776Y-118399994D01*
X26004792Y-118280104D01*
X26155104Y-118129792D01*
X26175577Y-118101613D01*
X26230906Y-118058949D01*
X26275894Y-118050500D01*
X37367060Y-118050500D01*
X37434099Y-118070185D01*
X37454741Y-118086819D01*
X38913181Y-119545259D01*
X38946666Y-119606582D01*
X38949500Y-119632940D01*
X38949500Y-121828846D01*
X38980261Y-121983489D01*
X38980264Y-121983501D01*
X39040602Y-122129172D01*
X39040609Y-122129185D01*
X39128210Y-122260288D01*
X39128213Y-122260292D01*
X40799242Y-123931321D01*
X40832727Y-123992644D01*
X40827743Y-124062336D01*
X40785871Y-124118269D01*
X40720407Y-124142686D01*
X40679471Y-124138777D01*
X40489993Y-124088007D01*
X40441113Y-124081571D01*
X40197513Y-124049500D01*
X40197506Y-124049500D01*
X39902494Y-124049500D01*
X39902486Y-124049500D01*
X39624085Y-124086153D01*
X39610007Y-124088007D01*
X39405941Y-124142686D01*
X39325048Y-124164361D01*
X39325038Y-124164364D01*
X39052499Y-124277254D01*
X39052489Y-124277258D01*
X38797006Y-124424761D01*
X38562959Y-124604352D01*
X38562952Y-124604358D01*
X38354358Y-124812952D01*
X38354352Y-124812959D01*
X38174761Y-125047006D01*
X38027258Y-125302489D01*
X38027254Y-125302499D01*
X37914364Y-125575038D01*
X37914361Y-125575048D01*
X37838008Y-125860004D01*
X37838006Y-125860015D01*
X37799500Y-126152486D01*
X37799500Y-126447513D01*
X37831571Y-126691113D01*
X37838007Y-126739993D01*
X37838008Y-126739995D01*
X37914361Y-127024951D01*
X37914364Y-127024961D01*
X38027254Y-127297500D01*
X38027258Y-127297510D01*
X38174761Y-127552993D01*
X38354352Y-127787040D01*
X38354358Y-127787047D01*
X38562952Y-127995641D01*
X38562959Y-127995647D01*
X38797006Y-128175238D01*
X39052489Y-128322741D01*
X39052490Y-128322741D01*
X39052493Y-128322743D01*
X39325048Y-128435639D01*
X39610007Y-128511993D01*
X39902494Y-128550500D01*
X39902501Y-128550500D01*
X40197499Y-128550500D01*
X40197506Y-128550500D01*
X40489993Y-128511993D01*
X40774952Y-128435639D01*
X41047507Y-128322743D01*
X41302994Y-128175238D01*
X41537042Y-127995646D01*
X41745646Y-127787042D01*
X41925238Y-127552994D01*
X42072743Y-127297507D01*
X42185639Y-127024952D01*
X42261993Y-126739993D01*
X42300500Y-126447506D01*
X42300500Y-126152494D01*
X42300499Y-126152486D01*
X56849500Y-126152486D01*
X56849500Y-126447513D01*
X56881571Y-126691113D01*
X56888007Y-126739993D01*
X56888008Y-126739995D01*
X56964361Y-127024951D01*
X56964364Y-127024961D01*
X57077254Y-127297500D01*
X57077258Y-127297510D01*
X57224761Y-127552993D01*
X57404352Y-127787040D01*
X57404358Y-127787047D01*
X57612952Y-127995641D01*
X57612959Y-127995647D01*
X57847006Y-128175238D01*
X58102489Y-128322741D01*
X58102490Y-128322741D01*
X58102493Y-128322743D01*
X58375048Y-128435639D01*
X58660007Y-128511993D01*
X58952494Y-128550500D01*
X58952501Y-128550500D01*
X59247499Y-128550500D01*
X59247506Y-128550500D01*
X59539993Y-128511993D01*
X59824952Y-128435639D01*
X60097507Y-128322743D01*
X60352994Y-128175238D01*
X60587042Y-127995646D01*
X60795646Y-127787042D01*
X60975238Y-127552994D01*
X61122743Y-127297507D01*
X61235639Y-127024952D01*
X61311993Y-126739993D01*
X61350500Y-126447506D01*
X61350500Y-126152494D01*
X61311993Y-125860007D01*
X61235639Y-125575048D01*
X61122743Y-125302493D01*
X60975238Y-125047006D01*
X60795646Y-124812958D01*
X60795641Y-124812952D01*
X60587047Y-124604358D01*
X60587040Y-124604352D01*
X60352993Y-124424761D01*
X60097510Y-124277258D01*
X60097500Y-124277254D01*
X59824961Y-124164364D01*
X59824954Y-124164362D01*
X59824952Y-124164361D01*
X59539993Y-124088007D01*
X59491113Y-124081571D01*
X59247513Y-124049500D01*
X59247506Y-124049500D01*
X58952494Y-124049500D01*
X58952486Y-124049500D01*
X58674085Y-124086153D01*
X58660007Y-124088007D01*
X58455941Y-124142686D01*
X58375048Y-124164361D01*
X58375038Y-124164364D01*
X58102499Y-124277254D01*
X58102489Y-124277258D01*
X57847006Y-124424761D01*
X57612959Y-124604352D01*
X57612952Y-124604358D01*
X57404358Y-124812952D01*
X57404352Y-124812959D01*
X57224761Y-125047006D01*
X57077258Y-125302489D01*
X57077254Y-125302499D01*
X56964364Y-125575038D01*
X56964361Y-125575048D01*
X56888008Y-125860004D01*
X56888006Y-125860015D01*
X56849500Y-126152486D01*
X42300499Y-126152486D01*
X42261993Y-125860007D01*
X42185639Y-125575048D01*
X42072743Y-125302493D01*
X41925238Y-125047006D01*
X41745646Y-124812958D01*
X41745641Y-124812952D01*
X41694870Y-124762181D01*
X41661385Y-124700858D01*
X41666369Y-124631166D01*
X41708241Y-124575233D01*
X41773705Y-124550816D01*
X41782551Y-124550500D01*
X48578844Y-124550500D01*
X48578845Y-124550499D01*
X48733497Y-124519737D01*
X48879179Y-124459394D01*
X49010289Y-124371789D01*
X49121789Y-124260289D01*
X49209394Y-124129179D01*
X49269737Y-123983497D01*
X49300500Y-123828842D01*
X49300500Y-123671158D01*
X49293116Y-123634038D01*
X53689500Y-123634038D01*
X53689500Y-123885961D01*
X53728910Y-124134785D01*
X53806760Y-124374383D01*
X53921132Y-124598848D01*
X54069201Y-124802649D01*
X54069205Y-124802654D01*
X54247345Y-124980794D01*
X54247350Y-124980798D01*
X54425117Y-125109952D01*
X54451155Y-125128870D01*
X54594184Y-125201747D01*
X54675616Y-125243239D01*
X54675618Y-125243239D01*
X54675621Y-125243241D01*
X54915215Y-125321090D01*
X55164038Y-125360500D01*
X55164039Y-125360500D01*
X55415961Y-125360500D01*
X55415962Y-125360500D01*
X55664785Y-125321090D01*
X55904379Y-125243241D01*
X56128845Y-125128870D01*
X56332656Y-124980793D01*
X56510793Y-124802656D01*
X56658870Y-124598845D01*
X56773241Y-124374379D01*
X56851090Y-124134785D01*
X56890500Y-123885962D01*
X56890500Y-123634038D01*
X56851090Y-123385215D01*
X56773241Y-123145621D01*
X56773239Y-123145618D01*
X56773239Y-123145616D01*
X56719731Y-123040602D01*
X56658870Y-122921155D01*
X56585740Y-122820500D01*
X56510798Y-122717350D01*
X56510794Y-122717345D01*
X56332654Y-122539205D01*
X56332649Y-122539201D01*
X56128848Y-122391132D01*
X56128847Y-122391131D01*
X56128845Y-122391130D01*
X56058747Y-122355413D01*
X55904383Y-122276760D01*
X55664785Y-122198910D01*
X55477880Y-122169307D01*
X55415962Y-122159500D01*
X55164038Y-122159500D01*
X55102120Y-122169307D01*
X54915214Y-122198910D01*
X54675616Y-122276760D01*
X54451151Y-122391132D01*
X54247350Y-122539201D01*
X54247345Y-122539205D01*
X54069205Y-122717345D01*
X54069201Y-122717350D01*
X53921132Y-122921151D01*
X53806760Y-123145616D01*
X53728910Y-123385214D01*
X53689500Y-123634038D01*
X49293116Y-123634038D01*
X49269738Y-123516508D01*
X49269737Y-123516507D01*
X49269737Y-123516503D01*
X49269735Y-123516498D01*
X49209397Y-123370827D01*
X49209390Y-123370814D01*
X49121789Y-123239711D01*
X49121786Y-123239707D01*
X49010292Y-123128213D01*
X49010288Y-123128210D01*
X48879185Y-123040609D01*
X48879172Y-123040602D01*
X48733501Y-122980264D01*
X48733489Y-122980261D01*
X48578845Y-122949500D01*
X48578842Y-122949500D01*
X43229376Y-122949500D01*
X43162337Y-122929815D01*
X43116582Y-122877011D01*
X43106638Y-122807853D01*
X43135663Y-122744297D01*
X43191055Y-122707570D01*
X43204379Y-122703241D01*
X43428845Y-122588870D01*
X43632656Y-122440793D01*
X43810793Y-122262656D01*
X43958870Y-122058845D01*
X44020339Y-121938205D01*
X44068314Y-121887409D01*
X44130824Y-121870500D01*
X46844071Y-121870500D01*
X46928615Y-121853682D01*
X46969744Y-121845501D01*
X47088127Y-121796465D01*
X47194669Y-121725277D01*
X49287319Y-119632627D01*
X49348642Y-119599142D01*
X49418334Y-119604126D01*
X49462681Y-119632627D01*
X51555325Y-121725272D01*
X51555326Y-121725273D01*
X51555329Y-121725275D01*
X51555331Y-121725277D01*
X51661873Y-121796465D01*
X51780256Y-121845501D01*
X51780260Y-121845501D01*
X51780261Y-121845502D01*
X51905928Y-121870500D01*
X51905931Y-121870500D01*
X60099176Y-121870500D01*
X60166215Y-121890185D01*
X60209661Y-121938205D01*
X60271132Y-122058848D01*
X60419201Y-122262649D01*
X60419205Y-122262654D01*
X60597345Y-122440794D01*
X60597350Y-122440798D01*
X60775117Y-122569952D01*
X60801155Y-122588870D01*
X60944184Y-122661747D01*
X61025616Y-122703239D01*
X61025618Y-122703239D01*
X61025621Y-122703241D01*
X61265215Y-122781090D01*
X61514038Y-122820500D01*
X61514039Y-122820500D01*
X61765961Y-122820500D01*
X61765962Y-122820500D01*
X62014785Y-122781090D01*
X62254379Y-122703241D01*
X62478845Y-122588870D01*
X62682656Y-122440793D01*
X62860793Y-122262656D01*
X63008870Y-122058845D01*
X63123241Y-121834379D01*
X63201090Y-121594785D01*
X63240500Y-121345962D01*
X63240500Y-121094038D01*
X63201090Y-120845215D01*
X63123241Y-120605621D01*
X63123239Y-120605618D01*
X63123239Y-120605616D01*
X63070339Y-120501795D01*
X63008870Y-120381155D01*
X62871899Y-120192630D01*
X62860798Y-120177350D01*
X62860794Y-120177345D01*
X62682654Y-119999205D01*
X62682649Y-119999201D01*
X62478848Y-119851132D01*
X62478847Y-119851131D01*
X62478845Y-119851130D01*
X62403098Y-119812535D01*
X62254383Y-119736760D01*
X62014785Y-119658910D01*
X61765962Y-119619500D01*
X61514038Y-119619500D01*
X61431158Y-119632627D01*
X61265214Y-119658910D01*
X61025616Y-119736760D01*
X60801151Y-119851132D01*
X60597350Y-119999201D01*
X60597345Y-119999205D01*
X60419205Y-120177345D01*
X60419201Y-120177350D01*
X60271132Y-120381151D01*
X60209661Y-120501795D01*
X60161686Y-120552591D01*
X60099176Y-120569500D01*
X52290808Y-120569500D01*
X52223769Y-120549815D01*
X52203127Y-120533181D01*
X50436819Y-118766873D01*
X50403334Y-118705550D01*
X50400500Y-118679192D01*
X50400500Y-111896153D01*
X53699500Y-111896153D01*
X53699500Y-115578846D01*
X53730261Y-115733489D01*
X53730264Y-115733501D01*
X53790602Y-115879172D01*
X53790609Y-115879185D01*
X53878210Y-116010288D01*
X53878213Y-116010292D01*
X53989707Y-116121786D01*
X53989711Y-116121789D01*
X54120814Y-116209390D01*
X54120827Y-116209397D01*
X54255306Y-116265099D01*
X54266503Y-116269737D01*
X54421153Y-116300499D01*
X54421156Y-116300500D01*
X54421158Y-116300500D01*
X54578844Y-116300500D01*
X54578845Y-116300499D01*
X54733497Y-116269737D01*
X54853825Y-116219896D01*
X54879172Y-116209397D01*
X54879172Y-116209396D01*
X54879179Y-116209394D01*
X55010289Y-116121789D01*
X55121789Y-116010289D01*
X55209394Y-115879179D01*
X55269737Y-115733497D01*
X55300500Y-115578842D01*
X55300500Y-115421158D01*
X55300500Y-111896158D01*
X55300500Y-111896155D01*
X55300499Y-111896153D01*
X55269738Y-111741510D01*
X55269737Y-111741503D01*
X55219752Y-111620827D01*
X55209397Y-111595827D01*
X55209390Y-111595814D01*
X55121789Y-111464711D01*
X55121786Y-111464707D01*
X55010292Y-111353213D01*
X55010288Y-111353210D01*
X54904492Y-111282519D01*
X54879185Y-111265609D01*
X54879172Y-111265602D01*
X54733501Y-111205264D01*
X54733489Y-111205261D01*
X54727557Y-111204081D01*
X57274500Y-111204081D01*
X57274500Y-111204082D01*
X57274500Y-114245918D01*
X57304082Y-114275500D01*
X60745918Y-114275500D01*
X60775500Y-114245918D01*
X60775500Y-111204082D01*
X60745918Y-111174500D01*
X57345918Y-111174500D01*
X57304082Y-111174500D01*
X57304081Y-111174500D01*
X57274500Y-111204081D01*
X54727557Y-111204081D01*
X54578845Y-111174500D01*
X54578842Y-111174500D01*
X54421158Y-111174500D01*
X54421155Y-111174500D01*
X54266510Y-111205261D01*
X54266498Y-111205264D01*
X54120827Y-111265602D01*
X54120814Y-111265609D01*
X53989711Y-111353210D01*
X53989707Y-111353213D01*
X53878213Y-111464707D01*
X53878210Y-111464711D01*
X53790609Y-111595814D01*
X53790602Y-111595827D01*
X53730264Y-111741498D01*
X53730261Y-111741510D01*
X53699500Y-111896153D01*
X50400500Y-111896153D01*
X50400500Y-107102486D01*
X56799500Y-107102486D01*
X56799500Y-107397513D01*
X56831571Y-107641113D01*
X56838007Y-107689993D01*
X56838008Y-107689995D01*
X56914361Y-107974951D01*
X56914364Y-107974961D01*
X57027254Y-108247500D01*
X57027258Y-108247510D01*
X57174761Y-108502993D01*
X57354352Y-108737040D01*
X57354358Y-108737047D01*
X57562952Y-108945641D01*
X57562959Y-108945647D01*
X57797006Y-109125238D01*
X58052489Y-109272741D01*
X58052490Y-109272741D01*
X58052493Y-109272743D01*
X58325048Y-109385639D01*
X58610007Y-109461993D01*
X58902494Y-109500500D01*
X58902501Y-109500500D01*
X59197499Y-109500500D01*
X59197506Y-109500500D01*
X59489993Y-109461993D01*
X59774952Y-109385639D01*
X60047507Y-109272743D01*
X60302994Y-109125238D01*
X60537042Y-108945646D01*
X60745646Y-108737042D01*
X60925238Y-108502994D01*
X61072743Y-108247507D01*
X61185639Y-107974952D01*
X61261993Y-107689993D01*
X61300500Y-107397506D01*
X61300500Y-107102494D01*
X61261993Y-106810007D01*
X61185639Y-106525048D01*
X61072743Y-106252493D01*
X60925238Y-105997006D01*
X60745646Y-105762958D01*
X60745641Y-105762952D01*
X60537047Y-105554358D01*
X60537040Y-105554352D01*
X60302993Y-105374761D01*
X60047510Y-105227258D01*
X60047500Y-105227254D01*
X59774961Y-105114364D01*
X59774954Y-105114362D01*
X59774952Y-105114361D01*
X59489993Y-105038007D01*
X59441113Y-105031571D01*
X59197513Y-104999500D01*
X59197506Y-104999500D01*
X58902494Y-104999500D01*
X58902486Y-104999500D01*
X58624085Y-105036153D01*
X58610007Y-105038007D01*
X58435428Y-105084785D01*
X58325048Y-105114361D01*
X58325038Y-105114364D01*
X58052499Y-105227254D01*
X58052489Y-105227258D01*
X57797006Y-105374761D01*
X57562959Y-105554352D01*
X57562952Y-105554358D01*
X57354358Y-105762952D01*
X57354352Y-105762959D01*
X57174761Y-105997006D01*
X57027258Y-106252489D01*
X57027254Y-106252499D01*
X56914364Y-106525038D01*
X56914361Y-106525048D01*
X56838008Y-106810004D01*
X56838006Y-106810015D01*
X56799500Y-107102486D01*
X50400500Y-107102486D01*
X50400500Y-104584038D01*
X53639500Y-104584038D01*
X53639500Y-104835961D01*
X53678910Y-105084785D01*
X53756760Y-105324383D01*
X53871132Y-105548848D01*
X54019201Y-105752649D01*
X54019205Y-105752654D01*
X54197345Y-105930794D01*
X54197350Y-105930798D01*
X54375117Y-106059952D01*
X54401155Y-106078870D01*
X54544184Y-106151747D01*
X54625616Y-106193239D01*
X54625618Y-106193239D01*
X54625621Y-106193241D01*
X54865215Y-106271090D01*
X55114038Y-106310500D01*
X55114039Y-106310500D01*
X55365961Y-106310500D01*
X55365962Y-106310500D01*
X55614785Y-106271090D01*
X55854379Y-106193241D01*
X56078845Y-106078870D01*
X56282656Y-105930793D01*
X56460793Y-105752656D01*
X56608870Y-105548845D01*
X56723241Y-105324379D01*
X56801090Y-105084785D01*
X56840500Y-104835962D01*
X56840500Y-104584038D01*
X56801090Y-104335215D01*
X56723241Y-104095621D01*
X56723239Y-104095618D01*
X56723239Y-104095616D01*
X56681747Y-104014184D01*
X56608870Y-103871155D01*
X56507107Y-103731090D01*
X56460798Y-103667350D01*
X56460794Y-103667345D01*
X56282654Y-103489205D01*
X56282649Y-103489201D01*
X56078848Y-103341132D01*
X56078847Y-103341131D01*
X56078845Y-103341130D01*
X56008747Y-103305413D01*
X55854383Y-103226760D01*
X55614785Y-103148910D01*
X55365962Y-103109500D01*
X55114038Y-103109500D01*
X54989626Y-103129205D01*
X54865214Y-103148910D01*
X54625616Y-103226760D01*
X54401151Y-103341132D01*
X54197350Y-103489201D01*
X54197345Y-103489205D01*
X54019205Y-103667345D01*
X54019201Y-103667350D01*
X53871132Y-103871151D01*
X53756760Y-104095616D01*
X53678910Y-104335214D01*
X53639500Y-104584038D01*
X50400500Y-104584038D01*
X50400500Y-102369808D01*
X50420185Y-102302769D01*
X50472989Y-102257014D01*
X50542147Y-102247070D01*
X50605703Y-102276095D01*
X50612181Y-102282127D01*
X51005325Y-102675272D01*
X51005326Y-102675273D01*
X51005329Y-102675275D01*
X51005331Y-102675277D01*
X51111873Y-102746465D01*
X51230256Y-102795501D01*
X51230260Y-102795501D01*
X51230261Y-102795502D01*
X51355928Y-102820500D01*
X51355931Y-102820500D01*
X60049176Y-102820500D01*
X60116215Y-102840185D01*
X60159661Y-102888205D01*
X60221132Y-103008848D01*
X60369201Y-103212649D01*
X60369205Y-103212654D01*
X60547345Y-103390794D01*
X60547350Y-103390798D01*
X60725117Y-103519952D01*
X60751155Y-103538870D01*
X60894184Y-103611747D01*
X60975616Y-103653239D01*
X60975618Y-103653239D01*
X60975621Y-103653241D01*
X61215215Y-103731090D01*
X61464038Y-103770500D01*
X61464039Y-103770500D01*
X61715961Y-103770500D01*
X61715962Y-103770500D01*
X61964785Y-103731090D01*
X62204379Y-103653241D01*
X62428845Y-103538870D01*
X62632656Y-103390793D01*
X62810793Y-103212656D01*
X62958870Y-103008845D01*
X63073241Y-102784379D01*
X63151090Y-102544785D01*
X63190500Y-102295962D01*
X63190500Y-102044038D01*
X63151090Y-101795215D01*
X63073241Y-101555621D01*
X63073239Y-101555618D01*
X63073239Y-101555616D01*
X63020339Y-101451795D01*
X62958870Y-101331155D01*
X62841919Y-101170185D01*
X62810798Y-101127350D01*
X62810794Y-101127345D01*
X62632654Y-100949205D01*
X62632649Y-100949201D01*
X62428848Y-100801132D01*
X62428847Y-100801131D01*
X62428845Y-100801130D01*
X62358747Y-100765413D01*
X62204383Y-100686760D01*
X61964785Y-100608910D01*
X61715962Y-100569500D01*
X61464038Y-100569500D01*
X61339626Y-100589205D01*
X61215214Y-100608910D01*
X60975616Y-100686760D01*
X60751151Y-100801132D01*
X60547350Y-100949201D01*
X60547345Y-100949205D01*
X60369205Y-101127345D01*
X60369201Y-101127350D01*
X60221132Y-101331151D01*
X60159661Y-101451795D01*
X60111686Y-101502591D01*
X60049176Y-101519500D01*
X51740808Y-101519500D01*
X51673769Y-101499815D01*
X51653127Y-101483181D01*
X48664674Y-98494727D01*
X48664673Y-98494726D01*
X48664669Y-98494723D01*
X48558127Y-98423535D01*
X48439744Y-98374499D01*
X48439738Y-98374497D01*
X48314071Y-98349500D01*
X48314069Y-98349500D01*
X24820808Y-98349500D01*
X24791367Y-98340855D01*
X24761381Y-98334332D01*
X24756365Y-98330577D01*
X24753769Y-98329815D01*
X24733127Y-98313181D01*
X24686819Y-98266873D01*
X24653334Y-98205550D01*
X24650500Y-98179192D01*
X24650500Y-94320808D01*
X24670185Y-94253769D01*
X24686819Y-94233127D01*
X26073794Y-92846153D01*
X34699500Y-92846153D01*
X34699500Y-96578846D01*
X34730261Y-96733489D01*
X34730264Y-96733501D01*
X34790602Y-96879172D01*
X34790609Y-96879185D01*
X34878210Y-97010288D01*
X34878213Y-97010292D01*
X34989707Y-97121786D01*
X34989711Y-97121789D01*
X35120814Y-97209390D01*
X35120827Y-97209397D01*
X35266498Y-97269735D01*
X35266503Y-97269737D01*
X35421153Y-97300499D01*
X35421156Y-97300500D01*
X35421158Y-97300500D01*
X35578844Y-97300500D01*
X35578845Y-97300499D01*
X35733497Y-97269737D01*
X35879179Y-97209394D01*
X36010289Y-97121789D01*
X36121789Y-97010289D01*
X36209394Y-96879179D01*
X36269737Y-96733497D01*
X36300500Y-96578842D01*
X36300500Y-96421158D01*
X36300500Y-92846158D01*
X36300500Y-92846155D01*
X36300499Y-92846153D01*
X36269738Y-92691510D01*
X36269737Y-92691503D01*
X36269735Y-92691498D01*
X36209397Y-92545827D01*
X36209390Y-92545814D01*
X36121789Y-92414711D01*
X36121786Y-92414707D01*
X36010292Y-92303213D01*
X36010288Y-92303210D01*
X35904492Y-92232519D01*
X35879185Y-92215609D01*
X35879172Y-92215602D01*
X35733501Y-92155264D01*
X35733489Y-92155261D01*
X35727557Y-92154081D01*
X38274500Y-92154081D01*
X38274500Y-92154082D01*
X38274500Y-95195918D01*
X38304082Y-95225500D01*
X41745918Y-95225500D01*
X41775500Y-95195918D01*
X41775500Y-92846153D01*
X53699500Y-92846153D01*
X53699500Y-96578846D01*
X53730261Y-96733489D01*
X53730264Y-96733501D01*
X53790602Y-96879172D01*
X53790609Y-96879185D01*
X53878210Y-97010288D01*
X53878213Y-97010292D01*
X53989707Y-97121786D01*
X53989711Y-97121789D01*
X54120814Y-97209390D01*
X54120827Y-97209397D01*
X54266498Y-97269735D01*
X54266503Y-97269737D01*
X54421153Y-97300499D01*
X54421156Y-97300500D01*
X54421158Y-97300500D01*
X54578844Y-97300500D01*
X54578845Y-97300499D01*
X54733497Y-97269737D01*
X54879179Y-97209394D01*
X55010289Y-97121789D01*
X55121789Y-97010289D01*
X55209394Y-96879179D01*
X55269737Y-96733497D01*
X55300500Y-96578842D01*
X55300500Y-96421158D01*
X55300500Y-92846158D01*
X55300500Y-92846155D01*
X55300499Y-92846153D01*
X55269738Y-92691510D01*
X55269737Y-92691503D01*
X55269735Y-92691498D01*
X55209397Y-92545827D01*
X55209390Y-92545814D01*
X55121789Y-92414711D01*
X55121786Y-92414707D01*
X55010292Y-92303213D01*
X55010288Y-92303210D01*
X54904492Y-92232519D01*
X54879185Y-92215609D01*
X54879172Y-92215602D01*
X54733501Y-92155264D01*
X54733489Y-92155261D01*
X54727557Y-92154081D01*
X57324500Y-92154081D01*
X57324500Y-92154082D01*
X57324500Y-95195918D01*
X57354082Y-95225500D01*
X60795918Y-95225500D01*
X60825500Y-95195918D01*
X60825500Y-92154082D01*
X60795918Y-92124500D01*
X57395918Y-92124500D01*
X57354082Y-92124500D01*
X57354081Y-92124500D01*
X57324500Y-92154081D01*
X54727557Y-92154081D01*
X54578845Y-92124500D01*
X54578842Y-92124500D01*
X54421158Y-92124500D01*
X54421155Y-92124500D01*
X54266510Y-92155261D01*
X54266498Y-92155264D01*
X54120827Y-92215602D01*
X54120814Y-92215609D01*
X53989711Y-92303210D01*
X53989707Y-92303213D01*
X53878213Y-92414707D01*
X53878210Y-92414711D01*
X53790609Y-92545814D01*
X53790602Y-92545827D01*
X53730264Y-92691498D01*
X53730261Y-92691510D01*
X53699500Y-92846153D01*
X41775500Y-92846153D01*
X41775500Y-92154082D01*
X41745918Y-92124500D01*
X38345918Y-92124500D01*
X38304082Y-92124500D01*
X38304081Y-92124500D01*
X38274500Y-92154081D01*
X35727557Y-92154081D01*
X35578845Y-92124500D01*
X35578842Y-92124500D01*
X35421158Y-92124500D01*
X35421155Y-92124500D01*
X35266510Y-92155261D01*
X35266498Y-92155264D01*
X35120827Y-92215602D01*
X35120814Y-92215609D01*
X34989711Y-92303210D01*
X34989707Y-92303213D01*
X34878213Y-92414707D01*
X34878210Y-92414711D01*
X34790609Y-92545814D01*
X34790602Y-92545827D01*
X34730264Y-92691498D01*
X34730261Y-92691510D01*
X34699500Y-92846153D01*
X26073794Y-92846153D01*
X26167562Y-92752385D01*
X27005272Y-91914674D01*
X27005275Y-91914671D01*
X27005277Y-91914669D01*
X27076465Y-91808127D01*
X27125501Y-91689744D01*
X27131852Y-91657816D01*
X27150500Y-91564069D01*
X27150500Y-89845931D01*
X27150500Y-89845928D01*
X27125502Y-89720261D01*
X27125501Y-89720260D01*
X27125501Y-89720256D01*
X27076465Y-89601873D01*
X27076464Y-89601871D01*
X27076463Y-89601869D01*
X27074878Y-89599498D01*
X27074870Y-89599487D01*
X27005276Y-89495330D01*
X27005274Y-89495328D01*
X27005272Y-89495325D01*
X27005271Y-89495324D01*
X26350657Y-88840711D01*
X26317172Y-88779388D01*
X26317689Y-88731245D01*
X26316484Y-88731055D01*
X26350500Y-88516286D01*
X26350500Y-88303713D01*
X26317246Y-88093759D01*
X26317245Y-88093755D01*
X26314970Y-88086752D01*
X26303836Y-88052486D01*
X37799500Y-88052486D01*
X37799500Y-88347513D01*
X37831571Y-88591113D01*
X37838007Y-88639993D01*
X37891789Y-88840710D01*
X37914361Y-88924951D01*
X37914364Y-88924961D01*
X38027254Y-89197500D01*
X38027258Y-89197510D01*
X38174761Y-89452993D01*
X38354352Y-89687040D01*
X38354356Y-89687045D01*
X38562952Y-89895641D01*
X38562959Y-89895647D01*
X38797006Y-90075238D01*
X39052489Y-90222741D01*
X39052490Y-90222741D01*
X39052493Y-90222743D01*
X39325048Y-90335639D01*
X39610007Y-90411993D01*
X39902494Y-90450500D01*
X39902501Y-90450500D01*
X40197499Y-90450500D01*
X40197506Y-90450500D01*
X40489993Y-90411993D01*
X40774952Y-90335639D01*
X41047507Y-90222743D01*
X41302994Y-90075238D01*
X41537042Y-89895646D01*
X41637739Y-89794949D01*
X41745644Y-89687045D01*
X41745646Y-89687042D01*
X41925238Y-89452994D01*
X42072743Y-89197507D01*
X42185639Y-88924952D01*
X42261993Y-88639993D01*
X42300500Y-88347506D01*
X42300500Y-88052494D01*
X42300499Y-88052486D01*
X56849500Y-88052486D01*
X56849500Y-88347513D01*
X56881571Y-88591113D01*
X56888007Y-88639993D01*
X56941789Y-88840710D01*
X56964361Y-88924951D01*
X56964364Y-88924961D01*
X57077254Y-89197500D01*
X57077258Y-89197510D01*
X57224761Y-89452993D01*
X57404352Y-89687040D01*
X57404356Y-89687045D01*
X57612952Y-89895641D01*
X57612959Y-89895647D01*
X57847006Y-90075238D01*
X58102489Y-90222741D01*
X58102490Y-90222741D01*
X58102493Y-90222743D01*
X58375048Y-90335639D01*
X58660007Y-90411993D01*
X58952494Y-90450500D01*
X58952501Y-90450500D01*
X59247499Y-90450500D01*
X59247506Y-90450500D01*
X59539993Y-90411993D01*
X59824952Y-90335639D01*
X60097507Y-90222743D01*
X60352994Y-90075238D01*
X60587042Y-89895646D01*
X60687739Y-89794949D01*
X60795644Y-89687045D01*
X60795646Y-89687042D01*
X60975238Y-89452994D01*
X61122743Y-89197507D01*
X61235639Y-88924952D01*
X61311993Y-88639993D01*
X61350500Y-88347506D01*
X61350500Y-88052494D01*
X61311993Y-87760007D01*
X61235639Y-87475048D01*
X61122743Y-87202493D01*
X60975238Y-86947006D01*
X60795646Y-86712958D01*
X60795641Y-86712952D01*
X60587047Y-86504358D01*
X60587040Y-86504352D01*
X60352993Y-86324761D01*
X60097510Y-86177258D01*
X60097500Y-86177254D01*
X59824961Y-86064364D01*
X59824954Y-86064362D01*
X59824952Y-86064361D01*
X59539993Y-85988007D01*
X59491113Y-85981571D01*
X59247513Y-85949500D01*
X59247506Y-85949500D01*
X58952494Y-85949500D01*
X58952486Y-85949500D01*
X58674085Y-85986153D01*
X58660007Y-85988007D01*
X58485428Y-86034785D01*
X58375048Y-86064361D01*
X58375038Y-86064364D01*
X58102499Y-86177254D01*
X58102489Y-86177258D01*
X57847006Y-86324761D01*
X57612959Y-86504352D01*
X57612952Y-86504358D01*
X57404358Y-86712952D01*
X57404352Y-86712959D01*
X57224761Y-86947006D01*
X57077258Y-87202489D01*
X57077254Y-87202499D01*
X56964364Y-87475038D01*
X56964361Y-87475048D01*
X56912983Y-87666797D01*
X56888008Y-87760004D01*
X56888006Y-87760015D01*
X56849500Y-88052486D01*
X42300499Y-88052486D01*
X42261993Y-87760007D01*
X42185639Y-87475048D01*
X42072743Y-87202493D01*
X41925238Y-86947006D01*
X41745646Y-86712958D01*
X41745641Y-86712952D01*
X41537047Y-86504358D01*
X41537040Y-86504352D01*
X41302993Y-86324761D01*
X41047510Y-86177258D01*
X41047500Y-86177254D01*
X40774961Y-86064364D01*
X40774954Y-86064362D01*
X40774952Y-86064361D01*
X40489993Y-85988007D01*
X40441113Y-85981571D01*
X40197513Y-85949500D01*
X40197506Y-85949500D01*
X39902494Y-85949500D01*
X39902486Y-85949500D01*
X39624085Y-85986153D01*
X39610007Y-85988007D01*
X39435428Y-86034785D01*
X39325048Y-86064361D01*
X39325038Y-86064364D01*
X39052499Y-86177254D01*
X39052489Y-86177258D01*
X38797006Y-86324761D01*
X38562959Y-86504352D01*
X38562952Y-86504358D01*
X38354358Y-86712952D01*
X38354352Y-86712959D01*
X38174761Y-86947006D01*
X38027258Y-87202489D01*
X38027254Y-87202499D01*
X37914364Y-87475038D01*
X37914361Y-87475048D01*
X37862983Y-87666797D01*
X37838008Y-87760004D01*
X37838006Y-87760015D01*
X37799500Y-88052486D01*
X26303836Y-88052486D01*
X26251557Y-87891588D01*
X26204995Y-87800206D01*
X26192100Y-87731538D01*
X26218376Y-87666797D01*
X26246591Y-87640809D01*
X26258487Y-87632861D01*
X26344669Y-87575277D01*
X28156233Y-85763713D01*
X28385908Y-85534038D01*
X34639500Y-85534038D01*
X34639500Y-85785961D01*
X34678910Y-86034785D01*
X34756760Y-86274383D01*
X34871132Y-86498848D01*
X35019201Y-86702649D01*
X35019205Y-86702654D01*
X35197345Y-86880794D01*
X35197350Y-86880798D01*
X35375117Y-87009952D01*
X35401155Y-87028870D01*
X35544184Y-87101747D01*
X35625616Y-87143239D01*
X35625618Y-87143239D01*
X35625621Y-87143241D01*
X35865215Y-87221090D01*
X36114038Y-87260500D01*
X36114039Y-87260500D01*
X36365961Y-87260500D01*
X36365962Y-87260500D01*
X36614785Y-87221090D01*
X36854379Y-87143241D01*
X37078845Y-87028870D01*
X37282656Y-86880793D01*
X37460793Y-86702656D01*
X37608870Y-86498845D01*
X37723241Y-86274379D01*
X37801090Y-86034785D01*
X37840500Y-85785962D01*
X37840500Y-85534038D01*
X53689500Y-85534038D01*
X53689500Y-85785961D01*
X53728910Y-86034785D01*
X53806760Y-86274383D01*
X53921132Y-86498848D01*
X54069201Y-86702649D01*
X54069205Y-86702654D01*
X54247345Y-86880794D01*
X54247350Y-86880798D01*
X54425117Y-87009952D01*
X54451155Y-87028870D01*
X54594184Y-87101747D01*
X54675616Y-87143239D01*
X54675618Y-87143239D01*
X54675621Y-87143241D01*
X54915215Y-87221090D01*
X55164038Y-87260500D01*
X55164039Y-87260500D01*
X55415961Y-87260500D01*
X55415962Y-87260500D01*
X55664785Y-87221090D01*
X55904379Y-87143241D01*
X56128845Y-87028870D01*
X56332656Y-86880793D01*
X56510793Y-86702656D01*
X56658870Y-86498845D01*
X56773241Y-86274379D01*
X56851090Y-86034785D01*
X56890500Y-85785962D01*
X56890500Y-85534038D01*
X56851090Y-85285215D01*
X56773241Y-85045621D01*
X56773239Y-85045618D01*
X56773239Y-85045616D01*
X56731747Y-84964184D01*
X56658870Y-84821155D01*
X56557107Y-84681090D01*
X56510798Y-84617350D01*
X56510794Y-84617345D01*
X56332654Y-84439205D01*
X56332649Y-84439201D01*
X56128848Y-84291132D01*
X56128847Y-84291131D01*
X56128845Y-84291130D01*
X56058747Y-84255413D01*
X55904383Y-84176760D01*
X55664785Y-84098910D01*
X55415962Y-84059500D01*
X55164038Y-84059500D01*
X55039626Y-84079205D01*
X54915214Y-84098910D01*
X54675616Y-84176760D01*
X54451151Y-84291132D01*
X54247350Y-84439201D01*
X54247345Y-84439205D01*
X54069205Y-84617345D01*
X54069201Y-84617350D01*
X53921132Y-84821151D01*
X53806760Y-85045616D01*
X53728910Y-85285214D01*
X53689500Y-85534038D01*
X37840500Y-85534038D01*
X37801090Y-85285215D01*
X37723241Y-85045621D01*
X37723239Y-85045618D01*
X37723239Y-85045616D01*
X37681747Y-84964184D01*
X37608870Y-84821155D01*
X37507107Y-84681090D01*
X37460798Y-84617350D01*
X37460794Y-84617345D01*
X37282654Y-84439205D01*
X37282649Y-84439201D01*
X37078848Y-84291132D01*
X37078847Y-84291131D01*
X37078845Y-84291130D01*
X37008747Y-84255413D01*
X36854383Y-84176760D01*
X36614785Y-84098910D01*
X36365962Y-84059500D01*
X36114038Y-84059500D01*
X35989626Y-84079205D01*
X35865214Y-84098910D01*
X35625616Y-84176760D01*
X35401151Y-84291132D01*
X35197350Y-84439201D01*
X35197345Y-84439205D01*
X35019205Y-84617345D01*
X35019201Y-84617350D01*
X34871132Y-84821151D01*
X34756760Y-85045616D01*
X34678910Y-85285214D01*
X34639500Y-85534038D01*
X28385908Y-85534038D01*
X28478461Y-85441485D01*
X30233126Y-83686819D01*
X30294449Y-83653334D01*
X30320807Y-83650500D01*
X39679192Y-83650500D01*
X39746231Y-83670185D01*
X39766873Y-83686819D01*
X41335325Y-85255272D01*
X41335326Y-85255273D01*
X41335329Y-85255275D01*
X41335331Y-85255277D01*
X41441873Y-85326465D01*
X41560256Y-85375501D01*
X41560260Y-85375501D01*
X41560261Y-85375502D01*
X41685928Y-85400500D01*
X41685931Y-85400500D01*
X43564071Y-85400500D01*
X43648615Y-85383682D01*
X43689744Y-85375501D01*
X43808127Y-85326465D01*
X43914669Y-85255277D01*
X45363127Y-83806819D01*
X45424450Y-83773334D01*
X45450808Y-83770500D01*
X60099176Y-83770500D01*
X60166215Y-83790185D01*
X60209661Y-83838205D01*
X60271132Y-83958848D01*
X60419201Y-84162649D01*
X60419205Y-84162654D01*
X60597345Y-84340794D01*
X60597350Y-84340798D01*
X60775117Y-84469952D01*
X60801155Y-84488870D01*
X60944184Y-84561747D01*
X61025616Y-84603239D01*
X61025618Y-84603239D01*
X61025621Y-84603241D01*
X61265215Y-84681090D01*
X61514038Y-84720500D01*
X61514039Y-84720500D01*
X61765961Y-84720500D01*
X61765962Y-84720500D01*
X62014785Y-84681090D01*
X62254379Y-84603241D01*
X62478845Y-84488870D01*
X62682656Y-84340793D01*
X62860793Y-84162656D01*
X63008870Y-83958845D01*
X63123241Y-83734379D01*
X63201090Y-83494785D01*
X63240500Y-83245962D01*
X63240500Y-82994038D01*
X63201090Y-82745215D01*
X63123241Y-82505621D01*
X63123239Y-82505618D01*
X63123239Y-82505616D01*
X63070339Y-82401795D01*
X63008870Y-82281155D01*
X62928463Y-82170484D01*
X62860798Y-82077350D01*
X62860794Y-82077345D01*
X62682654Y-81899205D01*
X62682649Y-81899201D01*
X62478848Y-81751132D01*
X62478847Y-81751131D01*
X62478845Y-81751130D01*
X62408747Y-81715413D01*
X62254383Y-81636760D01*
X62014785Y-81558910D01*
X61765962Y-81519500D01*
X61514038Y-81519500D01*
X61389626Y-81539205D01*
X61265214Y-81558910D01*
X61025616Y-81636760D01*
X60801151Y-81751132D01*
X60597350Y-81899201D01*
X60597345Y-81899205D01*
X60419205Y-82077345D01*
X60419201Y-82077350D01*
X60271132Y-82281151D01*
X60209661Y-82401795D01*
X60161686Y-82452591D01*
X60099176Y-82469500D01*
X45065929Y-82469500D01*
X44940261Y-82494497D01*
X44940255Y-82494499D01*
X44821874Y-82543534D01*
X44715326Y-82614726D01*
X44382479Y-82947573D01*
X44321156Y-82981058D01*
X44251464Y-82976074D01*
X44195531Y-82934202D01*
X44172325Y-82879289D01*
X44170592Y-82868349D01*
X44151090Y-82745215D01*
X44073241Y-82505621D01*
X44073239Y-82505618D01*
X44073239Y-82505616D01*
X43984163Y-82330795D01*
X43971267Y-82262126D01*
X43997543Y-82197385D01*
X44054650Y-82157128D01*
X44094648Y-82150500D01*
X45564071Y-82150500D01*
X45659852Y-82131447D01*
X45689744Y-82125501D01*
X45808127Y-82076465D01*
X45832386Y-82060256D01*
X45832770Y-82060000D01*
X45860371Y-82041557D01*
X45914669Y-82005277D01*
X52505276Y-75414669D01*
X52576465Y-75308127D01*
X52625501Y-75189744D01*
X52638280Y-75125501D01*
X52650500Y-75064069D01*
X52650500Y-73796153D01*
X53699500Y-73796153D01*
X53699500Y-77578846D01*
X53730261Y-77733489D01*
X53730264Y-77733501D01*
X53790602Y-77879172D01*
X53790609Y-77879185D01*
X53878210Y-78010288D01*
X53878213Y-78010292D01*
X53989707Y-78121786D01*
X53989711Y-78121789D01*
X54120814Y-78209390D01*
X54120827Y-78209397D01*
X54266498Y-78269735D01*
X54266503Y-78269737D01*
X54421153Y-78300499D01*
X54421156Y-78300500D01*
X54421158Y-78300500D01*
X54578844Y-78300500D01*
X54578845Y-78300499D01*
X54733497Y-78269737D01*
X54879179Y-78209394D01*
X55010289Y-78121789D01*
X55121789Y-78010289D01*
X55209394Y-77879179D01*
X55269737Y-77733497D01*
X55300500Y-77578842D01*
X55300500Y-77421158D01*
X55300500Y-73796158D01*
X55300500Y-73796155D01*
X55300499Y-73796153D01*
X55269738Y-73641510D01*
X55269737Y-73641503D01*
X55269735Y-73641498D01*
X55209397Y-73495827D01*
X55209390Y-73495814D01*
X55121789Y-73364711D01*
X55121786Y-73364707D01*
X55010292Y-73253213D01*
X55010288Y-73253210D01*
X54904492Y-73182519D01*
X54879185Y-73165609D01*
X54879172Y-73165602D01*
X54733501Y-73105264D01*
X54733489Y-73105261D01*
X54727557Y-73104081D01*
X57324500Y-73104081D01*
X57324500Y-73104082D01*
X57324500Y-76145918D01*
X57354082Y-76175500D01*
X60795918Y-76175500D01*
X60825500Y-76145918D01*
X60825500Y-73104082D01*
X60795918Y-73074500D01*
X57395918Y-73074500D01*
X57354082Y-73074500D01*
X57354081Y-73074500D01*
X57324500Y-73104081D01*
X54727557Y-73104081D01*
X54578845Y-73074500D01*
X54578842Y-73074500D01*
X54421158Y-73074500D01*
X54421155Y-73074500D01*
X54266510Y-73105261D01*
X54266498Y-73105264D01*
X54120827Y-73165602D01*
X54120814Y-73165609D01*
X53989711Y-73253210D01*
X53989707Y-73253213D01*
X53878213Y-73364707D01*
X53878210Y-73364711D01*
X53790609Y-73495814D01*
X53790602Y-73495827D01*
X53730264Y-73641498D01*
X53730261Y-73641510D01*
X53699500Y-73796153D01*
X52650500Y-73796153D01*
X52650500Y-69002486D01*
X56849500Y-69002486D01*
X56849500Y-69297513D01*
X56881571Y-69541113D01*
X56888007Y-69589993D01*
X56888008Y-69589995D01*
X56964361Y-69874951D01*
X56964364Y-69874961D01*
X57077254Y-70147500D01*
X57077258Y-70147510D01*
X57224761Y-70402993D01*
X57404352Y-70637040D01*
X57404358Y-70637047D01*
X57612952Y-70845641D01*
X57612959Y-70845647D01*
X57847006Y-71025238D01*
X58102489Y-71172741D01*
X58102490Y-71172741D01*
X58102493Y-71172743D01*
X58375048Y-71285639D01*
X58660007Y-71361993D01*
X58952494Y-71400500D01*
X58952501Y-71400500D01*
X59247499Y-71400500D01*
X59247506Y-71400500D01*
X59539993Y-71361993D01*
X59824952Y-71285639D01*
X60097507Y-71172743D01*
X60352994Y-71025238D01*
X60587042Y-70845646D01*
X60795646Y-70637042D01*
X60975238Y-70402994D01*
X61122743Y-70147507D01*
X61235639Y-69874952D01*
X61311993Y-69589993D01*
X61350500Y-69297506D01*
X61350500Y-69002494D01*
X61311993Y-68710007D01*
X61235639Y-68425048D01*
X61122743Y-68152493D01*
X60975238Y-67897006D01*
X60795646Y-67662958D01*
X60795641Y-67662952D01*
X60587047Y-67454358D01*
X60587040Y-67454352D01*
X60352993Y-67274761D01*
X60097510Y-67127258D01*
X60097500Y-67127254D01*
X59824961Y-67014364D01*
X59824954Y-67014362D01*
X59824952Y-67014361D01*
X59539993Y-66938007D01*
X59491113Y-66931571D01*
X59247513Y-66899500D01*
X59247506Y-66899500D01*
X58952494Y-66899500D01*
X58952486Y-66899500D01*
X58674085Y-66936153D01*
X58660007Y-66938007D01*
X58485428Y-66984785D01*
X58375048Y-67014361D01*
X58375038Y-67014364D01*
X58102499Y-67127254D01*
X58102489Y-67127258D01*
X57847006Y-67274761D01*
X57612959Y-67454352D01*
X57612952Y-67454358D01*
X57404358Y-67662952D01*
X57404352Y-67662959D01*
X57224761Y-67897006D01*
X57077258Y-68152489D01*
X57077254Y-68152499D01*
X56964364Y-68425038D01*
X56964361Y-68425048D01*
X56888008Y-68710004D01*
X56888006Y-68710015D01*
X56849500Y-69002486D01*
X52650500Y-69002486D01*
X52650500Y-66820808D01*
X52670185Y-66753769D01*
X52686819Y-66733127D01*
X52935908Y-66484038D01*
X53650451Y-65769494D01*
X53711772Y-65736011D01*
X53781463Y-65740995D01*
X53837397Y-65782867D01*
X53861814Y-65848331D01*
X53848615Y-65913471D01*
X53806761Y-65995613D01*
X53728910Y-66235214D01*
X53728910Y-66235215D01*
X53689500Y-66484038D01*
X53689500Y-66735962D01*
X53698764Y-66794450D01*
X53728910Y-66984785D01*
X53806760Y-67224383D01*
X53921132Y-67448848D01*
X54069201Y-67652649D01*
X54069205Y-67652654D01*
X54247345Y-67830794D01*
X54247350Y-67830798D01*
X54425117Y-67959952D01*
X54451155Y-67978870D01*
X54594184Y-68051747D01*
X54675616Y-68093239D01*
X54675618Y-68093239D01*
X54675621Y-68093241D01*
X54915215Y-68171090D01*
X55164038Y-68210500D01*
X55164039Y-68210500D01*
X55415961Y-68210500D01*
X55415962Y-68210500D01*
X55664785Y-68171090D01*
X55904379Y-68093241D01*
X56128845Y-67978870D01*
X56332656Y-67830793D01*
X56510793Y-67652656D01*
X56658870Y-67448845D01*
X56773241Y-67224379D01*
X56851090Y-66984785D01*
X56890500Y-66735962D01*
X56890500Y-66484038D01*
X56851090Y-66235215D01*
X56773241Y-65995621D01*
X56773239Y-65995618D01*
X56773239Y-65995616D01*
X56698193Y-65848331D01*
X56658870Y-65771155D01*
X56557107Y-65631090D01*
X56510798Y-65567350D01*
X56510794Y-65567345D01*
X56332654Y-65389205D01*
X56332649Y-65389201D01*
X56128848Y-65241132D01*
X56128847Y-65241131D01*
X56128845Y-65241130D01*
X56058747Y-65205413D01*
X55904383Y-65126760D01*
X55664785Y-65048910D01*
X55415962Y-65009500D01*
X55164038Y-65009500D01*
X55039626Y-65029205D01*
X54915214Y-65048910D01*
X54675613Y-65126761D01*
X54593471Y-65168615D01*
X54524802Y-65181511D01*
X54460061Y-65155234D01*
X54419805Y-65098127D01*
X54416813Y-65028322D01*
X54449494Y-64970451D01*
X54663127Y-64756819D01*
X54724450Y-64723334D01*
X54750808Y-64720500D01*
X60099176Y-64720500D01*
X60166215Y-64740185D01*
X60209661Y-64788205D01*
X60271132Y-64908848D01*
X60419201Y-65112649D01*
X60419205Y-65112654D01*
X60597345Y-65290794D01*
X60597350Y-65290798D01*
X60775117Y-65419952D01*
X60801155Y-65438870D01*
X60923793Y-65501357D01*
X61025616Y-65553239D01*
X61025618Y-65553239D01*
X61025621Y-65553241D01*
X61265215Y-65631090D01*
X61514038Y-65670500D01*
X61514039Y-65670500D01*
X61765961Y-65670500D01*
X61765962Y-65670500D01*
X62014785Y-65631090D01*
X62254379Y-65553241D01*
X62478845Y-65438870D01*
X62682656Y-65290793D01*
X62860793Y-65112656D01*
X63008870Y-64908845D01*
X63123241Y-64684379D01*
X63201090Y-64444785D01*
X63240500Y-64195962D01*
X63240500Y-63944038D01*
X63201090Y-63695215D01*
X63123241Y-63455621D01*
X63123239Y-63455618D01*
X63123239Y-63455616D01*
X63070339Y-63351795D01*
X63008870Y-63231155D01*
X62989952Y-63205117D01*
X62860798Y-63027350D01*
X62860794Y-63027345D01*
X62682654Y-62849205D01*
X62682649Y-62849201D01*
X62478848Y-62701132D01*
X62478847Y-62701131D01*
X62478845Y-62701130D01*
X62408747Y-62665413D01*
X62254383Y-62586760D01*
X62014785Y-62508910D01*
X61765962Y-62469500D01*
X61514038Y-62469500D01*
X61389626Y-62489205D01*
X61265214Y-62508910D01*
X61025616Y-62586760D01*
X60801151Y-62701132D01*
X60597350Y-62849201D01*
X60597345Y-62849205D01*
X60419205Y-63027345D01*
X60419201Y-63027350D01*
X60271132Y-63231151D01*
X60209661Y-63351795D01*
X60161686Y-63402591D01*
X60099176Y-63419500D01*
X54365929Y-63419500D01*
X54240261Y-63444497D01*
X54240255Y-63444499D01*
X54121874Y-63493534D01*
X54015326Y-63564726D01*
X54015325Y-63564727D01*
X52112181Y-65467872D01*
X52050858Y-65501357D01*
X51981166Y-65496373D01*
X51925233Y-65454501D01*
X51900816Y-65389037D01*
X51900500Y-65380191D01*
X51900500Y-54746153D01*
X53699500Y-54746153D01*
X53699500Y-58578846D01*
X53730261Y-58733489D01*
X53730264Y-58733501D01*
X53790602Y-58879172D01*
X53790609Y-58879185D01*
X53878210Y-59010288D01*
X53878213Y-59010292D01*
X53989707Y-59121786D01*
X53989711Y-59121789D01*
X54120814Y-59209390D01*
X54120827Y-59209397D01*
X54266498Y-59269735D01*
X54266503Y-59269737D01*
X54421153Y-59300499D01*
X54421156Y-59300500D01*
X54421158Y-59300500D01*
X54578844Y-59300500D01*
X54578845Y-59300499D01*
X54733497Y-59269737D01*
X54879179Y-59209394D01*
X55010289Y-59121789D01*
X55121789Y-59010289D01*
X55209394Y-58879179D01*
X55269737Y-58733497D01*
X55300500Y-58578842D01*
X55300500Y-58421158D01*
X55300500Y-54746158D01*
X55300500Y-54746155D01*
X55300499Y-54746153D01*
X55269738Y-54591510D01*
X55269737Y-54591503D01*
X55269735Y-54591498D01*
X55209397Y-54445827D01*
X55209390Y-54445814D01*
X55121789Y-54314711D01*
X55121786Y-54314707D01*
X55010292Y-54203213D01*
X55010288Y-54203210D01*
X54904492Y-54132519D01*
X54879185Y-54115609D01*
X54879172Y-54115602D01*
X54733501Y-54055264D01*
X54733489Y-54055261D01*
X54727557Y-54054081D01*
X57324500Y-54054081D01*
X57324500Y-54054082D01*
X57324500Y-57095918D01*
X57354082Y-57125500D01*
X60795918Y-57125500D01*
X60825500Y-57095918D01*
X60825500Y-54054082D01*
X60795918Y-54024500D01*
X57395918Y-54024500D01*
X57354082Y-54024500D01*
X57354081Y-54024500D01*
X57324500Y-54054081D01*
X54727557Y-54054081D01*
X54578845Y-54024500D01*
X54578842Y-54024500D01*
X54421158Y-54024500D01*
X54421155Y-54024500D01*
X54266510Y-54055261D01*
X54266498Y-54055264D01*
X54120827Y-54115602D01*
X54120814Y-54115609D01*
X53989711Y-54203210D01*
X53989707Y-54203213D01*
X53878213Y-54314707D01*
X53878210Y-54314711D01*
X53790609Y-54445814D01*
X53790602Y-54445827D01*
X53730264Y-54591498D01*
X53730261Y-54591510D01*
X53699500Y-54746153D01*
X51900500Y-54746153D01*
X51900500Y-49952486D01*
X56849500Y-49952486D01*
X56849500Y-50247513D01*
X56881571Y-50491113D01*
X56888007Y-50539993D01*
X56888008Y-50539995D01*
X56964361Y-50824951D01*
X56964364Y-50824961D01*
X57077254Y-51097500D01*
X57077258Y-51097510D01*
X57224761Y-51352993D01*
X57404352Y-51587040D01*
X57404358Y-51587047D01*
X57612952Y-51795641D01*
X57612959Y-51795647D01*
X57847006Y-51975238D01*
X58102489Y-52122741D01*
X58102490Y-52122741D01*
X58102493Y-52122743D01*
X58375048Y-52235639D01*
X58660007Y-52311993D01*
X58952494Y-52350500D01*
X58952501Y-52350500D01*
X59247499Y-52350500D01*
X59247506Y-52350500D01*
X59539993Y-52311993D01*
X59824952Y-52235639D01*
X60097507Y-52122743D01*
X60352994Y-51975238D01*
X60587042Y-51795646D01*
X60795646Y-51587042D01*
X60975238Y-51352994D01*
X61122743Y-51097507D01*
X61235639Y-50824952D01*
X61311993Y-50539993D01*
X61350500Y-50247506D01*
X61350500Y-49952494D01*
X61311993Y-49660007D01*
X61235639Y-49375048D01*
X61122743Y-49102493D01*
X60975238Y-48847006D01*
X60795646Y-48612958D01*
X60795641Y-48612952D01*
X60587047Y-48404358D01*
X60587040Y-48404352D01*
X60352993Y-48224761D01*
X60097510Y-48077258D01*
X60097500Y-48077254D01*
X59824961Y-47964364D01*
X59824954Y-47964362D01*
X59824952Y-47964361D01*
X59539993Y-47888007D01*
X59491113Y-47881571D01*
X59247513Y-47849500D01*
X59247506Y-47849500D01*
X58952494Y-47849500D01*
X58952486Y-47849500D01*
X58674085Y-47886153D01*
X58660007Y-47888007D01*
X58485428Y-47934785D01*
X58375048Y-47964361D01*
X58375038Y-47964364D01*
X58102499Y-48077254D01*
X58102489Y-48077258D01*
X57847006Y-48224761D01*
X57612959Y-48404352D01*
X57612952Y-48404358D01*
X57404358Y-48612952D01*
X57404352Y-48612959D01*
X57224761Y-48847006D01*
X57077258Y-49102489D01*
X57077254Y-49102499D01*
X56964364Y-49375038D01*
X56964361Y-49375048D01*
X56888008Y-49660004D01*
X56888006Y-49660015D01*
X56849500Y-49952486D01*
X51900500Y-49952486D01*
X51900500Y-47820808D01*
X51920185Y-47753769D01*
X51936819Y-47733127D01*
X52235908Y-47434038D01*
X53689500Y-47434038D01*
X53689500Y-47685961D01*
X53728910Y-47934785D01*
X53806760Y-48174383D01*
X53921132Y-48398848D01*
X54069201Y-48602649D01*
X54069205Y-48602654D01*
X54247345Y-48780794D01*
X54247350Y-48780798D01*
X54425117Y-48909952D01*
X54451155Y-48928870D01*
X54594184Y-49001747D01*
X54675616Y-49043239D01*
X54675618Y-49043239D01*
X54675621Y-49043241D01*
X54915215Y-49121090D01*
X55164038Y-49160500D01*
X55164039Y-49160500D01*
X55415961Y-49160500D01*
X55415962Y-49160500D01*
X55664785Y-49121090D01*
X55904379Y-49043241D01*
X56128845Y-48928870D01*
X56332656Y-48780793D01*
X56510793Y-48602656D01*
X56658870Y-48398845D01*
X56773241Y-48174379D01*
X56851090Y-47934785D01*
X56890500Y-47685962D01*
X56890500Y-47434038D01*
X56851090Y-47185215D01*
X56773241Y-46945621D01*
X56773239Y-46945618D01*
X56773239Y-46945616D01*
X56731747Y-46864184D01*
X56658870Y-46721155D01*
X56557107Y-46581090D01*
X56510798Y-46517350D01*
X56510794Y-46517345D01*
X56332654Y-46339205D01*
X56332649Y-46339201D01*
X56128848Y-46191132D01*
X56128847Y-46191131D01*
X56128845Y-46191130D01*
X56058747Y-46155413D01*
X55904383Y-46076760D01*
X55664785Y-45998910D01*
X55415962Y-45959500D01*
X55164038Y-45959500D01*
X55039626Y-45979205D01*
X54915214Y-45998910D01*
X54675616Y-46076760D01*
X54451151Y-46191132D01*
X54247350Y-46339201D01*
X54247345Y-46339205D01*
X54069205Y-46517345D01*
X54069201Y-46517350D01*
X53921132Y-46721151D01*
X53806760Y-46945616D01*
X53728910Y-47185214D01*
X53689500Y-47434038D01*
X52235908Y-47434038D01*
X53963127Y-45706819D01*
X54024450Y-45673334D01*
X54050808Y-45670500D01*
X60099176Y-45670500D01*
X60166215Y-45690185D01*
X60209661Y-45738205D01*
X60271132Y-45858848D01*
X60419201Y-46062649D01*
X60419205Y-46062654D01*
X60597345Y-46240794D01*
X60597350Y-46240798D01*
X60775117Y-46369952D01*
X60801155Y-46388870D01*
X60929963Y-46454501D01*
X61025616Y-46503239D01*
X61025618Y-46503239D01*
X61025621Y-46503241D01*
X61265215Y-46581090D01*
X61514038Y-46620500D01*
X61514039Y-46620500D01*
X61765961Y-46620500D01*
X61765962Y-46620500D01*
X62014785Y-46581090D01*
X62254379Y-46503241D01*
X62478845Y-46388870D01*
X62682656Y-46240793D01*
X62860793Y-46062656D01*
X63008870Y-45858845D01*
X63123241Y-45634379D01*
X63201090Y-45394785D01*
X63240500Y-45145962D01*
X63240500Y-44894038D01*
X63201090Y-44645215D01*
X63123241Y-44405621D01*
X63123239Y-44405618D01*
X63123239Y-44405616D01*
X63070339Y-44301795D01*
X63008870Y-44181155D01*
X62989952Y-44155117D01*
X62860798Y-43977350D01*
X62860794Y-43977345D01*
X62682654Y-43799205D01*
X62682649Y-43799201D01*
X62478848Y-43651132D01*
X62478847Y-43651131D01*
X62478845Y-43651130D01*
X62408747Y-43615413D01*
X62254383Y-43536760D01*
X62014785Y-43458910D01*
X61765962Y-43419500D01*
X61514038Y-43419500D01*
X61389626Y-43439205D01*
X61265214Y-43458910D01*
X61025616Y-43536760D01*
X60801151Y-43651132D01*
X60597350Y-43799201D01*
X60597345Y-43799205D01*
X60419205Y-43977345D01*
X60419201Y-43977350D01*
X60271132Y-44181151D01*
X60209661Y-44301795D01*
X60161686Y-44352591D01*
X60099176Y-44369500D01*
X53665929Y-44369500D01*
X53540261Y-44394497D01*
X53540251Y-44394500D01*
X53491220Y-44414810D01*
X53421881Y-44443530D01*
X53421863Y-44443540D01*
X53315332Y-44514721D01*
X53315325Y-44514727D01*
X51362181Y-46467872D01*
X51300858Y-46501357D01*
X51231166Y-46496373D01*
X51175233Y-46454501D01*
X51150816Y-46389037D01*
X51150500Y-46380191D01*
X51150500Y-35671153D01*
X53699500Y-35671153D01*
X53699500Y-39328846D01*
X53730261Y-39483489D01*
X53730264Y-39483501D01*
X53790602Y-39629172D01*
X53790609Y-39629185D01*
X53878210Y-39760288D01*
X53878213Y-39760292D01*
X53989707Y-39871786D01*
X53989711Y-39871789D01*
X54120814Y-39959390D01*
X54120827Y-39959397D01*
X54266498Y-40019735D01*
X54266503Y-40019737D01*
X54421153Y-40050499D01*
X54421156Y-40050500D01*
X54421158Y-40050500D01*
X54578844Y-40050500D01*
X54578845Y-40050499D01*
X54733497Y-40019737D01*
X54879179Y-39959394D01*
X55010289Y-39871789D01*
X55121789Y-39760289D01*
X55209394Y-39629179D01*
X55269737Y-39483497D01*
X55300500Y-39328842D01*
X55300500Y-35671158D01*
X55300500Y-35671155D01*
X55300499Y-35671153D01*
X55269738Y-35516510D01*
X55269737Y-35516503D01*
X55219752Y-35395827D01*
X55209397Y-35370827D01*
X55209390Y-35370814D01*
X55121789Y-35239711D01*
X55121786Y-35239707D01*
X55010292Y-35128213D01*
X55010288Y-35128210D01*
X54941907Y-35082519D01*
X54879185Y-35040609D01*
X54879172Y-35040602D01*
X54791001Y-35004081D01*
X57324500Y-35004081D01*
X57324500Y-35004082D01*
X57324500Y-38045918D01*
X57354082Y-38075500D01*
X60795918Y-38075500D01*
X60825500Y-38045918D01*
X60825500Y-35004082D01*
X60795918Y-34974500D01*
X57395918Y-34974500D01*
X57354082Y-34974500D01*
X57354081Y-34974500D01*
X57324500Y-35004081D01*
X54791001Y-35004081D01*
X54733501Y-34980264D01*
X54733489Y-34980261D01*
X54578845Y-34949500D01*
X54578842Y-34949500D01*
X54421158Y-34949500D01*
X54421155Y-34949500D01*
X54266510Y-34980261D01*
X54266498Y-34980264D01*
X54120827Y-35040602D01*
X54120814Y-35040609D01*
X53989711Y-35128210D01*
X53989707Y-35128213D01*
X53878213Y-35239707D01*
X53878210Y-35239711D01*
X53790609Y-35370814D01*
X53790602Y-35370827D01*
X53730264Y-35516498D01*
X53730261Y-35516510D01*
X53699500Y-35671153D01*
X51150500Y-35671153D01*
X51150500Y-30902486D01*
X56849500Y-30902486D01*
X56849500Y-31197513D01*
X56881571Y-31441113D01*
X56888007Y-31489993D01*
X56888008Y-31489995D01*
X56964361Y-31774951D01*
X56964364Y-31774961D01*
X57077254Y-32047500D01*
X57077258Y-32047510D01*
X57224761Y-32302993D01*
X57404352Y-32537040D01*
X57404358Y-32537047D01*
X57612952Y-32745641D01*
X57612959Y-32745647D01*
X57847006Y-32925238D01*
X58102489Y-33072741D01*
X58102490Y-33072741D01*
X58102493Y-33072743D01*
X58375048Y-33185639D01*
X58660007Y-33261993D01*
X58952494Y-33300500D01*
X58952501Y-33300500D01*
X59247499Y-33300500D01*
X59247506Y-33300500D01*
X59539993Y-33261993D01*
X59824952Y-33185639D01*
X60097507Y-33072743D01*
X60352994Y-32925238D01*
X60587042Y-32745646D01*
X60795646Y-32537042D01*
X60975238Y-32302994D01*
X61122743Y-32047507D01*
X61235639Y-31774952D01*
X61311993Y-31489993D01*
X61350500Y-31197506D01*
X61350500Y-30902494D01*
X61311993Y-30610007D01*
X61235639Y-30325048D01*
X61122743Y-30052493D01*
X60975238Y-29797006D01*
X60795646Y-29562958D01*
X60795641Y-29562952D01*
X60587047Y-29354358D01*
X60587040Y-29354352D01*
X60352993Y-29174761D01*
X60097510Y-29027258D01*
X60097500Y-29027254D01*
X59824961Y-28914364D01*
X59824954Y-28914362D01*
X59824952Y-28914361D01*
X59539993Y-28838007D01*
X59491113Y-28831571D01*
X59247513Y-28799500D01*
X59247506Y-28799500D01*
X58952494Y-28799500D01*
X58952486Y-28799500D01*
X58674085Y-28836153D01*
X58660007Y-28838007D01*
X58485428Y-28884785D01*
X58375048Y-28914361D01*
X58375038Y-28914364D01*
X58102499Y-29027254D01*
X58102489Y-29027258D01*
X57847006Y-29174761D01*
X57612959Y-29354352D01*
X57612952Y-29354358D01*
X57404358Y-29562952D01*
X57404352Y-29562959D01*
X57224761Y-29797006D01*
X57077258Y-30052489D01*
X57077254Y-30052499D01*
X56964364Y-30325038D01*
X56964361Y-30325048D01*
X56888008Y-30610004D01*
X56888006Y-30610015D01*
X56849500Y-30902486D01*
X51150500Y-30902486D01*
X51150500Y-28820808D01*
X51170185Y-28753769D01*
X51186819Y-28733127D01*
X51535908Y-28384038D01*
X53689500Y-28384038D01*
X53689500Y-28635961D01*
X53728910Y-28884785D01*
X53806760Y-29124383D01*
X53921132Y-29348848D01*
X54069201Y-29552649D01*
X54069205Y-29552654D01*
X54247345Y-29730794D01*
X54247350Y-29730798D01*
X54425117Y-29859952D01*
X54451155Y-29878870D01*
X54594184Y-29951747D01*
X54675616Y-29993239D01*
X54675618Y-29993239D01*
X54675621Y-29993241D01*
X54915215Y-30071090D01*
X55164038Y-30110500D01*
X55164039Y-30110500D01*
X55415961Y-30110500D01*
X55415962Y-30110500D01*
X55664785Y-30071090D01*
X55904379Y-29993241D01*
X56128845Y-29878870D01*
X56332656Y-29730793D01*
X56510793Y-29552656D01*
X56658870Y-29348845D01*
X56773241Y-29124379D01*
X56851090Y-28884785D01*
X56890500Y-28635962D01*
X56890500Y-28384038D01*
X56851090Y-28135215D01*
X56773241Y-27895621D01*
X56773239Y-27895618D01*
X56773239Y-27895616D01*
X56731747Y-27814184D01*
X56658870Y-27671155D01*
X56557107Y-27531090D01*
X56510798Y-27467350D01*
X56510794Y-27467345D01*
X56332654Y-27289205D01*
X56332649Y-27289201D01*
X56128848Y-27141132D01*
X56128847Y-27141131D01*
X56128845Y-27141130D01*
X56058747Y-27105413D01*
X55904383Y-27026760D01*
X55664785Y-26948910D01*
X55415962Y-26909500D01*
X55164038Y-26909500D01*
X55039626Y-26929205D01*
X54915214Y-26948910D01*
X54675616Y-27026760D01*
X54451151Y-27141132D01*
X54247350Y-27289201D01*
X54247345Y-27289205D01*
X54069205Y-27467345D01*
X54069201Y-27467350D01*
X53921132Y-27671151D01*
X53806760Y-27895616D01*
X53728910Y-28135214D01*
X53689500Y-28384038D01*
X51535908Y-28384038D01*
X53263127Y-26656819D01*
X53324450Y-26623334D01*
X53350808Y-26620500D01*
X60099176Y-26620500D01*
X60166215Y-26640185D01*
X60209661Y-26688205D01*
X60271132Y-26808848D01*
X60419201Y-27012649D01*
X60419205Y-27012654D01*
X60597345Y-27190794D01*
X60597350Y-27190798D01*
X60775117Y-27319952D01*
X60801155Y-27338870D01*
X60944184Y-27411747D01*
X61025616Y-27453239D01*
X61025618Y-27453239D01*
X61025621Y-27453241D01*
X61265215Y-27531090D01*
X61514038Y-27570500D01*
X61514039Y-27570500D01*
X61765961Y-27570500D01*
X61765962Y-27570500D01*
X62014785Y-27531090D01*
X62254379Y-27453241D01*
X62478845Y-27338870D01*
X62682656Y-27190793D01*
X62860793Y-27012656D01*
X63008870Y-26808845D01*
X63123241Y-26584379D01*
X63201090Y-26344785D01*
X63240500Y-26095962D01*
X63240500Y-25844038D01*
X63201090Y-25595215D01*
X63123241Y-25355621D01*
X63123239Y-25355618D01*
X63123239Y-25355616D01*
X63070339Y-25251795D01*
X63008870Y-25131155D01*
X62994338Y-25111153D01*
X62877849Y-24950818D01*
X62877847Y-24950816D01*
X62860794Y-24927345D01*
X62815444Y-24881995D01*
X72299500Y-24881995D01*
X72299500Y-25118004D01*
X72299501Y-25118020D01*
X72329317Y-25344499D01*
X72330307Y-25352014D01*
X72341432Y-25393534D01*
X72391394Y-25579993D01*
X72481714Y-25798045D01*
X72481719Y-25798056D01*
X72552677Y-25920957D01*
X72599727Y-26002450D01*
X72599729Y-26002453D01*
X72599730Y-26002454D01*
X72743406Y-26189697D01*
X72743412Y-26189704D01*
X72910295Y-26356587D01*
X72910301Y-26356592D01*
X73097550Y-26500273D01*
X73228918Y-26576118D01*
X73301943Y-26618280D01*
X73301948Y-26618282D01*
X73301951Y-26618284D01*
X73520007Y-26708606D01*
X73747986Y-26769693D01*
X73981989Y-26800500D01*
X73981996Y-26800500D01*
X74218004Y-26800500D01*
X74218011Y-26800500D01*
X74452014Y-26769693D01*
X74679993Y-26708606D01*
X74898049Y-26618284D01*
X75102450Y-26500273D01*
X75289699Y-26356592D01*
X75456592Y-26189699D01*
X75600273Y-26002450D01*
X75718284Y-25798049D01*
X75808606Y-25579993D01*
X75869693Y-25352014D01*
X75900500Y-25118011D01*
X75900500Y-24881989D01*
X75869693Y-24647986D01*
X75808606Y-24420007D01*
X75718284Y-24201951D01*
X75718282Y-24201948D01*
X75718280Y-24201943D01*
X75633908Y-24055808D01*
X75600273Y-23997550D01*
X75456592Y-23810301D01*
X75456587Y-23810295D01*
X75289704Y-23643412D01*
X75289697Y-23643406D01*
X75102454Y-23499730D01*
X75102453Y-23499729D01*
X75102450Y-23499727D01*
X75020957Y-23452677D01*
X74898056Y-23381719D01*
X74898045Y-23381714D01*
X74679993Y-23291394D01*
X74452010Y-23230306D01*
X74218020Y-23199501D01*
X74218017Y-23199500D01*
X74218011Y-23199500D01*
X73981989Y-23199500D01*
X73981983Y-23199500D01*
X73981979Y-23199501D01*
X73747989Y-23230306D01*
X73520006Y-23291394D01*
X73301954Y-23381714D01*
X73301943Y-23381719D01*
X73097545Y-23499730D01*
X72910302Y-23643406D01*
X72910295Y-23643412D01*
X72743412Y-23810295D01*
X72743406Y-23810302D01*
X72599730Y-23997545D01*
X72481719Y-24201943D01*
X72481714Y-24201954D01*
X72391394Y-24420006D01*
X72330306Y-24647989D01*
X72299501Y-24881979D01*
X72299500Y-24881995D01*
X62815444Y-24881995D01*
X62682654Y-24749205D01*
X62682649Y-24749201D01*
X62478848Y-24601132D01*
X62478847Y-24601131D01*
X62478845Y-24601130D01*
X62408747Y-24565413D01*
X62254383Y-24486760D01*
X62014785Y-24408910D01*
X61765962Y-24369500D01*
X61514038Y-24369500D01*
X61389626Y-24389205D01*
X61265214Y-24408910D01*
X61025616Y-24486760D01*
X60801151Y-24601132D01*
X60597350Y-24749201D01*
X60597345Y-24749205D01*
X60419205Y-24927345D01*
X60419201Y-24927350D01*
X60271132Y-25131151D01*
X60209661Y-25251795D01*
X60161686Y-25302591D01*
X60099176Y-25319500D01*
X52965929Y-25319500D01*
X52840261Y-25344497D01*
X52840255Y-25344499D01*
X52721870Y-25393535D01*
X52615331Y-25464722D01*
X52615324Y-25464728D01*
X50212680Y-27867372D01*
X50151357Y-27900857D01*
X50081665Y-27895873D01*
X50037318Y-27867372D01*
X47634674Y-25464727D01*
X47634673Y-25464726D01*
X47634669Y-25464723D01*
X47528127Y-25393535D01*
X47409744Y-25344499D01*
X47409738Y-25344497D01*
X47284071Y-25319500D01*
X47284069Y-25319500D01*
X44130824Y-25319500D01*
X44063785Y-25299815D01*
X44020339Y-25251795D01*
X44009093Y-25229724D01*
X43958870Y-25131155D01*
X43827848Y-24950818D01*
X43810798Y-24927350D01*
X43810794Y-24927345D01*
X43632654Y-24749205D01*
X43632649Y-24749201D01*
X43428848Y-24601132D01*
X43428847Y-24601131D01*
X43428845Y-24601130D01*
X43358747Y-24565413D01*
X43204383Y-24486760D01*
X42964785Y-24408910D01*
X42715962Y-24369500D01*
X42464038Y-24369500D01*
X42339626Y-24389205D01*
X42215214Y-24408910D01*
X41975616Y-24486760D01*
X41751151Y-24601132D01*
X41547350Y-24749201D01*
X41547345Y-24749205D01*
X41369205Y-24927345D01*
X41369201Y-24927350D01*
X41221132Y-25131151D01*
X41106760Y-25355616D01*
X41028910Y-25595214D01*
X40989500Y-25844038D01*
X40989500Y-26095961D01*
X41028910Y-26344785D01*
X41106760Y-26584383D01*
X41221132Y-26808848D01*
X41369201Y-27012649D01*
X41369205Y-27012654D01*
X41547345Y-27190794D01*
X41547350Y-27190798D01*
X41725117Y-27319952D01*
X41751155Y-27338870D01*
X41894184Y-27411747D01*
X41975616Y-27453239D01*
X41975618Y-27453239D01*
X41975621Y-27453241D01*
X42215215Y-27531090D01*
X42464038Y-27570500D01*
X42464039Y-27570500D01*
X42715961Y-27570500D01*
X42715962Y-27570500D01*
X42964785Y-27531090D01*
X43204379Y-27453241D01*
X43428845Y-27338870D01*
X43632656Y-27190793D01*
X43810793Y-27012656D01*
X43958870Y-26808845D01*
X44020339Y-26688205D01*
X44068314Y-26637409D01*
X44130824Y-26620500D01*
X46899192Y-26620500D01*
X46966231Y-26640185D01*
X46986873Y-26656819D01*
X49063181Y-28733127D01*
X49096666Y-28794450D01*
X49099500Y-28820808D01*
X49099500Y-46630191D01*
X49079815Y-46697230D01*
X49027011Y-46742985D01*
X48957853Y-46752929D01*
X48894297Y-46723904D01*
X48887819Y-46717872D01*
X46684673Y-44514726D01*
X46578134Y-44443540D01*
X46578127Y-44443535D01*
X46459744Y-44394499D01*
X46459738Y-44394497D01*
X46334071Y-44369500D01*
X46334069Y-44369500D01*
X44130824Y-44369500D01*
X44063785Y-44349815D01*
X44020339Y-44301795D01*
X44009093Y-44279724D01*
X43958870Y-44181155D01*
X43939952Y-44155117D01*
X43810798Y-43977350D01*
X43810794Y-43977345D01*
X43632654Y-43799205D01*
X43632649Y-43799201D01*
X43428848Y-43651132D01*
X43428847Y-43651131D01*
X43428845Y-43651130D01*
X43358747Y-43615413D01*
X43204383Y-43536760D01*
X42964785Y-43458910D01*
X42715962Y-43419500D01*
X42464038Y-43419500D01*
X42339626Y-43439205D01*
X42215214Y-43458910D01*
X41975616Y-43536760D01*
X41751151Y-43651132D01*
X41547350Y-43799201D01*
X41547345Y-43799205D01*
X41369205Y-43977345D01*
X41369201Y-43977350D01*
X41221132Y-44181151D01*
X41106760Y-44405616D01*
X41028910Y-44645214D01*
X40989500Y-44894038D01*
X40989500Y-45145961D01*
X41028910Y-45394785D01*
X41106760Y-45634383D01*
X41221132Y-45858848D01*
X41369201Y-46062649D01*
X41369205Y-46062654D01*
X41547345Y-46240794D01*
X41547350Y-46240798D01*
X41725117Y-46369952D01*
X41751155Y-46388870D01*
X41879963Y-46454501D01*
X41975616Y-46503239D01*
X41975618Y-46503239D01*
X41975621Y-46503241D01*
X42215215Y-46581090D01*
X42464038Y-46620500D01*
X42464039Y-46620500D01*
X42715961Y-46620500D01*
X42715962Y-46620500D01*
X42964785Y-46581090D01*
X43204379Y-46503241D01*
X43428845Y-46388870D01*
X43632656Y-46240793D01*
X43810793Y-46062656D01*
X43958870Y-45858845D01*
X44020339Y-45738205D01*
X44068314Y-45687409D01*
X44130824Y-45670500D01*
X45949192Y-45670500D01*
X46016231Y-45690185D01*
X46036873Y-45706819D01*
X48313181Y-47983127D01*
X48346666Y-48044450D01*
X48349500Y-48070808D01*
X48349500Y-65380191D01*
X48329815Y-65447230D01*
X48277011Y-65492985D01*
X48207853Y-65502929D01*
X48144297Y-65473904D01*
X48137819Y-65467872D01*
X46234673Y-63564726D01*
X46234669Y-63564723D01*
X46128127Y-63493535D01*
X46009744Y-63444499D01*
X46009738Y-63444497D01*
X45884071Y-63419500D01*
X45884069Y-63419500D01*
X44130824Y-63419500D01*
X44063785Y-63399815D01*
X44020339Y-63351795D01*
X44009093Y-63329724D01*
X43958870Y-63231155D01*
X43939952Y-63205117D01*
X43810798Y-63027350D01*
X43810794Y-63027345D01*
X43632654Y-62849205D01*
X43632649Y-62849201D01*
X43428848Y-62701132D01*
X43428847Y-62701131D01*
X43428845Y-62701130D01*
X43358747Y-62665413D01*
X43204383Y-62586760D01*
X42964785Y-62508910D01*
X42715962Y-62469500D01*
X42464038Y-62469500D01*
X42339626Y-62489205D01*
X42215214Y-62508910D01*
X41975616Y-62586760D01*
X41751151Y-62701132D01*
X41547350Y-62849201D01*
X41547345Y-62849205D01*
X41369205Y-63027345D01*
X41369201Y-63027350D01*
X41221132Y-63231151D01*
X41106760Y-63455616D01*
X41028910Y-63695214D01*
X40989500Y-63944038D01*
X40989500Y-64195961D01*
X41028910Y-64444785D01*
X41106760Y-64684383D01*
X41221132Y-64908848D01*
X41369201Y-65112649D01*
X41369205Y-65112654D01*
X41547345Y-65290794D01*
X41547350Y-65290798D01*
X41725117Y-65419952D01*
X41751155Y-65438870D01*
X41873793Y-65501357D01*
X41975616Y-65553239D01*
X41975618Y-65553239D01*
X41975621Y-65553241D01*
X42215215Y-65631090D01*
X42464038Y-65670500D01*
X42464039Y-65670500D01*
X42715961Y-65670500D01*
X42715962Y-65670500D01*
X42964785Y-65631090D01*
X43204379Y-65553241D01*
X43428845Y-65438870D01*
X43632656Y-65290793D01*
X43810793Y-65112656D01*
X43958870Y-64908845D01*
X44020339Y-64788205D01*
X44068314Y-64737409D01*
X44130824Y-64720500D01*
X45499192Y-64720500D01*
X45566231Y-64740185D01*
X45586873Y-64756819D01*
X47563181Y-66733127D01*
X47596666Y-66794450D01*
X47599500Y-66820808D01*
X47599500Y-72179192D01*
X47579815Y-72246231D01*
X47563181Y-72266873D01*
X42766873Y-77063181D01*
X42705550Y-77096666D01*
X42679192Y-77099500D01*
X36397757Y-77099500D01*
X36330718Y-77079815D01*
X36284963Y-77027011D01*
X36275019Y-76957853D01*
X36276140Y-76951308D01*
X36300500Y-76828844D01*
X36300500Y-73796155D01*
X36300499Y-73796153D01*
X36269738Y-73641510D01*
X36269737Y-73641503D01*
X36269735Y-73641498D01*
X36209397Y-73495827D01*
X36209390Y-73495814D01*
X36121789Y-73364711D01*
X36121786Y-73364707D01*
X36010292Y-73253213D01*
X36010288Y-73253210D01*
X35904492Y-73182519D01*
X35879185Y-73165609D01*
X35879172Y-73165602D01*
X35733501Y-73105264D01*
X35733489Y-73105261D01*
X35727557Y-73104081D01*
X38274500Y-73104081D01*
X38274500Y-73104082D01*
X38274500Y-76145918D01*
X38304082Y-76175500D01*
X41745918Y-76175500D01*
X41775500Y-76145918D01*
X41775500Y-73104082D01*
X41745918Y-73074500D01*
X38345918Y-73074500D01*
X38304082Y-73074500D01*
X38304081Y-73074500D01*
X38274500Y-73104081D01*
X35727557Y-73104081D01*
X35578845Y-73074500D01*
X35578842Y-73074500D01*
X35421158Y-73074500D01*
X35421155Y-73074500D01*
X35266510Y-73105261D01*
X35266498Y-73105264D01*
X35120827Y-73165602D01*
X35120814Y-73165609D01*
X34989711Y-73253210D01*
X34989707Y-73253213D01*
X34878213Y-73364707D01*
X34878210Y-73364711D01*
X34790609Y-73495814D01*
X34790602Y-73495827D01*
X34730264Y-73641498D01*
X34730261Y-73641510D01*
X34699500Y-73796153D01*
X34699500Y-73796158D01*
X34699500Y-76671158D01*
X34699500Y-76828842D01*
X34699500Y-76828844D01*
X34699499Y-76828844D01*
X34723860Y-76951308D01*
X34717633Y-77020900D01*
X34674770Y-77076077D01*
X34608880Y-77099322D01*
X34602243Y-77099500D01*
X26319057Y-77099500D01*
X26252018Y-77079815D01*
X26206263Y-77027011D01*
X26196319Y-76957853D01*
X26219790Y-76901189D01*
X26293796Y-76802331D01*
X26344091Y-76667483D01*
X26350500Y-76607873D01*
X26350499Y-74812128D01*
X26344091Y-74752517D01*
X26342810Y-74749083D01*
X26293797Y-74617671D01*
X26293793Y-74617664D01*
X26207547Y-74502455D01*
X26207544Y-74502452D01*
X26092335Y-74416206D01*
X26092328Y-74416202D01*
X25957482Y-74365908D01*
X25957483Y-74365908D01*
X25897883Y-74359501D01*
X25897881Y-74359500D01*
X25897873Y-74359500D01*
X25897864Y-74359500D01*
X24102129Y-74359500D01*
X24102123Y-74359501D01*
X24042516Y-74365908D01*
X23907671Y-74416202D01*
X23907664Y-74416206D01*
X23792455Y-74502452D01*
X23792452Y-74502455D01*
X23706206Y-74617664D01*
X23706203Y-74617669D01*
X23657189Y-74749083D01*
X23615317Y-74805016D01*
X23549853Y-74829433D01*
X23481580Y-74814581D01*
X23453326Y-74793430D01*
X23339786Y-74679890D01*
X23167820Y-74554951D01*
X22978414Y-74458444D01*
X22978413Y-74458443D01*
X22978412Y-74458443D01*
X22776243Y-74392754D01*
X22776241Y-74392753D01*
X22776240Y-74392753D01*
X22614957Y-74367208D01*
X22566287Y-74359500D01*
X22353713Y-74359500D01*
X22305042Y-74367208D01*
X22143760Y-74392753D01*
X21941585Y-74458444D01*
X21752179Y-74554951D01*
X21580213Y-74679890D01*
X21429890Y-74830213D01*
X21304951Y-75002179D01*
X21208444Y-75191585D01*
X21142753Y-75393760D01*
X21139441Y-75414672D01*
X21109500Y-75603713D01*
X21109500Y-75816287D01*
X21142754Y-76026243D01*
X21191250Y-76175499D01*
X21208444Y-76228414D01*
X21304951Y-76417820D01*
X21429890Y-76589786D01*
X21580213Y-76740109D01*
X21752182Y-76865050D01*
X21760946Y-76869516D01*
X21811742Y-76917491D01*
X21828536Y-76985312D01*
X21805998Y-77051447D01*
X21760946Y-77090484D01*
X21752182Y-77094949D01*
X21580213Y-77219890D01*
X21429890Y-77370213D01*
X21304951Y-77542179D01*
X21208444Y-77731585D01*
X21142753Y-77933760D01*
X21109500Y-78143713D01*
X21109500Y-78356286D01*
X21142753Y-78566239D01*
X21208444Y-78768414D01*
X21304951Y-78957820D01*
X21429890Y-79129786D01*
X21580213Y-79280109D01*
X21752182Y-79405050D01*
X21760946Y-79409516D01*
X21811742Y-79457491D01*
X21828536Y-79525312D01*
X21805998Y-79591447D01*
X21760946Y-79630484D01*
X21752182Y-79634949D01*
X21580213Y-79759890D01*
X21429890Y-79910213D01*
X21304951Y-80082179D01*
X21208444Y-80271585D01*
X21142753Y-80473760D01*
X21109500Y-80683713D01*
X21109500Y-80896286D01*
X21142753Y-81106239D01*
X21208444Y-81308414D01*
X21304951Y-81497820D01*
X21429890Y-81669786D01*
X21580213Y-81820109D01*
X21752182Y-81945050D01*
X21760946Y-81949516D01*
X21811742Y-81997491D01*
X21828536Y-82065312D01*
X21805998Y-82131447D01*
X21760946Y-82170484D01*
X21752182Y-82174949D01*
X21580213Y-82299890D01*
X21429890Y-82450213D01*
X21304951Y-82622179D01*
X21208444Y-82811585D01*
X21142753Y-83013760D01*
X21109500Y-83223713D01*
X21109500Y-83436287D01*
X21142754Y-83646243D01*
X21171391Y-83734379D01*
X21208444Y-83848414D01*
X21304951Y-84037820D01*
X21429890Y-84209786D01*
X21580213Y-84360109D01*
X21752182Y-84485050D01*
X21760946Y-84489516D01*
X21811742Y-84537491D01*
X21828536Y-84605312D01*
X21805998Y-84671447D01*
X21760946Y-84710484D01*
X21752182Y-84714949D01*
X21580213Y-84839890D01*
X21429890Y-84990213D01*
X21304951Y-85162179D01*
X21208444Y-85351585D01*
X21208443Y-85351587D01*
X21208443Y-85351588D01*
X21200673Y-85375501D01*
X21142753Y-85553760D01*
X21109500Y-85763713D01*
X21109500Y-85976287D01*
X21118765Y-86034785D01*
X21141330Y-86177257D01*
X21142754Y-86186243D01*
X21187761Y-86324761D01*
X21208444Y-86388414D01*
X21304951Y-86577820D01*
X21429890Y-86749786D01*
X21580213Y-86900109D01*
X21752182Y-87025050D01*
X21760946Y-87029516D01*
X21811742Y-87077491D01*
X21828536Y-87145312D01*
X21805998Y-87211447D01*
X21760946Y-87250484D01*
X21752182Y-87254949D01*
X21580213Y-87379890D01*
X21429890Y-87530213D01*
X21304951Y-87702179D01*
X21208444Y-87891585D01*
X21142753Y-88093760D01*
X21109500Y-88303713D01*
X21109500Y-88516286D01*
X21143516Y-88731055D01*
X21141877Y-88731314D01*
X21138738Y-88793883D01*
X21109342Y-88840710D01*
X20494726Y-89455326D01*
X20423534Y-89561874D01*
X20374499Y-89680255D01*
X20374497Y-89680261D01*
X20349500Y-89805928D01*
X20349500Y-89805931D01*
X20349500Y-91814069D01*
X20349500Y-91814071D01*
X20349499Y-91814071D01*
X20050500Y-91814071D01*
X20050500Y-69002486D01*
X37799500Y-69002486D01*
X37799500Y-69297513D01*
X37831571Y-69541113D01*
X37838007Y-69589993D01*
X37838008Y-69589995D01*
X37914361Y-69874951D01*
X37914364Y-69874961D01*
X38027254Y-70147500D01*
X38027258Y-70147510D01*
X38174761Y-70402993D01*
X38354352Y-70637040D01*
X38354358Y-70637047D01*
X38562952Y-70845641D01*
X38562959Y-70845647D01*
X38797006Y-71025238D01*
X39052489Y-71172741D01*
X39052490Y-71172741D01*
X39052493Y-71172743D01*
X39325048Y-71285639D01*
X39610007Y-71361993D01*
X39902494Y-71400500D01*
X39902501Y-71400500D01*
X40197499Y-71400500D01*
X40197506Y-71400500D01*
X40489993Y-71361993D01*
X40774952Y-71285639D01*
X41047507Y-71172743D01*
X41302994Y-71025238D01*
X41537042Y-70845646D01*
X41745646Y-70637042D01*
X41925238Y-70402994D01*
X42072743Y-70147507D01*
X42185639Y-69874952D01*
X42261993Y-69589993D01*
X42300500Y-69297506D01*
X42300500Y-69002494D01*
X42261993Y-68710007D01*
X42185639Y-68425048D01*
X42072743Y-68152493D01*
X41925238Y-67897006D01*
X41745646Y-67662958D01*
X41745641Y-67662952D01*
X41537047Y-67454358D01*
X41537040Y-67454352D01*
X41302993Y-67274761D01*
X41047510Y-67127258D01*
X41047500Y-67127254D01*
X40774961Y-67014364D01*
X40774954Y-67014362D01*
X40774952Y-67014361D01*
X40489993Y-66938007D01*
X40441113Y-66931571D01*
X40197513Y-66899500D01*
X40197506Y-66899500D01*
X39902494Y-66899500D01*
X39902486Y-66899500D01*
X39624085Y-66936153D01*
X39610007Y-66938007D01*
X39435428Y-66984785D01*
X39325048Y-67014361D01*
X39325038Y-67014364D01*
X39052499Y-67127254D01*
X39052489Y-67127258D01*
X38797006Y-67274761D01*
X38562959Y-67454352D01*
X38562952Y-67454358D01*
X38354358Y-67662952D01*
X38354352Y-67662959D01*
X38174761Y-67897006D01*
X38027258Y-68152489D01*
X38027254Y-68152499D01*
X37914364Y-68425038D01*
X37914361Y-68425048D01*
X37838008Y-68710004D01*
X37838006Y-68710015D01*
X37799500Y-69002486D01*
X20050500Y-69002486D01*
X20050500Y-66484038D01*
X34639500Y-66484038D01*
X34639500Y-66735962D01*
X34648764Y-66794450D01*
X34678910Y-66984785D01*
X34756760Y-67224383D01*
X34871132Y-67448848D01*
X35019201Y-67652649D01*
X35019205Y-67652654D01*
X35197345Y-67830794D01*
X35197350Y-67830798D01*
X35375117Y-67959952D01*
X35401155Y-67978870D01*
X35544184Y-68051747D01*
X35625616Y-68093239D01*
X35625618Y-68093239D01*
X35625621Y-68093241D01*
X35865215Y-68171090D01*
X36114038Y-68210500D01*
X36114039Y-68210500D01*
X36365961Y-68210500D01*
X36365962Y-68210500D01*
X36614785Y-68171090D01*
X36854379Y-68093241D01*
X37078845Y-67978870D01*
X37282656Y-67830793D01*
X37460793Y-67652656D01*
X37608870Y-67448845D01*
X37723241Y-67224379D01*
X37801090Y-66984785D01*
X37840500Y-66735962D01*
X37840500Y-66484038D01*
X37801090Y-66235215D01*
X37723241Y-65995621D01*
X37723239Y-65995618D01*
X37723239Y-65995616D01*
X37648193Y-65848331D01*
X37608870Y-65771155D01*
X37507107Y-65631090D01*
X37460798Y-65567350D01*
X37460794Y-65567345D01*
X37282654Y-65389205D01*
X37282649Y-65389201D01*
X37078848Y-65241132D01*
X37078847Y-65241131D01*
X37078845Y-65241130D01*
X37008747Y-65205413D01*
X36854383Y-65126760D01*
X36614785Y-65048910D01*
X36365962Y-65009500D01*
X36114038Y-65009500D01*
X35989626Y-65029205D01*
X35865214Y-65048910D01*
X35625616Y-65126760D01*
X35401151Y-65241132D01*
X35197350Y-65389201D01*
X35197345Y-65389205D01*
X35019205Y-65567345D01*
X35019201Y-65567350D01*
X34871132Y-65771151D01*
X34756760Y-65995616D01*
X34678910Y-66235214D01*
X34678910Y-66235215D01*
X34639500Y-66484038D01*
X20050500Y-66484038D01*
X20050500Y-57514225D01*
X23499500Y-57514225D01*
X23499500Y-57750420D01*
X23536446Y-57983691D01*
X23609433Y-58208319D01*
X23716657Y-58418756D01*
X23855483Y-58609833D01*
X24022490Y-58776840D01*
X24213567Y-58915666D01*
X24299380Y-58959390D01*
X24424003Y-59022889D01*
X24424005Y-59022889D01*
X24424008Y-59022891D01*
X24544412Y-59062012D01*
X24648631Y-59095876D01*
X24881903Y-59132823D01*
X24881908Y-59132823D01*
X25118097Y-59132823D01*
X25351368Y-59095876D01*
X25575992Y-59022891D01*
X25786433Y-58915666D01*
X25977510Y-58776840D01*
X26144517Y-58609833D01*
X26283343Y-58418756D01*
X26390568Y-58208315D01*
X26463553Y-57983691D01*
X26500500Y-57750420D01*
X26500500Y-57514225D01*
X26463553Y-57280954D01*
X26413042Y-57125499D01*
X26390568Y-57056331D01*
X26390566Y-57056328D01*
X26390566Y-57056326D01*
X26283342Y-56845889D01*
X26144517Y-56654813D01*
X25977510Y-56487806D01*
X25786433Y-56348980D01*
X25575996Y-56241756D01*
X25351368Y-56168769D01*
X25118097Y-56131823D01*
X25118092Y-56131823D01*
X24881908Y-56131823D01*
X24881903Y-56131823D01*
X24648631Y-56168769D01*
X24424003Y-56241756D01*
X24213566Y-56348980D01*
X24104550Y-56428185D01*
X24022490Y-56487806D01*
X24022488Y-56487808D01*
X24022487Y-56487808D01*
X23855485Y-56654810D01*
X23855485Y-56654811D01*
X23855483Y-56654813D01*
X23795862Y-56736873D01*
X23716657Y-56845889D01*
X23609433Y-57056326D01*
X23536446Y-57280954D01*
X23499500Y-57514225D01*
X20050500Y-57514225D01*
X20050500Y-54746153D01*
X34699500Y-54746153D01*
X34699500Y-58328846D01*
X34730261Y-58483489D01*
X34730264Y-58483501D01*
X34790602Y-58629172D01*
X34790609Y-58629185D01*
X34878210Y-58760288D01*
X34878213Y-58760292D01*
X34989707Y-58871786D01*
X34989711Y-58871789D01*
X35120814Y-58959390D01*
X35120827Y-58959397D01*
X35266498Y-59019735D01*
X35266503Y-59019737D01*
X35421153Y-59050499D01*
X35421156Y-59050500D01*
X35421158Y-59050500D01*
X35578844Y-59050500D01*
X35578845Y-59050499D01*
X35733497Y-59019737D01*
X35879179Y-58959394D01*
X36010289Y-58871789D01*
X36121789Y-58760289D01*
X36209394Y-58629179D01*
X36217407Y-58609835D01*
X36269735Y-58483501D01*
X36269737Y-58483497D01*
X36300500Y-58328842D01*
X36300500Y-58171158D01*
X36300500Y-54746158D01*
X36300500Y-54746155D01*
X36300499Y-54746153D01*
X36269738Y-54591510D01*
X36269737Y-54591503D01*
X36269735Y-54591498D01*
X36209397Y-54445827D01*
X36209390Y-54445814D01*
X36121789Y-54314711D01*
X36121786Y-54314707D01*
X36010292Y-54203213D01*
X36010288Y-54203210D01*
X35904492Y-54132519D01*
X35879185Y-54115609D01*
X35879172Y-54115602D01*
X35733501Y-54055264D01*
X35733489Y-54055261D01*
X35727557Y-54054081D01*
X38274500Y-54054081D01*
X38274500Y-54054082D01*
X38274500Y-57095918D01*
X38304082Y-57125500D01*
X41745918Y-57125500D01*
X41775500Y-57095918D01*
X41775500Y-54054082D01*
X41745918Y-54024500D01*
X38345918Y-54024500D01*
X38304082Y-54024500D01*
X38304081Y-54024500D01*
X38274500Y-54054081D01*
X35727557Y-54054081D01*
X35578845Y-54024500D01*
X35578842Y-54024500D01*
X35421158Y-54024500D01*
X35421155Y-54024500D01*
X35266510Y-54055261D01*
X35266498Y-54055264D01*
X35120827Y-54115602D01*
X35120814Y-54115609D01*
X34989711Y-54203210D01*
X34989707Y-54203213D01*
X34878213Y-54314707D01*
X34878210Y-54314711D01*
X34790609Y-54445814D01*
X34790602Y-54445827D01*
X34730264Y-54591498D01*
X34730261Y-54591510D01*
X34699500Y-54746153D01*
X20050500Y-54746153D01*
X20050500Y-51832336D01*
X23500000Y-51832336D01*
X23500000Y-52382323D01*
X24566988Y-52382323D01*
X24534075Y-52439330D01*
X24500000Y-52566497D01*
X24500000Y-52698149D01*
X24534075Y-52825316D01*
X24566988Y-52882323D01*
X23500001Y-52882323D01*
X23500001Y-53432309D01*
X23510494Y-53535020D01*
X23565641Y-53701442D01*
X23565643Y-53701447D01*
X23657684Y-53850668D01*
X23781654Y-53974638D01*
X23930875Y-54066679D01*
X23930880Y-54066681D01*
X24097302Y-54121828D01*
X24097309Y-54121829D01*
X24200019Y-54132322D01*
X24749999Y-54132322D01*
X24750000Y-54132321D01*
X24750000Y-53065335D01*
X24807007Y-53098248D01*
X24934174Y-53132323D01*
X25065826Y-53132323D01*
X25192993Y-53098248D01*
X25250000Y-53065335D01*
X25250000Y-54132322D01*
X25799972Y-54132322D01*
X25799986Y-54132321D01*
X25902697Y-54121828D01*
X26069119Y-54066681D01*
X26069124Y-54066679D01*
X26218345Y-53974638D01*
X26342315Y-53850668D01*
X26434356Y-53701447D01*
X26434358Y-53701442D01*
X26489505Y-53535020D01*
X26489506Y-53535013D01*
X26499999Y-53432309D01*
X26500000Y-53432296D01*
X26500000Y-52882323D01*
X25433012Y-52882323D01*
X25465925Y-52825316D01*
X25500000Y-52698149D01*
X25500000Y-52566497D01*
X25465925Y-52439330D01*
X25433012Y-52382323D01*
X26499999Y-52382323D01*
X26499999Y-51832351D01*
X26499998Y-51832336D01*
X26489505Y-51729625D01*
X26434358Y-51563203D01*
X26434356Y-51563198D01*
X26342315Y-51413977D01*
X26218345Y-51290007D01*
X26069124Y-51197966D01*
X26069119Y-51197964D01*
X25902697Y-51142817D01*
X25902690Y-51142816D01*
X25799986Y-51132323D01*
X25250000Y-51132323D01*
X25250000Y-52199311D01*
X25192993Y-52166398D01*
X25065826Y-52132323D01*
X24934174Y-52132323D01*
X24807007Y-52166398D01*
X24750000Y-52199311D01*
X24750000Y-51132323D01*
X24200028Y-51132323D01*
X24200012Y-51132324D01*
X24097302Y-51142817D01*
X23930880Y-51197964D01*
X23930875Y-51197966D01*
X23781654Y-51290007D01*
X23657684Y-51413977D01*
X23565643Y-51563198D01*
X23565641Y-51563203D01*
X23510494Y-51729625D01*
X23510493Y-51729632D01*
X23500000Y-51832336D01*
X20050500Y-51832336D01*
X20050500Y-49952486D01*
X37799500Y-49952486D01*
X37799500Y-50247513D01*
X37831571Y-50491113D01*
X37838007Y-50539993D01*
X37838008Y-50539995D01*
X37914361Y-50824951D01*
X37914364Y-50824961D01*
X38027254Y-51097500D01*
X38027258Y-51097510D01*
X38174761Y-51352993D01*
X38354352Y-51587040D01*
X38354358Y-51587047D01*
X38562952Y-51795641D01*
X38562959Y-51795647D01*
X38797006Y-51975238D01*
X39052489Y-52122741D01*
X39052490Y-52122741D01*
X39052493Y-52122743D01*
X39325048Y-52235639D01*
X39610007Y-52311993D01*
X39902494Y-52350500D01*
X39902501Y-52350500D01*
X40197499Y-52350500D01*
X40197506Y-52350500D01*
X40489993Y-52311993D01*
X40774952Y-52235639D01*
X41047507Y-52122743D01*
X41302994Y-51975238D01*
X41537042Y-51795646D01*
X41745646Y-51587042D01*
X41925238Y-51352994D01*
X42072743Y-51097507D01*
X42185639Y-50824952D01*
X42261993Y-50539993D01*
X42300500Y-50247506D01*
X42300500Y-49952494D01*
X42261993Y-49660007D01*
X42185639Y-49375048D01*
X42072743Y-49102493D01*
X41925238Y-48847006D01*
X41745646Y-48612958D01*
X41745641Y-48612952D01*
X41537047Y-48404358D01*
X41537040Y-48404352D01*
X41302993Y-48224761D01*
X41047510Y-48077258D01*
X41047500Y-48077254D01*
X40774961Y-47964364D01*
X40774954Y-47964362D01*
X40774952Y-47964361D01*
X40489993Y-47888007D01*
X40441113Y-47881571D01*
X40197513Y-47849500D01*
X40197506Y-47849500D01*
X39902494Y-47849500D01*
X39902486Y-47849500D01*
X39624085Y-47886153D01*
X39610007Y-47888007D01*
X39435428Y-47934785D01*
X39325048Y-47964361D01*
X39325038Y-47964364D01*
X39052499Y-48077254D01*
X39052489Y-48077258D01*
X38797006Y-48224761D01*
X38562959Y-48404352D01*
X38562952Y-48404358D01*
X38354358Y-48612952D01*
X38354352Y-48612959D01*
X38174761Y-48847006D01*
X38027258Y-49102489D01*
X38027254Y-49102499D01*
X37914364Y-49375038D01*
X37914361Y-49375048D01*
X37838008Y-49660004D01*
X37838006Y-49660015D01*
X37799500Y-49952486D01*
X20050500Y-49952486D01*
X20050500Y-47434038D01*
X34639500Y-47434038D01*
X34639500Y-47685961D01*
X34678910Y-47934785D01*
X34756760Y-48174383D01*
X34871132Y-48398848D01*
X35019201Y-48602649D01*
X35019205Y-48602654D01*
X35197345Y-48780794D01*
X35197350Y-48780798D01*
X35375117Y-48909952D01*
X35401155Y-48928870D01*
X35544184Y-49001747D01*
X35625616Y-49043239D01*
X35625618Y-49043239D01*
X35625621Y-49043241D01*
X35865215Y-49121090D01*
X36114038Y-49160500D01*
X36114039Y-49160500D01*
X36365961Y-49160500D01*
X36365962Y-49160500D01*
X36614785Y-49121090D01*
X36854379Y-49043241D01*
X37078845Y-48928870D01*
X37282656Y-48780793D01*
X37460793Y-48602656D01*
X37608870Y-48398845D01*
X37723241Y-48174379D01*
X37801090Y-47934785D01*
X37840500Y-47685962D01*
X37840500Y-47434038D01*
X37801090Y-47185215D01*
X37723241Y-46945621D01*
X37723239Y-46945618D01*
X37723239Y-46945616D01*
X37681747Y-46864184D01*
X37608870Y-46721155D01*
X37507107Y-46581090D01*
X37460798Y-46517350D01*
X37460794Y-46517345D01*
X37282654Y-46339205D01*
X37282649Y-46339201D01*
X37078848Y-46191132D01*
X37078847Y-46191131D01*
X37078845Y-46191130D01*
X37008747Y-46155413D01*
X36854383Y-46076760D01*
X36614785Y-45998910D01*
X36365962Y-45959500D01*
X36114038Y-45959500D01*
X35989626Y-45979205D01*
X35865214Y-45998910D01*
X35625616Y-46076760D01*
X35401151Y-46191132D01*
X35197350Y-46339201D01*
X35197345Y-46339205D01*
X35019205Y-46517345D01*
X35019201Y-46517350D01*
X34871132Y-46721151D01*
X34756760Y-46945616D01*
X34678910Y-47185214D01*
X34639500Y-47434038D01*
X20050500Y-47434038D01*
X20050500Y-36849983D01*
X23524500Y-36849983D01*
X23524500Y-38150001D01*
X23524501Y-38150018D01*
X23535000Y-38252796D01*
X23535001Y-38252799D01*
X23590185Y-38419331D01*
X23590187Y-38419336D01*
X23682289Y-38568657D01*
X23806344Y-38692712D01*
X23961120Y-38788178D01*
X24007845Y-38840126D01*
X24019068Y-38909088D01*
X23991224Y-38973171D01*
X23983706Y-38981398D01*
X23844889Y-39120215D01*
X23719951Y-39292179D01*
X23623444Y-39481585D01*
X23557753Y-39683760D01*
X23524500Y-39893713D01*
X23524500Y-40106286D01*
X23557753Y-40316239D01*
X23623444Y-40518414D01*
X23719951Y-40707820D01*
X23844890Y-40879786D01*
X23995209Y-41030105D01*
X23995214Y-41030109D01*
X24160218Y-41149991D01*
X24202884Y-41205320D01*
X24208863Y-41274934D01*
X24176258Y-41336729D01*
X24160218Y-41350627D01*
X23995540Y-41470272D01*
X23995535Y-41470276D01*
X23845276Y-41620535D01*
X23845272Y-41620540D01*
X23720379Y-41792442D01*
X23623904Y-41981782D01*
X23558242Y-42183870D01*
X23558242Y-42183873D01*
X23547769Y-42250000D01*
X24595854Y-42250000D01*
X24557370Y-42316657D01*
X24525000Y-42437465D01*
X24525000Y-42562535D01*
X24557370Y-42683343D01*
X24595854Y-42750000D01*
X23547769Y-42750000D01*
X23558242Y-42816126D01*
X23558242Y-42816129D01*
X23623904Y-43018217D01*
X23720379Y-43207557D01*
X23845272Y-43379459D01*
X23845276Y-43379464D01*
X23995535Y-43529723D01*
X23995540Y-43529727D01*
X24167442Y-43654620D01*
X24356782Y-43751095D01*
X24558872Y-43816757D01*
X24750000Y-43847029D01*
X24750000Y-42904145D01*
X24816657Y-42942630D01*
X24937465Y-42975000D01*
X25062535Y-42975000D01*
X25183343Y-42942630D01*
X25250000Y-42904145D01*
X25250000Y-43847028D01*
X25441127Y-43816757D01*
X25643217Y-43751095D01*
X25832557Y-43654620D01*
X26004459Y-43529727D01*
X26004464Y-43529723D01*
X26154723Y-43379464D01*
X26154727Y-43379459D01*
X26279620Y-43207557D01*
X26376095Y-43018217D01*
X26441757Y-42816129D01*
X26441757Y-42816126D01*
X26452231Y-42750000D01*
X25404146Y-42750000D01*
X25442630Y-42683343D01*
X25475000Y-42562535D01*
X25475000Y-42437465D01*
X25442630Y-42316657D01*
X25404146Y-42250000D01*
X26452231Y-42250000D01*
X26441757Y-42183873D01*
X26441757Y-42183870D01*
X26376095Y-41981782D01*
X26279620Y-41792442D01*
X26154727Y-41620540D01*
X26154723Y-41620535D01*
X26004464Y-41470276D01*
X26004459Y-41470272D01*
X25839781Y-41350627D01*
X25797115Y-41295297D01*
X25791136Y-41225684D01*
X25823741Y-41163889D01*
X25839776Y-41149994D01*
X26004792Y-41030104D01*
X26155104Y-40879792D01*
X26155106Y-40879788D01*
X26155109Y-40879786D01*
X26280048Y-40707820D01*
X26280047Y-40707820D01*
X26280051Y-40707816D01*
X26376557Y-40518412D01*
X26442246Y-40316243D01*
X26475500Y-40106287D01*
X26475500Y-39893713D01*
X26442246Y-39683757D01*
X26376557Y-39481588D01*
X26280051Y-39292184D01*
X26280049Y-39292181D01*
X26280048Y-39292179D01*
X26155109Y-39120213D01*
X26016294Y-38981398D01*
X25982809Y-38920075D01*
X25987793Y-38850383D01*
X26029665Y-38794450D01*
X26038879Y-38788178D01*
X26044331Y-38784814D01*
X26044334Y-38784814D01*
X26193656Y-38692712D01*
X26317712Y-38568656D01*
X26409814Y-38419334D01*
X26464999Y-38252797D01*
X26475500Y-38150009D01*
X26475499Y-36849992D01*
X26464999Y-36747203D01*
X26409814Y-36580666D01*
X26317712Y-36431344D01*
X26193656Y-36307288D01*
X26044334Y-36215186D01*
X25877797Y-36160001D01*
X25877795Y-36160000D01*
X25775010Y-36149500D01*
X24224998Y-36149500D01*
X24224981Y-36149501D01*
X24122203Y-36160000D01*
X24122200Y-36160001D01*
X23955668Y-36215185D01*
X23955663Y-36215187D01*
X23806342Y-36307289D01*
X23682289Y-36431342D01*
X23590187Y-36580663D01*
X23590186Y-36580666D01*
X23535001Y-36747203D01*
X23535001Y-36747204D01*
X23535000Y-36747204D01*
X23524500Y-36849983D01*
X20050500Y-36849983D01*
X20050500Y-35696153D01*
X34699500Y-35696153D01*
X34699500Y-39328846D01*
X34730261Y-39483489D01*
X34730264Y-39483501D01*
X34790602Y-39629172D01*
X34790609Y-39629185D01*
X34878210Y-39760288D01*
X34878213Y-39760292D01*
X34989707Y-39871786D01*
X34989711Y-39871789D01*
X35120814Y-39959390D01*
X35120827Y-39959397D01*
X35266498Y-40019735D01*
X35266503Y-40019737D01*
X35421153Y-40050499D01*
X35421156Y-40050500D01*
X35421158Y-40050500D01*
X35578844Y-40050500D01*
X35578845Y-40050499D01*
X35733497Y-40019737D01*
X35879179Y-39959394D01*
X36010289Y-39871789D01*
X36121789Y-39760289D01*
X36209394Y-39629179D01*
X36269737Y-39483497D01*
X36300500Y-39328842D01*
X36300500Y-39171158D01*
X36300500Y-35696158D01*
X36300500Y-35696155D01*
X36300499Y-35696153D01*
X36295527Y-35671158D01*
X36269737Y-35541503D01*
X36259380Y-35516498D01*
X36209397Y-35395827D01*
X36209390Y-35395814D01*
X36121789Y-35264711D01*
X36121786Y-35264707D01*
X36010292Y-35153213D01*
X36010288Y-35153210D01*
X35904492Y-35082519D01*
X35879185Y-35065609D01*
X35879172Y-35065602D01*
X35733501Y-35005264D01*
X35733489Y-35005261D01*
X35727557Y-35004081D01*
X38274500Y-35004081D01*
X38274500Y-35004082D01*
X38274500Y-38045918D01*
X38304082Y-38075500D01*
X41745918Y-38075500D01*
X41775500Y-38045918D01*
X41775500Y-35004082D01*
X41745918Y-34974500D01*
X38345918Y-34974500D01*
X38304082Y-34974500D01*
X38304081Y-34974500D01*
X38274500Y-35004081D01*
X35727557Y-35004081D01*
X35578845Y-34974500D01*
X35578842Y-34974500D01*
X35421158Y-34974500D01*
X35421155Y-34974500D01*
X35266510Y-35005261D01*
X35266498Y-35005264D01*
X35120827Y-35065602D01*
X35120814Y-35065609D01*
X34989711Y-35153210D01*
X34989707Y-35153213D01*
X34878213Y-35264707D01*
X34878210Y-35264711D01*
X34790609Y-35395814D01*
X34790602Y-35395827D01*
X34730264Y-35541498D01*
X34730261Y-35541510D01*
X34699500Y-35696153D01*
X20050500Y-35696153D01*
X20050500Y-30902486D01*
X37799500Y-30902486D01*
X37799500Y-31197513D01*
X37831571Y-31441113D01*
X37838007Y-31489993D01*
X37838008Y-31489995D01*
X37914361Y-31774951D01*
X37914364Y-31774961D01*
X38027254Y-32047500D01*
X38027258Y-32047510D01*
X38174761Y-32302993D01*
X38354352Y-32537040D01*
X38354358Y-32537047D01*
X38562952Y-32745641D01*
X38562959Y-32745647D01*
X38797006Y-32925238D01*
X39052489Y-33072741D01*
X39052490Y-33072741D01*
X39052493Y-33072743D01*
X39325048Y-33185639D01*
X39610007Y-33261993D01*
X39902494Y-33300500D01*
X39902501Y-33300500D01*
X40197499Y-33300500D01*
X40197506Y-33300500D01*
X40489993Y-33261993D01*
X40774952Y-33185639D01*
X41047507Y-33072743D01*
X41302994Y-32925238D01*
X41537042Y-32745646D01*
X41745646Y-32537042D01*
X41925238Y-32302994D01*
X42072743Y-32047507D01*
X42185639Y-31774952D01*
X42261993Y-31489993D01*
X42300500Y-31197506D01*
X42300500Y-30902494D01*
X42261993Y-30610007D01*
X42185639Y-30325048D01*
X42072743Y-30052493D01*
X41925238Y-29797006D01*
X41745646Y-29562958D01*
X41745641Y-29562952D01*
X41537047Y-29354358D01*
X41537040Y-29354352D01*
X41302993Y-29174761D01*
X41047510Y-29027258D01*
X41047500Y-29027254D01*
X40774961Y-28914364D01*
X40774954Y-28914362D01*
X40774952Y-28914361D01*
X40489993Y-28838007D01*
X40441113Y-28831571D01*
X40197513Y-28799500D01*
X40197506Y-28799500D01*
X39902494Y-28799500D01*
X39902486Y-28799500D01*
X39624085Y-28836153D01*
X39610007Y-28838007D01*
X39435428Y-28884785D01*
X39325048Y-28914361D01*
X39325038Y-28914364D01*
X39052499Y-29027254D01*
X39052489Y-29027258D01*
X38797006Y-29174761D01*
X38562959Y-29354352D01*
X38562952Y-29354358D01*
X38354358Y-29562952D01*
X38354352Y-29562959D01*
X38174761Y-29797006D01*
X38027258Y-30052489D01*
X38027254Y-30052499D01*
X37914364Y-30325038D01*
X37914361Y-30325048D01*
X37838008Y-30610004D01*
X37838006Y-30610015D01*
X37799500Y-30902486D01*
X20050500Y-30902486D01*
X20050500Y-28384038D01*
X34639500Y-28384038D01*
X34639500Y-28635961D01*
X34678910Y-28884785D01*
X34756760Y-29124383D01*
X34871132Y-29348848D01*
X35019201Y-29552649D01*
X35019205Y-29552654D01*
X35197345Y-29730794D01*
X35197350Y-29730798D01*
X35375117Y-29859952D01*
X35401155Y-29878870D01*
X35544184Y-29951747D01*
X35625616Y-29993239D01*
X35625618Y-29993239D01*
X35625621Y-29993241D01*
X35865215Y-30071090D01*
X36114038Y-30110500D01*
X36114039Y-30110500D01*
X36365961Y-30110500D01*
X36365962Y-30110500D01*
X36614785Y-30071090D01*
X36854379Y-29993241D01*
X37078845Y-29878870D01*
X37282656Y-29730793D01*
X37460793Y-29552656D01*
X37608870Y-29348845D01*
X37723241Y-29124379D01*
X37801090Y-28884785D01*
X37840500Y-28635962D01*
X37840500Y-28384038D01*
X37801090Y-28135215D01*
X37723241Y-27895621D01*
X37723239Y-27895618D01*
X37723239Y-27895616D01*
X37681747Y-27814184D01*
X37608870Y-27671155D01*
X37507107Y-27531090D01*
X37460798Y-27467350D01*
X37460794Y-27467345D01*
X37282654Y-27289205D01*
X37282649Y-27289201D01*
X37078848Y-27141132D01*
X37078847Y-27141131D01*
X37078845Y-27141130D01*
X37008747Y-27105413D01*
X36854383Y-27026760D01*
X36614785Y-26948910D01*
X36365962Y-26909500D01*
X36114038Y-26909500D01*
X35989626Y-26929205D01*
X35865214Y-26948910D01*
X35625616Y-27026760D01*
X35401151Y-27141132D01*
X35197350Y-27289201D01*
X35197345Y-27289205D01*
X35019205Y-27467345D01*
X35019201Y-27467350D01*
X34871132Y-27671151D01*
X34756760Y-27895616D01*
X34678910Y-28135214D01*
X34639500Y-28384038D01*
X20050500Y-28384038D01*
X20050500Y-24881995D01*
X23199500Y-24881995D01*
X23199500Y-25118004D01*
X23199501Y-25118020D01*
X23229317Y-25344499D01*
X23230307Y-25352014D01*
X23241432Y-25393534D01*
X23291394Y-25579993D01*
X23381714Y-25798045D01*
X23381719Y-25798056D01*
X23452677Y-25920957D01*
X23499727Y-26002450D01*
X23499729Y-26002453D01*
X23499730Y-26002454D01*
X23643406Y-26189697D01*
X23643412Y-26189704D01*
X23810295Y-26356587D01*
X23810301Y-26356592D01*
X23997550Y-26500273D01*
X24128918Y-26576118D01*
X24201943Y-26618280D01*
X24201948Y-26618282D01*
X24201951Y-26618284D01*
X24420007Y-26708606D01*
X24647986Y-26769693D01*
X24881989Y-26800500D01*
X24881996Y-26800500D01*
X25118004Y-26800500D01*
X25118011Y-26800500D01*
X25352014Y-26769693D01*
X25579993Y-26708606D01*
X25798049Y-26618284D01*
X26002450Y-26500273D01*
X26189699Y-26356592D01*
X26356592Y-26189699D01*
X26500273Y-26002450D01*
X26618284Y-25798049D01*
X26708606Y-25579993D01*
X26769693Y-25352014D01*
X26800500Y-25118011D01*
X26800500Y-24881989D01*
X26769693Y-24647986D01*
X26708606Y-24420007D01*
X26618284Y-24201951D01*
X26618282Y-24201948D01*
X26618280Y-24201943D01*
X26533908Y-24055808D01*
X26500273Y-23997550D01*
X26356592Y-23810301D01*
X26356587Y-23810295D01*
X26189704Y-23643412D01*
X26189697Y-23643406D01*
X26002454Y-23499730D01*
X26002453Y-23499729D01*
X26002450Y-23499727D01*
X25920957Y-23452677D01*
X25798056Y-23381719D01*
X25798045Y-23381714D01*
X25579993Y-23291394D01*
X25352010Y-23230306D01*
X25118020Y-23199501D01*
X25118017Y-23199500D01*
X25118011Y-23199500D01*
X24881989Y-23199500D01*
X24881983Y-23199500D01*
X24881979Y-23199501D01*
X24647989Y-23230306D01*
X24420006Y-23291394D01*
X24201954Y-23381714D01*
X24201943Y-23381719D01*
X23997545Y-23499730D01*
X23810302Y-23643406D01*
X23810295Y-23643412D01*
X23643412Y-23810295D01*
X23643406Y-23810302D01*
X23499730Y-23997545D01*
X23381719Y-24201943D01*
X23381714Y-24201954D01*
X23291394Y-24420006D01*
X23230306Y-24647989D01*
X23199501Y-24881979D01*
X23199500Y-24881995D01*
X20050500Y-24881995D01*
X20050500Y-20174500D01*
X20070185Y-20107461D01*
X20122989Y-20061706D01*
X20174500Y-20050500D01*
X78925500Y-20050500D01*
X78992539Y-20070185D01*
G37*
%TD.AperFunction*%
%TD*%
M02*
