M48
; DRILL file {KiCad 9.0.9-1.fc43} date 2026-05-25T12:50:13+0200
; FORMAT={-:-/ absolute / metric / decimal}
; #@! TF.CreationDate,2026-05-25T12:50:13+02:00
; #@! TF.GenerationSoftware,Kicad,Pcbnew,9.0.9-1.fc43
; #@! TF.FileFunction,Plated,1,2,PTH
FMAT,2
METRIC
; #@! TA.AperFunction,Plated,PTH,ViaDrill
T1C0.300
; #@! TA.AperFunction,Plated,PTH,ViaDrill
T2C0.500
; #@! TA.AperFunction,Plated,PTH,ComponentDrill
T3C0.950
; #@! TA.AperFunction,Plated,PTH,ComponentDrill
T4C1.000
; #@! TA.AperFunction,Plated,PTH,ComponentDrill
T5C1.500
%
G90
G05
T1
X35.225Y-115.508
X35.25Y-112.0
X35.5Y-35.775
X35.5Y-39.25
X35.5Y-54.825
X35.5Y-58.25
X35.5Y-73.875
X35.5Y-76.75
X35.5Y-92.925
X35.5Y-96.5
X35.5Y-131.025
X35.5Y-134.5
X43.75Y-134.5
X48.5Y-123.75
X54.5Y-35.75
X54.5Y-39.25
X54.5Y-54.825
X54.5Y-58.5
X54.5Y-73.875
X54.5Y-77.5
X54.5Y-92.925
X54.5Y-96.5
X54.5Y-111.975
X54.5Y-115.5
X54.5Y-131.025
X54.5Y-134.5
X62.75Y-39.25
X62.75Y-58.5
X62.75Y-77.5
X62.75Y-96.5
X63.75Y-134.5
T2
X62.5Y-117.25
T3
X25.0Y-37.5
X25.0Y-40.0
X25.0Y-42.5
X25.0Y-114.75
X25.0Y-117.25
X25.0Y-119.75
T4
X22.46Y-75.71
X22.46Y-78.25
X22.46Y-80.79
X22.46Y-83.33
X22.46Y-85.87
X22.46Y-88.41
X22.46Y-90.95
X25.0Y-52.632
X25.0Y-57.632
X25.0Y-75.71
X25.0Y-78.25
X25.0Y-80.79
X25.0Y-83.33
X25.0Y-85.87
X25.0Y-88.41
X25.0Y-90.95
T5
X36.24Y-28.51
X36.24Y-47.56
X36.24Y-66.61
X36.24Y-85.66
X36.24Y-123.76
X36.29Y-104.71
X42.59Y-25.97
X42.59Y-45.02
X42.59Y-64.07
X42.59Y-83.12
X42.59Y-121.22
X42.64Y-102.17
X55.24Y-104.71
X55.29Y-28.51
X55.29Y-47.56
X55.29Y-66.61
X55.29Y-85.66
X55.29Y-123.76
X61.59Y-102.17
X61.64Y-25.97
X61.64Y-45.02
X61.64Y-64.07
X61.64Y-83.12
X61.64Y-121.22
M30
