%TF.GenerationSoftware,KiCad,Pcbnew,9.0.9-1.fc43*%
%TF.CreationDate,2026-05-25T12:50:11+02:00*%
%TF.ProjectId,Fader_taster_2x6,46616465-725f-4746-9173-7465725f3278,rev?*%
%TF.SameCoordinates,Original*%
%TF.FileFunction,Profile,NP*%
%FSLAX46Y46*%
G04 Gerber Fmt 4.6, Leading zero omitted, Abs format (unit mm)*
G04 Created by KiCad (PCBNEW 9.0.9-1.fc43) date 2026-05-25 12:50:11*
%MOMM*%
%LPD*%
G01*
G04 APERTURE LIST*
%TA.AperFunction,Profile*%
%ADD10C,0.050000*%
%TD*%
G04 APERTURE END LIST*
D10*
X26750000Y-132300000D02*
G75*
G02*
X23250000Y-132300000I-1750000J0D01*
G01*
X23250000Y-132300000D02*
G75*
G02*
X26750000Y-132300000I1750000J0D01*
G01*
X75850000Y-132300000D02*
G75*
G02*
X72350000Y-132300000I-1750000J0D01*
G01*
X72350000Y-132300000D02*
G75*
G02*
X75850000Y-132300000I1750000J0D01*
G01*
X75850000Y-25000000D02*
G75*
G02*
X72350000Y-25000000I-1750000J0D01*
G01*
X72350000Y-25000000D02*
G75*
G02*
X75850000Y-25000000I1750000J0D01*
G01*
X26750000Y-25000000D02*
G75*
G02*
X23250000Y-25000000I-1750000J0D01*
G01*
X23250000Y-25000000D02*
G75*
G02*
X26750000Y-25000000I1750000J0D01*
G01*
X20000000Y-20000000D02*
X79100000Y-20000000D01*
X79100000Y-137300000D01*
X20000000Y-137300000D01*
X20000000Y-20000000D01*
%TO.C,SW12*%
X57375000Y-130275000D02*
X60775000Y-130275000D01*
X60775000Y-133275000D01*
X57375000Y-133275000D01*
X57375000Y-130275000D01*
%TO.C,SW11*%
X38325000Y-130275000D02*
X41725000Y-130275000D01*
X41725000Y-133275000D01*
X38325000Y-133275000D01*
X38325000Y-130275000D01*
%TO.C,SW10*%
X57325000Y-111225000D02*
X60725000Y-111225000D01*
X60725000Y-114225000D01*
X57325000Y-114225000D01*
X57325000Y-111225000D01*
%TO.C,SW9*%
X38375000Y-111225000D02*
X41775000Y-111225000D01*
X41775000Y-114225000D01*
X38375000Y-114225000D01*
X38375000Y-111225000D01*
%TO.C,SW8*%
X57375000Y-92175000D02*
X60775000Y-92175000D01*
X60775000Y-95175000D01*
X57375000Y-95175000D01*
X57375000Y-92175000D01*
%TO.C,SW7*%
X38325000Y-92175000D02*
X41725000Y-92175000D01*
X41725000Y-95175000D01*
X38325000Y-95175000D01*
X38325000Y-92175000D01*
%TO.C,SW6*%
X57375000Y-73125000D02*
X60775000Y-73125000D01*
X60775000Y-76125000D01*
X57375000Y-76125000D01*
X57375000Y-73125000D01*
%TO.C,SW5*%
X38325000Y-73125000D02*
X41725000Y-73125000D01*
X41725000Y-76125000D01*
X38325000Y-76125000D01*
X38325000Y-73125000D01*
%TO.C,SW4*%
X57375000Y-54075000D02*
X60775000Y-54075000D01*
X60775000Y-57075000D01*
X57375000Y-57075000D01*
X57375000Y-54075000D01*
%TO.C,SW3*%
X38325000Y-54075000D02*
X41725000Y-54075000D01*
X41725000Y-57075000D01*
X38325000Y-57075000D01*
X38325000Y-54075000D01*
%TO.C,SW2*%
X57375000Y-35025000D02*
X60775000Y-35025000D01*
X60775000Y-38025000D01*
X57375000Y-38025000D01*
X57375000Y-35025000D01*
%TO.C,SW1*%
X38325000Y-35025000D02*
X41725000Y-35025000D01*
X41725000Y-38025000D01*
X38325000Y-38025000D01*
X38325000Y-35025000D01*
%TD*%
M02*
