%TF.GenerationSoftware,KiCad,Pcbnew,9.0.9-1.fc43*%
%TF.CreationDate,2026-05-25T12:50:10+02:00*%
%TF.ProjectId,Fader_taster_2x6,46616465-725f-4746-9173-7465725f3278,rev?*%
%TF.SameCoordinates,Original*%
%TF.FileFunction,Paste,Bot*%
%TF.FilePolarity,Positive*%
%FSLAX46Y46*%
G04 Gerber Fmt 4.6, Leading zero omitted, Abs format (unit mm)*
G04 Created by KiCad (PCBNEW 9.0.9-1.fc43) date 2026-05-25 12:50:10*
%MOMM*%
%LPD*%
G01*
G04 APERTURE LIST*
G04 Aperture macros list*
%AMRoundRect*
0 Rectangle with rounded corners*
0 $1 Rounding radius*
0 $2 $3 $4 $5 $6 $7 $8 $9 X,Y pos of 4 corners*
0 Add a 4 corners polygon primitive as box body*
4,1,4,$2,$3,$4,$5,$6,$7,$8,$9,$2,$3,0*
0 Add four circle primitives for the rounded corners*
1,1,$1+$1,$2,$3*
1,1,$1+$1,$4,$5*
1,1,$1+$1,$6,$7*
1,1,$1+$1,$8,$9*
0 Add four rect primitives between the rounded corners*
20,1,$1+$1,$2,$3,$4,$5,0*
20,1,$1+$1,$4,$5,$6,$7,0*
20,1,$1+$1,$6,$7,$8,$9,0*
20,1,$1+$1,$8,$9,$2,$3,0*%
G04 Aperture macros list end*
%ADD10RoundRect,0.123000X0.777000X0.287000X-0.777000X0.287000X-0.777000X-0.287000X0.777000X-0.287000X0*%
%ADD11RoundRect,0.250000X-0.337500X-0.475000X0.337500X-0.475000X0.337500X0.475000X-0.337500X0.475000X0*%
G04 APERTURE END LIST*
D10*
%TO.C,SW12*%
X61725000Y-132525000D03*
X61725000Y-131025000D03*
X56425000Y-131025000D03*
X56425000Y-132525000D03*
%TD*%
%TO.C,SW11*%
X42675000Y-132525000D03*
X42675000Y-131025000D03*
X37375000Y-131025000D03*
X37375000Y-132525000D03*
%TD*%
%TO.C,SW10*%
X61675000Y-113475000D03*
X61675000Y-111975000D03*
X56375000Y-111975000D03*
X56375000Y-113475000D03*
%TD*%
%TO.C,SW9*%
X42725000Y-113475000D03*
X42725000Y-111975000D03*
X37425000Y-111975000D03*
X37425000Y-113475000D03*
%TD*%
%TO.C,SW8*%
X61725000Y-94425000D03*
X61725000Y-92925000D03*
X56425000Y-92925000D03*
X56425000Y-94425000D03*
%TD*%
%TO.C,SW7*%
X42675000Y-94425000D03*
X42675000Y-92925000D03*
X37375000Y-92925000D03*
X37375000Y-94425000D03*
%TD*%
%TO.C,SW6*%
X61725000Y-75375000D03*
X61725000Y-73875000D03*
X56425000Y-73875000D03*
X56425000Y-75375000D03*
%TD*%
%TO.C,SW5*%
X42675000Y-75375000D03*
X42675000Y-73875000D03*
X37375000Y-73875000D03*
X37375000Y-75375000D03*
%TD*%
%TO.C,SW4*%
X61725000Y-56325000D03*
X61725000Y-54825000D03*
X56425000Y-54825000D03*
X56425000Y-56325000D03*
%TD*%
%TO.C,SW3*%
X42675000Y-56325000D03*
X42675000Y-54825000D03*
X37375000Y-54825000D03*
X37375000Y-56325000D03*
%TD*%
%TO.C,SW2*%
X61725000Y-37275000D03*
X61725000Y-35775000D03*
X56425000Y-35775000D03*
X56425000Y-37275000D03*
%TD*%
%TO.C,SW1*%
X42675000Y-37275000D03*
X42675000Y-35775000D03*
X37375000Y-35775000D03*
X37375000Y-37275000D03*
%TD*%
D11*
%TO.C,C12*%
X57962500Y-134500000D03*
X60037500Y-134500000D03*
%TD*%
%TO.C,C11*%
X39000000Y-134500000D03*
X41075000Y-134500000D03*
%TD*%
%TO.C,C10*%
X57962500Y-115500000D03*
X60037500Y-115500000D03*
%TD*%
%TO.C,C9*%
X38962500Y-115500000D03*
X41037500Y-115500000D03*
%TD*%
%TO.C,C8*%
X57962500Y-96500000D03*
X60037500Y-96500000D03*
%TD*%
%TO.C,C7*%
X38962500Y-96500000D03*
X41037500Y-96500000D03*
%TD*%
%TO.C,C6*%
X57962500Y-77500000D03*
X60037500Y-77500000D03*
%TD*%
%TO.C,C5*%
X38962500Y-77500000D03*
X41037500Y-77500000D03*
%TD*%
%TO.C,C4*%
X57962500Y-58500000D03*
X60037500Y-58500000D03*
%TD*%
%TO.C,C3*%
X38925000Y-58250000D03*
X41000000Y-58250000D03*
%TD*%
%TO.C,C2*%
X57925000Y-39250000D03*
X60000000Y-39250000D03*
%TD*%
%TO.C,C1*%
X38962500Y-39250000D03*
X41037500Y-39250000D03*
%TD*%
M02*
